<svg width="212" height="140" fill="none" xmlns="http://www.w3.org/2000/svg"><path d="M182.773 27.707v1.5h1.52c14.41 0 26.207 11.797 26.207 26.21 0 14.41-11.797 26.207-26.207 26.207h-38.396v1.5c0 14.41-11.796 26.207-26.209 26.207H55.623c-14.412 0-26.21-11.797-26.21-26.207v-1.5h-1.706C13.297 81.624 1.5 69.827 1.5 55.416c0-14.412 11.797-26.209 26.207-26.209h38.584v-1.5C66.291 13.297 78.088 1.5 92.5 1.5h64.067c14.41 0 26.207 11.797 26.207 26.207Z" fill="#FFFFFE" stroke="#DBDCD6" stroke-width="3"/><path fill-rule="evenodd" clip-rule="evenodd" d="M184.293 27.707h-.02C184.273 12.468 171.804 0 156.566 0H106v110.831h13.688c15.241 0 27.709-12.468 27.709-27.707h36.896c15.239 0 27.707-12.469 27.707-27.708 0-15.24-12.468-27.709-27.707-27.709Z" fill="#DBDCD6"/><path fill-rule="evenodd" clip-rule="evenodd" d="m148.906 40.287-25.379 60.147c-7.526 17.84 4.819 38.156 24.167 38.941a30.468 30.468 0 0 0 2.423 0c19.348-.785 31.694-21.101 24.166-38.941l-25.377-60.147Z" fill="#98D1D8"/><path fill-rule="evenodd" clip-rule="evenodd" d="m174.283 100.434-25.377-60.147V139.4c.406 0 .811-.009 1.211-.025 19.348-.785 31.694-21.101 24.166-38.941Z" fill="#87B3BB"/></svg>