<svg width="213" height="211" fill="none" xmlns="http://www.w3.org/2000/svg"><path fill-rule="evenodd" clip-rule="evenodd" d="M27.217 105.499c0-43.662 35.396-79.058 79.058-79.058 43.662 0 79.058 35.396 79.058 79.058 0 43.664-35.396 79.06-79.058 79.06-43.662 0-79.058-35.396-79.058-79.06Zm-6.774 11.979-14.266 27.54 28.94 11.155.166 31.015 30.81-3.573L80.653 211l25.621-17.482L131.895 211l14.56-27.385 30.811 3.573.166-31.015 28.941-11.155-14.267-27.54 20.443-23.327-25.429-17.757 7.259-30.154-30.769-3.904-7.584-30.074-29.06 10.842L106.275 0 85.583 23.104l-29.06-10.842-7.584 30.074-30.768 3.904 7.258 30.154L0 94.151l20.443 23.327Z" fill="#F0A64D"/><path fill-rule="evenodd" clip-rule="evenodd" d="M106.274 36.42c38.151 0 69.079 30.928 69.079 69.079 0 38.152-30.928 69.078-69.079 69.078-38.15 0-69.078-30.926-69.078-69.078 0-38.15 30.928-69.079 69.078-69.079Z" fill="#F0A64D"/><path fill-rule="evenodd" clip-rule="evenodd" d="M185.332 105.499c0-43.662-35.396-79.058-79.058-79.058V0l20.692 23.104 29.06-10.842 7.584 30.074 30.768 3.904-7.258 30.154 25.429 17.757-20.443 23.327 14.266 27.54-28.94 11.155-.166 31.015-30.811-3.573L131.895 211l-25.621-17.482v-8.959c43.662 0 79.058-35.396 79.058-79.06Z" fill="#EB8C3C"/><path fill-rule="evenodd" clip-rule="evenodd" d="M175.353 105.499c0 38.152-30.928 69.078-69.079 69.078V36.42c38.151 0 69.079 30.928 69.079 69.079Z" fill="#EB8C3C"/></svg>