<svg width="212" height="185" fill="none" xmlns="http://www.w3.org/2000/svg"><path d="M182.773 27.707v1.5h1.52c14.41 0 26.207 11.797 26.207 26.21 0 14.41-11.797 26.207-26.207 26.207h-38.397v1.5c0 14.41-11.797 26.207-26.208 26.207H55.621c-14.41 0-26.207-11.797-26.207-26.207v-1.5h-1.707C13.297 81.624 1.5 69.827 1.5 55.416c0-14.412 11.797-26.209 26.207-26.209h38.584v-1.5C66.291 13.297 78.088 1.5 92.5 1.5h64.067c14.41 0 26.207 11.797 26.207 26.207Z" fill="#FFFFFE" stroke="#DBDCD6" stroke-width="3"/><path fill-rule="evenodd" clip-rule="evenodd" d="M184.293 27.707h-.02C184.273 12.468 171.804 0 156.566 0H106v110.831h13.688c15.239 0 27.708-12.468 27.708-27.707h36.897c15.239 0 27.707-12.469 27.707-27.708 0-15.24-12.468-27.709-27.707-27.709Z" fill="#DBDCD6"/><path fill-rule="evenodd" clip-rule="evenodd" d="M135.945 40.287h41.336c1.955 0 3.27 2.003 2.49 3.796l-20.535 47.312c-.78 1.793.535 3.796 2.49 3.796h10.808c2.081 0 3.389 2.246 2.361 4.055l-47.581 83.844c-1.024 1.808-3.789.746-3.342-1.282l13.581-61.597a2.715 2.715 0 0 0-2.652-3.299H120.53a2.715 2.715 0 0 1-2.654-3.289l15.415-71.196a2.716 2.716 0 0 1 2.654-2.14Z" fill="#F0A64D"/><path fill-rule="evenodd" clip-rule="evenodd" d="M179.77 44.083c.78-1.793-.535-3.796-2.49-3.796h-28.376v104.755l25.99-45.796c1.028-1.809-.28-4.055-2.361-4.055h-10.808c-1.955 0-3.27-2.003-2.49-3.796l20.535-47.312Z" fill="#EB8C3C"/></svg>