<svg width="132" height="143" fill="none" xmlns="http://www.w3.org/2000/svg"><path fill-rule="evenodd" clip-rule="evenodd" d="M111.734 137.039 3.655 123.999c-1.31-1.995-1.891-4.288-1.508-6.625L20.672 4.215c.291-1.78 2.11-3.035 4.058-2.8L128.298 13.91c1.949.235 3.287 1.872 2.996 3.652l-19.56 119.477Z" fill="#E15C42"/><path fill-rule="evenodd" clip-rule="evenodd" d="m3.668 124.001-.013-.002c-1.31-1.995-1.891-4.288-1.508-6.625L20.672 4.215c.291-1.78 2.11-3.035 4.058-2.8l3.412.411c-1.73 10.043-3.584 20.068-5.453 30.091-2.414 12.963-4.691 25.944-7.057 38.915-2.163 11.855-4.724 23.651-6.906 35.503-.023.122.076.207.187.221a.228.228 0 0 0 .198-.072c2.438-2.722 6.286-3.574 9.94-3.778 2.447-.137 4.907.01 7.343.304 1.896.228 3.778.546 5.63.89 3.931.729 7.796 1.691 11.686 2.567 3.724.841 7.51 1.428 11.317 1.887 1.755.212 3.515.396 5.275.567 6.954.67 13.941 1.075 20.887 1.811 1.376.146 2.75.303 4.124.469 5.549.67 11.08 1.479 16.61 2.246 4.453.617 8.913 1.229 13.382 1.78l-.68 4.154-96.8-11.679-.006.036c-7.798-.503-14.693 3.652-15.67 9.62-.383 2.338.198 4.631 1.509 6.627l.01.016Z" fill="#E0553D"/><path fill-rule="evenodd" clip-rule="evenodd" d="m114.625 119.381-3.707 22.643-96.8-11.679.005-.031c-4.652-.831-8.436-3.234-10.465-6.329-1.311-1.996-1.892-4.289-1.509-6.628.977-5.967 7.872-10.122 15.67-9.62l.005-.035 96.801 11.679Z" fill="#BF503B"/><path fill-rule="evenodd" clip-rule="evenodd" d="M88.591 13.903s.88.04 2.414.144c1.532.118 3.728.245 6.349.473 2.623.217 5.679.5 8.948.838 1.634.175 3.325.333 5.036.535l5.194.593 2.603.323a8.665 8.665 0 0 1 2.769.788 6.665 6.665 0 0 1 2.241 1.688c.619.7.96 1.538 1.205 2.35.414 1.645.083 3.296-.185 4.598l-.761 3.834c-.475 2.374-.941 4.344-1.235 5.727-.31 1.381-.509 2.168-.509 2.168-.024.094-.127.154-.228.133-.093-.017-.154-.094-.148-.178 0 0 .062-.804.207-2.205.162-1.399.347-3.403.652-5.797l.499-3.866.142-1.042c.038-.343.05-.663.078-1.001.04-.337-.03-.66-.03-.994-.011-.334-.122-.645-.172-.973-.218-.614-.477-1.225-.945-1.714a5.43 5.43 0 0 0-1.688-1.217 6.688 6.688 0 0 0-2.171-.598l-2.605-.305-5.184-.66c-1.709-.21-3.386-.459-5.012-.676-3.251-.45-6.28-.9-8.87-1.313-2.594-.401-4.745-.798-6.256-1.047-1.507-.263-2.366-.433-2.366-.433-.051-.011-.084-.057-.071-.104.011-.042.054-.07.1-.069Z" fill="#FFFFFE"/><path fill-rule="evenodd" clip-rule="evenodd" d="m114.302 121.356-3.147 19.223-94.344-11.383.005-.033c-4.236-.723-7.766-2.599-9.872-5.016a4.32 4.32 0 0 1-.193-.224c-.748-.913-1.3-1.894-1.615-2.914a6.577 6.577 0 0 1-.238-2.953l.033-.197a6.945 6.945 0 0 1 1.176-2.777c.63-.909 1.476-1.724 2.484-2.421.084-.057.171-.111.256-.169 2.8-1.824 6.797-2.797 11.107-2.492l.004-.026 94.344 11.382Z" fill="#DBD5C3"/><path fill-rule="evenodd" clip-rule="evenodd" d="m113.682 125.14-.032.196L8.591 112.661c.085-.057.172-.111.256-.169l104.835 12.648ZM113.213 128.004l-.032.196-107.2-12.934c.039-.062.08-.127.126-.185l107.106 12.923ZM4.899 118.056l107.813 13.008.033-.197L4.931 117.859l-.032.197ZM112.275 133.733l-.032.198L5.136 121.009a2.552 2.552 0 0 1-.062-.209l107.201 12.933ZM111.807 136.597l-.033.198-104.83-12.648c-.068-.072-.13-.149-.193-.225l105.056 12.675Z" fill="#D6BCB4"/><path fill-rule="evenodd" clip-rule="evenodd" d="m100.773 26.934-2.974 18.168c-.138.838-.99 1.427-1.908 1.317l-53.733-6.483c-.916-.11-1.543-.879-1.405-1.717l2.974-18.168c.137-.833.985-1.425 1.902-1.314l53.733 6.483c.917.11 1.547.88 1.411 1.714Z" fill="#EB926E"/><path fill-rule="evenodd" clip-rule="evenodd" d="M49.704 35.27c.529.439 1.089.693 1.68.764.738.09 1.394-.12 1.973-.63.578-.512.944-1.23 1.095-2.154.114-.694.01-1.243-.311-1.644a5.11 5.11 0 0 0-1.032-.994c-.519.153-1.06.283-1.628.392a5.136 5.136 0 0 1-1.575.076 46.04 46.04 0 0 0-.221 4.1c.019.024.026.053.02.09Zm4.511-8.652c.11-.676-.042-1.22-.458-1.635a2.462 2.462 0 0 0-1.477-.723c-.486-.058-.88.022-1.183.241-.306.218-.51.645-.614 1.282a33.43 33.43 0 0 0-.279 2.089l-.186 1.924c.28-.123.618-.215 1.014-.276.397-.06.802-.173 1.216-.34.415-.166.797-.438 1.15-.819.353-.38.625-.96.817-1.743Zm3.343 5.385c.233.54.302 1.108.204 1.704a4.054 4.054 0 0 1-.869 1.96 5.48 5.48 0 0 1-1.606 1.34 6.504 6.504 0 0 1-2 .702 6.877 6.877 0 0 1-2.03.079 8.618 8.618 0 0 1-1.078-.203 3.226 3.226 0 0 1-.977-.428c-.221.033-.434.046-.637.04a6.27 6.27 0 0 1-.588-.042c-.464-.056-.816-.142-1.056-.257-.237-.118-.408-.258-.51-.417a1.103 1.103 0 0 1-.168-.566 81.971 81.971 0 0 1-.017-.68c.01-2.416.213-4.839.61-7.267.171-1.041.341-1.882.51-2.519.17-.639.357-1.126.562-1.465.204-.34.44-.56.706-.667.264-.107.579-.157.944-.153a7.58 7.58 0 0 1 1.778-.33 9.913 9.913 0 0 1 1.78.054c.402.048.88.145 1.437.29a6.023 6.023 0 0 1 1.569.661c.488.295.882.678 1.18 1.145.3.469.395 1.051.281 1.745-.113.693-.433 1.303-.962 1.829a6.941 6.941 0 0 1-1.774 1.29 8.992 8.992 0 0 1 1.573.838c.503.337.883.775 1.138 1.317ZM63.581 37.358c.441.053.887-.178 1.337-.694.45-.515.872-1.149 1.261-1.897.392-.749.728-1.514 1.007-2.295.277-.784.459-1.424.54-1.926.067-.405.085-.884.059-1.438a7.953 7.953 0 0 0-.24-1.59 4.575 4.575 0 0 0-.558-1.322c-.239-.37-.528-.579-.866-.62-.084-.01-.24.012-.462.063a3.068 3.068 0 0 0-1.413.95 6.504 6.504 0 0 0-.944 1.537 10.383 10.383 0 0 0-.611 1.857 31.03 31.03 0 0 0-.37 1.886 12.137 12.137 0 0 0-.139 1.62 10.11 10.11 0 0 0 .1 1.752c.083.55.224 1.03.427 1.437.2.408.493.634.872.68Zm2.204-12.884c.939.055 1.782.25 2.532.586.752.337 1.371.789 1.859 1.36.487.57.826 1.249 1.02 2.039.193.79.208 1.675.047 2.66a11.73 11.73 0 0 1-.906 2.97 9.323 9.323 0 0 1-1.653 2.514 6.803 6.803 0 0 1-2.347 1.648c-.901.382-1.9.508-2.996.376-.97-.117-1.78-.393-2.43-.825a4.679 4.679 0 0 1-1.522-1.629 5.816 5.816 0 0 1-.693-2.16 8.652 8.652 0 0 1 .062-2.456c.142-.867.388-1.74.736-2.623a8.377 8.377 0 0 1 1.383-2.34 6.476 6.476 0 0 1 2.07-1.621c.808-.404 1.754-.572 2.838-.5ZM76.512 38.918c.441.053.888-.178 1.338-.693.45-.516.872-1.15 1.262-1.897.392-.75.726-1.515 1.005-2.296.278-.783.458-1.424.54-1.925.067-.406.085-.885.058-1.439a7.951 7.951 0 0 0-.239-1.59 4.611 4.611 0 0 0-.556-1.322c-.241-.37-.53-.579-.866-.62-.085-.01-.24.012-.462.063a3.05 3.05 0 0 0-1.413.95 6.396 6.396 0 0 0-.945 1.537 10.254 10.254 0 0 0-.61 1.858 31.15 31.15 0 0 0-.375 1.885c-.076.463-.12 1.002-.136 1.62-.015.618.02 1.203.101 1.753.081.55.223 1.029.425 1.437.203.407.494.633.873.679Zm2.205-12.884c.937.055 1.78.25 2.534.586.749.337 1.368.789 1.857 1.36.486.57.824 1.249 1.018 2.04.194.79.21 1.674.05 2.659a11.738 11.738 0 0 1-.906 2.97 9.332 9.332 0 0 1-1.653 2.514 6.795 6.795 0 0 1-2.35 1.648c-.9.382-1.9.508-2.994.376-.97-.117-1.78-.392-2.43-.824a4.678 4.678 0 0 1-1.523-1.63 5.844 5.844 0 0 1-.694-2.16 8.652 8.652 0 0 1 .064-2.456c.142-.867.386-1.74.737-2.623a8.29 8.29 0 0 1 1.383-2.34 6.44 6.44 0 0 1 2.069-1.62c.808-.404 1.755-.572 2.838-.5ZM93.733 41.261c.02.14.053.285.104.44.05.153.062.308.037.462-.047.288-.262.445-.641.468a6.272 6.272 0 0 1-1.106-.03c-.696-.084-1.145-.237-1.344-.458-.2-.22-.36-.564-.477-1.03a15.178 15.178 0 0 0-.896-2.599 16.194 16.194 0 0 0-1.32-2.384c-.125.769-.204 1.55-.237 2.343-.033.794-.062 1.59-.084 2.392-.019.117-.098.2-.236.254-.137.05-.294.087-.469.105-.175.018-.365.02-.565.004-.203-.014-.376-.03-.523-.048-.423-.051-.755-.124-.996-.223-.244-.098-.416-.213-.525-.342a.92.92 0 0 1-.203-.438 2.498 2.498 0 0 1-.025-.534c.019-1.157.11-2.34.275-3.55.165-1.207.344-2.39.533-3.548l.372-2.269c.124-.76.298-1.501.525-2.22a.53.53 0 0 1 .216-.344c.123-.092.268-.163.439-.21.168-.05.33-.084.484-.106.153-.02.284-.024.388-.012l.554.067c.22.027.434.066.642.122.205.053.376.123.514.209.134.086.193.196.17.33a.066.066 0 0 1-.022.042.057.057 0 0 0-.025.04.177.177 0 0 0 .026.138.12.12 0 0 1 .032.105 31.36 31.36 0 0 1-.334 1.745c-.127.585-.241 1.174-.34 1.772.42-.322.83-.652 1.227-.987.4-.336.8-.675 1.2-1.02.175-.155.365-.335.57-.536a3.975 3.975 0 0 1 1.459-.93c.286-.103.598-.134.934-.094.316.038.578.145.786.317.209.172.285.423.231.75-.009.057-.025.096-.049.112a6.996 6.996 0 0 1-1.14 1.351c-.443.409-.911.809-1.407 1.203-.494.392-.992.784-1.497 1.175-.506.39-.976.814-1.417 1.273.53.3 1.007.697 1.433 1.19a10.12 10.12 0 0 1 1.148 1.657c.34.61.638 1.246.895 1.907.257.659.486 1.307.684 1.94Z" fill="#FCF9CE"/><path fill-rule="evenodd" clip-rule="evenodd" d="m111.753 136.924.069-.421.023.003c-.032.139-.062.278-.092.418Z" fill="#D7D5CB"/><path fill-rule="evenodd" clip-rule="evenodd" d="m111.082 141.021-2.757-.345-26.79-3.36-43.243-5.425c-7.159-.899-14.32-1.798-21.481-2.694l94.344 11.382-.073.442Z" fill="#B74E39"/><path fill-rule="evenodd" clip-rule="evenodd" d="m111.155 140.579-94.344-11.383.005-.033c-4.236-.723-7.766-2.599-9.872-5.016l7.514.907c.75.481 1.541.893 2.342 1.217 2.76 1.122 5.753 1.694 8.78 2.059 1.954.236 3.923.386 5.85.541 1.492.119 2.977.275 4.458.453 2.411.291 4.813.642 7.214.993 2.403.351 4.805.702 7.217.993.31.038.622.074.933.11 9.428 1.072 18.953 1.391 28.372 2.528l.68.083c3.746.469 7.473 1.069 11.222 1.521 1.634.197 3.272.366 4.918.483.286.022.574.04.86.053 3.047.16 6.121.027 9.177.068l5.293.639-.021.13c-.254 1.2-.413 2.444-.601 3.654h.003Zm.651-3.981-3.085-.373a38.852 38.852 0 0 1 3.101.279l-.016.094Zm-97.718-11.79-7.337-.885c-.748-.913-1.3-1.894-1.615-2.914l5.746.693c.82 1.174 1.943 2.239 3.206 3.106Zm-3.355-3.326-5.659-.682a6.577 6.577 0 0 1-.175-2.744l5.018.606c-.057.908.186 1.864.814 2.817l.002.003Zm-.798-3.019-5.004-.604a6.945 6.945 0 0 1 1.05-2.593l5.123.618c-.645.77-1.065 1.647-1.17 2.579Zm1.326-2.759-5.154-.622c.63-.909 1.476-1.724 2.484-2.421l6.32.762c-.113.038-.225.077-.336.118-1.32.485-2.48 1.239-3.314 2.163Zm4.11-2.425-6.524-.787c2.8-1.824 6.797-2.797 11.107-2.492l.004-.026 94.344 11.382-.368 2.245a14.469 14.469 0 0 1-1.643-.138 490.456 490.456 0 0 0-14.069-1.879c-1.469-.177-2.94-.35-4.41-.521A2595.564 2595.564 0 0 0 78.07 119.3c-9.616-1.056-19.235-2.088-28.84-3.214l-.524-.063c-3.131-.377-6.27-.845-9.414-1.313-3.144-.468-6.293-.937-9.444-1.317-2.778-.335-5.558-.602-8.339-.738-1.988-.099-4.189.054-6.138.624Z" fill="#D0C9B4"/><path fill-rule="evenodd" clip-rule="evenodd" d="m14.91 113.423-6.319-.763c.085-.056.172-.11.256-.168l6.524.787c-.155.045-.309.093-.46.144ZM11.104 115.884l-5.124-.618c.04-.063.082-.128.127-.185l5.154.622c-.054.06-.106.12-.157.181ZM9.917 118.661l-5.018-.605.032-.197 5.004.604a4.069 4.069 0 0 0-.018.198ZM10.882 121.701l-5.745-.693a2.527 2.527 0 0 1-.063-.208l5.659.682c.048.074.098.147.149.219ZM111.774 136.795l-5.293-.639c.748.01 1.495.031 2.24.069l3.086.372-.033.198Zm-97.316-11.741-7.514-.907c-.068-.072-.13-.149-.193-.225l7.337.886c.122.084.246.165.37.246Z" fill="#CCB3A8"/><path fill-rule="evenodd" clip-rule="evenodd" d="M99.78 107.499c-3.322-.4-6.646-.877-9.93-1.31-12.438-1.641-24.825-3.533-37.354-5.044-6.323-.763-12.462-1.77-18.624-2.783-2.862-.47-5.928-1.34-8.96-1.706-2.373-.286-4.724-.264-6.941.498.529-5.394 2.119-10.891 3.535-16.135 2.252-8.333 3.872-16.865 5.27-25.404 1.878-11.47 3.206-23.292 5.94-34.63.817-3.385 2.269-5.92 6.328-6.355 5.245-.564 11.205-.294 16.52-.322 3.204-.018 6.464.261 9.728.655 4.22.509 8.445 1.21 12.564 1.706 8.143.983 15.967 2.49 23.877 3.97 5.165.966 13.303 2.512 15.907 7.276 1.487 2.724.005 5.227-.431 8.002-.556 3.535-.888 7.216-1.48 10.83-1.333 8.144-3.208 16.012-4.542 24.156l-3.328 20.333c-.495 3.02-1.05 5.992-.891 8.977.138 2.606.673 5.379-.163 7.979a140.755 140.755 0 0 1-7.024-.693ZM45.63 18.737c-.917-.11-1.765.48-1.902 1.315l-2.974 18.167c-.138.839.489 1.606 1.405 1.717l53.733 6.483c.917.11 1.77-.479 1.908-1.317l2.974-18.168c.136-.834-.494-1.603-1.411-1.714l-53.733-6.483Z" fill="#E3674B"/><path fill-rule="evenodd" clip-rule="evenodd" d="m95.891 46.419-53.733-6.483c-.916-.11-1.543-.879-1.405-1.717l2.974-18.168c.137-.833.985-1.425 1.902-1.314l53.733 6.483c.917.11 1.547.88 1.411 1.714l-2.974 18.168c-.138.838-.99 1.427-1.908 1.317Zm-46.69-9.263c.292.192.618.336.978.428.361.092.72.16 1.079.204a6.88 6.88 0 0 0 2.029-.08 6.496 6.496 0 0 0 2-.702 5.48 5.48 0 0 0 1.606-1.34 4.053 4.053 0 0 0 .869-1.959 2.992 2.992 0 0 0-.204-1.704 3.201 3.201 0 0 0-1.138-1.317 8.988 8.988 0 0 0-1.573-.837 6.94 6.94 0 0 0 1.774-1.291c.529-.526.849-1.136.962-1.83.114-.693.02-1.275-.28-1.744a3.572 3.572 0 0 0-1.181-1.145 6.016 6.016 0 0 0-1.569-.662 11.176 11.176 0 0 0-1.436-.29 9.923 9.923 0 0 0-1.781-.053 7.586 7.586 0 0 0-1.778.33c-.365-.004-.68.046-.944.153-.265.107-.502.327-.706.666-.205.34-.393.827-.561 1.466-.17.637-.34 1.477-.51 2.519a46.172 46.172 0 0 0-.61 7.266c.005.236.01.464.017.681.008.219.064.406.166.566.103.159.274.299.511.417.24.115.592.2 1.056.257.189.023.385.037.588.043.203.005.416-.009.637-.042Zm38.89-1.026c.502.748.94 1.542 1.319 2.384.378.84.676 1.708.896 2.6.117.466.277.808.477 1.03.199.22.648.373 1.344.457.358.043.727.052 1.106.03.379-.023.594-.18.641-.468a.962.962 0 0 0-.037-.461 2.498 2.498 0 0 1-.104-.44 29.79 29.79 0 0 0-.684-1.94 15.369 15.369 0 0 0-.895-1.907 10.12 10.12 0 0 0-1.148-1.657 5.425 5.425 0 0 0-1.433-1.19c.44-.459.911-.882 1.417-1.273.505-.391 1.003-.783 1.498-1.175.495-.394.963-.794 1.407-1.203.442-.409.822-.858 1.14-1.35.023-.017.04-.056.048-.113.054-.327-.022-.578-.23-.75a1.478 1.478 0 0 0-.787-.317 2.018 2.018 0 0 0-.934.093 3.986 3.986 0 0 0-.79.391 4.449 4.449 0 0 0-.669.54c-.205.2-.395.38-.57.536-.4.345-.8.684-1.2 1.02-.397.335-.807.665-1.226.987.097-.598.212-1.187.338-1.772.13-.584.24-1.165.335-1.745a.12.12 0 0 0-.032-.105.177.177 0 0 1-.026-.137.057.057 0 0 1 .025-.04.066.066 0 0 0 .023-.043c.022-.134-.037-.244-.171-.33a1.864 1.864 0 0 0-.514-.209 4.524 4.524 0 0 0-.642-.122l-.554-.067a1.597 1.597 0 0 0-.388.012 3.384 3.384 0 0 0-.484.105 1.31 1.31 0 0 0-.44.211.53.53 0 0 0-.215.344c-.227.719-.4 1.46-.525 2.22l-.372 2.27c-.19 1.156-.368 2.34-.533 3.547a29.627 29.627 0 0 0-.275 3.55c-.01.196 0 .373.025.534a.92.92 0 0 0 .203.438c.11.13.281.244.525.342.241.1.573.172.995.223.148.018.321.034.524.048.2.015.39.014.566-.005a1.93 1.93 0 0 0 .468-.104c.138-.054.217-.137.236-.254.022-.803.051-1.598.084-2.392.033-.793.112-1.574.238-2.343ZM79.245 26.08a8.523 8.523 0 0 0-.528-.047c-1.082-.072-2.03.096-2.838.5a6.44 6.44 0 0 0-2.07 1.62 8.292 8.292 0 0 0-1.382 2.34c-.35.883-.595 1.756-.737 2.623-.139.85-.16 1.666-.064 2.455.096.787.329 1.509.694 2.162a4.676 4.676 0 0 0 1.522 1.629c.65.431 1.46.707 2.43.824 1.095.132 2.094.006 2.995-.376a6.796 6.796 0 0 0 2.35-1.648 9.333 9.333 0 0 0 1.653-2.514c.436-.96.738-1.948.905-2.97.161-.985.145-1.87-.049-2.66s-.532-1.47-1.018-2.04c-.489-.57-1.108-1.022-1.857-1.359a6.95 6.95 0 0 0-2.006-.539Zm-12.932-1.56a8.555 8.555 0 0 0-.528-.047c-1.084-.073-2.03.095-2.838.499a6.476 6.476 0 0 0-2.07 1.62 8.378 8.378 0 0 0-1.383 2.341 12.745 12.745 0 0 0-.736 2.623 8.648 8.648 0 0 0-.062 2.455c.096.787.327 1.509.693 2.161a4.678 4.678 0 0 0 1.523 1.63c.648.431 1.46.707 2.429.824 1.095.132 2.095.006 2.996-.376a6.803 6.803 0 0 0 2.347-1.648 9.324 9.324 0 0 0 1.653-2.514c.436-.96.738-1.948.906-2.97.161-.985.146-1.87-.048-2.66-.193-.79-.532-1.47-1.02-2.04-.487-.57-1.106-1.022-1.858-1.36a6.905 6.905 0 0 0-2.004-.538Zm-14.93 11.513c-.59-.071-1.15-.325-1.679-.763.007-.038 0-.068-.02-.09a46.03 46.03 0 0 1 .222-4.101 5.13 5.13 0 0 0 1.575-.076c.567-.109 1.11-.239 1.628-.392.367.26.711.591 1.032.994.32.4.425.95.311 1.643-.151.925-.517 1.643-1.095 2.155-.579.509-1.235.72-1.974.63Zm25.129 2.884c-.38-.046-.67-.272-.873-.68a4.802 4.802 0 0 1-.425-1.436 10.318 10.318 0 0 1-.101-1.753c.016-.617.06-1.157.136-1.62.098-.596.224-1.226.374-1.885.152-.66.355-1.28.61-1.858.257-.58.57-1.09.946-1.537a3.048 3.048 0 0 1 1.413-.95c.222-.05.377-.072.462-.062.336.04.624.248.866.619.238.375.424.815.556 1.322.13.508.212 1.038.24 1.59a6.944 6.944 0 0 1-.059 1.438c-.082.502-.261 1.143-.54 1.926-.28.781-.613 1.546-1.005 2.296-.39.747-.812 1.381-1.262 1.897-.45.515-.897.746-1.338.693Zm-12.93-1.56c-.38-.046-.672-.272-.873-.68a4.847 4.847 0 0 1-.427-1.437 10.12 10.12 0 0 1-.1-1.752c.017-.618.062-1.156.138-1.62.098-.595.22-1.226.37-1.886.153-.66.357-1.28.611-1.857.258-.58.572-1.09.945-1.538a3.067 3.067 0 0 1 1.413-.95c.223-.05.378-.072.462-.061.338.04.627.248.866.619.24.375.425.815.557 1.321.132.509.212 1.039.24 1.591a6.95 6.95 0 0 1-.057 1.438c-.082.502-.264 1.142-.54 1.926-.28.781-.616 1.546-1.007 2.295-.39.748-.812 1.382-1.262 1.897-.45.516-.896.747-1.337.694Zm-13.564-7.562.186-1.924a33.44 33.44 0 0 1 .279-2.09c.104-.636.308-1.063.614-1.281.303-.219.697-.3 1.183-.24.57.068 1.062.31 1.477.722.416.415.569.959.458 1.635-.192.782-.464 1.362-.817 1.743-.353.381-.735.653-1.15.819-.414.166-.82.28-1.216.34a4.077 4.077 0 0 0-1.014.276Z" fill="#ED9A76"/><path fill-rule="evenodd" clip-rule="evenodd" d="M51.258 37.788a8.618 8.618 0 0 1-1.08-.203 3.226 3.226 0 0 1-.976-.428c-.221.033-.434.046-.637.04a6.27 6.27 0 0 1-.588-.042c-.464-.056-.816-.142-1.056-.257-.237-.118-.408-.258-.51-.417a1.103 1.103 0 0 1-.168-.566 81.971 81.971 0 0 1-.017-.68c.01-2.416.213-4.839.61-7.267.171-1.041.341-1.882.51-2.519.17-.639.357-1.126.562-1.465.204-.34.44-.56.706-.667.264-.107.579-.157.944-.153a7.58 7.58 0 0 1 1.778-.33 9.913 9.913 0 0 1 1.78.054c.402.048.88.145 1.437.29a6.023 6.023 0 0 1 1.569.661c.488.295.882.678 1.18 1.145.3.469.395 1.051.281 1.745-.113.693-.433 1.303-.962 1.829a6.941 6.941 0 0 1-1.774 1.29 8.992 8.992 0 0 1 1.573.838c.503.337.883.775 1.138 1.317.233.54.302 1.108.204 1.704a4.054 4.054 0 0 1-.869 1.96 5.48 5.48 0 0 1-1.606 1.34 6.504 6.504 0 0 1-2 .702 6.877 6.877 0 0 1-2.03.079Zm1.851-7.176c-.519.153-1.06.283-1.628.392a5.136 5.136 0 0 1-1.575.076 46.04 46.04 0 0 0-.221 4.1c.019.024.026.053.02.09.528.439 1.088.693 1.678.764.74.09 1.395-.12 1.974-.63.578-.512.944-1.23 1.095-2.154.114-.694.01-1.243-.311-1.644a5.11 5.11 0 0 0-1.032-.994Zm-.829-6.352c-.486-.058-.88.022-1.183.241-.306.218-.51.645-.614 1.282a33.43 33.43 0 0 0-.279 2.089l-.186 1.924c.28-.123.618-.215 1.014-.276.397-.06.802-.173 1.216-.34.415-.166.797-.438 1.15-.819.353-.38.625-.96.817-1.743.11-.676-.042-1.22-.458-1.635a2.462 2.462 0 0 0-1.477-.723ZM63.34 38.627c-.969-.117-1.78-.393-2.429-.825a4.677 4.677 0 0 1-1.522-1.629 5.814 5.814 0 0 1-.693-2.16 8.648 8.648 0 0 1 .062-2.456c.142-.867.388-1.74.736-2.623.348-.881.81-1.66 1.383-2.34a6.477 6.477 0 0 1 2.07-1.621c.808-.404 1.754-.572 2.838-.499.18.01.356.026.528.047a6.91 6.91 0 0 1 2.004.539c.752.337 1.371.789 1.859 1.36.487.57.826 1.249 1.02 2.039.193.79.208 1.675.047 2.66a11.73 11.73 0 0 1-.906 2.97 9.321 9.321 0 0 1-1.653 2.514 6.803 6.803 0 0 1-2.347 1.648c-.901.382-1.9.508-2.996.376Zm2.781-13.05c-.084-.01-.24.01-.462.062a3.067 3.067 0 0 0-1.413.95 6.505 6.505 0 0 0-.945 1.537 10.393 10.393 0 0 0-.61 1.857c-.15.66-.274 1.29-.371 1.886a12.122 12.122 0 0 0-.138 1.62 10.12 10.12 0 0 0 .1 1.752c.083.55.224 1.03.427 1.437.2.408.493.634.872.68.441.053.887-.178 1.337-.694.45-.515.872-1.149 1.261-1.897a18.14 18.14 0 0 0 1.007-2.295c.277-.784.459-1.424.54-1.926.067-.405.085-.884.058-1.438a7.951 7.951 0 0 0-.24-1.59 4.574 4.574 0 0 0-.557-1.322c-.24-.37-.528-.579-.866-.62ZM76.273 40.187c-.97-.117-1.78-.392-2.43-.824a4.675 4.675 0 0 1-1.523-1.63 5.844 5.844 0 0 1-.694-2.16 8.653 8.653 0 0 1 .064-2.456c.142-.867.387-1.74.737-2.623a8.292 8.292 0 0 1 1.383-2.34 6.44 6.44 0 0 1 2.069-1.62c.808-.404 1.756-.572 2.838-.5.18.01.355.027.528.047a6.95 6.95 0 0 1 2.006.54c.749.336 1.368.788 1.857 1.359.486.57.825 1.249 1.018 2.04.194.79.21 1.674.05 2.659a11.738 11.738 0 0 1-.906 2.97 9.333 9.333 0 0 1-1.653 2.514 6.796 6.796 0 0 1-2.35 1.648c-.9.382-1.9.508-2.994.376Zm2.78-13.05c-.084-.01-.24.011-.461.062-.57.188-1.04.504-1.413.95a6.396 6.396 0 0 0-.945 1.537 10.258 10.258 0 0 0-.61 1.858c-.151.659-.277 1.29-.375 1.885-.076.463-.12 1.002-.136 1.62-.015.618.02 1.203.101 1.753.082.55.223 1.029.425 1.437.203.407.494.633.873.679.441.053.888-.178 1.338-.693.45-.516.872-1.15 1.262-1.897.392-.75.726-1.515 1.005-2.296.279-.783.458-1.424.54-1.925.067-.406.085-.885.058-1.439a7.949 7.949 0 0 0-.238-1.59 4.616 4.616 0 0 0-.557-1.322c-.241-.37-.53-.579-.866-.62ZM92.127 42.6c-.696-.083-1.145-.236-1.344-.457-.2-.22-.36-.564-.477-1.03a15.178 15.178 0 0 0-.896-2.599 16.194 16.194 0 0 0-1.32-2.384c-.125.769-.204 1.55-.237 2.343-.033.794-.062 1.59-.084 2.392-.019.117-.098.2-.236.254-.137.05-.294.087-.469.105-.175.018-.365.02-.565.004-.203-.014-.376-.03-.523-.048-.423-.051-.755-.124-.996-.223-.244-.098-.416-.213-.525-.342a.92.92 0 0 1-.203-.438 2.498 2.498 0 0 1-.025-.534c.019-1.157.11-2.34.275-3.55.165-1.207.344-2.39.533-3.548l.372-2.269c.124-.76.298-1.501.525-2.22a.53.53 0 0 1 .216-.344c.123-.092.268-.163.439-.21.168-.05.33-.084.484-.106.153-.02.284-.024.388-.012l.554.067c.22.027.434.066.642.122.205.053.376.123.514.209.134.086.193.196.17.33a.066.066 0 0 1-.022.042.057.057 0 0 0-.025.04.177.177 0 0 0 .026.138.12.12 0 0 1 .032.105 31.36 31.36 0 0 1-.334 1.745c-.127.585-.241 1.174-.34 1.772.42-.322.83-.652 1.227-.987.4-.336.8-.675 1.2-1.02.175-.155.365-.335.57-.536a3.975 3.975 0 0 1 1.459-.93c.286-.103.598-.134.934-.094.316.038.578.145.786.317.209.172.285.423.231.75-.009.057-.025.096-.049.112a6.996 6.996 0 0 1-1.14 1.351c-.443.409-.911.809-1.407 1.203-.494.392-.992.784-1.497 1.175-.506.39-.976.814-1.417 1.273.53.3 1.007.697 1.433 1.19a10.12 10.12 0 0 1 1.148 1.657c.34.61.638 1.246.895 1.907.257.659.486 1.307.684 1.94.02.139.053.285.104.44.05.152.062.307.037.46-.047.289-.262.446-.641.47a6.272 6.272 0 0 1-1.106-.031Z" fill="#FDF9D1"/></svg>