<svg width="107" height="141" fill="none" xmlns="http://www.w3.org/2000/svg"><path fill-rule="evenodd" clip-rule="evenodd" d="M85.312 133.832c-.431 2.729-2.976 4.661-5.683 4.323l-71.79-8.972c-2.707-.338-4.553-2.82-4.122-5.548L22.124 7.171c.43-2.726 2.975-4.662 5.683-4.323l71.788 8.971c2.708.339 4.554 2.823 4.124 5.55L85.312 133.832ZM99.875 10.053l-71.79-8.972c-3.83-.478-7.42 2.14-8.004 5.835L1.674 123.379c-.584 3.696 2.056 7.092 5.886 7.571l71.79 8.972c3.832.479 7.421-2.139 8.005-5.835l18.407-116.463c.584-3.695-2.054-7.092-5.887-7.57Z" fill="#C6C6C3"/><path fill-rule="evenodd" clip-rule="evenodd" d="m10.636 114.373 70.895 8.86 15.5-98.066-70.896-8.86-15.5 98.066ZM99.368 13.26l-5.183-.648L27.207 4.25c-2.707-.339-5.199 1.287-5.63 4.01L3.172 124.724a4.85 4.85 0 0 0 .869 3.652 5.251 5.251 0 0 1-.236-.642 4.736 4.736 0 0 0 3.808 2.889l71.789 8.972c2.708.338 5.252-1.595 5.683-4.323l18.407-116.464c.431-2.726-1.416-5.21-4.123-5.55Z" fill="#FFFFFE"/><path fill-rule="evenodd" clip-rule="evenodd" d="M45.384 123.222c-2.956-.37-5.682 1.402-6.087 3.959l-.005.18c.435-2.751 3.19-4.403 6.08-4.042 2.89.361 5.039 2.521 4.588 5.376l.05-.175c.404-2.557-1.667-4.929-4.626-5.298Z" fill="#C6C6C3"/><path fill-rule="evenodd" clip-rule="evenodd" d="M45.264 123.98c-2.586-.323-4.964 1.229-5.318 3.463a3.778 3.778 0 0 0-.031.694c.929.835 1.628 1.597 4.388 1.942 2.143.268 3.506-.158 4.818-.793a3.57 3.57 0 0 0 .19-.672c.353-2.235-1.46-4.31-4.047-4.634Z" fill="#C6C6C3"/><path fill-rule="evenodd" clip-rule="evenodd" d="M49.121 129.286c-1.311.635-2.675 1.061-4.817.793-2.76-.345-3.46-1.106-4.388-1.942l-.013-.014.011.076c.005.103.027.202.043.303.021.154.045.309.085.46.03.098.068.195.104.291.057.149.115.294.188.431.046.089.098.172.15.258.089.142.189.279.293.408.056.074.117.143.18.214.122.134.26.26.402.378l.195.165c.164.118.336.226.52.332l.191.112c.21.105.431.189.66.269l.156.06c.283.087.581.154.892.193l.007-.001.006.003.059.001c2.312.262 4.381-.768 5.022-2.628l.028-.064.047-.107-.02.009Z" fill="#9B9D9C"/><mask id="a" style="mask-type:alpha" maskUnits="userSpaceOnUse" x="53" y="13" width="19" height="5"><path d="m70.762 16.268-16.619-2.077a1.04 1.04 0 0 1-.555-.255c.07.65.436 1.153.958 1.218l15.531 1.94c.52.066 1.032-.328 1.3-.935a1.106 1.106 0 0 1-.615.11Z" fill="#fff"/></mask><g mask="url(#a)"><path fill-rule="evenodd" clip-rule="evenodd" d="m70.762 16.268-16.619-2.077a1.04 1.04 0 0 1-.555-.255c.07.65.436 1.153.958 1.218l15.531 1.94c.52.066 1.032-.328 1.3-.935a1.106 1.106 0 0 1-.615.11Z" fill="url(#b)"/></g><path fill-rule="evenodd" clip-rule="evenodd" d="m8.668 116.41 74.132 9.264L99.007 23.132l-74.133-9.264L8.668 116.41Z" fill="#3E4141"/><path fill-rule="evenodd" clip-rule="evenodd" d="m13.304 85.837 11.379-71.993.192.024-11.35 71.81-.22.16Z" fill="#FFFFFE"/><path fill-rule="evenodd" clip-rule="evenodd" d="m13.525 85.678 11.35-71.81 73.94 9.24-.145.92-85.145 61.65Z" fill="#515453"/><defs><linearGradient id="b" x1="62.483" y1="15.046" x2="62.346" y2="16.135" gradientUnits="userSpaceOnUse"><stop stop-color="#AFB0AC"/><stop offset="1" stop-color="#737573"/></linearGradient></defs></svg>