<svg width="111" height="134" fill="none" xmlns="http://www.w3.org/2000/svg"><path fill-rule="evenodd" clip-rule="evenodd" d="m1.445 123.792 87.49 8.895 20.061-121.792L21.506 2 1.445 123.792Z" fill="#A05C2E"/><path fill-rule="evenodd" clip-rule="evenodd" d="m8.183 118.357 75.994 7.714 18.078-109.74-75.993-7.714-18.079 109.74Z" fill="#632A1E"/><path fill-rule="evenodd" clip-rule="evenodd" d="m9.534 116.891 73.812 7.493 17.559-106.589-73.812-7.492L9.533 116.89Z" fill="#7D3723"/><path fill-rule="evenodd" clip-rule="evenodd" d="m17.77 112.49 27.02 2.724 7.39-44.834-27.02-2.724-7.39 44.834Z" fill="#A96B50"/><path fill-rule="evenodd" clip-rule="evenodd" d="m44.511 115.214-26.74-2.691 2.602-2.884 22.409 2.255 1.73 3.32Z" fill="#8B4427"/><path fill-rule="evenodd" clip-rule="evenodd" d="m52.18 70.347-26.741-2.69 1.747 3.32 22.37 2.25 2.623-2.88Z" fill="#B7896B"/><path fill-rule="evenodd" clip-rule="evenodd" d="m20.408 109.943 22.654 2.278 6.477-39.295-22.655-2.278-6.476 39.295Z" fill="#A46437"/><path fill-rule="evenodd" clip-rule="evenodd" d="m47.625 115.896 27.019 2.723 7.389-44.833-27.02-2.724-7.388 44.834Z" fill="#A96B50"/><path fill-rule="evenodd" clip-rule="evenodd" d="m74.364 118.62-26.739-2.691 2.603-2.884 22.408 2.255 1.728 3.32Z" fill="#8B4427"/><path fill-rule="evenodd" clip-rule="evenodd" d="m82.033 73.753-26.74-2.69 1.748 3.32 22.37 2.25 2.622-2.88Z" fill="#B7896B"/><path fill-rule="evenodd" clip-rule="evenodd" d="m50.265 113.349 22.654 2.278 6.476-39.295-22.654-2.277-6.476 39.294Z" fill="#A46437"/><path fill-rule="evenodd" clip-rule="evenodd" d="M43.063 112.221 26.884 70.648l22.655 2.278-6.477 39.295ZM72.919 115.627 56.74 74.055l22.654 2.277-6.476 39.295Z" fill="#AF754C"/><path fill-rule="evenodd" clip-rule="evenodd" d="m26.665 61.116 27.02 2.724 7.389-44.834-27.02-2.724-7.389 44.834Z" fill="#A96B50"/><path fill-rule="evenodd" clip-rule="evenodd" d="m53.406 63.84-26.741-2.69 2.603-2.884 22.408 2.254 1.73 3.32Z" fill="#8B4427"/><path fill-rule="evenodd" clip-rule="evenodd" d="m61.074 18.973-26.74-2.69 1.746 3.321 22.37 2.25 2.624-2.881Z" fill="#B7896B"/><path fill-rule="evenodd" clip-rule="evenodd" d="m29.303 58.57 22.654 2.277 6.476-39.294-22.654-2.278-6.476 39.294Z" fill="#A46437"/><path fill-rule="evenodd" clip-rule="evenodd" d="m56.52 64.522 27.019 2.723 7.388-44.833-27.019-2.724-7.388 44.834Z" fill="#A96B50"/><path fill-rule="evenodd" clip-rule="evenodd" d="m83.259 67.246-26.74-2.69 2.604-2.884 22.408 2.254 1.728 3.32Z" fill="#8B4427"/><path fill-rule="evenodd" clip-rule="evenodd" d="m90.927 22.379-26.739-2.69 1.747 3.321 22.37 2.25 2.622-2.881Z" fill="#B7896B"/><path fill-rule="evenodd" clip-rule="evenodd" d="m59.16 61.975 22.653 2.278L88.29 24.96 65.635 22.68 59.16 61.975Z" fill="#924B2A"/><path fill-rule="evenodd" clip-rule="evenodd" d="M51.957 60.847 35.779 19.275l22.654 2.278-6.476 39.294Z" fill="#AF754C"/><path fill-rule="evenodd" clip-rule="evenodd" d="m59.16 61.975 22.653 2.278L88.29 24.96 65.635 22.68 59.16 61.975Z" fill="#A46437"/><path fill-rule="evenodd" clip-rule="evenodd" d="M81.813 64.253 65.635 22.681l22.655 2.278-6.477 39.294Z" fill="#AF754C"/><path fill-rule="evenodd" clip-rule="evenodd" d="m89.037 78.654-4.964-.501c-.403-.04-.687-.333-.635-.652l1.492-9.052c.053-.319.422-.545.825-.504l4.964.502c.403.04.687.332.635.651l-1.492 9.052c-.053.32-.422.545-.825.504Z" fill="#9B6E2F"/><path fill-rule="evenodd" clip-rule="evenodd" d="m89.237 77.818-4.55-.46c-.37-.037-.63-.305-.583-.598l1.368-8.299c.048-.292.387-.5.757-.462l4.55.46c.37.037.63.305.583.598l-1.368 8.299c-.048.292-.387.5-.757.462Z" fill="#BB933F"/><path fill-rule="evenodd" clip-rule="evenodd" d="M90.442 71.672c-.177 1.085-1.418 1.85-2.772 1.71-1.355-.139-2.308-1.13-2.131-2.215.177-1.083 1.418-1.848 2.773-1.709 1.354.14 2.308 1.13 2.13 2.214Z" fill="#A77E35"/><path fill-rule="evenodd" clip-rule="evenodd" d="M89.888 71.615c-.138.839-1.098 1.43-2.145 1.322-1.048-.108-1.785-.874-1.647-1.712.136-.838 1.096-1.43 2.144-1.322 1.046.108 1.785.874 1.648 1.712Z" fill="#BB933F"/><path fill-rule="evenodd" clip-rule="evenodd" d="M89.16 72.634c.833-.517.99-1.475.348-2.142-.644-.67-1.84-.792-2.677-.28l2.33 2.422Z" fill="#C9AB64"/><path fill-rule="evenodd" clip-rule="evenodd" d="M88.187 74.62c.053-.323-.235-.62-.645-.662-.41-.041-.786.189-.84.512-.041.255.126.49.398.6l-.675 1.164 1.459.147-.274-1.259c.297-.053.535-.247.577-.502Z" fill="#1E2721"/></svg>