<svg width="151" height="151" viewBox="0 0 151 151" fill="none" xmlns="http://www.w3.org/2000/svg">
<g clip-path="url(#clip0_343_8009)">
<path d="M150.875 41.8765C150.875 32.2415 135.823 24.4307 117.255 24.4307C106.403 24.4307 74.812 24.4307 63.9605 24.4307C45.3929 24.4307 30.3408 32.2415 30.3408 41.8765C30.3408 48.7451 37.9905 54.686 49.1096 57.5315C51.9532 58.2592 54.3535 60.138 55.8432 62.6668C60.7032 70.9162 72.9164 76.768 87.2153 76.768C100.522 76.768 112.022 71.7001 117.471 64.3483C119.739 61.2889 123.065 59.1824 126.829 58.6033C140.732 56.4642 150.875 49.7854 150.875 41.8765Z" fill="url(#paint0_radial_343_8009)"/>
<path d="M120.408 24.5077C119.37 24.4577 118.318 24.4307 117.255 24.4307C107.354 24.4307 80.1915 24.4307 67.2654 24.4307C63.1336 28.9418 60.6865 34.5424 60.6865 40.6098C60.6865 42.2898 61.5268 43.7804 63.0145 45.0824L94.2189 76.2868C104.475 74.8618 113.005 70.373 117.47 64.3486C119.738 61.2892 123.064 59.1827 126.828 58.6036C135.189 57.3171 142.185 54.388 146.438 50.5383L120.408 24.5077Z" fill="url(#paint1_linear_343_8009)"/>
<path d="M126.882 40.6098C126.882 55.5409 60.6865 55.5409 60.6865 40.6098C60.6865 25.6786 75.5048 13.5745 93.7842 13.5745C112.064 13.5745 126.882 25.6786 126.882 40.6098Z" fill="url(#paint2_linear_343_8009)"/>
<path d="M117.705 36.3009C119.074 36.3009 120.184 35.1909 120.184 33.8218C120.184 32.4526 119.074 31.3427 117.705 31.3427C116.336 31.3427 115.226 32.4526 115.226 33.8218C115.226 35.1909 116.336 36.3009 117.705 36.3009Z" fill="url(#paint3_linear_343_8009)"/>
<path d="M113.101 42.1903C114.182 42.1903 115.059 41.314 115.059 40.233C115.059 39.152 114.182 38.2756 113.101 38.2756C112.02 38.2756 111.144 39.152 111.144 40.233C111.144 41.314 112.02 42.1903 113.101 42.1903Z" fill="url(#paint4_linear_343_8009)"/>
<path d="M121.633 43.0553C122.284 43.0553 122.813 42.527 122.813 41.8753C122.813 41.2236 122.284 40.6953 121.633 40.6953C120.981 40.6953 120.453 41.2236 120.453 41.8753C120.453 42.527 120.981 43.0553 121.633 43.0553Z" fill="url(#paint5_linear_343_8009)"/>
<path d="M99.3954 20.0121C102.353 25.6548 97.3237 34.1215 88.1619 38.9236C79.0001 43.7256 69.176 43.0439 66.2187 37.4012C63.2613 31.7586 68.2904 23.2918 77.4522 18.4898C86.614 13.6877 96.4378 14.3695 99.3954 20.0121Z" fill="url(#paint6_linear_343_8009)"/>
<path d="M150.875 84.9801C150.875 71.1765 128.896 57.6671 101.784 57.6671C88.5841 57.6671 49.9941 57.6671 36.6879 57.6671C16.9091 57.6671 0.875 65.9277 0.875 76.1174C0.875 79.1198 2.26706 81.9542 4.73676 84.4592C9.75588 89.5503 11.9294 96.6203 10.6879 103.468C10.43 104.891 10.2965 106.347 10.2965 107.828C10.2965 124.058 26.3306 137.215 46.1094 137.215C53.0062 137.215 59.4471 135.615 64.9115 132.843C70.4994 130.008 76.965 129.21 83.1909 130.374C86.1394 130.925 89.2085 131.216 92.3609 131.216C110.377 131.216 125.686 121.715 131.245 108.491C132.326 105.919 134.315 103.789 136.886 102.45C145.54 97.9445 150.875 91.7801 150.875 84.9801Z" fill="url(#paint7_radial_343_8009)"/>
<path d="M142.109 99.2348L108.316 65.4424C105.397 62.3821 101.841 59.748 97.8143 57.6671C87.207 57.6671 68.6311 57.6671 53.9296 57.6671C42.4164 63.6168 34.7705 74.1083 34.7705 86.0598C34.7705 88.1633 35.8314 90.0271 37.707 91.6536L75.9626 129.909C78.3652 129.772 80.7955 129.926 83.1908 130.374C86.1393 130.925 89.2085 131.216 92.3608 131.216C110.377 131.216 125.686 121.715 131.245 108.491C132.326 105.919 134.315 103.789 136.886 102.45C138.796 101.456 140.544 100.38 142.109 99.2348Z" fill="url(#paint8_linear_343_8009)"/>
<path d="M116.979 86.0597C116.979 104.603 34.7705 104.603 34.7705 86.0597C34.7705 67.5164 53.1735 52.4844 75.8746 52.4844C98.5758 52.4844 116.979 67.5167 116.979 86.0597Z" fill="url(#paint9_linear_343_8009)"/>
<g opacity="0.6">
<g opacity="0.6">
<path opacity="0.6" d="M68.9376 88.8076C70.3068 88.8076 71.4167 87.6977 71.4167 86.3285C71.4167 84.9593 70.3068 83.8494 68.9376 83.8494C67.5684 83.8494 66.4585 84.9593 66.4585 86.3285C66.4585 87.6977 67.5684 88.8076 68.9376 88.8076Z" fill="url(#paint10_linear_343_8009)"/>
<path opacity="0.6" d="M64.3343 94.6971C65.4153 94.6971 66.2917 93.8207 66.2917 92.7397C66.2917 91.6587 65.4153 90.7823 64.3343 90.7823C63.2533 90.7823 62.377 91.6587 62.377 92.7397C62.377 93.8207 63.2533 94.6971 64.3343 94.6971Z" fill="url(#paint11_linear_343_8009)"/>
<path opacity="0.6" d="M72.8651 95.562C73.5168 95.562 74.0451 95.0337 74.0451 94.382C74.0451 93.7303 73.5168 93.202 72.8651 93.202C72.2134 93.202 71.6851 93.7303 71.6851 94.382C71.6851 95.0337 72.2134 95.562 72.8651 95.562Z" fill="url(#paint12_linear_343_8009)"/>
</g>
<g opacity="0.6">
<path opacity="0.6" d="M82.0454 90.0287C83.0573 90.0287 83.8775 89.2085 83.8775 88.1967C83.8775 87.1849 83.0573 86.3646 82.0454 86.3646C81.0336 86.3646 80.2134 87.1849 80.2134 88.1967C80.2134 89.2085 81.0336 90.0287 82.0454 90.0287Z" fill="url(#paint13_linear_343_8009)"/>
<path opacity="0.6" d="M76.2474 90.2664C77.0461 90.2664 77.6936 89.6189 77.6936 88.8202C77.6936 88.0215 77.0461 87.374 76.2474 87.374C75.4487 87.374 74.8013 88.0215 74.8013 88.8202C74.8013 89.6189 75.4487 90.2664 76.2474 90.2664Z" fill="url(#paint14_linear_343_8009)"/>
<path opacity="0.6" d="M79.5459 95.1999C80.0275 95.1999 80.4179 94.8095 80.4179 94.3279C80.4179 93.8462 80.0275 93.4558 79.5459 93.4558C79.0643 93.4558 78.6738 93.8462 78.6738 94.3279C78.6738 94.8095 79.0643 95.1999 79.5459 95.1999Z" fill="url(#paint15_linear_343_8009)"/>
</g>
</g>
<path d="M81.4655 63.595C85.2946 70.9006 80.3202 81.0573 70.3549 86.2803C60.3896 91.5032 49.2069 89.8152 45.3778 82.5097C41.5487 75.2041 46.5231 65.0473 56.4884 59.8244C66.4537 54.6014 77.6364 56.2894 81.4655 63.595Z" fill="url(#paint16_linear_343_8009)"/>
</g>
<defs>
<radialGradient id="paint0_radial_343_8009" cx="0" cy="0" r="1" gradientUnits="userSpaceOnUse" gradientTransform="translate(73.4702 36.9507) scale(69.211 46.8804)">
<stop stop-color="#F8F6FB"/>
<stop offset="0.5047" stop-color="#F7F4FB"/>
<stop offset="0.7657" stop-color="#F5ECFB"/>
<stop offset="0.9705" stop-color="#F0DFFB"/>
<stop offset="1" stop-color="#EFDCFB"/>
</radialGradient>
<linearGradient id="paint1_linear_343_8009" x1="112.998" y1="67.9801" x2="82.3807" y2="-3.07551" gradientUnits="userSpaceOnUse">
<stop stop-color="#EFDCFB" stop-opacity="0"/>
<stop offset="0.0287" stop-color="#E9D6F7" stop-opacity="0.029"/>
<stop offset="0.2203" stop-color="#C5B5DE" stop-opacity="0.22"/>
<stop offset="0.4138" stop-color="#AA9BCB" stop-opacity="0.414"/>
<stop offset="0.6078" stop-color="#9688BD" stop-opacity="0.608"/>
<stop offset="0.8028" stop-color="#8A7DB5" stop-opacity="0.803"/>
<stop offset="1" stop-color="#8679B2"/>
</linearGradient>
<linearGradient id="paint2_linear_343_8009" x1="89.4009" y1="27.8068" x2="103.519" y2="63.6892" gradientUnits="userSpaceOnUse">
<stop stop-color="#FFA936"/>
<stop offset="0.4112" stop-color="#FF8548"/>
<stop offset="0.7781" stop-color="#FF6C54"/>
<stop offset="1" stop-color="#FF6359"/>
</linearGradient>
<linearGradient id="paint3_linear_343_8009" x1="119.925" y1="37.0053" x2="113.59" y2="27.1201" gradientUnits="userSpaceOnUse">
<stop stop-color="#F82814" stop-opacity="0"/>
<stop offset="0.2454" stop-color="#F12817" stop-opacity="0.245"/>
<stop offset="0.6052" stop-color="#DD2820" stop-opacity="0.605"/>
<stop offset="1" stop-color="#C0272D"/>
</linearGradient>
<linearGradient id="paint4_linear_343_8009" x1="114.891" y1="42.751" x2="109.89" y2="34.9469" gradientUnits="userSpaceOnUse">
<stop stop-color="#F82814" stop-opacity="0"/>
<stop offset="0.2454" stop-color="#F12817" stop-opacity="0.245"/>
<stop offset="0.6052" stop-color="#DD2820" stop-opacity="0.605"/>
<stop offset="1" stop-color="#C0272D"/>
</linearGradient>
<linearGradient id="paint5_linear_343_8009" x1="122.788" y1="43.3964" x2="119.773" y2="38.6915" gradientUnits="userSpaceOnUse">
<stop stop-color="#F82814" stop-opacity="0"/>
<stop offset="0.2454" stop-color="#F12817" stop-opacity="0.245"/>
<stop offset="0.6052" stop-color="#DD2820" stop-opacity="0.605"/>
<stop offset="1" stop-color="#C0272D"/>
</linearGradient>
<linearGradient id="paint6_linear_343_8009" x1="84.0893" y1="30.6008" x2="68.4136" y2="0.717514" gradientUnits="userSpaceOnUse">
<stop stop-color="white" stop-opacity="0"/>
<stop offset="1" stop-color="white"/>
</linearGradient>
<radialGradient id="paint7_radial_343_8009" cx="0" cy="0" r="1" gradientUnits="userSpaceOnUse" gradientTransform="translate(60.7939 57.7881) scale(81.4025)">
<stop stop-color="#F8F6FB"/>
<stop offset="0.5047" stop-color="#F7F4FB"/>
<stop offset="0.7657" stop-color="#F5ECFB"/>
<stop offset="0.9705" stop-color="#F0DFFB"/>
<stop offset="1" stop-color="#EFDCFB"/>
</radialGradient>
<linearGradient id="paint8_linear_343_8009" x1="94.8596" y1="115.573" x2="70.6632" y2="30.7783" gradientUnits="userSpaceOnUse">
<stop stop-color="#EFDCFB" stop-opacity="0"/>
<stop offset="0.0287" stop-color="#E9D6F7" stop-opacity="0.029"/>
<stop offset="0.2203" stop-color="#C5B5DE" stop-opacity="0.22"/>
<stop offset="0.4138" stop-color="#AA9BCB" stop-opacity="0.414"/>
<stop offset="0.6078" stop-color="#9688BD" stop-opacity="0.608"/>
<stop offset="0.8028" stop-color="#8A7DB5" stop-opacity="0.803"/>
<stop offset="1" stop-color="#8679B2"/>
</linearGradient>
<linearGradient id="paint9_linear_343_8009" x1="69.422" y1="60.2929" x2="80.3355" y2="101.482" gradientUnits="userSpaceOnUse">
<stop stop-color="#FFD945"/>
<stop offset="0.3043" stop-color="#FFCD3E"/>
<stop offset="0.8558" stop-color="#FFAD2B"/>
<stop offset="1" stop-color="#FFA325"/>
</linearGradient>
<linearGradient id="paint10_linear_343_8009" x1="71.1382" y1="89.5442" x2="64.8035" y2="79.6588" gradientUnits="userSpaceOnUse">
<stop stop-color="#F82814" stop-opacity="0"/>
<stop offset="0.2454" stop-color="#F12817" stop-opacity="0.245"/>
<stop offset="0.6052" stop-color="#DD2820" stop-opacity="0.605"/>
<stop offset="1" stop-color="#C0272D"/>
</linearGradient>
<linearGradient id="paint11_linear_343_8009" x1="66.1043" y1="95.2896" x2="61.1035" y2="87.4859" gradientUnits="userSpaceOnUse">
<stop stop-color="#F82814" stop-opacity="0"/>
<stop offset="0.2454" stop-color="#F12817" stop-opacity="0.245"/>
<stop offset="0.6052" stop-color="#DD2820" stop-opacity="0.605"/>
<stop offset="1" stop-color="#C0272D"/>
</linearGradient>
<linearGradient id="paint12_linear_343_8009" x1="74.0012" y1="95.9351" x2="70.9862" y2="91.2302" gradientUnits="userSpaceOnUse">
<stop stop-color="#F82814" stop-opacity="0"/>
<stop offset="0.2454" stop-color="#F12817" stop-opacity="0.245"/>
<stop offset="0.6052" stop-color="#DD2820" stop-opacity="0.605"/>
<stop offset="1" stop-color="#C0272D"/>
</linearGradient>
<linearGradient id="paint13_linear_343_8009" x1="81.4106" y1="90.901" x2="83.7325" y2="82.5436" gradientUnits="userSpaceOnUse">
<stop stop-color="#F82814" stop-opacity="0"/>
<stop offset="0.2454" stop-color="#F12817" stop-opacity="0.245"/>
<stop offset="0.6052" stop-color="#DD2820" stop-opacity="0.605"/>
<stop offset="1" stop-color="#C0272D"/>
</linearGradient>
<linearGradient id="paint14_linear_343_8009" x1="75.7678" y1="90.9597" x2="77.6013" y2="84.3622" gradientUnits="userSpaceOnUse">
<stop stop-color="#F82814" stop-opacity="0"/>
<stop offset="0.2454" stop-color="#F12817" stop-opacity="0.245"/>
<stop offset="0.6052" stop-color="#DD2820" stop-opacity="0.605"/>
<stop offset="1" stop-color="#C0272D"/>
</linearGradient>
<linearGradient id="paint15_linear_343_8009" x1="79.3027" y1="95.6256" x2="80.4078" y2="91.6481" gradientUnits="userSpaceOnUse">
<stop stop-color="#F82814" stop-opacity="0"/>
<stop offset="0.2454" stop-color="#F12817" stop-opacity="0.245"/>
<stop offset="0.6052" stop-color="#DD2820" stop-opacity="0.605"/>
<stop offset="1" stop-color="#C0272D"/>
</linearGradient>
<linearGradient id="paint16_linear_343_8009" x1="65.2634" y1="76.6114" x2="44.9612" y2="37.9244" gradientUnits="userSpaceOnUse">
<stop stop-color="white" stop-opacity="0"/>
<stop offset="1" stop-color="white"/>
</linearGradient>
<clipPath id="clip0_343_8009">
<rect width="150" height="150" fill="white" transform="translate(0.875 0.39502)"/>
</clipPath>
</defs>
</svg>
