<svg width="151" height="151" viewBox="0 0 151 151" fill="none" xmlns="http://www.w3.org/2000/svg">
<g clip-path="url(#clip0_343_7370)">
<path d="M69.8151 46.7809C68.1131 45.0788 68.1131 42.3194 69.8151 40.6176L102.316 8.11675C104.018 6.4147 106.777 6.4147 108.479 8.11675C110.181 9.81881 110.181 12.5782 108.479 14.28L75.9784 46.7809C74.2763 48.4829 71.5169 48.4829 69.8151 46.7809Z" fill="url(#paint0_linear_343_7370)"/>
<path d="M104.086 15.3129C103.778 15.0382 103.432 14.8088 103.057 14.6344C100.106 13.265 85.813 7.11821 79.8468 13.5767C76.1309 17.5994 81.6824 24.3923 87.3289 29.6209C92.4851 34.3953 99.6515 35.2344 103.279 31.4988C107.388 27.2682 110.646 21.1561 104.086 15.3129Z" fill="url(#paint1_linear_343_7370)"/>
<path d="M104.086 15.3129C103.778 15.0382 103.432 14.8088 103.057 14.6344C100.106 13.265 85.813 7.1182 79.8468 13.5767C76.1309 17.5994 81.6824 24.3923 87.3289 29.6209C92.4851 34.3956 110.646 21.1561 104.086 15.3129Z" fill="url(#paint2_linear_343_7370)"/>
<path d="M91.1785 22.7006L85.7588 28.1203C86.2764 28.6317 86.8023 29.1332 87.3291 29.6209C91.6932 33.6617 97.4964 34.8826 101.376 32.8979L91.1785 22.7006Z" fill="url(#paint3_linear_343_7370)"/>
<path d="M59.7855 21.7239C66.2461 24.6421 73.4558 29.706 80.1728 36.423C86.8899 43.1401 91.9537 50.3501 94.872 56.8104C96.4396 60.2807 101.735 59.8727 105.613 55.9951C108.202 53.4057 109.381 49.9883 108.513 47.5495C105.952 40.3533 100.372 31.8645 92.5517 24.0442C84.7311 16.2236 76.2423 10.6442 69.0461 8.08272C66.6073 7.21448 63.1896 8.3936 60.6005 10.983C56.7231 14.8604 56.3149 20.1562 59.7855 21.7239Z" fill="url(#paint4_linear_343_7370)"/>
<path d="M90.9947 34.3703C90.7953 34.153 90.5832 33.9409 90.3585 33.7338C85.8117 28.7782 74.3391 26.515 68.9585 27.0015C72.7091 29.5997 76.5141 32.7635 80.1729 36.4224C86.89 43.1394 91.9538 50.3494 94.872 56.8097C96.4397 60.28 101.736 59.8721 105.613 55.9944C106.903 54.7038 107.843 53.2077 108.354 51.7294L90.9947 34.3703Z" fill="url(#paint5_linear_343_7370)"/>
<path d="M66.4814 27.6818C66.4814 27.6818 51.1505 38.2018 46.2808 49.6612C41.4111 61.1206 70.0893 70.7024 76.4323 67.6956C82.7752 64.6888 92.2731 47.5947 92.2731 38.2021C92.2731 28.8094 69.7461 25.2409 66.4814 27.6818Z" fill="url(#paint6_linear_343_7370)"/>
<path d="M66.4815 27.6819C66.4815 27.6819 52.4085 37.3401 46.9468 48.2283C54.523 52.0821 64.0959 54.0042 67.4444 52.4169C72.5662 49.9889 79.7438 38.3769 82.3183 29.0504C75.8388 26.811 68.27 26.3448 66.4815 27.6819Z" fill="url(#paint7_linear_343_7370)"/>
<g opacity="0.5">
<g opacity="0.5">
<path opacity="0.5" d="M67.0692 33.2924C67.9656 33.2924 68.6922 32.5658 68.6922 31.6695C68.6922 30.7731 67.9656 30.0465 67.0692 30.0465C66.1729 30.0465 65.4463 30.7731 65.4463 31.6695C65.4463 32.5658 66.1729 33.2924 67.0692 33.2924Z" fill="url(#paint8_linear_343_7370)"/>
<path opacity="0.5" d="M64.9228 37.6506C65.6304 37.6506 66.204 37.077 66.204 36.3694C66.204 35.6619 65.6304 35.0883 64.9228 35.0883C64.2152 35.0883 63.6416 35.6619 63.6416 36.3694C63.6416 37.077 64.2152 37.6506 64.9228 37.6506Z" fill="url(#paint9_linear_343_7370)"/>
<path opacity="0.5" d="M70.6107 37.1186C71.0373 37.1186 71.3831 36.7728 71.3831 36.3462C71.3831 35.9196 71.0373 35.5739 70.6107 35.5739C70.1842 35.5739 69.8384 35.9196 69.8384 36.3462C69.8384 36.7728 70.1842 37.1186 70.6107 37.1186Z" fill="url(#paint10_linear_343_7370)"/>
</g>
<g opacity="0.5">
<path opacity="0.5" d="M75.7258 32.4124C76.3882 32.4124 76.9252 31.8754 76.9252 31.213C76.9252 30.5505 76.3882 30.0135 75.7258 30.0135C75.0634 30.0135 74.5264 30.5505 74.5264 31.213C74.5264 31.8754 75.0634 32.4124 75.7258 32.4124Z" fill="url(#paint11_linear_343_7370)"/>
<path opacity="0.5" d="M72.0796 33.2929C72.6025 33.2929 73.0263 32.8691 73.0263 32.3462C73.0263 31.8233 72.6025 31.3994 72.0796 31.3994C71.5567 31.3994 71.1328 31.8233 71.1328 32.3462C71.1328 32.8691 71.5567 33.2929 72.0796 33.2929Z" fill="url(#paint12_linear_343_7370)"/>
<path opacity="0.5" d="M74.8946 36.038C75.2099 36.038 75.4655 35.7824 75.4655 35.4671C75.4655 35.1518 75.2099 34.8962 74.8946 34.8962C74.5793 34.8962 74.3237 35.1518 74.3237 35.4671C74.3237 35.7824 74.5793 36.038 74.8946 36.038Z" fill="url(#paint13_linear_343_7370)"/>
</g>
</g>
<path d="M64.6325 37.4236C60.4893 37.4236 56.5661 38.1898 53.062 39.5556C50.3084 42.6433 47.7911 46.1068 46.2808 49.6612C41.4111 61.1206 70.0893 70.7024 76.4323 67.6956C80.4823 65.7759 85.8175 58.1136 89.1464 50.3795C84.9537 42.7453 75.5587 37.4236 64.6325 37.4236Z" fill="url(#paint14_linear_343_7370)"/>
<path d="M86.6197 55.5464C80.8732 47.6714 70.3373 42.3903 58.2794 42.3903C55.4415 42.3903 52.6879 42.6838 50.0609 43.2338C48.5373 45.2964 47.2165 47.4611 46.2818 49.6611C41.4121 61.1206 70.0903 70.7023 76.4332 67.6956C79.5676 66.2097 83.4715 61.2832 86.6197 55.5464Z" fill="url(#paint15_linear_343_7370)"/>
<path d="M66.4138 54.6903L57.0503 64.0538C64.425 67.5388 73.2468 69.2056 76.4329 67.6953C77.0156 67.4191 77.6247 67.0238 78.2506 66.5268L66.4138 54.6903Z" fill="url(#paint16_linear_343_7370)"/>
<path d="M31.4328 50.0764C37.8934 52.9947 45.1031 58.0585 51.8202 64.7756C58.5372 71.4926 63.601 78.7026 66.5193 85.1629C68.0869 88.6332 73.3828 88.2253 77.2602 84.3476C79.8496 81.7582 81.0287 78.3409 80.1605 75.902C77.599 68.7058 72.0196 60.217 64.199 52.3967C56.3784 44.5761 47.8896 38.9967 40.6937 36.4353C38.2549 35.567 34.8372 36.7461 32.2481 39.3355C28.3705 43.2129 27.9625 48.5088 31.4328 50.0764Z" fill="url(#paint17_linear_343_7370)"/>
<path d="M77.2606 84.3477C79.85 81.7583 81.0292 78.341 80.1609 75.9021C80.1406 75.8448 80.1183 75.7868 80.0977 75.7295L65.0494 60.6812C64.6286 60.2486 64.178 59.8162 63.6939 59.3848C63.183 58.9298 62.6106 58.5498 61.9883 58.261C58.5174 56.6501 45.5721 51.0504 34.8188 51.7698C40.3538 54.7854 46.2556 59.2107 51.8206 64.7757C58.5377 71.4927 63.6015 78.7027 66.5197 85.163C68.0871 88.6333 73.383 88.2251 77.2606 84.3477Z" fill="url(#paint18_linear_343_7370)"/>
<path d="M63.6936 59.3847C63.1827 58.9297 62.6103 58.5497 61.988 58.2609C57.1003 55.9923 33.4233 45.81 23.54 56.5088C17.3844 63.1723 26.5806 74.4253 35.9341 83.0864C44.4756 90.9956 56.3471 92.3853 62.3562 86.1976C69.1627 79.1888 74.56 69.0641 63.6936 59.3847Z" fill="url(#paint19_linear_343_7370)"/>
<path d="M63.6936 59.3847C63.1827 58.9297 62.6103 58.5497 61.988 58.2609C57.1003 55.9923 33.4233 45.81 23.54 56.5088C17.3844 63.1723 26.5806 74.4253 35.9341 83.0864C44.4759 90.9956 74.56 69.0641 63.6936 59.3847Z" fill="url(#paint20_linear_343_7370)"/>
<g opacity="0.5">
<g opacity="0.5">
<path opacity="0.5" d="M53.4218 76.8926C53.8483 76.8926 54.1941 76.5468 54.1941 76.1203C54.1941 75.6937 53.8483 75.3479 53.4218 75.3479C52.9952 75.3479 52.6494 75.6937 52.6494 76.1203C52.6494 76.5468 52.9952 76.8926 53.4218 76.8926Z" fill="url(#paint21_linear_343_7370)"/>
</g>
<g opacity="0.5">
<path opacity="0.5" d="M58.5378 72.1864C59.2002 72.1864 59.7372 71.6494 59.7372 70.987C59.7372 70.3246 59.2002 69.7876 58.5378 69.7876C57.8754 69.7876 57.3384 70.3246 57.3384 70.987C57.3384 71.6494 57.8754 72.1864 58.5378 72.1864Z" fill="url(#paint22_linear_343_7370)"/>
<path opacity="0.5" d="M54.8916 73.0674C55.4145 73.0674 55.8384 72.6435 55.8384 72.1206C55.8384 71.5977 55.4145 71.1738 54.8916 71.1738C54.3687 71.1738 53.9448 71.5977 53.9448 72.1206C53.9448 72.6435 54.3687 73.0674 54.8916 73.0674Z" fill="url(#paint23_linear_343_7370)"/>
<path opacity="0.5" d="M57.7061 75.8123C58.0214 75.8123 58.277 75.5567 58.277 75.2414C58.277 74.9261 58.0214 74.6705 57.7061 74.6705C57.3908 74.6705 57.1353 74.9261 57.1353 75.2414C57.1353 75.5567 57.3908 75.8123 57.7061 75.8123Z" fill="url(#paint24_linear_343_7370)"/>
</g>
</g>
<path d="M35.9346 83.0866C41.5946 88.3274 48.7152 90.7024 54.6249 89.9101L40.6555 75.9407L34.6846 81.9116C35.0999 82.308 35.5169 82.7001 35.9346 83.0866Z" fill="url(#paint25_linear_343_7370)"/>
<path d="M5.4218 71.1541C12.5415 74.7318 20.6144 80.6582 28.2756 88.3197C35.9368 95.9812 41.8636 104.054 45.4412 111.174C47.363 114.998 53.0024 114.934 56.88 111.056C59.4694 108.467 60.4912 104.892 59.3906 102.221C56.143 94.3385 49.5747 84.8609 40.6547 75.9406C31.7347 67.0206 22.2571 60.4521 14.3747 57.2047C11.7033 56.1041 8.12856 57.1259 5.53915 59.7153C1.6618 63.5927 1.59709 69.2321 5.4218 71.1541Z" fill="url(#paint26_radial_343_7370)"/>
<path d="M28.276 88.3197C35.9375 95.9812 41.864 104.054 45.4416 111.174C47.3634 114.998 53.0028 114.934 56.8805 111.056C58.4557 109.481 59.4463 107.542 59.7363 105.662L35.3349 81.2609C33.6328 79.5589 30.8734 79.5589 29.1716 81.2609L25.1343 85.2983C26.1866 86.2733 27.2355 87.2789 28.276 88.3197Z" fill="url(#paint27_linear_343_7370)"/>
<path d="M1.91229 114.684C0.210227 112.982 0.210227 110.222 1.91229 108.52L29.1717 81.2609C30.8738 79.5589 33.6332 79.5589 35.3349 81.2609C37.037 82.963 37.037 85.7224 35.3349 87.4242L8.07552 114.684C6.37376 116.386 3.61435 116.386 1.91229 114.684Z" fill="url(#paint28_linear_343_7370)"/>
<path d="M108.491 74.0126C106.789 72.3105 106.789 69.5511 108.491 67.8494L140.993 35.3482C142.695 33.6461 145.454 33.6461 147.156 35.3482C148.858 37.0503 148.858 39.8097 147.156 41.5114L114.655 74.0126C112.953 75.7144 110.193 75.7144 108.491 74.0126Z" fill="url(#paint29_linear_343_7370)"/>
<path d="M107.368 43.3097C113.03 46.1547 119.45 50.8679 125.542 56.9609C131.635 63.0538 136.348 69.4735 139.194 75.1356C140.722 78.177 145.207 78.1259 148.29 75.042C150.349 72.9829 151.162 70.14 150.287 68.0156C147.704 61.7473 142.481 54.21 135.387 47.1165C128.293 40.0226 120.756 34.7991 114.488 32.2165C112.363 31.3412 109.52 32.1538 107.461 34.2129C104.378 37.2967 104.326 41.7815 107.368 43.3097Z" fill="url(#paint30_radial_343_7370)"/>
<path d="M109.809 44.6285C114.837 47.5168 120.31 51.728 125.543 56.9609C131.636 63.0535 136.349 69.4735 139.194 75.1356C140.722 78.1771 145.207 78.1259 148.291 75.0421C150.35 72.983 151.163 70.14 150.287 68.0156C149.737 66.6806 149.061 65.2856 148.279 63.8521L138.168 53.7418C137.71 53.263 137.215 52.7844 136.679 52.3074C136.169 51.8524 135.596 51.4724 134.974 51.1835C131.716 49.6718 120.112 44.6462 109.809 44.6285Z" fill="url(#paint31_linear_343_7370)"/>
<path d="M136.678 52.3073C136.168 51.8523 135.595 51.4723 134.973 51.1835C130.085 48.9149 106.408 38.7326 96.5249 49.4314C90.3693 56.0949 99.5655 67.3479 108.919 76.0091C117.46 83.9182 129.332 85.3079 135.341 79.1202C142.148 72.1114 147.545 61.9867 136.678 52.3073Z" fill="url(#paint32_linear_343_7370)"/>
<path d="M136.678 52.3073C136.168 51.8523 135.595 51.4723 134.973 51.1835C130.085 48.9149 106.408 38.7326 96.5249 49.4314C90.3693 56.0949 99.5655 67.3479 108.919 76.0091C117.461 83.9182 147.545 61.9867 136.678 52.3073Z" fill="url(#paint33_linear_343_7370)"/>
<g opacity="0.5">
<g opacity="0.5">
<path opacity="0.5" d="M126.407 69.8152C126.834 69.8152 127.179 69.4694 127.179 69.0429C127.179 68.6163 126.834 68.2705 126.407 68.2705C125.981 68.2705 125.635 68.6163 125.635 69.0429C125.635 69.4694 125.981 69.8152 126.407 69.8152Z" fill="url(#paint34_linear_343_7370)"/>
</g>
<g opacity="0.5">
<path opacity="0.5" d="M131.523 65.109C132.185 65.109 132.722 64.572 132.722 63.9096C132.722 63.2472 132.185 62.7102 131.523 62.7102C130.86 62.7102 130.323 63.2472 130.323 63.9096C130.323 64.572 130.86 65.109 131.523 65.109Z" fill="url(#paint35_linear_343_7370)"/>
<path opacity="0.5" d="M127.876 65.9896C128.399 65.9896 128.823 65.5657 128.823 65.0428C128.823 64.5199 128.399 64.0961 127.876 64.0961C127.354 64.0961 126.93 64.5199 126.93 65.0428C126.93 65.5657 127.354 65.9896 127.876 65.9896Z" fill="url(#paint36_linear_343_7370)"/>
<path opacity="0.5" d="M130.691 68.7345C131.006 68.7345 131.262 68.479 131.262 68.1637C131.262 67.8484 131.006 67.5928 130.691 67.5928C130.376 67.5928 130.12 67.8484 130.12 68.1637C130.12 68.479 130.376 68.7345 130.691 68.7345Z" fill="url(#paint37_linear_343_7370)"/>
</g>
</g>
<path d="M129.13 82.5547L116.772 70.197L110.008 76.9611C115.983 81.9591 123.314 83.9358 129.13 82.5547Z" fill="url(#paint38_linear_343_7370)"/>
<path d="M81.8133 65.6039C88.2739 68.5221 95.4836 73.586 102.201 80.303C108.918 87.0201 113.982 94.2301 116.9 100.69C118.467 104.161 123.763 103.753 127.641 99.8751C130.23 97.2857 131.409 93.8683 130.541 91.4295C127.979 84.2333 122.4 75.7445 114.579 67.9242C106.759 60.1036 98.2701 54.5242 91.0742 51.9627C88.6354 51.0945 85.2177 52.2736 82.6286 54.863C78.7509 58.7404 78.3427 64.0363 81.8133 65.6039Z" fill="url(#paint39_linear_343_7370)"/>
<path d="M114.117 78.0076C113.845 77.7053 113.54 77.4194 113.192 77.1565C104.492 70.5818 88.9186 69.1891 88.9186 69.1891C88.7771 69.1706 88.6156 69.1759 88.4395 69.2C92.9995 72.0656 97.7095 75.8123 102.2 80.3029C108.917 87.02 113.981 94.23 116.899 100.69C118.467 104.161 123.763 103.753 127.64 99.875C129.238 98.2773 130.296 96.3647 130.67 94.5609L114.117 78.0076Z" fill="url(#paint40_linear_343_7370)"/>
<path d="M88.9192 69.1891C88.9192 69.1891 104.492 70.5818 113.192 77.1565C121.892 83.7312 106.288 103.23 100.467 103.671C94.6463 104.111 80.1083 95.2585 75.7657 88.1629C71.423 81.0674 85.5101 68.7412 88.9192 69.1891Z" fill="url(#paint41_linear_343_7370)"/>
<path d="M88.9189 69.1891C88.9189 69.1891 103.215 70.4686 112.064 76.3586C108.553 82.5088 102.755 88.0533 99.6815 88.2859C94.9812 88.6415 84.5989 82.9383 78.4883 76.9933C81.9795 72.5318 87.0512 68.9436 88.9189 69.1891Z" fill="url(#paint42_linear_343_7370)"/>
<g opacity="0.5">
<g opacity="0.5">
<path opacity="0.5" d="M86.161 74.6233C87.0574 74.6233 87.784 73.8967 87.784 73.0004C87.784 72.1041 87.0574 71.3774 86.161 71.3774C85.2647 71.3774 84.5381 72.1041 84.5381 73.0004C84.5381 73.8967 85.2647 74.6233 86.161 74.6233Z" fill="url(#paint43_linear_343_7370)"/>
<path opacity="0.5" d="M84.0146 78.9816C84.7221 78.9816 85.2957 78.408 85.2957 77.7004C85.2957 76.9928 84.7221 76.4192 84.0146 76.4192C83.307 76.4192 82.7334 76.9928 82.7334 77.7004C82.7334 78.408 83.307 78.9816 84.0146 78.9816Z" fill="url(#paint44_linear_343_7370)"/>
<path opacity="0.5" d="M89.702 78.4495C90.1286 78.4495 90.4744 78.1037 90.4744 77.6771C90.4744 77.2506 90.1286 76.9048 89.702 76.9048C89.2755 76.9048 88.9297 77.2506 88.9297 77.6771C88.9297 78.1037 89.2755 78.4495 89.702 78.4495Z" fill="url(#paint45_linear_343_7370)"/>
</g>
<g opacity="0.5">
<path opacity="0.5" d="M94.8176 73.7433C95.48 73.7433 96.017 73.2063 96.017 72.5439C96.017 71.8815 95.48 71.3445 94.8176 71.3445C94.1552 71.3445 93.6182 71.8815 93.6182 72.5439C93.6182 73.2063 94.1552 73.7433 94.8176 73.7433Z" fill="url(#paint46_linear_343_7370)"/>
<path opacity="0.5" d="M91.1714 74.6239C91.6943 74.6239 92.1181 74.2 92.1181 73.6771C92.1181 73.1542 91.6943 72.7303 91.1714 72.7303C90.6485 72.7303 90.2246 73.1542 90.2246 73.6771C90.2246 74.2 90.6485 74.6239 91.1714 74.6239Z" fill="url(#paint47_linear_343_7370)"/>
<path opacity="0.5" d="M93.9859 77.3688C94.3012 77.3688 94.5568 77.1132 94.5568 76.7979C94.5568 76.4826 94.3012 76.2271 93.9859 76.2271C93.6706 76.2271 93.415 76.4826 93.415 76.7979C93.415 77.1132 93.6706 77.3688 93.9859 77.3688Z" fill="url(#paint48_linear_343_7370)"/>
</g>
</g>
<path d="M94.7143 75.7577C97.6087 73.9862 100.703 72.8877 103.782 72.4215C107.134 73.5768 110.493 75.1171 113.192 77.1562C121.891 83.7309 106.287 103.23 100.467 103.67C96.7498 103.952 89.4801 100.444 83.5793 96.025C82.979 88.4659 87.0816 80.4292 94.7143 75.7577Z" fill="url(#paint49_linear_343_7370)"/>
<path d="M87.7344 98.8483C88.1076 90.4427 93.0261 81.9486 101.45 76.7936C103.432 75.5803 105.491 74.6248 107.581 73.9171C109.599 74.8239 111.522 75.8945 113.192 77.1565C121.892 83.7312 106.288 103.23 100.467 103.671C97.5905 103.888 92.5858 101.836 87.7344 98.8483Z" fill="url(#paint50_linear_343_7370)"/>
<path d="M95.4737 93.1088C95.1599 92.7859 94.8237 92.4635 94.4625 92.1418C94.0828 91.8035 93.6572 91.5209 93.1946 91.3065C90.8349 90.2115 82.5852 86.6365 75.0781 86.4418C75.2072 87.0409 75.4314 87.6177 75.7652 88.1632C80.1078 95.2588 94.6455 104.111 100.467 103.671C101.483 103.594 102.798 102.934 104.23 101.866L95.4737 93.1088Z" fill="url(#paint51_linear_343_7370)"/>
<path d="M94.4626 92.1418C94.0829 91.8035 93.6573 91.5209 93.1947 91.3062C89.5612 89.6197 71.9591 82.05 64.6117 90.0038C60.0356 94.9576 66.872 103.323 73.8259 109.762C80.1759 115.642 89.0012 116.675 93.4685 112.075C98.5285 106.865 102.541 99.3376 94.4626 92.1418Z" fill="url(#paint52_linear_343_7370)"/>
<path d="M94.4626 92.1418C94.0829 91.8035 93.6573 91.5209 93.1947 91.3062C89.5611 89.6197 71.9591 82.05 64.6117 90.0038C60.0356 94.9576 66.872 103.323 73.8259 109.762C80.1759 115.642 102.541 99.3376 94.4626 92.1418Z" fill="url(#paint53_linear_343_7370)"/>
<path d="M73.8261 109.762C79.7152 115.215 87.7308 116.496 92.4273 112.984L80.9735 101.531L73.2661 109.238C73.4526 109.414 73.6394 109.589 73.8261 109.762Z" fill="url(#paint54_linear_343_7370)"/>
<path d="M50.2175 101.221C56.1404 103.602 62.6469 107.962 68.594 113.909C74.541 119.857 78.9013 126.363 81.2822 132.286C82.561 135.468 87.5769 134.779 91.4543 130.902C94.0437 128.312 95.351 125.023 94.6725 122.774C92.6701 116.137 87.8969 108.454 80.9728 101.53C74.0487 94.6062 66.3663 89.833 59.7293 87.8306C57.4798 87.1521 54.1907 88.4595 51.6013 91.0489C47.7242 94.9265 47.0357 99.9424 50.2175 101.221Z" fill="url(#paint55_linear_343_7370)"/>
<path d="M74.0115 108.492C72.3095 106.79 69.55 106.79 67.8483 108.492L65.4136 110.927C66.4868 111.872 67.5495 112.865 68.5945 113.909C74.5415 119.856 78.9018 126.363 81.2827 132.286C82.5615 135.468 87.5774 134.779 91.4547 130.902C92.3324 130.024 93.0586 129.065 93.6142 128.095L74.0115 108.492Z" fill="url(#paint56_linear_343_7370)"/>
<path d="M40.5886 141.915C38.8865 140.213 38.8865 137.453 40.5886 135.752L67.848 108.492C69.55 106.79 72.3094 106.79 74.0112 108.492C75.7133 110.194 75.7133 112.954 74.0112 114.655L46.7518 141.915C45.0497 143.617 42.2906 143.617 40.5886 141.915Z" fill="url(#paint57_linear_343_7370)"/>
</g>
<defs>
<linearGradient id="paint0_linear_343_7370" x1="87.2835" y1="25.6477" x2="99.1363" y2="37.5005" gradientUnits="userSpaceOnUse">
<stop stop-color="#A57C52"/>
<stop offset="0.1339" stop-color="#A26C4A"/>
<stop offset="0.5155" stop-color="#994336"/>
<stop offset="0.8174" stop-color="#942A2A"/>
<stop offset="1" stop-color="#922125"/>
</linearGradient>
<linearGradient id="paint1_linear_343_7370" x1="94.3476" y1="17.2567" x2="89.1802" y2="30.2312" gradientUnits="userSpaceOnUse">
<stop stop-color="#FFDECF"/>
<stop offset="0.3791" stop-color="#FDC4B0"/>
<stop offset="0.7655" stop-color="#FBAE97"/>
<stop offset="1" stop-color="#FAA68E"/>
</linearGradient>
<linearGradient id="paint2_linear_343_7370" x1="92.0357" y1="19.1014" x2="91.0263" y2="45.2261" gradientUnits="userSpaceOnUse">
<stop stop-color="#FFDECF"/>
<stop offset="0.3791" stop-color="#FDC4B0"/>
<stop offset="0.7655" stop-color="#FBAE97"/>
<stop offset="1" stop-color="#FAA68E"/>
</linearGradient>
<linearGradient id="paint3_linear_343_7370" x1="103.02" y1="39.962" x2="88.4988" y2="25.4406" gradientUnits="userSpaceOnUse">
<stop stop-color="#F82814" stop-opacity="0"/>
<stop offset="0.2454" stop-color="#F12817" stop-opacity="0.245"/>
<stop offset="0.6052" stop-color="#DD2820" stop-opacity="0.605"/>
<stop offset="1" stop-color="#C0272D"/>
</linearGradient>
<linearGradient id="paint4_linear_343_7370" x1="91.7228" y1="24.873" x2="78.4558" y2="38.1401" gradientUnits="userSpaceOnUse">
<stop stop-color="#BADA00"/>
<stop offset="0.2269" stop-color="#B0CE00"/>
<stop offset="0.6378" stop-color="#95AE00"/>
<stop offset="1" stop-color="#798C00"/>
</linearGradient>
<linearGradient id="paint5_linear_343_7370" x1="104.232" y1="57.0662" x2="75.3141" y2="28.1486" gradientUnits="userSpaceOnUse">
<stop stop-color="#798C00" stop-opacity="0"/>
<stop offset="0.6542" stop-color="#556100" stop-opacity="0.654"/>
<stop offset="1" stop-color="#464F00"/>
</linearGradient>
<linearGradient id="paint6_linear_343_7370" x1="65.537" y1="35.1556" x2="76.5884" y2="67.5612" gradientUnits="userSpaceOnUse">
<stop stop-color="#A57C52"/>
<stop offset="0.1339" stop-color="#A26C4A"/>
<stop offset="0.5155" stop-color="#994336"/>
<stop offset="0.8174" stop-color="#942A2A"/>
<stop offset="1" stop-color="#922125"/>
</linearGradient>
<linearGradient id="paint7_linear_343_7370" x1="64.0606" y1="31.2766" x2="66.3888" y2="61.233" gradientUnits="userSpaceOnUse">
<stop stop-color="#A57C52"/>
<stop offset="0.1339" stop-color="#A26C4A"/>
<stop offset="0.5155" stop-color="#994336"/>
<stop offset="0.8174" stop-color="#942A2A"/>
<stop offset="1" stop-color="#922125"/>
</linearGradient>
<linearGradient id="paint8_linear_343_7370" x1="68.9821" y1="32.9789" x2="63.6668" y2="27.4353" gradientUnits="userSpaceOnUse">
<stop stop-color="#42210B" stop-opacity="0"/>
<stop offset="1" stop-color="#42210B"/>
</linearGradient>
<linearGradient id="paint9_linear_343_7370" x1="66.4778" y1="37.3027" x2="62.2819" y2="32.9264" gradientUnits="userSpaceOnUse">
<stop stop-color="#42210B" stop-opacity="0"/>
<stop offset="1" stop-color="#42210B"/>
</linearGradient>
<linearGradient id="paint10_linear_343_7370" x1="71.628" y1="36.7186" x2="69.0984" y2="34.0802" gradientUnits="userSpaceOnUse">
<stop stop-color="#42210B" stop-opacity="0"/>
<stop offset="1" stop-color="#42210B"/>
</linearGradient>
<linearGradient id="paint11_linear_343_7370" x1="75.5546" y1="33.5622" x2="75.9915" y2="27.8996" gradientUnits="userSpaceOnUse">
<stop stop-color="#42210B" stop-opacity="0"/>
<stop offset="1" stop-color="#42210B"/>
</linearGradient>
<linearGradient id="paint12_linear_343_7370" x1="71.9361" y1="34.3125" x2="72.2811" y2="29.8419" gradientUnits="userSpaceOnUse">
<stop stop-color="#42210B" stop-opacity="0"/>
<stop offset="1" stop-color="#42210B"/>
</linearGradient>
<linearGradient id="paint13_linear_343_7370" x1="74.7963" y1="36.8643" x2="75.0042" y2="34.1692" gradientUnits="userSpaceOnUse">
<stop stop-color="#42210B" stop-opacity="0"/>
<stop offset="1" stop-color="#42210B"/>
</linearGradient>
<linearGradient id="paint14_linear_343_7370" x1="78.4176" y1="44.7389" x2="103.769" y2="28.1827" gradientUnits="userSpaceOnUse">
<stop stop-color="#42210B" stop-opacity="0"/>
<stop offset="1" stop-color="#42210B"/>
</linearGradient>
<linearGradient id="paint15_linear_343_7370" x1="75.2709" y1="47.6532" x2="97.3382" y2="33.242" gradientUnits="userSpaceOnUse">
<stop stop-color="#42210B" stop-opacity="0"/>
<stop offset="1" stop-color="#42210B"/>
</linearGradient>
<linearGradient id="paint16_linear_343_7370" x1="79.8627" y1="77.5029" x2="63.3462" y2="60.9865" gradientUnits="userSpaceOnUse">
<stop stop-color="#42210B" stop-opacity="0"/>
<stop offset="1" stop-color="#42210B"/>
</linearGradient>
<linearGradient id="paint17_linear_343_7370" x1="63.3702" y1="53.2256" x2="50.1034" y2="66.4923" gradientUnits="userSpaceOnUse">
<stop stop-color="#FFD945"/>
<stop offset="0.3043" stop-color="#FFCD3E"/>
<stop offset="0.8558" stop-color="#FFAD2B"/>
<stop offset="1" stop-color="#FFA325"/>
</linearGradient>
<linearGradient id="paint18_linear_343_7370" x1="83.1974" y1="90.5177" x2="29.6877" y2="37.008" gradientUnits="userSpaceOnUse">
<stop stop-color="#F82814" stop-opacity="0"/>
<stop offset="1" stop-color="#C0272D"/>
</linearGradient>
<linearGradient id="paint19_linear_343_7370" x1="52.7986" y1="54.5847" x2="38.5188" y2="80.4538" gradientUnits="userSpaceOnUse">
<stop stop-color="#A57C52"/>
<stop offset="0.1339" stop-color="#A26C4A"/>
<stop offset="0.5155" stop-color="#994336"/>
<stop offset="0.8174" stop-color="#942A2A"/>
<stop offset="1" stop-color="#922125"/>
</linearGradient>
<linearGradient id="paint20_linear_343_7370" x1="44.5283" y1="56.9844" x2="39.3544" y2="98.9959" gradientUnits="userSpaceOnUse">
<stop stop-color="#A57C52"/>
<stop offset="0.1339" stop-color="#A26C4A"/>
<stop offset="0.5155" stop-color="#994336"/>
<stop offset="0.8174" stop-color="#942A2A"/>
<stop offset="1" stop-color="#922125"/>
</linearGradient>
<linearGradient id="paint21_linear_343_7370" x1="54.4577" y1="76.487" x2="51.9277" y2="73.8487" gradientUnits="userSpaceOnUse">
<stop stop-color="#42210B" stop-opacity="0"/>
<stop offset="1" stop-color="#42210B"/>
</linearGradient>
<linearGradient id="paint22_linear_343_7370" x1="58.3544" y1="73.3554" x2="58.7915" y2="67.6926" gradientUnits="userSpaceOnUse">
<stop stop-color="#42210B" stop-opacity="0"/>
<stop offset="1" stop-color="#42210B"/>
</linearGradient>
<linearGradient id="paint23_linear_343_7370" x1="54.7358" y1="74.1053" x2="55.081" y2="69.6349" gradientUnits="userSpaceOnUse">
<stop stop-color="#42210B" stop-opacity="0"/>
<stop offset="1" stop-color="#42210B"/>
</linearGradient>
<linearGradient id="paint24_linear_343_7370" x1="57.5958" y1="76.657" x2="57.8037" y2="73.9619" gradientUnits="userSpaceOnUse">
<stop stop-color="#42210B" stop-opacity="0"/>
<stop offset="1" stop-color="#42210B"/>
</linearGradient>
<linearGradient id="paint25_linear_343_7370" x1="61.1072" y1="102.364" x2="39.1863" y2="80.4427" gradientUnits="userSpaceOnUse">
<stop stop-color="#42210B" stop-opacity="0"/>
<stop offset="1" stop-color="#42210B"/>
</linearGradient>
<radialGradient id="paint26_radial_343_7370" cx="0" cy="0" r="1" gradientUnits="userSpaceOnUse" gradientTransform="translate(23.8377 93.7091) rotate(-135) scale(43.5634 20.7034)">
<stop stop-color="#FF6359"/>
<stop offset="0.4845" stop-color="#FF6157"/>
<stop offset="0.6591" stop-color="#FE5C50"/>
<stop offset="0.7835" stop-color="#FD5145"/>
<stop offset="0.884" stop-color="#FB4334"/>
<stop offset="0.9692" stop-color="#F9311E"/>
<stop offset="1" stop-color="#F82814"/>
</radialGradient>
<linearGradient id="paint27_linear_343_7370" x1="52.7975" y1="108.811" x2="27.806" y2="83.8192" gradientUnits="userSpaceOnUse">
<stop stop-color="#F82814" stop-opacity="0"/>
<stop offset="1" stop-color="#C0272D"/>
</linearGradient>
<linearGradient id="paint28_linear_343_7370" x1="16.7706" y1="96.1604" x2="28.6235" y2="108.013" gradientUnits="userSpaceOnUse">
<stop stop-color="#A57C52"/>
<stop offset="0.1339" stop-color="#A26C4A"/>
<stop offset="0.5155" stop-color="#994336"/>
<stop offset="0.8174" stop-color="#942A2A"/>
<stop offset="1" stop-color="#922125"/>
</linearGradient>
<linearGradient id="paint29_linear_343_7370" x1="125.954" y1="52.8748" x2="137.807" y2="64.7279" gradientUnits="userSpaceOnUse">
<stop stop-color="#A57C52"/>
<stop offset="0.1339" stop-color="#A26C4A"/>
<stop offset="0.5155" stop-color="#994336"/>
<stop offset="0.8174" stop-color="#942A2A"/>
<stop offset="1" stop-color="#922125"/>
</linearGradient>
<radialGradient id="paint30_radial_343_7370" cx="0" cy="0" r="1" gradientUnits="userSpaceOnUse" gradientTransform="translate(121.968 61.2631) rotate(-135) scale(34.6442 16.4646)">
<stop stop-color="#FF6359"/>
<stop offset="0.4845" stop-color="#FF6157"/>
<stop offset="0.6591" stop-color="#FE5C50"/>
<stop offset="0.7835" stop-color="#FD5145"/>
<stop offset="0.884" stop-color="#FB4334"/>
<stop offset="0.9692" stop-color="#F9311E"/>
<stop offset="1" stop-color="#F82814"/>
</radialGradient>
<linearGradient id="paint31_linear_343_7370" x1="150.674" y1="67.2853" x2="141.051" y2="64.4915" gradientUnits="userSpaceOnUse">
<stop stop-color="#F82814" stop-opacity="0"/>
<stop offset="1" stop-color="#C0272D"/>
</linearGradient>
<linearGradient id="paint32_linear_343_7370" x1="125.783" y1="47.507" x2="111.504" y2="73.3761" gradientUnits="userSpaceOnUse">
<stop stop-color="#A57C52"/>
<stop offset="0.1339" stop-color="#A26C4A"/>
<stop offset="0.5155" stop-color="#994336"/>
<stop offset="0.8174" stop-color="#942A2A"/>
<stop offset="1" stop-color="#922125"/>
</linearGradient>
<linearGradient id="paint33_linear_343_7370" x1="117.513" y1="49.907" x2="112.339" y2="91.9185" gradientUnits="userSpaceOnUse">
<stop stop-color="#A57C52"/>
<stop offset="0.1339" stop-color="#A26C4A"/>
<stop offset="0.5155" stop-color="#994336"/>
<stop offset="0.8174" stop-color="#942A2A"/>
<stop offset="1" stop-color="#922125"/>
</linearGradient>
<linearGradient id="paint34_linear_343_7370" x1="127.419" y1="69.3872" x2="124.89" y2="66.7488" gradientUnits="userSpaceOnUse">
<stop stop-color="#42210B" stop-opacity="0"/>
<stop offset="1" stop-color="#42210B"/>
</linearGradient>
<linearGradient id="paint35_linear_343_7370" x1="131.377" y1="66.2804" x2="131.814" y2="60.6175" gradientUnits="userSpaceOnUse">
<stop stop-color="#42210B" stop-opacity="0"/>
<stop offset="1" stop-color="#42210B"/>
</linearGradient>
<linearGradient id="paint36_linear_343_7370" x1="127.758" y1="67.0302" x2="128.103" y2="62.56" gradientUnits="userSpaceOnUse">
<stop stop-color="#42210B" stop-opacity="0"/>
<stop offset="1" stop-color="#42210B"/>
</linearGradient>
<linearGradient id="paint37_linear_343_7370" x1="130.618" y1="69.5819" x2="130.826" y2="66.8868" gradientUnits="userSpaceOnUse">
<stop stop-color="#42210B" stop-opacity="0"/>
<stop offset="1" stop-color="#42210B"/>
</linearGradient>
<linearGradient id="paint38_linear_343_7370" x1="132.907" y1="93.0958" x2="113.771" y2="73.9606" gradientUnits="userSpaceOnUse">
<stop stop-color="#42210B" stop-opacity="0"/>
<stop offset="1" stop-color="#42210B"/>
</linearGradient>
<linearGradient id="paint39_linear_343_7370" x1="113.751" y1="68.753" x2="100.484" y2="82.0201" gradientUnits="userSpaceOnUse">
<stop stop-color="#BADA00"/>
<stop offset="0.2269" stop-color="#B0CE00"/>
<stop offset="0.6378" stop-color="#95AE00"/>
<stop offset="1" stop-color="#798C00"/>
</linearGradient>
<linearGradient id="paint40_linear_343_7370" x1="126.406" y1="100.424" x2="93.5965" y2="67.6153" gradientUnits="userSpaceOnUse">
<stop stop-color="#798C00" stop-opacity="0"/>
<stop offset="0.6542" stop-color="#556100" stop-opacity="0.654"/>
<stop offset="1" stop-color="#464F00"/>
</linearGradient>
<linearGradient id="paint41_linear_343_7370" x1="93.2611" y1="74.3351" x2="99.8597" y2="103.774" gradientUnits="userSpaceOnUse">
<stop stop-color="#A57C52"/>
<stop offset="0.1339" stop-color="#A26C4A"/>
<stop offset="0.5155" stop-color="#994336"/>
<stop offset="0.8174" stop-color="#942A2A"/>
<stop offset="1" stop-color="#922125"/>
</linearGradient>
<linearGradient id="paint42_linear_343_7370" x1="92.3221" y1="70.8498" x2="104.424" y2="94.5794" gradientUnits="userSpaceOnUse">
<stop stop-color="#A57C52"/>
<stop offset="0.1339" stop-color="#A26C4A"/>
<stop offset="0.5155" stop-color="#994336"/>
<stop offset="0.8174" stop-color="#942A2A"/>
<stop offset="1" stop-color="#922125"/>
</linearGradient>
<linearGradient id="paint43_linear_343_7370" x1="88.0823" y1="74.2914" x2="82.7671" y2="68.748" gradientUnits="userSpaceOnUse">
<stop stop-color="#42210B" stop-opacity="0"/>
<stop offset="1" stop-color="#42210B"/>
</linearGradient>
<linearGradient id="paint44_linear_343_7370" x1="85.578" y1="78.6151" x2="81.3818" y2="74.239" gradientUnits="userSpaceOnUse">
<stop stop-color="#42210B" stop-opacity="0"/>
<stop offset="1" stop-color="#42210B"/>
</linearGradient>
<linearGradient id="paint45_linear_343_7370" x1="90.7278" y1="78.031" x2="88.1979" y2="75.3927" gradientUnits="userSpaceOnUse">
<stop stop-color="#42210B" stop-opacity="0"/>
<stop offset="1" stop-color="#42210B"/>
</linearGradient>
<linearGradient id="paint46_linear_343_7370" x1="94.6527" y1="74.9157" x2="95.0897" y2="69.253" gradientUnits="userSpaceOnUse">
<stop stop-color="#42210B" stop-opacity="0"/>
<stop offset="1" stop-color="#42210B"/>
</linearGradient>
<linearGradient id="paint47_linear_343_7370" x1="91.034" y1="75.6657" x2="91.3792" y2="71.1953" gradientUnits="userSpaceOnUse">
<stop stop-color="#42210B" stop-opacity="0"/>
<stop offset="1" stop-color="#42210B"/>
</linearGradient>
<linearGradient id="paint48_linear_343_7370" x1="93.8937" y1="78.2174" x2="94.1016" y2="75.5223" gradientUnits="userSpaceOnUse">
<stop stop-color="#42210B" stop-opacity="0"/>
<stop offset="1" stop-color="#42210B"/>
</linearGradient>
<linearGradient id="paint49_linear_343_7370" x1="88.6678" y1="87.6851" x2="63.6521" y2="86.9505" gradientUnits="userSpaceOnUse">
<stop stop-color="#42210B" stop-opacity="0"/>
<stop offset="1" stop-color="#42210B"/>
</linearGradient>
<linearGradient id="paint50_linear_343_7370" x1="92.3204" y1="88.4843" x2="70.7113" y2="87.8499" gradientUnits="userSpaceOnUse">
<stop stop-color="#42210B" stop-opacity="0"/>
<stop offset="1" stop-color="#42210B"/>
</linearGradient>
<linearGradient id="paint51_linear_343_7370" x1="105.789" y1="111.16" x2="88.9475" y2="94.3185" gradientUnits="userSpaceOnUse">
<stop stop-color="#42210B" stop-opacity="0"/>
<stop offset="1" stop-color="#42210B"/>
</linearGradient>
<linearGradient id="paint52_linear_343_7370" x1="82.4478" y1="94.5251" x2="76.0841" y2="110.503" gradientUnits="userSpaceOnUse">
<stop stop-color="#FFDECF"/>
<stop offset="0.3791" stop-color="#FDC4B0"/>
<stop offset="0.7655" stop-color="#FBAE97"/>
<stop offset="1" stop-color="#FAA68E"/>
</linearGradient>
<linearGradient id="paint53_linear_343_7370" x1="79.6004" y1="96.7966" x2="78.3576" y2="128.969" gradientUnits="userSpaceOnUse">
<stop stop-color="#FFDECF"/>
<stop offset="0.3791" stop-color="#FDC4B0"/>
<stop offset="0.7655" stop-color="#FBAE97"/>
<stop offset="1" stop-color="#FAA68E"/>
</linearGradient>
<linearGradient id="paint54_linear_343_7370" x1="88.5735" y1="116.838" x2="77.1196" y2="105.384" gradientUnits="userSpaceOnUse">
<stop stop-color="#F82814" stop-opacity="0"/>
<stop offset="0.2454" stop-color="#F12817" stop-opacity="0.245"/>
<stop offset="0.6052" stop-color="#DD2820" stop-opacity="0.605"/>
<stop offset="1" stop-color="#C0272D"/>
</linearGradient>
<linearGradient id="paint55_linear_343_7370" x1="80.2127" y1="102.428" x2="66.9456" y2="115.695" gradientUnits="userSpaceOnUse">
<stop stop-color="#FFD945"/>
<stop offset="0.3043" stop-color="#FFCD3E"/>
<stop offset="0.8558" stop-color="#FFAD2B"/>
<stop offset="1" stop-color="#FFA325"/>
</linearGradient>
<linearGradient id="paint56_linear_343_7370" x1="86.6233" y1="129.549" x2="55.3494" y2="98.2755" gradientUnits="userSpaceOnUse">
<stop stop-color="#F82814" stop-opacity="0"/>
<stop offset="1" stop-color="#C0272D"/>
</linearGradient>
<linearGradient id="paint57_linear_343_7370" x1="55.441" y1="123.387" x2="67.2941" y2="135.24" gradientUnits="userSpaceOnUse">
<stop stop-color="#A57C52"/>
<stop offset="0.1339" stop-color="#A26C4A"/>
<stop offset="0.5155" stop-color="#994336"/>
<stop offset="0.8174" stop-color="#942A2A"/>
<stop offset="1" stop-color="#922125"/>
</linearGradient>
<clipPath id="clip0_343_7370">
<rect width="150" height="150" fill="white" transform="translate(0.63623 0.0158691)"/>
</clipPath>
</defs>
</svg>
