<svg width="151" height="151" fill="none" xmlns="http://www.w3.org/2000/svg"><path d="M149.469 48.642c-.484-1.538-.561-3.326-.181-5.266l.056-.283c.823-4.2-.933-7.338-4.489-8.023-3.034-.585-4.793-2.968-4.684-6.348l.012-.392c.121-3.748-2.052-6.24-5.641-6.468l-.277-.018c-3.296-.21-5.419-2.334-5.628-5.63l-.018-.275c-.228-3.59-2.719-5.763-6.467-5.643l-.323.01c-3.399.11-5.805-1.645-6.419-4.68v-.004c-.719-3.553-3.882-5.3-8.099-4.473l-.208.04c-1.94.381-3.728.304-5.266-.18-4.234-1.333-7.75-1.183-9.964 1.031L52.825 41.088l56.565 56.565 39.048-39.048c2.214-2.214 2.364-5.73 1.031-9.963Z" fill="url(#a)"/><path d="M101.411 14.998c-10.895 10.585 33.774 56.565 44.67 45.98 1.878-1.825 2.104-4.703 1.136-8.16-.351-1.257-.362-2.72.006-4.31l.04-.17c.801-3.457-.538-6.036-3.427-6.604h-.002c-2.468-.486-3.835-2.446-3.646-5.228l.018-.265c.208-3.068-1.499-5.094-4.432-5.261l-.224-.013c-2.695-.153-4.371-1.878-4.447-4.575l-.006-.226c-.083-2.937-2.06-4.702-5.133-4.582l-.321.013c-2.771.108-4.672-1.318-5.062-3.798-.456-2.907-2.976-4.327-6.439-3.63l-.233.048c-1.6.322-3.062.269-4.308-.119-3.428-1.067-6.311-.925-8.19.9Z" fill="url(#b)"/><path d="M129.945 35.056c.245-4.926-1.513-8.756-5.275-12.518-7.063-7.064-18.516-7.064-25.58 0-3.762 3.762-5.52 7.592-5.274 12.518v47.023l15.574 15.574 20.555-20.555V35.056Z" fill="url(#c)"/><path d="M132.495 57.139a64.03 64.03 0 0 1-26.255-26.255c-.994-1.859.353-4.107 2.461-4.107h20.359a7.542 7.542 0 0 1 7.542 7.542v20.36c-.001 2.107-2.248 3.454-4.107 2.46Z" fill="url(#d)"/><path d="M129.944 35.055c.14-2.816-.671-5.657-1.84-8.277H108.7c-2.107 0-3.454 2.247-2.46 4.106a64.017 64.017 0 0 0 23.704 24.811v-20.64Z" fill="url(#e)"/><path d="M93.942 42.219c9.989 0 18.087-8.098 18.087-18.088 0-9.989-8.098-18.087-18.087-18.087-9.99 0-18.087 8.098-18.087 18.087 0 9.99 8.097 18.088 18.087 18.088Z" fill="url(#f)"/><path d="M137.718 70.912c-7.662 3.618-16.315 1.383-19.325-4.993-3.011-6.375.76-14.476 8.423-18.094 7.662-3.619 16.315-1.383 19.325 4.992 3.011 6.375-.761 14.477-8.423 18.095Z" fill="url(#g)"/><path d="M124.67 21.361c-7.063-7.064-18.516-7.064-25.58 0-7.064 7.063-7.063 18.516 0 25.58 7.064 7.063 18.516 7.063 25.58 0 7.064-7.064 7.064-18.516 0-25.58Zm-20.912 20.912c-4.485-4.485-4.485-11.759 0-16.244 4.485-4.485 11.757-4.483 16.242.002 4.485 4.485 4.487 11.757.002 16.242-4.485 4.485-11.759 4.485-16.244 0Z" fill="url(#h)"/><path d="M101.241 44.79c5.875 5.875 15.403 5.875 21.278 0 5.877-5.877 5.875-15.403 0-21.278-5.877-5.877-15.401-5.877-21.278 0-5.874 5.875-5.876 15.401 0 21.278Zm18.761-18.76c4.485 4.484 4.485 11.758 0 16.243-4.485 4.485-11.757 4.483-16.242-.002-4.485-4.485-4.487-11.757-.001-16.242 4.484-4.485 11.758-4.485 16.243 0Z" fill="url(#i)"/><path d="m121 82.349 15.167-15.167c2.951-2.952 3.882-7.207 2.225-10.329-3.708-6.986-10.707-16.071-19.701-25.065s-18.079-15.993-25.066-19.701c-3.122-1.657-7.377-.727-10.328 2.225L68.13 29.48c-1.464 1.463-1.33 3.7.274 4.43 7.216 3.28 44.886 40.95 48.166 48.166.73 1.604 2.966 1.737 4.43.274Z" fill="url(#j)"/><path d="m78.953 18.655-8.157 8.157a18.072 18.072 0 0 0-1.864 7.367c5.632 3.154 23.87 20.624 36.136 33.833V35.725a18.04 18.04 0 0 0-5.276-13.662c-5.639-5.639-14.072-6.771-20.84-3.408Z" fill="url(#k)"/><path d="M99.792 22.063c-7.064-7.064-18.516-7.064-25.58 0-7.064 7.063-7.064 18.516 0 25.58 7.063 7.063 18.516 7.063 25.58 0 7.064-7.064 7.063-18.516 0-25.58ZM78.88 42.975c-4.485-4.485-4.485-11.759 0-16.244 4.485-4.485 11.757-4.483 16.242.002 4.485 4.485 4.487 11.757.002 16.242-4.485 4.485-11.76 4.485-16.244 0Z" fill="url(#l)"/><path d="M76.363 45.492c5.875 5.875 15.403 5.875 21.278 0 5.876-5.877 5.875-15.403 0-21.278-5.877-5.877-15.401-5.877-21.278 0-5.875 5.875-5.877 15.401 0 21.278Zm18.76-18.761c4.486 4.485 4.486 11.759 0 16.244-4.484 4.485-11.756 4.483-16.241-.002-4.485-4.485-4.487-11.757-.002-16.242 4.485-4.485 11.759-4.485 16.244 0Z" fill="url(#m)"/><path d="M83.927 55.792c-2.463 13.91 53.604 23.84 56.067 9.929.425-2.399-.891-4.679-3.372-6.739-.901-.748-1.661-1.838-2.212-3.231l-.059-.15c-1.197-3.03-3.494-4.227-5.883-3.066h-.002c-2.041.992-4.041.274-5.335-1.915l-.123-.208c-1.426-2.413-3.708-2.994-5.922-1.509l-.169.114c-2.035 1.364-4.139.991-5.581-.988l-.121-.166c-1.57-2.155-3.912-2.392-6.081-.615l-.227.186c-1.955 1.602-4.068 1.577-5.627-.067-1.826-1.927-4.385-1.608-6.54.816l-.145.162c-.995 1.12-2.083 1.883-3.187 2.276-3.037 1.083-5.056 2.772-5.48 5.17Z" fill="url(#n)"/><path d="M137.423 67.613c-11.687-11.687-28.27-15.49-43.146-11.412 4.078-14.875.275-31.46-11.412-43.146a3.885 3.885 0 0 0-5.494 0L7.457 82.968c-9.085 9.085-9.56 23.678-1.053 33.305a320.158 320.158 0 0 0 13.482 14.319 320.067 320.067 0 0 0 14.319 13.482c9.628 8.508 24.22 8.032 33.305-1.053l69.913-69.913a3.884 3.884 0 0 0 0-5.495Z" fill="url(#o)"/><path d="M82.865 13.055a3.885 3.885 0 0 0-5.495 0L7.457 82.968c-9.09 9.09-9.555 23.686-1.042 33.318 2.954 3.342 6.1 6.747 9.411 10.175l58.849-58.848A44.165 44.165 0 0 1 94.277 56.2c4.078-14.875.275-31.459-11.412-43.145Z" fill="url(#p)"/><path d="M7.457 82.968c-9.085 9.085-9.56 23.678-1.053 33.305a319.996 319.996 0 0 0 13.482 14.319 320.23 320.23 0 0 0 14.32 13.482c9.627 8.508 24.22 8.032 33.304-1.053L7.457 82.968Z" fill="url(#q)"/><g opacity=".6"><g opacity=".6"><path opacity=".6" d="M44.385 59.632a2.16 2.16 0 1 0 0-4.321 2.16 2.16 0 0 0 0 4.32Z" fill="url(#r)"/><path opacity=".6" d="M45.202 66.005a1.705 1.705 0 1 0 0-3.41 1.705 1.705 0 0 0 0 3.41Z" fill="url(#s)"/><path opacity=".6" d="M51.65 61.36a1.028 1.028 0 1 0 0-2.056 1.028 1.028 0 0 0 0 2.056Z" fill="url(#t)"/></g><g opacity=".6"><path opacity=".6" d="M53.906 52.55a1.596 1.596 0 1 0 0-3.192 1.596 1.596 0 0 0 0 3.193Z" fill="url(#u)"/><path opacity=".6" d="M50.548 56.029a1.26 1.26 0 1 0 0-2.52 1.26 1.26 0 0 0 0 2.52Z" fill="url(#v)"/><path opacity=".6" d="M55.91 57.124a.76.76 0 1 0 0-1.52.76.76 0 0 0 0 1.52Z" fill="url(#w)"/></g></g><g opacity=".6"><g opacity=".6"><path opacity=".6" d="M35.864 116.786a2.16 2.16 0 1 0 0-4.32 2.16 2.16 0 0 0 0 4.32Z" fill="url(#x)"/><path opacity=".6" d="M31.853 121.917a1.705 1.705 0 1 0 0-3.41 1.705 1.705 0 0 0 0 3.41Z" fill="url(#y)"/><path opacity=".6" d="M39.286 122.671a1.028 1.028 0 1 0 .001-2.056 1.028 1.028 0 0 0 0 2.056Z" fill="url(#z)"/></g><g opacity=".6"><path opacity=".6" d="M112.96 82.109a2.16 2.16 0 1 0 0-4.32 2.16 2.16 0 0 0 0 4.32Z" fill="url(#A)"/><path opacity=".6" d="M108.949 87.24a1.705 1.705 0 1 0 0-3.41 1.705 1.705 0 0 0 0 3.41Z" fill="url(#B)"/><path opacity=".6" d="M116.382 87.994a1.028 1.028 0 1 0 0-2.056 1.028 1.028 0 0 0 0 2.056Z" fill="url(#C)"/></g><g opacity=".6"><path opacity=".6" d="M47.286 117.85a1.596 1.596 0 1 0 0-3.193 1.596 1.596 0 0 0 0 3.193Z" fill="url(#D)"/><path opacity=".6" d="M42.233 118.057a1.26 1.26 0 1 0 0-2.52 1.26 1.26 0 0 0 0 2.52Z" fill="url(#E)"/><path opacity=".6" d="M45.107 122.356a.76.76 0 1 0 0-1.52.76.76 0 0 0 0 1.52Z" fill="url(#F)"/></g></g><defs><linearGradient id="a" x1="132.687" y1="17.8" x2="109.665" y2="40.822" gradientUnits="userSpaceOnUse"><stop stop-color="#BADA00"/><stop offset=".227" stop-color="#B0CE00"/><stop offset=".638" stop-color="#95AE00"/><stop offset="1" stop-color="#798C00"/></linearGradient><linearGradient id="b" x1="128.386" y1="31.325" x2="145.327" y2="6.956" gradientUnits="userSpaceOnUse"><stop stop-color="#798C00" stop-opacity="0"/><stop offset=".654" stop-color="#556100" stop-opacity=".654"/><stop offset="1" stop-color="#464F00"/></linearGradient><linearGradient id="c" x1="113.704" y1="47.819" x2="122.903" y2="13.614" gradientUnits="userSpaceOnUse"><stop stop-color="#798C00" stop-opacity="0"/><stop offset=".654" stop-color="#556100" stop-opacity=".654"/><stop offset="1" stop-color="#464F00"/></linearGradient><linearGradient id="d" x1="121.265" y1="26.34" x2="121.265" y2="58.872" gradientUnits="userSpaceOnUse"><stop stop-color="#FFD945"/><stop offset=".304" stop-color="#FFCD3E"/><stop offset=".856" stop-color="#FFAD2B"/><stop offset="1" stop-color="#FFA325"/></linearGradient><linearGradient id="e" x1="118.975" y1="40.812" x2="130.657" y2="25.715" gradientUnits="userSpaceOnUse"><stop stop-color="#F82814" stop-opacity="0"/><stop offset="1" stop-color="#C0272D"/></linearGradient><linearGradient id="f" x1="99.296" y1="8.55" x2="92.092" y2="29.572" gradientUnits="userSpaceOnUse"><stop stop-color="#FF6359"/><stop offset=".224" stop-color="#FE5B50"/><stop offset=".595" stop-color="#FC4637"/><stop offset="1" stop-color="#F82814"/></linearGradient><linearGradient id="g" x1="143.109" y1="55.371" x2="136.224" y2="57.908" gradientUnits="userSpaceOnUse"><stop stop-color="#FF6359"/><stop offset=".224" stop-color="#FE5B50"/><stop offset=".595" stop-color="#FC4637"/><stop offset="1" stop-color="#F82814"/></linearGradient><linearGradient id="h" x1="117.232" y1="18.567" x2="110.028" y2="39.59" gradientUnits="userSpaceOnUse"><stop stop-color="#FFDECF"/><stop offset=".379" stop-color="#FDC4B0"/><stop offset=".765" stop-color="#FBAE97"/><stop offset="1" stop-color="#FAA68E"/></linearGradient><linearGradient id="i" x1="107.429" y1="47.163" x2="113.421" y2="29.675" gradientUnits="userSpaceOnUse"><stop stop-color="#FFDECF"/><stop offset=".379" stop-color="#FDC4B0"/><stop offset=".765" stop-color="#FBAE97"/><stop offset="1" stop-color="#FAA68E"/></linearGradient><linearGradient id="j" x1="117.649" y1="32.839" x2="94.621" y2="55.867" gradientUnits="userSpaceOnUse"><stop stop-color="#A57C52"/><stop offset=".134" stop-color="#A26C4A"/><stop offset=".515" stop-color="#994336"/><stop offset=".817" stop-color="#942A2A"/><stop offset="1" stop-color="#922125"/></linearGradient><linearGradient id="k" x1="87.026" y1="71.25" x2="87.026" y2="15.101" gradientUnits="userSpaceOnUse"><stop stop-color="#42210B" stop-opacity="0"/><stop offset="1" stop-color="#42210B"/></linearGradient><linearGradient id="l" x1="92.357" y1="19.269" x2="85.153" y2="40.291" gradientUnits="userSpaceOnUse"><stop stop-color="#FFDECF"/><stop offset=".379" stop-color="#FDC4B0"/><stop offset=".765" stop-color="#FBAE97"/><stop offset="1" stop-color="#FAA68E"/></linearGradient><linearGradient id="m" x1="82.555" y1="47.864" x2="88.546" y2="30.377" gradientUnits="userSpaceOnUse"><stop stop-color="#FFDECF"/><stop offset=".379" stop-color="#FDC4B0"/><stop offset=".765" stop-color="#FBAE97"/><stop offset="1" stop-color="#FAA68E"/></linearGradient><linearGradient id="n" x1="114.486" y1="48.903" x2="112.372" y2="58.868" gradientUnits="userSpaceOnUse"><stop stop-color="#BADA00"/><stop offset=".227" stop-color="#B0CE00"/><stop offset=".638" stop-color="#95AE00"/><stop offset="1" stop-color="#798C00"/></linearGradient><linearGradient id="o" x1="40.078" y1="43.619" x2="90.117" y2="119.751" gradientUnits="userSpaceOnUse"><stop stop-color="#FAA68E"/><stop offset=".206" stop-color="#FBA682"/><stop offset=".581" stop-color="#FDA861"/><stop offset="1" stop-color="#FFA936"/></linearGradient><linearGradient id="p" x1="44.133" y1="62.279" x2="81.284" y2="132.518" gradientUnits="userSpaceOnUse"><stop stop-color="#F82814" stop-opacity="0"/><stop offset=".245" stop-color="#F12817" stop-opacity=".245"/><stop offset=".605" stop-color="#DD2820" stop-opacity=".605"/><stop offset="1" stop-color="#C0272D"/></linearGradient><linearGradient id="q" x1="30.83" y1="119.657" x2="16.173" y2="134.314" gradientUnits="userSpaceOnUse"><stop stop-color="#F82814" stop-opacity="0"/><stop offset=".245" stop-color="#F12817" stop-opacity=".245"/><stop offset=".605" stop-color="#DD2820" stop-opacity=".605"/><stop offset="1" stop-color="#C0272D"/></linearGradient><linearGradient id="r" x1="47.684" y1="58.426" x2="37.803" y2="55.809" gradientUnits="userSpaceOnUse"><stop stop-color="#F82814" stop-opacity="0"/><stop offset=".245" stop-color="#F12817" stop-opacity=".245"/><stop offset=".605" stop-color="#DD2820" stop-opacity=".605"/><stop offset="1" stop-color="#C0272D"/></linearGradient><linearGradient id="s" x1="47.833" y1="65.075" x2="40.032" y2="63.009" gradientUnits="userSpaceOnUse"><stop stop-color="#F82814" stop-opacity="0"/><stop offset=".245" stop-color="#F12817" stop-opacity=".245"/><stop offset=".605" stop-color="#DD2820" stop-opacity=".605"/><stop offset="1" stop-color="#C0272D"/></linearGradient><linearGradient id="t" x1="53.282" y1="60.844" x2="48.578" y2="59.598" gradientUnits="userSpaceOnUse"><stop stop-color="#F82814" stop-opacity="0"/><stop offset=".245" stop-color="#F12817" stop-opacity=".245"/><stop offset=".605" stop-color="#DD2820" stop-opacity=".605"/><stop offset="1" stop-color="#C0272D"/></linearGradient><linearGradient id="u" x1="55.103" y1="52.998" x2="51.68" y2="46.263" gradientUnits="userSpaceOnUse"><stop stop-color="#F82814" stop-opacity="0"/><stop offset=".245" stop-color="#F12817" stop-opacity=".245"/><stop offset=".605" stop-color="#DD2820" stop-opacity=".605"/><stop offset="1" stop-color="#C0272D"/></linearGradient><linearGradient id="v" x1="51.512" y1="56.354" x2="48.81" y2="51.038" gradientUnits="userSpaceOnUse"><stop stop-color="#F82814" stop-opacity="0"/><stop offset=".245" stop-color="#F12817" stop-opacity=".245"/><stop offset=".605" stop-color="#DD2820" stop-opacity=".605"/><stop offset="1" stop-color="#C0272D"/></linearGradient><linearGradient id="w" x1="56.528" y1="57.273" x2="54.898" y2="54.068" gradientUnits="userSpaceOnUse"><stop stop-color="#F82814" stop-opacity="0"/><stop offset=".245" stop-color="#F12817" stop-opacity=".245"/><stop offset=".605" stop-color="#DD2820" stop-opacity=".605"/><stop offset="1" stop-color="#C0272D"/></linearGradient><linearGradient id="x" x1="37.446" y1="117.37" x2="31.927" y2="108.756" gradientUnits="userSpaceOnUse"><stop stop-color="#F82814" stop-opacity="0"/><stop offset=".245" stop-color="#F12817" stop-opacity=".245"/><stop offset=".605" stop-color="#DD2820" stop-opacity=".605"/><stop offset="1" stop-color="#C0272D"/></linearGradient><linearGradient id="y" x1="33.06" y1="122.376" x2="28.703" y2="115.576" gradientUnits="userSpaceOnUse"><stop stop-color="#F82814" stop-opacity="0"/><stop offset=".245" stop-color="#F12817" stop-opacity=".245"/><stop offset=".605" stop-color="#DD2820" stop-opacity=".605"/><stop offset="1" stop-color="#C0272D"/></linearGradient><linearGradient id="z" x1="39.941" y1="122.938" x2="37.314" y2="118.839" gradientUnits="userSpaceOnUse"><stop stop-color="#F82814" stop-opacity="0"/><stop offset=".245" stop-color="#F12817" stop-opacity=".245"/><stop offset=".605" stop-color="#DD2820" stop-opacity=".605"/><stop offset="1" stop-color="#C0272D"/></linearGradient><linearGradient id="A" x1="114.578" y1="82.666" x2="109.058" y2="74.052" gradientUnits="userSpaceOnUse"><stop stop-color="#F82814" stop-opacity="0"/><stop offset=".245" stop-color="#F12817" stop-opacity=".245"/><stop offset=".605" stop-color="#DD2820" stop-opacity=".605"/><stop offset="1" stop-color="#C0272D"/></linearGradient><linearGradient id="B" x1="110.192" y1="87.672" x2="105.835" y2="80.872" gradientUnits="userSpaceOnUse"><stop stop-color="#F82814" stop-opacity="0"/><stop offset=".245" stop-color="#F12817" stop-opacity=".245"/><stop offset=".605" stop-color="#DD2820" stop-opacity=".605"/><stop offset="1" stop-color="#C0272D"/></linearGradient><linearGradient id="C" x1="117.072" y1="88.234" x2="114.445" y2="84.135" gradientUnits="userSpaceOnUse"><stop stop-color="#F82814" stop-opacity="0"/><stop offset=".245" stop-color="#F12817" stop-opacity=".245"/><stop offset=".605" stop-color="#DD2820" stop-opacity=".605"/><stop offset="1" stop-color="#C0272D"/></linearGradient><linearGradient id="D" x1="46.546" y1="118.564" x2="48.569" y2="111.282" gradientUnits="userSpaceOnUse"><stop stop-color="#F82814" stop-opacity="0"/><stop offset=".245" stop-color="#F12817" stop-opacity=".245"/><stop offset=".605" stop-color="#DD2820" stop-opacity=".605"/><stop offset="1" stop-color="#C0272D"/></linearGradient><linearGradient id="E" x1="41.629" y1="118.615" x2="43.226" y2="112.867" gradientUnits="userSpaceOnUse"><stop stop-color="#F82814" stop-opacity="0"/><stop offset=".245" stop-color="#F12817" stop-opacity=".245"/><stop offset=".605" stop-color="#DD2820" stop-opacity=".605"/><stop offset="1" stop-color="#C0272D"/></linearGradient><linearGradient id="F" x1="44.709" y1="122.681" x2="45.672" y2="119.215" gradientUnits="userSpaceOnUse"><stop stop-color="#F82814" stop-opacity="0"/><stop offset=".245" stop-color="#F12817" stop-opacity=".245"/><stop offset=".605" stop-color="#DD2820" stop-opacity=".605"/><stop offset="1" stop-color="#C0272D"/></linearGradient></defs></svg>