<svg width="151" height="150" viewBox="0 0 151 150" fill="none" xmlns="http://www.w3.org/2000/svg">
<g clip-path="url(#clip0_343_6757)">
<path d="M65.9325 28.7947C65.9325 28.7947 20.3634 56.6735 3.51516 132.438C2.26133 138.076 8.70692 142.24 13.3225 138.768C33.5225 123.575 76.4649 96.4411 135.884 86.6873C142.656 85.5756 146.075 77.9338 142.391 72.1429C133.416 58.0353 112.4 36.3176 65.9325 28.7947Z" fill="url(#paint0_linear_343_6757)"/>
<path d="M142.281 71.9709C76.9926 79.9062 29.857 109.522 8.3955 125.664C7.2655 126.514 6.02608 126.905 4.81667 126.931C4.36697 128.744 3.92873 130.577 3.51285 132.447C2.2602 138.082 8.70961 142.238 13.3226 138.768C33.5261 123.572 76.4802 96.4315 135.915 86.6824C142.648 85.578 146.081 77.9565 142.424 72.1965C142.377 72.1215 142.329 72.0462 142.281 71.9709Z" fill="url(#paint1_linear_343_6757)"/>
<path d="M144.787 77.5877C144.787 77.5877 132.919 34.9838 61.8998 25.1379C61.8998 25.1379 16.5401 52.6294 0.198375 125.57C-1.0181 131 5.45043 134.877 10.0428 131.469C11.796 130.169 13.7216 128.778 15.816 127.316C18.4378 125.485 22.0375 127.364 22.0375 130.561V130.789C22.0375 134.169 24.7778 136.91 28.1584 136.91C31.539 136.91 34.2793 134.169 34.2793 130.789V124.377C34.2793 118.809 37.3178 113.686 42.2066 111.021C54.1713 104.499 68.3428 97.8521 84.5019 92.0853C87.0778 91.1662 89.7896 93.0788 89.7896 95.8141C89.7896 99.1947 92.5298 101.935 95.9104 101.935C99.291 101.935 102.031 99.1947 102.031 95.8141V87.9359C102.031 87.0497 102.621 86.2718 103.474 86.0318L103.514 86.0206C104.782 85.6635 106.041 86.6174 106.041 87.9353V107.881C106.041 111.261 108.782 114.001 112.162 114.001C115.543 114.001 118.283 111.261 118.283 107.881V90.8588C118.283 85.8106 121.848 81.4485 126.804 80.4868C132.633 79.3559 138.63 78.38 144.787 77.5877Z" fill="url(#paint2_linear_343_6757)"/>
<path d="M61.8998 25.1382C61.8998 25.1382 53.2389 30.3879 42.123 42.3841L100.052 100.313C101.266 99.1941 102.032 97.5955 102.032 95.8144V87.9361C102.032 87.0499 102.621 86.272 103.474 86.032L103.514 86.0208C104.783 85.6638 106.042 86.6176 106.042 87.9355V106.303L113.571 113.832C116.271 113.195 118.283 110.776 118.283 107.881V90.8588C118.283 85.8105 121.848 81.4485 126.804 80.4867C132.633 79.3555 138.629 78.3797 144.787 77.5876C144.787 77.5876 132.919 34.9838 61.8998 25.1382Z" fill="url(#paint3_linear_343_6757)"/>
<path d="M76.7026 39.4402C76.1021 38.7599 75.405 38.1134 74.6091 37.5131C68.1191 32.619 57.5965 32.619 51.1065 37.5131C44.9541 42.1525 44.6382 49.5228 50.1503 54.4467L97.4385 101.735C100.078 101.055 102.031 98.6658 102.031 95.814V87.9358C102.031 87.0496 102.621 86.2717 103.474 86.0317L103.514 86.0205C104.783 85.6634 106.041 86.6173 106.041 87.9352V107.88C106.041 109.345 106.557 110.688 107.414 111.741C107.831 112.173 108.292 112.589 108.791 112.988C109.759 113.627 110.916 114.002 112.162 114.002C115.543 114.002 118.283 111.261 118.283 107.881V90.8587C118.283 88.1549 119.306 85.6487 121.018 83.7555L76.7026 39.4402Z" fill="url(#paint4_linear_343_6757)"/>
<path d="M53.8026 59.11C51.552 56.5079 47.487 54.7703 42.8458 54.7703C35.7643 54.7703 30.0234 58.815 30.0234 63.8047C30.0234 65.9344 31.072 67.8906 32.8217 69.435L63.7011 100.411C70.2108 97.5173 77.1481 94.7097 84.502 92.0853C85.1776 91.8441 85.8614 91.802 86.5043 91.9144L53.8026 59.11Z" fill="url(#paint5_linear_343_6757)"/>
<path d="M106.379 66.447C104.1 63.9412 100.116 62.2788 95.5784 62.2788C88.4969 62.2788 82.756 66.3235 82.756 71.3132C82.756 71.517 82.7689 71.7185 82.7878 71.9188C77.2542 68.9923 69.5707 69.3903 64.6269 73.1185C59.4222 77.0435 59.1083 83.2591 63.6839 87.4612L72.776 96.5532C76.5584 95.0197 80.4681 93.5253 84.5016 92.0859C87.0775 91.1668 89.7892 93.0794 89.7892 95.8147C89.7892 99.1953 92.5295 101.936 95.9101 101.936C99.2907 101.936 102.031 99.1953 102.031 95.8147V87.9365C102.031 87.0503 102.62 86.2723 103.473 86.0323L103.513 86.0212C104.782 85.6641 106.041 86.6179 106.041 87.9359V107.881C106.041 111.262 108.781 114.002 112.162 114.002C115.542 114.002 118.283 111.262 118.283 107.881V90.8588C118.283 87.4879 119.874 84.4247 122.406 82.4738L106.379 66.447Z" fill="url(#paint6_linear_343_6757)"/>
<path d="M62.8058 100.812L52.2861 90.2921C50.0073 87.7859 46.0228 86.1233 41.4846 86.1233C35.9296 86.1233 31.2008 88.6127 29.4199 92.0942C24.2305 90.3898 17.9661 91.1351 13.7217 94.3359C8.51666 98.2609 8.20313 104.477 12.779 108.679L34.2793 130.179V124.377C34.2793 118.809 37.3178 113.686 42.2067 111.022C48.4755 107.604 55.3564 104.153 62.8058 100.812Z" fill="url(#paint7_linear_343_6757)"/>
<path d="M28.8065 75.2551C29.0886 74.7234 28.8862 74.0637 28.3547 73.7816C27.823 73.4995 27.1633 73.7019 26.8812 74.2334C26.5992 74.7651 26.8015 75.4248 27.333 75.7069C27.8644 75.9893 28.5242 75.7869 28.8065 75.2551Z" fill="#FFEAA2"/>
<path d="M25.2286 75.6945C24.8089 75.4718 24.288 75.6315 24.0653 76.0513C23.8427 76.471 24.0024 76.9918 24.4221 77.2145C24.8418 77.4371 25.3627 77.2774 25.5853 76.8577C25.808 76.4377 25.6483 75.9171 25.2286 75.6945Z" fill="#FFEAA2"/>
<path d="M26.1738 80.1799C25.9209 80.0458 25.6068 80.142 25.4726 80.3949C25.3385 80.6479 25.4347 80.962 25.6876 81.0961C25.9406 81.2305 26.2547 81.134 26.3888 80.8811C26.5232 80.6282 26.4271 80.3143 26.1738 80.1799Z" fill="#FFEAA2"/>
<path d="M33.6117 81.6125C33.0099 81.5954 32.5084 82.0696 32.4917 82.671C32.4746 83.2728 32.9487 83.7743 33.5502 83.791C34.1519 83.8081 34.6534 83.334 34.6702 82.7325C34.6872 82.1307 34.2134 81.6293 33.6117 81.6125Z" fill="#FFEAA2"/>
<path d="M39.2819 73.9034C38.8069 73.8899 38.4111 74.2643 38.3978 74.739C38.3843 75.214 38.7587 75.6099 39.2334 75.6234C39.7084 75.637 40.1043 75.2626 40.1178 74.7876C40.131 74.3126 39.7569 73.9167 39.2819 73.9034Z" fill="#FFEAA2"/>
<path d="M31.2893 74.2304C31.0028 74.2225 30.7643 74.4481 30.7561 74.7343C30.7481 75.0207 30.9737 75.2593 31.2599 75.2675C31.5464 75.2754 31.7849 75.0498 31.7931 74.7637C31.8014 74.4772 31.5758 74.2387 31.2893 74.2304Z" fill="#FFEAA2"/>
<path d="M29.5778 78.6987C29.1443 78.7975 28.8728 79.229 28.9714 79.6628C29.0702 80.0963 29.5017 80.3678 29.9355 80.2693C30.369 80.1704 30.6405 79.739 30.542 79.3051C30.4428 78.8716 30.0114 78.6001 29.5778 78.6987Z" fill="#FFEAA2"/>
<path d="M30.4792 76.4503C30.1368 76.5283 29.9224 76.8692 30.0004 77.2115C30.0783 77.5539 30.4192 77.7683 30.7616 77.6903C31.1039 77.6124 31.3183 77.2715 31.2404 76.9291C31.1621 76.5868 30.8216 76.3724 30.4792 76.4503Z" fill="#FFEAA2"/>
<path d="M27.8953 77.694C28.1017 77.647 28.2308 77.4417 28.1838 77.2352C28.1367 77.0288 27.9314 76.8996 27.725 76.9467C27.5185 76.9937 27.3894 77.199 27.4364 77.4055C27.4835 77.612 27.6888 77.7411 27.8953 77.694Z" fill="#FFEAA2"/>
<path d="M49.0106 72.0359C49.2927 71.5041 49.0903 70.8444 48.5588 70.5624C48.0271 70.2803 47.3674 70.4827 47.0853 71.0141C46.8033 71.5459 47.0056 72.2056 47.5371 72.4877C48.0688 72.7697 48.7285 72.5674 49.0106 72.0359Z" fill="#FFEAA2"/>
<path d="M43.7344 81.4084C43.3147 81.1857 42.7938 81.3454 42.5712 81.7651C42.3485 82.1848 42.5083 82.7057 42.928 82.9283C43.3477 83.151 43.8685 82.9913 44.0912 82.5716C44.3138 82.1519 44.1541 81.631 43.7344 81.4084Z" fill="#FFEAA2"/>
<path d="M42.374 76.6747C42.1211 76.5403 41.807 76.6367 41.6728 76.8897C41.5387 77.1426 41.6349 77.4567 41.8878 77.5909C42.1408 77.7253 42.4549 77.6288 42.589 77.3759C42.7231 77.1229 42.627 76.8091 42.374 76.6747Z" fill="#FFEAA2"/>
<path d="M54.9456 73.5063C54.3439 73.4892 53.8424 73.9634 53.8256 74.5648C53.8086 75.1666 54.2827 75.6681 54.8842 75.6848C55.4859 75.7019 55.9874 75.2278 56.0042 74.6263C56.0212 74.0248 55.5474 73.5234 54.9456 73.5063Z" fill="#FFEAA2"/>
<path d="M54.8258 72.0515C54.8393 71.5765 54.4649 71.1806 53.9899 71.1673C53.5149 71.1541 53.1191 71.5282 53.1058 72.0029C53.0923 72.4779 53.4667 72.8738 53.9414 72.8873C54.4164 72.9006 54.8123 72.5265 54.8258 72.0515Z" fill="#FFEAA2"/>
<path d="M51.4934 71.0109C51.2069 71.003 50.9684 71.2283 50.9602 71.5148C50.9522 71.8012 51.1778 72.0398 51.464 72.048C51.7505 72.0559 51.989 71.8304 51.9972 71.5442C52.0052 71.2577 51.7796 71.0192 51.4934 71.0109Z" fill="#FFEAA2"/>
<path d="M46.7937 78.5391C46.3601 78.6379 46.0887 79.0694 46.1872 79.5032C46.286 79.9368 46.7175 80.2082 47.1513 80.1097C47.5848 80.0109 47.8563 79.5794 47.7578 79.1456C47.659 78.7118 47.2275 78.4403 46.7937 78.5391Z" fill="#FFEAA2"/>
<path d="M50.6833 73.2308C50.3409 73.3088 50.1265 73.6497 50.2045 73.9917C50.2824 74.3341 50.6233 74.5485 50.9654 74.4706C51.3077 74.3926 51.5221 74.0517 51.4442 73.7097C51.3665 73.3673 51.0256 73.1529 50.6833 73.2308Z" fill="#FFEAA2"/>
<path d="M48.0984 74.4748C48.3048 74.4277 48.434 74.2225 48.3869 74.016C48.3398 73.8095 48.1346 73.6804 47.9281 73.7275C47.7216 73.7745 47.5925 73.9798 47.6396 74.1863C47.6863 74.3925 47.8919 74.5219 48.0984 74.4748Z" fill="#FFEAA2"/>
<path d="M60.3104 89.5208C60.5925 88.989 60.3901 88.3293 59.8586 88.0472C59.3269 87.7652 58.6672 87.9675 58.3851 88.499C58.1031 89.0308 58.3054 89.6905 58.8369 89.9725C59.3686 90.2549 60.0284 90.0525 60.3104 89.5208Z" fill="#FFEAA2"/>
<path d="M56.7325 89.9601C56.3128 89.7375 55.7919 89.8972 55.5692 90.3169C55.3466 90.7366 55.5063 91.2575 55.926 91.4801C56.3457 91.7028 56.8666 91.543 57.0892 91.1233C57.3122 90.7033 57.1522 90.1828 56.7325 89.9601Z" fill="#FFEAA2"/>
<path d="M57.6777 94.4455C57.4248 94.3114 57.1107 94.4076 56.9766 94.6606C56.8424 94.9135 56.9386 95.2276 57.1915 95.3617C57.4445 95.4958 57.7586 95.3997 57.8927 95.1467C58.0268 94.8938 57.9307 94.58 57.6777 94.4455Z" fill="#FFEAA2"/>
<path d="M65.1165 95.8784C64.5148 95.8613 64.0133 96.3354 63.9965 96.9369C63.9795 97.5387 64.4536 98.0401 65.0551 98.0569C65.6568 98.074 66.1583 97.5999 66.1751 96.9984C66.1918 96.3969 65.718 95.8951 65.1165 95.8784Z" fill="#FFEAA2"/>
<path d="M113.847 71.3134C113.644 70.884 113.131 70.7007 112.701 70.904C112.272 71.1072 112.089 71.6204 112.292 72.0498C112.495 72.4793 113.008 72.6625 113.438 72.4592C113.867 72.256 114.051 71.7428 113.847 71.3134Z" fill="#FFEAA2"/>
<path d="M62.7932 88.4961C62.5067 88.4881 62.2682 88.7137 62.26 88.9999C62.252 89.2864 62.4776 89.5249 62.7638 89.5331C63.0503 89.5411 63.2888 89.3155 63.297 89.0293C63.305 88.7428 63.0794 88.5043 62.7932 88.4961Z" fill="#FFEAA2"/>
<path d="M61.0817 92.9643C60.6482 93.0631 60.3767 93.4946 60.4753 93.9284C60.5741 94.3619 61.0056 94.6334 61.4394 94.5349C61.8729 94.4361 62.1444 94.0046 62.0459 93.5708C61.9473 93.137 61.5153 92.8658 61.0817 92.9643Z" fill="#FFEAA2"/>
<path d="M61.9831 90.7159C61.6408 90.7939 61.4263 91.1348 61.5043 91.4771C61.5822 91.8195 61.9231 92.0339 62.2652 91.9559C62.6075 91.878 62.8219 91.5371 62.744 91.1948C62.666 90.8524 62.3255 90.638 61.9831 90.7159Z" fill="#FFEAA2"/>
<path d="M59.3992 91.9599C59.6056 91.9128 59.7347 91.7076 59.6877 91.5011C59.6406 91.2946 59.4353 91.1655 59.2289 91.2126C59.0224 91.2596 58.8933 91.4649 58.9403 91.6714C58.9874 91.8778 59.193 92.007 59.3992 91.9599Z" fill="#FFEAA2"/>
<path d="M60.3866 41.978C60.6686 41.4463 60.4663 40.7866 59.9348 40.5045C59.403 40.2224 58.7433 40.4248 58.4613 40.9563C58.1792 41.488 58.3816 42.1477 58.9131 42.4298C59.4448 42.7122 60.1045 42.5098 60.3866 41.978Z" fill="#FFEAA2"/>
<path d="M109.176 78.6842C109.185 78.2092 108.806 77.8174 108.331 77.8092C107.856 77.801 107.464 78.1795 107.456 78.6545C107.448 79.1295 107.826 79.5213 108.301 79.5295C108.776 79.5377 109.168 79.1595 109.176 78.6842Z" fill="#FFEAA2"/>
<path d="M112.779 75.3253C112.784 75.0389 112.555 74.8027 112.269 74.7977C111.982 74.7927 111.746 75.0209 111.741 75.3074C111.736 75.5939 111.965 75.83 112.251 75.835C112.537 75.84 112.774 75.6118 112.779 75.3253Z" fill="#FFEAA2"/>
<path d="M66.3226 43.4484C65.7208 43.4314 65.2194 43.9055 65.2026 44.507C65.1855 45.1087 65.6597 45.6102 66.2611 45.627C66.8629 45.644 67.3644 45.1699 67.3811 44.5684C67.3982 43.967 66.9241 43.4655 66.3226 43.4484Z" fill="#FFEAA2"/>
<path d="M66.2018 41.9936C66.2153 41.5186 65.8409 41.1227 65.3659 41.1095C64.8909 41.096 64.495 41.4704 64.4818 41.9451C64.4683 42.4201 64.8427 42.816 65.3174 42.8295C65.7924 42.8427 66.1883 42.4686 66.2018 41.9936Z" fill="#FFEAA2"/>
<path d="M62.8694 40.9533C62.5829 40.9454 62.3444 41.1707 62.3361 41.4572C62.3282 41.7436 62.5538 41.9822 62.84 41.9904C63.1264 41.9983 63.365 41.7727 63.3732 41.4866C63.3814 41.2001 63.1558 40.9613 62.8694 40.9533Z" fill="#FFEAA2"/>
<path d="M113.12 80.1107C112.836 79.769 112.328 79.7228 111.986 80.0072C111.644 80.2919 111.598 80.7996 111.883 81.1413C112.167 81.4831 112.675 81.5293 113.017 81.2449C113.359 80.9601 113.405 80.4525 113.12 80.1107Z" fill="#FFEAA2"/>
<path d="M62.0593 43.1732C61.7169 43.2512 61.5025 43.5921 61.5805 43.9341C61.6584 44.2765 61.9993 44.4909 62.3416 44.4129C62.684 44.335 62.8984 43.9941 62.8204 43.6521C62.7422 43.3094 62.4016 43.0953 62.0593 43.1732Z" fill="#FFEAA2"/>
<path d="M59.4744 44.4172C59.6808 44.3701 59.8099 44.1648 59.7629 43.9584C59.7158 43.7519 59.5105 43.6228 59.3041 43.6698C59.0976 43.7169 58.9685 43.9222 59.0155 44.1287C59.0626 44.3351 59.2679 44.4642 59.4744 44.4172Z" fill="#FFEAA2"/>
<path d="M90.1207 64.561C89.801 65.071 89.9551 65.7437 90.4651 66.0634C90.9751 66.3831 91.6478 66.229 91.9675 65.719C92.2872 65.209 92.1331 64.5363 91.6231 64.2169C91.1131 63.8969 90.4404 64.051 90.1207 64.561Z" fill="#FFEAA2"/>
<path d="M93.7209 64.3809C94.1236 64.6333 94.6545 64.5115 94.9068 64.1089C95.1592 63.7062 95.0374 63.1753 94.6348 62.923C94.2321 62.6706 93.7012 62.7924 93.4489 63.1951C93.1965 63.5977 93.3183 64.1286 93.7209 64.3809Z" fill="#FFEAA2"/>
<path d="M93.1006 59.8388C93.3433 59.9908 93.6636 59.9176 93.8157 59.6746C93.9677 59.432 93.8945 59.1117 93.6518 58.9596C93.4092 58.8076 93.0889 58.8808 92.9368 59.1235C92.7845 59.3664 92.858 59.6867 93.1006 59.8388Z" fill="#FFEAA2"/>
<path d="M85.7863 57.8736C86.3851 57.9339 86.9195 57.4974 86.9798 56.8986C87.0401 56.2997 86.6036 55.7653 86.0048 55.705C85.406 55.6447 84.8716 56.0812 84.8113 56.68C84.7507 57.2791 85.1875 57.8133 85.7863 57.8736Z" fill="#FFEAA2"/>
<path d="M79.5749 65.154C80.0475 65.2016 80.4696 64.8569 80.5173 64.3843C80.5649 63.9116 80.2202 63.4895 79.7475 63.4419C79.2749 63.3943 78.8528 63.739 78.8052 64.2116C78.7575 64.6845 79.1022 65.1063 79.5749 65.154Z" fill="#FFEAA2"/>
<path d="M87.5713 65.4041C87.8563 65.4329 88.1107 65.225 88.1392 64.94C88.168 64.655 87.9601 64.4006 87.6751 64.3721C87.3901 64.3432 87.1357 64.5512 87.1072 64.8362C87.0783 65.1209 87.2863 65.3753 87.5713 65.4041Z" fill="#FFEAA2"/>
<path d="M89.5998 61.0706C90.0395 61.0033 90.3413 60.5924 90.2742 60.153C90.2069 59.7133 89.796 59.4115 89.3566 59.4786C88.9169 59.5459 88.6151 59.9568 88.6822 60.3962C88.7495 60.8362 89.1604 61.138 89.5998 61.0706Z" fill="#FFEAA2"/>
<path d="M88.5384 63.2483C88.8855 63.195 89.1237 62.8709 89.0708 62.5238C89.0178 62.1768 88.6934 61.9386 88.3464 61.9915C87.9993 62.0444 87.7611 62.3688 87.814 62.7159C87.8669 63.063 88.1914 63.3012 88.5384 63.2483Z" fill="#FFEAA2"/>
<path d="M91.2062 62.1937C90.9971 62.2257 90.8533 62.4213 90.8853 62.6304C90.9174 62.8396 91.113 62.9834 91.3221 62.9513C91.5312 62.9193 91.675 62.7237 91.643 62.5146C91.6109 62.3054 91.4153 62.1616 91.2062 62.1937Z" fill="#FFEAA2"/>
<path d="M69.7369 66.3154C69.4172 66.8254 69.5714 67.498 70.0814 67.8177C70.5914 68.1374 71.264 67.9833 71.5834 67.4733C71.9031 66.9633 71.749 66.2907 71.239 65.971C70.729 65.651 70.0566 65.8054 69.7369 66.3154Z" fill="#FFEAA2"/>
<path d="M75.675 57.3477C76.0777 57.6001 76.6086 57.4783 76.8609 57.0757C77.1133 56.673 76.9915 56.1421 76.5889 55.8898C76.1862 55.6374 75.6553 55.7592 75.403 56.1618C75.1506 56.5642 75.2724 57.0951 75.675 57.3477Z" fill="#FFEAA2"/>
<path d="M76.6904 62.1666C76.9331 62.3187 77.2534 62.2455 77.4054 62.0025C77.5575 61.7599 77.4843 61.4396 77.2413 61.2875C76.9987 61.1355 76.6784 61.2087 76.5263 61.4513C76.3746 61.6943 76.4478 62.0146 76.6904 62.1666Z" fill="#FFEAA2"/>
<path d="M63.923 64.4209C64.5218 64.4812 65.0562 64.0447 65.1165 63.4459C65.1768 62.8471 64.7403 62.3127 64.1415 62.2524C63.5427 62.1921 63.0083 62.6286 62.948 63.2274C62.8874 63.8262 63.3242 64.3606 63.923 64.4209Z" fill="#FFEAA2"/>
<path d="M63.938 65.8803C63.8903 66.353 64.235 66.775 64.7077 66.8224C65.1803 66.87 65.6024 66.5253 65.6498 66.0527C65.6974 65.58 65.3527 65.158 64.88 65.1103C64.4074 65.063 63.9856 65.4077 63.938 65.8803Z" fill="#FFEAA2"/>
<path d="M67.1875 67.1583C67.4725 67.1871 67.7269 66.9791 67.7554 66.6941C67.7842 66.4091 67.5763 66.1547 67.2913 66.1262C67.0063 66.0974 66.7519 66.3053 66.7234 66.5903C66.6945 66.8753 66.9025 67.1297 67.1875 67.1583Z" fill="#FFEAA2"/>
<path d="M72.4162 59.9886C72.8559 59.9212 73.1577 59.5104 73.0906 59.0709C73.0233 58.6312 72.6124 58.3295 72.173 58.3965C71.7333 58.4639 71.4315 58.8748 71.4986 59.3142C71.5656 59.7539 71.9765 60.0559 72.4162 59.9886Z" fill="#FFEAA2"/>
<path d="M68.1546 65.0027C68.5017 64.9494 68.7399 64.6253 68.687 64.2782C68.634 63.9312 68.3096 63.6929 67.9626 63.7459C67.6155 63.7991 67.3773 64.1232 67.4302 64.4703C67.4832 64.8174 67.8076 65.0556 68.1546 65.0027Z" fill="#FFEAA2"/>
<path d="M70.8224 63.9483C70.6133 63.9804 70.4695 64.176 70.5015 64.3851C70.5336 64.5945 70.7292 64.738 70.9383 64.706C71.1474 64.6739 71.2912 64.4783 71.2592 64.2692C71.2271 64.0601 71.0315 63.9163 70.8224 63.9483Z" fill="#FFEAA2"/>
<path d="M28.3012 116.234C28.2159 116.83 28.6297 117.382 29.2256 117.467C29.8215 117.553 30.3735 117.139 30.4588 116.543C30.5441 115.947 30.1303 115.395 29.5344 115.31C28.9385 115.225 28.3865 115.638 28.3012 116.234Z" fill="#FFEAA2"/>
<path d="M31.5188 114.609C31.9891 114.676 32.425 114.35 32.4923 113.879C32.5597 113.409 32.2329 112.973 31.7626 112.906C31.2923 112.838 30.8564 113.165 30.7891 113.635C30.7217 114.105 31.0485 114.542 31.5188 114.609Z" fill="#FFEAA2"/>
<path d="M29.1103 110.709C29.3938 110.749 29.6567 110.552 29.6973 110.269C29.7379 109.985 29.5409 109.722 29.2573 109.682C28.9738 109.641 28.7109 109.838 28.6703 110.122C28.63 110.405 28.8267 110.668 29.1103 110.709Z" fill="#FFEAA2"/>
<path d="M21.6266 111.88C22.1984 111.692 22.5099 111.077 22.3219 110.505C22.134 109.933 21.5184 109.621 20.9463 109.809C20.3746 109.997 20.0631 110.613 20.251 111.185C20.439 111.757 21.0546 112.068 21.6266 111.88Z" fill="#FFEAA2"/>
<path d="M18.9035 121.055C19.355 120.906 19.6006 120.42 19.4523 119.969C19.3041 119.517 18.8179 119.272 18.3664 119.42C17.915 119.568 17.6694 120.054 17.8176 120.506C17.9658 120.957 18.452 121.203 18.9035 121.055Z" fill="#FFEAA2"/>
<path d="M26.3126 118.039C26.5846 117.95 26.7329 117.657 26.6435 117.385C26.5541 117.112 26.2608 116.964 25.9888 117.054C25.7167 117.143 25.5685 117.436 25.6579 117.708C25.7473 117.98 26.0405 118.129 26.3126 118.039Z" fill="#FFEAA2"/>
<path d="M26.4086 113.255C26.783 113.016 26.8924 112.517 26.6524 112.143C26.4127 111.769 25.9145 111.659 25.5401 111.899C25.1656 112.139 25.0562 112.637 25.2962 113.012C25.5362 113.386 26.0342 113.495 26.4086 113.255Z" fill="#FFEAA2"/>
<path d="M26.3224 115.676C26.618 115.487 26.7045 115.094 26.515 114.798C26.3256 114.502 25.9324 114.416 25.6368 114.605C25.3412 114.795 25.2548 115.188 25.4442 115.484C25.6336 115.779 26.0268 115.865 26.3224 115.676Z" fill="#FFEAA2"/>
<path d="M28.3329 113.63C28.1547 113.744 28.1026 113.981 28.2168 114.159C28.3309 114.338 28.5679 114.39 28.7462 114.276C28.9244 114.162 28.9765 113.924 28.8623 113.746C28.7485 113.568 28.5115 113.516 28.3329 113.63Z" fill="#FFEAA2"/>
<path d="M10.3822 126.107C10.2969 126.703 10.7108 127.255 11.3066 127.34C11.9025 127.426 12.4546 127.012 12.5399 126.416C12.6252 125.82 12.2114 125.268 11.6155 125.183C11.0199 125.097 10.4678 125.511 10.3822 126.107Z" fill="#FFEAA2"/>
<path d="M12.1711 115.502C12.6414 115.569 13.0773 115.242 13.1446 114.772C13.212 114.302 12.8852 113.866 12.4149 113.798C11.9446 113.731 11.5088 114.058 11.4414 114.528C11.3741 114.998 11.7008 115.434 12.1711 115.502Z" fill="#FFEAA2"/>
<path d="M15.0547 119.494C15.3382 119.535 15.6011 119.338 15.6417 119.054C15.6823 118.771 15.4853 118.508 15.2017 118.467C14.9182 118.427 14.6553 118.624 14.6147 118.907C14.5741 119.191 14.7711 119.454 15.0547 119.494Z" fill="#FFEAA2"/>
<path d="M4.29949 126.735C4.87125 126.547 5.18243 125.931 4.99478 125.359C4.80684 124.787 4.19125 124.476 3.61919 124.664C3.04743 124.852 2.73596 125.467 2.9239 126.039C3.11184 126.611 3.72772 126.922 4.29949 126.735Z" fill="#FFEAA2"/>
<path d="M4.90547 128.062C5.0537 128.514 5.53988 128.759 5.99135 128.611C6.44282 128.463 6.68841 127.977 6.54018 127.525C6.39194 127.074 5.90576 126.828 5.45429 126.977C5.00312 127.125 4.75723 127.611 4.90547 128.062Z" fill="#FFEAA2"/>
<path d="M8.39364 127.913C8.6657 127.823 8.81393 127.53 8.72452 127.258C8.63511 126.986 8.34188 126.838 8.06982 126.927C7.79776 127.016 7.64952 127.31 7.73893 127.582C7.82835 127.854 8.12158 128.002 8.39364 127.913Z" fill="#FFEAA2"/>
<path d="M10.265 119.237C10.6394 118.998 10.7489 118.499 10.5089 118.125C10.2691 117.751 9.77091 117.641 9.3965 117.881C9.02209 118.121 8.91268 118.619 9.15268 118.994C9.39238 119.368 9.89062 119.477 10.265 119.237Z" fill="#FFEAA2"/>
<path d="M8.40346 125.549C8.69905 125.36 8.78552 124.967 8.5961 124.671C8.40669 124.375 8.01346 124.289 7.71787 124.478C7.42228 124.668 7.33581 125.061 7.52522 125.356C7.71463 125.652 8.10787 125.739 8.40346 125.549Z" fill="#FFEAA2"/>
<path d="M10.414 123.503C10.2358 123.617 10.1837 123.855 10.2978 124.033C10.4119 124.211 10.649 124.263 10.8272 124.149C11.0055 124.035 11.0575 123.798 10.9434 123.62C10.8293 123.441 10.5922 123.389 10.414 123.503Z" fill="#FFEAA2"/>
<path d="M64.0316 65.1525C67.7613 65.1525 70.7848 63.0221 70.7848 60.3942C70.7848 57.7663 67.7613 55.636 64.0316 55.636C60.3019 55.636 57.2783 57.7663 57.2783 60.3942C57.2783 63.0221 60.3019 65.1525 64.0316 65.1525Z" fill="url(#paint8_linear_343_6757)"/>
<path d="M63.3154 58.5977C63.9114 58.5977 64.3946 58.1146 64.3946 57.5186C64.3946 56.9226 63.9114 56.4395 63.3154 56.4395C62.7195 56.4395 62.2363 56.9226 62.2363 57.5186C62.2363 58.1146 62.7195 58.5977 63.3154 58.5977Z" fill="url(#paint9_linear_343_6757)"/>
<path d="M61.3117 61.1606C61.7821 61.1606 62.1635 60.7792 62.1635 60.3088C62.1635 59.8384 61.7821 59.457 61.3117 59.457C60.8413 59.457 60.46 59.8384 60.46 60.3088C60.46 60.7792 60.8413 61.1606 61.3117 61.1606Z" fill="url(#paint10_linear_343_6757)"/>
<path d="M65.0243 61.5371C65.3079 61.5371 65.5378 61.3072 65.5378 61.0235C65.5378 60.7399 65.3079 60.51 65.0243 60.51C64.7407 60.51 64.5107 60.7399 64.5107 61.0235C64.5107 61.3072 64.7407 61.5371 65.0243 61.5371Z" fill="url(#paint11_linear_343_6757)"/>
<path d="M36.0638 89.3783C39.7935 89.3783 42.817 87.248 42.817 84.6201C42.817 81.9922 39.7935 79.8618 36.0638 79.8618C32.3341 79.8618 29.3105 81.9922 29.3105 84.6201C29.3105 87.248 32.3341 89.3783 36.0638 89.3783Z" fill="url(#paint12_linear_343_6757)"/>
<path d="M35.3477 82.8235C35.9437 82.8235 36.4268 82.3404 36.4268 81.7444C36.4268 81.1484 35.9437 80.6653 35.3477 80.6653C34.7517 80.6653 34.2686 81.1484 34.2686 81.7444C34.2686 82.3404 34.7517 82.8235 35.3477 82.8235Z" fill="url(#paint13_linear_343_6757)"/>
<path d="M33.344 85.3864C33.8144 85.3864 34.1957 85.005 34.1957 84.5346C34.1957 84.0642 33.8144 83.6829 33.344 83.6829C32.8735 83.6829 32.4922 84.0642 32.4922 84.5346C32.4922 85.005 32.8735 85.3864 33.344 85.3864Z" fill="url(#paint14_linear_343_6757)"/>
<path d="M37.0575 85.7629C37.3411 85.7629 37.571 85.533 37.571 85.2494C37.571 84.9658 37.3411 84.7358 37.0575 84.7358C36.7739 84.7358 36.5439 84.9658 36.5439 85.2494C36.5439 85.533 36.7739 85.7629 37.0575 85.7629Z" fill="url(#paint15_linear_343_6757)"/>
<path d="M70.8802 96.3443C74.6099 96.3443 77.6334 94.214 77.6334 91.5861C77.6334 88.9582 74.6099 86.8279 70.8802 86.8279C67.1505 86.8279 64.127 88.9582 64.127 91.5861C64.127 94.214 67.1505 96.3443 70.8802 96.3443Z" fill="url(#paint16_linear_343_6757)"/>
<path d="M70.1641 89.7896C70.7601 89.7896 71.2432 89.3064 71.2432 88.7105C71.2432 88.1145 70.7601 87.6313 70.1641 87.6313C69.5681 87.6313 69.085 88.1145 69.085 88.7105C69.085 89.3064 69.5681 89.7896 70.1641 89.7896Z" fill="url(#paint17_linear_343_6757)"/>
<path d="M68.1604 92.3524C68.6308 92.3524 69.0121 91.9711 69.0121 91.5007C69.0121 91.0303 68.6308 90.6489 68.1604 90.6489C67.6899 90.6489 67.3086 91.0303 67.3086 91.5007C67.3086 91.9711 67.6899 92.3524 68.1604 92.3524Z" fill="url(#paint18_linear_343_6757)"/>
<path d="M71.8729 92.729C72.1565 92.729 72.3864 92.499 72.3864 92.2154C72.3864 91.9318 72.1565 91.7019 71.8729 91.7019C71.5893 91.7019 71.3594 91.9318 71.3594 92.2154C71.3594 92.499 71.5893 92.729 71.8729 92.729Z" fill="url(#paint19_linear_343_6757)"/>
<path d="M120.684 80.5931C124.414 80.5931 127.437 78.4628 127.437 75.8349C127.437 73.207 124.414 71.0767 120.684 71.0767C116.954 71.0767 113.931 73.207 113.931 75.8349C113.931 78.4628 116.954 80.5931 120.684 80.5931Z" fill="url(#paint20_linear_343_6757)"/>
<path d="M119.968 74.0388C120.564 74.0388 121.047 73.5557 121.047 72.9597C121.047 72.3638 120.564 71.8806 119.968 71.8806C119.372 71.8806 118.889 72.3638 118.889 72.9597C118.889 73.5557 119.372 74.0388 119.968 74.0388Z" fill="url(#paint21_linear_343_6757)"/>
<path d="M117.964 76.6017C118.434 76.6017 118.816 76.2204 118.816 75.75C118.816 75.2795 118.434 74.8982 117.964 74.8982C117.494 74.8982 117.112 75.2795 117.112 75.75C117.112 76.2204 117.494 76.6017 117.964 76.6017Z" fill="url(#paint22_linear_343_6757)"/>
<path d="M121.677 76.9782C121.96 76.9782 122.19 76.7483 122.19 76.4647C122.19 76.1811 121.96 75.9512 121.677 75.9512C121.393 75.9512 121.163 76.1811 121.163 76.4647C121.163 76.7483 121.393 76.9782 121.677 76.9782Z" fill="url(#paint23_linear_343_6757)"/>
<path d="M64.3939 36.8556C68.1236 36.8556 71.1471 34.7252 71.1471 32.0973C71.1471 29.4694 68.1236 27.3391 64.3939 27.3391C60.6642 27.3391 57.6406 29.4694 57.6406 32.0973C57.6406 34.7252 60.6642 36.8556 64.3939 36.8556Z" fill="url(#paint24_linear_343_6757)"/>
<path d="M63.6777 30.3008C64.2737 30.3008 64.7569 29.8177 64.7569 29.2217C64.7569 28.6257 64.2737 28.1426 63.6777 28.1426C63.0818 28.1426 62.5986 28.6257 62.5986 29.2217C62.5986 29.8177 63.0818 30.3008 63.6777 30.3008Z" fill="url(#paint25_linear_343_6757)"/>
<path d="M61.674 32.8637C62.1444 32.8637 62.5258 32.4823 62.5258 32.0119C62.5258 31.5415 62.1444 31.1602 61.674 31.1602C61.2036 31.1602 60.8223 31.5415 60.8223 32.0119C60.8223 32.4823 61.2036 32.8637 61.674 32.8637Z" fill="url(#paint26_linear_343_6757)"/>
<path d="M65.3866 33.2402C65.6702 33.2402 65.9001 33.0103 65.9001 32.7267C65.9001 32.4431 65.6702 32.2131 65.3866 32.2131C65.103 32.2131 64.873 32.4431 64.873 32.7267C64.873 33.0103 65.103 33.2402 65.3866 33.2402Z" fill="url(#paint27_linear_343_6757)"/>
<path d="M74.6094 37.5131C68.1194 32.619 57.5968 32.619 51.1068 37.5131C44.6168 42.4072 44.6168 50.3422 51.1068 55.2364C57.5968 60.1305 68.1194 60.1305 74.6094 55.2364C81.0994 50.3422 81.0994 42.4072 74.6094 37.5131ZM55.3956 49.5611C51.2747 46.8466 51.2747 42.4446 55.3956 39.7305C59.5165 37.0161 66.1979 37.0172 70.3188 39.7316C74.4397 42.4461 74.4412 46.8469 70.3206 49.5611C66.1994 52.2755 59.5162 52.2755 55.3956 49.5611Z" fill="url(#paint28_linear_343_6757)"/>
<path d="M53.0823 52.4713C58.4803 56.3951 67.2347 56.3951 72.6323 52.4713C78.0318 48.5463 78.0303 42.1839 72.6323 38.2604C67.2329 34.3354 58.4817 34.3354 53.0823 38.2604C47.6844 42.1839 47.6826 48.5463 53.0823 52.4713ZM70.3197 39.7304C74.4406 42.4448 74.4406 46.8469 70.3197 49.561C66.1988 52.2754 59.5173 52.2742 55.3964 49.5598C51.2756 46.8454 51.2741 42.4445 55.3947 39.7304C59.5159 37.0163 66.1988 37.0163 70.3197 39.7304Z" fill="url(#paint29_linear_343_6757)"/>
<path d="M9.44329 113.155C11.8745 114.093 14.9748 113.398 16.3683 111.601C16.6424 111.248 16.5209 110.832 16.1392 110.407C15.7171 109.936 15.8686 109.315 16.448 108.937L16.5459 108.873C17.2945 108.383 17.123 107.519 16.2121 107.193L12.5871 105.894C11.6762 105.567 10.5812 105.977 10.458 106.691C10.363 107.241 9.72299 107.667 8.93652 107.699C8.3074 107.724 7.81535 107.878 7.56446 108.202C6.17064 109.999 7.01211 112.216 9.44329 113.155Z" fill="url(#paint30_linear_343_6757)"/>
<path d="M33.783 94.3359C28.2433 90.1585 19.2619 90.1585 13.7222 94.3359C8.18246 98.5132 8.18246 105.286 13.7222 109.464C19.2619 113.641 28.2433 113.641 33.783 109.464C39.3225 105.286 39.3225 98.5132 33.783 94.3359ZM17.3828 104.619C13.8654 102.303 13.8654 98.5453 17.3828 96.2285C20.9001 93.9118 26.603 93.9127 30.1204 96.2294C33.6378 98.5462 33.6392 102.303 30.1219 104.619C26.6048 106.936 20.9001 106.936 17.3828 104.619Z" fill="url(#paint31_linear_343_6757)"/>
<path d="M15.4092 107.103C20.0165 110.452 27.4889 110.452 32.0963 107.103C36.7051 103.753 36.7036 98.3223 32.0963 94.9732C27.4874 91.6232 20.018 91.6232 15.4092 94.9732C10.8018 98.3226 10.8004 103.753 15.4092 107.103ZM30.1224 96.2282C33.6398 98.545 33.6398 102.302 30.1224 104.619C26.6051 106.936 20.9021 106.935 17.3848 104.618C13.8674 102.301 13.866 98.545 17.3833 96.2282C20.9004 93.9114 26.6051 93.9114 30.1224 96.2282Z" fill="url(#paint32_linear_343_6757)"/>
<path d="M99.9737 79.3451C97.5425 78.4066 94.4423 79.1022 93.0487 80.8987C92.7746 81.2522 92.8961 81.6675 93.2778 82.0931C93.6999 82.5637 93.5484 83.1845 92.969 83.5634L92.8711 83.6272C92.1226 84.1166 92.294 84.9807 93.2049 85.3072L96.8299 86.6063C97.7408 86.9328 98.8358 86.5228 98.959 85.8092C99.054 85.2592 99.694 84.8334 100.48 84.8013C101.11 84.7757 101.602 84.6216 101.853 84.2981C103.246 82.501 102.405 80.2837 99.9737 79.3451Z" fill="url(#paint33_linear_343_6757)"/>
<path d="M95.5782 80.3474C102.66 80.3474 108.401 76.3026 108.401 71.313C108.401 66.3234 102.66 62.2786 95.5782 62.2786C88.4966 62.2786 82.7559 66.3234 82.7559 71.313C82.7559 76.3026 88.4966 80.3474 95.5782 80.3474Z" fill="url(#paint34_linear_343_6757)"/>
<path d="M94.2175 67.902C95.3488 67.902 96.266 66.9848 96.266 65.8535C96.266 64.7221 95.3488 63.8049 94.2175 63.8049C93.0861 63.8049 92.1689 64.7221 92.1689 65.8535C92.1689 66.9848 93.0861 67.902 94.2175 67.902Z" fill="url(#paint35_linear_343_6757)"/>
<path d="M90.4133 72.7684C91.3065 72.7684 92.0306 72.0443 92.0306 71.151C92.0306 70.2578 91.3065 69.5337 90.4133 69.5337C89.52 69.5337 88.7959 70.2578 88.7959 71.151C88.7959 72.0443 89.52 72.7684 90.4133 72.7684Z" fill="url(#paint36_linear_343_6757)"/>
<path d="M97.4623 73.4832C98.0008 73.4832 98.4373 73.0467 98.4373 72.5082C98.4373 71.9697 98.0008 71.5332 97.4623 71.5332C96.9238 71.5332 96.4873 71.9697 96.4873 72.5082C96.4873 73.0467 96.9238 73.4832 97.4623 73.4832Z" fill="url(#paint37_linear_343_6757)"/>
<path d="M41.4845 104.192C48.566 104.192 54.3068 100.147 54.3068 95.1577C54.3068 90.1681 48.566 86.1233 41.4845 86.1233C34.4029 86.1233 28.6621 90.1681 28.6621 95.1577C28.6621 100.147 34.4029 104.192 41.4845 104.192Z" fill="url(#paint38_linear_343_6757)"/>
<path d="M40.1237 91.7467C41.2551 91.7467 42.1723 90.8296 42.1723 89.6982C42.1723 88.5668 41.2551 87.6497 40.1237 87.6497C38.9924 87.6497 38.0752 88.5668 38.0752 89.6982C38.0752 90.8296 38.9924 91.7467 40.1237 91.7467Z" fill="url(#paint39_linear_343_6757)"/>
<path d="M36.3205 96.6131C37.2137 96.6131 37.9378 95.889 37.9378 94.9958C37.9378 94.1025 37.2137 93.3784 36.3205 93.3784C35.4272 93.3784 34.7031 94.1025 34.7031 94.9958C34.7031 95.889 35.4272 96.6131 36.3205 96.6131Z" fill="url(#paint40_linear_343_6757)"/>
<path d="M43.3695 97.3279C43.908 97.3279 44.3445 96.8914 44.3445 96.3529C44.3445 95.8145 43.908 95.3779 43.3695 95.3779C42.8311 95.3779 42.3945 95.8145 42.3945 96.3529C42.3945 96.8914 42.8311 97.3279 43.3695 97.3279Z" fill="url(#paint41_linear_343_6757)"/>
<path d="M68.8019 67.8344C66.3707 66.8959 63.2704 67.5914 61.8769 69.3879C61.6027 69.7414 61.7242 70.1567 62.106 70.5823C62.528 71.0529 62.3766 71.6738 61.7971 72.0526L61.6992 72.1164C60.9507 72.6059 61.1221 73.47 62.033 73.7964L65.658 75.0956C66.5689 75.422 67.6639 75.012 67.7871 74.2985C67.8821 73.7485 68.5221 73.3226 69.3086 73.2906C69.9377 73.265 70.4298 73.1109 70.6807 72.7873C72.0742 70.9906 71.233 68.7732 68.8019 67.8344Z" fill="url(#paint42_linear_343_6757)"/>
<path d="M72.4362 96.2124C75.4144 95.7165 77.6335 93.8359 77.6335 91.5859C77.6335 88.9579 74.61 86.8276 70.8803 86.8276C68.5074 86.8276 66.4244 87.6918 65.2197 88.9959L72.4362 96.2124Z" fill="url(#paint43_linear_343_6757)"/>
<path d="M84.6883 73.1181C79.1486 68.9408 70.1671 68.9408 64.6274 73.1181C59.0877 77.2955 59.0877 84.0684 64.6274 88.2458C70.1671 92.4231 79.1486 92.4231 84.6883 88.2458C90.228 84.0684 90.228 77.2955 84.6883 73.1181ZM68.2883 83.4017C64.771 81.0849 64.771 77.3275 68.2883 75.0108C71.8057 72.694 77.5086 72.6949 81.026 75.0117C84.5433 77.3284 84.5448 81.0849 81.0274 83.4017C77.5101 85.7184 71.8057 85.7184 68.2883 83.4017Z" fill="url(#paint44_linear_343_6757)"/>
<path d="M66.3145 85.8854C70.9218 89.2346 78.3942 89.2346 83.0015 85.8854C87.6103 82.5354 87.6089 77.1045 83.0015 73.7554C78.3927 70.4054 70.9233 70.4054 66.3145 73.7554C61.7071 77.1048 61.7056 82.5354 66.3145 85.8854ZM81.0274 75.0107C84.5448 77.3275 84.5448 81.0848 81.0274 83.4016C77.51 85.7184 71.8071 85.7175 68.2898 83.4007C64.7724 81.084 64.7709 77.3275 68.2883 75.0107C71.8056 72.6937 77.51 72.6937 81.0274 75.0107Z" fill="url(#paint45_linear_343_6757)"/>
<path d="M22.4288 81.9548C19.1965 81.9548 16.5762 83.821 16.5762 86.1234C16.5762 88.4257 19.1965 90.2919 22.4288 90.2919C25.6612 90.2919 28.2815 88.4257 28.2815 86.1234C28.2815 83.821 25.6612 81.9548 22.4288 81.9548ZM22.4288 87.8928C21.0568 87.8928 19.9447 87.1007 19.9447 86.1234C19.9447 85.1463 21.0568 84.354 22.4288 84.354C23.8009 84.354 24.9129 85.146 24.9129 86.1234C24.9132 87.1007 23.8009 87.8928 22.4288 87.8928Z" fill="url(#paint46_linear_343_6757)"/>
<path d="M52.0919 73.8303C48.8596 73.8303 46.2393 75.6965 46.2393 77.9989C46.2393 80.3012 48.8596 82.1674 52.0919 82.1674C55.3243 82.1674 57.9446 80.3012 57.9446 77.9989C57.9446 75.6965 55.324 73.8303 52.0919 73.8303ZM52.0919 79.768C50.7198 79.768 49.6078 78.9759 49.6078 77.9986C49.6078 77.0215 50.7198 76.2291 52.0919 76.2291C53.464 76.2291 54.576 77.0212 54.576 77.9986C54.576 78.9759 53.4637 79.768 52.0919 79.768Z" fill="url(#paint47_linear_343_6757)"/>
<path d="M89.8673 52.8547C86.6349 52.8547 84.0146 54.7209 84.0146 57.0233C84.0146 59.3256 86.6349 61.1918 89.8673 61.1918C93.0997 61.1918 95.7199 59.3256 95.7199 57.0233C95.7199 54.7209 93.0997 52.8547 89.8673 52.8547ZM89.8673 58.7927C88.4952 58.7927 87.3832 58.0006 87.3832 57.0233C87.3832 56.0459 88.4952 55.2539 89.8673 55.2539C91.2394 55.2539 92.3514 56.0459 92.3514 57.0233C92.3514 58.0006 91.2394 58.7927 89.8673 58.7927Z" fill="url(#paint48_linear_343_6757)"/>
<path d="M10.8507 114.34C7.61834 114.34 4.99805 116.207 4.99805 118.509C4.99805 120.811 7.61834 122.677 10.8507 122.677C14.083 122.677 16.7033 120.811 16.7033 118.509C16.7033 116.207 14.083 114.34 10.8507 114.34ZM10.8507 120.278C9.47864 120.278 8.36658 119.486 8.36658 118.509C8.36658 117.532 9.47864 116.739 10.8507 116.739C12.2228 116.739 13.3348 117.531 13.3348 118.509C13.3348 119.486 12.2228 120.278 10.8507 120.278Z" fill="url(#paint49_linear_343_6757)"/>
<path d="M42.8458 72.8391C49.9274 72.8391 55.6681 68.7942 55.6681 63.8047C55.6681 58.8151 49.9274 54.7703 42.8458 54.7703C35.7642 54.7703 30.0234 58.8151 30.0234 63.8047C30.0234 68.7942 35.7642 72.8391 42.8458 72.8391Z" fill="url(#paint50_linear_343_6757)"/>
<path d="M41.4851 60.3937C42.6164 60.3937 43.5336 59.4765 43.5336 58.3452C43.5336 57.2138 42.6164 56.2966 41.4851 56.2966C40.3537 56.2966 39.4365 57.2138 39.4365 58.3452C39.4365 59.4765 40.3537 60.3937 41.4851 60.3937Z" fill="url(#paint51_linear_343_6757)"/>
<path d="M37.6808 65.2601C38.5741 65.2601 39.2982 64.536 39.2982 63.6427C39.2982 62.7495 38.5741 62.0254 37.6808 62.0254C36.7876 62.0254 36.0635 62.7495 36.0635 63.6427C36.0635 64.536 36.7876 65.2601 37.6808 65.2601Z" fill="url(#paint52_linear_343_6757)"/>
<path d="M44.7299 65.9749C45.2684 65.9749 45.7049 65.5384 45.7049 64.9999C45.7049 64.4614 45.2684 64.0249 44.7299 64.0249C44.1914 64.0249 43.7549 64.4614 43.7549 64.9999C43.7549 65.5384 44.1914 65.9749 44.7299 65.9749Z" fill="url(#paint53_linear_343_6757)"/>
<path d="M88.4054 40.5649C85.9742 39.6263 82.8739 40.3219 81.4804 42.1184C81.2063 42.4719 81.3277 42.8872 81.7095 43.3128C82.1315 43.7834 81.9801 44.4043 81.4007 44.7831L81.3027 44.8469C80.5542 45.3363 80.7257 46.2004 81.6365 46.5269L85.2615 47.826C86.1724 48.1525 87.2674 47.7425 87.3907 47.029C87.4857 46.479 88.1257 46.0531 88.9121 46.021C89.5413 45.9954 90.0333 45.8413 90.2842 45.5178C91.6777 43.7207 90.8365 41.5034 88.4054 40.5649Z" fill="url(#paint54_linear_343_6757)"/>
<path d="M63.2227 30.6835C74.2233 34.8656 84.6265 41.0735 97.953 50.8621C111.279 60.6506 121.532 75.3059 129.139 84.7915C133.225 89.8868 144.475 88.9606 148.19 83.1553C150.671 79.2785 150.679 71.4462 148.151 67.8606C140.691 57.2812 128.13 44.8529 112.614 33.4562C97.098 22.0594 81.7489 13.9871 69.8492 10.3468C65.8162 9.11294 61.3936 10.9232 58.9127 14.8C55.1977 20.6056 57.3136 28.4371 63.2227 30.6835Z" fill="url(#paint55_linear_343_6757)"/>
</g>
<defs>
<linearGradient id="paint0_linear_343_6757" x1="65.7413" y1="87.905" x2="73.656" y2="105.256" gradientUnits="userSpaceOnUse">
<stop stop-color="#FAA68E"/>
<stop offset="0.2061" stop-color="#FBA682"/>
<stop offset="0.5808" stop-color="#FDA861"/>
<stop offset="1" stop-color="#FFA936"/>
</linearGradient>
<linearGradient id="paint1_linear_343_6757" x1="74.0205" y1="106.407" x2="67.3399" y2="87.0842" gradientUnits="userSpaceOnUse">
<stop stop-color="#F82814" stop-opacity="0"/>
<stop offset="0.2454" stop-color="#F12817" stop-opacity="0.245"/>
<stop offset="0.6052" stop-color="#DD2820" stop-opacity="0.605"/>
<stop offset="1" stop-color="#C0272D"/>
</linearGradient>
<linearGradient id="paint2_linear_343_6757" x1="42.7151" y1="65.0515" x2="77.9631" y2="107.265" gradientUnits="userSpaceOnUse">
<stop stop-color="#FFD945"/>
<stop offset="0.3043" stop-color="#FFCD3E"/>
<stop offset="0.8558" stop-color="#FFAD2B"/>
<stop offset="1" stop-color="#FFA325"/>
</linearGradient>
<linearGradient id="paint3_linear_343_6757" x1="91.5139" y1="62.7385" x2="104.02" y2="45.0088" gradientUnits="userSpaceOnUse">
<stop stop-color="#F82814" stop-opacity="0"/>
<stop offset="1" stop-color="#C0272D"/>
</linearGradient>
<linearGradient id="paint4_linear_343_6757" x1="85.7103" y1="69.7311" x2="29.3556" y2="-17.4393" gradientUnits="userSpaceOnUse">
<stop stop-color="#F82814" stop-opacity="0"/>
<stop offset="1" stop-color="#C0272D"/>
</linearGradient>
<linearGradient id="paint5_linear_343_6757" x1="56.8693" y1="76.0706" x2="33.1246" y2="31.5885" gradientUnits="userSpaceOnUse">
<stop stop-color="#F82814" stop-opacity="0"/>
<stop offset="1" stop-color="#C0272D"/>
</linearGradient>
<linearGradient id="paint6_linear_343_6757" x1="94.5987" y1="88.5638" x2="70.9592" y2="44.0288" gradientUnits="userSpaceOnUse">
<stop stop-color="#F82814" stop-opacity="0"/>
<stop offset="1" stop-color="#C0272D"/>
</linearGradient>
<linearGradient id="paint7_linear_343_6757" x1="42.3161" y1="112.912" x2="23.3202" y2="80.6189" gradientUnits="userSpaceOnUse">
<stop stop-color="#F82814" stop-opacity="0"/>
<stop offset="1" stop-color="#C0272D"/>
</linearGradient>
<linearGradient id="paint8_linear_343_6757" x1="62.5901" y1="56.9013" x2="65.4804" y2="63.9048" gradientUnits="userSpaceOnUse">
<stop stop-color="#BADA00"/>
<stop offset="0.2269" stop-color="#B0CE00"/>
<stop offset="0.6378" stop-color="#95AE00"/>
<stop offset="1" stop-color="#798C00"/>
</linearGradient>
<linearGradient id="paint9_linear_343_6757" x1="63.9466" y1="59.3576" x2="61.1897" y2="55.0554" gradientUnits="userSpaceOnUse">
<stop stop-color="#798C00" stop-opacity="0"/>
<stop offset="0.6542" stop-color="#556100" stop-opacity="0.654"/>
<stop offset="1" stop-color="#464F00"/>
</linearGradient>
<linearGradient id="paint10_linear_343_6757" x1="61.7554" y1="61.8581" x2="59.5788" y2="58.4617" gradientUnits="userSpaceOnUse">
<stop stop-color="#798C00" stop-opacity="0"/>
<stop offset="0.6542" stop-color="#556100" stop-opacity="0.654"/>
<stop offset="1" stop-color="#464F00"/>
</linearGradient>
<linearGradient id="paint11_linear_343_6757" x1="65.1918" y1="62.139" x2="63.8799" y2="60.0914" gradientUnits="userSpaceOnUse">
<stop stop-color="#798C00" stop-opacity="0"/>
<stop offset="0.6542" stop-color="#556100" stop-opacity="0.654"/>
<stop offset="1" stop-color="#464F00"/>
</linearGradient>
<linearGradient id="paint12_linear_343_6757" x1="34.6223" y1="81.1271" x2="37.5126" y2="88.1306" gradientUnits="userSpaceOnUse">
<stop stop-color="#BADA00"/>
<stop offset="0.2269" stop-color="#B0CE00"/>
<stop offset="0.6378" stop-color="#95AE00"/>
<stop offset="1" stop-color="#798C00"/>
</linearGradient>
<linearGradient id="paint13_linear_343_6757" x1="35.967" y1="83.599" x2="33.2102" y2="79.2968" gradientUnits="userSpaceOnUse">
<stop stop-color="#798C00" stop-opacity="0"/>
<stop offset="0.6542" stop-color="#556100" stop-opacity="0.654"/>
<stop offset="1" stop-color="#464F00"/>
</linearGradient>
<linearGradient id="paint14_linear_343_6757" x1="33.7759" y1="86.0995" x2="31.5996" y2="82.7031" gradientUnits="userSpaceOnUse">
<stop stop-color="#798C00" stop-opacity="0"/>
<stop offset="0.6542" stop-color="#556100" stop-opacity="0.654"/>
<stop offset="1" stop-color="#464F00"/>
</linearGradient>
<linearGradient id="paint15_linear_343_6757" x1="37.2133" y1="86.3804" x2="35.9011" y2="84.3327" gradientUnits="userSpaceOnUse">
<stop stop-color="#798C00" stop-opacity="0"/>
<stop offset="0.6542" stop-color="#556100" stop-opacity="0.654"/>
<stop offset="1" stop-color="#464F00"/>
</linearGradient>
<linearGradient id="paint16_linear_343_6757" x1="69.4387" y1="88.0932" x2="72.329" y2="95.0967" gradientUnits="userSpaceOnUse">
<stop stop-color="#BADA00"/>
<stop offset="0.2269" stop-color="#B0CE00"/>
<stop offset="0.6378" stop-color="#95AE00"/>
<stop offset="1" stop-color="#798C00"/>
</linearGradient>
<linearGradient id="paint17_linear_343_6757" x1="70.8021" y1="90.5649" x2="68.0452" y2="86.2627" gradientUnits="userSpaceOnUse">
<stop stop-color="#798C00" stop-opacity="0"/>
<stop offset="0.6542" stop-color="#556100" stop-opacity="0.654"/>
<stop offset="1" stop-color="#464F00"/>
</linearGradient>
<linearGradient id="paint18_linear_343_6757" x1="68.6109" y1="93.0651" x2="66.4346" y2="89.669" gradientUnits="userSpaceOnUse">
<stop stop-color="#798C00" stop-opacity="0"/>
<stop offset="0.6542" stop-color="#556100" stop-opacity="0.654"/>
<stop offset="1" stop-color="#464F00"/>
</linearGradient>
<linearGradient id="paint19_linear_343_6757" x1="72.0476" y1="93.3463" x2="70.7355" y2="91.2986" gradientUnits="userSpaceOnUse">
<stop stop-color="#798C00" stop-opacity="0"/>
<stop offset="0.6542" stop-color="#556100" stop-opacity="0.654"/>
<stop offset="1" stop-color="#464F00"/>
</linearGradient>
<linearGradient id="paint20_linear_343_6757" x1="119.242" y1="72.3422" x2="122.133" y2="79.3455" gradientUnits="userSpaceOnUse">
<stop stop-color="#BADA00"/>
<stop offset="0.2269" stop-color="#B0CE00"/>
<stop offset="0.6378" stop-color="#95AE00"/>
<stop offset="1" stop-color="#798C00"/>
</linearGradient>
<linearGradient id="paint21_linear_343_6757" x1="120.63" y1="74.8003" x2="117.873" y2="70.498" gradientUnits="userSpaceOnUse">
<stop stop-color="#798C00" stop-opacity="0"/>
<stop offset="0.6542" stop-color="#556100" stop-opacity="0.654"/>
<stop offset="1" stop-color="#464F00"/>
</linearGradient>
<linearGradient id="paint22_linear_343_6757" x1="118.438" y1="77.3008" x2="116.262" y2="73.9043" gradientUnits="userSpaceOnUse">
<stop stop-color="#798C00" stop-opacity="0"/>
<stop offset="0.6542" stop-color="#556100" stop-opacity="0.654"/>
<stop offset="1" stop-color="#464F00"/>
</linearGradient>
<linearGradient id="paint23_linear_343_6757" x1="121.875" y1="77.5817" x2="120.563" y2="75.534" gradientUnits="userSpaceOnUse">
<stop stop-color="#798C00" stop-opacity="0"/>
<stop offset="0.6542" stop-color="#556100" stop-opacity="0.654"/>
<stop offset="1" stop-color="#464F00"/>
</linearGradient>
<linearGradient id="paint24_linear_343_6757" x1="62.9524" y1="28.6044" x2="65.8427" y2="35.6079" gradientUnits="userSpaceOnUse">
<stop stop-color="#BADA00"/>
<stop offset="0.2269" stop-color="#B0CE00"/>
<stop offset="0.6378" stop-color="#95AE00"/>
<stop offset="1" stop-color="#798C00"/>
</linearGradient>
<linearGradient id="paint25_linear_343_6757" x1="64.3057" y1="31.0461" x2="61.5489" y2="26.7439" gradientUnits="userSpaceOnUse">
<stop stop-color="#798C00" stop-opacity="0"/>
<stop offset="0.6542" stop-color="#556100" stop-opacity="0.654"/>
<stop offset="1" stop-color="#464F00"/>
</linearGradient>
<linearGradient id="paint26_linear_343_6757" x1="62.1149" y1="33.5466" x2="59.9382" y2="30.1502" gradientUnits="userSpaceOnUse">
<stop stop-color="#798C00" stop-opacity="0"/>
<stop offset="0.6542" stop-color="#556100" stop-opacity="0.654"/>
<stop offset="1" stop-color="#464F00"/>
</linearGradient>
<linearGradient id="paint27_linear_343_6757" x1="65.5516" y1="33.8276" x2="64.2394" y2="31.7801" gradientUnits="userSpaceOnUse">
<stop stop-color="#798C00" stop-opacity="0"/>
<stop offset="0.6542" stop-color="#556100" stop-opacity="0.654"/>
<stop offset="1" stop-color="#464F00"/>
</linearGradient>
<linearGradient id="paint28_linear_343_6757" x1="66.6782" y1="35.115" x2="61.4918" y2="50.2506" gradientUnits="userSpaceOnUse">
<stop stop-color="#FFDECF"/>
<stop offset="0.3791" stop-color="#FDC4B0"/>
<stop offset="0.7655" stop-color="#FBAE97"/>
<stop offset="1" stop-color="#FAA68E"/>
</linearGradient>
<linearGradient id="paint29_linear_343_6757" x1="59.8427" y1="54.3639" x2="64.0283" y2="42.1488" gradientUnits="userSpaceOnUse">
<stop stop-color="#FFDECF"/>
<stop offset="0.3791" stop-color="#FDC4B0"/>
<stop offset="0.7655" stop-color="#FBAE97"/>
<stop offset="1" stop-color="#FAA68E"/>
</linearGradient>
<linearGradient id="paint30_linear_343_6757" x1="11.0942" y1="107.95" x2="15.843" y2="115.707" gradientUnits="userSpaceOnUse">
<stop stop-color="#A57C52"/>
<stop offset="0.1339" stop-color="#A26C4A"/>
<stop offset="0.5155" stop-color="#994336"/>
<stop offset="0.8174" stop-color="#942A2A"/>
<stop offset="1" stop-color="#922125"/>
</linearGradient>
<linearGradient id="paint31_linear_343_6757" x1="27.0157" y1="92.2742" x2="22.5889" y2="105.193" gradientUnits="userSpaceOnUse">
<stop stop-color="#FFDECF"/>
<stop offset="0.3791" stop-color="#FDC4B0"/>
<stop offset="0.7655" stop-color="#FBAE97"/>
<stop offset="1" stop-color="#FAA68E"/>
</linearGradient>
<linearGradient id="paint32_linear_343_6757" x1="21.1983" y1="108.702" x2="24.7709" y2="98.2758" gradientUnits="userSpaceOnUse">
<stop stop-color="#FFDECF"/>
<stop offset="0.3791" stop-color="#FDC4B0"/>
<stop offset="0.7655" stop-color="#FBAE97"/>
<stop offset="1" stop-color="#FAA68E"/>
</linearGradient>
<linearGradient id="paint33_linear_343_6757" x1="95.8781" y1="80.5172" x2="102.169" y2="90.9651" gradientUnits="userSpaceOnUse">
<stop stop-color="#A57C52"/>
<stop offset="0.1339" stop-color="#A26C4A"/>
<stop offset="0.5155" stop-color="#994336"/>
<stop offset="0.8174" stop-color="#942A2A"/>
<stop offset="1" stop-color="#922125"/>
</linearGradient>
<linearGradient id="paint34_linear_343_6757" x1="92.8412" y1="64.6812" x2="98.3291" y2="77.9786" gradientUnits="userSpaceOnUse">
<stop stop-color="#FF6359"/>
<stop offset="0.2243" stop-color="#FE5B50"/>
<stop offset="0.5952" stop-color="#FC4637"/>
<stop offset="1" stop-color="#F82814"/>
</linearGradient>
<linearGradient id="paint35_linear_343_6757" x1="95.6623" y1="68.9369" x2="90.4276" y2="60.7683" gradientUnits="userSpaceOnUse">
<stop stop-color="#F82814" stop-opacity="0"/>
<stop offset="0.2454" stop-color="#F12817" stop-opacity="0.245"/>
<stop offset="0.6052" stop-color="#DD2820" stop-opacity="0.605"/>
<stop offset="1" stop-color="#C0272D"/>
</linearGradient>
<linearGradient id="paint36_linear_343_6757" x1="91.5021" y1="73.6843" x2="87.3698" y2="67.2357" gradientUnits="userSpaceOnUse">
<stop stop-color="#F82814" stop-opacity="0"/>
<stop offset="0.2454" stop-color="#F12817" stop-opacity="0.245"/>
<stop offset="0.6052" stop-color="#DD2820" stop-opacity="0.605"/>
<stop offset="1" stop-color="#C0272D"/>
</linearGradient>
<linearGradient id="paint37_linear_343_6757" x1="98.0271" y1="74.2179" x2="95.5359" y2="70.3302" gradientUnits="userSpaceOnUse">
<stop stop-color="#F82814" stop-opacity="0"/>
<stop offset="0.2454" stop-color="#F12817" stop-opacity="0.245"/>
<stop offset="0.6052" stop-color="#DD2820" stop-opacity="0.605"/>
<stop offset="1" stop-color="#C0272D"/>
</linearGradient>
<linearGradient id="paint38_linear_343_6757" x1="38.7477" y1="88.5259" x2="44.2353" y2="101.823" gradientUnits="userSpaceOnUse">
<stop stop-color="#FF6359"/>
<stop offset="0.2243" stop-color="#FE5B50"/>
<stop offset="0.5952" stop-color="#FC4637"/>
<stop offset="1" stop-color="#F82814"/>
</linearGradient>
<linearGradient id="paint39_linear_343_6757" x1="41.5435" y1="92.7996" x2="36.3091" y2="84.6311" gradientUnits="userSpaceOnUse">
<stop stop-color="#F82814" stop-opacity="0"/>
<stop offset="0.2454" stop-color="#F12817" stop-opacity="0.245"/>
<stop offset="0.6052" stop-color="#DD2820" stop-opacity="0.605"/>
<stop offset="1" stop-color="#C0272D"/>
</linearGradient>
<linearGradient id="paint40_linear_343_6757" x1="37.3839" y1="97.5474" x2="33.2517" y2="91.0988" gradientUnits="userSpaceOnUse">
<stop stop-color="#F82814" stop-opacity="0"/>
<stop offset="0.2454" stop-color="#F12817" stop-opacity="0.245"/>
<stop offset="0.6052" stop-color="#DD2820" stop-opacity="0.605"/>
<stop offset="1" stop-color="#C0272D"/>
</linearGradient>
<linearGradient id="paint41_linear_343_6757" x1="43.9093" y1="98.0807" x2="41.4178" y2="94.193" gradientUnits="userSpaceOnUse">
<stop stop-color="#F82814" stop-opacity="0"/>
<stop offset="0.2454" stop-color="#F12817" stop-opacity="0.245"/>
<stop offset="0.6052" stop-color="#DD2820" stop-opacity="0.605"/>
<stop offset="1" stop-color="#C0272D"/>
</linearGradient>
<linearGradient id="paint42_linear_343_6757" x1="64.706" y1="69.0064" x2="70.9974" y2="79.4544" gradientUnits="userSpaceOnUse">
<stop stop-color="#A57C52"/>
<stop offset="0.1339" stop-color="#A26C4A"/>
<stop offset="0.5155" stop-color="#994336"/>
<stop offset="0.8174" stop-color="#942A2A"/>
<stop offset="1" stop-color="#922125"/>
</linearGradient>
<linearGradient id="paint43_linear_343_6757" x1="76.0068" y1="98.5206" x2="63.4482" y2="74.7756" gradientUnits="userSpaceOnUse">
<stop stop-color="#798C00" stop-opacity="0"/>
<stop offset="0.6542" stop-color="#556100" stop-opacity="0.654"/>
<stop offset="1" stop-color="#464F00"/>
</linearGradient>
<linearGradient id="paint44_linear_343_6757" x1="77.9133" y1="71.0597" x2="73.4864" y2="83.9789" gradientUnits="userSpaceOnUse">
<stop stop-color="#FFDECF"/>
<stop offset="0.3791" stop-color="#FDC4B0"/>
<stop offset="0.7655" stop-color="#FBAE97"/>
<stop offset="1" stop-color="#FAA68E"/>
</linearGradient>
<linearGradient id="paint45_linear_343_6757" x1="72.0958" y1="87.4875" x2="75.6684" y2="77.0616" gradientUnits="userSpaceOnUse">
<stop stop-color="#FFDECF"/>
<stop offset="0.3791" stop-color="#FDC4B0"/>
<stop offset="0.7655" stop-color="#FBAE97"/>
<stop offset="1" stop-color="#FAA68E"/>
</linearGradient>
<linearGradient id="paint46_linear_343_6757" x1="20.0532" y1="81.3722" x2="22.7635" y2="86.7928" gradientUnits="userSpaceOnUse">
<stop stop-color="#8A7889"/>
<stop offset="0.3344" stop-color="#867385"/>
<stop offset="0.7039" stop-color="#7B667B"/>
<stop offset="1" stop-color="#6E566E"/>
</linearGradient>
<linearGradient id="paint47_linear_343_6757" x1="49.7163" y1="73.2477" x2="52.4266" y2="78.6683" gradientUnits="userSpaceOnUse">
<stop stop-color="#8A7889"/>
<stop offset="0.3344" stop-color="#867385"/>
<stop offset="0.7039" stop-color="#7B667B"/>
<stop offset="1" stop-color="#6E566E"/>
</linearGradient>
<linearGradient id="paint48_linear_343_6757" x1="87.4917" y1="52.2721" x2="90.202" y2="57.6927" gradientUnits="userSpaceOnUse">
<stop stop-color="#8A7889"/>
<stop offset="0.3344" stop-color="#867385"/>
<stop offset="0.7039" stop-color="#7B667B"/>
<stop offset="1" stop-color="#6E566E"/>
</linearGradient>
<linearGradient id="paint49_linear_343_6757" x1="8.47511" y1="113.758" x2="11.1854" y2="119.178" gradientUnits="userSpaceOnUse">
<stop stop-color="#8A7889"/>
<stop offset="0.3344" stop-color="#867385"/>
<stop offset="0.7039" stop-color="#7B667B"/>
<stop offset="1" stop-color="#6E566E"/>
</linearGradient>
<linearGradient id="paint50_linear_343_6757" x1="40.109" y1="57.1729" x2="45.5967" y2="70.4703" gradientUnits="userSpaceOnUse">
<stop stop-color="#FF6359"/>
<stop offset="0.2243" stop-color="#FE5B50"/>
<stop offset="0.5952" stop-color="#FC4637"/>
<stop offset="1" stop-color="#F82814"/>
</linearGradient>
<linearGradient id="paint51_linear_343_6757" x1="42.902" y1="61.4307" x2="37.6676" y2="53.2619" gradientUnits="userSpaceOnUse">
<stop stop-color="#F82814" stop-opacity="0"/>
<stop offset="0.2454" stop-color="#F12817" stop-opacity="0.245"/>
<stop offset="0.6052" stop-color="#DD2820" stop-opacity="0.605"/>
<stop offset="1" stop-color="#C0272D"/>
</linearGradient>
<linearGradient id="paint52_linear_343_6757" x1="38.7418" y1="66.1782" x2="34.6095" y2="59.7295" gradientUnits="userSpaceOnUse">
<stop stop-color="#F82814" stop-opacity="0"/>
<stop offset="0.2454" stop-color="#F12817" stop-opacity="0.245"/>
<stop offset="0.6052" stop-color="#DD2820" stop-opacity="0.605"/>
<stop offset="1" stop-color="#C0272D"/>
</linearGradient>
<linearGradient id="paint53_linear_343_6757" x1="45.2668" y1="66.7117" x2="42.7757" y2="62.8237" gradientUnits="userSpaceOnUse">
<stop stop-color="#F82814" stop-opacity="0"/>
<stop offset="0.2454" stop-color="#F12817" stop-opacity="0.245"/>
<stop offset="0.6052" stop-color="#DD2820" stop-opacity="0.605"/>
<stop offset="1" stop-color="#C0272D"/>
</linearGradient>
<linearGradient id="paint54_linear_343_6757" x1="84.3095" y1="41.7366" x2="90.6007" y2="52.1846" gradientUnits="userSpaceOnUse">
<stop stop-color="#A57C52"/>
<stop offset="0.1339" stop-color="#A26C4A"/>
<stop offset="0.5155" stop-color="#994336"/>
<stop offset="0.8174" stop-color="#942A2A"/>
<stop offset="1" stop-color="#922125"/>
</linearGradient>
<linearGradient id="paint55_linear_343_6757" x1="109.696" y1="38.9326" x2="98.7206" y2="56.8732" gradientUnits="userSpaceOnUse">
<stop stop-color="#FAA68E"/>
<stop offset="0.2061" stop-color="#FBA682"/>
<stop offset="0.5808" stop-color="#FDA861"/>
<stop offset="1" stop-color="#FFA936"/>
</linearGradient>
<clipPath id="clip0_343_6757">
<rect width="150" height="150" fill="white" transform="translate(0.0488281)"/>
</clipPath>
</defs>
</svg>
