<svg width="151" height="151" viewBox="0 0 151 151" fill="none" xmlns="http://www.w3.org/2000/svg">
<g clip-path="url(#clip0_343_7808)">
<path d="M75.7701 133.89C63.3878 133.89 52.0239 132.056 43.123 129C44.4036 134.065 46.8095 137.895 49.776 139.121C56.4713 141.888 65.6469 143.595 75.7701 143.595C85.8933 143.595 95.0689 141.888 101.764 139.121C104.731 137.895 107.137 134.065 108.417 129C99.5163 132.056 88.1525 133.89 75.7701 133.89Z" fill="url(#paint0_linear_343_7808)"/>
<path d="M150.77 71.4555C150.77 50.6096 0.769531 50.6096 0.769531 71.4555C0.769531 92.3013 18.3951 137.464 75.7695 137.464C133.144 137.464 150.77 92.3013 150.77 71.4555Z" fill="url(#paint1_linear_343_7808)"/>
<path d="M150.77 71.4555C150.77 92.3013 0.769531 92.3013 0.769531 71.4555C0.769531 50.6096 150.77 50.6096 150.77 71.4555Z" fill="url(#paint2_linear_343_7808)"/>
<path d="M144.576 71.4555C144.576 86.8181 6.96289 86.8181 6.96289 71.4555C6.96289 56.0928 144.576 56.0928 144.576 71.4555Z" fill="url(#paint3_linear_343_7808)"/>
<path d="M9.72168 75.0042C16.9152 79.3412 37.2929 81.9089 60.0964 82.7068C62.3873 82.7871 64.7023 80.7904 67.0311 80.8351C69.1084 80.8748 71.1967 82.9589 73.2879 82.9704C102.714 83.1286 132.746 80.473 141.817 75.0045C124.186 64.3742 27.3532 64.3742 9.72168 75.0042Z" fill="url(#paint4_linear_343_7808)"/>
<path d="M2.08398 82.4621C2.69516 85.223 3.5331 88.1304 4.61957 91.108C25.5908 104.748 125.948 104.748 146.919 91.108C148.005 88.1304 148.843 85.223 149.455 82.4621C149.368 82.3595 149.283 82.2568 149.189 82.1556C134.218 98.2689 17.3208 98.2689 2.35016 82.1556C2.25604 82.2568 2.17016 82.3595 2.08398 82.4621Z" fill="url(#paint5_linear_343_7808)"/>
<path d="M6.96289 96.7681C7.86966 98.7204 8.88436 100.681 10.017 102.631C36.8667 112.781 114.672 112.781 141.521 102.631C142.654 100.681 143.669 98.7204 144.576 96.7681C120.244 108.659 31.2949 108.659 6.96289 96.7681Z" fill="url(#paint6_linear_343_7808)"/>
<path d="M123.914 79.9704C110.326 82.0675 91.713 83.0675 73.3327 82.9707C71.4325 82.9607 69.5345 80.8801 67.6448 80.8466C65.1157 80.8019 62.6013 82.7948 60.116 82.7081C48.0851 82.2878 36.7283 81.3754 27.626 79.9707C31.3554 72.3354 37.5201 65.7795 45.2907 61.0031C53.8613 55.7325 64.3907 52.6266 75.7701 52.6266C87.1495 52.6266 97.6789 55.7325 106.25 61.0031C114.02 65.7792 120.185 72.3351 123.914 79.9704Z" fill="url(#paint7_linear_343_7808)"/>
<path d="M116.339 80.9711C112.059 73.6825 105.755 67.406 98.0572 62.674C93.1419 59.6513 87.6569 57.259 81.7654 55.6349C71.2548 52.7375 60.0136 53.6099 50.1869 58.3322C48.4936 59.146 46.8592 60.0381 45.2907 61.0025C37.5201 65.779 31.3554 72.3349 27.626 79.9702C51.2224 83.6119 89.9666 83.9452 116.339 80.9711Z" fill="url(#paint8_linear_343_7808)"/>
<path d="M106.345 81.8995C102.075 74.8766 95.9201 68.8192 88.4424 64.2227C83.5651 61.2233 78.1266 58.8448 72.2869 57.2216C63.2101 54.6986 53.4548 56.013 45.4163 60.9257C45.3742 60.9513 45.3324 60.9769 45.2907 61.0027C37.5201 65.7792 31.3554 72.3351 27.626 79.9704C48.3872 83.1742 80.8748 83.8172 106.345 81.8995Z" fill="url(#paint9_linear_343_7808)"/>
<path d="M96.0483 82.5196C91.7913 75.6879 85.7398 69.7908 78.4225 65.2929C73.8907 62.5061 68.8742 60.2552 63.5016 58.6481C57.4072 56.8252 50.7989 57.6293 45.3742 60.9514C45.3463 60.9684 45.3183 60.9855 45.2907 61.0029C37.5201 65.7793 31.3554 72.3352 27.626 79.9705C36.7289 81.3752 48.086 82.2876 60.1175 82.7079C62.398 82.7876 64.703 81.3787 67.0213 81.4232C69.1348 81.4634 71.2592 82.9596 73.3869 82.9708C81.0269 83.0096 88.7069 82.8593 96.0483 82.5196Z" fill="url(#paint10_linear_343_7808)"/>
<path d="M85.151 82.8807C81.0389 77.1113 75.6036 72.1016 69.198 68.1642C64.2827 65.1416 58.7977 62.7492 52.9063 61.1251C52.6086 61.043 52.218 60.9836 51.7707 60.9418C47.6951 60.5607 43.6536 61.8539 40.4345 64.3821C34.9419 68.6963 30.5404 74.0039 27.626 79.9704C36.7245 81.3745 48.0751 82.2866 60.1004 82.7069C62.3074 82.7839 64.5374 81.0798 66.7801 81.1239C68.9692 81.1669 71.171 82.9589 73.3757 82.9701C77.3077 82.9904 81.2498 82.9607 85.151 82.8807Z" fill="url(#paint11_linear_343_7808)"/>
<path d="M75.1554 82.9758C71.4233 78.5381 66.866 74.6381 61.6698 71.444C56.7545 68.4213 51.2695 66.029 45.378 64.4049C45.3654 64.4013 45.3527 64.3978 45.3401 64.3946C42.9313 63.7328 40.3566 64.3713 38.4736 66.0125C33.8907 70.0069 30.1839 74.7331 27.626 79.9702C40.4627 81.9513 57.783 82.9528 75.1554 82.9758Z" fill="url(#paint12_linear_343_7808)"/>
<path d="M38.9084 61.5527C30.9202 64.1792 24.3496 69.9351 20.8084 77.6116C20.6525 77.9498 20.4996 78.291 20.3525 78.6322C22.377 79.0766 24.5931 79.4877 26.9667 79.8663C27.6484 77.7039 28.4667 75.586 29.422 73.5145C31.3249 69.388 34.0572 65.791 37.3955 62.888C37.9552 62.401 38.532 61.9339 39.1246 61.4866C39.0531 61.5092 38.9799 61.5292 38.9084 61.5527Z" fill="url(#paint13_linear_343_7808)"/>
<path d="M53.3082 54.1822C47.0993 55.141 41.4435 57.8057 36.9052 61.7557C33.567 64.6586 30.8346 68.2557 28.9317 72.3822C27.8287 74.7733 26.9082 77.2263 26.1699 79.7381C26.7111 79.8263 27.2582 79.9145 27.817 79.9998C29.6405 80.2792 31.5523 80.538 33.5405 80.7792C33.6999 80.2819 33.869 79.788 34.0449 79.296C34.8979 76.1325 36.0385 73.051 37.4729 70.0678C38.8287 67.2442 40.5846 64.6648 42.667 62.3795C45.9261 58.8013 49.984 55.9469 54.5535 54.016C54.1385 54.0642 53.7235 54.1181 53.3082 54.1822Z" fill="url(#paint14_linear_343_7808)"/>
<path d="M62.0174 50.9398C54.0351 52.1768 46.9204 55.9777 41.7851 61.5445C39.7027 63.8006 37.9468 66.3474 36.5909 69.135C34.788 72.8374 33.4409 76.6906 32.5586 80.6689C32.8821 80.7095 33.2115 80.7474 33.5409 80.788C35.5909 81.0318 37.7204 81.2556 39.9204 81.4559C40.6821 78.2965 41.7851 75.2301 43.2204 72.2801C44.0386 70.6 48.9045 63.2568 49.8289 62.115C54.4674 56.3668 60.8454 52.3142 68.0086 50.5062C66.0239 50.4895 64.0207 50.6298 62.0174 50.9398Z" fill="url(#paint15_linear_343_7808)"/>
<path d="M72.314 49.0528C63.0846 49.3616 54.614 53.6616 48.967 60.7498C48.1229 61.8057 47.3434 62.9263 46.6317 64.1057C43.4111 69.441 41.164 75.2616 39.9229 81.4557C42.3581 81.6851 44.8787 81.8851 47.4611 82.0616C47.9973 79.621 48.7164 77.2519 49.6134 74.9622C50.1667 73.3613 50.7899 71.7831 51.4905 70.2322C53.2081 66.4381 55.5964 63.0822 58.4934 60.2881C63.214 55.7381 69.2905 52.6792 76.0111 51.6498C79.3734 51.1331 82.7346 51.1507 85.9925 51.6578C81.7567 49.8101 77.1002 48.891 72.314 49.0528Z" fill="url(#paint16_linear_343_7808)"/>
<path d="M75.4232 50.8957C68.7026 51.9504 62.6261 55.0839 57.9055 59.7454C55.0085 62.608 52.6202 66.046 50.9026 69.933C49.1908 73.8139 47.9173 77.8548 47.0908 82.0251C47.2143 82.0342 47.3379 82.043 47.4614 82.0522C49.6235 82.2051 51.8335 82.3357 54.0767 82.451C54.8541 79.631 55.8655 76.878 57.1058 74.2013C57.2664 73.8113 57.432 73.423 57.6026 73.0366C59.4026 68.9539 62.1676 65.5139 65.577 62.9628C66.6361 62.0569 67.7526 61.213 68.9232 60.4404C73.0614 57.7154 77.8526 55.8525 83.0085 55.0654C88.1823 54.2763 93.3576 54.6095 98.2014 55.9536C91.5632 51.488 83.4952 49.6248 75.4232 50.8957Z" fill="url(#paint17_linear_343_7808)"/>
<path d="M114.114 65.1145C112.817 63.7175 111.414 62.444 109.929 61.3028C102.414 55.5087 92.7085 52.9969 83.0085 54.5057C77.8526 55.3087 73.0615 57.2087 68.9232 59.9881C63.9938 63.3057 59.9938 67.8734 57.4262 73.3234C56.035 76.2763 54.9174 79.3234 54.0732 82.4498C54.2203 82.4586 54.3674 82.4675 54.5144 82.4734C56.1415 82.5531 57.7921 82.6192 59.4512 82.6789C64.7582 68.8645 77.4906 59.1322 92.3568 59.1322C101 59.1322 108.922 62.4228 115.083 67.8916C115.158 66.906 114.84 65.8945 114.114 65.1145Z" fill="url(#paint18_linear_343_7808)"/>
<path d="M55.6329 56.6963C56.0429 55.576 55.467 54.3351 54.3467 53.9251C53.2264 53.5151 51.9855 54.091 51.5755 55.2113C51.1655 56.3316 51.7414 57.5722 52.8617 57.9825C53.9823 58.3925 55.2229 57.8166 55.6329 56.6963Z" fill="url(#paint19_linear_343_7808)"/>
<path d="M48.7256 58.5273C47.8412 58.2037 46.8618 58.6581 46.538 59.5428C46.2142 60.4273 46.6689 61.4067 47.5536 61.7305C48.4383 62.0543 49.4174 61.5996 49.7412 60.7149C50.0648 59.8305 49.6101 58.8511 48.7256 58.5273Z" fill="url(#paint20_linear_343_7808)"/>
<path d="M55.1865 62.6983C54.6532 62.5033 54.0627 62.7774 53.8677 63.3107C53.6724 63.8439 53.9465 64.4345 54.4797 64.6295C55.013 64.8245 55.6035 64.5507 55.7985 64.0174C55.9938 63.4839 55.7197 62.8936 55.1865 62.6983Z" fill="url(#paint21_linear_343_7808)"/>
<path d="M64.629 59.2513C63.4431 59.3808 62.5866 60.4472 62.7161 61.6334C62.8455 62.8193 63.9119 63.6758 65.0981 63.5463C66.284 63.4169 67.1405 62.3505 67.0111 61.1643C66.8816 59.9781 65.8152 59.1219 64.629 59.2513Z" fill="url(#paint22_linear_343_7808)"/>
<path d="M67.7246 53.5377C66.7884 53.6401 66.1122 54.4818 66.2143 55.4183C66.3166 56.3545 67.1584 57.0306 68.0949 56.9286C69.0311 56.8262 69.7072 55.9845 69.6052 55.048C69.5028 54.1115 68.6608 53.4354 67.7246 53.5377Z" fill="url(#paint23_linear_343_7808)"/>
<path d="M60.2302 54.0119C59.6658 54.0737 59.2581 54.581 59.3196 55.1457C59.3814 55.7102 59.8887 56.1178 60.4534 56.0563C61.0178 55.9946 61.4255 55.4872 61.364 54.9225C61.3025 54.3578 60.7946 53.9502 60.2302 54.0119Z" fill="url(#paint24_linear_343_7808)"/>
<path d="M58.0789 63.2496C57.2542 63.5607 56.8378 64.4819 57.1492 65.3066C57.4604 66.1313 58.3816 66.5478 59.2063 66.2363C60.031 65.9252 60.4475 65.004 60.136 64.1793C59.8245 63.3546 58.9036 62.9381 58.0789 63.2496Z" fill="url(#paint25_linear_343_7808)"/>
<path d="M59.2413 58.5904C58.5902 58.8362 58.2616 59.5633 58.5072 60.2145C58.7531 60.8656 59.4802 61.1942 60.1313 60.9486C60.7825 60.7027 61.111 59.9756 60.8655 59.3245C60.6196 58.6733 59.8925 58.3445 59.2413 58.5904Z" fill="url(#paint26_linear_343_7808)"/>
<path d="M54.5018 61.7328C54.8944 61.5845 55.0924 61.1463 54.9444 60.7537C54.7962 60.361 54.358 60.1631 53.9653 60.311C53.5727 60.4593 53.3747 60.8975 53.5227 61.2901C53.6709 61.6828 54.1094 61.881 54.5018 61.7328Z" fill="url(#paint27_linear_343_7808)"/>
<path d="M79.3584 56.001C79.7684 54.8807 79.1926 53.6398 78.0723 53.2298C76.952 52.8198 75.7111 53.3957 75.3011 54.516C74.8911 55.6363 75.467 56.8772 76.5873 57.2872C77.7076 57.6975 78.9482 57.1216 79.3584 56.001Z" fill="url(#paint28_linear_343_7808)"/>
<path d="M72.4512 57.8318C71.5668 57.5083 70.5874 57.9627 70.2636 58.8474C69.9398 59.7321 70.3945 60.7112 71.2789 61.0351C72.1633 61.3589 73.1427 60.9042 73.4665 60.0195C73.7903 59.1351 73.3356 58.1556 72.4512 57.8318Z" fill="url(#paint29_linear_343_7808)"/>
<path d="M78.9121 62.0034C78.3788 61.8081 77.7883 62.0822 77.5933 62.6158C77.398 63.149 77.6721 63.7396 78.2053 63.9346C78.7385 64.1299 79.3291 63.8558 79.5241 63.3225C79.7194 62.789 79.4453 62.1984 78.9121 62.0034Z" fill="url(#paint30_linear_343_7808)"/>
<path d="M91.4112 57.2816C90.2253 57.411 89.3689 58.4775 89.4983 59.6637C89.6277 60.8496 90.6942 61.706 91.8803 61.5766C93.0662 61.4472 93.9227 60.3807 93.7933 59.1946C93.6639 58.0087 92.5974 57.1522 91.4112 57.2816Z" fill="url(#paint31_linear_343_7808)"/>
<path d="M90.781 54.4577C90.6786 53.5216 89.8369 52.8454 88.9004 52.9477C87.9639 53.0501 87.288 53.8919 87.3901 54.828C87.4924 55.7645 88.3342 56.4404 89.2707 56.3383C90.2071 56.236 90.8833 55.3939 90.781 54.4577Z" fill="url(#paint32_linear_343_7808)"/>
<path d="M83.9558 53.3166C83.3914 53.3783 82.9837 53.8857 83.0452 54.4504C83.107 55.0148 83.6143 55.4224 84.179 55.3607C84.7434 55.2989 85.1511 54.7913 85.0896 54.2268C85.0278 53.6627 84.5202 53.2551 83.9558 53.3166Z" fill="url(#paint33_linear_343_7808)"/>
<path d="M81.8055 62.5543C80.9808 62.8654 80.5643 63.7866 80.8758 64.6113C81.187 65.436 82.1081 65.8525 82.9329 65.541C83.7576 65.2299 84.174 64.3087 83.8626 63.484C83.5511 62.6593 82.6302 62.2431 81.8055 62.5543Z" fill="url(#paint34_linear_343_7808)"/>
<path d="M82.9669 57.8952C82.3158 58.141 81.9872 58.8681 82.2328 59.519C82.4787 60.1702 83.2057 60.4987 83.8569 60.2531C84.5081 60.0072 84.8366 59.2802 84.591 58.6293C84.3452 57.9781 83.6181 57.6496 82.9669 57.8952Z" fill="url(#paint35_linear_343_7808)"/>
<path d="M78.2274 61.0375C78.62 60.8892 78.818 60.451 78.67 60.0584C78.5218 59.6657 78.0836 59.4678 77.6909 59.6157C77.2983 59.7639 77.1003 60.2022 77.2483 60.5948C77.3965 60.9878 77.8347 61.1857 78.2274 61.0375Z" fill="url(#paint36_linear_343_7808)"/>
<path d="M72.6676 52.3278C73.3979 52.5951 74.2064 52.2196 74.4738 51.4896C74.7411 50.7593 74.3658 49.9507 73.6356 49.6834C72.9053 49.416 72.0967 49.7913 71.8294 50.5216C71.562 51.2522 71.9373 52.0607 72.6676 52.3278Z" fill="url(#paint37_linear_343_7808)"/>
<path d="M65.6188 52.3311C65.7459 51.9834 65.5673 51.5987 65.2197 51.4714C64.872 51.3443 64.4873 51.5228 64.3603 51.8705C64.2332 52.2181 64.4117 52.6028 64.7594 52.7302C65.1067 52.8572 65.4915 52.6787 65.6188 52.3311Z" fill="url(#paint38_linear_343_7808)"/>
<path d="M73.7902 55.2405C73.7499 54.8725 73.4193 54.6069 73.0514 54.6469C72.6834 54.6872 72.4178 55.0178 72.4581 55.3858C72.4984 55.7537 72.829 56.0193 73.197 55.9793C73.5646 55.939 73.8305 55.6084 73.7902 55.2405Z" fill="url(#paint39_linear_343_7808)"/>
<path d="M82.1086 51.8834C82.0683 51.5155 81.7377 51.2499 81.3697 51.2899C81.0018 51.3302 80.7362 51.6608 80.7765 52.0287C80.8168 52.3966 81.1477 52.6622 81.5153 52.6222C81.883 52.5819 82.1486 52.2513 82.1086 51.8834Z" fill="url(#paint40_linear_343_7808)"/>
<path d="M65.2592 54.2163C65.0563 53.6787 64.456 53.4075 63.9183 53.6104C63.3807 53.8134 63.1095 54.4137 63.3125 54.951C63.5154 55.4887 64.1157 55.7598 64.653 55.5569C65.1907 55.3543 65.4622 54.754 65.2592 54.2163Z" fill="url(#paint41_linear_343_7808)"/>
<path d="M70.1057 51.3026C69.9454 50.8782 69.4716 50.664 69.0472 50.824C68.6228 50.9843 68.4087 51.4582 68.5687 51.8826C68.729 52.307 69.2028 52.5211 69.6272 52.3608C70.0519 52.2008 70.266 51.727 70.1057 51.3026Z" fill="url(#paint42_linear_343_7808)"/>
<path d="M77.9689 51.3026C77.8086 50.8782 77.3348 50.664 76.9103 50.824C76.4859 50.9843 76.2718 51.4582 76.4321 51.8826C76.5924 52.307 77.0662 52.5211 77.4906 52.3608C77.9147 52.2008 78.1289 51.727 77.9689 51.3026Z" fill="url(#paint43_linear_343_7808)"/>
<path d="M70.3759 53.7022C70.4724 53.9581 70.7582 54.0872 71.0141 53.9907C71.27 53.8943 71.3991 53.6084 71.3027 53.3525C71.2062 53.0966 70.9203 52.9675 70.6644 53.064C70.4082 53.1607 70.2791 53.4466 70.3759 53.7022Z" fill="url(#paint44_linear_343_7808)"/>
<path d="M72.9036 72.7028C72.4169 72.0893 71.626 71.7266 70.7666 71.8525H70.7636C70.6519 71.8701 70.5401 71.876 70.4284 71.876C69.9757 71.876 69.5351 71.741 69.1613 71.494C69.0834 71.4119 68.6731 71.0007 68.5363 70.8928C68.0754 70.3148 67.4086 70.0231 66.7401 70.0231C66.046 70.0231 65.3519 70.3319 64.8931 70.9495C64.3872 71.629 63.5489 71.976 62.7136 71.8525H62.7107C61.1842 71.629 59.8754 72.9407 60.0989 74.4643V74.4672C60.1166 74.579 60.1225 74.6907 60.1225 74.8025C60.1225 75.5201 59.7842 76.2084 59.196 76.6466C58.5784 77.1084 58.2695 77.7995 58.2695 78.4907C58.2695 79.1613 58.5607 79.8301 59.1375 80.2887C59.1901 80.3557 59.4789 80.3701 59.601 80.4951C59.7286 80.626 59.6889 80.8669 59.7292 80.9051C60.0428 81.3725 60.1839 81.9442 60.0989 82.5172V82.5201C60.0901 82.584 60.0845 82.6448 60.0816 82.706C62.2395 82.7816 64.4192 81.3707 66.6113 81.4145C68.8501 81.4593 71.1019 82.9584 73.3572 82.9698C76.6134 82.9869 79.8772 82.9693 83.1186 82.9175L72.9036 72.7028Z" fill="url(#paint45_linear_343_7808)"/>
<path d="M75.2078 78.4911C75.2078 79.1852 74.8989 79.8793 74.2813 80.3382C73.6019 80.844 73.2548 81.6823 73.3784 82.5176V82.5205C73.4019 82.6735 73.4078 82.8235 73.3989 82.9705C71.1195 82.9617 68.8431 82.9323 66.5813 82.8882C65.3313 82.8617 64.0872 82.8323 62.8489 82.797C61.9225 82.7705 60.9989 82.7411 60.0813 82.7088C60.0842 82.647 60.0901 82.5852 60.0989 82.5205V82.5176C60.2225 81.6823 59.8754 80.844 59.196 80.3382C58.5784 79.8793 58.2695 79.1852 58.2695 78.4911C58.2695 77.7999 58.5784 77.1087 59.196 76.647C59.7842 76.2087 60.1225 75.5205 60.1225 74.8029C60.1225 74.6911 60.1166 74.5793 60.0989 74.4676V74.4646C59.8754 72.9411 61.1842 71.6293 62.7107 71.8529H62.7136C63.5489 71.9764 64.3872 71.6293 64.8931 70.9499C65.3519 70.3323 66.046 70.0234 66.7401 70.0234C67.4313 70.0234 68.1225 70.3323 68.5842 70.9499C69.0225 71.5381 69.7107 71.8764 70.4284 71.8764C70.5401 71.8764 70.6519 71.8705 70.7636 71.8529H70.7666C72.2901 71.6293 73.5989 72.9411 73.3784 74.4646V74.4676C73.2548 75.3029 73.6019 76.1411 74.2813 76.647C74.8989 77.1087 75.2078 77.7999 75.2078 78.4911Z" fill="url(#paint46_linear_343_7808)"/>
<path d="M71.7259 77.8293C71.5906 78.897 71.0465 79.844 70.1994 80.5029C69.3494 81.1587 68.2965 81.447 67.2318 81.3117C66.323 81.197 65.5171 80.7352 64.9583 80.0117C64.3965 79.2882 64.1524 78.3911 64.2671 77.4852C64.3406 76.9205 64.8553 76.5234 65.42 76.594C65.9818 76.6646 66.3818 77.1823 66.3112 77.744C66.2641 78.1058 66.3612 78.4617 66.5847 78.7499C66.8082 79.0381 67.1288 79.2234 67.4906 79.2676C68.0112 79.3352 68.523 79.194 68.9377 78.8734C69.3524 78.5529 69.6171 78.0911 69.6818 77.5705C69.87 76.0911 68.82 74.7323 67.3377 74.544C66.373 74.4205 65.4171 74.6823 64.6494 75.2764C63.8788 75.8734 63.3877 76.7323 63.2641 77.697C62.97 80.0352 64.4112 82.1999 66.5818 82.8882C65.3318 82.8617 64.0877 82.8323 62.8494 82.797C62.2406 82.097 61.7759 81.2734 61.4906 80.3823C61.1965 79.4617 61.0935 78.4617 61.223 77.4381C61.62 74.3176 64.4788 72.1028 67.5965 72.4999C70.2053 72.8323 72.0553 75.2234 71.7259 77.8293Z" fill="url(#paint47_linear_343_7808)"/>
<path d="M110.054 81.5975L87.7289 59.2728C87.3083 58.6116 86.368 58.1775 85.3262 58.2948L85.3242 58.2951C84.4871 58.3895 83.65 58.1222 83.1447 57.5993C82.2241 56.6466 80.3724 56.6466 79.4518 57.5993C78.9465 58.1222 78.1094 58.3893 77.2724 58.2951L77.2703 58.2948C75.7456 58.1231 74.4365 59.1319 74.6591 60.3069L74.6594 60.3084C74.7818 60.9534 74.435 61.5984 73.7565 61.9878C72.5706 62.6684 72.5256 64.0072 73.6147 64.7416L74.3203 65.4748C74.5841 65.749 74.7294 66.131 74.6609 66.5051C74.6603 66.5078 74.66 66.5104 74.6594 66.5131L74.6591 66.5146C74.5394 67.1451 74.8636 67.7257 75.4227 68.104L90.0712 82.7525C97.0383 82.531 103.799 82.146 110.054 81.5975Z" fill="url(#paint48_linear_343_7808)"/>
<path d="M88.8395 64.8334C88.1609 65.2228 87.8142 65.8678 87.9365 66.5128L87.9368 66.5143C88.1598 67.6893 86.8506 68.6981 85.3256 68.5263L85.3236 68.526C84.4865 68.4316 83.6495 68.699 83.1442 69.2219C82.2236 70.1746 80.3718 70.1746 79.4512 69.2219C78.9459 68.699 78.1089 68.4319 77.2718 68.526L77.2698 68.5263C75.7451 68.6981 74.4359 67.6893 74.6589 66.5143L74.6592 66.5128C74.7815 65.8678 74.4348 65.2228 73.7562 64.8334C72.5201 64.124 72.5201 62.6972 73.7562 61.9878C74.4348 61.5984 74.7815 60.9534 74.6592 60.3084L74.6589 60.3069C74.4359 59.1319 75.7451 58.1231 77.2701 58.2948L77.2721 58.2951C78.1092 58.3895 78.9462 58.1222 79.4515 57.5993C80.3721 56.6466 82.2239 56.6466 83.1445 57.5993C83.6498 58.1222 84.4868 58.3893 85.3239 58.2951L85.3259 58.2948C86.8506 58.1231 88.1598 59.1319 87.9368 60.3069L87.9365 60.3084C87.8142 60.9534 88.1609 61.5984 88.8395 61.9878C90.0756 62.6972 90.0756 64.124 88.8395 64.8334Z" fill="url(#paint49_linear_343_7808)"/>
<path d="M76.0498 64.8675C75.7548 64.156 75.6519 63.3857 75.7819 62.5972C76.1784 60.1943 79.0381 58.4875 82.1563 58.7931C84.7637 59.0487 86.6152 60.891 86.284 62.9002C86.1487 63.7207 85.6066 64.4516 84.7578 64.9581C83.909 65.4646 82.8551 65.6863 81.7899 65.5819C80.8834 65.4931 80.0757 65.1375 79.5163 64.5807C78.9566 64.024 78.7119 63.3325 78.8275 62.634C78.8993 62.1993 79.4146 61.8919 79.9784 61.9472C80.5425 62.0025 80.9413 62.3996 80.8696 62.8343C80.8237 63.1125 80.921 63.3875 81.144 63.6096C81.3666 63.8313 81.6884 63.9728 82.0496 64.0081C82.569 64.059 83.0831 63.951 83.4972 63.704C83.911 63.4569 84.1754 63.1004 84.2416 62.7002C84.4301 61.5587 83.3781 60.5116 81.8969 60.3669C80.9319 60.2722 79.9766 60.4731 79.2075 60.9322C78.4384 61.3913 77.9472 62.0537 77.8246 62.7975C77.4898 64.8249 79.3587 66.6843 81.9898 66.9419C82.5537 66.9972 82.9531 67.3937 82.8813 67.829C82.8096 68.2637 82.2943 68.571 81.7301 68.5157C78.9957 68.2481 76.8381 66.769 76.0498 64.8675Z" fill="url(#paint50_linear_343_7808)"/>
<path d="M70.8782 82.032C67.2502 81.9937 63.6411 82.8305 60.0908 82.7064C56.2929 82.5734 52.5623 82.3914 48.9488 82.1587L40.4076 73.6175C39.8488 73.2411 39.5252 72.6587 39.6458 72.0293V72.0264C39.6458 72.0264 39.6458 72.0234 39.6458 72.0205C39.7164 71.647 39.5693 71.2646 39.3046 70.9881L38.5988 70.2558C38.0782 69.9028 37.8164 69.4117 37.8164 68.9234C37.8164 68.3911 38.1252 67.8558 38.7429 67.5028C39.4193 67.1117 39.7664 66.4675 39.6458 65.8234V65.8205C39.5841 65.4911 39.6399 65.1734 39.7929 64.894C40.0193 64.4646 40.4605 64.1205 41.0105 63.9381C41.387 63.8087 41.8105 63.7587 42.2546 63.8087H42.2576C43.0958 63.9028 43.9311 63.6381 44.437 63.1146C44.8988 62.6381 45.5899 62.3999 46.2841 62.3999C46.9782 62.3999 47.6693 62.6381 48.1311 63.1146C48.5664 63.5675 49.2546 63.8264 49.9752 63.8264C50.087 63.8264 50.1988 63.8205 50.3105 63.8087C51.3546 63.6911 52.2929 64.1264 52.7135 64.7881L70.8782 82.032Z" fill="url(#paint51_linear_343_7808)"/>
<path d="M53.8258 70.348C53.1473 70.7374 52.8005 71.3824 52.9229 72.0274L52.9232 72.0289C53.1461 73.2039 51.837 74.2127 50.312 74.041L50.3099 74.0407C49.4729 73.9463 48.6358 74.2136 48.1305 74.7365C47.2099 75.6892 45.3582 75.6892 44.4376 74.7365C43.9323 74.2136 43.0952 73.9465 42.2582 74.0407L42.2561 74.041C40.7314 74.2127 39.4223 73.2039 39.6452 72.0289L39.6455 72.0274C39.7679 71.3824 39.4211 70.7374 38.7426 70.348C37.5064 69.6386 37.5064 68.2118 38.7426 67.5024C39.4211 67.113 39.7679 66.468 39.6455 65.823L39.6452 65.8215C39.4223 64.6465 40.7314 63.6377 42.2564 63.8095L42.2584 63.8098C43.0955 63.9042 43.9326 63.6368 44.4379 63.1139C45.3584 62.1613 47.2102 62.1613 48.1308 63.1139C48.6361 63.6368 49.4729 63.9039 50.3102 63.8098L50.3123 63.8095C51.837 63.6377 53.1461 64.6465 52.9232 65.8215L52.9229 65.823C52.8005 66.468 53.1473 67.113 53.8258 67.5024C55.062 68.2118 55.062 69.6386 53.8258 70.348Z" fill="url(#paint52_linear_343_7808)"/>
<path d="M41.0362 70.3822C40.7412 69.6707 40.6382 68.9004 40.7682 68.1119C41.1647 65.7089 44.0244 64.0022 47.1426 64.3077C49.75 64.5633 51.6015 66.4057 51.2703 68.4148C51.135 69.2354 50.5929 69.9663 49.7441 70.4727C48.8953 70.9792 47.8415 71.201 46.7762 71.0966C45.8697 71.0077 45.0621 70.6522 44.5026 70.0954C43.9429 69.5386 43.6982 68.8472 43.8138 68.1486C43.8856 67.7139 44.4009 67.4066 44.9647 67.4619C45.5288 67.5172 45.9276 67.9142 45.8559 68.3489C45.81 68.6272 45.9073 68.9022 46.1303 69.1242C46.3529 69.346 46.6747 69.4874 47.0359 69.5227C47.5553 69.5736 48.0694 69.4657 48.4835 69.2186C48.8973 68.9716 49.1618 68.6151 49.2279 68.2148C49.4165 67.0733 48.3644 66.0263 46.8832 65.8816C45.9182 65.7869 44.9629 65.9877 44.1938 66.4469C43.4247 66.906 42.9335 67.5683 42.8109 68.3122C42.4762 70.3395 44.345 72.1989 46.9762 72.4566C47.54 72.5119 47.9394 72.9083 47.8676 73.3436C47.7959 73.7783 47.2806 74.0857 46.7165 74.0304C43.9821 73.7627 41.8244 72.2836 41.0362 70.3822Z" fill="url(#paint53_linear_343_7808)"/>
<path d="M103.705 32.0378C103.352 31.144 104.323 30.3078 105.159 30.7831C108.111 32.4616 112.444 35.9157 112.444 41.7287C112.444 50.5437 101.826 51.3749 101.826 57.9043C101.826 61.2552 102.27 63.5693 102.702 65.0281C102.952 65.8719 102.088 66.6155 101.293 66.2393C98.6472 64.9878 94.5781 61.934 94.5781 54.9884C94.5781 44.6975 105.108 44.8504 105.108 39.224C105.108 36.2854 104.391 33.7704 103.705 32.0378Z" fill="url(#paint54_linear_343_7808)"/>
<path d="M77.4575 8.10042C77.2269 7.70689 77.844 7.34807 78.2575 7.63395C81.0622 9.57336 85.8055 13.6739 85.8055 19.2213C85.8055 27.0972 76.8284 29.3269 75.6322 35.4687C74.6646 40.4366 76.8822 45.2728 77.899 47.1513C78.0755 47.4772 77.6693 47.8078 77.2487 47.6819C74.1555 46.7554 65.834 43.3228 67.0767 33.4328C68.2805 23.8519 77.2855 24.2895 78.8834 18.0907C80.0317 13.6401 78.6169 10.0789 77.4575 8.10042Z" fill="url(#paint55_linear_343_7808)"/>
<path d="M53.9613 34.1319C53.646 33.3945 54.3066 32.7045 54.9496 33.0966C57.2207 34.4816 60.6166 37.3319 60.9798 42.1283C61.5307 49.4022 53.7901 50.088 54.1984 55.476C54.4078 58.241 54.8781 60.1504 55.2863 61.3545C55.5225 62.0507 54.9354 62.6645 54.3281 62.3539C52.3084 61.3213 49.1313 58.8013 48.6972 53.0701C48.054 44.5783 55.7913 44.7045 55.4396 40.0616C55.256 37.6369 54.5725 35.5613 53.9613 34.1319Z" fill="url(#paint56_linear_343_7808)"/>
<path d="M150.77 71.4569C150.77 80.1569 124.629 85.2275 94.1729 86.6628L103.067 82.1304C126.299 80.6128 144.576 77.0539 144.576 71.4569C144.576 69.0922 141.314 67.0892 135.793 65.4539L140.493 63.0569C146.932 65.3245 150.77 68.1245 150.77 71.4569Z" fill="url(#paint57_linear_343_7808)"/>
<path d="M141.635 56.1443L79.5294 90.4705C78.7676 90.9969 79.4229 92.2555 80.7138 92.7461C81.3076 92.9717 81.8932 92.9675 82.2553 92.7349L145.75 59.5628C147.214 58.6228 145.448 56.1646 143.101 55.8755C142.511 55.8025 141.991 55.8978 141.635 56.1443Z" fill="url(#paint58_linear_343_7808)"/>
<path d="M146.12 57.389L82.8057 91.7152C82.044 92.2417 82.6993 93.5002 83.9901 93.9908C84.584 94.2164 85.1696 94.2122 85.5316 93.9796L150.236 60.8075C151.699 59.8675 149.933 57.4093 147.587 57.1202C146.996 57.0475 146.477 57.1428 146.12 57.389Z" fill="url(#paint59_linear_343_7808)"/>
</g>
<defs>
<linearGradient id="paint0_linear_343_7808" x1="76.0789" y1="134.094" x2="76.628" y2="143.154" gradientUnits="userSpaceOnUse">
<stop stop-color="#F8F6FB"/>
<stop offset="1" stop-color="#EFDCFB"/>
</linearGradient>
<linearGradient id="paint1_linear_343_7808" x1="64.3889" y1="62.6505" x2="107.624" y2="127.062" gradientUnits="userSpaceOnUse">
<stop stop-color="#F8F6FB"/>
<stop offset="1" stop-color="#EFDCFB"/>
</linearGradient>
<linearGradient id="paint2_linear_343_7808" x1="66.6584" y1="34.6731" x2="77.2466" y2="77.4181" gradientUnits="userSpaceOnUse">
<stop stop-color="#F8F6FB"/>
<stop offset="1" stop-color="#EFDCFB"/>
</linearGradient>
<linearGradient id="paint3_linear_343_7808" x1="75.7694" y1="100.897" x2="75.7694" y2="-5.46045" gradientUnits="userSpaceOnUse">
<stop stop-color="#EFDCFB" stop-opacity="0"/>
<stop offset="0.0287" stop-color="#E9D6F7" stop-opacity="0.029"/>
<stop offset="0.2203" stop-color="#C5B5DE" stop-opacity="0.22"/>
<stop offset="0.4138" stop-color="#AA9BCB" stop-opacity="0.414"/>
<stop offset="0.6078" stop-color="#9688BD" stop-opacity="0.608"/>
<stop offset="0.8028" stop-color="#8A7DB5" stop-opacity="0.803"/>
<stop offset="1" stop-color="#8679B2"/>
</linearGradient>
<linearGradient id="paint4_linear_343_7808" x1="75.7693" y1="67.6616" x2="75.7693" y2="78.1192" gradientUnits="userSpaceOnUse">
<stop stop-color="#FFDECF"/>
<stop offset="0.3791" stop-color="#FDC4B0"/>
<stop offset="0.7655" stop-color="#FBAE97"/>
<stop offset="1" stop-color="#FAA68E"/>
</linearGradient>
<linearGradient id="paint5_linear_343_7808" x1="101.414" y1="102.972" x2="113.767" y2="111.207" gradientUnits="userSpaceOnUse">
<stop stop-color="#FF6359"/>
<stop offset="0.2243" stop-color="#FE5B50"/>
<stop offset="0.5952" stop-color="#FC4637"/>
<stop offset="1" stop-color="#F82814"/>
</linearGradient>
<linearGradient id="paint6_linear_343_7808" x1="99.1823" y1="114.29" x2="110.54" y2="121.862" gradientUnits="userSpaceOnUse">
<stop stop-color="#FF6359"/>
<stop offset="0.2243" stop-color="#FE5B50"/>
<stop offset="0.5952" stop-color="#FC4637"/>
<stop offset="1" stop-color="#F82814"/>
</linearGradient>
<linearGradient id="paint7_linear_343_7808" x1="66.3427" y1="57.0101" x2="78.4995" y2="86.6181" gradientUnits="userSpaceOnUse">
<stop stop-color="#FFD945"/>
<stop offset="0.3043" stop-color="#FFCD3E"/>
<stop offset="0.8558" stop-color="#FFAD2B"/>
<stop offset="1" stop-color="#FFA325"/>
</linearGradient>
<linearGradient id="paint8_linear_343_7808" x1="73.0375" y1="74.0684" x2="85.9786" y2="-4.46104" gradientUnits="userSpaceOnUse">
<stop stop-color="#F82814" stop-opacity="0"/>
<stop offset="1" stop-color="#C0272D"/>
</linearGradient>
<linearGradient id="paint9_linear_343_7808" x1="67.4469" y1="84.9551" x2="59.5319" y2="15.9833" gradientUnits="userSpaceOnUse">
<stop stop-color="#F82814" stop-opacity="0"/>
<stop offset="1" stop-color="#C0272D"/>
</linearGradient>
<linearGradient id="paint10_linear_343_7808" x1="62.2801" y1="78.7435" x2="73.4566" y2="15.6552" gradientUnits="userSpaceOnUse">
<stop stop-color="#F82814" stop-opacity="0"/>
<stop offset="1" stop-color="#C0272D"/>
</linearGradient>
<linearGradient id="paint11_linear_343_7808" x1="58.5577" y1="75.0754" x2="68.7048" y2="45.3695" gradientUnits="userSpaceOnUse">
<stop stop-color="#F82814" stop-opacity="0"/>
<stop offset="1" stop-color="#C0272D"/>
</linearGradient>
<linearGradient id="paint12_linear_343_7808" x1="51.4954" y1="83.1999" x2="49.9269" y2="57.3175" gradientUnits="userSpaceOnUse">
<stop stop-color="#F82814" stop-opacity="0"/>
<stop offset="1" stop-color="#C0272D"/>
</linearGradient>
<linearGradient id="paint13_linear_343_7808" x1="27.9443" y1="67.7439" x2="30.9834" y2="71.6654" gradientUnits="userSpaceOnUse">
<stop stop-color="#FFD945"/>
<stop offset="0.3043" stop-color="#FFCD3E"/>
<stop offset="0.8558" stop-color="#FFAD2B"/>
<stop offset="1" stop-color="#FFA325"/>
</linearGradient>
<linearGradient id="paint14_linear_343_7808" x1="34.2611" y1="61.2686" x2="40.3396" y2="66.8569" gradientUnits="userSpaceOnUse">
<stop stop-color="#FFD945"/>
<stop offset="0.3043" stop-color="#FFCD3E"/>
<stop offset="0.8558" stop-color="#FFAD2B"/>
<stop offset="1" stop-color="#FFA325"/>
</linearGradient>
<linearGradient id="paint15_linear_343_7808" x1="43.1321" y1="57.9321" x2="50.0927" y2="65.383" gradientUnits="userSpaceOnUse">
<stop stop-color="#FFD945"/>
<stop offset="0.3043" stop-color="#FFCD3E"/>
<stop offset="0.8558" stop-color="#FFAD2B"/>
<stop offset="1" stop-color="#FFA325"/>
</linearGradient>
<linearGradient id="paint16_linear_343_7808" x1="51.9073" y1="52.4763" x2="61.0249" y2="64.0939" gradientUnits="userSpaceOnUse">
<stop stop-color="#FFD945"/>
<stop offset="0.3043" stop-color="#FFCD3E"/>
<stop offset="0.8558" stop-color="#FFAD2B"/>
<stop offset="1" stop-color="#FFA325"/>
</linearGradient>
<linearGradient id="paint17_linear_343_7808" x1="56.8682" y1="47.4739" x2="69.8094" y2="65.121" gradientUnits="userSpaceOnUse">
<stop stop-color="#FFD945"/>
<stop offset="0.3043" stop-color="#FFCD3E"/>
<stop offset="0.8558" stop-color="#FFAD2B"/>
<stop offset="1" stop-color="#FFA325"/>
</linearGradient>
<linearGradient id="paint18_linear_343_7808" x1="71.5429" y1="52.786" x2="79.19" y2="65.5313" gradientUnits="userSpaceOnUse">
<stop stop-color="#FFD945"/>
<stop offset="0.3043" stop-color="#FFCD3E"/>
<stop offset="0.8558" stop-color="#FFAD2B"/>
<stop offset="1" stop-color="#FFA325"/>
</linearGradient>
<linearGradient id="paint19_linear_343_7808" x1="51.6802" y1="53.2866" x2="57.662" y2="61.5795" gradientUnits="userSpaceOnUse">
<stop stop-color="#BADA00"/>
<stop offset="0.2269" stop-color="#B0CE00"/>
<stop offset="0.6378" stop-color="#95AE00"/>
<stop offset="1" stop-color="#798C00"/>
</linearGradient>
<linearGradient id="paint20_linear_343_7808" x1="46.6206" y1="58.0231" x2="51.343" y2="64.5699" gradientUnits="userSpaceOnUse">
<stop stop-color="#BADA00"/>
<stop offset="0.2269" stop-color="#B0CE00"/>
<stop offset="0.6378" stop-color="#95AE00"/>
<stop offset="1" stop-color="#798C00"/>
</linearGradient>
<linearGradient id="paint21_linear_343_7808" x1="53.9174" y1="62.3945" x2="56.7644" y2="66.3415" gradientUnits="userSpaceOnUse">
<stop stop-color="#BADA00"/>
<stop offset="0.2269" stop-color="#B0CE00"/>
<stop offset="0.6378" stop-color="#95AE00"/>
<stop offset="1" stop-color="#798C00"/>
</linearGradient>
<linearGradient id="paint22_linear_343_7808" x1="62.9396" y1="58.7313" x2="68.9216" y2="67.0249" gradientUnits="userSpaceOnUse">
<stop stop-color="#BADA00"/>
<stop offset="0.2269" stop-color="#B0CE00"/>
<stop offset="0.6378" stop-color="#95AE00"/>
<stop offset="1" stop-color="#798C00"/>
</linearGradient>
<linearGradient id="paint23_linear_343_7808" x1="66.3908" y1="53.1271" x2="71.1134" y2="59.6745" gradientUnits="userSpaceOnUse">
<stop stop-color="#BADA00"/>
<stop offset="0.2269" stop-color="#B0CE00"/>
<stop offset="0.6378" stop-color="#95AE00"/>
<stop offset="1" stop-color="#798C00"/>
</linearGradient>
<linearGradient id="paint24_linear_343_7808" x1="59.4261" y1="53.7646" x2="62.2734" y2="57.7116" gradientUnits="userSpaceOnUse">
<stop stop-color="#BADA00"/>
<stop offset="0.2269" stop-color="#B0CE00"/>
<stop offset="0.6378" stop-color="#95AE00"/>
<stop offset="1" stop-color="#798C00"/>
</linearGradient>
<linearGradient id="paint25_linear_343_7808" x1="57.2207" y1="62.7716" x2="61.6416" y2="68.9005" gradientUnits="userSpaceOnUse">
<stop stop-color="#BADA00"/>
<stop offset="0.2269" stop-color="#B0CE00"/>
<stop offset="0.6378" stop-color="#95AE00"/>
<stop offset="1" stop-color="#798C00"/>
</linearGradient>
<linearGradient id="paint26_linear_343_7808" x1="58.564" y1="58.213" x2="62.054" y2="63.0515" gradientUnits="userSpaceOnUse">
<stop stop-color="#BADA00"/>
<stop offset="0.2269" stop-color="#B0CE00"/>
<stop offset="0.6378" stop-color="#95AE00"/>
<stop offset="1" stop-color="#798C00"/>
</linearGradient>
<linearGradient id="paint27_linear_343_7808" x1="53.5568" y1="60.0837" x2="55.6609" y2="63.0007" gradientUnits="userSpaceOnUse">
<stop stop-color="#BADA00"/>
<stop offset="0.2269" stop-color="#B0CE00"/>
<stop offset="0.6378" stop-color="#95AE00"/>
<stop offset="1" stop-color="#798C00"/>
</linearGradient>
<linearGradient id="paint28_linear_343_7808" x1="75.4058" y1="52.5913" x2="81.3876" y2="60.8842" gradientUnits="userSpaceOnUse">
<stop stop-color="#BADA00"/>
<stop offset="0.2269" stop-color="#B0CE00"/>
<stop offset="0.6378" stop-color="#95AE00"/>
<stop offset="1" stop-color="#798C00"/>
</linearGradient>
<linearGradient id="paint29_linear_343_7808" x1="70.3462" y1="57.3277" x2="75.0686" y2="63.8745" gradientUnits="userSpaceOnUse">
<stop stop-color="#BADA00"/>
<stop offset="0.2269" stop-color="#B0CE00"/>
<stop offset="0.6378" stop-color="#95AE00"/>
<stop offset="1" stop-color="#798C00"/>
</linearGradient>
<linearGradient id="paint30_linear_343_7808" x1="77.643" y1="61.6993" x2="80.49" y2="65.6463" gradientUnits="userSpaceOnUse">
<stop stop-color="#BADA00"/>
<stop offset="0.2269" stop-color="#B0CE00"/>
<stop offset="0.6378" stop-color="#95AE00"/>
<stop offset="1" stop-color="#798C00"/>
</linearGradient>
<linearGradient id="paint31_linear_343_7808" x1="89.7218" y1="56.7616" x2="95.7039" y2="65.0552" gradientUnits="userSpaceOnUse">
<stop stop-color="#BADA00"/>
<stop offset="0.2269" stop-color="#B0CE00"/>
<stop offset="0.6378" stop-color="#95AE00"/>
<stop offset="1" stop-color="#798C00"/>
</linearGradient>
<linearGradient id="paint32_linear_343_7808" x1="87.5668" y1="52.5372" x2="92.2895" y2="59.0842" gradientUnits="userSpaceOnUse">
<stop stop-color="#BADA00"/>
<stop offset="0.2269" stop-color="#B0CE00"/>
<stop offset="0.6378" stop-color="#95AE00"/>
<stop offset="1" stop-color="#798C00"/>
</linearGradient>
<linearGradient id="paint33_linear_343_7808" x1="83.1517" y1="53.0692" x2="85.9987" y2="57.0165" gradientUnits="userSpaceOnUse">
<stop stop-color="#BADA00"/>
<stop offset="0.2269" stop-color="#B0CE00"/>
<stop offset="0.6378" stop-color="#95AE00"/>
<stop offset="1" stop-color="#798C00"/>
</linearGradient>
<linearGradient id="paint34_linear_343_7808" x1="80.9473" y1="62.0763" x2="85.3679" y2="68.2052" gradientUnits="userSpaceOnUse">
<stop stop-color="#BADA00"/>
<stop offset="0.2269" stop-color="#B0CE00"/>
<stop offset="0.6378" stop-color="#95AE00"/>
<stop offset="1" stop-color="#798C00"/>
</linearGradient>
<linearGradient id="paint35_linear_343_7808" x1="82.2896" y1="57.5181" x2="85.7793" y2="62.3563" gradientUnits="userSpaceOnUse">
<stop stop-color="#BADA00"/>
<stop offset="0.2269" stop-color="#B0CE00"/>
<stop offset="0.6378" stop-color="#95AE00"/>
<stop offset="1" stop-color="#798C00"/>
</linearGradient>
<linearGradient id="paint36_linear_343_7808" x1="77.2824" y1="59.3886" x2="79.3865" y2="62.3054" gradientUnits="userSpaceOnUse">
<stop stop-color="#BADA00"/>
<stop offset="0.2269" stop-color="#B0CE00"/>
<stop offset="0.6378" stop-color="#95AE00"/>
<stop offset="1" stop-color="#798C00"/>
</linearGradient>
<linearGradient id="paint37_linear_343_7808" x1="74.89" y1="49.7519" x2="69.4852" y2="53.6504" gradientUnits="userSpaceOnUse">
<stop stop-color="#FF6359"/>
<stop offset="0.2243" stop-color="#FE5B50"/>
<stop offset="0.5952" stop-color="#FC4637"/>
<stop offset="1" stop-color="#F82814"/>
</linearGradient>
<linearGradient id="paint38_linear_343_7808" x1="65.817" y1="51.504" x2="63.2447" y2="53.3596" gradientUnits="userSpaceOnUse">
<stop stop-color="#FF6359"/>
<stop offset="0.2243" stop-color="#FE5B50"/>
<stop offset="0.5952" stop-color="#FC4637"/>
<stop offset="1" stop-color="#F82814"/>
</linearGradient>
<linearGradient id="paint39_linear_343_7808" x1="73.9517" y1="54.7163" x2="71.379" y2="56.5719" gradientUnits="userSpaceOnUse">
<stop stop-color="#FF6359"/>
<stop offset="0.2243" stop-color="#FE5B50"/>
<stop offset="0.5952" stop-color="#FC4637"/>
<stop offset="1" stop-color="#F82814"/>
</linearGradient>
<linearGradient id="paint40_linear_343_7808" x1="82.27" y1="51.3593" x2="79.6974" y2="53.2149" gradientUnits="userSpaceOnUse">
<stop stop-color="#FF6359"/>
<stop offset="0.2243" stop-color="#FE5B50"/>
<stop offset="0.5952" stop-color="#FC4637"/>
<stop offset="1" stop-color="#F82814"/>
</linearGradient>
<linearGradient id="paint41_linear_343_7808" x1="65.5707" y1="53.6569" x2="61.5763" y2="56.5384" gradientUnits="userSpaceOnUse">
<stop stop-color="#FF6359"/>
<stop offset="0.2243" stop-color="#FE5B50"/>
<stop offset="0.5952" stop-color="#FC4637"/>
<stop offset="1" stop-color="#F82814"/>
</linearGradient>
<linearGradient id="paint42_linear_343_7808" x1="70.3519" y1="50.8611" x2="67.1984" y2="53.1355" gradientUnits="userSpaceOnUse">
<stop stop-color="#FF6359"/>
<stop offset="0.2243" stop-color="#FE5B50"/>
<stop offset="0.5952" stop-color="#FC4637"/>
<stop offset="1" stop-color="#F82814"/>
</linearGradient>
<linearGradient id="paint43_linear_343_7808" x1="78.2148" y1="50.8611" x2="75.0615" y2="53.1355" gradientUnits="userSpaceOnUse">
<stop stop-color="#FF6359"/>
<stop offset="0.2243" stop-color="#FE5B50"/>
<stop offset="0.5952" stop-color="#FC4637"/>
<stop offset="1" stop-color="#F82814"/>
</linearGradient>
<linearGradient id="paint44_linear_343_7808" x1="71.4506" y1="53.0866" x2="69.5494" y2="54.4578" gradientUnits="userSpaceOnUse">
<stop stop-color="#FF6359"/>
<stop offset="0.2243" stop-color="#FE5B50"/>
<stop offset="0.5952" stop-color="#FC4637"/>
<stop offset="1" stop-color="#F82814"/>
</linearGradient>
<linearGradient id="paint45_linear_343_7808" x1="83.0345" y1="87.561" x2="56.1228" y2="71.3845" gradientUnits="userSpaceOnUse">
<stop stop-color="#F82814" stop-opacity="0"/>
<stop offset="1" stop-color="#C0272D"/>
</linearGradient>
<linearGradient id="paint46_linear_343_7808" x1="61.9798" y1="72.8558" x2="70.2981" y2="81.7855" gradientUnits="userSpaceOnUse">
<stop stop-color="#F8F6FB"/>
<stop offset="1" stop-color="#EFDCFB"/>
</linearGradient>
<linearGradient id="paint47_linear_343_7808" x1="61.168" y1="77.6708" x2="71.7638" y2="77.6708" gradientUnits="userSpaceOnUse">
<stop stop-color="#FAA68E"/>
<stop offset="0.3566" stop-color="#FB9D92"/>
<stop offset="0.9447" stop-color="#FF849B"/>
<stop offset="1" stop-color="#FF819C"/>
</linearGradient>
<linearGradient id="paint48_linear_343_7808" x1="93.8356" y1="76.401" x2="70.4532" y2="45.3716" gradientUnits="userSpaceOnUse">
<stop stop-color="#F82814" stop-opacity="0"/>
<stop offset="1" stop-color="#C0272D"/>
</linearGradient>
<linearGradient id="paint49_linear_343_7808" x1="76.8945" y1="58.6834" x2="84.5245" y2="66.8745" gradientUnits="userSpaceOnUse">
<stop stop-color="#F8F6FB"/>
<stop offset="1" stop-color="#EFDCFB"/>
</linearGradient>
<linearGradient id="paint50_linear_343_7808" x1="78.4313" y1="59.4272" x2="84.361" y2="67.0913" gradientUnits="userSpaceOnUse">
<stop stop-color="#FAA68E"/>
<stop offset="0.3566" stop-color="#FB9D92"/>
<stop offset="0.9447" stop-color="#FF849B"/>
<stop offset="1" stop-color="#FF819C"/>
</linearGradient>
<linearGradient id="paint51_linear_343_7808" x1="56.1708" y1="78.6193" x2="36.7111" y2="52.7955" gradientUnits="userSpaceOnUse">
<stop stop-color="#F82814" stop-opacity="0"/>
<stop offset="1" stop-color="#C0272D"/>
</linearGradient>
<linearGradient id="paint52_linear_343_7808" x1="41.8808" y1="64.198" x2="49.5108" y2="72.3892" gradientUnits="userSpaceOnUse">
<stop stop-color="#F8F6FB"/>
<stop offset="1" stop-color="#EFDCFB"/>
</linearGradient>
<linearGradient id="paint53_linear_343_7808" x1="43.4112" y1="64.9265" x2="49.3409" y2="72.5906" gradientUnits="userSpaceOnUse">
<stop stop-color="#FAA68E"/>
<stop offset="0.3566" stop-color="#FB9D92"/>
<stop offset="0.9447" stop-color="#FF849B"/>
<stop offset="1" stop-color="#FF819C"/>
</linearGradient>
<linearGradient id="paint54_linear_343_7808" x1="98.1067" y1="46.0731" x2="122.518" y2="57.6908" gradientUnits="userSpaceOnUse">
<stop stop-color="#E87264" stop-opacity="0"/>
<stop offset="1" stop-color="#F8DFBE"/>
</linearGradient>
<linearGradient id="paint55_linear_343_7808" x1="69.2696" y1="25.6422" x2="87.6202" y2="29.9598" gradientUnits="userSpaceOnUse">
<stop stop-color="#E87264" stop-opacity="0"/>
<stop offset="0.1575" stop-color="#E97869" stop-opacity="0.158"/>
<stop offset="0.3778" stop-color="#EC8B78" stop-opacity="0.378"/>
<stop offset="0.6353" stop-color="#F0A991" stop-opacity="0.635"/>
<stop offset="0.9188" stop-color="#F6D2B3" stop-opacity="0.919"/>
<stop offset="1" stop-color="#F8DFBE"/>
</linearGradient>
<linearGradient id="paint56_linear_343_7808" x1="49.1493" y1="45.581" x2="62.4825" y2="50.7769" gradientUnits="userSpaceOnUse">
<stop stop-color="#E87264" stop-opacity="0"/>
<stop offset="1" stop-color="#F8DFBE"/>
</linearGradient>
<linearGradient id="paint57_linear_343_7808" x1="124.69" y1="83.0436" x2="119.102" y2="71.7201" gradientUnits="userSpaceOnUse">
<stop stop-color="#EFDCFB" stop-opacity="0"/>
<stop offset="0.0287" stop-color="#E9D6F7" stop-opacity="0.029"/>
<stop offset="0.2203" stop-color="#C5B5DE" stop-opacity="0.22"/>
<stop offset="0.4138" stop-color="#AA9BCB" stop-opacity="0.414"/>
<stop offset="0.6078" stop-color="#9688BD" stop-opacity="0.608"/>
<stop offset="0.8028" stop-color="#8A7DB5" stop-opacity="0.803"/>
<stop offset="1" stop-color="#8679B2"/>
</linearGradient>
<linearGradient id="paint58_linear_343_7808" x1="111.736" y1="73.1502" x2="113.501" y2="75.9934" gradientUnits="userSpaceOnUse">
<stop stop-color="#FF6359"/>
<stop offset="0.2243" stop-color="#FE5B50"/>
<stop offset="0.5952" stop-color="#FC4637"/>
<stop offset="1" stop-color="#F82814"/>
</linearGradient>
<linearGradient id="paint59_linear_343_7808" x1="115.156" y1="73.6669" x2="118.097" y2="78.3728" gradientUnits="userSpaceOnUse">
<stop stop-color="#FF6359"/>
<stop offset="0.2243" stop-color="#FE5B50"/>
<stop offset="0.5952" stop-color="#FC4637"/>
<stop offset="1" stop-color="#F82814"/>
</linearGradient>
<clipPath id="clip0_343_7808">
<rect width="150" height="150" fill="white" transform="translate(0.769531 0.562744)"/>
</clipPath>
</defs>
</svg>
