<svg width="151" height="151" viewBox="0 0 151 151" fill="none" xmlns="http://www.w3.org/2000/svg">
<g clip-path="url(#clip0_343_7040)">
<path d="M75.9937 112.544C63.6114 112.544 52.2476 110.711 43.3467 107.654C44.6273 112.719 47.0331 116.55 49.9996 117.776C56.6949 120.543 65.8705 122.249 75.9937 122.249C86.117 122.249 95.2926 120.543 101.988 117.776C104.954 116.55 107.36 112.719 108.641 107.654C99.7399 110.711 88.3761 112.544 75.9937 112.544Z" fill="url(#paint0_linear_343_7040)"/>
<path d="M150.994 64.7047C150.994 43.8588 0.993652 43.8588 0.993652 64.7047C0.993652 85.5506 18.6192 116.119 75.9937 116.119C133.368 116.119 150.994 85.5509 150.994 64.7047Z" fill="url(#paint1_linear_343_7040)"/>
<path d="M150.994 64.7047C150.994 85.5506 0.993652 85.5506 0.993652 64.7047C0.993652 43.8588 150.994 43.8588 150.994 64.7047Z" fill="url(#paint2_linear_343_7040)"/>
<path d="M130.111 49.5989C130.111 71.8698 25.8804 71.8698 25.8804 49.5989C25.8804 45.7589 28.9807 42.5818 34.1098 40.0662C35.973 39.1524 37.6916 37.6692 39.1283 35.6577L39.2824 35.4421C42.4066 31.0686 46.9298 29.8412 50.866 32.2989L50.8689 32.3006C54.2316 34.4003 58.0654 33.8356 61.096 30.7945L61.3842 30.505C64.7263 27.1515 69.0239 26.8765 72.5416 29.7906L72.8104 30.0133C76.0413 32.6898 79.953 32.6903 83.1842 30.0145L83.4548 29.7903C86.973 26.8768 91.2707 27.153 94.6127 30.5071L94.9624 30.858C97.9763 33.8827 101.793 34.4242 105.127 32.3003C109.034 29.8109 113.545 31.01 116.655 35.3648L116.864 35.6577C118.301 37.6692 120.019 39.1527 121.882 40.0662C127.011 42.5818 130.111 45.7592 130.111 49.5989Z" fill="url(#paint3_linear_343_7040)"/>
<path d="M113.792 41.7529C110.789 41.7529 108.355 44.187 108.355 47.19C108.355 50.1929 110.789 52.627 113.792 52.627C116.795 52.627 119.229 50.1929 119.229 47.19C119.229 44.187 116.795 41.7529 113.792 41.7529ZM113.792 49.4979C112.517 49.4979 111.484 48.4647 111.484 47.19C111.484 45.9153 112.517 44.882 113.792 44.882C115.067 44.882 116.1 45.9153 116.1 47.19C116.1 48.4647 115.066 49.4979 113.792 49.4979Z" fill="url(#paint4_linear_343_7040)"/>
<path d="M71.9322 31.3153C68.9292 31.3153 66.4951 33.7494 66.4951 36.7524C66.4951 39.7553 68.9292 42.1894 71.9322 42.1894C74.9348 42.1894 77.3692 39.7553 77.3692 36.7524C77.3692 33.7494 74.9351 31.3153 71.9322 31.3153ZM71.9322 39.06C70.6575 39.06 69.6242 38.0268 69.6242 36.7521C69.6242 35.4774 70.6575 34.4441 71.9322 34.4441C73.2069 34.4441 74.2401 35.4774 74.2401 36.7521C74.2401 38.0268 73.2069 39.06 71.9322 39.06Z" fill="url(#paint5_linear_343_7040)"/>
<path d="M103.631 61.6219C109.243 61.6219 113.792 57.0729 113.792 51.4616C113.792 45.8502 109.243 41.3013 103.631 41.3013C98.0201 41.3013 93.4712 45.8502 93.4712 51.4616C93.4712 57.0729 98.0201 61.6219 103.631 61.6219Z" fill="url(#paint6_linear_343_7040)"/>
<path d="M100.771 64.7941L69.5212 33.5274C67.5653 31.5715 65.2403 30.8 62.798 29.9274C62.3009 30.2744 61.8492 30.0385 61.3845 30.505L61.0962 30.7944C58.0653 33.8356 54.2315 34.4003 50.8692 32.3006L50.8662 32.2988C49.623 31.5227 48.6153 31.5665 47.3177 31.5085C46.2253 32.2047 45.2412 32.8603 44.2874 33.8141C37.2239 40.8777 36.8777 52.0438 43.9412 59.1077L48.4792 63.6456C63.8006 66.7494 84.1974 67.1327 100.771 64.7941Z" fill="url(#paint7_linear_343_7040)"/>
<path d="M144.8 64.7047C144.8 80.0674 7.18701 80.0674 7.18701 64.7047C7.18701 49.3421 144.8 49.3424 144.8 64.7047Z" fill="url(#paint8_linear_343_7040)"/>
<path d="M2.87354 76.7827C3.83559 79.8924 5.19148 83.0448 6.99559 86.143C32.7959 97.4021 119.191 97.4021 144.991 86.143C146.796 83.0448 148.151 79.8924 149.113 76.7827C129.203 91.0583 22.7844 91.0583 2.87354 76.7827Z" fill="url(#paint9_linear_343_7040)"/>
<path d="M144.726 64.1062C144.582 65.1238 144.208 66.1121 143.632 67.068C141.407 69.2283 136.131 71.0065 128.883 72.4024C124.93 73.1638 120.39 72.3409 115.438 72.8747C110.948 73.3588 106.12 75.22 101.084 75.5171C93.3534 75.973 85.1334 76.2088 76.8963 76.2238C69.6022 76.2415 53.8669 73.3768 53.7199 71.9886C53.3404 68.415 55.7375 65.1709 59.9699 62.3562C60.4375 62.0474 60.8904 61.6886 61.3199 61.2827C62.3051 60.3562 63.1875 59.1856 63.9228 57.7915L64.0346 57.5768C65.1728 55.4209 66.6846 53.9503 68.3699 53.2444C69.8199 52.6385 71.3963 52.6033 72.9728 53.1915C73.264 53.3003 73.5552 53.4297 73.8434 53.5827L73.8463 53.5856C76.1728 54.8033 78.5846 54.6356 80.6316 53.2062C81.3493 52.7062 82.0228 52.0474 82.6316 51.2415L82.8551 50.9444C85.4463 47.515 89.1728 46.8621 92.5316 49.2503L92.7875 49.4327C95.8728 51.6268 99.2905 51.268 101.849 48.4797L102.064 48.2444C104.849 45.2091 108.632 45.0709 111.879 47.8856L112.22 48.1797C115.149 50.718 118.535 50.8709 121.24 48.5856C122.52 47.5062 123.943 46.9738 125.393 46.9738C127.535 46.9738 129.735 48.1297 131.611 50.3768L131.82 50.6297C133.273 52.368 134.92 53.5915 136.638 54.2709C141.364 56.1385 144.385 58.8121 144.761 62.3856C144.823 62.968 144.811 63.5444 144.726 64.1062Z" fill="url(#paint10_linear_343_7040)"/>
<path d="M69.5208 33.5274C62.4573 26.4639 51.0047 26.4639 43.9408 33.5274C36.877 40.5909 36.8773 52.0436 43.9408 59.1074C51.0044 66.1709 62.457 66.1709 69.5208 59.1074C76.5847 52.0439 76.5847 40.5912 69.5208 33.5274ZM48.6091 54.4394C44.1241 49.9544 44.1241 42.6806 48.6091 38.1956C53.0941 33.7106 60.3661 33.7124 64.8511 38.1974C69.3361 42.6824 69.3379 49.9544 64.8529 54.4394C60.3679 58.9244 53.0941 58.9244 48.6091 54.4394Z" fill="url(#paint11_linear_343_7040)"/>
<path d="M46.092 56.9565C51.967 62.8315 61.4949 62.8315 67.3699 56.9565C73.2467 51.0797 73.2449 41.5536 67.3699 35.6786C61.4931 29.8018 51.9687 29.8018 46.092 35.6786C40.217 41.5533 40.2152 51.0797 46.092 56.9565ZM64.8528 38.1953C69.3378 42.6803 69.3378 49.9542 64.8528 54.4392C60.3678 58.9242 53.0958 58.9224 48.6108 54.4374C44.1258 49.9524 44.124 42.6803 48.609 38.1953C53.094 33.7103 60.3678 33.7103 64.8528 38.1953Z" fill="url(#paint12_linear_343_7040)"/>
<path d="M138.628 42.0065C132.978 36.3565 123.818 36.3565 118.168 42.0065C112.518 47.6565 112.518 56.8171 118.168 62.4671C123.818 68.1171 132.978 68.1171 138.628 62.4671C144.278 56.8171 144.278 47.6565 138.628 42.0065ZM121.902 58.7333C118.314 55.146 118.314 49.3277 121.902 45.7404C125.489 42.153 131.306 42.1545 134.893 45.7418C138.48 49.3292 138.482 55.146 134.894 58.7333C131.307 62.3207 125.489 62.3207 121.902 58.7333Z" fill="url(#paint13_linear_343_7040)"/>
<path d="M119.888 60.7465C124.587 65.4456 132.208 65.4456 136.908 60.7465C141.608 56.0459 141.607 48.4262 136.908 43.7271C132.207 39.0265 124.589 39.0265 119.888 43.7271C115.189 48.4262 115.188 56.0459 119.888 60.7465ZM134.894 45.7403C138.482 49.3277 138.482 55.1459 134.894 58.7333C131.307 62.3206 125.49 62.3192 121.903 58.7318C118.316 55.1445 118.314 49.3277 121.901 45.7403C125.489 42.153 131.307 42.153 134.894 45.7403Z" fill="url(#paint14_linear_343_7040)"/>
<path d="M87.1923 36.7516C87.9694 36.7266 88.5794 36.0766 88.5544 35.2992C88.5294 34.5221 87.8794 33.9121 87.1021 33.9371C86.325 33.9621 85.715 34.6121 85.74 35.3895C85.765 36.1666 86.4153 36.7766 87.1923 36.7516Z" fill="url(#paint15_linear_343_7040)"/>
<path d="M80.6542 39.3881C80.6425 39.0181 80.333 38.7278 79.963 38.7399C79.593 38.7516 79.303 39.061 79.3148 39.431C79.3266 39.801 79.6363 40.091 80.006 40.0793C80.376 40.0672 80.6663 39.7578 80.6542 39.3881Z" fill="url(#paint16_linear_343_7040)"/>
<path d="M89.3225 39.0333C89.1478 38.7072 88.7416 38.5842 88.4154 38.7589C88.0892 38.9336 87.9663 39.3398 88.141 39.666C88.3157 39.9922 88.7219 40.1151 89.0481 39.9404C89.3742 39.766 89.4972 39.3598 89.3225 39.0333Z" fill="url(#paint17_linear_343_7040)"/>
<path d="M94.7322 36.4359C94.5574 36.1097 94.1513 35.9868 93.8251 36.1615C93.4989 36.3362 93.376 36.7424 93.5507 37.0686C93.7254 37.3947 94.1316 37.5177 94.4577 37.343C94.7839 37.1683 94.9069 36.7621 94.7322 36.4359Z" fill="url(#paint18_linear_343_7040)"/>
<path d="M81.0257 41.2709C80.6366 40.848 79.9787 40.8207 79.5557 41.2098C79.1328 41.5989 79.1054 42.2568 79.4946 42.6798C79.8837 43.1027 80.5416 43.1301 80.9646 42.7409C81.3875 42.3518 81.4149 41.6936 81.0257 41.2709Z" fill="url(#paint19_linear_343_7040)"/>
<path d="M84.4332 36.7572C84.1261 36.4234 83.6064 36.4016 83.2726 36.709C82.9388 37.016 82.917 37.5357 83.2244 37.8696C83.5314 38.2034 84.0511 38.2252 84.385 37.9178C84.7185 37.6107 84.7403 37.091 84.4332 36.7572Z" fill="url(#paint20_linear_343_7040)"/>
<path d="M91.7262 33.8201C91.4191 33.4863 90.8994 33.4645 90.5656 33.7718C90.2317 34.0789 90.21 34.5986 90.5173 34.9324C90.8244 35.2663 91.3441 35.288 91.6779 34.9807C92.0115 34.6736 92.0332 34.1539 91.7262 33.8201Z" fill="url(#paint21_linear_343_7040)"/>
<path d="M85.5801 38.8828C85.7651 39.0839 86.0787 39.0972 86.2798 38.9119C86.481 38.7266 86.4943 38.4133 86.309 38.2122C86.1237 38.011 85.8104 37.9978 85.6092 38.183C85.4078 38.3683 85.3948 38.6816 85.5801 38.8828Z" fill="url(#paint22_linear_343_7040)"/>
<path d="M90.6902 40.4306C84.6573 34.3976 74.8755 34.3976 68.8426 40.4306C62.8096 46.4635 62.8096 56.2453 68.8426 62.2782C74.8755 68.3112 84.6573 68.3112 90.6902 62.2782C96.7232 56.2453 96.7232 46.4635 90.6902 40.4306ZM72.8293 58.2912C68.9988 54.4606 68.9988 48.2479 72.8293 44.4174C76.6599 40.5868 82.8711 40.5882 86.7017 44.4188C90.5323 48.2494 90.5338 54.4606 86.7032 58.2912C82.8726 62.1218 76.6599 62.1218 72.8293 58.2912Z" fill="url(#paint23_linear_343_7040)"/>
<path d="M70.6799 60.4408C75.6976 65.4585 83.8355 65.4585 88.8532 60.4408C93.8723 55.4217 93.8708 47.2853 88.8532 42.2676C83.8337 37.2482 75.699 37.2482 70.6799 42.2676C65.6623 47.2853 65.6605 55.4217 70.6799 60.4408ZM86.7034 44.4173C90.534 48.2479 90.534 54.4605 86.7034 58.2911C82.8729 62.1217 76.6617 62.1203 72.8311 58.2897C69.0005 54.4591 68.999 48.2479 72.8296 44.4173C76.6602 40.5867 82.8729 40.5867 86.7034 44.4173Z" fill="url(#paint24_linear_343_7040)"/>
<path d="M63.4177 62.6615C60.7444 72.2865 25.8891 62.6056 28.5627 52.9806C31.2362 43.3556 41.2056 37.7203 50.8306 40.3935C60.4556 43.0668 66.0912 53.0365 63.4177 62.6615Z" fill="url(#paint25_linear_343_7040)"/>
<path d="M126.715 37.9762C119.652 30.9127 108.199 30.9127 101.135 37.9762C94.0713 45.0398 94.0716 56.4924 101.135 63.5562C108.199 70.6198 119.651 70.6198 126.715 63.5562C133.779 56.4927 133.779 45.0398 126.715 37.9762ZM105.803 58.888C101.318 54.403 101.318 47.1292 105.803 42.6442C110.288 38.1592 117.56 38.1609 122.045 42.6459C126.53 47.1309 126.532 54.403 122.047 58.888C117.562 63.373 110.288 63.373 105.803 58.888Z" fill="url(#paint26_linear_343_7040)"/>
<path d="M103.286 61.4051C109.161 67.2801 118.689 67.2801 124.564 61.4051C130.441 55.5284 130.439 46.0022 124.564 40.1272C118.687 34.2504 109.163 34.2504 103.286 40.1272C97.4113 46.0022 97.4095 55.5284 103.286 61.4051ZM122.047 42.6442C126.532 47.1292 126.532 54.4031 122.047 58.8881C117.562 63.3731 110.29 63.3713 105.805 58.8863C101.32 54.4013 101.318 47.1292 105.803 42.6442C110.288 38.1592 117.562 38.1592 122.047 42.6442Z" fill="url(#paint27_linear_343_7040)"/>
<path d="M36.4299 42.4974C30.4008 36.4683 20.6252 36.4683 14.5961 42.4974C8.56694 48.5265 8.56694 58.3021 14.5961 64.3312C20.6252 70.3604 30.4008 70.3604 36.4299 64.3312C42.459 58.3021 42.459 48.5265 36.4299 42.4974ZM18.5805 60.3468C14.7522 56.5186 14.7522 50.3101 18.5805 46.4818C22.4087 42.6536 28.6158 42.6551 32.444 46.4833C36.2722 50.3115 36.2737 56.5186 32.4455 60.3468C28.6172 64.1751 22.4084 64.1751 18.5805 60.3468Z" fill="url(#paint28_linear_343_7040)"/>
<path d="M16.4319 62.4954C21.4463 67.5098 29.5792 67.5098 34.5936 62.4954C39.6098 57.4793 39.6081 49.3481 34.5936 44.3337C29.5775 39.3175 21.4478 39.3175 16.4319 44.3337C11.4175 49.3481 11.4157 57.4793 16.4319 62.4954ZM32.4454 46.4819C36.2736 50.3101 36.2736 56.5187 32.4454 60.3469C28.6172 64.1751 22.4101 64.1737 18.5819 60.3454C14.7536 56.5172 14.7522 50.3101 18.5804 46.4819C22.4086 42.6537 28.6172 42.6537 32.4454 46.4819Z" fill="url(#paint29_linear_343_7040)"/>
<path d="M144.726 64.1062C144.582 65.1238 144.208 66.1121 143.632 67.068C141.405 69.2306 136.12 71.0103 128.859 72.4068C124.676 73.2115 119.837 72.1241 114.55 72.6744C110.312 73.1156 105.785 75.2397 101.077 75.5174C93.3487 75.9733 85.131 76.2085 76.8963 76.2238C69.6022 76.2415 53.8669 73.3768 53.7199 71.9886C53.3404 68.415 55.7375 65.1709 59.9699 62.3562C60.4375 62.0474 60.8904 61.6886 61.3199 61.2827C62.3051 60.3562 63.1875 59.1856 63.9228 57.7915L64.0346 57.5768C65.1728 55.4209 66.6846 53.9503 68.3699 53.2444C69.8199 52.6385 71.3963 52.6033 72.9728 53.1915C73.264 53.3003 73.5552 53.4297 73.8434 53.5827L73.8463 53.5856C76.1728 54.8033 78.5846 54.6356 80.6316 53.2062C81.3493 52.7062 82.0228 52.0474 82.6316 51.2415L82.8551 50.9444C85.4463 47.515 89.1728 46.8621 92.5316 49.2503L92.7875 49.4327C95.8728 51.6268 99.2905 51.268 101.849 48.4797L102.064 48.2444C104.849 45.2091 108.632 45.0709 111.879 47.8856L112.22 48.1797C115.149 50.718 118.535 50.8709 121.24 48.5856C122.52 47.5062 123.943 46.9738 125.393 46.9738C127.535 46.9738 129.735 48.1297 131.611 50.3768L131.82 50.6297C133.273 52.368 134.92 53.5915 136.638 54.2709C141.364 56.1385 144.385 58.8121 144.761 62.3856C144.823 62.968 144.811 63.5444 144.726 64.1062Z" fill="url(#paint30_linear_343_7040)"/>
<path d="M76.2217 75.8836C76.3417 76.0345 76.3729 76.0739 76.4929 76.2245C84.8499 76.2165 93.197 75.9815 101.041 75.5198C105.951 75.2306 110.663 73.6765 115.057 73.2098C120.148 72.6692 124.811 73.1859 128.861 72.4068C136.121 71.0104 141.405 69.2306 143.632 67.0683C144.208 66.1124 144.582 65.1242 144.726 64.1065C144.811 63.5448 144.823 62.9683 144.761 62.3859C144.747 62.2533 144.73 62.1221 144.708 61.9921C144.222 59.0112 141.665 56.8812 138.666 56.5198C137.265 56.3509 135.853 55.6933 134.533 54.5495L134.191 54.2554C130.944 51.4407 127.162 51.5789 124.377 54.6142L124.162 54.8495C121.603 57.6377 118.186 57.9965 115.1 55.8024L114.844 55.6201C111.486 53.2318 107.759 53.8848 105.168 57.3142L104.944 57.6112C104.336 58.4171 103.662 59.0759 102.944 59.5759C100.897 61.0054 98.4855 61.173 96.159 59.9554L96.1561 59.9524C95.8679 59.7995 95.5767 59.6701 95.2855 59.5612C93.709 58.973 92.1326 59.0083 90.6826 59.6142C88.9973 60.3201 87.4855 61.7906 86.3473 63.9465L86.2355 64.1612C85.5002 65.5554 84.6179 66.7259 83.6326 67.6524C83.2031 68.0583 82.7502 68.4171 82.2826 68.7259C79.0499 70.8756 76.8929 73.2768 76.2217 75.8836Z" fill="url(#paint31_linear_343_7040)"/>
<path d="M117.774 73.6895C112.538 74.3183 107.282 74.7477 101.054 75.5177C93.3325 75.9724 85.1231 76.2074 76.8963 76.2239C69.6022 76.2415 53.8669 73.3768 53.7199 71.9886C53.3404 68.415 55.7375 65.1709 59.9699 62.3562C60.4375 62.0474 60.8904 61.6886 61.3199 61.2827C62.3051 60.3562 63.1875 59.1856 63.9228 57.7915L64.0346 57.5768C65.1728 55.4209 66.6846 53.9503 68.3699 53.2445C69.8199 52.6386 71.3963 52.6033 72.9728 53.1915C73.264 53.3003 73.5552 53.4297 73.8434 53.5827L73.8463 53.5856C76.1728 54.8033 78.5846 54.6356 80.6316 53.2062C81.3493 52.7062 82.0228 52.0474 82.6316 51.2415L82.8551 50.9444C85.4463 47.515 89.1728 46.8621 92.5316 49.2503L92.7875 49.4327C93.3287 49.818 93.8787 50.1239 94.4346 50.3503L117.774 73.6895Z" fill="url(#paint32_linear_343_7040)"/>
<path d="M94.8853 58.3365C91.8824 58.3365 89.4482 60.7707 89.4482 63.7736C89.4482 66.7765 91.8824 69.2107 94.8853 69.2107C97.8879 69.2107 100.322 66.7765 100.322 63.7736C100.322 60.7707 97.8882 58.3365 94.8853 58.3365ZM94.8853 66.0815C93.6106 66.0815 92.5774 65.0483 92.5774 63.7736C92.5774 62.4989 93.6106 61.4657 94.8853 61.4657C96.16 61.4657 97.1932 62.4989 97.1932 63.7736C97.1932 65.0483 96.16 66.0815 94.8853 66.0815Z" fill="url(#paint33_linear_343_7040)"/>
<path d="M123.56 60.3741C120.557 60.3741 118.123 62.8083 118.123 65.8112C118.123 68.8141 120.557 71.2483 123.56 71.2483C126.563 71.2483 128.997 68.8141 128.997 65.8112C128.997 62.8083 126.563 60.3741 123.56 60.3741ZM123.56 68.1191C122.285 68.1191 121.252 67.0859 121.252 65.8112C121.252 64.5365 122.285 63.5033 123.56 63.5033C124.835 63.5033 125.868 64.5365 125.868 65.8112C125.868 67.0859 124.835 68.1191 123.56 68.1191Z" fill="url(#paint34_linear_343_7040)"/>
<path d="M93.5546 45.6168C94.0478 45.3535 94.2343 44.7403 93.971 44.2471C93.7078 43.7538 93.0946 43.5674 92.6013 43.8306C92.1081 44.0938 91.9216 44.7071 92.1849 45.2003C92.4481 45.6935 93.0613 45.88 93.5546 45.6168Z" fill="url(#paint35_linear_343_7040)"/>
<path d="M90.57 44.0982C90.3621 43.7088 89.878 43.5614 89.4886 43.7694C89.0992 43.9773 88.9518 44.4614 89.1598 44.8509C89.3677 45.2403 89.8518 45.3876 90.2412 45.1797C90.6306 44.9717 90.7777 44.4876 90.57 44.0982Z" fill="url(#paint36_linear_343_7040)"/>
<path d="M88.9702 48.0452C88.8449 47.8105 88.5531 47.7217 88.3181 47.847C88.0831 47.9723 87.9946 48.264 88.1199 48.499C88.2452 48.734 88.5369 48.8226 88.7719 48.6973C89.0066 48.5717 89.0954 48.2799 88.9702 48.0452Z" fill="url(#paint37_linear_343_7040)"/>
<path d="M93.9578 53.0091C93.5031 52.6838 92.8708 52.7888 92.5455 53.2435C92.2202 53.6982 92.3252 54.3306 92.7799 54.6559C93.2346 54.9812 93.8669 54.8762 94.1922 54.4215C94.5175 53.9668 94.4125 53.3344 93.9578 53.0091Z" fill="url(#paint38_linear_343_7040)"/>
<path d="M102.328 50.0123C101.969 49.7556 101.47 49.8382 101.213 50.1973C100.956 50.5564 101.039 51.0556 101.398 51.3123C101.757 51.5691 102.256 51.4864 102.513 51.1273C102.77 50.7682 102.687 50.2691 102.328 50.0123Z" fill="url(#paint39_linear_343_7040)"/>
<path d="M95.9991 46.1156C95.7827 45.9606 95.4818 46.0106 95.3268 46.2271C95.1721 46.4436 95.2218 46.7444 95.4383 46.8994C95.6547 47.0541 95.9556 47.0044 96.1106 46.788C96.2656 46.5715 96.2156 46.2706 95.9991 46.1156Z" fill="url(#paint40_linear_343_7040)"/>
<path d="M92.3615 48.6702C91.9762 48.5211 91.543 48.7129 91.3938 49.0982C91.2447 49.4834 91.4365 49.9167 91.8218 50.0658C92.2071 50.2149 92.6403 50.0232 92.7894 49.6379C92.9386 49.2523 92.7468 48.819 92.3615 48.6702Z" fill="url(#paint41_linear_343_7040)"/>
<path d="M94.2232 47.4059C93.919 47.2882 93.577 47.4397 93.4593 47.7438C93.3417 48.0479 93.4931 48.39 93.7973 48.5076C94.1014 48.6253 94.4434 48.4738 94.5611 48.1697C94.6787 47.8653 94.5273 47.5235 94.2232 47.4059Z" fill="url(#paint42_linear_343_7040)"/>
<path d="M91.5862 47.0229C91.7697 47.0938 91.9759 47.0026 92.0468 46.8191C92.1177 46.6356 92.0265 46.4294 91.843 46.3585C91.6594 46.2876 91.4533 46.3788 91.3824 46.5623C91.3115 46.7459 91.403 46.952 91.5862 47.0229Z" fill="url(#paint43_linear_343_7040)"/>
<path d="M110.792 53.6223C111.286 53.359 111.472 52.7458 111.209 52.2526C110.946 51.7593 110.332 51.5729 109.839 51.8361C109.346 52.0993 109.159 52.7126 109.423 53.2058C109.686 53.699 110.299 53.8855 110.792 53.6223Z" fill="url(#paint44_linear_343_7040)"/>
<path d="M101.863 58.1055C101.655 57.7161 101.17 57.5688 100.781 57.7767C100.392 57.9846 100.244 58.4688 100.452 58.8582C100.66 59.2476 101.144 59.3949 101.534 59.187C101.923 58.9791 102.07 58.4949 101.863 58.1055Z" fill="url(#paint45_linear_343_7040)"/>
<path d="M103.271 53.752C103.146 53.5173 102.854 53.4285 102.619 53.5538C102.384 53.6791 102.295 53.9708 102.421 54.2058C102.546 54.4405 102.838 54.5294 103.073 54.4041C103.307 54.2788 103.396 53.987 103.271 53.752Z" fill="url(#paint46_linear_343_7040)"/>
<path d="M114.602 57.8358C114.148 57.5105 113.515 57.6155 113.19 58.0702C112.865 58.5249 112.97 59.1572 113.424 59.4825C113.879 59.8078 114.511 59.7028 114.837 59.2481C115.162 58.7934 115.057 58.1611 114.602 57.8358Z" fill="url(#paint47_linear_343_7040)"/>
<path d="M115.265 56.6526C115.521 56.2935 115.439 55.7944 115.08 55.5376C114.721 55.2808 114.221 55.3635 113.965 55.7226C113.708 56.0817 113.791 56.5808 114.15 56.8376C114.509 57.0944 115.008 57.0114 115.265 56.6526Z" fill="url(#paint48_linear_343_7040)"/>
<path d="M113.237 54.1212C113.02 53.9665 112.72 54.0162 112.565 54.2327C112.41 54.4492 112.46 54.75 112.676 54.905C112.893 55.0598 113.193 55.01 113.348 54.7936C113.503 54.5771 113.453 54.2762 113.237 54.1212Z" fill="url(#paint49_linear_343_7040)"/>
<path d="M105.709 57.4826C105.324 57.3335 104.891 57.5252 104.742 57.9105C104.592 58.2958 104.784 58.7291 105.169 58.8782C105.555 59.0273 105.988 58.8355 106.137 58.4502C106.286 58.0649 106.094 57.6317 105.709 57.4826Z" fill="url(#paint50_linear_343_7040)"/>
<path d="M111.461 55.4114C111.157 55.2937 110.815 55.4449 110.697 55.7493C110.579 56.0534 110.731 56.3955 111.035 56.5131C111.339 56.6308 111.681 56.4793 111.799 56.1752C111.916 55.8711 111.765 55.529 111.461 55.4114Z" fill="url(#paint51_linear_343_7040)"/>
<path d="M108.824 55.0285C109.008 55.0994 109.214 55.0082 109.285 54.8247C109.356 54.6412 109.264 54.435 109.081 54.3641C108.897 54.2932 108.691 54.3844 108.62 54.568C108.549 54.7515 108.641 54.9577 108.824 55.0285Z" fill="url(#paint52_linear_343_7040)"/>
<path d="M87.8313 71.4112C82.1142 77.1283 72.8563 77.1392 67.1527 71.4356C61.4492 65.7321 61.4604 56.4742 67.1772 50.7571C72.8939 45.04 86.5139 40.6674 92.2175 46.3709C97.921 52.0744 93.5483 65.6942 87.8313 71.4112Z" fill="url(#paint53_linear_343_7040)"/>
<path d="M66.5879 70.8359C71.7432 75.3856 80.1055 74.7273 85.6264 69.2062C91.0629 63.7697 95.7279 51.6344 91.7914 46.0762C91.6699 45.9044 91.5199 45.7535 91.3511 45.6279C85.2364 41.0882 72.6229 45.3118 67.1776 50.7571C61.6564 56.2779 61.4585 65.1006 66.5879 70.8359Z" fill="url(#paint54_linear_343_7040)"/>
<path d="M74.7104 68.6286C79.2411 68.6286 82.9139 64.9558 82.9139 60.4251C82.9139 55.8944 79.2411 52.2216 74.7104 52.2216C70.1797 52.2216 66.5068 55.8944 66.5068 60.4251C66.5068 64.9558 70.1797 68.6286 74.7104 68.6286Z" fill="url(#paint55_linear_343_7040)"/>
<path d="M76.8963 76.2239C72.5819 76.2345 68.2631 76.183 64.0075 76.0713C62.9575 76.0436 61.9116 73.9536 60.8701 73.9186C59.6313 73.8771 58.3996 75.8892 57.176 75.8371C56.549 75.8107 55.9243 75.7827 55.3022 75.7533C30.114 74.5592 9.00219 71.1268 7.29925 65.4533C7.24925 65.1239 7.2169 64.7915 7.20219 64.4621C7.14043 63.2621 7.30219 62.0621 7.71102 60.8739C8.96102 57.2415 12.0875 54.9562 16.3669 53.768C17.9198 53.3357 19.561 52.3327 21.1875 50.7651L21.361 50.5945C24.8934 47.1827 28.3434 47.0739 30.1963 50.3121V50.3151C31.7816 53.0827 34.5493 53.4386 37.5846 51.2651L37.8728 51.0592C41.2198 48.6621 44.2081 49.4004 45.6287 52.9739L45.7375 53.2474C45.8757 53.5915 46.0287 53.9121 46.1934 54.2033C47.6051 56.6915 50.0051 57.2504 52.7346 55.6562L52.9904 55.5062C56.311 53.568 59.1199 54.8268 60.2816 58.7768L60.4022 59.1886C60.6404 60.0004 60.9493 60.7004 61.3199 61.2827C62.5699 63.2533 64.5169 63.868 66.7875 62.9151C67.4934 62.618 68.1669 62.4739 68.7963 62.4739C71.2375 62.4739 73.0228 64.6415 73.561 68.4915L73.6081 68.8151C73.9199 71.0533 74.5963 72.8533 75.5552 74.1504C76.064 74.8357 76.511 75.5298 76.8963 76.2239Z" fill="url(#paint56_linear_343_7040)"/>
<path d="M126.273 67.398C123.881 64.8971 120.278 63.6709 116.653 64.4765C111.706 65.5762 108.401 70.0868 108.657 74.9851C108.659 74.9848 108.662 74.9848 108.664 74.9845C108.713 74.9803 115.723 73.5656 119.029 73.1486C122.462 72.7153 125.967 72.9621 128.846 72.4086C129.54 72.2751 130.216 72.1383 130.873 71.9977L126.273 67.398Z" fill="url(#paint57_linear_343_7040)"/>
<path d="M128.859 72.2432C127.633 66.728 122.168 63.2506 116.653 64.4765C111.706 65.5762 108.401 70.0868 108.657 74.985C116.269 74.36 123.187 73.4988 128.885 72.4012C128.877 72.3485 128.871 72.2962 128.859 72.2432Z" fill="url(#paint58_linear_343_7040)"/>
<path d="M114.594 73.7051C114.594 69.8954 111.506 66.8069 107.696 66.8069C103.886 66.8069 100.798 69.8954 100.798 73.7051C100.798 74.3328 100.883 74.9404 101.04 75.5184C105.766 75.2401 110.303 74.8781 114.555 74.4354C114.581 74.1951 114.594 73.9519 114.594 73.7051Z" fill="url(#paint59_linear_343_7040)"/>
<path d="M59.0387 66.6554C56.3445 63.9613 52.9848 62.6907 49.546 62.0745C43.9681 61.0754 38.0778 62.4133 33.7081 66.783C31.7322 68.7589 30.061 70.9504 29.1904 73.421C29.4037 73.4521 29.6231 73.4816 29.8384 73.5121C29.8381 73.5127 29.8378 73.5133 29.8378 73.5139C37.2557 74.5657 46.0001 75.3121 55.3022 75.7533C55.9187 75.7824 56.5378 75.8101 57.159 75.8366C58.4007 75.8892 59.6513 74.466 60.909 74.508C61.9348 74.5424 62.9654 76.0436 63.9995 76.0707C65.5066 76.1101 67.0213 76.1421 68.5413 76.1665L59.0387 66.6554Z" fill="url(#paint60_linear_343_7040)"/>
<path d="M31.8033 58.3365C28.8003 58.3365 26.3662 60.7707 26.3662 63.7736C26.3662 66.7765 28.8003 69.2107 31.8033 69.2107C34.8059 69.2107 37.2403 66.7765 37.2403 63.7736C37.2403 60.7707 34.8062 58.3365 31.8033 58.3365ZM31.8033 66.0815C30.5286 66.0815 29.4953 65.0483 29.4953 63.7736C29.4953 62.4989 30.5286 61.4657 31.8033 61.4657C33.078 61.4657 34.1112 62.4989 34.1112 63.7736C34.1112 65.0483 33.078 66.0815 31.8033 66.0815Z" fill="url(#paint61_linear_343_7040)"/>
<path d="M59.039 66.6553C51.9754 59.5918 40.5228 59.5918 33.459 66.6553C31.4831 68.6312 30.061 70.9506 29.1904 73.4209C31.3463 73.735 33.6184 74.023 35.9878 74.2844C36.5248 73.2168 37.2357 72.2144 38.1269 71.3233C42.6119 66.8383 49.884 66.84 54.369 71.325C55.6801 72.6362 56.6834 73.895 57.2281 75.5433C58.4596 75.5956 59.621 75.9339 60.8678 75.9756C61.9134 76.0106 62.964 76.0421 64.0187 76.0697C63.3672 72.6209 61.7084 69.3247 59.039 66.6553Z" fill="url(#paint62_linear_343_7040)"/>
<path d="M56.8881 68.8065C51.0113 62.9297 41.4869 62.9297 35.6102 68.8065C34.1252 70.2915 33.0166 72.0103 32.2822 73.8442C33.4875 73.9986 34.7246 74.1453 35.9881 74.2847C36.5249 73.2171 37.2361 72.2147 38.1272 71.3236C42.6122 66.8386 49.8861 66.8386 54.3711 71.3236C55.6825 72.635 56.6075 74.1856 57.1519 75.8344C58.3902 75.8871 59.6355 75.9353 60.8896 75.9774C60.2696 73.3495 58.9372 70.8556 56.8881 68.8065Z" fill="url(#paint63_linear_343_7040)"/>
<path d="M49.0008 44.5901C49.1928 44.0651 48.9231 43.4836 48.3978 43.2913C47.8728 43.0992 47.2914 43.3689 47.099 43.8942C46.907 44.4192 47.1767 45.0007 47.702 45.1927C48.2273 45.3851 48.8087 45.1154 49.0008 44.5901Z" fill="url(#paint64_linear_343_7040)"/>
<path d="M45.7637 45.4483C45.3493 45.2966 44.8901 45.5098 44.7384 45.9242C44.5866 46.3386 44.7998 46.7977 45.2143 46.9495C45.6287 47.1013 46.0878 46.888 46.2395 46.4736C46.3913 46.0589 46.1781 45.5998 45.7637 45.4483Z" fill="url(#paint65_linear_343_7040)"/>
<path d="M47.2029 49.4566C46.9529 49.3651 46.6761 49.4937 46.5847 49.7437C46.4932 49.9937 46.6217 50.2704 46.8714 50.3619C47.1211 50.4534 47.3982 50.3248 47.4897 50.0751C47.5811 49.8248 47.4526 49.5481 47.2029 49.4566Z" fill="url(#paint66_linear_343_7040)"/>
<path d="M54.2292 49.8313C53.6734 49.8919 53.2719 50.3919 53.3328 50.9478C53.3934 51.5037 53.8934 51.9051 54.4492 51.8442C55.0051 51.7837 55.4066 51.2837 55.3457 50.7278C55.2848 50.1719 54.7851 49.7704 54.2292 49.8313Z" fill="url(#paint67_linear_343_7040)"/>
<path d="M58.4698 42.0171C58.0309 42.0651 57.7142 42.4595 57.7621 42.8983C57.8101 43.3371 58.2045 43.6539 58.6433 43.6059C59.0821 43.558 59.3989 43.1633 59.3509 42.7248C59.303 42.2862 58.9086 41.9692 58.4698 42.0171Z" fill="url(#paint68_linear_343_7040)"/>
<path d="M51.1552 43.3322C50.8905 43.361 50.6996 43.599 50.7285 43.8637C50.7573 44.1281 50.9952 44.3193 51.2599 44.2905C51.5244 44.2616 51.7155 44.0237 51.6867 43.759C51.6576 43.4943 51.4196 43.3034 51.1552 43.3322Z" fill="url(#paint69_linear_343_7040)"/>
<path d="M50.1477 47.6613C49.7612 47.8072 49.5659 48.2389 49.7121 48.6254C49.858 49.0119 50.2897 49.2072 50.6762 49.0613C51.0627 48.9154 51.258 48.4836 51.1121 48.0972C50.9662 47.7107 50.5342 47.5154 50.1477 47.6613Z" fill="url(#paint70_linear_343_7040)"/>
<path d="M50.6913 45.4778C50.386 45.5931 50.2322 45.9337 50.3472 46.239C50.4625 46.5443 50.8031 46.6981 51.1084 46.5831C51.4137 46.4678 51.5675 46.1272 51.4525 45.8219C51.3375 45.5167 50.9966 45.3628 50.6913 45.4778Z" fill="url(#paint71_linear_343_7040)"/>
<path d="M48.4706 46.9507C48.6548 46.8813 48.7474 46.6757 48.678 46.4919C48.6086 46.3078 48.403 46.2151 48.2192 46.2845C48.035 46.3539 47.9424 46.5595 48.0118 46.7433C48.0812 46.9272 48.2865 47.0201 48.4706 46.9507Z" fill="url(#paint72_linear_343_7040)"/>
<path d="M67.1858 39.0642C67.3779 38.5392 67.1082 37.9578 66.5829 37.7654C66.0579 37.5733 65.4764 37.843 65.2841 38.3683C65.092 38.8933 65.3617 39.4748 65.887 39.6672C66.4123 39.8592 66.9938 39.5895 67.1858 39.0642Z" fill="url(#paint73_linear_343_7040)"/>
<path d="M63.5195 48.3588C63.1051 48.2071 62.646 48.4203 62.4942 48.8347C62.3425 49.2491 62.5557 49.7083 62.9701 49.86C63.3845 50.0118 63.8436 49.7986 63.9954 49.3841C64.1469 48.9697 63.9339 48.5106 63.5195 48.3588Z" fill="url(#paint74_linear_343_7040)"/>
<path d="M61.6668 44.1757C61.4168 44.0842 61.14 44.2128 61.0485 44.4628C60.9571 44.7128 61.0856 44.9895 61.3353 45.0807C61.5853 45.1722 61.8621 45.0437 61.9535 44.7939C62.045 44.5437 61.9165 44.2669 61.6668 44.1757Z" fill="url(#paint75_linear_343_7040)"/>
<path d="M72.8347 39.6646C72.2788 39.7251 71.8774 40.2251 71.9382 40.781C71.9988 41.3369 72.4988 41.7384 73.0547 41.6775C73.6106 41.6169 74.012 41.1169 73.9512 40.561C73.8903 40.0051 73.3906 39.6037 72.8347 39.6646Z" fill="url(#paint76_linear_343_7040)"/>
<path d="M72.5394 38.341C72.4915 37.9022 72.0968 37.5854 71.6582 37.6333C71.2194 37.6813 70.9027 38.0757 70.9506 38.5145C70.9985 38.9533 71.393 39.2701 71.8318 39.2222C72.2706 39.1745 72.5874 38.7798 72.5394 38.341Z" fill="url(#paint77_linear_343_7040)"/>
<path d="M69.3408 37.8063C69.0764 37.8352 68.8852 38.0731 68.914 38.3378C68.9428 38.6022 69.1808 38.7934 69.4455 38.7646C69.7099 38.7358 69.9011 38.4978 69.8722 38.2331C69.8431 37.9684 69.6055 37.7775 69.3408 37.8063Z" fill="url(#paint78_linear_343_7040)"/>
<path d="M65.9711 45.3305C65.5846 45.4764 65.3893 45.9081 65.5352 46.2946C65.6811 46.6811 66.1128 46.8764 66.4993 46.7305C66.8858 46.5846 67.0811 46.1528 66.9349 45.7663C66.7893 45.3799 66.3575 45.1846 65.9711 45.3305Z" fill="url(#paint79_linear_343_7040)"/>
<path d="M68.8769 39.9522C68.5716 40.0675 68.4178 40.4081 68.5328 40.7134C68.6481 41.0187 68.9886 41.1725 69.2939 41.0575C69.5992 40.9422 69.7531 40.6016 69.6381 40.2963C69.5228 39.991 69.1819 39.8369 68.8769 39.9522Z" fill="url(#paint80_linear_343_7040)"/>
<path d="M66.6562 41.4248C66.8403 41.3554 66.9329 41.1498 66.8635 40.966C66.7941 40.7819 66.5885 40.6892 66.4047 40.7586C66.2206 40.8281 66.1279 41.0336 66.1974 41.2175C66.2668 41.4013 66.4724 41.4942 66.6562 41.4248Z" fill="url(#paint81_linear_343_7040)"/>
</g>
<defs>
<linearGradient id="paint0_linear_343_7040" x1="76.3026" y1="112.749" x2="76.8517" y2="121.808" gradientUnits="userSpaceOnUse">
<stop stop-color="#F8F6FB"/>
<stop offset="1" stop-color="#EFDCFB"/>
</linearGradient>
<linearGradient id="paint1_linear_343_7040" x1="64.5319" y1="53.2797" x2="104.618" y2="113.001" gradientUnits="userSpaceOnUse">
<stop stop-color="#F8F6FB"/>
<stop offset="1" stop-color="#EFDCFB"/>
</linearGradient>
<linearGradient id="paint2_linear_343_7040" x1="66.8825" y1="27.9224" x2="77.4707" y2="70.6677" gradientUnits="userSpaceOnUse">
<stop stop-color="#F8F6FB"/>
<stop offset="1" stop-color="#EFDCFB"/>
</linearGradient>
<linearGradient id="paint3_linear_343_7040" x1="77.9957" y1="28.9103" x2="77.9957" y2="49.8062" gradientUnits="userSpaceOnUse">
<stop stop-color="#BADA00"/>
<stop offset="0.2269" stop-color="#B0CE00"/>
<stop offset="0.6378" stop-color="#95AE00"/>
<stop offset="1" stop-color="#798C00"/>
</linearGradient>
<linearGradient id="paint4_linear_343_7040" x1="110.956" y1="41.5185" x2="114.191" y2="47.9891" gradientUnits="userSpaceOnUse">
<stop stop-color="#8A7889"/>
<stop offset="0.3344" stop-color="#867385"/>
<stop offset="0.7039" stop-color="#7B667B"/>
<stop offset="1" stop-color="#6E566E"/>
</linearGradient>
<linearGradient id="paint5_linear_343_7040" x1="69.0966" y1="31.0809" x2="72.3319" y2="37.5515" gradientUnits="userSpaceOnUse">
<stop stop-color="#8A7889"/>
<stop offset="0.3344" stop-color="#867385"/>
<stop offset="0.7039" stop-color="#7B667B"/>
<stop offset="1" stop-color="#6E566E"/>
</linearGradient>
<linearGradient id="paint6_linear_343_7040" x1="103.631" y1="41.3824" x2="103.631" y2="52.2619" gradientUnits="userSpaceOnUse">
<stop stop-color="#F8F6FB"/>
<stop offset="1" stop-color="#EFDCFB"/>
</linearGradient>
<linearGradient id="paint7_linear_343_7040" x1="70.0442" y1="58.0138" x2="64.5212" y2="25.555" gradientUnits="userSpaceOnUse">
<stop stop-color="#798C00" stop-opacity="0"/>
<stop offset="0.6542" stop-color="#556100" stop-opacity="0.654"/>
<stop offset="1" stop-color="#464F00"/>
</linearGradient>
<linearGradient id="paint8_linear_343_7040" x1="75.9935" y1="94.1462" x2="75.9935" y2="-12.2109" gradientUnits="userSpaceOnUse">
<stop stop-color="#EFDCFB" stop-opacity="0"/>
<stop offset="0.0287" stop-color="#E9D6F7" stop-opacity="0.029"/>
<stop offset="0.2203" stop-color="#C5B5DE" stop-opacity="0.22"/>
<stop offset="0.4138" stop-color="#AA9BCB" stop-opacity="0.414"/>
<stop offset="0.6078" stop-color="#9688BD" stop-opacity="0.608"/>
<stop offset="0.8028" stop-color="#8A7DB5" stop-opacity="0.803"/>
<stop offset="1" stop-color="#8679B2"/>
</linearGradient>
<linearGradient id="paint9_linear_343_7040" x1="100.915" y1="96.7033" x2="113.084" y2="104.816" gradientUnits="userSpaceOnUse">
<stop stop-color="#FF6359"/>
<stop offset="0.2243" stop-color="#FE5B50"/>
<stop offset="0.5952" stop-color="#FC4637"/>
<stop offset="1" stop-color="#F82814"/>
</linearGradient>
<linearGradient id="paint10_linear_343_7040" x1="98.0937" y1="53.7685" x2="100.047" y2="76.6244" gradientUnits="userSpaceOnUse">
<stop stop-color="#BADA00"/>
<stop offset="0.2269" stop-color="#B0CE00"/>
<stop offset="0.6378" stop-color="#95AE00"/>
<stop offset="1" stop-color="#798C00"/>
</linearGradient>
<linearGradient id="paint11_linear_343_7040" x1="62.0976" y1="30.715" x2="54.8942" y2="51.7374" gradientUnits="userSpaceOnUse">
<stop stop-color="#FFD945"/>
<stop offset="0.3126" stop-color="#FFD643"/>
<stop offset="0.5593" stop-color="#FFCC3D"/>
<stop offset="0.7826" stop-color="#FFBB33"/>
<stop offset="0.9922" stop-color="#FFA426"/>
<stop offset="1" stop-color="#FFA325"/>
</linearGradient>
<linearGradient id="paint12_linear_343_7040" x1="52.3286" y1="59.3437" x2="58.3206" y2="41.8567" gradientUnits="userSpaceOnUse">
<stop stop-color="#FFD945"/>
<stop offset="0.3126" stop-color="#FFD643"/>
<stop offset="0.5593" stop-color="#FFCC3D"/>
<stop offset="0.7826" stop-color="#FFBB33"/>
<stop offset="0.9922" stop-color="#FFA426"/>
<stop offset="1" stop-color="#FFA325"/>
</linearGradient>
<linearGradient id="paint13_linear_343_7040" x1="122.604" y1="40.4021" x2="130.422" y2="56.3698" gradientUnits="userSpaceOnUse">
<stop stop-color="#FF6359"/>
<stop offset="0.2243" stop-color="#FE5B50"/>
<stop offset="0.5952" stop-color="#FC4637"/>
<stop offset="1" stop-color="#F82814"/>
</linearGradient>
<linearGradient id="paint14_linear_343_7040" x1="142.591" y1="66.43" x2="124.056" y2="47.895" gradientUnits="userSpaceOnUse">
<stop stop-color="#FF6359"/>
<stop offset="0.2243" stop-color="#FE5B50"/>
<stop offset="0.5952" stop-color="#FC4637"/>
<stop offset="1" stop-color="#F82814"/>
</linearGradient>
<linearGradient id="paint15_linear_343_7040" x1="88.0764" y1="33.4574" x2="84.5187" y2="39.0967" gradientUnits="userSpaceOnUse">
<stop stop-color="#FF6359"/>
<stop offset="0.2243" stop-color="#FE5B50"/>
<stop offset="0.5952" stop-color="#FC4637"/>
<stop offset="1" stop-color="#F82814"/>
</linearGradient>
<linearGradient id="paint16_linear_343_7040" x1="80.3113" y1="38.4768" x2="78.6178" y2="41.1609" gradientUnits="userSpaceOnUse">
<stop stop-color="#FF6359"/>
<stop offset="0.2243" stop-color="#FE5B50"/>
<stop offset="0.5952" stop-color="#FC4637"/>
<stop offset="1" stop-color="#F82814"/>
</linearGradient>
<linearGradient id="paint17_linear_343_7040" x1="89.0631" y1="38.415" x2="87.3697" y2="41.0991" gradientUnits="userSpaceOnUse">
<stop stop-color="#FF6359"/>
<stop offset="0.2243" stop-color="#FE5B50"/>
<stop offset="0.5952" stop-color="#FC4637"/>
<stop offset="1" stop-color="#F82814"/>
</linearGradient>
<linearGradient id="paint18_linear_343_7040" x1="94.4747" y1="35.8145" x2="92.7814" y2="38.4989" gradientUnits="userSpaceOnUse">
<stop stop-color="#FF6359"/>
<stop offset="0.2243" stop-color="#FE5B50"/>
<stop offset="0.5952" stop-color="#FC4637"/>
<stop offset="1" stop-color="#F82814"/>
</linearGradient>
<linearGradient id="paint19_linear_343_7040" x1="80.8886" y1="40.5666" x2="78.2595" y2="44.7345" gradientUnits="userSpaceOnUse">
<stop stop-color="#FF6359"/>
<stop offset="0.2243" stop-color="#FE5B50"/>
<stop offset="0.5952" stop-color="#FC4637"/>
<stop offset="1" stop-color="#F82814"/>
</linearGradient>
<linearGradient id="paint20_linear_343_7040" x1="84.2797" y1="36.1839" x2="82.2042" y2="39.4739" gradientUnits="userSpaceOnUse">
<stop stop-color="#FF6359"/>
<stop offset="0.2243" stop-color="#FE5B50"/>
<stop offset="0.5952" stop-color="#FC4637"/>
<stop offset="1" stop-color="#F82814"/>
</linearGradient>
<linearGradient id="paint21_linear_343_7040" x1="91.576" y1="33.2433" x2="89.5002" y2="36.5334" gradientUnits="userSpaceOnUse">
<stop stop-color="#FF6359"/>
<stop offset="0.2243" stop-color="#FE5B50"/>
<stop offset="0.5952" stop-color="#FC4637"/>
<stop offset="1" stop-color="#F82814"/>
</linearGradient>
<linearGradient id="paint22_linear_343_7040" x1="86.1319" y1="37.8381" x2="84.8805" y2="39.8219" gradientUnits="userSpaceOnUse">
<stop stop-color="#FF6359"/>
<stop offset="0.2243" stop-color="#FE5B50"/>
<stop offset="0.5952" stop-color="#FC4637"/>
<stop offset="1" stop-color="#F82814"/>
</linearGradient>
<linearGradient id="paint23_linear_343_7040" x1="84.3505" y1="38.0245" x2="78.198" y2="55.9798" gradientUnits="userSpaceOnUse">
<stop stop-color="#FFD945"/>
<stop offset="0.3126" stop-color="#FFD643"/>
<stop offset="0.5593" stop-color="#FFCC3D"/>
<stop offset="0.7826" stop-color="#FFBB33"/>
<stop offset="0.9922" stop-color="#FFA426"/>
<stop offset="1" stop-color="#FFA325"/>
</linearGradient>
<linearGradient id="paint24_linear_343_7040" x1="76.0089" y1="62.4887" x2="81.1265" y2="47.5534" gradientUnits="userSpaceOnUse">
<stop stop-color="#FFD945"/>
<stop offset="0.3126" stop-color="#FFD643"/>
<stop offset="0.5593" stop-color="#FFCC3D"/>
<stop offset="0.7826" stop-color="#FFBB33"/>
<stop offset="0.9922" stop-color="#FFA426"/>
<stop offset="1" stop-color="#FFA325"/>
</linearGradient>
<linearGradient id="paint25_linear_343_7040" x1="43.542" y1="41.0665" x2="46.7714" y2="58.4075" gradientUnits="userSpaceOnUse">
<stop stop-color="#FF6359"/>
<stop offset="0.2243" stop-color="#FE5B50"/>
<stop offset="0.5952" stop-color="#FC4637"/>
<stop offset="1" stop-color="#F82814"/>
</linearGradient>
<linearGradient id="paint26_linear_343_7040" x1="119.283" y1="35.1631" x2="112.08" y2="56.1855" gradientUnits="userSpaceOnUse">
<stop stop-color="#FFDECF"/>
<stop offset="0.3791" stop-color="#FDC4B0"/>
<stop offset="0.7655" stop-color="#FBAE97"/>
<stop offset="1" stop-color="#FAA68E"/>
</linearGradient>
<linearGradient id="paint27_linear_343_7040" x1="109.514" y1="63.7917" x2="115.506" y2="46.3046" gradientUnits="userSpaceOnUse">
<stop stop-color="#FFDECF"/>
<stop offset="0.3791" stop-color="#FDC4B0"/>
<stop offset="0.7655" stop-color="#FBAE97"/>
<stop offset="1" stop-color="#FAA68E"/>
</linearGradient>
<linearGradient id="paint28_linear_343_7040" x1="30.1025" y1="40.0925" x2="23.9539" y2="58.0364" gradientUnits="userSpaceOnUse">
<stop stop-color="#FFDECF"/>
<stop offset="0.3791" stop-color="#FDC4B0"/>
<stop offset="0.7655" stop-color="#FBAE97"/>
<stop offset="1" stop-color="#FAA68E"/>
</linearGradient>
<linearGradient id="paint29_linear_343_7040" x1="21.7655" y1="64.5415" x2="26.88" y2="49.6155" gradientUnits="userSpaceOnUse">
<stop stop-color="#FFDECF"/>
<stop offset="0.3791" stop-color="#FDC4B0"/>
<stop offset="0.7655" stop-color="#FBAE97"/>
<stop offset="1" stop-color="#FAA68E"/>
</linearGradient>
<linearGradient id="paint30_linear_343_7040" x1="98.0934" y1="53.768" x2="100.047" y2="76.6218" gradientUnits="userSpaceOnUse">
<stop stop-color="#BADA00"/>
<stop offset="0.2269" stop-color="#B0CE00"/>
<stop offset="0.6378" stop-color="#95AE00"/>
<stop offset="1" stop-color="#798C00"/>
</linearGradient>
<linearGradient id="paint31_linear_343_7040" x1="110.409" y1="65.2748" x2="109.527" y2="29.0004" gradientUnits="userSpaceOnUse">
<stop stop-color="#798C00" stop-opacity="0"/>
<stop offset="0.6542" stop-color="#556100" stop-opacity="0.654"/>
<stop offset="1" stop-color="#464F00"/>
</linearGradient>
<linearGradient id="paint32_linear_343_7040" x1="97.0719" y1="79.2627" x2="67.344" y2="55.9468" gradientUnits="userSpaceOnUse">
<stop stop-color="#798C00" stop-opacity="0"/>
<stop offset="0.6542" stop-color="#556100" stop-opacity="0.654"/>
<stop offset="1" stop-color="#464F00"/>
</linearGradient>
<linearGradient id="paint33_linear_343_7040" x1="92.0497" y1="58.1021" x2="95.285" y2="64.5727" gradientUnits="userSpaceOnUse">
<stop stop-color="#8A7889"/>
<stop offset="0.3344" stop-color="#867385"/>
<stop offset="0.7039" stop-color="#7B667B"/>
<stop offset="1" stop-color="#6E566E"/>
</linearGradient>
<linearGradient id="paint34_linear_343_7040" x1="120.725" y1="60.1397" x2="123.96" y2="66.6103" gradientUnits="userSpaceOnUse">
<stop stop-color="#8A7889"/>
<stop offset="0.3344" stop-color="#867385"/>
<stop offset="0.7039" stop-color="#7B667B"/>
<stop offset="1" stop-color="#6E566E"/>
</linearGradient>
<linearGradient id="paint35_linear_343_7040" x1="93.0255" y1="43.1114" x2="92.5218" y2="47.8768" gradientUnits="userSpaceOnUse">
<stop stop-color="#FFDECF"/>
<stop offset="0.3791" stop-color="#FDC4B0"/>
<stop offset="0.7655" stop-color="#FBAE97"/>
<stop offset="1" stop-color="#FAA68E"/>
</linearGradient>
<linearGradient id="paint36_linear_343_7040" x1="89.7786" y1="43.1834" x2="89.3807" y2="46.9453" gradientUnits="userSpaceOnUse">
<stop stop-color="#FFDECF"/>
<stop offset="0.3791" stop-color="#FDC4B0"/>
<stop offset="0.7655" stop-color="#FBAE97"/>
<stop offset="1" stop-color="#FAA68E"/>
</linearGradient>
<linearGradient id="paint37_linear_343_7040" x1="88.4064" y1="47.4606" x2="88.1666" y2="49.7289" gradientUnits="userSpaceOnUse">
<stop stop-color="#FFDECF"/>
<stop offset="0.3791" stop-color="#FDC4B0"/>
<stop offset="0.7655" stop-color="#FBAE97"/>
<stop offset="1" stop-color="#FAA68E"/>
</linearGradient>
<linearGradient id="paint38_linear_343_7040" x1="93.3124" y1="52.2199" x2="92.8085" y2="56.9855" gradientUnits="userSpaceOnUse">
<stop stop-color="#FFDECF"/>
<stop offset="0.3791" stop-color="#FDC4B0"/>
<stop offset="0.7655" stop-color="#FBAE97"/>
<stop offset="1" stop-color="#FAA68E"/>
</linearGradient>
<linearGradient id="paint39_linear_343_7040" x1="101.773" y1="49.376" x2="101.376" y2="53.1383" gradientUnits="userSpaceOnUse">
<stop stop-color="#FFDECF"/>
<stop offset="0.3791" stop-color="#FDC4B0"/>
<stop offset="0.7655" stop-color="#FBAE97"/>
<stop offset="1" stop-color="#FAA68E"/>
</linearGradient>
<linearGradient id="paint40_linear_343_7040" x1="95.5806" y1="45.6995" x2="95.3408" y2="47.9678" gradientUnits="userSpaceOnUse">
<stop stop-color="#FFDECF"/>
<stop offset="0.3791" stop-color="#FDC4B0"/>
<stop offset="0.7655" stop-color="#FBAE97"/>
<stop offset="1" stop-color="#FAA68E"/>
</linearGradient>
<linearGradient id="paint41_linear_343_7040" x1="91.9951" y1="48.1549" x2="91.6227" y2="51.6766" gradientUnits="userSpaceOnUse">
<stop stop-color="#FFDECF"/>
<stop offset="0.3791" stop-color="#FDC4B0"/>
<stop offset="0.7655" stop-color="#FBAE97"/>
<stop offset="1" stop-color="#FAA68E"/>
</linearGradient>
<linearGradient id="paint42_linear_343_7040" x1="93.8888" y1="46.9831" x2="93.5948" y2="49.7634" gradientUnits="userSpaceOnUse">
<stop stop-color="#FFDECF"/>
<stop offset="0.3791" stop-color="#FDC4B0"/>
<stop offset="0.7655" stop-color="#FBAE97"/>
<stop offset="1" stop-color="#FAA68E"/>
</linearGradient>
<linearGradient id="paint43_linear_343_7040" x1="91.5563" y1="46.0714" x2="91.3791" y2="47.7476" gradientUnits="userSpaceOnUse">
<stop stop-color="#FFDECF"/>
<stop offset="0.3791" stop-color="#FDC4B0"/>
<stop offset="0.7655" stop-color="#FBAE97"/>
<stop offset="1" stop-color="#FAA68E"/>
</linearGradient>
<linearGradient id="paint44_linear_343_7040" x1="110.259" y1="51.1239" x2="109.755" y2="55.8893" gradientUnits="userSpaceOnUse">
<stop stop-color="#FFDECF"/>
<stop offset="0.3791" stop-color="#FDC4B0"/>
<stop offset="0.7655" stop-color="#FBAE97"/>
<stop offset="1" stop-color="#FAA68E"/>
</linearGradient>
<linearGradient id="paint45_linear_343_7040" x1="101.065" y1="57.195" x2="100.667" y2="60.9571" gradientUnits="userSpaceOnUse">
<stop stop-color="#FFDECF"/>
<stop offset="0.3791" stop-color="#FDC4B0"/>
<stop offset="0.7655" stop-color="#FBAE97"/>
<stop offset="1" stop-color="#FAA68E"/>
</linearGradient>
<linearGradient id="paint46_linear_343_7040" x1="102.704" y1="53.1738" x2="102.464" y2="55.4417" gradientUnits="userSpaceOnUse">
<stop stop-color="#FFDECF"/>
<stop offset="0.3791" stop-color="#FDC4B0"/>
<stop offset="0.7655" stop-color="#FBAE97"/>
<stop offset="1" stop-color="#FAA68E"/>
</linearGradient>
<linearGradient id="paint47_linear_343_7040" x1="113.954" y1="57.0553" x2="113.45" y2="61.8209" gradientUnits="userSpaceOnUse">
<stop stop-color="#FFDECF"/>
<stop offset="0.3791" stop-color="#FDC4B0"/>
<stop offset="0.7655" stop-color="#FBAE97"/>
<stop offset="1" stop-color="#FAA68E"/>
</linearGradient>
<linearGradient id="paint48_linear_343_7040" x1="114.522" y1="54.9064" x2="114.124" y2="58.6688" gradientUnits="userSpaceOnUse">
<stop stop-color="#FFDECF"/>
<stop offset="0.3791" stop-color="#FDC4B0"/>
<stop offset="0.7655" stop-color="#FBAE97"/>
<stop offset="1" stop-color="#FAA68E"/>
</linearGradient>
<linearGradient id="paint49_linear_343_7040" x1="112.814" y1="53.7122" x2="112.574" y2="55.9805" gradientUnits="userSpaceOnUse">
<stop stop-color="#FFDECF"/>
<stop offset="0.3791" stop-color="#FDC4B0"/>
<stop offset="0.7655" stop-color="#FBAE97"/>
<stop offset="1" stop-color="#FAA68E"/>
</linearGradient>
<linearGradient id="paint50_linear_343_7040" x1="105.338" y1="56.9729" x2="104.966" y2="60.4946" gradientUnits="userSpaceOnUse">
<stop stop-color="#FFDECF"/>
<stop offset="0.3791" stop-color="#FDC4B0"/>
<stop offset="0.7655" stop-color="#FBAE97"/>
<stop offset="1" stop-color="#FAA68E"/>
</linearGradient>
<linearGradient id="paint51_linear_343_7040" x1="111.122" y1="54.9956" x2="110.828" y2="57.776" gradientUnits="userSpaceOnUse">
<stop stop-color="#FFDECF"/>
<stop offset="0.3791" stop-color="#FDC4B0"/>
<stop offset="0.7655" stop-color="#FBAE97"/>
<stop offset="1" stop-color="#FAA68E"/>
</linearGradient>
<linearGradient id="paint52_linear_343_7040" x1="108.79" y1="54.084" x2="108.613" y2="55.7603" gradientUnits="userSpaceOnUse">
<stop stop-color="#FFDECF"/>
<stop offset="0.3791" stop-color="#FDC4B0"/>
<stop offset="0.7655" stop-color="#FBAE97"/>
<stop offset="1" stop-color="#FAA68E"/>
</linearGradient>
<linearGradient id="paint53_linear_343_7040" x1="79.2769" y1="58.8094" x2="84.8283" y2="76.3409" gradientUnits="userSpaceOnUse">
<stop stop-color="#F8F6FB"/>
<stop offset="1" stop-color="#EFDCFB"/>
</linearGradient>
<linearGradient id="paint54_linear_343_7040" x1="78.7173" y1="59.4532" x2="94.0085" y2="131.526" gradientUnits="userSpaceOnUse">
<stop stop-color="#EFDCFB" stop-opacity="0"/>
<stop offset="0.0287" stop-color="#E9D6F7" stop-opacity="0.029"/>
<stop offset="0.2203" stop-color="#C5B5DE" stop-opacity="0.22"/>
<stop offset="0.4138" stop-color="#AA9BCB" stop-opacity="0.414"/>
<stop offset="0.6078" stop-color="#9688BD" stop-opacity="0.608"/>
<stop offset="0.8028" stop-color="#8A7DB5" stop-opacity="0.803"/>
<stop offset="1" stop-color="#8679B2"/>
</linearGradient>
<linearGradient id="paint55_linear_343_7040" x1="69.7471" y1="55.3116" x2="82.6036" y2="68.5574" gradientUnits="userSpaceOnUse">
<stop stop-color="#FFD945"/>
<stop offset="0.3126" stop-color="#FFD643"/>
<stop offset="0.5593" stop-color="#FFCC3D"/>
<stop offset="0.7826" stop-color="#FFBB33"/>
<stop offset="0.9922" stop-color="#FFA426"/>
<stop offset="1" stop-color="#FFA325"/>
</linearGradient>
<linearGradient id="paint56_linear_343_7040" x1="42.2057" y1="62.9633" x2="41.8134" y2="80.0221" gradientUnits="userSpaceOnUse">
<stop stop-color="#BADA00"/>
<stop offset="0.2269" stop-color="#B0CE00"/>
<stop offset="0.6378" stop-color="#95AE00"/>
<stop offset="1" stop-color="#798C00"/>
</linearGradient>
<linearGradient id="paint57_linear_343_7040" x1="128.776" y1="82.5003" x2="114.02" y2="67.7448" gradientUnits="userSpaceOnUse">
<stop stop-color="#798C00" stop-opacity="0"/>
<stop offset="0.6542" stop-color="#556100" stop-opacity="0.654"/>
<stop offset="1" stop-color="#464F00"/>
</linearGradient>
<linearGradient id="paint58_linear_343_7040" x1="114.997" y1="65.6044" x2="118.449" y2="72.6568" gradientUnits="userSpaceOnUse">
<stop stop-color="#FF6359"/>
<stop offset="0.2243" stop-color="#FE5B50"/>
<stop offset="0.5952" stop-color="#FC4637"/>
<stop offset="1" stop-color="#F82814"/>
</linearGradient>
<linearGradient id="paint59_linear_343_7040" x1="106.138" y1="69.3434" x2="108.673" y2="76.3839" gradientUnits="userSpaceOnUse">
<stop stop-color="#FFA936"/>
<stop offset="0.4112" stop-color="#FF8548"/>
<stop offset="0.7781" stop-color="#FF6C54"/>
<stop offset="1" stop-color="#FF6359"/>
</linearGradient>
<linearGradient id="paint60_linear_343_7040" x1="48.8566" y1="76.4121" x2="48.9281" y2="63.8986" gradientUnits="userSpaceOnUse">
<stop stop-color="#798C00" stop-opacity="0"/>
<stop offset="0.6542" stop-color="#556100" stop-opacity="0.654"/>
<stop offset="1" stop-color="#464F00"/>
</linearGradient>
<linearGradient id="paint61_linear_343_7040" x1="28.9677" y1="58.1021" x2="32.203" y2="64.5727" gradientUnits="userSpaceOnUse">
<stop stop-color="#8A7889"/>
<stop offset="0.3344" stop-color="#867385"/>
<stop offset="0.7039" stop-color="#7B667B"/>
<stop offset="1" stop-color="#6E566E"/>
</linearGradient>
<linearGradient id="paint62_linear_343_7040" x1="41.1775" y1="62.923" x2="47.3557" y2="75.5427" gradientUnits="userSpaceOnUse">
<stop stop-color="#FFDECF"/>
<stop offset="0.3791" stop-color="#FDC4B0"/>
<stop offset="0.7655" stop-color="#FBAE97"/>
<stop offset="1" stop-color="#FAA68E"/>
</linearGradient>
<linearGradient id="paint63_linear_343_7040" x1="50.9937" y1="77.7336" x2="35.456" y2="62.1962" gradientUnits="userSpaceOnUse">
<stop stop-color="#FFDECF"/>
<stop offset="0.3791" stop-color="#FDC4B0"/>
<stop offset="0.7655" stop-color="#FBAE97"/>
<stop offset="1" stop-color="#FAA68E"/>
</linearGradient>
<linearGradient id="paint64_linear_343_7040" x1="47.1484" y1="42.9922" x2="49.952" y2="46.8786" gradientUnits="userSpaceOnUse">
<stop stop-color="#FFDECF"/>
<stop offset="0.3791" stop-color="#FDC4B0"/>
<stop offset="0.7655" stop-color="#FBAE97"/>
<stop offset="1" stop-color="#FAA68E"/>
</linearGradient>
<linearGradient id="paint65_linear_343_7040" x1="44.7772" y1="45.2119" x2="46.9901" y2="48.2801" gradientUnits="userSpaceOnUse">
<stop stop-color="#FFDECF"/>
<stop offset="0.3791" stop-color="#FDC4B0"/>
<stop offset="0.7655" stop-color="#FBAE97"/>
<stop offset="1" stop-color="#FAA68E"/>
</linearGradient>
<linearGradient id="paint66_linear_343_7040" x1="46.6079" y1="49.3142" x2="47.9423" y2="51.164" gradientUnits="userSpaceOnUse">
<stop stop-color="#FFDECF"/>
<stop offset="0.3791" stop-color="#FDC4B0"/>
<stop offset="0.7655" stop-color="#FBAE97"/>
<stop offset="1" stop-color="#FAA68E"/>
</linearGradient>
<linearGradient id="paint67_linear_343_7040" x1="53.4375" y1="49.5875" x2="56.241" y2="53.4742" gradientUnits="userSpaceOnUse">
<stop stop-color="#FFDECF"/>
<stop offset="0.3791" stop-color="#FDC4B0"/>
<stop offset="0.7655" stop-color="#FBAE97"/>
<stop offset="1" stop-color="#FAA68E"/>
</linearGradient>
<linearGradient id="paint68_linear_343_7040" x1="57.8445" y1="41.8248" x2="60.058" y2="44.8933" gradientUnits="userSpaceOnUse">
<stop stop-color="#FFDECF"/>
<stop offset="0.3791" stop-color="#FDC4B0"/>
<stop offset="0.7655" stop-color="#FBAE97"/>
<stop offset="1" stop-color="#FAA68E"/>
</linearGradient>
<linearGradient id="paint69_linear_343_7040" x1="50.7785" y1="43.216" x2="52.1126" y2="45.0661" gradientUnits="userSpaceOnUse">
<stop stop-color="#FFDECF"/>
<stop offset="0.3791" stop-color="#FDC4B0"/>
<stop offset="0.7655" stop-color="#FBAE97"/>
<stop offset="1" stop-color="#FAA68E"/>
</linearGradient>
<linearGradient id="paint70_linear_343_7040" x1="49.7453" y1="47.4375" x2="51.8171" y2="50.3098" gradientUnits="userSpaceOnUse">
<stop stop-color="#FFDECF"/>
<stop offset="0.3791" stop-color="#FDC4B0"/>
<stop offset="0.7655" stop-color="#FBAE97"/>
<stop offset="1" stop-color="#FAA68E"/>
</linearGradient>
<linearGradient id="paint71_linear_343_7040" x1="50.374" y1="45.3011" x2="52.0096" y2="47.5687" gradientUnits="userSpaceOnUse">
<stop stop-color="#FFDECF"/>
<stop offset="0.3791" stop-color="#FDC4B0"/>
<stop offset="0.7655" stop-color="#FBAE97"/>
<stop offset="1" stop-color="#FAA68E"/>
</linearGradient>
<linearGradient id="paint72_linear_343_7040" x1="48.0277" y1="46.1778" x2="49.0139" y2="47.5448" gradientUnits="userSpaceOnUse">
<stop stop-color="#FFDECF"/>
<stop offset="0.3791" stop-color="#FDC4B0"/>
<stop offset="0.7655" stop-color="#FBAE97"/>
<stop offset="1" stop-color="#FAA68E"/>
</linearGradient>
<linearGradient id="paint73_linear_343_7040" x1="65.3335" y1="37.4663" x2="68.137" y2="41.3528" gradientUnits="userSpaceOnUse">
<stop stop-color="#FFDECF"/>
<stop offset="0.3791" stop-color="#FDC4B0"/>
<stop offset="0.7655" stop-color="#FBAE97"/>
<stop offset="1" stop-color="#FAA68E"/>
</linearGradient>
<linearGradient id="paint74_linear_343_7040" x1="62.5328" y1="48.1227" x2="64.746" y2="51.1909" gradientUnits="userSpaceOnUse">
<stop stop-color="#FFDECF"/>
<stop offset="0.3791" stop-color="#FDC4B0"/>
<stop offset="0.7655" stop-color="#FBAE97"/>
<stop offset="1" stop-color="#FAA68E"/>
</linearGradient>
<linearGradient id="paint75_linear_343_7040" x1="61.0721" y1="44.0331" x2="62.4062" y2="45.8828" gradientUnits="userSpaceOnUse">
<stop stop-color="#FFDECF"/>
<stop offset="0.3791" stop-color="#FDC4B0"/>
<stop offset="0.7655" stop-color="#FBAE97"/>
<stop offset="1" stop-color="#FAA68E"/>
</linearGradient>
<linearGradient id="paint76_linear_343_7040" x1="72.0429" y1="39.4207" x2="74.8465" y2="43.3075" gradientUnits="userSpaceOnUse">
<stop stop-color="#FFDECF"/>
<stop offset="0.3791" stop-color="#FDC4B0"/>
<stop offset="0.7655" stop-color="#FBAE97"/>
<stop offset="1" stop-color="#FAA68E"/>
</linearGradient>
<linearGradient id="paint77_linear_343_7040" x1="71.033" y1="37.441" x2="73.2465" y2="40.5092" gradientUnits="userSpaceOnUse">
<stop stop-color="#FFDECF"/>
<stop offset="0.3791" stop-color="#FDC4B0"/>
<stop offset="0.7655" stop-color="#FBAE97"/>
<stop offset="1" stop-color="#FAA68E"/>
</linearGradient>
<linearGradient id="paint78_linear_343_7040" x1="68.964" y1="37.6905" x2="70.2984" y2="39.5402" gradientUnits="userSpaceOnUse">
<stop stop-color="#FFDECF"/>
<stop offset="0.3791" stop-color="#FDC4B0"/>
<stop offset="0.7655" stop-color="#FBAE97"/>
<stop offset="1" stop-color="#FAA68E"/>
</linearGradient>
<linearGradient id="paint79_linear_343_7040" x1="65.5687" y1="45.1066" x2="67.6405" y2="47.979" gradientUnits="userSpaceOnUse">
<stop stop-color="#FFDECF"/>
<stop offset="0.3791" stop-color="#FDC4B0"/>
<stop offset="0.7655" stop-color="#FBAE97"/>
<stop offset="1" stop-color="#FAA68E"/>
</linearGradient>
<linearGradient id="paint80_linear_343_7040" x1="68.5592" y1="39.7754" x2="70.1948" y2="42.0428" gradientUnits="userSpaceOnUse">
<stop stop-color="#FFDECF"/>
<stop offset="0.3791" stop-color="#FDC4B0"/>
<stop offset="0.7655" stop-color="#FBAE97"/>
<stop offset="1" stop-color="#FAA68E"/>
</linearGradient>
<linearGradient id="paint81_linear_343_7040" x1="66.2132" y1="40.6519" x2="67.1994" y2="42.0189" gradientUnits="userSpaceOnUse">
<stop stop-color="#FFDECF"/>
<stop offset="0.3791" stop-color="#FDC4B0"/>
<stop offset="0.7655" stop-color="#FBAE97"/>
<stop offset="1" stop-color="#FAA68E"/>
</linearGradient>
<clipPath id="clip0_343_7040">
<rect width="150" height="150" fill="white" transform="translate(0.993652 0.0159912)"/>
</clipPath>
</defs>
</svg>
