<svg width="151" height="96" fill="none" xmlns="http://www.w3.org/2000/svg"><path d="M75.994 85.544c-12.383 0-23.746-1.833-32.647-4.89 1.28 5.065 3.686 8.896 6.653 10.122 6.695 2.767 15.87 4.473 25.994 4.473 10.123 0 19.299-1.706 25.994-4.473 2.966-1.226 5.372-5.057 6.653-10.122-8.901 3.057-20.265 4.89-32.647 4.89Z" fill="url(#a)"/><path d="M150.994 37.705c0-20.846-150-20.846-150 0s17.625 51.414 75 51.414c57.374 0 75-30.568 75-51.414Z" fill="url(#b)"/><path d="M150.994 37.705c0 20.846-150 20.846-150 0s150-20.846 150 0Z" fill="url(#c)"/><path d="M130.111 22.599c0 22.27-104.23 22.27-104.23 0 0-3.84 3.1-7.017 8.229-9.533 1.863-.914 3.582-2.397 5.018-4.408l.154-.216c3.125-4.373 7.648-5.6 11.584-3.143l.003.002c3.363 2.1 7.196 1.535 10.227-1.507l.288-.289c3.342-3.353 7.64-3.628 11.158-.714l.268.222c3.231 2.677 7.143 2.677 10.374.001l.27-.224c3.519-2.913 7.817-2.637 11.159.717l.35.351c3.013 3.025 6.83 3.566 10.164 1.442 3.907-2.49 8.418-1.29 11.528 3.065l.209.293c1.437 2.011 3.155 3.495 5.018 4.408 5.129 2.516 8.229 5.693 8.229 9.533Z" fill="url(#d)"/><path d="M113.792 14.753a5.437 5.437 0 1 0 0 10.873 5.437 5.437 0 0 0 0-10.873Zm0 7.745a2.308 2.308 0 1 1 0-4.615 2.308 2.308 0 0 1 0 4.615Z" fill="url(#e)"/><path d="M71.932 4.315a5.437 5.437 0 1 0 0 10.874 5.437 5.437 0 0 0 0-10.874Zm0 7.745a2.308 2.308 0 1 1 0-4.616 2.308 2.308 0 0 1 0 4.616Z" fill="url(#f)"/><path d="M103.631 34.622c5.612 0 10.161-4.55 10.161-10.16 0-5.612-4.549-10.16-10.161-10.16-5.61 0-10.16 4.548-10.16 10.16 0 5.61 4.55 10.16 10.16 10.16Z" fill="url(#g)"/><path d="M100.771 37.794 69.521 6.527c-1.956-1.956-4.28-2.727-6.723-3.6-.497.347-.949.112-1.413.578l-.289.29C58.066 6.834 54.232 7.4 50.87 5.3l-.003-.002c-1.243-.776-2.25-.733-3.548-.79-1.093.696-2.077 1.351-3.03 2.305-7.064 7.064-7.41 18.23-.347 25.294l4.538 4.538c15.322 3.103 35.718 3.487 52.292 1.148Z" fill="url(#h)"/><path d="M144.8 37.705c0 15.362-137.613 15.362-137.613 0 0-15.363 137.613-15.363 137.613 0Z" fill="url(#i)"/><path d="M2.874 49.783a45.095 45.095 0 0 0 4.122 9.36c25.8 11.26 112.195 11.26 137.995 0a45.045 45.045 0 0 0 4.122-9.36c-19.91 14.275-126.329 14.275-146.24 0Z" fill="url(#j)"/><path d="M144.726 37.106c-.144 1.018-.518 2.006-1.094 2.962-2.225 2.16-7.501 3.939-14.749 5.334-3.953.762-8.493-.061-13.445.473-4.49.484-9.318 2.345-14.354 2.642-7.73.456-15.95.692-24.188.707-7.294.018-23.03-2.847-23.176-4.235-.38-3.574 2.017-6.818 6.25-9.633.468-.309.92-.667 1.35-1.073.985-.927 1.867-2.097 2.603-3.492l.112-.214c1.138-2.156 2.65-3.627 4.335-4.333 1.45-.605 3.026-.64 4.603-.052.291.108.582.238.87.39l.003.004c2.327 1.217 4.739 1.05 6.786-.38.717-.5 1.39-1.159 2-1.965l.223-.297c2.591-3.429 6.318-4.082 9.677-1.694l.255.183c3.086 2.194 6.503 1.835 9.062-.953l.215-.236c2.785-3.035 6.568-3.173 9.815-.358l.341.294c2.929 2.538 6.315 2.69 9.02.406 1.28-1.08 2.703-1.612 4.153-1.612 2.142 0 4.342 1.156 6.218 3.403l.209.253c1.453 1.738 3.1 2.962 4.818 3.64 4.726 1.869 7.747 4.542 8.123 8.116.062.582.05 1.158-.035 1.72Z" fill="url(#k)"/><path d="M69.52 6.527c-7.063-7.063-18.515-7.063-25.58 0-7.063 7.064-7.063 18.517 0 25.58 7.064 7.064 18.517 7.064 25.58 0 7.065-7.063 7.065-18.516 0-25.58ZM48.61 27.44c-4.486-4.485-4.486-11.758 0-16.243 4.484-4.485 11.756-4.484 16.241.001 4.485 4.485 4.487 11.757.002 16.242-4.485 4.485-11.759 4.485-16.244 0Z" fill="url(#l)"/><path d="M46.092 29.956c5.875 5.875 15.403 5.875 21.278 0 5.877-5.876 5.875-15.402 0-21.277-5.877-5.877-15.401-5.877-21.278 0-5.875 5.874-5.877 15.4 0 21.277Zm18.76-18.76c4.486 4.484 4.486 11.758 0 16.243-4.484 4.485-11.756 4.483-16.241-.002-4.485-4.485-4.487-11.757-.002-16.242 4.485-4.485 11.759-4.485 16.244 0Z" fill="url(#m)"/><path d="M138.628 15.007c-5.65-5.65-14.81-5.65-20.46 0s-5.65 14.81 0 20.46 14.81 5.65 20.46 0 5.65-14.81 0-20.46Zm-16.726 16.726a9.187 9.187 0 1 1 12.992-12.993 9.187 9.187 0 0 1-12.992 12.993Z" fill="url(#n)"/><path d="M119.888 33.746c4.699 4.7 12.32 4.7 17.02 0 4.7-4.7 4.699-12.32 0-17.019-4.701-4.7-12.319-4.7-17.02 0-4.699 4.7-4.7 12.319 0 17.02Zm15.006-15.006a9.187 9.187 0 1 1-12.993 12.993 9.187 9.187 0 0 1 12.993-12.993Z" fill="url(#o)"/><path d="M87.192 9.752a1.408 1.408 0 1 0-.09-2.815 1.408 1.408 0 0 0 .09 2.815Z" fill="url(#p)"/><path d="M80.654 12.388a.67.67 0 1 0-1.338.042.67.67 0 0 0 1.338-.042Z" fill="url(#q)"/><path d="M89.323 12.033a.67.67 0 1 0-1.182.633.67.67 0 0 0 1.181-.633Z" fill="url(#r)"/><path d="M94.732 9.436a.67.67 0 1 0-1.181.633.67.67 0 0 0 1.181-.633Z" fill="url(#s)"/><path d="M81.026 14.27a1.04 1.04 0 1 0-1.531 1.41 1.04 1.04 0 0 0 1.53-1.41Z" fill="url(#t)"/><path d="M84.433 9.757a.821.821 0 1 0-1.209 1.112.821.821 0 0 0 1.21-1.112Z" fill="url(#u)"/><path d="M91.726 6.82a.821.821 0 1 0-1.209 1.112.821.821 0 0 0 1.21-1.112Z" fill="url(#v)"/><path d="M85.58 11.883a.495.495 0 1 0 .729-.67.495.495 0 0 0-.729.67Z" fill="url(#w)"/><path d="M90.69 13.43c-6.033-6.032-15.814-6.032-21.847 0-6.033 6.034-6.033 15.815 0 21.848 6.032 6.033 15.814 6.033 21.847 0 6.033-6.033 6.033-15.814 0-21.847ZM72.83 31.292c-3.831-3.83-3.831-10.043 0-13.874 3.83-3.83 10.041-3.829 13.872.002 3.83 3.83 3.832 10.042.001 13.872-3.83 3.83-10.043 3.83-13.874 0Z" fill="url(#x)"/><path d="M70.68 33.44c5.018 5.019 13.155 5.019 18.173 0 5.02-5.018 5.018-13.155 0-18.172-5.02-5.02-13.154-5.02-18.173 0-5.018 5.017-5.02 13.154 0 18.173Zm16.023-16.023c3.831 3.83 3.831 10.043 0 13.874-3.83 3.83-10.041 3.83-13.872-.001-3.83-3.83-3.832-10.042-.001-13.873 3.83-3.83 10.043-3.83 13.873 0Z" fill="url(#y)"/><path d="M63.418 35.661c-2.674 9.625-37.529-.055-34.855-9.68 2.673-9.625 12.643-15.26 22.268-12.588 9.625 2.674 15.26 12.643 12.587 22.268Z" fill="url(#z)"/><path d="M126.715 10.976c-7.063-7.063-18.516-7.063-25.58 0-7.064 7.064-7.063 18.516 0 25.58 7.064 7.064 18.516 7.064 25.58 0 7.064-7.063 7.064-18.516 0-25.58Zm-20.912 20.912c-4.485-4.485-4.485-11.759 0-16.244 4.485-4.485 11.757-4.483 16.242.002 4.485 4.485 4.487 11.757.002 16.242-4.485 4.485-11.759 4.485-16.244 0Z" fill="url(#A)"/><path d="M103.286 34.405c5.875 5.875 15.403 5.875 21.278 0 5.877-5.877 5.875-15.403 0-21.278-5.877-5.877-15.401-5.877-21.278 0-5.875 5.875-5.877 15.401 0 21.278Zm18.761-18.76c4.485 4.484 4.485 11.758 0 16.243-4.485 4.485-11.757 4.483-16.242-.002-4.485-4.485-4.487-11.757-.002-16.242 4.485-4.485 11.759-4.485 16.244 0Z" fill="url(#B)"/><path d="M36.43 15.497c-6.03-6.029-15.805-6.029-21.834 0-6.03 6.03-6.03 15.805 0 21.834 6.03 6.03 15.805 6.03 21.834 0 6.029-6.029 6.029-15.805 0-21.834Zm-17.85 17.85c-3.828-3.828-3.828-10.037 0-13.865 3.829-3.828 10.036-3.827 13.864.001 3.828 3.828 3.83 10.036.002 13.864-3.829 3.828-10.038 3.828-13.865 0Z" fill="url(#C)"/><path d="M16.432 35.495c5.014 5.015 13.147 5.015 18.162 0 5.016-5.016 5.014-13.147 0-18.161-5.017-5.016-13.146-5.016-18.162 0-5.014 5.014-5.016 13.145 0 18.161Zm16.013-16.013c3.829 3.828 3.829 10.037 0 13.865-3.828 3.828-10.035 3.827-13.863-.002-3.828-3.828-3.83-10.035-.002-13.863 3.829-3.828 10.037-3.828 13.865 0Z" fill="url(#D)"/><path d="M144.726 37.106c-.144 1.018-.518 2.006-1.094 2.962-2.227 2.163-7.512 3.942-14.773 5.339-4.183.805-9.022-.283-14.309.267-4.238.442-8.765 2.566-13.473 2.843-7.728.456-15.946.691-24.18.707-7.295.018-23.03-2.847-23.177-4.235-.38-3.574 2.017-6.818 6.25-9.633.468-.309.92-.667 1.35-1.073.985-.927 1.867-2.097 2.603-3.492l.112-.214c1.138-2.156 2.65-3.627 4.335-4.333 1.45-.605 3.026-.64 4.603-.052.291.108.582.238.87.39l.003.004c2.327 1.217 4.739 1.05 6.786-.38.717-.5 1.39-1.159 2-1.965l.223-.297c2.591-3.429 6.318-4.082 9.677-1.694l.255.183c3.086 2.194 6.503 1.835 9.062-.953l.215-.236c2.785-3.035 6.568-3.173 9.815-.358l.341.294c2.929 2.538 6.315 2.69 9.02.406 1.28-1.08 2.703-1.612 4.153-1.612 2.142 0 4.342 1.156 6.218 3.403l.209.253c1.453 1.738 3.1 2.962 4.818 3.64 4.726 1.869 7.747 4.542 8.123 8.116.062.582.05 1.158-.035 1.72Z" fill="url(#E)"/><path d="m76.222 48.884.27.34c8.358-.007 16.705-.242 24.549-.704 4.91-.29 9.622-1.844 14.016-2.31 5.091-.54 9.754-.024 13.804-.803 7.26-1.397 12.544-3.176 14.771-5.339.576-.956.95-1.944 1.094-2.962a6.725 6.725 0 0 0-.018-2.114c-.486-2.98-3.043-5.11-6.042-5.472-1.401-.17-2.813-.827-4.133-1.97l-.342-.295c-3.247-2.814-7.029-2.676-9.814.36l-.215.235c-2.559 2.788-5.976 3.146-9.062.952l-.256-.182c-3.358-2.388-7.085-1.735-9.676 1.694l-.224.297c-.608.806-1.282 1.465-2 1.965-2.047 1.43-4.459 1.597-6.785.38l-.003-.004a7.348 7.348 0 0 0-.87-.39c-1.577-.589-3.153-.554-4.603.052-1.686.706-3.198 2.177-4.336 4.333l-.111.214c-.736 1.394-1.618 2.565-2.603 3.491-.43.406-.883.765-1.35 1.074-3.233 2.15-5.39 4.55-6.061 7.158Z" fill="url(#F)"/><path d="M117.774 46.69c-5.236.628-10.492 1.058-16.72 1.828-7.722.454-15.93.69-24.158.706-7.294.018-23.03-2.847-23.176-4.235-.38-3.574 2.017-6.818 6.25-9.633.468-.309.92-.667 1.35-1.073.985-.927 1.867-2.097 2.603-3.492l.112-.214c1.138-2.156 2.65-3.627 4.335-4.333 1.45-.605 3.026-.64 4.603-.052.291.108.582.238.87.39l.003.004c2.327 1.217 4.739 1.05 6.786-.38.717-.5 1.39-1.159 2-1.965l.223-.297c2.591-3.429 6.318-4.082 9.677-1.694l.255.183a8.14 8.14 0 0 0 1.648.917l23.339 23.34Z" fill="url(#G)"/><path d="M94.885 31.337a5.437 5.437 0 1 0 0 10.874 5.437 5.437 0 0 0 0-10.874Zm0 7.744a2.308 2.308 0 1 1 0-4.615 2.308 2.308 0 0 1 0 4.615Z" fill="url(#H)"/><path d="M123.56 33.374a5.437 5.437 0 1 0 0 10.874 5.437 5.437 0 0 0 0-10.874Zm0 7.745a2.308 2.308 0 1 1 0-4.615 2.308 2.308 0 0 1 0 4.615Z" fill="url(#I)"/><path d="M93.555 18.617a1.012 1.012 0 1 0-.954-1.786 1.012 1.012 0 0 0 .954 1.786Z" fill="url(#J)"/><path d="M90.57 17.098a.8.8 0 1 0-1.41.752.8.8 0 0 0 1.41-.752Z" fill="url(#K)"/><path d="M88.97 21.045a.482.482 0 1 0-.85.454.482.482 0 0 0 .85-.454Z" fill="url(#L)"/><path d="M93.958 26.01a1.012 1.012 0 1 0-1.178 1.646 1.012 1.012 0 0 0 1.178-1.647Z" fill="url(#M)"/><path d="M102.328 23.012a.8.8 0 1 0-.93 1.3.8.8 0 0 0 .93-1.3Z" fill="url(#N)"/><path d="M96 19.116a.482.482 0 1 0-.562.783.482.482 0 0 0 .561-.783Z" fill="url(#O)"/><path d="M92.362 21.67a.748.748 0 1 0-.54 1.396.748.748 0 0 0 .54-1.396Z" fill="url(#P)"/><path d="M94.223 20.406a.59.59 0 1 0-.426 1.102.59.59 0 0 0 .426-1.102Z" fill="url(#Q)"/><path d="M91.586 20.023a.356.356 0 1 0 .257-.664.356.356 0 0 0-.257.664Z" fill="url(#R)"/><path d="M110.792 26.622a1.012 1.012 0 1 0-.952-1.786 1.012 1.012 0 0 0 .952 1.786Z" fill="url(#S)"/><path d="M101.863 31.105a.8.8 0 1 0-1.411.755.8.8 0 0 0 1.411-.755Z" fill="url(#T)"/><path d="M103.271 26.752a.482.482 0 1 0-.85.454.482.482 0 0 0 .85-.454Z" fill="url(#U)"/><path d="M114.602 30.836a1.012 1.012 0 1 0-1.178 1.646 1.012 1.012 0 0 0 1.178-1.646Z" fill="url(#V)"/><path d="M115.265 29.653a.8.8 0 1 0-1.302-.93.8.8 0 0 0 1.302.93Z" fill="url(#W)"/><path d="M113.237 27.121a.482.482 0 1 0-.56.783.482.482 0 0 0 .56-.783Z" fill="url(#X)"/><path d="M105.709 30.483a.748.748 0 1 0-.54 1.394.748.748 0 0 0 .54-1.394Z" fill="url(#Y)"/><path d="M111.461 28.411a.59.59 0 1 0-.426 1.103.59.59 0 0 0 .426-1.103Z" fill="url(#Z)"/><path d="M108.824 28.029a.356.356 0 1 0 .257-.665.356.356 0 0 0-.257.665Z" fill="url(#aa)"/><path d="M87.831 44.411c-5.717 5.717-14.975 5.728-20.678.025-5.704-5.704-5.693-14.962.024-20.679 5.717-5.717 19.337-10.09 25.04-4.386 5.704 5.703 1.331 19.323-4.386 25.04Z" fill="url(#ab)"/><path d="M66.588 43.836c5.155 4.55 13.518 3.891 19.038-1.63 5.437-5.436 10.102-17.572 6.165-23.13a2.003 2.003 0 0 0-.44-.448c-6.115-4.54-18.728-.316-24.173 5.13-5.522 5.52-5.72 14.343-.59 20.078Z" fill="url(#ac)"/><path d="M74.71 41.629a8.203 8.203 0 1 0 0-16.407 8.203 8.203 0 0 0 0 16.407Z" fill="url(#ad)"/><path d="M76.896 49.224c-4.314.01-8.633-.041-12.889-.153-1.05-.027-2.095-2.117-3.137-2.152-1.239-.042-2.47 1.97-3.694 1.918-.627-.026-1.252-.054-1.874-.084-25.188-1.194-46.3-4.626-48.003-10.3a9.42 9.42 0 0 1-.097-.99c-.062-1.2.1-2.4.509-3.59 1.25-3.631 4.377-5.917 8.656-7.105 1.553-.432 3.194-1.435 4.82-3.003l.174-.17c3.532-3.412 6.982-3.521 8.835-.283v.003c1.586 2.768 4.353 3.124 7.389.95l.288-.206c3.347-2.397 6.335-1.659 7.756 1.915l.108.273c.139.345.292.665.456.956 1.412 2.489 3.812 3.047 6.542 1.453l.255-.15c3.321-1.938 6.13-.68 7.292 3.27l.12.413c.238.811.547 1.511.918 2.094 1.25 1.97 3.197 2.585 5.467 1.632.706-.297 1.38-.441 2.01-.441 2.44 0 4.226 2.168 4.764 6.018l.047.323c.312 2.238.988 4.038 1.947 5.335.509.686.956 1.38 1.341 2.074Z" fill="url(#ae)"/><path d="M126.273 40.398a10.224 10.224 0 0 0-9.62-2.922c-4.947 1.1-8.252 5.61-7.996 10.51l.007-.002c.049-.004 7.059-1.418 10.365-1.835 3.433-.434 6.938-.187 9.817-.74.694-.134 1.37-.27 2.027-.411l-4.6-4.6Z" fill="url(#af)"/><path d="M128.859 45.243c-1.226-5.515-6.691-8.992-12.206-7.767-4.947 1.1-8.252 5.61-7.996 10.509 7.612-.625 14.53-1.486 20.228-2.584-.008-.053-.014-.105-.026-.158Z" fill="url(#ag)"/><path d="M114.594 46.705a6.898 6.898 0 1 0-13.554 1.813c4.726-.278 9.263-.64 13.515-1.083.026-.24.039-.483.039-.73Z" fill="url(#ah)"/><path d="M59.039 39.655c-2.695-2.694-6.054-3.964-9.493-4.58-5.578-1-11.468.338-15.838 4.708-1.976 1.976-3.647 4.167-4.518 6.638l.648.091v.002c7.418 1.052 16.162 1.798 25.464 2.24l1.857.083c1.242.052 2.492-1.371 3.75-1.329 1.026.034 2.056 1.536 3.09 1.563 1.508.04 3.022.071 4.542.096l-9.502-9.512Z" fill="url(#ai)"/><path d="M31.803 31.337a5.437 5.437 0 1 0 0 10.873 5.437 5.437 0 0 0 0-10.873Zm0 7.744a2.308 2.308 0 1 1 0-4.615 2.308 2.308 0 0 1 0 4.615Z" fill="url(#aj)"/><path d="M59.039 39.655c-7.064-7.063-18.516-7.063-25.58 0a18.017 18.017 0 0 0-4.269 6.766c2.156.314 4.428.602 6.798.863a11.462 11.462 0 0 1 2.139-2.96c4.485-4.486 11.757-4.484 16.242.001 1.311 1.311 2.314 2.57 2.86 4.218 1.23.053 2.392.39 3.639.433 1.045.035 2.096.066 3.15.094a17.998 17.998 0 0 0-4.979-9.415Z" fill="url(#ak)"/><path d="M56.888 41.806c-5.877-5.876-15.401-5.876-21.278 0a14.994 14.994 0 0 0-3.328 5.038c1.206.155 2.443.301 3.706.44a11.46 11.46 0 0 1 2.14-2.96c4.484-4.485 11.758-4.485 16.243 0a11.43 11.43 0 0 1 2.78 4.51c1.24.053 2.484.101 3.739.143a14.974 14.974 0 0 0-4.002-7.17Z" fill="url(#al)"/><path d="M49 17.59a1.013 1.013 0 1 0-1.901-.696A1.013 1.013 0 0 0 49 17.59Z" fill="url(#am)"/><path d="M45.764 18.448a.8.8 0 1 0-.55 1.502.8.8 0 0 0 .55-1.502Z" fill="url(#an)"/><path d="M47.203 22.457a.482.482 0 1 0-.331.905.482.482 0 0 0 .33-.905Z" fill="url(#ao)"/><path d="M54.23 22.831a1.012 1.012 0 1 0 .219 2.013 1.012 1.012 0 0 0-.22-2.013Z" fill="url(#ap)"/><path d="M58.47 15.017a.8.8 0 1 0 .173 1.589.8.8 0 0 0-.173-1.589Z" fill="url(#aq)"/><path d="M51.155 16.332a.482.482 0 1 0 .105.958.482.482 0 0 0-.105-.958Z" fill="url(#ar)"/><path d="M50.148 20.661a.748.748 0 1 0 .528 1.4.748.748 0 0 0-.528-1.4Z" fill="url(#as)"/><path d="M50.691 18.478a.59.59 0 1 0 .418 1.105.59.59 0 0 0-.418-1.105Z" fill="url(#at)"/><path d="M48.47 19.95a.356.356 0 1 0-.25-.665.356.356 0 0 0 .25.666Z" fill="url(#au)"/><path d="M67.186 12.064a1.013 1.013 0 1 0-1.902-.696 1.013 1.013 0 0 0 1.902.696Z" fill="url(#av)"/><path d="M63.52 21.359a.8.8 0 1 0-.55 1.502.8.8 0 0 0 .55-1.502Z" fill="url(#aw)"/><path d="M61.667 17.176a.482.482 0 1 0-.331.905.482.482 0 0 0 .33-.905Z" fill="url(#ax)"/><path d="M72.835 12.665a1.012 1.012 0 1 0 .22 2.012 1.012 1.012 0 0 0-.22-2.012Z" fill="url(#ay)"/><path d="M72.54 11.341a.8.8 0 1 0-1.59.174.8.8 0 0 0 1.59-.174Z" fill="url(#az)"/><path d="M69.34 10.806a.482.482 0 1 0 .106.959.482.482 0 0 0-.105-.959Z" fill="url(#aA)"/><path d="M65.971 18.33a.748.748 0 1 0 .529 1.4.748.748 0 0 0-.529-1.4Z" fill="url(#aB)"/><path d="M68.877 12.952a.59.59 0 1 0 .417 1.106.59.59 0 0 0-.417-1.106Z" fill="url(#aC)"/><path d="M66.656 14.425a.356.356 0 1 0-.251-.666.356.356 0 0 0 .251.666Z" fill="url(#aD)"/><defs><linearGradient id="a" x1="76.303" y1="85.749" x2="76.852" y2="94.808" gradientUnits="userSpaceOnUse"><stop stop-color="#F8F6FB"/><stop offset="1" stop-color="#EFDCFB"/></linearGradient><linearGradient id="b" x1="64.532" y1="26.28" x2="104.618" y2="86.001" gradientUnits="userSpaceOnUse"><stop stop-color="#F8F6FB"/><stop offset="1" stop-color="#EFDCFB"/></linearGradient><linearGradient id="c" x1="66.882" y1=".922" x2="77.471" y2="43.668" gradientUnits="userSpaceOnUse"><stop stop-color="#F8F6FB"/><stop offset="1" stop-color="#EFDCFB"/></linearGradient><linearGradient id="d" x1="77.996" y1="1.91" x2="77.996" y2="22.806" gradientUnits="userSpaceOnUse"><stop stop-color="#BADA00"/><stop offset=".227" stop-color="#B0CE00"/><stop offset=".638" stop-color="#95AE00"/><stop offset="1" stop-color="#798C00"/></linearGradient><linearGradient id="e" x1="110.956" y1="14.518" x2="114.191" y2="20.989" gradientUnits="userSpaceOnUse"><stop stop-color="#8A7889"/><stop offset=".334" stop-color="#867385"/><stop offset=".704" stop-color="#7B667B"/><stop offset="1" stop-color="#6E566E"/></linearGradient><linearGradient id="f" x1="69.097" y1="4.081" x2="72.332" y2="10.552" gradientUnits="userSpaceOnUse"><stop stop-color="#8A7889"/><stop offset=".334" stop-color="#867385"/><stop offset=".704" stop-color="#7B667B"/><stop offset="1" stop-color="#6E566E"/></linearGradient><linearGradient id="g" x1="103.631" y1="14.382" x2="103.631" y2="25.262" gradientUnits="userSpaceOnUse"><stop stop-color="#F8F6FB"/><stop offset="1" stop-color="#EFDCFB"/></linearGradient><linearGradient id="h" x1="70.044" y1="31.014" x2="64.521" y2="-1.445" gradientUnits="userSpaceOnUse"><stop stop-color="#798C00" stop-opacity="0"/><stop offset=".654" stop-color="#556100" stop-opacity=".654"/><stop offset="1" stop-color="#464F00"/></linearGradient><linearGradient id="i" x1="75.993" y1="67.146" x2="75.993" y2="-39.211" gradientUnits="userSpaceOnUse"><stop stop-color="#EFDCFB" stop-opacity="0"/><stop offset=".029" stop-color="#E9D6F7" stop-opacity=".029"/><stop offset=".22" stop-color="#C5B5DE" stop-opacity=".22"/><stop offset=".414" stop-color="#AA9BCB" stop-opacity=".414"/><stop offset=".608" stop-color="#9688BD" stop-opacity=".608"/><stop offset=".803" stop-color="#8A7DB5" stop-opacity=".803"/><stop offset="1" stop-color="#8679B2"/></linearGradient><linearGradient id="j" x1="100.915" y1="69.703" x2="113.084" y2="77.816" gradientUnits="userSpaceOnUse"><stop stop-color="#FF6359"/><stop offset=".224" stop-color="#FE5B50"/><stop offset=".595" stop-color="#FC4637"/><stop offset="1" stop-color="#F82814"/></linearGradient><linearGradient id="k" x1="98.094" y1="26.768" x2="100.047" y2="49.624" gradientUnits="userSpaceOnUse"><stop stop-color="#BADA00"/><stop offset=".227" stop-color="#B0CE00"/><stop offset=".638" stop-color="#95AE00"/><stop offset="1" stop-color="#798C00"/></linearGradient><linearGradient id="l" x1="62.098" y1="3.715" x2="54.894" y2="24.737" gradientUnits="userSpaceOnUse"><stop stop-color="#FFD945"/><stop offset=".313" stop-color="#FFD643"/><stop offset=".559" stop-color="#FFCC3D"/><stop offset=".783" stop-color="#FB3"/><stop offset=".992" stop-color="#FFA426"/><stop offset="1" stop-color="#FFA325"/></linearGradient><linearGradient id="m" x1="52.329" y1="32.344" x2="58.321" y2="14.857" gradientUnits="userSpaceOnUse"><stop stop-color="#FFD945"/><stop offset=".313" stop-color="#FFD643"/><stop offset=".559" stop-color="#FFCC3D"/><stop offset=".783" stop-color="#FB3"/><stop offset=".992" stop-color="#FFA426"/><stop offset="1" stop-color="#FFA325"/></linearGradient><linearGradient id="n" x1="122.604" y1="13.402" x2="130.422" y2="29.37" gradientUnits="userSpaceOnUse"><stop stop-color="#FF6359"/><stop offset=".224" stop-color="#FE5B50"/><stop offset=".595" stop-color="#FC4637"/><stop offset="1" stop-color="#F82814"/></linearGradient><linearGradient id="o" x1="142.591" y1="39.43" x2="124.056" y2="20.895" gradientUnits="userSpaceOnUse"><stop stop-color="#FF6359"/><stop offset=".224" stop-color="#FE5B50"/><stop offset=".595" stop-color="#FC4637"/><stop offset="1" stop-color="#F82814"/></linearGradient><linearGradient id="p" x1="88.076" y1="6.457" x2="84.519" y2="12.097" gradientUnits="userSpaceOnUse"><stop stop-color="#FF6359"/><stop offset=".224" stop-color="#FE5B50"/><stop offset=".595" stop-color="#FC4637"/><stop offset="1" stop-color="#F82814"/></linearGradient><linearGradient id="q" x1="80.311" y1="11.477" x2="78.618" y2="14.161" gradientUnits="userSpaceOnUse"><stop stop-color="#FF6359"/><stop offset=".224" stop-color="#FE5B50"/><stop offset=".595" stop-color="#FC4637"/><stop offset="1" stop-color="#F82814"/></linearGradient><linearGradient id="r" x1="89.063" y1="11.415" x2="87.37" y2="14.099" gradientUnits="userSpaceOnUse"><stop stop-color="#FF6359"/><stop offset=".224" stop-color="#FE5B50"/><stop offset=".595" stop-color="#FC4637"/><stop offset="1" stop-color="#F82814"/></linearGradient><linearGradient id="s" x1="94.475" y1="8.814" x2="92.781" y2="11.499" gradientUnits="userSpaceOnUse"><stop stop-color="#FF6359"/><stop offset=".224" stop-color="#FE5B50"/><stop offset=".595" stop-color="#FC4637"/><stop offset="1" stop-color="#F82814"/></linearGradient><linearGradient id="t" x1="80.889" y1="13.567" x2="78.26" y2="17.735" gradientUnits="userSpaceOnUse"><stop stop-color="#FF6359"/><stop offset=".224" stop-color="#FE5B50"/><stop offset=".595" stop-color="#FC4637"/><stop offset="1" stop-color="#F82814"/></linearGradient><linearGradient id="u" x1="84.28" y1="9.184" x2="82.204" y2="12.474" gradientUnits="userSpaceOnUse"><stop stop-color="#FF6359"/><stop offset=".224" stop-color="#FE5B50"/><stop offset=".595" stop-color="#FC4637"/><stop offset="1" stop-color="#F82814"/></linearGradient><linearGradient id="v" x1="91.576" y1="6.243" x2="89.5" y2="9.533" gradientUnits="userSpaceOnUse"><stop stop-color="#FF6359"/><stop offset=".224" stop-color="#FE5B50"/><stop offset=".595" stop-color="#FC4637"/><stop offset="1" stop-color="#F82814"/></linearGradient><linearGradient id="w" x1="86.132" y1="10.838" x2="84.88" y2="12.822" gradientUnits="userSpaceOnUse"><stop stop-color="#FF6359"/><stop offset=".224" stop-color="#FE5B50"/><stop offset=".595" stop-color="#FC4637"/><stop offset="1" stop-color="#F82814"/></linearGradient><linearGradient id="x" x1="84.35" y1="11.024" x2="78.198" y2="28.98" gradientUnits="userSpaceOnUse"><stop stop-color="#FFD945"/><stop offset=".313" stop-color="#FFD643"/><stop offset=".559" stop-color="#FFCC3D"/><stop offset=".783" stop-color="#FB3"/><stop offset=".992" stop-color="#FFA426"/><stop offset="1" stop-color="#FFA325"/></linearGradient><linearGradient id="y" x1="76.009" y1="35.489" x2="81.126" y2="20.553" gradientUnits="userSpaceOnUse"><stop stop-color="#FFD945"/><stop offset=".313" stop-color="#FFD643"/><stop offset=".559" stop-color="#FFCC3D"/><stop offset=".783" stop-color="#FB3"/><stop offset=".992" stop-color="#FFA426"/><stop offset="1" stop-color="#FFA325"/></linearGradient><linearGradient id="z" x1="43.542" y1="14.066" x2="46.771" y2="31.407" gradientUnits="userSpaceOnUse"><stop stop-color="#FF6359"/><stop offset=".224" stop-color="#FE5B50"/><stop offset=".595" stop-color="#FC4637"/><stop offset="1" stop-color="#F82814"/></linearGradient><linearGradient id="A" x1="119.283" y1="8.163" x2="112.08" y2="29.186" gradientUnits="userSpaceOnUse"><stop stop-color="#FFDECF"/><stop offset=".379" stop-color="#FDC4B0"/><stop offset=".765" stop-color="#FBAE97"/><stop offset="1" stop-color="#FAA68E"/></linearGradient><linearGradient id="B" x1="109.514" y1="36.792" x2="115.506" y2="19.305" gradientUnits="userSpaceOnUse"><stop stop-color="#FFDECF"/><stop offset=".379" stop-color="#FDC4B0"/><stop offset=".765" stop-color="#FBAE97"/><stop offset="1" stop-color="#FAA68E"/></linearGradient><linearGradient id="C" x1="30.102" y1="13.092" x2="23.954" y2="31.036" gradientUnits="userSpaceOnUse"><stop stop-color="#FFDECF"/><stop offset=".379" stop-color="#FDC4B0"/><stop offset=".765" stop-color="#FBAE97"/><stop offset="1" stop-color="#FAA68E"/></linearGradient><linearGradient id="D" x1="21.765" y1="37.541" x2="26.88" y2="22.616" gradientUnits="userSpaceOnUse"><stop stop-color="#FFDECF"/><stop offset=".379" stop-color="#FDC4B0"/><stop offset=".765" stop-color="#FBAE97"/><stop offset="1" stop-color="#FAA68E"/></linearGradient><linearGradient id="E" x1="98.093" y1="26.768" x2="100.047" y2="49.622" gradientUnits="userSpaceOnUse"><stop stop-color="#BADA00"/><stop offset=".227" stop-color="#B0CE00"/><stop offset=".638" stop-color="#95AE00"/><stop offset="1" stop-color="#798C00"/></linearGradient><linearGradient id="F" x1="110.409" y1="38.275" x2="109.527" y2="2" gradientUnits="userSpaceOnUse"><stop stop-color="#798C00" stop-opacity="0"/><stop offset=".654" stop-color="#556100" stop-opacity=".654"/><stop offset="1" stop-color="#464F00"/></linearGradient><linearGradient id="G" x1="97.072" y1="52.263" x2="67.344" y2="28.947" gradientUnits="userSpaceOnUse"><stop stop-color="#798C00" stop-opacity="0"/><stop offset=".654" stop-color="#556100" stop-opacity=".654"/><stop offset="1" stop-color="#464F00"/></linearGradient><linearGradient id="H" x1="92.05" y1="31.102" x2="95.285" y2="37.573" gradientUnits="userSpaceOnUse"><stop stop-color="#8A7889"/><stop offset=".334" stop-color="#867385"/><stop offset=".704" stop-color="#7B667B"/><stop offset="1" stop-color="#6E566E"/></linearGradient><linearGradient id="I" x1="120.725" y1="33.14" x2="123.96" y2="39.61" gradientUnits="userSpaceOnUse"><stop stop-color="#8A7889"/><stop offset=".334" stop-color="#867385"/><stop offset=".704" stop-color="#7B667B"/><stop offset="1" stop-color="#6E566E"/></linearGradient><linearGradient id="J" x1="93.025" y1="16.111" x2="92.522" y2="20.877" gradientUnits="userSpaceOnUse"><stop stop-color="#FFDECF"/><stop offset=".379" stop-color="#FDC4B0"/><stop offset=".765" stop-color="#FBAE97"/><stop offset="1" stop-color="#FAA68E"/></linearGradient><linearGradient id="K" x1="89.779" y1="16.183" x2="89.381" y2="19.945" gradientUnits="userSpaceOnUse"><stop stop-color="#FFDECF"/><stop offset=".379" stop-color="#FDC4B0"/><stop offset=".765" stop-color="#FBAE97"/><stop offset="1" stop-color="#FAA68E"/></linearGradient><linearGradient id="L" x1="88.406" y1="20.461" x2="88.167" y2="22.729" gradientUnits="userSpaceOnUse"><stop stop-color="#FFDECF"/><stop offset=".379" stop-color="#FDC4B0"/><stop offset=".765" stop-color="#FBAE97"/><stop offset="1" stop-color="#FAA68E"/></linearGradient><linearGradient id="M" x1="93.312" y1="25.22" x2="92.808" y2="29.985" gradientUnits="userSpaceOnUse"><stop stop-color="#FFDECF"/><stop offset=".379" stop-color="#FDC4B0"/><stop offset=".765" stop-color="#FBAE97"/><stop offset="1" stop-color="#FAA68E"/></linearGradient><linearGradient id="N" x1="101.773" y1="22.376" x2="101.376" y2="26.138" gradientUnits="userSpaceOnUse"><stop stop-color="#FFDECF"/><stop offset=".379" stop-color="#FDC4B0"/><stop offset=".765" stop-color="#FBAE97"/><stop offset="1" stop-color="#FAA68E"/></linearGradient><linearGradient id="O" x1="95.581" y1="18.7" x2="95.341" y2="20.968" gradientUnits="userSpaceOnUse"><stop stop-color="#FFDECF"/><stop offset=".379" stop-color="#FDC4B0"/><stop offset=".765" stop-color="#FBAE97"/><stop offset="1" stop-color="#FAA68E"/></linearGradient><linearGradient id="P" x1="91.995" y1="21.155" x2="91.623" y2="24.677" gradientUnits="userSpaceOnUse"><stop stop-color="#FFDECF"/><stop offset=".379" stop-color="#FDC4B0"/><stop offset=".765" stop-color="#FBAE97"/><stop offset="1" stop-color="#FAA68E"/></linearGradient><linearGradient id="Q" x1="93.889" y1="19.983" x2="93.595" y2="22.763" gradientUnits="userSpaceOnUse"><stop stop-color="#FFDECF"/><stop offset=".379" stop-color="#FDC4B0"/><stop offset=".765" stop-color="#FBAE97"/><stop offset="1" stop-color="#FAA68E"/></linearGradient><linearGradient id="R" x1="91.556" y1="19.071" x2="91.379" y2="20.748" gradientUnits="userSpaceOnUse"><stop stop-color="#FFDECF"/><stop offset=".379" stop-color="#FDC4B0"/><stop offset=".765" stop-color="#FBAE97"/><stop offset="1" stop-color="#FAA68E"/></linearGradient><linearGradient id="S" x1="110.259" y1="24.124" x2="109.755" y2="28.889" gradientUnits="userSpaceOnUse"><stop stop-color="#FFDECF"/><stop offset=".379" stop-color="#FDC4B0"/><stop offset=".765" stop-color="#FBAE97"/><stop offset="1" stop-color="#FAA68E"/></linearGradient><linearGradient id="T" x1="101.065" y1="30.195" x2="100.667" y2="33.957" gradientUnits="userSpaceOnUse"><stop stop-color="#FFDECF"/><stop offset=".379" stop-color="#FDC4B0"/><stop offset=".765" stop-color="#FBAE97"/><stop offset="1" stop-color="#FAA68E"/></linearGradient><linearGradient id="U" x1="102.704" y1="26.174" x2="102.464" y2="28.442" gradientUnits="userSpaceOnUse"><stop stop-color="#FFDECF"/><stop offset=".379" stop-color="#FDC4B0"/><stop offset=".765" stop-color="#FBAE97"/><stop offset="1" stop-color="#FAA68E"/></linearGradient><linearGradient id="V" x1="113.954" y1="30.055" x2="113.45" y2="34.821" gradientUnits="userSpaceOnUse"><stop stop-color="#FFDECF"/><stop offset=".379" stop-color="#FDC4B0"/><stop offset=".765" stop-color="#FBAE97"/><stop offset="1" stop-color="#FAA68E"/></linearGradient><linearGradient id="W" x1="114.522" y1="27.906" x2="114.124" y2="31.669" gradientUnits="userSpaceOnUse"><stop stop-color="#FFDECF"/><stop offset=".379" stop-color="#FDC4B0"/><stop offset=".765" stop-color="#FBAE97"/><stop offset="1" stop-color="#FAA68E"/></linearGradient><linearGradient id="X" x1="112.814" y1="26.712" x2="112.574" y2="28.98" gradientUnits="userSpaceOnUse"><stop stop-color="#FFDECF"/><stop offset=".379" stop-color="#FDC4B0"/><stop offset=".765" stop-color="#FBAE97"/><stop offset="1" stop-color="#FAA68E"/></linearGradient><linearGradient id="Y" x1="105.338" y1="29.973" x2="104.966" y2="33.495" gradientUnits="userSpaceOnUse"><stop stop-color="#FFDECF"/><stop offset=".379" stop-color="#FDC4B0"/><stop offset=".765" stop-color="#FBAE97"/><stop offset="1" stop-color="#FAA68E"/></linearGradient><linearGradient id="Z" x1="111.122" y1="27.996" x2="110.828" y2="30.776" gradientUnits="userSpaceOnUse"><stop stop-color="#FFDECF"/><stop offset=".379" stop-color="#FDC4B0"/><stop offset=".765" stop-color="#FBAE97"/><stop offset="1" stop-color="#FAA68E"/></linearGradient><linearGradient id="aa" x1="108.79" y1="27.084" x2="108.613" y2="28.76" gradientUnits="userSpaceOnUse"><stop stop-color="#FFDECF"/><stop offset=".379" stop-color="#FDC4B0"/><stop offset=".765" stop-color="#FBAE97"/><stop offset="1" stop-color="#FAA68E"/></linearGradient><linearGradient id="ab" x1="79.277" y1="31.809" x2="84.828" y2="49.341" gradientUnits="userSpaceOnUse"><stop stop-color="#F8F6FB"/><stop offset="1" stop-color="#EFDCFB"/></linearGradient><linearGradient id="ac" x1="78.717" y1="32.453" x2="94.008" y2="104.526" gradientUnits="userSpaceOnUse"><stop stop-color="#EFDCFB" stop-opacity="0"/><stop offset=".029" stop-color="#E9D6F7" stop-opacity=".029"/><stop offset=".22" stop-color="#C5B5DE" stop-opacity=".22"/><stop offset=".414" stop-color="#AA9BCB" stop-opacity=".414"/><stop offset=".608" stop-color="#9688BD" stop-opacity=".608"/><stop offset=".803" stop-color="#8A7DB5" stop-opacity=".803"/><stop offset="1" stop-color="#8679B2"/></linearGradient><linearGradient id="ad" x1="69.747" y1="28.312" x2="82.604" y2="41.557" gradientUnits="userSpaceOnUse"><stop stop-color="#FFD945"/><stop offset=".313" stop-color="#FFD643"/><stop offset=".559" stop-color="#FFCC3D"/><stop offset=".783" stop-color="#FB3"/><stop offset=".992" stop-color="#FFA426"/><stop offset="1" stop-color="#FFA325"/></linearGradient><linearGradient id="ae" x1="42.206" y1="35.963" x2="41.813" y2="53.022" gradientUnits="userSpaceOnUse"><stop stop-color="#BADA00"/><stop offset=".227" stop-color="#B0CE00"/><stop offset=".638" stop-color="#95AE00"/><stop offset="1" stop-color="#798C00"/></linearGradient><linearGradient id="af" x1="128.776" y1="55.5" x2="114.02" y2="40.745" gradientUnits="userSpaceOnUse"><stop stop-color="#798C00" stop-opacity="0"/><stop offset=".654" stop-color="#556100" stop-opacity=".654"/><stop offset="1" stop-color="#464F00"/></linearGradient><linearGradient id="ag" x1="114.997" y1="38.604" x2="118.449" y2="45.657" gradientUnits="userSpaceOnUse"><stop stop-color="#FF6359"/><stop offset=".224" stop-color="#FE5B50"/><stop offset=".595" stop-color="#FC4637"/><stop offset="1" stop-color="#F82814"/></linearGradient><linearGradient id="ah" x1="106.138" y1="42.343" x2="108.673" y2="49.384" gradientUnits="userSpaceOnUse"><stop stop-color="#FFA936"/><stop offset=".411" stop-color="#FF8548"/><stop offset=".778" stop-color="#FF6C54"/><stop offset="1" stop-color="#FF6359"/></linearGradient><linearGradient id="ai" x1="48.857" y1="49.412" x2="48.928" y2="36.899" gradientUnits="userSpaceOnUse"><stop stop-color="#798C00" stop-opacity="0"/><stop offset=".654" stop-color="#556100" stop-opacity=".654"/><stop offset="1" stop-color="#464F00"/></linearGradient><linearGradient id="aj" x1="28.968" y1="31.102" x2="32.203" y2="37.573" gradientUnits="userSpaceOnUse"><stop stop-color="#8A7889"/><stop offset=".334" stop-color="#867385"/><stop offset=".704" stop-color="#7B667B"/><stop offset="1" stop-color="#6E566E"/></linearGradient><linearGradient id="ak" x1="41.178" y1="35.923" x2="47.356" y2="48.543" gradientUnits="userSpaceOnUse"><stop stop-color="#FFDECF"/><stop offset=".379" stop-color="#FDC4B0"/><stop offset=".765" stop-color="#FBAE97"/><stop offset="1" stop-color="#FAA68E"/></linearGradient><linearGradient id="al" x1="50.994" y1="50.734" x2="35.456" y2="35.196" gradientUnits="userSpaceOnUse"><stop stop-color="#FFDECF"/><stop offset=".379" stop-color="#FDC4B0"/><stop offset=".765" stop-color="#FBAE97"/><stop offset="1" stop-color="#FAA68E"/></linearGradient><linearGradient id="am" x1="47.148" y1="15.992" x2="49.952" y2="19.879" gradientUnits="userSpaceOnUse"><stop stop-color="#FFDECF"/><stop offset=".379" stop-color="#FDC4B0"/><stop offset=".765" stop-color="#FBAE97"/><stop offset="1" stop-color="#FAA68E"/></linearGradient><linearGradient id="an" x1="44.777" y1="18.212" x2="46.99" y2="21.28" gradientUnits="userSpaceOnUse"><stop stop-color="#FFDECF"/><stop offset=".379" stop-color="#FDC4B0"/><stop offset=".765" stop-color="#FBAE97"/><stop offset="1" stop-color="#FAA68E"/></linearGradient><linearGradient id="ao" x1="46.608" y1="22.314" x2="47.942" y2="24.164" gradientUnits="userSpaceOnUse"><stop stop-color="#FFDECF"/><stop offset=".379" stop-color="#FDC4B0"/><stop offset=".765" stop-color="#FBAE97"/><stop offset="1" stop-color="#FAA68E"/></linearGradient><linearGradient id="ap" x1="53.438" y1="22.587" x2="56.241" y2="26.474" gradientUnits="userSpaceOnUse"><stop stop-color="#FFDECF"/><stop offset=".379" stop-color="#FDC4B0"/><stop offset=".765" stop-color="#FBAE97"/><stop offset="1" stop-color="#FAA68E"/></linearGradient><linearGradient id="aq" x1="57.844" y1="14.825" x2="60.058" y2="17.893" gradientUnits="userSpaceOnUse"><stop stop-color="#FFDECF"/><stop offset=".379" stop-color="#FDC4B0"/><stop offset=".765" stop-color="#FBAE97"/><stop offset="1" stop-color="#FAA68E"/></linearGradient><linearGradient id="ar" x1="50.779" y1="16.216" x2="52.113" y2="18.066" gradientUnits="userSpaceOnUse"><stop stop-color="#FFDECF"/><stop offset=".379" stop-color="#FDC4B0"/><stop offset=".765" stop-color="#FBAE97"/><stop offset="1" stop-color="#FAA68E"/></linearGradient><linearGradient id="as" x1="49.745" y1="20.438" x2="51.817" y2="23.31" gradientUnits="userSpaceOnUse"><stop stop-color="#FFDECF"/><stop offset=".379" stop-color="#FDC4B0"/><stop offset=".765" stop-color="#FBAE97"/><stop offset="1" stop-color="#FAA68E"/></linearGradient><linearGradient id="at" x1="50.374" y1="18.301" x2="52.01" y2="20.569" gradientUnits="userSpaceOnUse"><stop stop-color="#FFDECF"/><stop offset=".379" stop-color="#FDC4B0"/><stop offset=".765" stop-color="#FBAE97"/><stop offset="1" stop-color="#FAA68E"/></linearGradient><linearGradient id="au" x1="48.028" y1="19.178" x2="49.014" y2="20.545" gradientUnits="userSpaceOnUse"><stop stop-color="#FFDECF"/><stop offset=".379" stop-color="#FDC4B0"/><stop offset=".765" stop-color="#FBAE97"/><stop offset="1" stop-color="#FAA68E"/></linearGradient><linearGradient id="av" x1="65.334" y1="10.466" x2="68.137" y2="14.353" gradientUnits="userSpaceOnUse"><stop stop-color="#FFDECF"/><stop offset=".379" stop-color="#FDC4B0"/><stop offset=".765" stop-color="#FBAE97"/><stop offset="1" stop-color="#FAA68E"/></linearGradient><linearGradient id="aw" x1="62.533" y1="21.123" x2="64.746" y2="24.191" gradientUnits="userSpaceOnUse"><stop stop-color="#FFDECF"/><stop offset=".379" stop-color="#FDC4B0"/><stop offset=".765" stop-color="#FBAE97"/><stop offset="1" stop-color="#FAA68E"/></linearGradient><linearGradient id="ax" x1="61.072" y1="17.033" x2="62.406" y2="18.883" gradientUnits="userSpaceOnUse"><stop stop-color="#FFDECF"/><stop offset=".379" stop-color="#FDC4B0"/><stop offset=".765" stop-color="#FBAE97"/><stop offset="1" stop-color="#FAA68E"/></linearGradient><linearGradient id="ay" x1="72.043" y1="12.421" x2="74.847" y2="16.308" gradientUnits="userSpaceOnUse"><stop stop-color="#FFDECF"/><stop offset=".379" stop-color="#FDC4B0"/><stop offset=".765" stop-color="#FBAE97"/><stop offset="1" stop-color="#FAA68E"/></linearGradient><linearGradient id="az" x1="71.033" y1="10.441" x2="73.246" y2="13.509" gradientUnits="userSpaceOnUse"><stop stop-color="#FFDECF"/><stop offset=".379" stop-color="#FDC4B0"/><stop offset=".765" stop-color="#FBAE97"/><stop offset="1" stop-color="#FAA68E"/></linearGradient><linearGradient id="aA" x1="68.964" y1="10.691" x2="70.298" y2="12.54" gradientUnits="userSpaceOnUse"><stop stop-color="#FFDECF"/><stop offset=".379" stop-color="#FDC4B0"/><stop offset=".765" stop-color="#FBAE97"/><stop offset="1" stop-color="#FAA68E"/></linearGradient><linearGradient id="aB" x1="65.569" y1="18.107" x2="67.641" y2="20.979" gradientUnits="userSpaceOnUse"><stop stop-color="#FFDECF"/><stop offset=".379" stop-color="#FDC4B0"/><stop offset=".765" stop-color="#FBAE97"/><stop offset="1" stop-color="#FAA68E"/></linearGradient><linearGradient id="aC" x1="68.559" y1="12.775" x2="70.195" y2="15.043" gradientUnits="userSpaceOnUse"><stop stop-color="#FFDECF"/><stop offset=".379" stop-color="#FDC4B0"/><stop offset=".765" stop-color="#FBAE97"/><stop offset="1" stop-color="#FAA68E"/></linearGradient><linearGradient id="aD" x1="66.213" y1="13.652" x2="67.199" y2="15.019" gradientUnits="userSpaceOnUse"><stop stop-color="#FFDECF"/><stop offset=".379" stop-color="#FDC4B0"/><stop offset=".765" stop-color="#FBAE97"/><stop offset="1" stop-color="#FAA68E"/></linearGradient></defs></svg>