<svg width="146" height="151" fill="none" xmlns="http://www.w3.org/2000/svg"><path d="M143.267 97.359c2.34-1.215 3.123-4.451 1.193-6.608L65.052 2.001C63.545.316 61.187.202 59.528 1.296l-18.672 11.08c-.967.505-17.443 79.57-18.48 91.608a4.248 4.248 0 0 0 3.601 4.567c13.145 1.98 31.226 1.552 50.736 1.552 17.615 0 33.431.652 46.08-.997a4.26 4.26 0 0 0 1.802-.667l18.672-11.08Z" fill="url(#a)"/><path d="m144.46 90.751-13.783-15.404-16.929 16.928 10.823 16.177.023-.013 18.672-11.08c2.34-1.216 3.123-4.451 1.194-6.608Z" fill="url(#b)"/><path d="M50.77 10.63c-14.34 12.7 65.034 102.312 79.372 89.612 2.473-2.19 2.157-6.667-.129-12.511a15.2 15.2 0 0 1-.983-6.83l.021-.255c.437-5.18-2.217-9.769-6.797-11.751l-.003-.002c-3.913-1.693-6.469-5.311-6.819-9.652l-.033-.413c-.386-4.785-3.481-8.637-8.036-10l-.348-.104c-4.184-1.251-7.163-4.614-7.9-8.918l-.063-.36c-.803-4.686-4.254-8.224-8.958-9.184l-.492-.1c-4.242-.867-7.497-3.84-8.669-7.917-1.372-4.779-5.579-7.973-10.751-8.163l-.348-.013a15.192 15.192 0 0 1-6.66-1.8c-5.526-2.975-9.932-3.829-12.405-1.639Z" fill="url(#c)"/><path d="M130.014 87.731a15.18 15.18 0 0 1-.984-6.83l.021-.256c.435-5.178-2.218-9.767-6.796-11.75h-.006c-3.91-1.695-6.467-5.314-6.818-9.654l-.033-.411c-.386-4.786-3.481-8.64-8.037-10.002l-.346-.103c-4.183-1.251-7.164-4.616-7.902-8.918l-.062-.36c-.503-2.94-2.049-5.427-4.292-7.107 1.781 5.002.67 10.802-3.332 14.804L76.864 61.707c20.389 23.747 45.765 45.191 53.28 38.534 2.469-2.189 2.156-6.667-.13-12.51Z" fill="url(#d)"/><path d="M62.893 37.925c7.136 0 12.921-5.785 12.921-12.921 0-7.136-5.785-12.922-12.921-12.922-7.137 0-12.922 5.786-12.922 12.922 0 7.136 5.785 12.921 12.922 12.921Z" fill="url(#e)"/><path d="M104.758 82.33c7.137 0 12.922-5.785 12.922-12.921 0-7.137-5.785-12.922-12.922-12.922-7.136 0-12.921 5.785-12.921 12.922 0 7.136 5.785 12.921 12.921 12.921Z" fill="url(#f)"/><path d="M127.711 68.714c-5.54-5.54-14.523-5.54-20.063 0-5.54 5.54-5.54 14.522 0 20.062 5.54 5.54 14.523 5.54 20.063 0 5.54-5.54 5.54-14.522 0-20.062Zm-16.402 16.4a9.008 9.008 0 1 1 12.739-12.739 9.007 9.007 0 0 1 .001 12.74c-3.517 3.517-9.222 3.517-12.74 0Z" fill="url(#g)"/><path d="M109.335 87.089c4.608 4.608 12.081 4.608 16.688 0 4.61-4.61 4.608-12.08 0-16.688-4.609-4.61-12.079-4.61-16.688 0-4.607 4.607-4.609 12.079 0 16.688Zm14.715-14.714a9.008 9.008 0 1 1-12.739 12.739 9.007 9.007 0 0 1-.001-12.74c3.517-3.517 9.222-3.517 12.74 0Z" fill="url(#h)"/><path d="M91.428 27.08c-5.54-5.54-14.522-5.54-20.063 0-5.54 5.54-5.54 14.523 0 20.063 5.54 5.54 14.523 5.54 20.063 0 5.54-5.54 5.54-14.522 0-20.062ZM75.026 43.483a9.01 9.01 0 0 1 0-12.74c3.518-3.518 9.222-3.516 12.739.001 3.517 3.518 3.519 9.222.001 12.74a9.01 9.01 0 0 1-12.74-.001Z" fill="url(#i)"/><path d="M73.052 45.456c4.608 4.608 12.08 4.608 16.688 0 4.61-4.609 4.608-12.08 0-16.688-4.609-4.61-12.079-4.61-16.688 0-4.608 4.608-4.61 12.079 0 16.688Zm14.714-14.714a9.01 9.01 0 0 1 0 12.74c-3.517 3.518-9.22 3.516-12.738-.002-3.518-3.517-3.52-9.22-.002-12.738a9.01 9.01 0 0 1 12.74 0Z" fill="url(#j)"/><path d="m121.144 94.91 2.037-1.858c2.947-2.69 3.36-7.436.965-11.53-5.36-9.162-14.842-21.644-26.611-34.541C85.765 34.083 74.2 23.5 65.567 17.327c-3.858-2.76-8.622-2.78-11.57-.091l-2.036 1.858c-1.461 1.333-.961 3.99 1.003 5.266 8.832 5.734 21.672 17.213 34.768 31.565 13.097 14.352 23.356 28.186 28.26 37.506 1.09 2.072 3.691 2.813 5.152 1.479Z" fill="url(#k)"/><path d="M64.479 32.572a37.252 37.252 0 0 0 15.277 15.277 1.623 1.623 0 0 0 2.389-1.432V34.571a4.388 4.388 0 0 0-4.388-4.388H65.91a1.624 1.624 0 0 0-1.431 2.389Z" fill="url(#l)"/><path d="M48.409 13.718c-7.322 6.486 72.05 96.097 79.373 89.612 1.262-1.119-.054-4.71-3.133-9.852-1.119-1.867-1.939-3.777-2.372-5.598l-.047-.195c-.941-3.96-3.982-8.206-7.788-10.875l-.002-.002c-3.251-2.28-5.985-5.74-7.293-9.231l-.125-.332c-1.442-3.85-4.625-7.625-8.261-9.8l-.278-.167c-3.34-1.998-6.32-5.361-7.9-8.918l-.133-.298c-1.72-3.873-5.084-7.488-8.732-9.384l-.381-.199c-3.29-1.71-6.374-4.834-8.215-8.319-2.157-4.084-5.986-7.612-9.786-9.018l-.256-.095c-1.755-.65-3.551-1.695-5.27-3.03-4.733-3.677-8.139-5.417-9.401-4.299Z" fill="url(#m)"/><path d="m134.011 102.852-9.415 5.586a4.267 4.267 0 0 1-1.803.668c-12.651 1.648-28.465-2.816-46.08-2.816-19.51 0-37.59 4.24-50.736 2.262a4.25 4.25 0 0 1-3.602-4.568c1.037-12.04 17.515-91.102 18.482-91.608l7.97-4.73 85.184 95.206Z" fill="url(#n)"/><path d="m134.011 102.852-9.415 5.586a4.267 4.267 0 0 1-1.803.668c-12.651 1.648-28.815-.967-46.43-.967-19.51 0-37.24 2.391-50.386.413a4.25 4.25 0 0 1-3.602-4.568c1.037-12.04 17.515-91.102 18.482-91.608l7.97-4.73 85.184 95.206Z" fill="url(#o)"/><path d="M38.751 14.96c-11.37 39.07 9.212 48.313 8.174 60.351-.193 2.235-23.167 32.905-20.949 33.24 13.145 1.979 30.987 1.313 50.498 1.313 17.615 0 33.669.89 46.318-.759 3.393-.442 4.904-4.501 2.622-7.052l-79.408-88.75c-2.229-2.491-6.321-1.552-7.255 1.657Z" fill="url(#p)"/><path d="M22.374 103.984a4.248 4.248 0 0 0 3.602 4.567c13.145 1.979 30.877 3.193 50.387 3.193 17.615 0 33.78-.989 46.429-2.639 3.393-.442 4.904-4.501 2.622-7.052l-20.855-23.308H25.307c-1.635 11.49-2.518 20.43-2.933 25.239Z" fill="url(#q)"/><g opacity=".6"><g opacity=".6"><path opacity=".6" d="M50.478 32.215a2.278 2.278 0 1 0 0-4.556 2.278 2.278 0 0 0 0 4.556Z" fill="url(#r)"/><path opacity=".6" d="M43.568 33.938a1.799 1.799 0 1 0 0-3.597 1.799 1.799 0 0 0 0 3.597Z" fill="url(#s)"/><path opacity=".6" d="M48.958 39.113a1.084 1.084 0 1 0 0-2.168 1.084 1.084 0 0 0 0 2.168Z" fill="url(#t)"/></g><g opacity=".6"><path opacity=".6" d="M35.102 95.827a2.278 2.278 0 1 0 0-4.557 2.278 2.278 0 0 0 0 4.557Z" fill="url(#u)"/><path opacity=".6" d="M35.513 102.588a1.8 1.8 0 1 0-.001-3.598 1.8 1.8 0 0 0 0 3.598Z" fill="url(#v)"/><path opacity=".6" d="M42.56 98.122a1.084 1.084 0 1 0 0-2.168 1.084 1.084 0 0 0 0 2.168Z" fill="url(#w)"/></g><g opacity=".6"><path opacity=".6" d="M59.118 40.187a1.683 1.683 0 1 0 0-3.367 1.683 1.683 0 0 0 0 3.367Z" fill="url(#x)"/><path opacity=".6" d="M54.501 37.112a1.329 1.329 0 1 0 0-2.658 1.329 1.329 0 0 0 0 2.658Z" fill="url(#y)"/><path opacity=".6" d="M53.913 42.454a.801.801 0 1 0 0-1.603.801.801 0 0 0 0 1.603Z" fill="url(#z)"/></g><g opacity=".6"><path opacity=".6" d="M97.744 99.967a1.683 1.683 0 1 0 0-3.366 1.683 1.683 0 0 0 0 3.366Z" fill="url(#A)"/><path opacity=".6" d="M93.127 96.893a1.329 1.329 0 1 0 0-2.658 1.329 1.329 0 0 0 0 2.658Z" fill="url(#B)"/><path opacity=".6" d="M92.538 102.235a.801.801 0 1 0 0-1.603.801.801 0 0 0 0 1.603Z" fill="url(#C)"/></g></g><path d="M109.01 62.735a1.09 1.09 0 1 0 .71 2.06 1.09 1.09 0 0 0-.71-2.06ZM111.924 64.857a.861.861 0 1 0 1.628-.561.861.861 0 0 0-1.628.56ZM114.297 60.934a.518.518 0 1 0 .98-.337.518.518 0 0 0-.98.337ZM106.494 53.812a1.09 1.09 0 1 0 1.533-1.55 1.09 1.09 0 0 0-1.533 1.55ZM95.38 48.187a.86.86 0 1 0 1.21-1.224.86.86 0 0 0-1.21 1.224ZM101.443 53.406a.52.52 0 1 0 .73-.738.52.52 0 0 0-.73.738ZM110.799 59.692a.805.805 0 1 0 .81-1.39.805.805 0 0 0-.81 1.39ZM108.605 60.72a.635.635 0 1 0 .64-1.098.635.635 0 0 0-.64 1.097ZM111.343 61.575a.383.383 0 1 0-.386.662.383.383 0 0 0 .386-.662ZM86.998 42.909a1.09 1.09 0 1 0 .71 2.06 1.09 1.09 0 0 0-.71-2.06ZM97.253 52.227a.86.86 0 1 0 1.627-.56.86.86 0 0 0-1.627.56ZM95.015 44.051a.519.519 0 1 0 .98-.337.519.519 0 0 0-.98.337ZM83.665 37.781a1.09 1.09 0 1 0 1.533-1.55 1.09 1.09 0 0 0-1.533 1.55ZM82.76 38.926a.86.86 0 1 0 1.224 1.21.86.86 0 0 0-1.224-1.21ZM84.484 41.962a.518.518 0 1 0 .73-.737.518.518 0 0 0-.73.737ZM93.058 39.67a.805.805 0 1 0 .811-1.39.805.805 0 0 0-.81 1.39ZM86.593 40.893a.636.636 0 1 0 .64-1.1.636.636 0 0 0-.64 1.1ZM89.33 41.75a.383.383 0 1 0-.386.662.383.383 0 0 0 .386-.663Z" fill="#FFEAA2"/><path d="M38.751 14.96c-11.37 39.07-15.338 76.985-16.377 89.023a4.248 4.248 0 0 0 3.602 4.567c13.145 1.98 30.877 3.194 50.387 3.194 17.615 0 33.78-.99 46.429-2.639 3.393-.442 4.904-4.502 2.622-7.052l-79.408-88.75c-2.229-2.491-6.321-1.552-7.255 1.657Z" fill="url(#D)"/><path d="M121.046 136.198c2.34-1.215 3.124-4.451 1.194-6.608L42.831 40.84c-1.507-1.684-3.865-1.799-5.523-.705l-18.672 11.08a4.204 4.204 0 0 0-2.105 2.585C5.161 92.87 1.193 130.785.155 142.823a4.248 4.248 0 0 0 3.601 4.567c13.146 1.98 30.877 3.193 50.387 3.193 17.615 0 33.78-.989 46.429-2.638a4.224 4.224 0 0 0 1.802-.667l18.672-11.08Z" fill="url(#E)"/><path d="m122.24 129.59-13.783-15.404-16.928 16.929 10.823 16.177.023-.014 18.672-11.08c2.34-1.215 3.123-4.451 1.193-6.608Z" fill="url(#F)"/><path d="M28.55 49.47c-14.34 12.7 65.034 102.312 79.372 89.611 2.473-2.189 2.157-6.667-.129-12.511a15.202 15.202 0 0 1-.983-6.829l.022-.256c.436-5.18-2.218-9.768-6.798-11.751l-.003-.002c-3.913-1.693-6.469-5.311-6.819-9.651l-.033-.413c-.386-4.786-3.481-8.638-8.036-10l-.348-.104c-4.184-1.252-7.163-4.614-7.9-8.918l-.063-.36c-.803-4.687-4.253-8.225-8.958-9.185l-.492-.1c-4.242-.867-7.497-3.84-8.668-7.917-1.373-4.779-5.58-7.972-10.752-8.163l-.348-.013a15.193 15.193 0 0 1-6.66-1.8c-5.526-2.975-9.932-3.828-12.404-1.639Z" fill="url(#G)"/><path d="M107.794 126.57a15.192 15.192 0 0 1-.983-6.829l.021-.257c.435-5.178-2.219-9.767-6.797-11.75h-.005c-3.91-1.695-6.467-5.314-6.819-9.654l-.032-.41c-.386-4.787-3.48-8.64-8.037-10.003l-.346-.103c-4.184-1.25-7.165-4.615-7.902-8.918l-.063-.36c-.502-2.94-2.048-5.426-4.291-7.107 1.78 5.002.67 10.802-3.332 14.804l-14.563 14.563c20.389 23.747 45.764 45.191 53.279 38.534 2.47-2.188 2.157-6.667-.13-12.51Z" fill="url(#H)"/><path d="M40.673 76.765c7.136 0 12.921-5.785 12.921-12.922 0-7.136-5.785-12.921-12.921-12.921-7.136 0-12.922 5.785-12.922 12.921 0 7.137 5.786 12.922 12.922 12.922Z" fill="url(#I)"/><path d="M82.539 121.17c7.136 0 12.921-5.786 12.921-12.922 0-7.136-5.785-12.921-12.921-12.921-7.137 0-12.922 5.785-12.922 12.921 0 7.136 5.785 12.922 12.922 12.922Z" fill="url(#J)"/><path d="M105.491 107.553c-5.54-5.54-14.523-5.54-20.063 0-5.54 5.54-5.54 14.522 0 20.062 5.54 5.54 14.523 5.54 20.063 0 5.54-5.54 5.54-14.522 0-20.062ZM89.09 123.954a9.008 9.008 0 1 1 12.738-12.738c3.518 3.517 3.519 9.221.002 12.738a9.01 9.01 0 0 1-12.74 0Z" fill="url(#K)"/><path d="M87.115 125.928c4.608 4.608 12.081 4.608 16.689 0 4.609-4.609 4.607-12.08 0-16.688-4.61-4.609-12.08-4.609-16.689 0-4.607 4.608-4.609 12.079 0 16.688Zm14.715-14.714c3.517 3.518 3.517 9.223 0 12.74-3.518 3.518-9.222 3.516-12.739-.001-3.517-3.518-3.52-9.221-.001-12.739a9.01 9.01 0 0 1 12.74 0Z" fill="url(#L)"/><path d="M69.208 65.92c-5.54-5.54-14.522-5.54-20.062 0-5.54 5.54-5.54 14.522 0 20.063 5.54 5.54 14.522 5.54 20.062 0 5.54-5.54 5.54-14.523 0-20.063ZM52.807 82.321a9.01 9.01 0 0 1 0-12.74c3.517-3.517 9.221-3.516 12.738.002 3.518 3.517 3.52 9.221.002 12.739a9.01 9.01 0 0 1-12.74 0Z" fill="url(#M)"/><path d="M50.833 84.296c4.607 4.607 12.08 4.607 16.688 0 4.61-4.61 4.608-12.081 0-16.689-4.61-4.609-12.08-4.609-16.688 0-4.608 4.608-4.61 12.08 0 16.689ZM65.547 69.58a9.01 9.01 0 0 1 0 12.74c-3.518 3.518-9.221 3.517-12.739-.001-3.517-3.518-3.519-9.221-.001-12.739a9.01 9.01 0 0 1 12.74 0Z" fill="url(#N)"/><path d="m98.924 133.75 2.037-1.859c2.948-2.689 3.361-7.436.966-11.529-5.36-9.162-14.842-21.644-26.612-34.542-11.769-12.897-23.333-23.479-31.967-29.654-3.858-2.759-8.622-2.78-11.57-.09l-2.036 1.858c-1.462 1.333-.961 3.99 1.002 5.266 8.833 5.733 21.673 17.213 34.77 31.565 13.096 14.352 23.355 28.186 28.259 37.505 1.09 2.072 3.69 2.813 5.151 1.48Z" fill="url(#O)"/><path d="M67.049 77.404a1.09 1.09 0 1 0-.71-2.06 1.09 1.09 0 0 0 .71 2.06ZM64.135 75.282a.86.86 0 1 0-1.627.56.86.86 0 0 0 1.627-.56ZM61.763 79.205a.519.519 0 1 0-.981.337.519.519 0 0 0 .98-.337ZM69.566 86.327a1.09 1.09 0 1 0-1.533 1.55 1.09 1.09 0 0 0 1.533-1.55ZM80.679 91.952a.86.86 0 1 0-1.21 1.223.86.86 0 0 0 1.21-1.223ZM74.616 86.733a.518.518 0 1 0-.73.737.518.518 0 0 0 .73-.737ZM65.26 80.446a.805.805 0 1 0-.81 1.392.805.805 0 0 0 .81-1.392ZM67.455 79.42a.636.636 0 1 0-.64 1.098.636.636 0 0 0 .64-1.099ZM64.717 78.564a.383.383 0 1 0 .386-.663.383.383 0 0 0-.386.663ZM89.06 97.23a1.09 1.09 0 1 0-.708-2.06 1.09 1.09 0 0 0 .709 2.06ZM78.808 87.911a.86.86 0 1 0-1.627.56.86.86 0 0 0 1.627-.56ZM81.045 96.088a.519.519 0 1 0-.98.337.519.519 0 0 0 .98-.337ZM92.394 102.357a1.09 1.09 0 1 0-1.532 1.55 1.09 1.09 0 0 0 1.532-1.55ZM93.299 101.212a.86.86 0 1 0-1.223-1.21.86.86 0 0 0 1.223 1.21ZM91.575 98.177a.519.519 0 1 0-.73.737.519.519 0 0 0 .73-.737ZM83 100.468a.805.805 0 1 0-.81 1.391.805.805 0 0 0 .81-1.391ZM89.468 99.246a.636.636 0 1 0-.64 1.098.636.636 0 0 0 .64-1.098ZM86.73 98.39a.383.383 0 1 0 .386-.663.383.383 0 0 0-.386.663Z" fill="#FFEAA2"/><path d="M42.26 71.411a37.254 37.254 0 0 0 15.277 15.277 1.623 1.623 0 0 0 2.389-1.431V73.41a4.388 4.388 0 0 0-4.388-4.388H43.69a1.624 1.624 0 0 0-1.43 2.39Z" fill="url(#P)"/><path d="M26.19 52.557c-7.323 6.486 72.05 96.098 79.372 89.612 1.263-1.118-.053-4.709-3.132-9.851-1.119-1.868-1.94-3.778-2.373-5.599l-.046-.195c-.941-3.959-3.982-8.206-7.788-10.874l-.003-.002c-3.25-2.28-5.984-5.74-7.293-9.232l-.124-.332c-1.442-3.849-4.625-7.624-8.261-9.8l-.279-.166c-3.34-1.999-6.319-5.362-7.9-8.919l-.132-.298c-1.721-3.873-5.084-7.487-8.732-9.384l-.382-.198c-3.29-1.71-6.373-4.834-8.214-8.319-2.157-4.084-5.986-7.613-9.786-9.019l-.256-.094c-1.755-.65-3.552-1.695-5.27-3.03-4.734-3.678-8.14-5.418-9.402-4.3Z" fill="url(#Q)"/><path d="m111.792 141.691-9.415 5.587a4.261 4.261 0 0 1-1.803.667c-12.65 1.649-28.814 2.638-46.43 2.638-19.51 0-37.24-1.214-50.386-3.192a4.25 4.25 0 0 1-3.602-4.567c1.038-12.04 5.008-49.954 16.377-89.025a4.205 4.205 0 0 1 2.106-2.583l7.97-4.73 85.183 95.205Z" fill="url(#R)"/><path d="m111.792 141.691-9.415 5.587a4.261 4.261 0 0 1-1.803.667c-12.65 1.649-28.814 2.638-46.43 2.638-19.51 0-37.24-1.214-50.386-3.192a4.25 4.25 0 0 1-3.602-4.567c1.038-12.04 5.89-48.778 17.26-87.848a4.205 4.205 0 0 1 2.105-2.584l7.087-5.906 85.184 95.205Z" fill="url(#S)"/><path d="M16.532 53.8C5.162 92.87 1.194 130.784.156 142.822a4.248 4.248 0 0 0 3.601 4.567c13.145 1.98 30.877 3.193 50.387 3.193 17.615 0 33.78-.989 46.429-2.638 3.393-.442 4.904-4.502 2.622-7.052l-79.408-88.75c-2.229-2.492-6.32-1.553-7.255 1.656Z" fill="url(#T)"/><path d="M.156 142.823a4.248 4.248 0 0 0 3.601 4.567c13.145 1.98 30.877 3.193 50.387 3.193 17.615 0 33.78-.989 46.429-2.638 3.393-.442 4.904-4.502 2.622-7.052L82.34 117.584l-77.828.146C2.877 129.22.57 138.014.156 142.823Z" fill="url(#U)"/><g opacity=".6"><g opacity=".6"><path opacity=".6" d="M28.259 71.055a2.278 2.278 0 1 0 0-4.557 2.278 2.278 0 0 0 0 4.556Z" fill="url(#V)"/><path opacity=".6" d="M21.349 72.777a1.799 1.799 0 1 0 0-3.597 1.799 1.799 0 0 0 0 3.597Z" fill="url(#W)"/><path opacity=".6" d="M26.738 77.952a1.084 1.084 0 1 0 0-2.168 1.084 1.084 0 0 0 0 2.168Z" fill="url(#X)"/></g><g opacity=".6"><path opacity=".6" d="M12.883 134.666a2.278 2.278 0 1 0 0-4.556 2.278 2.278 0 0 0 0 4.556Z" fill="url(#Y)"/><path opacity=".6" d="M13.293 141.427a1.798 1.798 0 1 0 0-3.597 1.798 1.798 0 0 0 0 3.597Z" fill="url(#Z)"/><path opacity=".6" d="M20.34 136.961a1.084 1.084 0 1 0 .001-2.168 1.084 1.084 0 0 0 0 2.168Z" fill="url(#aa)"/></g><g opacity=".6"><path opacity=".6" d="M36.899 79.026a1.683 1.683 0 1 0 0-3.367 1.683 1.683 0 0 0 0 3.367Z" fill="url(#ab)"/><path opacity=".6" d="M32.282 75.951a1.329 1.329 0 1 0 0-2.658 1.329 1.329 0 0 0 0 2.658Z" fill="url(#ac)"/><path opacity=".6" d="M31.693 81.293a.801.801 0 1 0 0-1.602.801.801 0 0 0 0 1.602Z" fill="url(#ad)"/></g><g opacity=".6"><path opacity=".6" d="M75.524 138.807a1.683 1.683 0 1 0 0-3.367 1.683 1.683 0 0 0 0 3.367Z" fill="url(#ae)"/><path opacity=".6" d="M70.907 135.732a1.329 1.329 0 1 0 0-2.658 1.329 1.329 0 0 0 0 2.658Z" fill="url(#af)"/><path opacity=".6" d="M70.319 141.074a.801.801 0 1 0 0-1.603.801.801 0 0 0 0 1.603Z" fill="url(#ag)"/></g></g><defs><linearGradient id="a" x1="105.044" y1="31.312" x2="83.694" y2="71.309" gradientUnits="userSpaceOnUse"><stop stop-color="#FFD945"/><stop offset=".304" stop-color="#FFCD3E"/><stop offset=".856" stop-color="#FFAD2B"/><stop offset="1" stop-color="#FFA325"/></linearGradient><linearGradient id="b" x1="137.28" y1="94.314" x2="124.848" y2="91.206" gradientUnits="userSpaceOnUse"><stop stop-color="#F82814" stop-opacity="0"/><stop offset=".245" stop-color="#F12817" stop-opacity=".245"/><stop offset=".605" stop-color="#DD2820" stop-opacity=".605"/><stop offset="1" stop-color="#C0272D"/></linearGradient><linearGradient id="c" x1="103.614" y1="42.278" x2="97.19" y2="48.702" gradientUnits="userSpaceOnUse"><stop stop-color="#BADA00"/><stop offset=".227" stop-color="#B0CE00"/><stop offset=".638" stop-color="#95AE00"/><stop offset="1" stop-color="#798C00"/></linearGradient><linearGradient id="d" x1="109.075" y1="66.785" x2="84.392" y2="64.623" gradientUnits="userSpaceOnUse"><stop stop-color="#798C00" stop-opacity="0"/><stop offset=".654" stop-color="#556100" stop-opacity=".654"/><stop offset="1" stop-color="#464F00"/></linearGradient><linearGradient id="e" x1="65.267" y1="14.676" x2="61.663" y2="30.351" gradientUnits="userSpaceOnUse"><stop stop-color="#FF6359"/><stop offset=".224" stop-color="#FE5B50"/><stop offset=".595" stop-color="#FC4637"/><stop offset="1" stop-color="#F82814"/></linearGradient><linearGradient id="f" x1="107.133" y1="59.081" x2="103.529" y2="74.756" gradientUnits="userSpaceOnUse"><stop stop-color="#FF6359"/><stop offset=".224" stop-color="#FE5B50"/><stop offset=".595" stop-color="#FC4637"/><stop offset="1" stop-color="#F82814"/></linearGradient><linearGradient id="g" x1="121.818" y1="66.471" x2="116.168" y2="82.959" gradientUnits="userSpaceOnUse"><stop stop-color="#FFDECF"/><stop offset=".379" stop-color="#FDC4B0"/><stop offset=".765" stop-color="#FBAE97"/><stop offset="1" stop-color="#FAA68E"/></linearGradient><linearGradient id="h" x1="114.292" y1="88.809" x2="118.992" y2="75.094" gradientUnits="userSpaceOnUse"><stop stop-color="#FFDECF"/><stop offset=".379" stop-color="#FDC4B0"/><stop offset=".765" stop-color="#FBAE97"/><stop offset="1" stop-color="#FAA68E"/></linearGradient><linearGradient id="i" x1="85.54" y1="24.844" x2="79.891" y2="41.332" gradientUnits="userSpaceOnUse"><stop stop-color="#FFDECF"/><stop offset=".379" stop-color="#FDC4B0"/><stop offset=".765" stop-color="#FBAE97"/><stop offset="1" stop-color="#FAA68E"/></linearGradient><linearGradient id="j" x1="78.014" y1="47.183" x2="82.714" y2="33.468" gradientUnits="userSpaceOnUse"><stop stop-color="#FFDECF"/><stop offset=".379" stop-color="#FDC4B0"/><stop offset=".765" stop-color="#FBAE97"/><stop offset="1" stop-color="#FAA68E"/></linearGradient><linearGradient id="k" x1="97.144" y1="47.342" x2="84.166" y2="59.181" gradientUnits="userSpaceOnUse"><stop stop-color="#A57C52"/><stop offset=".134" stop-color="#A26C4A"/><stop offset=".515" stop-color="#994336"/><stop offset=".817" stop-color="#942A2A"/><stop offset="1" stop-color="#922125"/></linearGradient><linearGradient id="l" x1="73.215" y1="31.178" x2="73.215" y2="48.668" gradientUnits="userSpaceOnUse"><stop stop-color="#FFD945"/><stop offset=".304" stop-color="#FFCD3E"/><stop offset=".856" stop-color="#FFAD2B"/><stop offset="1" stop-color="#FFA325"/></linearGradient><linearGradient id="m" x1="95.155" y1="52.134" x2="90.347" y2="56.486" gradientUnits="userSpaceOnUse"><stop stop-color="#BADA00"/><stop offset=".227" stop-color="#B0CE00"/><stop offset=".638" stop-color="#95AE00"/><stop offset="1" stop-color="#798C00"/></linearGradient><linearGradient id="n" x1="96.584" y1="40.46" x2="77.67" y2="75.893" gradientUnits="userSpaceOnUse"><stop stop-color="#FFD945"/><stop offset=".304" stop-color="#FFCD3E"/><stop offset=".856" stop-color="#FFAD2B"/><stop offset="1" stop-color="#FFA325"/></linearGradient><linearGradient id="o" x1="88.8" y1="56.247" x2="78.796" y2="66.251" gradientUnits="userSpaceOnUse"><stop stop-color="#F82814" stop-opacity="0"/><stop offset=".292" stop-color="#EC2819" stop-opacity=".292"/><stop offset=".817" stop-color="#CD2727" stop-opacity=".817"/><stop offset="1" stop-color="#C0272D"/></linearGradient><linearGradient id="p" x1="41.185" y1="38.283" x2="86.048" y2="125.305" gradientUnits="userSpaceOnUse"><stop stop-color="#FAA68E"/><stop offset=".206" stop-color="#FBA682"/><stop offset=".581" stop-color="#FDA861"/><stop offset="1" stop-color="#FFA936"/></linearGradient><linearGradient id="q" x1="74.43" y1="98.671" x2="74.43" y2="125.718" gradientUnits="userSpaceOnUse"><stop stop-color="#F82814" stop-opacity="0"/><stop offset=".245" stop-color="#F12817" stop-opacity=".245"/><stop offset=".605" stop-color="#DD2820" stop-opacity=".605"/><stop offset="1" stop-color="#C0272D"/></linearGradient><linearGradient id="r" x1="50.56" y1="33.116" x2="51.313" y2="22.363" gradientUnits="userSpaceOnUse"><stop stop-color="#F82814" stop-opacity="0"/><stop offset=".245" stop-color="#F12817" stop-opacity=".245"/><stop offset=".605" stop-color="#DD2820" stop-opacity=".605"/><stop offset="1" stop-color="#C0272D"/></linearGradient><linearGradient id="s" x1="43.703" y1="34.589" x2="44.297" y2="26.1" gradientUnits="userSpaceOnUse"><stop stop-color="#F82814" stop-opacity="0"/><stop offset=".245" stop-color="#F12817" stop-opacity=".245"/><stop offset=".605" stop-color="#DD2820" stop-opacity=".605"/><stop offset="1" stop-color="#C0272D"/></linearGradient><linearGradient id="t" x1="49.167" y1="39.393" x2="49.525" y2="34.275" gradientUnits="userSpaceOnUse"><stop stop-color="#F82814" stop-opacity="0"/><stop offset=".245" stop-color="#F12817" stop-opacity=".245"/><stop offset=".605" stop-color="#DD2820" stop-opacity=".605"/><stop offset="1" stop-color="#C0272D"/></linearGradient><linearGradient id="u" x1="39.064" y1="94.491" x2="28.833" y2="91.089" gradientUnits="userSpaceOnUse"><stop stop-color="#F82814" stop-opacity="0"/><stop offset=".245" stop-color="#F12817" stop-opacity=".245"/><stop offset=".605" stop-color="#DD2820" stop-opacity=".605"/><stop offset="1" stop-color="#C0272D"/></linearGradient><linearGradient id="v" x1="38.786" y1="101.501" x2="30.709" y2="98.815" gradientUnits="userSpaceOnUse"><stop stop-color="#F82814" stop-opacity="0"/><stop offset=".245" stop-color="#F12817" stop-opacity=".245"/><stop offset=".605" stop-color="#DD2820" stop-opacity=".605"/><stop offset="1" stop-color="#C0272D"/></linearGradient><linearGradient id="w" x1="44.799" y1="97.402" x2="39.929" y2="95.783" gradientUnits="userSpaceOnUse"><stop stop-color="#F82814" stop-opacity="0"/><stop offset=".245" stop-color="#F12817" stop-opacity=".245"/><stop offset=".605" stop-color="#DD2820" stop-opacity=".605"/><stop offset="1" stop-color="#C0272D"/></linearGradient><linearGradient id="x" x1="57.556" y1="39.864" x2="63.849" y2="34.981" gradientUnits="userSpaceOnUse"><stop stop-color="#F82814" stop-opacity="0"/><stop offset=".245" stop-color="#F12817" stop-opacity=".245"/><stop offset=".605" stop-color="#DD2820" stop-opacity=".605"/><stop offset="1" stop-color="#C0272D"/></linearGradient><linearGradient id="y" x1="53.367" y1="36.813" x2="58.335" y2="32.959" gradientUnits="userSpaceOnUse"><stop stop-color="#F82814" stop-opacity="0"/><stop offset=".245" stop-color="#F12817" stop-opacity=".245"/><stop offset=".605" stop-color="#DD2820" stop-opacity=".605"/><stop offset="1" stop-color="#C0272D"/></linearGradient><linearGradient id="z" x1="53.413" y1="42.188" x2="56.408" y2="39.864" gradientUnits="userSpaceOnUse"><stop stop-color="#F82814" stop-opacity="0"/><stop offset=".245" stop-color="#F12817" stop-opacity=".245"/><stop offset=".605" stop-color="#DD2820" stop-opacity=".605"/><stop offset="1" stop-color="#C0272D"/></linearGradient><linearGradient id="A" x1="96.158" y1="99.627" x2="102.45" y2="94.745" gradientUnits="userSpaceOnUse"><stop stop-color="#F82814" stop-opacity="0"/><stop offset=".245" stop-color="#F12817" stop-opacity=".245"/><stop offset=".605" stop-color="#DD2820" stop-opacity=".605"/><stop offset="1" stop-color="#C0272D"/></linearGradient><linearGradient id="B" x1="91.969" y1="96.577" x2="96.936" y2="92.722" gradientUnits="userSpaceOnUse"><stop stop-color="#F82814" stop-opacity="0"/><stop offset=".245" stop-color="#F12817" stop-opacity=".245"/><stop offset=".605" stop-color="#DD2820" stop-opacity=".605"/><stop offset="1" stop-color="#C0272D"/></linearGradient><linearGradient id="C" x1="92.014" y1="101.952" x2="95.009" y2="99.628" gradientUnits="userSpaceOnUse"><stop stop-color="#F82814" stop-opacity="0"/><stop offset=".245" stop-color="#F12817" stop-opacity=".245"/><stop offset=".605" stop-color="#DD2820" stop-opacity=".605"/><stop offset="1" stop-color="#C0272D"/></linearGradient><linearGradient id="D" x1="81.044" y1="62.291" x2="63.747" y2="82.831" gradientUnits="userSpaceOnUse"><stop stop-color="#FFD945"/><stop offset=".304" stop-color="#FFCD3E"/><stop offset=".856" stop-color="#FFAD2B"/><stop offset="1" stop-color="#FFA325"/></linearGradient><linearGradient id="E" x1="82.505" y1="69.981" x2="61.155" y2="109.978" gradientUnits="userSpaceOnUse"><stop stop-color="#FFD945"/><stop offset=".304" stop-color="#FFCD3E"/><stop offset=".856" stop-color="#FFAD2B"/><stop offset="1" stop-color="#FFA325"/></linearGradient><linearGradient id="F" x1="115.061" y1="133.153" x2="102.629" y2="130.045" gradientUnits="userSpaceOnUse"><stop stop-color="#F82814" stop-opacity="0"/><stop offset=".245" stop-color="#F12817" stop-opacity=".245"/><stop offset=".605" stop-color="#DD2820" stop-opacity=".605"/><stop offset="1" stop-color="#C0272D"/></linearGradient><linearGradient id="G" x1="81.394" y1="81.118" x2="74.97" y2="87.541" gradientUnits="userSpaceOnUse"><stop stop-color="#BADA00"/><stop offset=".227" stop-color="#B0CE00"/><stop offset=".638" stop-color="#95AE00"/><stop offset="1" stop-color="#798C00"/></linearGradient><linearGradient id="H" x1="86.856" y1="105.625" x2="62.172" y2="103.463" gradientUnits="userSpaceOnUse"><stop stop-color="#798C00" stop-opacity="0"/><stop offset=".654" stop-color="#556100" stop-opacity=".654"/><stop offset="1" stop-color="#464F00"/></linearGradient><linearGradient id="I" x1="43.047" y1="53.516" x2="39.444" y2="69.19" gradientUnits="userSpaceOnUse"><stop stop-color="#FF6359"/><stop offset=".224" stop-color="#FE5B50"/><stop offset=".595" stop-color="#FC4637"/><stop offset="1" stop-color="#F82814"/></linearGradient><linearGradient id="J" x1="84.913" y1="97.92" x2="81.309" y2="113.595" gradientUnits="userSpaceOnUse"><stop stop-color="#FF6359"/><stop offset=".224" stop-color="#FE5B50"/><stop offset=".595" stop-color="#FC4637"/><stop offset="1" stop-color="#F82814"/></linearGradient><linearGradient id="K" x1="99.601" y1="105.304" x2="93.951" y2="121.792" gradientUnits="userSpaceOnUse"><stop stop-color="#FFDECF"/><stop offset=".379" stop-color="#FDC4B0"/><stop offset=".765" stop-color="#FBAE97"/><stop offset="1" stop-color="#FAA68E"/></linearGradient><linearGradient id="L" x1="92.076" y1="127.643" x2="96.775" y2="113.928" gradientUnits="userSpaceOnUse"><stop stop-color="#FFDECF"/><stop offset=".379" stop-color="#FDC4B0"/><stop offset=".765" stop-color="#FBAE97"/><stop offset="1" stop-color="#FAA68E"/></linearGradient><linearGradient id="M" x1="63.324" y1="63.678" x2="57.674" y2="80.166" gradientUnits="userSpaceOnUse"><stop stop-color="#FFDECF"/><stop offset=".379" stop-color="#FDC4B0"/><stop offset=".765" stop-color="#FBAE97"/><stop offset="1" stop-color="#FAA68E"/></linearGradient><linearGradient id="N" x1="55.798" y1="86.016" x2="60.498" y2="72.301" gradientUnits="userSpaceOnUse"><stop stop-color="#FFDECF"/><stop offset=".379" stop-color="#FDC4B0"/><stop offset=".765" stop-color="#FBAE97"/><stop offset="1" stop-color="#FAA68E"/></linearGradient><linearGradient id="O" x1="74.943" y1="86.206" x2="61.966" y2="98.045" gradientUnits="userSpaceOnUse"><stop stop-color="#A57C52"/><stop offset=".134" stop-color="#A26C4A"/><stop offset=".515" stop-color="#994336"/><stop offset=".817" stop-color="#942A2A"/><stop offset="1" stop-color="#922125"/></linearGradient><linearGradient id="P" x1="50.996" y1="70.018" x2="50.996" y2="87.507" gradientUnits="userSpaceOnUse"><stop stop-color="#FFD945"/><stop offset=".304" stop-color="#FFCD3E"/><stop offset=".856" stop-color="#FFAD2B"/><stop offset="1" stop-color="#FFA325"/></linearGradient><linearGradient id="Q" x1="72.936" y1="90.973" x2="68.127" y2="95.326" gradientUnits="userSpaceOnUse"><stop stop-color="#BADA00"/><stop offset=".227" stop-color="#B0CE00"/><stop offset=".638" stop-color="#95AE00"/><stop offset="1" stop-color="#798C00"/></linearGradient><linearGradient id="R" x1="74.046" y1="79.129" x2="55.133" y2="114.562" gradientUnits="userSpaceOnUse"><stop stop-color="#FFD945"/><stop offset=".304" stop-color="#FFCD3E"/><stop offset=".856" stop-color="#FFAD2B"/><stop offset="1" stop-color="#FFA325"/></linearGradient><linearGradient id="S" x1="67.028" y1="95.532" x2="57.024" y2="105.536" gradientUnits="userSpaceOnUse"><stop stop-color="#F82814" stop-opacity="0"/><stop offset=".292" stop-color="#EC2819" stop-opacity=".292"/><stop offset=".817" stop-color="#CD2727" stop-opacity=".817"/><stop offset="1" stop-color="#C0272D"/></linearGradient><linearGradient id="T" x1="18.214" y1="77.51" x2="63.076" y2="164.532" gradientUnits="userSpaceOnUse"><stop stop-color="#FFD945"/><stop offset=".304" stop-color="#FFCD3E"/><stop offset=".856" stop-color="#FFAD2B"/><stop offset="1" stop-color="#FFA325"/></linearGradient><linearGradient id="U" x1="52.212" y1="137.511" x2="52.212" y2="164.558" gradientUnits="userSpaceOnUse"><stop stop-color="#F82814" stop-opacity="0"/><stop offset=".245" stop-color="#F12817" stop-opacity=".245"/><stop offset=".605" stop-color="#DD2820" stop-opacity=".605"/><stop offset="1" stop-color="#C0272D"/></linearGradient><linearGradient id="V" x1="28.344" y1="71.942" x2="29.096" y2="61.188" gradientUnits="userSpaceOnUse"><stop stop-color="#F82814" stop-opacity="0"/><stop offset=".245" stop-color="#F12817" stop-opacity=".245"/><stop offset=".605" stop-color="#DD2820" stop-opacity=".605"/><stop offset="1" stop-color="#C0272D"/></linearGradient><linearGradient id="W" x1="21.487" y1="73.415" x2="22.081" y2="64.926" gradientUnits="userSpaceOnUse"><stop stop-color="#F82814" stop-opacity="0"/><stop offset=".245" stop-color="#F12817" stop-opacity=".245"/><stop offset=".605" stop-color="#DD2820" stop-opacity=".605"/><stop offset="1" stop-color="#C0272D"/></linearGradient><linearGradient id="X" x1="26.95" y1="78.219" x2="27.308" y2="73.101" gradientUnits="userSpaceOnUse"><stop stop-color="#F82814" stop-opacity="0"/><stop offset=".245" stop-color="#F12817" stop-opacity=".245"/><stop offset=".605" stop-color="#DD2820" stop-opacity=".605"/><stop offset="1" stop-color="#C0272D"/></linearGradient><linearGradient id="Y" x1="16.872" y1="133.345" x2="6.64" y2="129.942" gradientUnits="userSpaceOnUse"><stop stop-color="#F82814" stop-opacity="0"/><stop offset=".245" stop-color="#F12817" stop-opacity=".245"/><stop offset=".605" stop-color="#DD2820" stop-opacity=".605"/><stop offset="1" stop-color="#C0272D"/></linearGradient><linearGradient id="Z" x1="16.594" y1="140.354" x2="8.516" y2="137.669" gradientUnits="userSpaceOnUse"><stop stop-color="#F82814" stop-opacity="0"/><stop offset=".245" stop-color="#F12817" stop-opacity=".245"/><stop offset=".605" stop-color="#DD2820" stop-opacity=".605"/><stop offset="1" stop-color="#C0272D"/></linearGradient><linearGradient id="aa" x1="22.606" y1="136.255" x2="17.737" y2="134.636" gradientUnits="userSpaceOnUse"><stop stop-color="#F82814" stop-opacity="0"/><stop offset=".245" stop-color="#F12817" stop-opacity=".245"/><stop offset=".605" stop-color="#DD2820" stop-opacity=".605"/><stop offset="1" stop-color="#C0272D"/></linearGradient><linearGradient id="ab" x1="35.339" y1="78.685" x2="41.631" y2="73.802" gradientUnits="userSpaceOnUse"><stop stop-color="#F82814" stop-opacity="0"/><stop offset=".245" stop-color="#F12817" stop-opacity=".245"/><stop offset=".605" stop-color="#DD2820" stop-opacity=".605"/><stop offset="1" stop-color="#C0272D"/></linearGradient><linearGradient id="ac" x1="31.15" y1="75.634" x2="36.118" y2="71.779" gradientUnits="userSpaceOnUse"><stop stop-color="#F82814" stop-opacity="0"/><stop offset=".245" stop-color="#F12817" stop-opacity=".245"/><stop offset=".605" stop-color="#DD2820" stop-opacity=".605"/><stop offset="1" stop-color="#C0272D"/></linearGradient><linearGradient id="ad" x1="31.196" y1="81.009" x2="34.191" y2="78.685" gradientUnits="userSpaceOnUse"><stop stop-color="#F82814" stop-opacity="0"/><stop offset=".245" stop-color="#F12817" stop-opacity=".245"/><stop offset=".605" stop-color="#DD2820" stop-opacity=".605"/><stop offset="1" stop-color="#C0272D"/></linearGradient><linearGradient id="ae" x1="73.94" y1="138.448" x2="80.233" y2="133.566" gradientUnits="userSpaceOnUse"><stop stop-color="#F82814" stop-opacity="0"/><stop offset=".245" stop-color="#F12817" stop-opacity=".245"/><stop offset=".605" stop-color="#DD2820" stop-opacity=".605"/><stop offset="1" stop-color="#C0272D"/></linearGradient><linearGradient id="af" x1="69.751" y1="135.398" x2="74.719" y2="131.543" gradientUnits="userSpaceOnUse"><stop stop-color="#F82814" stop-opacity="0"/><stop offset=".245" stop-color="#F12817" stop-opacity=".245"/><stop offset=".605" stop-color="#DD2820" stop-opacity=".605"/><stop offset="1" stop-color="#C0272D"/></linearGradient><linearGradient id="ag" x1="69.797" y1="140.773" x2="72.792" y2="138.449" gradientUnits="userSpaceOnUse"><stop stop-color="#F82814" stop-opacity="0"/><stop offset=".245" stop-color="#F12817" stop-opacity=".245"/><stop offset=".605" stop-color="#DD2820" stop-opacity=".605"/><stop offset="1" stop-color="#C0272D"/></linearGradient></defs></svg>