<svg width="151" height="151" viewBox="0 0 151 151" fill="none" xmlns="http://www.w3.org/2000/svg">
<g clip-path="url(#clip0_343_7161)">
<path d="M146.267 97.3585C148.607 96.1435 149.39 92.9079 147.46 90.7514L68.0518 2.00051C66.5447 0.316103 64.1868 0.201985 62.5285 1.29551L43.8565 12.3764C42.8891 12.8814 26.4135 91.9455 25.3753 103.984C25.1827 106.219 26.7585 108.217 28.9771 108.551C42.1224 110.531 60.2027 110.103 79.713 110.103C97.3282 110.103 113.144 110.755 125.793 109.106C126.475 109.016 127.08 108.779 127.595 108.439L146.267 97.3585Z" fill="url(#paint0_linear_343_7161)"/>
<path d="M147.46 90.751L133.677 75.3466L116.748 92.2751L127.571 108.452C127.578 108.448 127.587 108.444 127.594 108.439L146.266 97.3583C148.606 96.1433 149.389 92.9077 147.46 90.751Z" fill="url(#paint1_linear_343_7161)"/>
<path d="M53.7694 10.6302C39.4309 23.3308 118.804 112.942 133.142 100.242C135.615 98.0522 135.299 93.5749 133.013 87.7305C132.183 85.6075 131.829 83.284 132.03 80.9017L132.051 80.6461C132.488 75.4661 129.834 70.8772 125.254 68.8946L125.251 68.8931C121.338 67.1996 118.782 63.5817 118.432 59.2414L118.399 58.8284C118.013 54.0428 114.918 50.1911 110.363 48.8284L110.015 48.7243C105.831 47.4728 102.852 44.1102 102.114 39.8064L102.052 39.4458C101.249 34.7596 97.7985 31.222 93.0941 30.2617L92.6021 30.1611C88.3597 29.2949 85.1047 26.3225 83.9335 22.2452C82.5606 17.4661 78.3541 14.2722 73.1818 14.0817L72.8338 14.0687C70.4447 13.9808 68.1809 13.349 66.1738 12.2684C60.6479 9.29401 56.2415 8.44048 53.7694 10.6302Z" fill="url(#paint2_linear_343_7161)"/>
<path d="M133.014 87.7311C132.181 85.607 131.83 83.2828 132.03 80.9017L132.051 80.6449C132.486 75.467 129.833 70.8778 125.255 68.8943H125.249C121.339 67.1999 118.782 63.5811 118.431 59.2408L118.398 58.8299C118.012 54.0437 114.917 50.1899 110.361 48.8278L110.015 48.7252C105.832 47.474 102.851 44.1093 102.113 39.8067L102.051 39.4472C101.548 36.507 100.002 34.0205 97.7593 32.3396C99.5401 37.342 98.4296 43.1417 94.4269 47.144L79.8643 61.7067C100.253 85.454 125.629 106.898 133.144 100.241C135.613 98.0522 135.3 93.574 133.014 87.7311Z" fill="url(#paint3_linear_343_7161)"/>
<path d="M65.8927 37.9255C73.029 37.9255 78.8141 32.1403 78.8141 25.004C78.8141 17.8677 73.029 12.0825 65.8927 12.0825C58.7563 12.0825 52.9712 17.8677 52.9712 25.004C52.9712 32.1403 58.7563 37.9255 65.8927 37.9255Z" fill="url(#paint4_linear_343_7161)"/>
<path d="M107.758 82.3302C114.895 82.3302 120.68 76.5451 120.68 69.4088C120.68 62.2724 114.895 56.4873 107.758 56.4873C100.622 56.4873 94.8369 62.2724 94.8369 69.4088C94.8369 76.5451 100.622 82.3302 107.758 82.3302Z" fill="url(#paint5_linear_343_7161)"/>
<path d="M130.711 68.7136C125.171 63.1736 116.188 63.1736 110.648 68.7136C105.108 74.2536 105.108 83.236 110.648 88.776C116.188 94.316 125.171 94.316 130.711 88.776C136.251 83.236 136.251 74.2536 130.711 68.7136ZM114.309 85.1148C110.792 81.5971 110.792 75.8924 114.309 72.3748C117.827 68.8571 123.531 68.8586 127.048 72.3762C130.566 75.8939 130.567 81.5974 127.049 85.1148C123.532 88.6324 117.827 88.6324 114.309 85.1148Z" fill="url(#paint6_linear_343_7161)"/>
<path d="M112.335 87.0889C116.943 91.6966 124.416 91.6966 129.023 87.0889C133.633 82.4798 133.631 75.0083 129.023 70.4007C124.414 65.7916 116.944 65.7916 112.335 70.4007C107.728 75.0083 107.726 82.4798 112.335 87.0889ZM127.05 72.3748C130.567 75.8925 130.567 81.5972 127.05 85.1148C123.532 88.6325 117.828 88.631 114.311 85.1133C110.793 81.5957 110.792 75.8922 114.31 72.3748C117.827 68.8572 123.532 68.8572 127.05 72.3748Z" fill="url(#paint7_linear_343_7161)"/>
<path d="M94.4278 27.0808C88.8878 21.5408 79.9055 21.5408 74.3655 27.0808C68.8254 32.6208 68.8254 41.6031 74.3655 47.1431C79.9055 52.6831 88.8878 52.6831 94.4278 47.1431C99.9678 41.6031 99.9678 32.6208 94.4278 27.0808ZM78.0263 43.482C74.5087 39.9643 74.5087 34.2596 78.0263 30.742C81.544 27.2243 87.2475 27.2258 90.7649 30.7434C94.2822 34.2611 94.284 39.9646 90.7663 43.4823C87.249 46.9996 81.544 46.9996 78.0263 43.482Z" fill="url(#paint8_linear_343_7161)"/>
<path d="M76.052 45.4561C80.6596 50.0638 88.1326 50.0638 92.7402 45.4561C97.3493 40.847 97.3479 33.3755 92.7402 28.7679C88.1311 24.1588 80.6611 24.1588 76.052 28.7679C71.4443 33.3755 71.4429 40.847 76.052 45.4561ZM90.7664 30.742C94.284 34.2596 94.284 39.9643 90.7664 43.482C87.2488 46.9996 81.5452 46.9982 78.0279 43.4805C74.5102 39.9629 74.5088 34.2593 78.0264 30.742C81.5438 27.2243 87.2488 27.2243 90.7664 30.742Z" fill="url(#paint9_linear_343_7161)"/>
<path d="M124.144 94.91L126.181 93.0515C129.128 90.3621 129.541 85.6159 127.146 81.5221C121.786 72.3603 112.304 59.8783 100.535 46.9806C88.7652 34.083 77.2008 23.5015 68.567 17.3268C64.7088 14.5677 59.9449 14.5462 56.9976 17.2356L54.9608 19.0942C53.4996 20.4274 53.9999 23.0847 55.9638 24.3597C64.7964 30.0936 77.6358 41.5733 90.7323 55.9253C103.829 70.2774 114.088 84.1112 118.992 93.4306C120.082 95.5027 122.683 96.2436 124.144 94.91Z" fill="url(#paint10_linear_343_7161)"/>
<path d="M67.4789 32.572C70.9503 39.0614 76.2662 44.3776 82.7556 47.8488C83.8371 48.4273 85.1448 47.6438 85.1448 46.4173V34.5709C85.1448 32.1473 83.1801 30.1826 80.7565 30.1826H68.9103C67.6839 30.1829 66.9003 31.4906 67.4789 32.572Z" fill="url(#paint11_linear_343_7161)"/>
<path d="M51.4086 13.7182C44.0866 20.2038 123.459 109.815 130.782 103.33C132.044 102.211 130.728 98.6208 127.649 93.4785C126.53 91.6105 125.71 89.7008 125.277 87.88L125.23 87.6847C124.289 83.7249 121.248 79.4788 117.442 76.8102L117.44 76.8082C114.189 74.5288 111.455 71.0682 110.147 67.5767L110.022 67.2446C108.58 63.3949 105.397 59.6199 101.761 57.4441L101.483 57.2779C98.1425 55.2796 95.1633 51.9167 93.5828 48.3596L93.4504 48.0617C91.7292 44.1885 88.3657 40.5741 84.7181 38.6776L84.3366 38.4791C81.0472 36.7688 77.9628 33.6452 76.1222 30.1605C73.9651 26.0761 70.136 22.5476 66.336 21.1417L66.0804 21.047C64.3251 20.3976 62.5286 19.352 60.8095 18.0164C56.0766 14.3399 52.6713 12.5999 51.4086 13.7182Z" fill="url(#paint12_linear_343_7161)"/>
<path d="M137.011 102.852L127.596 108.438C127.079 108.779 126.474 109.016 125.793 109.106C113.142 110.754 97.3277 106.29 79.7124 106.29C60.2027 106.29 42.1221 110.53 28.9771 108.552C26.7583 108.217 25.1827 106.219 25.3747 103.984C26.4124 91.9447 42.89 12.8817 43.8574 12.3761L51.8271 7.64673L137.011 102.852Z" fill="url(#paint13_linear_343_7161)"/>
<path d="M137.011 102.852L127.596 108.438C127.079 108.779 126.474 109.016 125.793 109.106C113.142 110.754 96.9783 108.139 79.3633 108.139C59.8535 108.139 42.1221 110.53 28.9771 108.552C26.7583 108.217 25.1827 106.219 25.3747 103.984C26.4124 91.9447 42.89 12.8817 43.8574 12.3761L51.8271 7.64673L137.011 102.852Z" fill="url(#paint14_linear_343_7161)"/>
<path d="M41.7511 14.9597C30.3805 54.0306 50.9632 63.2727 49.9249 75.3112C49.7323 77.5465 26.7576 108.216 28.9761 108.551C42.1214 110.53 59.9634 109.864 79.4737 109.864C97.0887 109.864 113.143 110.754 125.792 109.105C129.185 108.663 130.696 104.604 128.414 102.053L49.0058 13.3027C46.777 10.8118 42.6849 11.7506 41.7511 14.9597Z" fill="url(#paint15_linear_343_7161)"/>
<path d="M25.3743 103.984C25.1817 106.219 26.7576 108.217 28.9761 108.551C42.1214 110.53 59.8526 111.744 79.3629 111.744C96.9782 111.744 113.143 110.755 125.792 109.105C129.185 108.663 130.696 104.604 128.414 102.053L107.559 78.7449H28.3067C26.6723 90.2352 25.789 99.1749 25.3743 103.984Z" fill="url(#paint16_linear_343_7161)"/>
<g opacity="0.6">
<g opacity="0.6">
<path opacity="0.6" d="M53.4779 32.2152C54.7362 32.2152 55.7562 31.1952 55.7562 29.9369C55.7562 28.6787 54.7362 27.6587 53.4779 27.6587C52.2197 27.6587 51.1997 28.6787 51.1997 29.9369C51.1997 31.1952 52.2197 32.2152 53.4779 32.2152Z" fill="url(#paint17_linear_343_7161)"/>
<path opacity="0.6" d="M46.5681 33.9379C47.5614 33.9379 48.3666 33.1326 48.3666 32.1393C48.3666 31.146 47.5614 30.3408 46.5681 30.3408C45.5748 30.3408 44.7695 31.146 44.7695 32.1393C44.7695 33.1326 45.5748 33.9379 46.5681 33.9379Z" fill="url(#paint18_linear_343_7161)"/>
<path opacity="0.6" d="M51.9577 39.1128C52.5564 39.1128 53.0418 38.6274 53.0418 38.0287C53.0418 37.43 52.5564 36.9446 51.9577 36.9446C51.3589 36.9446 50.8735 37.43 50.8735 38.0287C50.8735 38.6274 51.3589 39.1128 51.9577 39.1128Z" fill="url(#paint19_linear_343_7161)"/>
</g>
<g opacity="0.6">
<path opacity="0.6" d="M38.1025 95.8266C39.3607 95.8266 40.3807 94.8066 40.3807 93.5484C40.3807 92.2901 39.3607 91.2701 38.1025 91.2701C36.8442 91.2701 35.8242 92.2901 35.8242 93.5484C35.8242 94.8066 36.8442 95.8266 38.1025 95.8266Z" fill="url(#paint20_linear_343_7161)"/>
<path opacity="0.6" d="M38.5129 102.588C39.5062 102.588 40.3114 101.782 40.3114 100.789C40.3114 99.7957 39.5062 98.9905 38.5129 98.9905C37.5196 98.9905 36.7144 99.7957 36.7144 100.789C36.7144 101.782 37.5196 102.588 38.5129 102.588Z" fill="url(#paint21_linear_343_7161)"/>
<path opacity="0.6" d="M45.5597 98.122C46.1584 98.122 46.6438 97.6366 46.6438 97.0378C46.6438 96.4391 46.1584 95.9537 45.5597 95.9537C44.961 95.9537 44.4756 96.4391 44.4756 97.0378C44.4756 97.6366 44.961 98.122 45.5597 98.122Z" fill="url(#paint22_linear_343_7161)"/>
</g>
<g opacity="0.6">
<path opacity="0.6" d="M62.1183 40.1868C63.0479 40.1868 63.8015 39.4332 63.8015 38.5035C63.8015 37.5739 63.0479 36.8203 62.1183 36.8203C61.1887 36.8203 60.4351 37.5739 60.4351 38.5035C60.4351 39.4332 61.1887 40.1868 62.1183 40.1868Z" fill="url(#paint23_linear_343_7161)"/>
<path opacity="0.6" d="M57.5012 37.112C58.2351 37.112 58.83 36.5171 58.83 35.7832C58.83 35.0493 58.2351 34.4543 57.5012 34.4543C56.7673 34.4543 56.1724 35.0493 56.1724 35.7832C56.1724 36.5171 56.7673 37.112 57.5012 37.112Z" fill="url(#paint24_linear_343_7161)"/>
<path opacity="0.6" d="M56.913 42.4537C57.3555 42.4537 57.7142 42.095 57.7142 41.6525C57.7142 41.21 57.3555 40.8513 56.913 40.8513C56.4705 40.8513 56.1118 41.21 56.1118 41.6525C56.1118 42.095 56.4705 42.4537 56.913 42.4537Z" fill="url(#paint25_linear_343_7161)"/>
</g>
<g opacity="0.6">
<path opacity="0.6" d="M100.744 99.9674C101.673 99.9674 102.427 99.2138 102.427 98.2842C102.427 97.3546 101.673 96.601 100.744 96.601C99.8142 96.601 99.0605 97.3546 99.0605 98.2842C99.0605 99.2138 99.8142 99.9674 100.744 99.9674Z" fill="url(#paint26_linear_343_7161)"/>
<path opacity="0.6" d="M96.1267 96.8928C96.8606 96.8928 97.4555 96.2978 97.4555 95.5639C97.4555 94.83 96.8606 94.2351 96.1267 94.2351C95.3928 94.2351 94.7979 94.83 94.7979 95.5639C94.7979 96.2978 95.3928 96.8928 96.1267 96.8928Z" fill="url(#paint27_linear_343_7161)"/>
<path opacity="0.6" d="M95.5385 102.235C95.981 102.235 96.3397 101.876 96.3397 101.434C96.3397 100.991 95.981 100.632 95.5385 100.632C95.096 100.632 94.7373 100.991 94.7373 101.434C94.7373 101.876 95.096 102.235 95.5385 102.235Z" fill="url(#paint28_linear_343_7161)"/>
</g>
</g>
<path d="M112.01 62.7347C111.441 62.9305 111.139 63.5505 111.335 64.1197C111.53 64.6888 112.15 64.9914 112.72 64.7955C113.289 64.5997 113.591 63.9797 113.395 63.4105C113.2 62.8414 112.58 62.5388 112.01 62.7347Z" fill="#FFEAA2"/>
<path d="M114.924 64.8569C115.079 65.3064 115.569 65.5452 116.018 65.3905C116.467 65.2358 116.706 64.7464 116.551 64.297C116.397 63.8475 115.907 63.6087 115.458 63.7634C115.009 63.9181 114.77 64.4075 114.924 64.8569Z" fill="#FFEAA2"/>
<path d="M117.297 60.9341C117.39 61.2049 117.685 61.3491 117.956 61.2558C118.227 61.1626 118.371 60.8676 118.278 60.5967C118.185 60.3258 117.89 60.1817 117.619 60.275C117.348 60.3682 117.204 60.6632 117.297 60.9341Z" fill="#FFEAA2"/>
<path d="M109.494 53.8119C109.922 54.2352 110.612 54.2313 111.035 53.8034C111.458 53.3754 111.454 52.6854 111.027 52.2622C110.599 51.839 109.909 51.8428 109.485 52.2707C109.062 52.6987 109.066 53.3887 109.494 53.8119Z" fill="#FFEAA2"/>
<path d="M98.3808 48.187C98.7187 48.5211 99.2634 48.5182 99.5976 48.1803C99.9317 47.8423 99.9287 47.2976 99.5908 46.9635C99.2529 46.6294 98.7081 46.6323 98.374 46.9703C98.0399 47.3082 98.0432 47.8529 98.3808 48.187Z" fill="#FFEAA2"/>
<path d="M104.443 53.4061C104.647 53.6076 104.975 53.6058 105.177 53.402C105.378 53.1982 105.377 52.87 105.173 52.6685C104.969 52.467 104.641 52.4688 104.439 52.6726C104.238 52.8761 104.24 53.2047 104.443 53.4061Z" fill="#FFEAA2"/>
<path d="M113.799 59.6923C114.183 59.9161 114.676 59.7864 114.9 59.402C115.124 59.0179 114.994 58.5246 114.609 58.3008C114.225 58.077 113.732 58.2067 113.508 58.5911C113.284 58.9752 113.414 59.4682 113.799 59.6923Z" fill="#FFEAA2"/>
<path d="M111.605 60.7193C111.908 60.896 112.298 60.7934 112.474 60.4901C112.651 60.1869 112.548 59.7975 112.245 59.6207C111.942 59.444 111.553 59.5466 111.376 59.8498C111.199 60.1531 111.301 60.5425 111.605 60.7193Z" fill="#FFEAA2"/>
<path d="M114.343 61.5753C114.16 61.4689 113.925 61.5306 113.819 61.7136C113.712 61.8965 113.774 62.1312 113.957 62.2377C114.14 62.3442 114.375 62.2824 114.481 62.0994C114.588 61.9168 114.525 61.6821 114.343 61.5753Z" fill="#FFEAA2"/>
<path d="M89.9982 42.9086C89.4291 43.1045 89.1264 43.7245 89.3223 44.2936C89.5182 44.8627 90.1382 45.1654 90.7073 44.9695C91.2764 44.7736 91.5791 44.1536 91.3832 43.5845C91.1873 43.0157 90.5673 42.713 89.9982 42.9086Z" fill="#FFEAA2"/>
<path d="M100.253 52.2273C100.407 52.6767 100.897 52.9155 101.346 52.7608C101.796 52.6061 102.034 52.1167 101.88 51.6673C101.725 51.2179 101.236 50.9791 100.786 51.1338C100.337 51.2885 100.098 51.7779 100.253 52.2273Z" fill="#FFEAA2"/>
<path d="M98.0147 44.051C98.1079 44.3219 98.4029 44.466 98.6738 44.3728C98.9447 44.2795 99.0888 43.9845 98.9956 43.7137C98.9023 43.4428 98.6073 43.2987 98.3365 43.3919C98.0656 43.4851 97.9215 43.7804 98.0147 44.051Z" fill="#FFEAA2"/>
<path d="M86.6653 37.7814C87.0932 38.2046 87.7832 38.2008 88.2064 37.7729C88.6297 37.3449 88.6259 36.6549 88.1979 36.2317C87.77 35.8085 87.08 35.8123 86.6567 36.2402C86.2335 36.6682 86.2373 37.3582 86.6653 37.7814Z" fill="#FFEAA2"/>
<path d="M85.7604 38.9264C85.4263 39.2644 85.4292 39.8091 85.7671 40.1432C86.1051 40.4773 86.6498 40.4744 86.9839 40.1364C87.318 39.7985 87.3151 39.2538 86.9771 38.9197C86.6392 38.5856 86.0945 38.5888 85.7604 38.9264Z" fill="#FFEAA2"/>
<path d="M87.4844 41.962C87.6882 42.1635 88.0164 42.1618 88.2179 41.9579C88.4194 41.7544 88.4176 41.4259 88.2138 41.2244C88.01 41.0229 87.6817 41.0247 87.4803 41.2285C87.2791 41.4323 87.2809 41.7609 87.4844 41.962Z" fill="#FFEAA2"/>
<path d="M96.0581 39.6708C96.4422 39.8946 96.9354 39.7649 97.1593 39.3805C97.3831 38.9964 97.2534 38.5031 96.869 38.2793C96.4848 38.0555 95.9916 38.1852 95.7678 38.5696C95.544 38.954 95.674 39.447 96.0581 39.6708Z" fill="#FFEAA2"/>
<path d="M89.5926 40.8931C89.8958 41.0698 90.2852 40.9672 90.462 40.664C90.6388 40.3607 90.5361 39.9713 90.2329 39.7946C89.9296 39.6178 89.5402 39.7204 89.3635 40.0237C89.1867 40.3272 89.2891 40.7163 89.5926 40.8931Z" fill="#FFEAA2"/>
<path d="M92.3297 41.7494C92.1467 41.6429 91.912 41.7047 91.8056 41.8876C91.6991 42.0706 91.7608 42.3053 91.9438 42.4118C92.1267 42.5182 92.3614 42.4565 92.4679 42.2735C92.5744 42.0906 92.5126 41.8559 92.3297 41.7494Z" fill="#FFEAA2"/>
<path d="M41.7511 14.9597C30.3805 54.0306 26.4126 91.945 25.3743 103.983C25.1817 106.219 26.7576 108.216 28.9761 108.55C42.1214 110.53 59.8526 111.744 79.3629 111.744C96.9779 111.744 113.143 110.754 125.792 109.105C129.185 108.663 130.696 104.603 128.414 102.053L49.0058 13.3027C46.777 10.8118 42.6849 11.7506 41.7511 14.9597Z" fill="url(#paint29_linear_343_7161)"/>
<path d="M124.046 136.198C126.386 134.983 127.17 131.747 125.24 129.59L45.8314 40.8399C44.3243 39.1555 41.9664 39.0413 40.3081 40.1349L21.6361 51.2158C20.6687 51.7208 19.8802 52.6019 19.5314 53.7996C8.16077 92.8705 4.19283 130.785 3.1546 142.823C2.96195 145.058 4.53783 147.056 6.75636 147.39C19.9017 149.37 37.6331 150.583 57.1431 150.583C74.7584 150.583 90.9231 149.594 103.572 147.945C104.255 147.856 104.86 147.619 105.374 147.278L124.046 136.198Z" fill="url(#paint30_linear_343_7161)"/>
<path d="M125.24 129.59L111.457 114.186L94.5288 131.115L105.352 147.292C105.359 147.287 105.368 147.283 105.375 147.278L124.047 136.198C126.387 134.983 127.17 131.747 125.24 129.59Z" fill="url(#paint31_linear_343_7161)"/>
<path d="M31.5497 49.4695C17.2109 62.1701 96.5839 151.782 110.922 139.081C113.395 136.892 113.079 132.414 110.793 126.57C109.963 124.447 109.609 122.123 109.81 119.741L109.832 119.485C110.268 114.305 107.614 109.717 103.034 107.734L103.031 107.732C99.118 106.039 96.5621 102.421 96.2124 98.0807L96.1792 97.6678C95.7933 92.8822 92.6977 89.0304 88.1427 87.6678L87.7947 87.5637C83.6112 86.3122 80.6321 82.9495 79.8942 78.6457L79.8324 78.2851C79.0289 73.599 75.5786 70.0613 70.8741 69.101L70.3821 69.0004C66.1397 68.1343 62.8847 65.1619 61.7136 61.0845C60.3406 56.3054 56.1341 53.1116 50.9618 52.921L50.6139 52.9081C48.2247 52.8201 45.9609 52.1884 43.9539 51.1078C38.428 48.1334 34.0218 47.2798 31.5497 49.4695Z" fill="url(#paint32_linear_343_7161)"/>
<path d="M110.794 126.57C109.962 124.446 109.611 122.122 109.811 119.741L109.832 119.484C110.267 114.306 107.613 109.717 103.035 107.734H103.03C99.1194 106.039 96.563 102.42 96.2115 98.0801L96.1791 97.6693C95.7927 92.8831 92.6983 89.0292 88.1418 87.6672L87.7959 87.5645C83.6124 86.3134 80.6315 82.9487 79.8936 78.646L79.8315 78.2866C79.3288 75.3463 77.783 72.8598 75.54 71.179C77.3209 76.1813 76.2103 81.981 72.2077 85.9834L57.645 100.546C78.0336 124.293 103.409 145.737 110.924 139.08C113.394 136.892 113.081 132.413 110.794 126.57Z" fill="url(#paint33_linear_343_7161)"/>
<path d="M43.6729 76.7648C50.8093 76.7648 56.5944 70.9797 56.5944 63.8433C56.5944 56.707 50.8093 50.9219 43.6729 50.9219C36.5366 50.9219 30.7515 56.707 30.7515 63.8433C30.7515 70.9797 36.5366 76.7648 43.6729 76.7648Z" fill="url(#paint34_linear_343_7161)"/>
<path d="M85.5387 121.17C92.675 121.17 98.4601 115.384 98.4601 108.248C98.4601 101.112 92.675 95.3267 85.5387 95.3267C78.4023 95.3267 72.6172 101.112 72.6172 108.248C72.6172 115.384 78.4023 121.17 85.5387 121.17Z" fill="url(#paint35_linear_343_7161)"/>
<path d="M108.491 107.553C102.951 102.013 93.9684 102.013 88.4284 107.553C82.8884 113.093 82.8884 122.075 88.4284 127.615C93.9684 133.155 102.951 133.155 108.491 127.615C114.031 122.075 114.031 113.093 108.491 107.553ZM92.0896 123.954C88.572 120.437 88.572 114.732 92.0896 111.214C95.6073 107.697 101.311 107.698 104.828 111.216C108.346 114.733 108.347 120.437 104.83 123.954C101.312 127.472 95.6073 127.472 92.0896 123.954Z" fill="url(#paint36_linear_343_7161)"/>
<path d="M90.1155 125.928C94.7231 130.536 102.196 130.536 106.804 125.928C111.413 121.319 111.411 113.848 106.804 109.24C102.195 104.631 94.7246 104.631 90.1155 109.24C85.5078 113.848 85.5063 121.319 90.1155 125.928ZM104.83 111.214C108.347 114.732 108.347 120.437 104.83 123.954C101.312 127.472 95.6084 127.47 92.091 123.953C88.5737 120.435 88.5719 114.732 92.0896 111.214C95.6072 107.697 101.312 107.697 104.83 111.214Z" fill="url(#paint37_linear_343_7161)"/>
<path d="M72.2081 65.9201C66.6681 60.3801 57.6857 60.3801 52.1457 65.9201C46.6057 71.4601 46.6057 80.4425 52.1457 85.9825C57.6857 91.5225 66.6681 91.5225 72.2081 85.9825C77.7481 80.4425 77.7481 71.4601 72.2081 65.9201ZM55.8069 82.3213C52.2893 78.8037 52.2893 73.099 55.8069 69.5813C59.3245 66.0637 65.0281 66.0651 68.5454 69.5828C72.0631 73.1004 72.0646 78.804 68.5469 82.3216C65.0293 85.839 59.3245 85.839 55.8069 82.3213Z" fill="url(#paint38_linear_343_7161)"/>
<path d="M53.8328 84.2955C58.4404 88.9031 65.9133 88.9031 70.521 84.2955C75.1301 79.6864 75.1286 72.2149 70.521 67.6072C65.9119 62.9981 58.4419 62.9981 53.8328 67.6072C49.2251 72.2149 49.2236 79.6864 53.8328 84.2955ZM68.5469 69.5813C72.0645 73.099 72.0645 78.8037 68.5469 82.3214C65.0292 85.839 59.3257 85.8375 55.8083 82.3199C52.2907 78.8022 52.2892 73.0987 55.8069 69.5813C59.3245 66.0637 65.0295 66.0637 68.5469 69.5813Z" fill="url(#paint39_linear_343_7161)"/>
<path d="M101.925 133.75L103.961 131.891C106.909 129.202 107.322 124.455 104.927 120.362C99.5663 111.2 90.0848 98.7178 78.3154 85.8202C66.546 72.9225 54.9816 62.3411 46.3478 56.1664C42.4895 53.4072 37.7257 53.3858 34.7783 56.0755L32.7416 57.934C31.2804 59.2672 31.7807 61.9246 33.7445 63.1996C42.5772 68.9334 55.4166 80.4131 68.5131 94.7652C81.6095 109.117 91.8692 122.951 96.7728 132.27C97.8628 134.342 100.463 135.083 101.925 133.75Z" fill="url(#paint40_linear_343_7161)"/>
<path d="M70.0486 77.4041C70.6177 77.2082 70.9204 76.5882 70.7245 76.0191C70.5286 75.4499 69.9086 75.1473 69.3395 75.3432C68.7704 75.5391 68.4677 76.1591 68.6636 76.7282C68.8592 77.2973 69.4795 77.6 70.0486 77.4041Z" fill="#FFEAA2"/>
<path d="M67.1346 75.2817C66.9799 74.8323 66.4905 74.5935 66.0411 74.7482C65.5917 74.9029 65.3529 75.3923 65.5076 75.8417C65.6623 76.2911 66.1517 76.5299 66.6011 76.3752C67.0505 76.2205 67.2893 75.7311 67.1346 75.2817Z" fill="#FFEAA2"/>
<path d="M64.7627 79.2046C64.6694 78.9338 64.3744 78.7896 64.1036 78.8829C63.8327 78.9761 63.6886 79.2711 63.7818 79.542C63.875 79.8129 64.17 79.957 64.4409 79.8638C64.7118 79.7708 64.8559 79.4755 64.7627 79.2046Z" fill="#FFEAA2"/>
<path d="M72.5656 86.3267C72.1377 85.9034 71.4477 85.9072 71.0244 86.3352C70.6012 86.7631 70.605 87.4531 71.0329 87.8764C71.4609 88.2996 72.1509 88.2958 72.5741 87.8678C72.9977 87.4399 72.9938 86.7499 72.5656 86.3267Z" fill="#FFEAA2"/>
<path d="M83.6788 91.9517C83.3409 91.6175 82.7962 91.6205 82.462 91.9584C82.1279 92.2964 82.1309 92.8411 82.4688 93.1752C82.8067 93.5093 83.3514 93.5064 83.6856 93.1684C84.0197 92.8305 84.0167 92.2858 83.6788 91.9517Z" fill="#FFEAA2"/>
<path d="M77.6159 86.7328C77.4121 86.5313 77.0838 86.5331 76.8824 86.7369C76.6809 86.9408 76.6826 87.269 76.8865 87.4705C77.0903 87.6719 77.4185 87.6702 77.62 87.4664C77.8215 87.2625 77.8197 86.9343 77.6159 86.7328Z" fill="#FFEAA2"/>
<path d="M68.2606 80.4464C67.8765 80.2226 67.3833 80.3523 67.1594 80.7367C66.9356 81.1208 67.0653 81.6141 67.4497 81.8379C67.8339 82.0617 68.3271 81.932 68.5509 81.5476C68.7747 81.1635 68.6447 80.6706 68.2606 80.4464Z" fill="#FFEAA2"/>
<path d="M70.455 79.4193C70.1517 79.2425 69.7623 79.3452 69.5856 79.6484C69.4088 79.9517 69.5115 80.3411 69.8147 80.5178C70.1179 80.6946 70.5073 80.5919 70.6841 80.2887C70.8609 79.9855 70.7582 79.5964 70.455 79.4193Z" fill="#FFEAA2"/>
<path d="M67.7167 78.5635C67.8997 78.67 68.1344 78.6082 68.2409 78.4252C68.3473 78.2423 68.2856 78.0076 68.1026 77.9011C67.9197 77.7947 67.685 77.8564 67.5785 78.0394C67.472 78.2223 67.5338 78.457 67.7167 78.5635Z" fill="#FFEAA2"/>
<path d="M92.0608 97.2302C92.63 97.0344 92.9326 96.4144 92.7367 95.8452C92.5408 95.2761 91.9208 94.9735 91.3517 95.1694C90.7826 95.3652 90.4799 95.9852 90.6758 96.5544C90.8717 97.1235 91.4917 97.4261 92.0608 97.2302Z" fill="#FFEAA2"/>
<path d="M81.8075 87.9114C81.6528 87.462 81.1634 87.2232 80.7139 87.3779C80.2645 87.5326 80.0257 88.022 80.1804 88.4714C80.3351 88.9209 80.8245 89.1597 81.2739 89.005C81.7231 88.8503 81.9619 88.3609 81.8075 87.9114Z" fill="#FFEAA2"/>
<path d="M84.0449 96.0876C83.9517 95.8167 83.6567 95.6726 83.3858 95.7658C83.1149 95.859 82.9708 96.154 83.064 96.4249C83.1572 96.6958 83.4523 96.8399 83.7231 96.7467C83.994 96.6534 84.1381 96.3584 84.0449 96.0876Z" fill="#FFEAA2"/>
<path d="M95.3937 102.357C94.9658 101.934 94.2758 101.938 93.8525 102.366C93.4293 102.794 93.4331 103.484 93.8611 103.907C94.289 104.33 94.979 104.326 95.4023 103.898C95.8255 103.471 95.8217 102.781 95.3937 102.357Z" fill="#FFEAA2"/>
<path d="M96.2988 101.212C96.633 100.874 96.63 100.33 96.2921 99.9955C95.9541 99.6614 95.4094 99.6643 95.0753 100.002C94.7412 100.34 94.7441 100.885 95.0821 101.219C95.42 101.553 95.9647 101.55 96.2988 101.212Z" fill="#FFEAA2"/>
<path d="M94.5749 98.1767C94.371 97.9752 94.0428 97.977 93.8413 98.1808C93.6399 98.3843 93.6416 98.7129 93.8455 98.9143C94.0493 99.1158 94.3775 99.114 94.579 98.9102C94.7805 98.7064 94.7787 98.3781 94.5749 98.1767Z" fill="#FFEAA2"/>
<path d="M86.0009 100.468C85.6167 100.244 85.1235 100.374 84.8997 100.758C84.6759 101.142 84.8056 101.636 85.19 101.859C85.5741 102.083 86.0673 101.954 86.2912 101.569C86.515 101.185 86.3853 100.692 86.0009 100.468Z" fill="#FFEAA2"/>
<path d="M92.4677 99.2455C92.1644 99.0687 91.775 99.1714 91.5983 99.4746C91.4215 99.7778 91.5241 100.167 91.8274 100.344C92.1306 100.521 92.52 100.418 92.6968 100.115C92.8736 99.8117 92.7709 99.4222 92.4677 99.2455Z" fill="#FFEAA2"/>
<path d="M89.7296 98.3896C89.9125 98.4961 90.1472 98.4344 90.2537 98.2514C90.3601 98.0685 90.2984 97.8338 90.1154 97.7273C89.9325 97.6208 89.6978 97.6826 89.5913 97.8655C89.4846 98.0482 89.5466 98.2829 89.7296 98.3896Z" fill="#FFEAA2"/>
<path d="M45.2601 71.4114C48.7316 77.9008 54.0475 83.2167 60.5369 86.6881C61.6184 87.2667 62.926 86.4831 62.926 85.2567V73.4102C62.926 70.9867 60.9613 69.022 58.5378 69.022H46.6913C45.4651 69.0223 44.6816 70.3299 45.2601 71.4114Z" fill="url(#paint41_linear_343_7161)"/>
<path d="M29.1894 52.5575C21.8673 59.0431 101.24 148.655 108.562 142.169C109.825 141.051 108.509 137.46 105.43 132.318C104.311 130.45 103.49 128.54 103.057 126.719L103.011 126.524C102.07 122.565 99.0288 118.318 95.2232 115.65L95.2203 115.648C91.9694 113.368 89.2356 109.908 87.9273 106.416L87.8029 106.084C86.3606 102.235 83.1782 98.4596 79.5415 96.2837L79.2635 96.1175C75.9232 94.1193 72.9441 90.7563 71.3635 87.1993L71.2312 86.9013C69.51 83.0281 66.1465 79.4137 62.4988 77.5172L62.1173 77.3187C58.8279 75.6084 55.7435 72.4849 53.9029 69.0002C51.7459 64.9158 47.9168 61.3872 44.1168 59.9814L43.8612 59.8866C42.1059 59.2372 40.3094 58.1916 38.5903 56.8561C33.8571 53.1793 30.4518 51.4393 29.1894 52.5575Z" fill="url(#paint42_linear_343_7161)"/>
<path d="M114.792 141.691L105.377 147.278C104.861 147.618 104.255 147.856 103.574 147.945C90.9236 149.594 74.7598 150.583 57.1445 150.583C37.6348 150.583 19.9033 149.369 6.75833 147.391C4.5395 147.056 2.96391 145.059 3.15597 142.824C4.19362 130.784 8.16391 92.8699 19.5333 53.7993C19.8819 52.6019 20.671 51.721 21.6386 51.2157L29.6083 46.4863L114.792 141.691Z" fill="url(#paint43_linear_343_7161)"/>
<path d="M114.792 141.691L105.377 147.278C104.861 147.618 104.255 147.856 103.574 147.945C90.9236 149.594 74.7598 150.583 57.1445 150.583C37.6348 150.583 19.9033 149.369 6.75833 147.391C4.5395 147.056 2.96391 145.059 3.15597 142.824C4.19362 130.784 9.04627 94.0463 20.4157 54.9757C20.7642 53.7784 21.5533 52.8975 22.521 52.3922L29.6083 46.4863L114.792 141.691Z" fill="url(#paint44_linear_343_7161)"/>
<path d="M19.5323 53.7993C8.16175 92.8702 4.19381 130.785 3.15557 142.823C2.96293 145.058 4.53881 147.056 6.75734 147.39C19.9023 149.37 37.6338 150.583 57.1438 150.583C74.7588 150.583 90.9238 149.594 103.573 147.945C106.966 147.503 108.477 143.443 106.195 140.893L26.7868 52.1423C24.5582 49.6514 20.4662 50.5902 19.5323 53.7993Z" fill="url(#paint45_linear_343_7161)"/>
<path d="M3.15557 142.823C2.96293 145.058 4.53881 147.056 6.75734 147.39C19.9023 149.37 37.6338 150.583 57.1438 150.583C74.7591 150.583 90.9238 149.594 103.573 147.945C106.966 147.503 108.477 143.443 106.195 140.893L85.34 117.584L7.51175 117.73C5.87704 129.22 3.57028 138.014 3.15557 142.823Z" fill="url(#paint46_linear_343_7161)"/>
<g opacity="0.6">
<g opacity="0.6">
<path opacity="0.6" d="M31.2587 71.0545C32.5169 71.0545 33.5369 70.0345 33.5369 68.7763C33.5369 67.5181 32.5169 66.498 31.2587 66.498C30.0005 66.498 28.9805 67.5181 28.9805 68.7763C28.9805 70.0345 30.0005 71.0545 31.2587 71.0545Z" fill="url(#paint47_linear_343_7161)"/>
<path opacity="0.6" d="M24.3488 72.7772C25.3421 72.7772 26.1474 71.972 26.1474 70.9787C26.1474 69.9854 25.3421 69.1802 24.3488 69.1802C23.3555 69.1802 22.5503 69.9854 22.5503 70.9787C22.5503 71.972 23.3555 72.7772 24.3488 72.7772Z" fill="url(#paint48_linear_343_7161)"/>
<path opacity="0.6" d="M29.7384 77.9522C30.3372 77.9522 30.8225 77.4668 30.8225 76.8681C30.8225 76.2693 30.3372 75.7839 29.7384 75.7839C29.1397 75.7839 28.6543 76.2693 28.6543 76.8681C28.6543 77.4668 29.1397 77.9522 29.7384 77.9522Z" fill="url(#paint49_linear_343_7161)"/>
</g>
<g opacity="0.6">
<path opacity="0.6" d="M15.8832 134.666C17.1415 134.666 18.1615 133.646 18.1615 132.388C18.1615 131.129 17.1415 130.109 15.8832 130.109C14.625 130.109 13.605 131.129 13.605 132.388C13.605 133.646 14.625 134.666 15.8832 134.666Z" fill="url(#paint50_linear_343_7161)"/>
<path opacity="0.6" d="M16.2932 141.427C17.2865 141.427 18.0917 140.622 18.0917 139.628C18.0917 138.635 17.2865 137.83 16.2932 137.83C15.2999 137.83 14.4946 138.635 14.4946 139.628C14.4946 140.622 15.2999 141.427 16.2932 141.427Z" fill="url(#paint51_linear_343_7161)"/>
<path opacity="0.6" d="M23.3405 136.961C23.9392 136.961 24.4246 136.476 24.4246 135.877C24.4246 135.278 23.9392 134.793 23.3405 134.793C22.7417 134.793 22.2563 135.278 22.2563 135.877C22.2563 136.476 22.7417 136.961 23.3405 136.961Z" fill="url(#paint52_linear_343_7161)"/>
</g>
<g opacity="0.6">
<path opacity="0.6" d="M39.8986 79.0257C40.8282 79.0257 41.5818 78.272 41.5818 77.3424C41.5818 76.4128 40.8282 75.6592 39.8986 75.6592C38.9689 75.6592 38.2153 76.4128 38.2153 77.3424C38.2153 78.272 38.9689 79.0257 39.8986 79.0257Z" fill="url(#paint53_linear_343_7161)"/>
<path opacity="0.6" d="M35.2815 75.951C36.0153 75.951 36.6103 75.3561 36.6103 74.6222C36.6103 73.8883 36.0153 73.2933 35.2815 73.2933C34.5476 73.2933 33.9526 73.8883 33.9526 74.6222C33.9526 75.3561 34.5476 75.951 35.2815 75.951Z" fill="url(#paint54_linear_343_7161)"/>
<path opacity="0.6" d="M34.6933 81.293C35.1357 81.293 35.4944 80.9343 35.4944 80.4919C35.4944 80.0494 35.1357 79.6907 34.6933 79.6907C34.2508 79.6907 33.8921 80.0494 33.8921 80.4919C33.8921 80.9343 34.2508 81.293 34.6933 81.293Z" fill="url(#paint55_linear_343_7161)"/>
</g>
<g opacity="0.6">
<path opacity="0.6" d="M78.5241 138.807C79.4537 138.807 80.2073 138.053 80.2073 137.124C80.2073 136.194 79.4537 135.44 78.5241 135.44C77.5944 135.44 76.8408 136.194 76.8408 137.124C76.8408 138.053 77.5944 138.807 78.5241 138.807Z" fill="url(#paint56_linear_343_7161)"/>
<path opacity="0.6" d="M73.907 135.732C74.6408 135.732 75.2358 135.137 75.2358 134.403C75.2358 133.67 74.6408 133.075 73.907 133.075C73.1731 133.075 72.5781 133.67 72.5781 134.403C72.5781 135.137 73.1731 135.732 73.907 135.732Z" fill="url(#paint57_linear_343_7161)"/>
<path opacity="0.6" d="M73.3188 141.074C73.7612 141.074 74.1199 140.715 74.1199 140.273C74.1199 139.83 73.7612 139.472 73.3188 139.472C72.8763 139.472 72.5176 139.83 72.5176 140.273C72.5176 140.715 72.8763 141.074 73.3188 141.074Z" fill="url(#paint58_linear_343_7161)"/>
</g>
</g>
</g>
<defs>
<linearGradient id="paint0_linear_343_7161" x1="108.044" y1="31.3117" x2="86.6938" y2="71.3093" gradientUnits="userSpaceOnUse">
<stop stop-color="#FFD945"/>
<stop offset="0.3043" stop-color="#FFCD3E"/>
<stop offset="0.8558" stop-color="#FFAD2B"/>
<stop offset="1" stop-color="#FFA325"/>
</linearGradient>
<linearGradient id="paint1_linear_343_7161" x1="140.28" y1="94.3136" x2="127.848" y2="91.2057" gradientUnits="userSpaceOnUse">
<stop stop-color="#F82814" stop-opacity="0"/>
<stop offset="0.2454" stop-color="#F12817" stop-opacity="0.245"/>
<stop offset="0.6052" stop-color="#DD2820" stop-opacity="0.605"/>
<stop offset="1" stop-color="#C0272D"/>
</linearGradient>
<linearGradient id="paint2_linear_343_7161" x1="106.614" y1="42.2781" x2="100.19" y2="48.7019" gradientUnits="userSpaceOnUse">
<stop stop-color="#BADA00"/>
<stop offset="0.2269" stop-color="#B0CE00"/>
<stop offset="0.6378" stop-color="#95AE00"/>
<stop offset="1" stop-color="#798C00"/>
</linearGradient>
<linearGradient id="paint3_linear_343_7161" x1="112.075" y1="66.7855" x2="87.3919" y2="64.6234" gradientUnits="userSpaceOnUse">
<stop stop-color="#798C00" stop-opacity="0"/>
<stop offset="0.6542" stop-color="#556100" stop-opacity="0.654"/>
<stop offset="1" stop-color="#464F00"/>
</linearGradient>
<linearGradient id="paint4_linear_343_7161" x1="68.2668" y1="14.6763" x2="64.6635" y2="30.351" gradientUnits="userSpaceOnUse">
<stop stop-color="#FF6359"/>
<stop offset="0.2243" stop-color="#FE5B50"/>
<stop offset="0.5952" stop-color="#FC4637"/>
<stop offset="1" stop-color="#F82814"/>
</linearGradient>
<linearGradient id="paint5_linear_343_7161" x1="110.133" y1="59.0808" x2="106.529" y2="74.7558" gradientUnits="userSpaceOnUse">
<stop stop-color="#FF6359"/>
<stop offset="0.2243" stop-color="#FE5B50"/>
<stop offset="0.5952" stop-color="#FC4637"/>
<stop offset="1" stop-color="#F82814"/>
</linearGradient>
<linearGradient id="paint6_linear_343_7161" x1="124.818" y1="66.4708" x2="119.168" y2="82.9589" gradientUnits="userSpaceOnUse">
<stop stop-color="#FFDECF"/>
<stop offset="0.3791" stop-color="#FDC4B0"/>
<stop offset="0.7655" stop-color="#FBAE97"/>
<stop offset="1" stop-color="#FAA68E"/>
</linearGradient>
<linearGradient id="paint7_linear_343_7161" x1="117.292" y1="88.8092" x2="121.992" y2="75.0941" gradientUnits="userSpaceOnUse">
<stop stop-color="#FFDECF"/>
<stop offset="0.3791" stop-color="#FDC4B0"/>
<stop offset="0.7655" stop-color="#FBAE97"/>
<stop offset="1" stop-color="#FAA68E"/>
</linearGradient>
<linearGradient id="paint8_linear_343_7161" x1="88.5402" y1="24.8442" x2="82.8907" y2="41.3321" gradientUnits="userSpaceOnUse">
<stop stop-color="#FFDECF"/>
<stop offset="0.3791" stop-color="#FDC4B0"/>
<stop offset="0.7655" stop-color="#FBAE97"/>
<stop offset="1" stop-color="#FAA68E"/>
</linearGradient>
<linearGradient id="paint9_linear_343_7161" x1="81.0144" y1="47.1827" x2="85.714" y2="33.4675" gradientUnits="userSpaceOnUse">
<stop stop-color="#FFDECF"/>
<stop offset="0.3791" stop-color="#FDC4B0"/>
<stop offset="0.7655" stop-color="#FBAE97"/>
<stop offset="1" stop-color="#FAA68E"/>
</linearGradient>
<linearGradient id="paint10_linear_343_7161" x1="100.144" y1="47.342" x2="87.1661" y2="59.1814" gradientUnits="userSpaceOnUse">
<stop stop-color="#A57C52"/>
<stop offset="0.1339" stop-color="#A26C4A"/>
<stop offset="0.5155" stop-color="#994336"/>
<stop offset="0.8174" stop-color="#942A2A"/>
<stop offset="1" stop-color="#922125"/>
</linearGradient>
<linearGradient id="paint11_linear_343_7161" x1="76.2148" y1="31.1785" x2="76.2148" y2="48.6679" gradientUnits="userSpaceOnUse">
<stop stop-color="#FFD945"/>
<stop offset="0.3043" stop-color="#FFCD3E"/>
<stop offset="0.8558" stop-color="#FFAD2B"/>
<stop offset="1" stop-color="#FFA325"/>
</linearGradient>
<linearGradient id="paint12_linear_343_7161" x1="98.1551" y1="52.1341" x2="93.3466" y2="56.4861" gradientUnits="userSpaceOnUse">
<stop stop-color="#BADA00"/>
<stop offset="0.2269" stop-color="#B0CE00"/>
<stop offset="0.6378" stop-color="#95AE00"/>
<stop offset="1" stop-color="#798C00"/>
</linearGradient>
<linearGradient id="paint13_linear_343_7161" x1="99.5839" y1="40.46" x2="80.6703" y2="75.8926" gradientUnits="userSpaceOnUse">
<stop stop-color="#FFD945"/>
<stop offset="0.3043" stop-color="#FFCD3E"/>
<stop offset="0.8558" stop-color="#FFAD2B"/>
<stop offset="1" stop-color="#FFA325"/>
</linearGradient>
<linearGradient id="paint14_linear_343_7161" x1="91.8003" y1="56.2467" x2="81.7965" y2="66.2506" gradientUnits="userSpaceOnUse">
<stop stop-color="#F82814" stop-opacity="0"/>
<stop offset="0.2918" stop-color="#EC2819" stop-opacity="0.292"/>
<stop offset="0.8165" stop-color="#CD2727" stop-opacity="0.817"/>
<stop offset="1" stop-color="#C0272D"/>
</linearGradient>
<linearGradient id="paint15_linear_343_7161" x1="44.1855" y1="38.2827" x2="89.0476" y2="125.305" gradientUnits="userSpaceOnUse">
<stop stop-color="#FAA68E"/>
<stop offset="0.2061" stop-color="#FBA682"/>
<stop offset="0.5808" stop-color="#FDA861"/>
<stop offset="1" stop-color="#FFA936"/>
</linearGradient>
<linearGradient id="paint16_linear_343_7161" x1="77.4305" y1="98.6711" x2="77.4305" y2="125.718" gradientUnits="userSpaceOnUse">
<stop stop-color="#F82814" stop-opacity="0"/>
<stop offset="0.2454" stop-color="#F12817" stop-opacity="0.245"/>
<stop offset="0.6052" stop-color="#DD2820" stop-opacity="0.605"/>
<stop offset="1" stop-color="#C0272D"/>
</linearGradient>
<linearGradient id="paint17_linear_343_7161" x1="53.5605" y1="33.1158" x2="54.3128" y2="22.3625" gradientUnits="userSpaceOnUse">
<stop stop-color="#F82814" stop-opacity="0"/>
<stop offset="0.2454" stop-color="#F12817" stop-opacity="0.245"/>
<stop offset="0.6052" stop-color="#DD2820" stop-opacity="0.605"/>
<stop offset="1" stop-color="#C0272D"/>
</linearGradient>
<linearGradient id="paint18_linear_343_7161" x1="46.7034" y1="34.5889" x2="47.2974" y2="26.0997" gradientUnits="userSpaceOnUse">
<stop stop-color="#F82814" stop-opacity="0"/>
<stop offset="0.2454" stop-color="#F12817" stop-opacity="0.245"/>
<stop offset="0.6052" stop-color="#DD2820" stop-opacity="0.605"/>
<stop offset="1" stop-color="#C0272D"/>
</linearGradient>
<linearGradient id="paint19_linear_343_7161" x1="52.1668" y1="39.3926" x2="52.5248" y2="34.2747" gradientUnits="userSpaceOnUse">
<stop stop-color="#F82814" stop-opacity="0"/>
<stop offset="0.2454" stop-color="#F12817" stop-opacity="0.245"/>
<stop offset="0.6052" stop-color="#DD2820" stop-opacity="0.605"/>
<stop offset="1" stop-color="#C0272D"/>
</linearGradient>
<linearGradient id="paint20_linear_343_7161" x1="42.0642" y1="94.4911" x2="31.8327" y2="91.0891" gradientUnits="userSpaceOnUse">
<stop stop-color="#F82814" stop-opacity="0"/>
<stop offset="0.2454" stop-color="#F12817" stop-opacity="0.245"/>
<stop offset="0.6052" stop-color="#DD2820" stop-opacity="0.605"/>
<stop offset="1" stop-color="#C0272D"/>
</linearGradient>
<linearGradient id="paint21_linear_343_7161" x1="41.7865" y1="101.501" x2="33.7092" y2="98.8152" gradientUnits="userSpaceOnUse">
<stop stop-color="#F82814" stop-opacity="0"/>
<stop offset="0.2454" stop-color="#F12817" stop-opacity="0.245"/>
<stop offset="0.6052" stop-color="#DD2820" stop-opacity="0.605"/>
<stop offset="1" stop-color="#C0272D"/>
</linearGradient>
<linearGradient id="paint22_linear_343_7161" x1="47.7991" y1="97.4023" x2="42.9295" y2="95.7828" gradientUnits="userSpaceOnUse">
<stop stop-color="#F82814" stop-opacity="0"/>
<stop offset="0.2454" stop-color="#F12817" stop-opacity="0.245"/>
<stop offset="0.6052" stop-color="#DD2820" stop-opacity="0.605"/>
<stop offset="1" stop-color="#C0272D"/>
</linearGradient>
<linearGradient id="paint23_linear_343_7161" x1="60.5562" y1="39.8637" x2="66.8486" y2="34.981" gradientUnits="userSpaceOnUse">
<stop stop-color="#F82814" stop-opacity="0"/>
<stop offset="0.2454" stop-color="#F12817" stop-opacity="0.245"/>
<stop offset="0.6052" stop-color="#DD2820" stop-opacity="0.605"/>
<stop offset="1" stop-color="#C0272D"/>
</linearGradient>
<linearGradient id="paint24_linear_343_7161" x1="56.3674" y1="36.8132" x2="61.335" y2="32.9586" gradientUnits="userSpaceOnUse">
<stop stop-color="#F82814" stop-opacity="0"/>
<stop offset="0.2454" stop-color="#F12817" stop-opacity="0.245"/>
<stop offset="0.6052" stop-color="#DD2820" stop-opacity="0.605"/>
<stop offset="1" stop-color="#C0272D"/>
</linearGradient>
<linearGradient id="paint25_linear_343_7161" x1="56.4128" y1="42.188" x2="59.4077" y2="39.8641" gradientUnits="userSpaceOnUse">
<stop stop-color="#F82814" stop-opacity="0"/>
<stop offset="0.2454" stop-color="#F12817" stop-opacity="0.245"/>
<stop offset="0.6052" stop-color="#DD2820" stop-opacity="0.605"/>
<stop offset="1" stop-color="#C0272D"/>
</linearGradient>
<linearGradient id="paint26_linear_343_7161" x1="99.1576" y1="99.6275" x2="105.45" y2="94.7448" gradientUnits="userSpaceOnUse">
<stop stop-color="#F82814" stop-opacity="0"/>
<stop offset="0.2454" stop-color="#F12817" stop-opacity="0.245"/>
<stop offset="0.6052" stop-color="#DD2820" stop-opacity="0.605"/>
<stop offset="1" stop-color="#C0272D"/>
</linearGradient>
<linearGradient id="paint27_linear_343_7161" x1="94.9685" y1="96.5768" x2="99.9361" y2="92.7222" gradientUnits="userSpaceOnUse">
<stop stop-color="#F82814" stop-opacity="0"/>
<stop offset="0.2454" stop-color="#F12817" stop-opacity="0.245"/>
<stop offset="0.6052" stop-color="#DD2820" stop-opacity="0.605"/>
<stop offset="1" stop-color="#C0272D"/>
</linearGradient>
<linearGradient id="paint28_linear_343_7161" x1="95.0142" y1="101.952" x2="98.0091" y2="99.6278" gradientUnits="userSpaceOnUse">
<stop stop-color="#F82814" stop-opacity="0"/>
<stop offset="0.2454" stop-color="#F12817" stop-opacity="0.245"/>
<stop offset="0.6052" stop-color="#DD2820" stop-opacity="0.605"/>
<stop offset="1" stop-color="#C0272D"/>
</linearGradient>
<linearGradient id="paint29_linear_343_7161" x1="84.0437" y1="62.2912" x2="66.7473" y2="82.8306" gradientUnits="userSpaceOnUse">
<stop stop-color="#FFD945"/>
<stop offset="0.3043" stop-color="#FFCD3E"/>
<stop offset="0.8558" stop-color="#FFAD2B"/>
<stop offset="1" stop-color="#FFA325"/>
</linearGradient>
<linearGradient id="paint30_linear_343_7161" x1="85.5049" y1="69.9808" x2="64.1549" y2="109.978" gradientUnits="userSpaceOnUse">
<stop stop-color="#FFD945"/>
<stop offset="0.3043" stop-color="#FFCD3E"/>
<stop offset="0.8558" stop-color="#FFAD2B"/>
<stop offset="1" stop-color="#FFA325"/>
</linearGradient>
<linearGradient id="paint31_linear_343_7161" x1="118.061" y1="133.153" x2="105.629" y2="130.045" gradientUnits="userSpaceOnUse">
<stop stop-color="#F82814" stop-opacity="0"/>
<stop offset="0.2454" stop-color="#F12817" stop-opacity="0.245"/>
<stop offset="0.6052" stop-color="#DD2820" stop-opacity="0.605"/>
<stop offset="1" stop-color="#C0272D"/>
</linearGradient>
<linearGradient id="paint32_linear_343_7161" x1="84.3939" y1="81.1175" x2="77.97" y2="87.5413" gradientUnits="userSpaceOnUse">
<stop stop-color="#BADA00"/>
<stop offset="0.2269" stop-color="#B0CE00"/>
<stop offset="0.6378" stop-color="#95AE00"/>
<stop offset="1" stop-color="#798C00"/>
</linearGradient>
<linearGradient id="paint33_linear_343_7161" x1="89.8556" y1="105.625" x2="65.1724" y2="103.463" gradientUnits="userSpaceOnUse">
<stop stop-color="#798C00" stop-opacity="0"/>
<stop offset="0.6542" stop-color="#556100" stop-opacity="0.654"/>
<stop offset="1" stop-color="#464F00"/>
</linearGradient>
<linearGradient id="paint34_linear_343_7161" x1="46.0474" y1="53.5157" x2="42.4438" y2="69.1904" gradientUnits="userSpaceOnUse">
<stop stop-color="#FF6359"/>
<stop offset="0.2243" stop-color="#FE5B50"/>
<stop offset="0.5952" stop-color="#FC4637"/>
<stop offset="1" stop-color="#F82814"/>
</linearGradient>
<linearGradient id="paint35_linear_343_7161" x1="87.9131" y1="97.9202" x2="84.3095" y2="113.595" gradientUnits="userSpaceOnUse">
<stop stop-color="#FF6359"/>
<stop offset="0.2243" stop-color="#FE5B50"/>
<stop offset="0.5952" stop-color="#FC4637"/>
<stop offset="1" stop-color="#F82814"/>
</linearGradient>
<linearGradient id="paint36_linear_343_7161" x1="102.601" y1="105.304" x2="96.9515" y2="121.792" gradientUnits="userSpaceOnUse">
<stop stop-color="#FFDECF"/>
<stop offset="0.3791" stop-color="#FDC4B0"/>
<stop offset="0.7655" stop-color="#FBAE97"/>
<stop offset="1" stop-color="#FAA68E"/>
</linearGradient>
<linearGradient id="paint37_linear_343_7161" x1="95.0756" y1="127.643" x2="99.7751" y2="113.928" gradientUnits="userSpaceOnUse">
<stop stop-color="#FFDECF"/>
<stop offset="0.3791" stop-color="#FDC4B0"/>
<stop offset="0.7655" stop-color="#FBAE97"/>
<stop offset="1" stop-color="#FAA68E"/>
</linearGradient>
<linearGradient id="paint38_linear_343_7161" x1="66.3241" y1="63.6776" x2="60.6743" y2="80.1657" gradientUnits="userSpaceOnUse">
<stop stop-color="#FFDECF"/>
<stop offset="0.3791" stop-color="#FDC4B0"/>
<stop offset="0.7655" stop-color="#FBAE97"/>
<stop offset="1" stop-color="#FAA68E"/>
</linearGradient>
<linearGradient id="paint39_linear_343_7161" x1="58.7984" y1="86.016" x2="63.4981" y2="72.3009" gradientUnits="userSpaceOnUse">
<stop stop-color="#FFDECF"/>
<stop offset="0.3791" stop-color="#FDC4B0"/>
<stop offset="0.7655" stop-color="#FBAE97"/>
<stop offset="1" stop-color="#FAA68E"/>
</linearGradient>
<linearGradient id="paint40_linear_343_7161" x1="77.9434" y1="86.2059" x2="64.9657" y2="98.0453" gradientUnits="userSpaceOnUse">
<stop stop-color="#A57C52"/>
<stop offset="0.1339" stop-color="#A26C4A"/>
<stop offset="0.5155" stop-color="#994336"/>
<stop offset="0.8174" stop-color="#942A2A"/>
<stop offset="1" stop-color="#922125"/>
</linearGradient>
<linearGradient id="paint41_linear_343_7161" x1="53.9963" y1="70.0179" x2="53.9963" y2="87.5073" gradientUnits="userSpaceOnUse">
<stop stop-color="#FFD945"/>
<stop offset="0.3043" stop-color="#FFCD3E"/>
<stop offset="0.8558" stop-color="#FFAD2B"/>
<stop offset="1" stop-color="#FFA325"/>
</linearGradient>
<linearGradient id="paint42_linear_343_7161" x1="75.9356" y1="90.9734" x2="71.1273" y2="95.3255" gradientUnits="userSpaceOnUse">
<stop stop-color="#BADA00"/>
<stop offset="0.2269" stop-color="#B0CE00"/>
<stop offset="0.6378" stop-color="#95AE00"/>
<stop offset="1" stop-color="#798C00"/>
</linearGradient>
<linearGradient id="paint43_linear_343_7161" x1="77.0463" y1="79.129" x2="58.1327" y2="114.562" gradientUnits="userSpaceOnUse">
<stop stop-color="#FFD945"/>
<stop offset="0.3043" stop-color="#FFCD3E"/>
<stop offset="0.8558" stop-color="#FFAD2B"/>
<stop offset="1" stop-color="#FFA325"/>
</linearGradient>
<linearGradient id="paint44_linear_343_7161" x1="70.0277" y1="95.5322" x2="60.0239" y2="105.536" gradientUnits="userSpaceOnUse">
<stop stop-color="#F82814" stop-opacity="0"/>
<stop offset="0.2918" stop-color="#EC2819" stop-opacity="0.292"/>
<stop offset="0.8165" stop-color="#CD2727" stop-opacity="0.817"/>
<stop offset="1" stop-color="#C0272D"/>
</linearGradient>
<linearGradient id="paint45_linear_343_7161" x1="21.2141" y1="77.5102" x2="66.0762" y2="164.532" gradientUnits="userSpaceOnUse">
<stop stop-color="#FFD945"/>
<stop offset="0.3043" stop-color="#FFCD3E"/>
<stop offset="0.8558" stop-color="#FFAD2B"/>
<stop offset="1" stop-color="#FFA325"/>
</linearGradient>
<linearGradient id="paint46_linear_343_7161" x1="55.2118" y1="137.511" x2="55.2118" y2="164.558" gradientUnits="userSpaceOnUse">
<stop stop-color="#F82814" stop-opacity="0"/>
<stop offset="0.2454" stop-color="#F12817" stop-opacity="0.245"/>
<stop offset="0.6052" stop-color="#DD2820" stop-opacity="0.605"/>
<stop offset="1" stop-color="#C0272D"/>
</linearGradient>
<linearGradient id="paint47_linear_343_7161" x1="31.3439" y1="71.942" x2="32.0964" y2="61.1885" gradientUnits="userSpaceOnUse">
<stop stop-color="#F82814" stop-opacity="0"/>
<stop offset="0.2454" stop-color="#F12817" stop-opacity="0.245"/>
<stop offset="0.6052" stop-color="#DD2820" stop-opacity="0.605"/>
<stop offset="1" stop-color="#C0272D"/>
</linearGradient>
<linearGradient id="paint48_linear_343_7161" x1="24.4867" y1="73.4147" x2="25.0808" y2="64.9256" gradientUnits="userSpaceOnUse">
<stop stop-color="#F82814" stop-opacity="0"/>
<stop offset="0.2454" stop-color="#F12817" stop-opacity="0.245"/>
<stop offset="0.6052" stop-color="#DD2820" stop-opacity="0.605"/>
<stop offset="1" stop-color="#C0272D"/>
</linearGradient>
<linearGradient id="paint49_linear_343_7161" x1="29.9503" y1="78.2187" x2="30.3082" y2="73.1007" gradientUnits="userSpaceOnUse">
<stop stop-color="#F82814" stop-opacity="0"/>
<stop offset="0.2454" stop-color="#F12817" stop-opacity="0.245"/>
<stop offset="0.6052" stop-color="#DD2820" stop-opacity="0.605"/>
<stop offset="1" stop-color="#C0272D"/>
</linearGradient>
<linearGradient id="paint50_linear_343_7161" x1="19.8717" y1="133.345" x2="9.64011" y2="129.942" gradientUnits="userSpaceOnUse">
<stop stop-color="#F82814" stop-opacity="0"/>
<stop offset="0.2454" stop-color="#F12817" stop-opacity="0.245"/>
<stop offset="0.6052" stop-color="#DD2820" stop-opacity="0.605"/>
<stop offset="1" stop-color="#C0272D"/>
</linearGradient>
<linearGradient id="paint51_linear_343_7161" x1="19.594" y1="140.354" x2="11.5164" y2="137.669" gradientUnits="userSpaceOnUse">
<stop stop-color="#F82814" stop-opacity="0"/>
<stop offset="0.2454" stop-color="#F12817" stop-opacity="0.245"/>
<stop offset="0.6052" stop-color="#DD2820" stop-opacity="0.605"/>
<stop offset="1" stop-color="#C0272D"/>
</linearGradient>
<linearGradient id="paint52_linear_343_7161" x1="25.6064" y1="136.255" x2="20.7369" y2="134.636" gradientUnits="userSpaceOnUse">
<stop stop-color="#F82814" stop-opacity="0"/>
<stop offset="0.2454" stop-color="#F12817" stop-opacity="0.245"/>
<stop offset="0.6052" stop-color="#DD2820" stop-opacity="0.605"/>
<stop offset="1" stop-color="#C0272D"/>
</linearGradient>
<linearGradient id="paint53_linear_343_7161" x1="38.3388" y1="78.6846" x2="44.6313" y2="73.8019" gradientUnits="userSpaceOnUse">
<stop stop-color="#F82814" stop-opacity="0"/>
<stop offset="0.2454" stop-color="#F12817" stop-opacity="0.245"/>
<stop offset="0.6052" stop-color="#DD2820" stop-opacity="0.605"/>
<stop offset="1" stop-color="#C0272D"/>
</linearGradient>
<linearGradient id="paint54_linear_343_7161" x1="34.1504" y1="75.6339" x2="39.118" y2="71.7793" gradientUnits="userSpaceOnUse">
<stop stop-color="#F82814" stop-opacity="0"/>
<stop offset="0.2454" stop-color="#F12817" stop-opacity="0.245"/>
<stop offset="0.6052" stop-color="#DD2820" stop-opacity="0.605"/>
<stop offset="1" stop-color="#C0272D"/>
</linearGradient>
<linearGradient id="paint55_linear_343_7161" x1="34.1958" y1="81.0088" x2="37.1906" y2="78.6848" gradientUnits="userSpaceOnUse">
<stop stop-color="#F82814" stop-opacity="0"/>
<stop offset="0.2454" stop-color="#F12817" stop-opacity="0.245"/>
<stop offset="0.6052" stop-color="#DD2820" stop-opacity="0.605"/>
<stop offset="1" stop-color="#C0272D"/>
</linearGradient>
<linearGradient id="paint56_linear_343_7161" x1="76.9402" y1="138.448" x2="83.2327" y2="133.566" gradientUnits="userSpaceOnUse">
<stop stop-color="#F82814" stop-opacity="0"/>
<stop offset="0.2454" stop-color="#F12817" stop-opacity="0.245"/>
<stop offset="0.6052" stop-color="#DD2820" stop-opacity="0.605"/>
<stop offset="1" stop-color="#C0272D"/>
</linearGradient>
<linearGradient id="paint57_linear_343_7161" x1="72.7515" y1="135.398" x2="77.7188" y2="131.543" gradientUnits="userSpaceOnUse">
<stop stop-color="#F82814" stop-opacity="0"/>
<stop offset="0.2454" stop-color="#F12817" stop-opacity="0.245"/>
<stop offset="0.6052" stop-color="#DD2820" stop-opacity="0.605"/>
<stop offset="1" stop-color="#C0272D"/>
</linearGradient>
<linearGradient id="paint58_linear_343_7161" x1="72.7972" y1="140.773" x2="75.792" y2="138.449" gradientUnits="userSpaceOnUse">
<stop stop-color="#F82814" stop-opacity="0"/>
<stop offset="0.2454" stop-color="#F12817" stop-opacity="0.245"/>
<stop offset="0.6052" stop-color="#DD2820" stop-opacity="0.605"/>
<stop offset="1" stop-color="#C0272D"/>
</linearGradient>
<clipPath id="clip0_343_7161">
<rect width="150" height="150" fill="white" transform="translate(0.843262 0.583496)"/>
</clipPath>
</defs>
</svg>
