<svg width="151" height="143" fill="none" xmlns="http://www.w3.org/2000/svg"><path d="M75.407 133.131c-18.596 0-35.663-1.833-49.03-4.89 1.923 5.065 5.536 8.896 9.991 10.122 10.055 2.767 23.836 4.473 39.04 4.473 15.203 0 28.983-1.706 39.038-4.473 4.456-1.226 8.069-5.057 9.992-10.122-13.368 3.057-30.434 4.89-49.03 4.89Z" fill="url(#a)"/><path d="M150.408 118.768c0 25.712-150 25.712-150 0 0-25.713 150-25.713 150 0Z" fill="url(#b)"/><path d="M140.113 116.882c0 18.332-129.411 18.332-129.411 0s129.411-18.332 129.411 0Z" fill="url(#c)"/><path d="M150.408 118.768c0-18.937-81.356-23.926-124.237-14.97a69.38 69.38 0 0 0 8.462 10.735l27.9 27.883c4.133.274 8.442.42 12.875.42 15.203 0 28.984-1.706 39.039-4.473 2.318-.638 4.405-1.986 6.147-3.841 17.532-3.147 29.814-8.398 29.814-15.754Z" fill="url(#d)"/><path d="M75.408 119.638c-12.962 0-24.857-1.826-34.175-4.871 1.34 5.045 3.859 8.861 6.964 10.081 7.009 2.757 16.614 4.456 27.21 4.456 10.598 0 20.203-1.699 27.211-4.456 3.106-1.221 5.624-5.036 6.965-10.081-9.318 3.045-21.213 4.871-34.175 4.871Z" fill="url(#e)"/><path d="M125.202 84.625a3.976 3.976 0 0 0 3.977 3.976h11.757a8.537 8.537 0 0 0 6.036-14.573 8.497 8.497 0 0 0-6.036-2.502h-5.539a69.485 69.485 0 0 1-1.29 9.123h-4.928a3.976 3.976 0 0 0-3.977 3.976Z" fill="url(#f)"/><path d="M125.202 84.625a3.976 3.976 0 0 0 3.977 3.976h11.757a8.537 8.537 0 0 0 6.036-14.573 8.497 8.497 0 0 0-6.036-2.502h-5.539a69.485 69.485 0 0 1-1.29 9.123h-4.928a3.976 3.976 0 0 0-3.977 3.976Z" fill="url(#g)"/><path d="M134.107 80.649h4.099c1.974 0 3.573-1.6 3.573-3.573a2.953 2.953 0 0 0-2.952-2.955h-3.669a69.184 69.184 0 0 1-1.051 6.528Z" fill="url(#h)"/><path d="M45.787 120.783a135.887 135.887 0 0 0 59.242 0 22.184 22.184 0 0 0 11.154-6.25 69.392 69.392 0 0 0 19.403-48.128V64.72c0-26.692-120.356-26.692-120.356 0v1.684c0 18.039 7.02 35.267 19.403 48.128a22.181 22.181 0 0 0 11.154 6.25Z" fill="url(#i)"/><path d="M135.586 64.721c0 26.693-120.357 26.693-120.357 0 0-26.692 120.357-26.692 120.357 0Z" fill="url(#j)"/><path d="M129.451 63.279c0 21.144-108.085 21.144-108.085 0 0-21.145 108.085-21.145 108.085 0Z" fill="url(#k)"/><path d="M24.391 68.985c15.559 13.536 86.474 13.536 102.033 0-15.559-13.536-86.474-13.536-102.033 0Z" fill="url(#l)"/><path d="M111.221 75.508c.22-.518.335-1.058.335-1.621 0-14.144-72.297-14.144-72.297 0 0 .562.116 1.103.336 1.621 19.934 4.838 51.692 4.838 71.626 0Z" fill="url(#m)"/><path d="M45.263 76.699c2.76-13.21 57.53-13.21 60.289 0-17.928 3.249-42.361 3.249-60.289 0Z" fill="url(#n)"/><path d="M54.576 72.175c0 1.659-8.245 1.659-8.245 0 0-1.66 1.846-3.004 4.123-3.004s4.122 1.344 4.122 3.004Z" fill="url(#o)"/><path d="M114.807 67.554c0 1.66-8.245 1.66-8.245 0 0-1.659 1.846-3.004 4.123-3.004s4.122 1.345 4.122 3.004Z" fill="url(#p)"/><path d="M66.7 78.949c2.577.11 5.181.17 7.79.182-.519-1.227-2.086-2.12-3.94-2.12-1.761 0-3.26.806-3.85 1.938Z" fill="url(#q)"/><path d="M106.003 72.87a.964.964 0 1 0-.846 1.732.964.964 0 0 0 .846-1.732ZM112.58 71.287a.76.76 0 1 0-.667 1.366.76.76 0 0 0 .667-1.366ZM111.345 67.894a.458.458 0 1 0-.402.824.458.458 0 0 0 .402-.824ZM61.135 63.141a.964.964 0 1 0 .01 1.927.964.964 0 0 0-.01-1.927ZM52.6 66.813a.76.76 0 1 0 .008 1.522.76.76 0 0 0-.008-1.522ZM65.672 72.819a.46.46 0 1 0 .006.918.46.46 0 0 0-.005-.918ZM101.665 66.033a.71.71 0 1 0 .363 1.377.712.712 0 0 0-.363-1.377ZM100.429 71.618a.562.562 0 1 0 .286 1.088.562.562 0 0 0-.286-1.088ZM109.497 70.967a.34.34 0 1 0 .172.655.34.34 0 0 0-.172-.655ZM48.994 72.411a.963.963 0 1 0-.845 1.732.963.963 0 0 0 .845-1.732ZM56.972 68.323a.76.76 0 1 0-.667 1.367.76.76 0 0 0 .667-1.367ZM50.196 65.154a.458.458 0 1 0-.403.823.458.458 0 0 0 .403-.823ZM39.736 68.185a.964.964 0 1 0-1.928.01.964.964 0 0 0 1.928-.01ZM39.684 69.67a.76.76 0 1 0 .008 1.522.76.76 0 0 0-.008-1.522ZM41.899 70.338a.459.459 0 1 0 .005.918.459.459 0 0 0-.005-.918ZM45.469 63.086a.712.712 0 1 0 .363 1.377.712.712 0 0 0-.363-1.377ZM42.267 68.182a.562.562 0 1 0 .285 1.087.562.562 0 0 0-.285-1.087ZM44.8 68.093a.34.34 0 1 0 .173.656.34.34 0 0 0-.173-.656Z" fill="#FFEAA2"/><path d="M69.798 67.554c0 1.66-8.245 1.66-8.245 0 0-1.659 1.846-3.004 4.123-3.004 2.276 0 4.122 1.345 4.122 3.004Z" fill="url(#r)"/><path d="M69.685 64.036c1.416 1.303 2.16 3.155 1.662 4.135-.498.981-2.05.72-3.467-.584-1.416-1.303-4.247-5.074-3.749-6.055.499-.98 4.137 1.2 5.554 2.504Z" fill="url(#s)"/><path d="M71.851 63.813c.313 2.393-.346 4.465-1.472 4.628-1.125.163-2.292-1.646-2.605-4.04-.313-2.393-.115-7.99 1.01-8.153 1.127-.162 2.754 5.171 3.067 7.565Z" fill="url(#t)"/><path d="M79.014 61a3.256 3.256 0 0 0-.974.102c-2.006.518-9.78 2.81-10.034 7.282-.163 2.86 4.564 3.745 8.783 3.968 3.853.203 7.177-1.85 7.403-4.567.253-3.044-.491-6.552-5.178-6.786Z" fill="url(#u)"/><path d="M79.053 61.006c-.34-.034-.681.01-1.012.095-2.004.517-9.782 2.81-10.036 7.282-.163 2.862 4.564 3.746 8.783 3.969 3.802.2 6.815-10.89 2.265-11.346Z" fill="url(#v)"/><path d="M99.294 73.699c0 1.659-8.244 1.659-8.244 0 0-1.66 1.845-3.004 4.122-3.004s4.123 1.345 4.123 3.004Z" fill="url(#w)"/><path d="M24.324 100.737a69.344 69.344 0 0 0 10.31 13.796 22.182 22.182 0 0 0 11.153 6.25 135.887 135.887 0 0 0 59.242 0 22.184 22.184 0 0 0 11.154-6.25 69.41 69.41 0 0 0 10.309-13.796H24.324Z" fill="url(#x)"/><path d="M66.308 123.746a136.67 136.67 0 0 1-13.374-1.565 139.156 139.156 0 0 1-7.147-1.397 22.19 22.19 0 0 1-11.152-6.25 69.365 69.365 0 0 1-17.91-33.8c-.002-.03-.008-.056-.014-.085h4.926c1.324 0 2.492.647 3.215 1.64l41.456 41.457Z" fill="url(#y)"/><path d="M25.614 84.625a3.976 3.976 0 0 1-3.976 3.976H9.88a8.537 8.537 0 0 1-6.036-14.573 8.498 8.498 0 0 1 6.036-2.502h5.54c.062.868.143 1.734.239 2.595a69.388 69.388 0 0 0 1.05 6.528h4.929a3.976 3.976 0 0 1 3.976 3.976Z" fill="url(#z)"/><path d="M16.71 80.649h-4.1a3.573 3.573 0 0 1-3.572-3.573 2.952 2.952 0 0 1 2.951-2.955h3.67a69.378 69.378 0 0 0 1.05 6.528Z" fill="url(#A)"/><path d="M96.458 26.601c-.353-.938.618-1.815 1.454-1.317 2.952 1.762 7.285 5.387 7.285 11.486 0 9.25-10.618 10.122-10.618 16.975 0 3.516.444 5.944.876 7.476.25.885-.614 1.665-1.41 1.27-2.645-1.313-6.714-4.518-6.714-11.806 0-10.8 10.53-10.639 10.53-16.543 0-3.084-.717-5.723-1.403-7.54Z" fill="url(#B)"/><path d="M79.827 1.482c-.23-.413.386-.79.8-.49 2.804 2.035 7.548 6.338 7.548 12.16 0 8.265-8.977 10.605-10.174 17.05-.967 5.213 1.25 10.288 2.267 12.259.177.342-.23.689-.65.557-3.093-.972-11.415-4.575-10.172-14.953 1.204-10.054 10.209-9.595 11.807-16.1 1.147-4.67-.267-8.407-1.426-10.483Z" fill="url(#C)"/><path d="M50.92 28.798c-.315-.773.346-1.497.988-1.086 2.272 1.454 5.668 4.444 6.03 9.478.552 7.633-7.189 8.352-6.78 14.007.209 2.901.68 4.905 1.087 6.168.236.731-.35 1.375-.958 1.05-2.02-1.084-5.197-3.729-5.63-9.743-.644-8.911 7.093-8.779 6.742-13.65-.184-2.545-.867-4.723-1.479-6.224Z" fill="url(#D)"/><defs><linearGradient id="a" x1="75.687" y1="132.851" x2="76.275" y2="142.557" gradientUnits="userSpaceOnUse"><stop stop-color="#F8F6FB"/><stop offset="1" stop-color="#EFDCFB"/></linearGradient><linearGradient id="b" x1="70.48" y1="100.171" x2="82.035" y2="143.781" gradientUnits="userSpaceOnUse"><stop stop-color="#F8F6FB"/><stop offset="1" stop-color="#EFDCFB"/></linearGradient><linearGradient id="c" x1="78.634" y1="142.691" x2="73.046" y2="97.985" gradientUnits="userSpaceOnUse"><stop stop-color="#F8F6FB"/><stop offset="1" stop-color="#EFDCFB"/></linearGradient><linearGradient id="d" x1="102.079" y1="144.129" x2="37.178" y2="-13.518" gradientUnits="userSpaceOnUse"><stop stop-color="#EFDCFB" stop-opacity="0"/><stop offset=".029" stop-color="#E9D6F7" stop-opacity=".029"/><stop offset=".22" stop-color="#C5B5DE" stop-opacity=".22"/><stop offset=".414" stop-color="#AA9BCB" stop-opacity=".414"/><stop offset=".608" stop-color="#9688BD" stop-opacity=".608"/><stop offset=".803" stop-color="#8A7DB5" stop-opacity=".803"/><stop offset="1" stop-color="#8679B2"/></linearGradient><linearGradient id="e" x1="75.712" y1="119.791" x2="76.263" y2="128.878" gradientUnits="userSpaceOnUse"><stop stop-color="#F8F6FB"/><stop offset="1" stop-color="#EFDCFB"/></linearGradient><linearGradient id="f" x1="137.554" y1="78.852" x2="136.969" y2="88.493" gradientUnits="userSpaceOnUse"><stop stop-color="#F8F6FB"/><stop offset="1" stop-color="#EFDCFB"/></linearGradient><linearGradient id="g" x1="139.922" y1="80.415" x2="123.451" y2="79.202" gradientUnits="userSpaceOnUse"><stop stop-color="#EFDCFB" stop-opacity="0"/><stop offset=".029" stop-color="#E9D6F7" stop-opacity=".029"/><stop offset=".22" stop-color="#C5B5DE" stop-opacity=".22"/><stop offset=".414" stop-color="#AA9BCB" stop-opacity=".414"/><stop offset=".608" stop-color="#9688BD" stop-opacity=".608"/><stop offset=".803" stop-color="#8A7DB5" stop-opacity=".803"/><stop offset="1" stop-color="#8679B2"/></linearGradient><linearGradient id="h" x1="138.562" y1="75.336" x2="136.222" y2="86.519" gradientUnits="userSpaceOnUse"><stop stop-color="#EFDCFB" stop-opacity="0"/><stop offset=".029" stop-color="#E9D6F7" stop-opacity=".029"/><stop offset=".22" stop-color="#C5B5DE" stop-opacity=".22"/><stop offset=".414" stop-color="#AA9BCB" stop-opacity=".414"/><stop offset=".608" stop-color="#9688BD" stop-opacity=".608"/><stop offset=".803" stop-color="#8A7DB5" stop-opacity=".803"/><stop offset="1" stop-color="#8679B2"/></linearGradient><linearGradient id="i" x1="66.206" y1="50.319" x2="98.69" y2="126.115" gradientUnits="userSpaceOnUse"><stop stop-color="#F8F6FB"/><stop offset="1" stop-color="#EFDCFB"/></linearGradient><linearGradient id="j" x1="86.635" y1="106.569" x2="76.251" y2="67.866" gradientUnits="userSpaceOnUse"><stop stop-color="#F8F6FB"/><stop offset="1" stop-color="#EFDCFB"/></linearGradient><linearGradient id="k" x1="75.408" y1="74.831" x2="75.408" y2="-3.572" gradientUnits="userSpaceOnUse"><stop stop-color="#EFDCFB" stop-opacity="0"/><stop offset=".029" stop-color="#E9D6F7" stop-opacity=".029"/><stop offset=".22" stop-color="#C5B5DE" stop-opacity=".22"/><stop offset=".414" stop-color="#AA9BCB" stop-opacity=".414"/><stop offset=".608" stop-color="#9688BD" stop-opacity=".608"/><stop offset=".803" stop-color="#8A7DB5" stop-opacity=".803"/><stop offset="1" stop-color="#8679B2"/></linearGradient><linearGradient id="l" x1="75.408" y1="59.118" x2="75.408" y2="84.866" gradientUnits="userSpaceOnUse"><stop stop-color="#FFD945"/><stop offset=".304" stop-color="#FFCD3E"/><stop offset=".856" stop-color="#FFAD2B"/><stop offset="1" stop-color="#FFA325"/></linearGradient><linearGradient id="m" x1="76.36" y1="71.361" x2="111.26" y2="-21.184" gradientUnits="userSpaceOnUse"><stop stop-color="#F82814" stop-opacity="0"/><stop offset="1" stop-color="#C0272D"/></linearGradient><linearGradient id="n" x1="75.144" y1="73.325" x2="70.116" y2="9.003" gradientUnits="userSpaceOnUse"><stop stop-color="#F82814" stop-opacity="0"/><stop offset="1" stop-color="#C0272D"/></linearGradient><linearGradient id="o" x1="50.102" y1="70.978" x2="51.792" y2="76.05" gradientUnits="userSpaceOnUse"><stop stop-color="#FFDECF"/><stop offset=".379" stop-color="#FDC4B0"/><stop offset=".765" stop-color="#FBAE97"/><stop offset="1" stop-color="#FAA68E"/></linearGradient><linearGradient id="p" x1="110.333" y1="66.358" x2="112.024" y2="71.429" gradientUnits="userSpaceOnUse"><stop stop-color="#FFDECF"/><stop offset=".379" stop-color="#FDC4B0"/><stop offset=".765" stop-color="#FBAE97"/><stop offset="1" stop-color="#FAA68E"/></linearGradient><linearGradient id="q" x1="70.321" y1="78.219" x2="71.536" y2="81.865" gradientUnits="userSpaceOnUse"><stop stop-color="#FFDECF"/><stop offset=".379" stop-color="#FDC4B0"/><stop offset=".765" stop-color="#FBAE97"/><stop offset="1" stop-color="#FAA68E"/></linearGradient><linearGradient id="r" x1="64.146" y1="64.401" x2="67.067" y2="70.01" gradientUnits="userSpaceOnUse"><stop stop-color="#FF6359"/><stop offset=".224" stop-color="#FE5B50"/><stop offset=".595" stop-color="#FC4637"/><stop offset="1" stop-color="#F82814"/></linearGradient><linearGradient id="s" x1="67.95" y1="64.171" x2="66.762" y2="66.572" gradientUnits="userSpaceOnUse"><stop stop-color="#BADA00"/><stop offset=".227" stop-color="#B0CE00"/><stop offset=".638" stop-color="#95AE00"/><stop offset="1" stop-color="#798C00"/></linearGradient><linearGradient id="t" x1="70.411" y1="62.214" x2="67.209" y2="64.74" gradientUnits="userSpaceOnUse"><stop stop-color="#BADA00"/><stop offset=".227" stop-color="#B0CE00"/><stop offset=".638" stop-color="#95AE00"/><stop offset="1" stop-color="#798C00"/></linearGradient><linearGradient id="u" x1="75.441" y1="65.047" x2="77.701" y2="72.032" gradientUnits="userSpaceOnUse"><stop stop-color="#A57C52"/><stop offset=".134" stop-color="#A26C4A"/><stop offset=".515" stop-color="#994336"/><stop offset=".817" stop-color="#942A2A"/><stop offset="1" stop-color="#922125"/></linearGradient><linearGradient id="v" x1="73.572" y1="62.809" x2="77.212" y2="74.122" gradientUnits="userSpaceOnUse"><stop stop-color="#A57C52"/><stop offset=".134" stop-color="#A26C4A"/><stop offset=".515" stop-color="#994336"/><stop offset=".817" stop-color="#942A2A"/><stop offset="1" stop-color="#922125"/></linearGradient><linearGradient id="w" x1="93.642" y1="70.545" x2="96.563" y2="76.154" gradientUnits="userSpaceOnUse"><stop stop-color="#FF6359"/><stop offset=".224" stop-color="#FE5B50"/><stop offset=".595" stop-color="#FC4637"/><stop offset="1" stop-color="#F82814"/></linearGradient><linearGradient id="x" x1="75.408" y1="109.828" x2="75.408" y2="144.234" gradientUnits="userSpaceOnUse"><stop stop-color="#EFDCFB" stop-opacity="0"/><stop offset=".029" stop-color="#E9D6F7" stop-opacity=".029"/><stop offset=".22" stop-color="#C5B5DE" stop-opacity=".22"/><stop offset=".414" stop-color="#AA9BCB" stop-opacity=".414"/><stop offset=".608" stop-color="#9688BD" stop-opacity=".608"/><stop offset=".803" stop-color="#8A7DB5" stop-opacity=".803"/><stop offset="1" stop-color="#8679B2"/></linearGradient><linearGradient id="y" x1="37.125" y1="102.31" x2="-28.316" y2="72.898" gradientUnits="userSpaceOnUse"><stop stop-color="#EFDCFB" stop-opacity="0"/><stop offset=".029" stop-color="#E9D6F7" stop-opacity=".029"/><stop offset=".22" stop-color="#C5B5DE" stop-opacity=".22"/><stop offset=".414" stop-color="#AA9BCB" stop-opacity=".414"/><stop offset=".608" stop-color="#9688BD" stop-opacity=".608"/><stop offset=".803" stop-color="#8A7DB5" stop-opacity=".803"/><stop offset="1" stop-color="#8679B2"/></linearGradient><linearGradient id="z" x1="13.262" y1="78.852" x2="13.847" y2="88.493" gradientUnits="userSpaceOnUse"><stop stop-color="#F8F6FB"/><stop offset="1" stop-color="#EFDCFB"/></linearGradient><linearGradient id="A" x1="12.254" y1="75.336" x2="14.595" y2="86.519" gradientUnits="userSpaceOnUse"><stop stop-color="#EFDCFB" stop-opacity="0"/><stop offset=".029" stop-color="#E9D6F7" stop-opacity=".029"/><stop offset=".22" stop-color="#C5B5DE" stop-opacity=".22"/><stop offset=".414" stop-color="#AA9BCB" stop-opacity=".414"/><stop offset=".608" stop-color="#9688BD" stop-opacity=".608"/><stop offset=".803" stop-color="#8A7DB5" stop-opacity=".803"/><stop offset="1" stop-color="#8679B2"/></linearGradient><linearGradient id="B" x1="90.591" y1="41.321" x2="116.293" y2="53.553" gradientUnits="userSpaceOnUse"><stop stop-color="#E87264" stop-opacity="0"/><stop offset="1" stop-color="#F8DFBE"/></linearGradient><linearGradient id="C" x1="71.682" y1="19.997" x2="89.891" y2="24.282" gradientUnits="userSpaceOnUse"><stop stop-color="#E87264" stop-opacity="0"/><stop offset=".158" stop-color="#E97869" stop-opacity=".158"/><stop offset=".378" stop-color="#EC8B78" stop-opacity=".378"/><stop offset=".635" stop-color="#F0A991" stop-opacity=".635"/><stop offset=".919" stop-color="#F6D2B3" stop-opacity=".919"/><stop offset="1" stop-color="#F8DFBE"/></linearGradient><linearGradient id="D" x1="45.868" y1="40.824" x2="59.788" y2="46.249" gradientUnits="userSpaceOnUse"><stop stop-color="#E87264" stop-opacity="0"/><stop offset="1" stop-color="#F8DFBE"/></linearGradient></defs></svg>