<svg width="151" height="151" viewBox="0 0 151 151" fill="none" xmlns="http://www.w3.org/2000/svg">
<g clip-path="url(#clip0_343_7716)">
<path d="M75.4073 137.131C56.8109 137.131 39.7444 135.298 26.3765 132.241C28.2997 137.306 31.9129 141.137 36.3682 142.363C46.4235 145.13 60.2038 146.836 75.4073 146.836C90.6109 146.836 104.391 145.13 114.446 142.363C118.902 141.137 122.515 137.306 124.438 132.241C111.07 135.298 94.0038 137.131 75.4073 137.131Z" fill="url(#paint0_linear_343_7716)"/>
<path d="M150.408 122.768C150.408 148.48 0.407715 148.48 0.407715 122.768C0.407715 97.0555 150.408 97.0552 150.408 122.768Z" fill="url(#paint1_linear_343_7716)"/>
<path d="M140.113 120.882C140.113 139.214 10.7017 139.214 10.7017 120.882C10.7017 102.55 140.113 102.551 140.113 120.882Z" fill="url(#paint2_linear_343_7716)"/>
<path d="M150.408 122.768C150.408 103.831 69.0515 98.8417 26.1709 107.798C28.6188 111.624 31.4468 115.224 34.633 118.533L62.5324 146.416C66.6656 146.69 70.9753 146.836 75.4077 146.836C90.6112 146.836 104.392 145.13 114.447 142.363C116.765 141.725 118.852 140.377 120.594 138.522C138.126 135.375 150.408 130.124 150.408 122.768Z" fill="url(#paint3_linear_343_7716)"/>
<path d="M75.4079 123.638C62.4459 123.638 50.5506 121.812 41.2329 118.767C42.5735 123.812 45.092 127.628 48.1973 128.848C55.2059 131.605 64.8109 133.304 75.4079 133.304C86.005 133.304 95.61 131.605 102.618 128.848C105.724 127.627 108.242 123.812 109.583 118.767C100.265 121.812 88.37 123.638 75.4079 123.638Z" fill="url(#paint4_linear_343_7716)"/>
<path d="M125.202 88.6249C125.202 90.821 126.982 92.6013 129.179 92.6013H140.936C145.651 92.6013 149.474 88.781 149.474 84.0634C149.474 81.7072 148.517 79.5722 146.972 78.0275C145.427 76.4802 143.295 75.5258 140.936 75.5258H135.397C135.334 76.3943 135.254 77.2605 135.157 78.1211C134.91 80.3187 134.559 82.4978 134.107 84.6487H129.179C126.982 84.6487 125.202 86.4287 125.202 88.6249Z" fill="url(#paint5_linear_343_7716)"/>
<path d="M125.202 88.6249C125.202 90.821 126.982 92.6013 129.179 92.6013H140.936C145.651 92.6013 149.474 88.781 149.474 84.0634C149.474 81.7072 148.517 79.5722 146.972 78.0275C145.427 76.4802 143.295 75.5258 140.936 75.5258H135.397C135.334 76.3943 135.254 77.2605 135.157 78.1211C134.91 80.3187 134.559 82.4978 134.107 84.6487H129.179C126.982 84.6487 125.202 86.4287 125.202 88.6249Z" fill="url(#paint6_linear_343_7716)"/>
<path d="M134.107 84.6487H138.206C140.18 84.6487 141.779 83.0493 141.779 81.0755C141.779 80.2613 141.449 79.5228 140.916 78.9872C140.38 78.4516 139.644 78.1213 138.827 78.1213H135.158C134.911 80.3184 134.56 82.4978 134.107 84.6487Z" fill="url(#paint7_linear_343_7716)"/>
<path d="M45.7867 124.783C65.2941 129.14 85.522 129.14 105.029 124.783C109.278 123.835 113.163 121.669 116.183 118.533C128.567 105.672 135.586 88.444 135.586 70.4049V68.7214C135.586 42.0287 15.23 42.0287 15.23 68.7214V70.4049C15.23 88.444 22.2491 105.672 34.6332 118.533C37.6526 121.669 41.5379 123.835 45.7867 124.783Z" fill="url(#paint8_linear_343_7716)"/>
<path d="M135.586 68.7214C135.586 95.414 15.2295 95.414 15.2295 68.7214C15.2295 42.0287 135.586 42.0287 135.586 68.7214Z" fill="url(#paint9_linear_343_7716)"/>
<path d="M129.451 67.2787C129.451 88.4234 21.3662 88.4234 21.3662 67.2787C21.3662 46.134 129.451 46.134 129.451 67.2787Z" fill="url(#paint10_linear_343_7716)"/>
<path d="M24.3911 72.9846C39.9499 86.5208 110.865 86.5208 126.424 72.9846C110.865 59.4485 39.9502 59.4485 24.3911 72.9846Z" fill="url(#paint11_linear_343_7716)"/>
<path d="M111.221 79.5082C111.441 78.99 111.556 78.4497 111.556 77.8865C111.556 63.7429 39.2593 63.7429 39.2593 77.8865C39.2593 78.4494 39.3749 78.99 39.5949 79.5082C59.529 84.3456 91.2866 84.3456 111.221 79.5082Z" fill="url(#paint12_linear_343_7716)"/>
<path d="M45.2632 80.6988C48.0229 67.4888 102.793 67.4888 105.552 80.6988C87.6244 83.9479 63.1908 83.9479 45.2632 80.6988Z" fill="url(#paint13_linear_343_7716)"/>
<path d="M54.5762 76.1746C54.5762 77.8338 46.3315 77.8338 46.3315 76.1746C46.3315 74.5155 48.1771 73.1705 50.4539 73.1705C52.7307 73.1705 54.5762 74.5155 54.5762 76.1746Z" fill="url(#paint14_linear_343_7716)"/>
<path d="M114.807 71.5543C114.807 73.2134 106.562 73.2134 106.562 71.5543C106.562 69.8952 108.408 68.5502 110.685 68.5502C112.962 68.5502 114.807 69.8952 114.807 71.5543Z" fill="url(#paint15_linear_343_7716)"/>
<path d="M66.6992 82.9487C69.2772 83.0587 71.8813 83.1196 74.4895 83.1311C73.9713 81.9037 72.4036 81.0114 70.5492 81.0114C68.7886 81.0114 67.2901 81.8169 66.6992 82.9487Z" fill="url(#paint16_linear_343_7716)"/>
<path d="M106.003 76.8699C105.524 76.6364 104.947 76.8349 104.714 77.3131C104.481 77.7914 104.679 78.3684 105.157 78.6017C105.636 78.8352 106.213 78.6366 106.446 78.1584C106.679 77.6805 106.481 77.1034 106.003 76.8699Z" fill="#FFEAA2"/>
<path d="M112.58 75.2875C112.202 75.1031 111.747 75.2599 111.563 75.6375C111.378 76.0152 111.535 76.4705 111.913 76.6549C112.29 76.839 112.746 76.6825 112.93 76.3049C113.114 75.9272 112.957 75.4716 112.58 75.2875Z" fill="#FFEAA2"/>
<path d="M111.345 71.8945C111.118 71.7834 110.843 71.8778 110.732 72.1054C110.621 72.3331 110.715 72.6078 110.943 72.7187C111.171 72.8298 111.445 72.7351 111.556 72.5078C111.667 72.2801 111.573 72.0054 111.345 71.8945Z" fill="#FFEAA2"/>
<path d="M61.135 67.1414C60.6029 67.1443 60.1738 67.5781 60.1768 68.1105C60.1797 68.6425 60.6135 69.0717 61.1456 69.0687C61.6776 69.0658 62.1068 68.632 62.1038 68.0999C62.1012 67.5675 61.6674 67.1384 61.135 67.1414Z" fill="#FFEAA2"/>
<path d="M52.5997 70.8134C52.1797 70.8157 51.8409 71.1581 51.8433 71.5784C51.8456 71.9984 52.188 72.3372 52.6083 72.3348C53.0286 72.3325 53.3671 71.9901 53.3647 71.5698C53.3624 71.1498 53.02 70.811 52.5997 70.8134Z" fill="#FFEAA2"/>
<path d="M65.6725 76.8187C65.4193 76.8202 65.2151 77.0267 65.2163 77.2799C65.2175 77.5331 65.4243 77.7376 65.6775 77.7361C65.9307 77.7346 66.1348 77.5281 66.1337 77.2749C66.1322 77.0214 65.9257 76.8173 65.6725 76.8187Z" fill="#FFEAA2"/>
<path d="M101.665 70.0331C101.284 70.1334 101.057 70.5228 101.158 70.9031C101.258 71.2834 101.647 71.5105 102.028 71.4102C102.408 71.3099 102.635 70.9205 102.535 70.5402C102.434 70.1599 102.045 69.9328 101.665 70.0331Z" fill="#FFEAA2"/>
<path d="M100.429 75.6184C100.128 75.6975 99.9494 76.0049 100.028 76.3052C100.108 76.6055 100.415 76.7846 100.715 76.7055C101.016 76.6263 101.195 76.3187 101.116 76.0187C101.036 75.7187 100.729 75.5393 100.429 75.6184Z" fill="#FFEAA2"/>
<path d="M109.497 74.9669C109.316 75.0146 109.208 75.2002 109.255 75.3811C109.303 75.5619 109.488 75.6702 109.669 75.6225C109.85 75.5749 109.959 75.3893 109.911 75.2084C109.863 75.0272 109.678 74.9193 109.497 74.9669Z" fill="#FFEAA2"/>
<path d="M48.9943 76.4114C48.5161 76.1779 47.9391 76.3764 47.7058 76.8546C47.4723 77.3329 47.6708 77.9099 48.1491 78.1432C48.6273 78.3767 49.2043 78.1782 49.4376 77.6999C49.6711 77.2217 49.4726 76.6449 48.9943 76.4114Z" fill="#FFEAA2"/>
<path d="M56.9721 72.3234C56.5945 72.139 56.1392 72.2958 55.9548 72.6734C55.7703 73.0511 55.9271 73.5063 56.3048 73.6908C56.6824 73.8752 57.1377 73.7184 57.3221 73.3408C57.5065 72.9631 57.3498 72.5078 56.9721 72.3234Z" fill="#FFEAA2"/>
<path d="M50.1955 69.1537C49.9679 69.0425 49.6932 69.1369 49.5823 69.3646C49.4711 69.5922 49.5655 69.8669 49.7932 69.9778C50.0208 70.089 50.2955 69.9946 50.4064 69.7669C50.5176 69.5393 50.4232 69.2649 50.1955 69.1537Z" fill="#FFEAA2"/>
<path d="M39.736 72.1846C39.733 71.6525 39.2992 71.2234 38.7668 71.2263C38.2348 71.2293 37.8057 71.6631 37.8086 72.1952C37.8115 72.7272 38.2454 73.1563 38.7777 73.1534C39.3101 73.1507 39.7389 72.7169 39.736 72.1846Z" fill="#FFEAA2"/>
<path d="M39.6837 73.6704C39.2637 73.6728 38.9249 74.0151 38.9273 74.4354C38.9296 74.8554 39.272 75.1943 39.6923 75.1919C40.1123 75.1895 40.4511 74.8472 40.4487 74.4269C40.4464 74.0069 40.104 73.6681 39.6837 73.6704Z" fill="#FFEAA2"/>
<path d="M41.8986 74.3381C41.6453 74.3396 41.4412 74.5461 41.4424 74.7993C41.4439 75.0526 41.6503 75.2567 41.9036 75.2555C42.1568 75.2543 42.3609 75.0476 42.3597 74.7943C42.3583 74.5411 42.1518 74.3367 41.8986 74.3381Z" fill="#FFEAA2"/>
<path d="M45.4688 67.0855C45.0885 67.1858 44.8614 67.5752 44.9617 67.9555C45.062 68.3358 45.4514 68.5628 45.8317 68.4625C46.212 68.3622 46.439 67.9728 46.3388 67.5925C46.2385 67.2122 45.849 66.9852 45.4688 67.0855Z" fill="#FFEAA2"/>
<path d="M42.2667 72.1823C41.9664 72.2614 41.7872 72.5687 41.8664 72.869C41.9455 73.1693 42.2528 73.3484 42.5531 73.2693C42.8534 73.1902 43.0325 72.8829 42.9534 72.5826C42.8746 72.2826 42.5669 72.1031 42.2667 72.1823Z" fill="#FFEAA2"/>
<path d="M44.8001 72.0931C44.6192 72.1408 44.511 72.3261 44.5586 72.5073C44.6063 72.6881 44.7918 72.7964 44.9727 72.7487C45.1536 72.7011 45.2618 72.5155 45.2142 72.3346C45.1665 72.1534 44.981 72.0452 44.8001 72.0931Z" fill="#FFEAA2"/>
<path d="M69.7979 71.5543C69.7979 73.2134 61.5532 73.2134 61.5532 71.5543C61.5532 69.8952 63.3988 68.5502 65.6756 68.5502C67.9523 68.5502 69.7979 69.8952 69.7979 71.5543Z" fill="url(#paint17_linear_343_7716)"/>
<path d="M69.6846 68.0357C71.101 69.3389 71.8455 71.1907 71.3472 72.1715C70.849 73.1524 69.2966 72.8907 67.8802 71.5874C66.4637 70.2842 63.6331 66.513 64.1313 65.5321C64.6299 64.5513 68.2681 66.7321 69.6846 68.0357Z" fill="url(#paint18_linear_343_7716)"/>
<path d="M71.8513 67.8125C72.1642 70.206 71.5054 72.2784 70.3795 72.441C69.2536 72.604 68.0872 70.7954 67.7742 68.4019C67.4613 66.0084 67.6592 60.4113 68.7848 60.2484C69.9107 60.086 71.5381 65.419 71.8513 67.8125Z" fill="url(#paint19_linear_343_7716)"/>
<path d="M79.0143 64.9994C78.6863 64.9832 78.3584 65.0197 78.0405 65.1017C76.0343 65.6197 68.2602 67.9117 68.006 72.3835C67.8434 75.2447 72.5702 76.1294 76.7893 76.3517C80.6419 76.5549 83.9663 74.5011 84.1922 71.7849C84.4452 68.7411 83.7008 65.2326 79.0143 64.9994Z" fill="url(#paint20_linear_343_7716)"/>
<path d="M79.0527 65.0058C78.713 64.9717 78.3715 65.0161 78.0409 65.1014C76.0371 65.6184 68.2592 67.9105 68.0051 72.3834C67.8424 75.2446 72.5692 76.1293 76.7883 76.3517C80.5898 76.5523 83.6027 65.4611 79.0527 65.0058Z" fill="url(#paint21_linear_343_7716)"/>
<path d="M99.2945 77.6988C99.2945 79.3579 91.0498 79.3579 91.0498 77.6988C91.0498 76.0397 92.8954 74.6947 95.1722 74.6947C97.4489 74.6947 99.2945 76.0397 99.2945 77.6988Z" fill="url(#paint22_linear_343_7716)"/>
<path d="M24.3237 104.737C27.1576 109.715 30.6102 114.355 34.6331 118.533C37.6528 121.669 41.5378 123.835 45.7867 124.783C65.294 129.14 85.522 129.14 105.029 124.783C109.278 123.835 113.163 121.669 116.183 118.533C120.205 114.355 123.658 109.714 126.492 104.737H24.3237Z" fill="url(#paint23_linear_343_7716)"/>
<path d="M66.308 127.746C61.8345 127.446 57.3698 126.922 52.9345 126.181C50.5433 125.778 48.1609 125.313 45.7874 124.784C41.5374 123.834 37.6521 121.669 34.6345 118.534C27.5639 111.193 22.2433 102.428 18.9786 92.9016C18.0668 90.2457 17.3168 87.5281 16.7315 84.7663C16.7315 84.7575 16.7286 84.7457 16.7256 84.734C16.7227 84.7046 16.7168 84.6781 16.7109 84.6487H21.6374C22.9609 84.6487 24.1286 85.2957 24.8521 86.2899L66.308 127.746Z" fill="url(#paint24_linear_343_7716)"/>
<path d="M25.614 88.6249C25.614 90.821 23.8338 92.6013 21.6376 92.6013H9.88023C5.16523 92.6013 1.34229 88.781 1.34229 84.0634C1.34229 81.7072 2.29934 79.5722 3.84405 78.0275C5.38876 76.4802 7.5214 75.5258 9.88023 75.5258H15.4196C15.482 76.3943 15.5626 77.2605 15.6588 78.1211C15.9058 80.3187 16.257 82.4978 16.7093 84.6487H21.6376C23.8338 84.6487 25.614 86.4287 25.614 88.6249Z" fill="url(#paint25_linear_343_7716)"/>
<path d="M16.7094 84.6487H12.6108C10.637 84.6487 9.0376 83.0493 9.0376 81.0755C9.0376 80.2613 9.36789 79.5228 9.90113 78.9872C10.4367 78.4516 11.1729 78.1213 11.9894 78.1213H15.6588C15.9058 80.3184 16.257 82.4978 16.7094 84.6487Z" fill="url(#paint26_linear_343_7716)"/>
<path d="M96.4584 30.6011C96.1049 29.6631 97.0763 28.7858 97.9119 29.2843C100.864 31.0458 105.197 34.6705 105.197 40.7702C105.197 50.0205 94.5787 50.8925 94.5787 57.7446C94.5787 61.2611 95.0225 63.6893 95.4546 65.2205C95.7046 66.1061 94.8411 66.8864 94.0458 66.4914C91.4002 65.1781 87.3311 61.9734 87.3311 54.6849C87.3311 43.8858 97.8611 44.0464 97.8611 38.142C97.8611 35.0584 97.1437 32.4193 96.4584 30.6011Z" fill="url(#paint27_linear_343_7716)"/>
<path d="M79.8267 5.48161C79.5961 5.06867 80.2131 4.6922 80.6267 4.9922C83.4314 7.02749 88.1746 11.3304 88.1746 17.1519C88.1746 25.4169 79.1976 27.7566 78.0014 34.2016C77.0337 39.4151 79.2514 44.4898 80.2681 46.461C80.4446 46.8031 80.0384 47.1499 79.6178 47.0178C76.5246 46.0457 68.2032 42.4434 69.4458 32.0651C70.6496 22.0113 79.6546 22.4704 81.2526 15.9654C82.4005 11.2948 80.9861 7.55779 79.8267 5.48161Z" fill="url(#paint28_linear_343_7716)"/>
<path d="M50.9203 32.7984C50.605 32.0246 51.2656 31.3005 51.9085 31.712C54.1797 33.1655 57.5756 36.1564 57.9388 41.1899C58.4897 48.8228 50.7491 49.5425 51.1574 55.1967C51.3668 58.0981 51.8371 60.102 52.2453 61.3655C52.4815 62.0961 51.8944 62.7402 51.2871 62.4143C49.2674 61.3308 46.0903 58.6864 45.6562 52.672C45.0129 43.7608 52.7503 43.8934 52.3985 39.0211C52.215 36.4767 51.5315 34.2987 50.9203 32.7984Z" fill="url(#paint29_linear_343_7716)"/>
</g>
<defs>
<linearGradient id="paint0_linear_343_7716" x1="75.6868" y1="136.851" x2="76.275" y2="146.557" gradientUnits="userSpaceOnUse">
<stop stop-color="#F8F6FB"/>
<stop offset="1" stop-color="#EFDCFB"/>
</linearGradient>
<linearGradient id="paint1_linear_343_7716" x1="70.4804" y1="104.171" x2="82.0354" y2="147.781" gradientUnits="userSpaceOnUse">
<stop stop-color="#F8F6FB"/>
<stop offset="1" stop-color="#EFDCFB"/>
</linearGradient>
<linearGradient id="paint2_linear_343_7716" x1="78.6337" y1="146.691" x2="73.0455" y2="101.985" gradientUnits="userSpaceOnUse">
<stop stop-color="#F8F6FB"/>
<stop offset="1" stop-color="#EFDCFB"/>
</linearGradient>
<linearGradient id="paint3_linear_343_7716" x1="102.079" y1="148.129" x2="37.1777" y2="-9.51777" gradientUnits="userSpaceOnUse">
<stop stop-color="#EFDCFB" stop-opacity="0"/>
<stop offset="0.0287" stop-color="#E9D6F7" stop-opacity="0.029"/>
<stop offset="0.2203" stop-color="#C5B5DE" stop-opacity="0.22"/>
<stop offset="0.4138" stop-color="#AA9BCB" stop-opacity="0.414"/>
<stop offset="0.6078" stop-color="#9688BD" stop-opacity="0.608"/>
<stop offset="0.8028" stop-color="#8A7DB5" stop-opacity="0.803"/>
<stop offset="1" stop-color="#8679B2"/>
</linearGradient>
<linearGradient id="paint4_linear_343_7716" x1="75.7123" y1="123.791" x2="76.2632" y2="132.878" gradientUnits="userSpaceOnUse">
<stop stop-color="#F8F6FB"/>
<stop offset="1" stop-color="#EFDCFB"/>
</linearGradient>
<linearGradient id="paint5_linear_343_7716" x1="137.554" y1="82.8522" x2="136.969" y2="92.4934" gradientUnits="userSpaceOnUse">
<stop stop-color="#F8F6FB"/>
<stop offset="1" stop-color="#EFDCFB"/>
</linearGradient>
<linearGradient id="paint6_linear_343_7716" x1="139.922" y1="84.4155" x2="123.451" y2="83.2019" gradientUnits="userSpaceOnUse">
<stop stop-color="#EFDCFB" stop-opacity="0"/>
<stop offset="0.0287" stop-color="#E9D6F7" stop-opacity="0.029"/>
<stop offset="0.2203" stop-color="#C5B5DE" stop-opacity="0.22"/>
<stop offset="0.4138" stop-color="#AA9BCB" stop-opacity="0.414"/>
<stop offset="0.6078" stop-color="#9688BD" stop-opacity="0.608"/>
<stop offset="0.8028" stop-color="#8A7DB5" stop-opacity="0.803"/>
<stop offset="1" stop-color="#8679B2"/>
</linearGradient>
<linearGradient id="paint7_linear_343_7716" x1="138.562" y1="79.3363" x2="136.222" y2="90.519" gradientUnits="userSpaceOnUse">
<stop stop-color="#EFDCFB" stop-opacity="0"/>
<stop offset="0.0287" stop-color="#E9D6F7" stop-opacity="0.029"/>
<stop offset="0.2203" stop-color="#C5B5DE" stop-opacity="0.22"/>
<stop offset="0.4138" stop-color="#AA9BCB" stop-opacity="0.414"/>
<stop offset="0.6078" stop-color="#9688BD" stop-opacity="0.608"/>
<stop offset="0.8028" stop-color="#8A7DB5" stop-opacity="0.803"/>
<stop offset="1" stop-color="#8679B2"/>
</linearGradient>
<linearGradient id="paint8_linear_343_7716" x1="66.2059" y1="54.3193" x2="98.6897" y2="130.115" gradientUnits="userSpaceOnUse">
<stop stop-color="#F8F6FB"/>
<stop offset="1" stop-color="#EFDCFB"/>
</linearGradient>
<linearGradient id="paint9_linear_343_7716" x1="86.6351" y1="110.569" x2="76.2513" y2="71.8661" gradientUnits="userSpaceOnUse">
<stop stop-color="#F8F6FB"/>
<stop offset="1" stop-color="#EFDCFB"/>
</linearGradient>
<linearGradient id="paint10_linear_343_7716" x1="75.4083" y1="78.831" x2="75.4083" y2="0.42811" gradientUnits="userSpaceOnUse">
<stop stop-color="#EFDCFB" stop-opacity="0"/>
<stop offset="0.0287" stop-color="#E9D6F7" stop-opacity="0.029"/>
<stop offset="0.2203" stop-color="#C5B5DE" stop-opacity="0.22"/>
<stop offset="0.4138" stop-color="#AA9BCB" stop-opacity="0.414"/>
<stop offset="0.6078" stop-color="#9688BD" stop-opacity="0.608"/>
<stop offset="0.8028" stop-color="#8A7DB5" stop-opacity="0.803"/>
<stop offset="1" stop-color="#8679B2"/>
</linearGradient>
<linearGradient id="paint11_linear_343_7716" x1="75.4076" y1="63.1185" x2="75.4076" y2="88.8661" gradientUnits="userSpaceOnUse">
<stop stop-color="#FFD945"/>
<stop offset="0.3043" stop-color="#FFCD3E"/>
<stop offset="0.8558" stop-color="#FFAD2B"/>
<stop offset="1" stop-color="#FFA325"/>
</linearGradient>
<linearGradient id="paint12_linear_343_7716" x1="76.3596" y1="75.3609" x2="111.26" y2="-17.1836" gradientUnits="userSpaceOnUse">
<stop stop-color="#F82814" stop-opacity="0"/>
<stop offset="1" stop-color="#C0272D"/>
</linearGradient>
<linearGradient id="paint13_linear_343_7716" x1="75.1438" y1="77.3246" x2="70.1161" y2="13.0028" gradientUnits="userSpaceOnUse">
<stop stop-color="#F82814" stop-opacity="0"/>
<stop offset="1" stop-color="#C0272D"/>
</linearGradient>
<linearGradient id="paint14_linear_343_7716" x1="50.1021" y1="74.9785" x2="51.7924" y2="80.0496" gradientUnits="userSpaceOnUse">
<stop stop-color="#FFDECF"/>
<stop offset="0.3791" stop-color="#FDC4B0"/>
<stop offset="0.7655" stop-color="#FBAE97"/>
<stop offset="1" stop-color="#FAA68E"/>
</linearGradient>
<linearGradient id="paint15_linear_343_7716" x1="110.333" y1="70.3581" x2="112.024" y2="75.4293" gradientUnits="userSpaceOnUse">
<stop stop-color="#FFDECF"/>
<stop offset="0.3791" stop-color="#FDC4B0"/>
<stop offset="0.7655" stop-color="#FBAE97"/>
<stop offset="1" stop-color="#FAA68E"/>
</linearGradient>
<linearGradient id="paint16_linear_343_7716" x1="70.321" y1="82.2193" x2="71.536" y2="85.8652" gradientUnits="userSpaceOnUse">
<stop stop-color="#FFDECF"/>
<stop offset="0.3791" stop-color="#FDC4B0"/>
<stop offset="0.7655" stop-color="#FBAE97"/>
<stop offset="1" stop-color="#FAA68E"/>
</linearGradient>
<linearGradient id="paint17_linear_343_7716" x1="64.1456" y1="68.4011" x2="67.0667" y2="74.0096" gradientUnits="userSpaceOnUse">
<stop stop-color="#FF6359"/>
<stop offset="0.2243" stop-color="#FE5B50"/>
<stop offset="0.5952" stop-color="#FC4637"/>
<stop offset="1" stop-color="#F82814"/>
</linearGradient>
<linearGradient id="paint18_linear_343_7716" x1="67.9497" y1="68.1712" x2="66.7622" y2="70.5718" gradientUnits="userSpaceOnUse">
<stop stop-color="#BADA00"/>
<stop offset="0.2269" stop-color="#B0CE00"/>
<stop offset="0.6378" stop-color="#95AE00"/>
<stop offset="1" stop-color="#798C00"/>
</linearGradient>
<linearGradient id="paint19_linear_343_7716" x1="70.4114" y1="66.2135" x2="67.2088" y2="68.7404" gradientUnits="userSpaceOnUse">
<stop stop-color="#BADA00"/>
<stop offset="0.2269" stop-color="#B0CE00"/>
<stop offset="0.6378" stop-color="#95AE00"/>
<stop offset="1" stop-color="#798C00"/>
</linearGradient>
<linearGradient id="paint20_linear_343_7716" x1="75.441" y1="69.047" x2="77.701" y2="76.0323" gradientUnits="userSpaceOnUse">
<stop stop-color="#A57C52"/>
<stop offset="0.1339" stop-color="#A26C4A"/>
<stop offset="0.5155" stop-color="#994336"/>
<stop offset="0.8174" stop-color="#942A2A"/>
<stop offset="1" stop-color="#922125"/>
</linearGradient>
<linearGradient id="paint21_linear_343_7716" x1="73.5715" y1="66.809" x2="77.2124" y2="78.1217" gradientUnits="userSpaceOnUse">
<stop stop-color="#A57C52"/>
<stop offset="0.1339" stop-color="#A26C4A"/>
<stop offset="0.5155" stop-color="#994336"/>
<stop offset="0.8174" stop-color="#942A2A"/>
<stop offset="1" stop-color="#922125"/>
</linearGradient>
<linearGradient id="paint22_linear_343_7716" x1="93.6422" y1="74.5453" x2="96.5633" y2="80.1541" gradientUnits="userSpaceOnUse">
<stop stop-color="#FF6359"/>
<stop offset="0.2243" stop-color="#FE5B50"/>
<stop offset="0.5952" stop-color="#FC4637"/>
<stop offset="1" stop-color="#F82814"/>
</linearGradient>
<linearGradient id="paint23_linear_343_7716" x1="75.4079" y1="113.828" x2="75.4079" y2="148.234" gradientUnits="userSpaceOnUse">
<stop stop-color="#EFDCFB" stop-opacity="0"/>
<stop offset="0.0287" stop-color="#E9D6F7" stop-opacity="0.029"/>
<stop offset="0.2203" stop-color="#C5B5DE" stop-opacity="0.22"/>
<stop offset="0.4138" stop-color="#AA9BCB" stop-opacity="0.414"/>
<stop offset="0.6078" stop-color="#9688BD" stop-opacity="0.608"/>
<stop offset="0.8028" stop-color="#8A7DB5" stop-opacity="0.803"/>
<stop offset="1" stop-color="#8679B2"/>
</linearGradient>
<linearGradient id="paint24_linear_343_7716" x1="37.1251" y1="106.31" x2="-28.3161" y2="76.8981" gradientUnits="userSpaceOnUse">
<stop stop-color="#EFDCFB" stop-opacity="0"/>
<stop offset="0.0287" stop-color="#E9D6F7" stop-opacity="0.029"/>
<stop offset="0.2203" stop-color="#C5B5DE" stop-opacity="0.22"/>
<stop offset="0.4138" stop-color="#AA9BCB" stop-opacity="0.414"/>
<stop offset="0.6078" stop-color="#9688BD" stop-opacity="0.608"/>
<stop offset="0.8028" stop-color="#8A7DB5" stop-opacity="0.803"/>
<stop offset="1" stop-color="#8679B2"/>
</linearGradient>
<linearGradient id="paint25_linear_343_7716" x1="13.2623" y1="82.8522" x2="13.8467" y2="92.4934" gradientUnits="userSpaceOnUse">
<stop stop-color="#F8F6FB"/>
<stop offset="1" stop-color="#EFDCFB"/>
</linearGradient>
<linearGradient id="paint26_linear_343_7716" x1="12.2544" y1="79.3363" x2="14.595" y2="90.519" gradientUnits="userSpaceOnUse">
<stop stop-color="#EFDCFB" stop-opacity="0"/>
<stop offset="0.0287" stop-color="#E9D6F7" stop-opacity="0.029"/>
<stop offset="0.2203" stop-color="#C5B5DE" stop-opacity="0.22"/>
<stop offset="0.4138" stop-color="#AA9BCB" stop-opacity="0.414"/>
<stop offset="0.6078" stop-color="#9688BD" stop-opacity="0.608"/>
<stop offset="0.8028" stop-color="#8A7DB5" stop-opacity="0.803"/>
<stop offset="1" stop-color="#8679B2"/>
</linearGradient>
<linearGradient id="paint27_linear_343_7716" x1="90.5911" y1="45.3211" x2="116.293" y2="57.5531" gradientUnits="userSpaceOnUse">
<stop stop-color="#E87264" stop-opacity="0"/>
<stop offset="1" stop-color="#F8DFBE"/>
</linearGradient>
<linearGradient id="paint28_linear_343_7716" x1="71.6823" y1="23.9975" x2="89.8914" y2="28.2819" gradientUnits="userSpaceOnUse">
<stop stop-color="#E87264" stop-opacity="0"/>
<stop offset="0.1575" stop-color="#E97869" stop-opacity="0.158"/>
<stop offset="0.3778" stop-color="#EC8B78" stop-opacity="0.378"/>
<stop offset="0.6353" stop-color="#F0A991" stop-opacity="0.635"/>
<stop offset="0.9188" stop-color="#F6D2B3" stop-opacity="0.919"/>
<stop offset="1" stop-color="#F8DFBE"/>
</linearGradient>
<linearGradient id="paint29_linear_343_7716" x1="45.8676" y1="44.8243" x2="59.7885" y2="50.2493" gradientUnits="userSpaceOnUse">
<stop stop-color="#E87264" stop-opacity="0"/>
<stop offset="1" stop-color="#F8DFBE"/>
</linearGradient>
<clipPath id="clip0_343_7716">
<rect width="150" height="150" fill="white" transform="translate(0.407715 0.860107)"/>
</clipPath>
</defs>
</svg>
