<svg width="151" height="151" viewBox="0 0 151 151" fill="none" xmlns="http://www.w3.org/2000/svg">
<g clip-path="url(#clip0_343_7557)">
<path d="M75.1694 13.5208C33.7497 13.5208 0.169434 41.6955 0.169434 76.454C0.169434 111.213 33.7497 139.387 75.1694 139.387C116.589 139.387 150.169 111.213 150.169 76.454C150.169 41.6955 116.589 13.5208 75.1694 13.5208ZM75.3891 40.6131C75.3027 40.6128 75.2171 40.6099 75.1303 40.6102C75.1433 40.6102 75.1562 40.6096 75.1691 40.6096C75.2433 40.6096 75.3156 40.6128 75.3891 40.6131ZM75.1694 72.299C65.0871 72.299 56.4365 68.3211 52.7268 62.6484C56.4247 56.9811 65.035 52.9811 75.0909 52.9314C85.2209 52.8811 93.9241 56.854 97.633 62.5514C93.94 68.2484 85.2794 72.299 75.1694 72.299Z" fill="url(#paint0_linear_343_7557)"/>
<path d="M75.1694 13.5208C33.7497 13.5208 0.169434 41.6955 0.169434 76.454C0.169434 111.213 33.7497 139.387 75.1694 139.387C116.589 139.387 150.169 111.213 150.169 76.454C150.169 41.6955 116.589 13.5208 75.1694 13.5208ZM75.3891 40.6131C75.3027 40.6128 75.2171 40.6099 75.1303 40.6102C75.1433 40.6102 75.1562 40.6096 75.1691 40.6096C75.2433 40.6096 75.3156 40.6128 75.3891 40.6131ZM75.1694 72.299C65.0871 72.299 56.4365 68.3211 52.7268 62.6484C56.4247 56.9811 65.035 52.9811 75.0909 52.9314C85.2209 52.8811 93.9241 56.854 97.633 62.5514C93.94 68.2484 85.2794 72.299 75.1694 72.299Z" fill="url(#paint1_linear_343_7557)"/>
<path d="M150.169 76.4542H109.303C82.2285 76.4542 60.2803 98.4028 60.2803 125.477C60.2803 127.58 61.2165 129.461 62.69 130.738L71.2547 139.302C72.5512 139.358 73.8565 139.387 75.1694 139.387C116.589 139.387 150.169 111.212 150.169 76.4542Z" fill="url(#paint2_linear_343_7557)"/>
<path d="M150.169 76.4542H126.937C102.777 76.4542 83.1914 96.0401 83.1914 120.2C83.1914 122.352 84.1458 124.32 85.6608 125.642L96.7555 136.737C127.653 128.957 150.169 104.915 150.169 76.4542Z" fill="url(#paint3_linear_343_7557)"/>
<path d="M150.169 76.4544C150.169 59.4764 142.155 44.0717 129.131 32.7517V97.3888C129.233 99.2711 130.084 100.952 131.389 102.145L138.894 109.649C146.038 100.012 150.169 88.6391 150.169 76.4544Z" fill="url(#paint4_linear_343_7557)"/>
<path d="M150.169 61.3687C150.169 34.2087 116.589 12.1931 75.1694 12.1931C33.7497 12.1931 0.169434 34.2084 0.169434 61.3687C0.169434 66.6728 1.45237 71.7799 3.82326 76.5655C6.17296 81.3078 7.30679 86.5602 7.30679 91.8528V102.139C7.30679 105.981 10.3412 109.235 14.1827 109.281C16.138 109.305 17.9097 108.52 19.188 107.242C20.4474 105.983 21.2271 104.241 21.2271 102.32C21.2271 99.4199 24.3365 97.5878 26.8744 98.9902C34.1809 103.027 42.6791 106.165 51.9744 108.146C56.8044 109.175 60.2803 113.404 60.2803 118.342V125.478C60.2803 129.323 63.3965 132.439 67.2388 132.439C69.16 132.439 70.9021 131.659 72.1615 130.4C73.4209 129.141 74.2006 127.399 74.2006 125.478V118.185C74.2006 115.703 76.213 113.688 78.6977 113.688C79.9368 113.688 81.0609 114.191 81.8747 115.005C82.6886 115.822 83.1915 116.943 83.1915 118.185V120.199C83.1915 124.04 86.2262 127.294 90.0674 127.341C92.0224 127.364 93.7944 126.58 95.0727 125.302C96.3321 124.043 97.1118 122.304 97.1118 120.379V116.919C97.1118 112.094 100.299 107.833 104.94 106.515C113.546 104.072 121.315 100.603 127.889 96.3417C128.417 95.9996 129.112 96.3799 129.112 97.0087C129.112 100.851 132.228 103.967 136.074 103.967C137.995 103.967 139.734 103.187 140.993 101.928C142.252 100.669 143.032 98.9299 143.032 97.009V90.1278C143.032 85.6917 144.044 81.2972 146.106 77.369C148.738 72.3531 150.169 66.9708 150.169 61.3687ZM75.0909 40.6099C88.5553 40.5431 99.5024 47.5825 99.5456 56.3337C99.5891 65.0849 88.7124 72.2322 75.248 72.299C61.7836 72.3658 50.8365 65.3264 50.7933 56.5752C50.7497 47.824 61.6265 40.6763 75.0909 40.6099Z" fill="url(#paint5_radial_343_7557)"/>
<g opacity="0.6">
<g opacity="0.6">
<path opacity="0.6" d="M32.5578 112.13C34.1295 112.13 35.4037 110.856 35.4037 109.284C35.4037 107.713 34.1295 106.438 32.5578 106.438C30.9861 106.438 29.7119 107.713 29.7119 109.284C29.7119 110.856 30.9861 112.13 32.5578 112.13Z" fill="url(#paint6_linear_343_7557)"/>
<path opacity="0.6" d="M24.7624 116.148C26.0032 116.148 27.0092 115.142 27.0092 113.901C27.0092 112.66 26.0032 111.654 24.7624 111.654C23.5215 111.654 22.5156 112.66 22.5156 113.901C22.5156 115.142 23.5215 116.148 24.7624 116.148Z" fill="url(#paint7_linear_343_7557)"/>
<path opacity="0.6" d="M32.9736 120.916C33.7216 120.916 34.328 120.31 34.328 119.562C34.328 118.814 33.7216 118.208 32.9736 118.208C32.2255 118.208 31.6191 118.814 31.6191 119.562C31.6191 120.31 32.2255 120.916 32.9736 120.916Z" fill="url(#paint8_linear_343_7557)"/>
</g>
<g opacity="0.6">
<path opacity="0.6" d="M45.476 119.397C46.6374 119.397 47.5789 118.456 47.5789 117.294C47.5789 116.133 46.6374 115.192 45.476 115.192C44.3146 115.192 43.373 116.133 43.373 117.294C43.373 118.456 44.3146 119.397 45.476 119.397Z" fill="url(#paint9_linear_343_7557)"/>
<path opacity="0.6" d="M39.0934 116.936C40.0104 116.936 40.7537 116.192 40.7537 115.275C40.7537 114.358 40.0104 113.615 39.0934 113.615C38.1764 113.615 37.4331 114.358 37.4331 115.275C37.4331 116.192 38.1764 116.936 39.0934 116.936Z" fill="url(#paint10_linear_343_7557)"/>
<path opacity="0.6" d="M40.0209 123.587C40.5737 123.587 41.0218 123.139 41.0218 122.586C41.0218 122.033 40.5737 121.585 40.0209 121.585C39.4681 121.585 39.02 122.033 39.02 122.586C39.02 123.139 39.4681 123.587 40.0209 123.587Z" fill="url(#paint11_linear_343_7557)"/>
</g>
<g opacity="0.6">
<path opacity="0.6" d="M132.059 110.081C133.22 110.081 134.162 109.139 134.162 107.978C134.162 106.816 133.22 105.875 132.059 105.875C130.898 105.875 129.956 106.816 129.956 107.978C129.956 109.139 130.898 110.081 132.059 110.081Z" fill="url(#paint12_linear_343_7557)"/>
<path opacity="0.6" d="M125.676 107.619C126.593 107.619 127.336 106.876 127.336 105.959C127.336 105.042 126.593 104.298 125.676 104.298C124.759 104.298 124.016 105.042 124.016 105.959C124.016 106.876 124.759 107.619 125.676 107.619Z" fill="url(#paint13_linear_343_7557)"/>
<path opacity="0.6" d="M126.603 114.27C127.156 114.27 127.604 113.822 127.604 113.27C127.604 112.717 127.156 112.269 126.603 112.269C126.051 112.269 125.603 112.717 125.603 113.27C125.603 113.822 126.051 114.27 126.603 114.27Z" fill="url(#paint14_linear_343_7557)"/>
</g>
</g>
<path d="M80.799 19.5085C79.3869 16.7399 75.1534 16.5141 73.6849 16.4361C70.2581 16.2544 65.5163 16.6726 59.5893 17.6779C34.4357 21.9435 14.4096 42.877 13.5693 43.7661C12.6087 44.7826 12.654 46.3852 13.6704 47.3458L21.9181 55.2917C18.3854 59.1382 15.0257 63.7864 14.1466 68.2352C13.3407 72.312 14.9025 74.8344 16.3546 76.2323L47.104 106.981C48.7013 107.404 50.3249 107.794 51.9746 108.146C56.8046 109.175 60.2805 113.404 60.2805 118.342V120.158L71.2693 131.147C71.5863 130.921 71.8872 130.675 72.1616 130.4C73.421 129.141 74.2007 127.399 74.2007 125.478V118.185C74.2007 115.703 76.2131 113.688 78.6978 113.688C79.9369 113.688 81.061 114.191 81.8749 115.005C82.6887 115.822 83.1916 116.943 83.1916 118.185V120.199C83.1916 124.041 86.2263 127.294 90.0675 127.341C92.0228 127.364 93.7946 126.58 95.0728 125.302C96.3322 124.043 97.1119 122.304 97.1119 120.379V116.919C97.1119 112.094 100.299 107.833 104.94 106.515C113.546 104.072 121.315 100.603 127.889 96.3417C128.417 95.9997 129.112 96.38 129.112 97.0088C129.112 100.851 132.228 103.967 136.074 103.967C137.995 103.967 139.734 103.187 140.993 101.928C142.253 100.669 143.033 98.93 143.033 97.0091V90.1279C143.033 87.6196 143.357 85.1246 144.01 82.7199L80.799 19.5085ZM75.2481 72.2988C61.7837 72.3655 50.8366 65.3261 50.7934 56.5749C50.7502 47.8238 61.6266 40.6764 75.091 40.6096C88.5555 40.5429 99.5025 47.5823 99.5458 56.3335C99.5893 65.0846 88.7125 72.2323 75.2481 72.2988Z" fill="url(#paint15_linear_343_7557)"/>
<path d="M22.4321 78.4605C19.9336 78.4608 17.893 77.7135 16.3548 76.2323C14.9027 74.8343 13.3409 72.3123 14.1468 68.2352C15.5759 61.0049 23.5551 53.2446 28.1842 49.2626C35.8856 42.6373 45.3745 36.8343 54.2183 33.3417C68.8021 27.5817 74.2912 23.5405 75.7718 21.8132C74.3427 21.4405 70.3668 20.9873 60.4362 22.6711C36.9356 26.6561 17.4445 47.039 17.2506 47.2446C16.2901 48.2611 14.6877 48.3064 13.6709 47.3458C12.6545 46.3852 12.6092 44.7826 13.5698 43.7661C14.4101 42.877 34.4359 21.9435 59.5898 17.6779C65.5168 16.6729 70.2586 16.2543 73.6853 16.4361C75.2777 16.5202 80.123 16.7764 81.0953 20.2614C82.0924 23.8355 77.9171 27.0093 74.6901 29.0855C70.4345 31.8235 63.9989 34.9238 56.0789 38.052C47.7403 41.3452 38.7771 46.8308 31.4874 53.102C24.5565 59.064 19.9315 65.0888 19.1156 69.2173C18.7224 71.2073 19.3565 72.092 19.868 72.584C21.3509 74.0111 24.8792 73.5655 30.0718 71.2952C36.3356 68.5567 44.2774 63.4382 50.4962 59.2849C51.6589 58.5079 53.2315 58.8214 54.0083 59.9843C54.785 61.1473 54.4718 62.7199 53.3089 63.4964C46.9162 67.7658 38.7283 73.0379 32.1 75.9355C28.7412 77.4041 25.9459 78.2143 23.5548 78.4126C23.1709 78.4446 22.7965 78.4605 22.4321 78.4605Z" fill="url(#paint16_linear_343_7557)"/>
<path d="M150.17 61.3689C150.17 66.9701 148.738 72.3518 146.105 77.3689C144.045 81.2953 143.032 85.6912 143.032 90.1277V97.0086C143.032 97.7209 142.924 98.413 142.722 99.0612L99.5326 55.8724C99.1714 48.465 90.994 42.3774 80.2002 40.9359C80.2205 40.1053 80.6425 39.2986 81.4023 38.8324C90.8152 33.0253 99.7352 28.1027 105.772 26.2727C113.649 23.8824 119.655 24.5845 123.622 28.3659L149.363 54.1503C149.893 56.5071 150.17 58.9145 150.17 61.3689Z" fill="url(#paint17_linear_343_7557)"/>
<path d="M100.676 56.1458C99.7575 56.1458 98.8713 55.6443 98.4222 54.771C97.7825 53.5275 98.2725 52.0008 99.5163 51.361C105.32 48.3763 120.738 40.4478 121.521 35.0231C121.611 34.396 121.565 33.4037 120.127 32.0322C115.224 27.3593 102.268 31.9122 84.0598 43.1419C82.8695 43.8758 81.3098 43.506 80.5754 42.3158C79.8416 41.1255 80.211 39.5652 81.4016 38.831C90.8145 33.0258 99.7331 28.1028 105.77 26.2713C113.65 23.881 119.655 24.5858 123.621 28.3669C126.51 31.1216 126.8 33.9005 126.533 35.7463C125.574 42.3949 115.965 48.5972 101.832 55.8652C101.462 56.0555 101.066 56.1458 100.676 56.1458Z" fill="url(#paint18_linear_343_7557)"/>
<path d="M149.928 65.3136L140.731 56.116C140.3 55.6101 139.769 55.1227 139.138 54.6548C129.668 47.6351 110.926 60.2769 91.0854 73.661C86.2328 76.9345 81.5466 80.0948 77.1501 82.8551C77.1278 82.8413 77.1057 82.8271 77.0831 82.8142C77.0628 82.7792 65.9513 71.6501 65.9293 71.616C65.7672 71.3648 65.5666 71.1545 65.3425 70.9825C64.7749 70.8213 64.216 70.6495 63.6722 70.4616C63.2437 70.483 62.8149 70.6116 62.4287 70.861C55.346 75.4307 46.2257 82.4566 48.7799 90.6736C49.4172 92.7239 50.436 94.0854 51.5146 94.9916L74.2269 117.704C74.4669 115.448 76.3754 113.687 78.6975 113.687C79.9366 113.687 81.0607 114.19 81.8746 115.004C82.6884 115.821 83.1913 116.942 83.1913 118.185V120.199C83.1913 124.04 86.226 127.294 90.0672 127.34C92.0225 127.364 93.7943 126.58 95.0725 125.302C96.3319 124.042 97.1116 122.303 97.1116 120.379V116.919C97.1116 112.094 100.299 107.832 104.94 106.515C113.545 104.072 121.315 100.602 127.889 96.3413C128.417 95.9992 129.112 96.3795 129.112 97.0083C129.112 100.85 132.228 103.967 136.074 103.967C137.995 103.967 139.733 103.187 140.993 101.928C142.252 100.668 143.032 98.9295 143.032 97.0086V90.1274C143.032 85.6913 144.044 81.2969 146.106 77.3686C148.114 73.5422 149.42 69.5016 149.928 65.3136Z" fill="url(#paint19_linear_343_7557)"/>
<path d="M57.1535 96.8754C55.9905 96.8757 54.9135 96.7119 53.9273 96.3654C52.197 95.7574 49.8999 94.2763 48.7799 90.6736C46.2255 82.4563 55.3461 75.4307 62.4288 70.861C63.6035 70.1027 65.1711 70.4407 65.9293 71.616C66.6876 72.7913 66.3496 74.3583 65.1743 75.1166C56.3714 80.7963 52.4826 85.5245 53.6161 89.1704C54.1473 90.8795 54.9588 91.3598 55.6067 91.5874C57.2746 92.1733 60.9911 91.9439 69.222 87.5201C75.7091 84.0339 83.1779 78.9954 91.0858 73.661C110.926 60.2769 129.668 47.6351 139.138 54.6548C141.186 56.1724 142.186 57.8975 142.11 59.7819C141.958 63.5798 137.795 66.1766 130.9 70.4783C123.126 75.3274 112.48 81.9689 103.873 92.8886C103.007 93.9872 101.416 94.1757 100.317 93.3098C99.219 92.4442 99.0305 90.8519 99.8958 89.7536C109.05 78.1398 120.129 71.228 128.219 66.1816C131.785 63.9569 136.649 60.9224 137.037 59.6148C136.978 59.5074 136.769 59.203 136.122 58.7236C129.529 53.8369 109.784 67.1569 93.9179 77.8595C78.9232 87.9745 65.7282 96.8745 57.1535 96.8754Z" fill="url(#paint20_linear_343_7557)"/>
</g>
<defs>
<linearGradient id="paint0_linear_343_7557" x1="44.198" y1="65.1781" x2="113.749" y2="90.4999" gradientUnits="userSpaceOnUse">
<stop stop-color="#FAA68E"/>
<stop offset="0.2061" stop-color="#FBA682"/>
<stop offset="0.5808" stop-color="#FDA861"/>
<stop offset="1" stop-color="#FFA936"/>
</linearGradient>
<linearGradient id="paint1_linear_343_7557" x1="44.198" y1="65.1781" x2="113.749" y2="90.4999" gradientUnits="userSpaceOnUse">
<stop stop-color="#FAA68E"/>
<stop offset="0.2061" stop-color="#FBA682"/>
<stop offset="0.5808" stop-color="#FDA861"/>
<stop offset="1" stop-color="#FFA936"/>
</linearGradient>
<linearGradient id="paint2_linear_343_7557" x1="114.8" y1="106.445" x2="-15.2983" y2="115.223" gradientUnits="userSpaceOnUse">
<stop stop-color="#F82814" stop-opacity="0"/>
<stop offset="0.2454" stop-color="#F12817" stop-opacity="0.245"/>
<stop offset="0.6052" stop-color="#DD2820" stop-opacity="0.605"/>
<stop offset="1" stop-color="#C0272D"/>
</linearGradient>
<linearGradient id="paint3_linear_343_7557" x1="118.812" y1="106.055" x2="41.3834" y2="111.457" gradientUnits="userSpaceOnUse">
<stop stop-color="#F82814" stop-opacity="0"/>
<stop offset="0.2454" stop-color="#F12817" stop-opacity="0.245"/>
<stop offset="0.6052" stop-color="#DD2820" stop-opacity="0.605"/>
<stop offset="1" stop-color="#C0272D"/>
</linearGradient>
<linearGradient id="paint4_linear_343_7557" x1="163.834" y1="90.7702" x2="136.824" y2="73.0449" gradientUnits="userSpaceOnUse">
<stop stop-color="#F82814" stop-opacity="0"/>
<stop offset="0.2454" stop-color="#F12817" stop-opacity="0.245"/>
<stop offset="0.6052" stop-color="#DD2820" stop-opacity="0.605"/>
<stop offset="1" stop-color="#C0272D"/>
</linearGradient>
<radialGradient id="paint5_radial_343_7557" cx="0" cy="0" r="1" gradientUnits="userSpaceOnUse" gradientTransform="translate(62.6774 42.7113) scale(100.275 69.19)">
<stop stop-color="#A57C52"/>
<stop offset="0.2601" stop-color="#A47950"/>
<stop offset="0.4581" stop-color="#A26F4C"/>
<stop offset="0.6356" stop-color="#9F5F44"/>
<stop offset="0.8011" stop-color="#9A4838"/>
<stop offset="0.9568" stop-color="#942B2A"/>
<stop offset="1" stop-color="#922125"/>
</radialGradient>
<linearGradient id="paint6_linear_343_7557" x1="32.6577" y1="113.306" x2="30.5665" y2="99.9986" gradientUnits="userSpaceOnUse">
<stop stop-color="#F82814" stop-opacity="0"/>
<stop offset="0.2454" stop-color="#F12817" stop-opacity="0.245"/>
<stop offset="0.6052" stop-color="#DD2820" stop-opacity="0.605"/>
<stop offset="1" stop-color="#C0272D"/>
</linearGradient>
<linearGradient id="paint7_linear_343_7557" x1="24.7187" y1="117.017" x2="23.0682" y2="106.512" gradientUnits="userSpaceOnUse">
<stop stop-color="#F82814" stop-opacity="0"/>
<stop offset="0.2454" stop-color="#F12817" stop-opacity="0.245"/>
<stop offset="0.6052" stop-color="#DD2820" stop-opacity="0.605"/>
<stop offset="1" stop-color="#C0272D"/>
</linearGradient>
<linearGradient id="paint8_linear_343_7557" x1="32.7163" y1="121.34" x2="31.7211" y2="115.007" gradientUnits="userSpaceOnUse">
<stop stop-color="#F82814" stop-opacity="0"/>
<stop offset="0.2454" stop-color="#F12817" stop-opacity="0.245"/>
<stop offset="0.6052" stop-color="#DD2820" stop-opacity="0.605"/>
<stop offset="1" stop-color="#C0272D"/>
</linearGradient>
<linearGradient id="paint9_linear_343_7557" x1="43.3354" y1="119.433" x2="49.6315" y2="111.725" gradientUnits="userSpaceOnUse">
<stop stop-color="#F82814" stop-opacity="0"/>
<stop offset="0.2454" stop-color="#F12817" stop-opacity="0.245"/>
<stop offset="0.6052" stop-color="#DD2820" stop-opacity="0.605"/>
<stop offset="1" stop-color="#C0272D"/>
</linearGradient>
<linearGradient id="paint10_linear_343_7557" x1="37.3805" y1="116.891" x2="42.3508" y2="110.806" gradientUnits="userSpaceOnUse">
<stop stop-color="#F82814" stop-opacity="0"/>
<stop offset="0.2454" stop-color="#F12817" stop-opacity="0.245"/>
<stop offset="0.6052" stop-color="#DD2820" stop-opacity="0.605"/>
<stop offset="1" stop-color="#C0272D"/>
</linearGradient>
<linearGradient id="paint11_linear_343_7557" x1="38.9408" y1="123.424" x2="41.9374" y2="119.755" gradientUnits="userSpaceOnUse">
<stop stop-color="#F82814" stop-opacity="0"/>
<stop offset="0.2454" stop-color="#F12817" stop-opacity="0.245"/>
<stop offset="0.6052" stop-color="#DD2820" stop-opacity="0.605"/>
<stop offset="1" stop-color="#C0272D"/>
</linearGradient>
<linearGradient id="paint12_linear_343_7557" x1="129.909" y1="110.141" x2="136.205" y2="102.433" gradientUnits="userSpaceOnUse">
<stop stop-color="#F82814" stop-opacity="0"/>
<stop offset="0.2454" stop-color="#F12817" stop-opacity="0.245"/>
<stop offset="0.6052" stop-color="#DD2820" stop-opacity="0.605"/>
<stop offset="1" stop-color="#C0272D"/>
</linearGradient>
<linearGradient id="paint13_linear_343_7557" x1="123.953" y1="107.599" x2="128.924" y2="101.514" gradientUnits="userSpaceOnUse">
<stop stop-color="#F82814" stop-opacity="0"/>
<stop offset="0.2454" stop-color="#F12817" stop-opacity="0.245"/>
<stop offset="0.6052" stop-color="#DD2820" stop-opacity="0.605"/>
<stop offset="1" stop-color="#C0272D"/>
</linearGradient>
<linearGradient id="paint14_linear_343_7557" x1="125.514" y1="114.132" x2="128.51" y2="110.463" gradientUnits="userSpaceOnUse">
<stop stop-color="#F82814" stop-opacity="0"/>
<stop offset="0.2454" stop-color="#F12817" stop-opacity="0.245"/>
<stop offset="0.6052" stop-color="#DD2820" stop-opacity="0.605"/>
<stop offset="1" stop-color="#C0272D"/>
</linearGradient>
<linearGradient id="paint15_linear_343_7557" x1="73.3352" y1="70.9358" x2="-10.5648" y2="-34.403" gradientUnits="userSpaceOnUse">
<stop stop-color="#42210B" stop-opacity="0"/>
<stop offset="1" stop-color="#42210B"/>
</linearGradient>
<linearGradient id="paint16_linear_343_7557" x1="37.2809" y1="29.4711" x2="65.6415" y2="76.2885" gradientUnits="userSpaceOnUse">
<stop stop-color="#FFDECF"/>
<stop offset="0.3791" stop-color="#FDC4B0"/>
<stop offset="0.7655" stop-color="#FBAE97"/>
<stop offset="1" stop-color="#FAA68E"/>
</linearGradient>
<linearGradient id="paint17_linear_343_7557" x1="133.659" y1="66.3983" x2="44.7152" y2="-22.545" gradientUnits="userSpaceOnUse">
<stop stop-color="#42210B" stop-opacity="0"/>
<stop offset="1" stop-color="#42210B"/>
</linearGradient>
<linearGradient id="paint18_linear_343_7557" x1="102.334" y1="35.5755" x2="123.069" y2="60.8178" gradientUnits="userSpaceOnUse">
<stop stop-color="#FFDECF"/>
<stop offset="0.3791" stop-color="#FDC4B0"/>
<stop offset="0.7655" stop-color="#FBAE97"/>
<stop offset="1" stop-color="#FAA68E"/>
</linearGradient>
<linearGradient id="paint19_linear_343_7557" x1="113.43" y1="107.434" x2="63.7987" y2="4.12039" gradientUnits="userSpaceOnUse">
<stop stop-color="#42210B" stop-opacity="0"/>
<stop offset="1" stop-color="#42210B"/>
</linearGradient>
<linearGradient id="paint20_linear_343_7557" x1="89.7288" y1="64.5354" x2="110.661" y2="101.899" gradientUnits="userSpaceOnUse">
<stop stop-color="#FFDECF"/>
<stop offset="0.3791" stop-color="#FDC4B0"/>
<stop offset="0.7655" stop-color="#FBAE97"/>
<stop offset="1" stop-color="#FAA68E"/>
</linearGradient>
<clipPath id="clip0_343_7557">
<rect width="150" height="150" fill="white" transform="translate(0.169434 0.790039)"/>
</clipPath>
</defs>
</svg>
