<svg width="354" height="95" viewBox="0 0 354 95" fill="none" xmlns="http://www.w3.org/2000/svg">
<path d="M312.752 16.648C314.523 16.2432 315.643 14.4361 315.248 12.6197C314.854 10.8033 313.091 9.65481 311.32 10.0596C309.548 10.4644 308.428 12.2715 308.823 14.0879C309.218 15.9043 310.98 17.0528 312.752 16.648ZM311.767 12.1185C312.432 11.9667 313.092 12.3973 313.24 13.0785C313.389 13.7597 312.968 14.4373 312.304 14.5891C311.64 14.7409 310.979 14.3103 310.831 13.6291C310.683 12.9479 311.103 12.2702 311.767 12.1185Z" fill="#6A7889"/>
<path d="M278.976 34.2998L277.516 33.7942C277.375 33.7453 277.262 33.6298 277.215 33.4852L276.722 31.9885C276.591 31.5923 276.229 31.3259 275.821 31.3259C275.413 31.3259 275.051 31.5921 274.921 31.9884L274.428 33.485C274.38 33.6297 274.267 33.7452 274.126 33.7941L272.667 34.2997C272.28 34.4336 272.02 34.8046 272.02 35.223C272.02 35.6412 272.28 36.0122 272.667 36.1461L274.126 36.6517C274.267 36.7006 274.38 36.8162 274.428 36.9608L274.921 38.4574C275.051 38.8537 275.413 39.12 275.821 39.12C276.229 39.12 276.591 38.8538 276.722 38.4575L277.215 36.9608C277.262 36.8162 277.375 36.7006 277.516 36.6518L278.976 36.1462C279.362 36.0123 279.622 35.6413 279.622 35.2231C279.622 34.8046 279.362 34.4336 278.976 34.2998ZM275.821 36.2269C275.619 35.7879 275.27 35.4304 274.842 35.223C275.27 35.0156 275.619 34.658 275.821 34.219C276.023 34.658 276.372 35.0155 276.8 35.223C276.372 35.4304 276.023 35.7879 275.821 36.2269Z" fill="#6A7889"/>
<path d="M255.568 4.29983L254.109 3.79419C253.968 3.7453 253.855 3.6298 253.807 3.48521L253.314 1.98852C253.184 1.59225 252.822 1.32593 252.414 1.32593C252.006 1.32593 251.644 1.59215 251.514 1.98841L251.02 3.48499C250.973 3.62969 250.86 3.74519 250.719 3.79409L249.259 4.29972C248.873 4.4336 248.613 4.8046 248.613 5.22296C248.613 5.64121 248.873 6.01221 249.259 6.14608L250.719 6.65172C250.86 6.70061 250.973 6.81622 251.02 6.96082L251.514 8.4574C251.644 8.85366 252.006 9.11999 252.414 9.11999C252.822 9.11999 253.184 8.85377 253.314 8.45751L253.807 6.96082C253.855 6.81622 253.968 6.70062 254.109 6.65183L255.568 6.14619C255.955 6.01232 256.215 5.64132 256.215 5.22307C256.215 4.8046 255.955 4.4336 255.568 4.29983ZM252.414 6.22691C252.211 5.78788 251.863 5.43044 251.435 5.22296C251.863 5.01558 252.211 4.65804 252.414 4.219C252.616 4.65804 252.965 5.01548 253.393 5.22296C252.965 5.43044 252.616 5.78788 252.414 6.22691Z" fill="#6A7889"/>
<path d="M114.877 27.2998L113.417 26.7942C113.276 26.7453 113.164 26.6298 113.116 26.4852L112.623 24.9885C112.492 24.5923 112.13 24.3259 111.722 24.3259C111.315 24.3259 110.953 24.5921 110.822 24.9884L110.329 26.485C110.281 26.6297 110.169 26.7452 110.027 26.7941L108.568 27.2997C108.181 27.4336 107.922 27.8046 107.922 28.223C107.922 28.6412 108.181 29.0122 108.568 29.1461L110.027 29.6517C110.169 29.7006 110.281 29.8162 110.329 29.9608L110.822 31.4574C110.953 31.8537 111.315 32.12 111.722 32.12C112.13 32.12 112.492 31.8538 112.623 31.4575L113.116 29.9608C113.164 29.8162 113.276 29.7006 113.417 29.6518L114.877 29.1462C115.263 29.0123 115.523 28.6413 115.523 28.2231C115.523 27.8046 115.263 27.4336 114.877 27.2998ZM111.722 29.2269C111.52 28.7879 111.171 28.4304 110.743 28.223C111.171 28.0156 111.52 27.658 111.722 27.219C111.925 27.658 112.273 28.0155 112.701 28.223C112.273 28.4304 111.925 28.7879 111.722 29.2269Z" fill="#6A7889"/>
<path d="M50.7535 23.2998L49.2938 22.7942C49.1528 22.7453 49.0401 22.6298 48.9924 22.4852L48.4993 20.9885C48.3687 20.5923 48.0069 20.3259 47.599 20.3259C47.191 20.3259 46.8292 20.5921 46.6986 20.9884L46.2055 22.485C46.1578 22.6297 46.045 22.7452 45.904 22.7941L44.4444 23.2997C44.0578 23.4336 43.7982 23.8046 43.7982 24.223C43.7982 24.6412 44.0578 25.0122 44.4443 25.1461L45.904 25.6517C46.045 25.7006 46.1578 25.8162 46.2055 25.9608L46.6986 27.4574C46.8292 27.8537 47.191 28.12 47.599 28.12C48.0069 28.12 48.3687 27.8538 48.4993 27.4575L48.9924 25.9608C49.0401 25.8162 49.1528 25.7006 49.2938 25.6518L50.7535 25.1462C51.14 25.0123 51.3998 24.6413 51.3998 24.2231C51.3997 23.8046 51.1399 23.4336 50.7535 23.2998ZM47.5989 25.2269C47.3966 24.7879 47.0479 24.4304 46.6197 24.223C47.0479 24.0156 47.3965 23.658 47.5989 23.219C47.8012 23.658 48.1498 24.0155 48.578 24.223C48.1499 24.4304 47.8012 24.7879 47.5989 25.2269Z" fill="#6A7889"/>
<path d="M8.45535 13.648C10.2269 13.2432 11.347 11.4361 10.9522 9.61969C10.5574 7.80325 8.79498 6.65481 7.0234 7.0596C5.25181 7.46439 4.13173 9.27145 4.52652 11.0879C4.92131 12.9043 6.68376 14.0528 8.45535 13.648ZM7.47088 9.11847C8.13524 8.96667 8.79614 9.39733 8.94419 10.0785C9.09224 10.7597 8.67222 11.4373 8.00786 11.5891C7.3435 11.7409 6.6826 11.3103 6.53455 10.6291C6.3865 9.9479 6.80662 9.27024 7.47088 9.11847Z" fill="#6A7889"/>
<path d="M87.2084 7.64798C88.98 7.24319 90.1001 5.43613 89.7053 3.61969C89.3105 1.80325 87.548 0.654814 85.7764 1.0596C84.0049 1.46439 82.8848 3.27145 83.2796 5.08789C83.6744 6.90433 85.4368 8.05277 87.2084 7.64798ZM86.2239 3.11847C86.8883 2.96667 87.5492 3.39733 87.6972 4.0785C87.8453 4.75968 87.4253 5.43731 86.7609 5.58911C86.0966 5.74091 85.4357 5.31025 85.2876 4.62908C85.1396 3.9479 85.5597 3.27024 86.2239 3.11847Z" fill="#6A7889"/>
<path d="M230.826 18.649C232.597 18.2442 233.717 16.4371 233.323 14.6207C232.928 12.8042 231.165 11.6558 229.394 12.0606C227.622 12.4654 226.502 14.2724 226.897 16.0889C227.292 17.9053 229.054 19.0537 230.826 18.649ZM229.841 14.1194C230.506 13.9676 231.167 14.3983 231.315 15.0795C231.463 15.7607 231.043 16.4383 230.378 16.5901C229.714 16.7419 229.053 16.3112 228.905 15.6301C228.757 14.9489 229.177 14.2712 229.841 14.1194Z" fill="#6A7889"/>
<g clip-path="url(#clip0_19665_429)">
<path d="M37.3635 68.1529C39.4065 67.1825 41.4407 66.4746 43.4389 66.041C44.0153 65.916 44.3836 65.3356 44.2617 64.7446C44.1398 64.1537 43.5743 63.7759 42.9972 63.901C40.6842 64.4028 38.3351 65.2421 35.9857 66.4019C34.6733 64.797 33.1709 63.119 31.5499 61.457C29.8275 59.6911 28.0871 58.0611 26.4337 56.6579C27.8645 54.803 29.0322 52.7262 29.9157 50.4532C31.2932 46.9094 31.9917 42.8605 31.9917 38.4188C31.9917 37.8147 31.514 37.3251 30.9249 37.3251C30.3359 37.3251 29.8582 37.8147 29.8582 38.4188C29.8582 45.2626 28.1467 50.9267 24.7668 55.2976C24.129 54.7987 23.5106 54.3402 22.9201 53.9319C19.7586 51.7456 17.8756 51.2332 16.8231 52.2736C16.8157 52.2807 16.8079 52.2877 16.8006 52.295C16.7995 52.2961 16.7985 52.2971 16.7974 52.2981C16.7968 52.2987 16.7962 52.2995 16.7956 52.3C16.526 52.5771 16.3596 52.9121 16.2966 53.3119L0.551755 91.8085C0.384276 92.218 0.474949 92.6908 0.781211 93.0048C0.985386 93.2141 1.25826 93.3252 1.53583 93.3252C1.67472 93.3252 1.81489 93.2974 1.94812 93.2401C1.95111 93.2388 1.94812 93.2401 1.95111 93.2388L39.4942 77.0963C39.8502 77.0373 40.1526 76.8881 40.4083 76.6522C40.4269 76.6363 40.4442 76.6195 40.4616 76.6026C40.4685 76.5957 40.4758 76.59 40.4825 76.583C40.4836 76.5819 40.4845 76.5807 40.4854 76.5798C40.4928 76.5723 40.4996 76.5642 40.5066 76.5565C41.5212 75.4773 41.0215 73.5467 38.8891 70.3054C38.4384 69.6202 37.9263 68.899 37.3635 68.1529ZM8.92964 85.5332C8.70701 86.9565 8.21194 87.8921 7.97373 88.2771L3.52765 90.1887L8.04307 79.1486C8.92655 81.4194 9.23281 83.5946 8.92964 85.5332ZM15.494 81.8324C15.0638 84.3463 13.9231 85.558 13.5987 85.8586L10.7877 87.0672C11.4126 84.7863 11.5769 81.1656 9.16187 76.4131L12.3587 68.5972C15.6755 75.0449 15.9244 79.3171 15.494 81.8324ZM19.2991 83.4074L16.9999 84.3961C17.219 83.8286 17.4122 83.1822 17.5521 82.4497C18.406 77.9814 17.0121 72.4566 13.4116 66.023L14.5658 63.201C15.4793 64.3281 16.5203 65.9234 16.9418 66.9292C17.1154 67.3434 17.5089 67.5914 17.9224 67.5914C18.0629 67.5914 18.2058 67.5627 18.3431 67.5023C18.8844 67.2637 19.1345 66.6206 18.902 66.0655C18.2764 64.5732 16.6903 62.2512 15.477 60.9732L17.2406 56.661C17.5496 57.2418 17.9322 57.8782 18.3911 58.5758C18.7071 59.0561 19.0533 59.5541 19.4255 60.066C23.0746 65.7432 22.992 71.5542 22.2787 75.4314C21.5201 79.5554 19.8958 82.5747 19.2991 83.4074ZM27.5187 79.8734L22.4545 82.0508C23.1857 80.4062 23.9317 78.2473 24.375 75.837C24.8702 73.1448 25.0879 69.6046 24.1717 65.7816C24.677 66.3289 25.1968 66.8774 25.7301 67.4242C27.3257 69.0601 28.9363 70.5781 30.4793 71.9086C30.3263 77.0725 28.0162 79.4256 27.5187 79.8734ZM31.1958 78.2924C31.7668 77.081 32.2711 75.5199 32.4959 73.5701C33.1398 74.0741 33.7642 74.5372 34.3601 74.9492C35.0408 75.4199 35.6613 75.8121 36.2279 76.1288L31.1958 78.2924ZM34.9477 72.7063C32.6286 71.0216 29.8908 68.5964 27.2388 65.8772C24.5869 63.1581 22.2214 60.351 20.5784 57.9732C18.9895 55.6738 18.5613 54.4997 18.4485 53.9911C18.9446 54.1068 20.0897 54.5458 22.3323 56.1749C22.6649 56.4165 23.0067 56.6747 23.3549 56.9454C23.2801 57.0244 23.2063 57.1041 23.1302 57.1821C22.7137 57.6092 22.7137 58.3018 23.1302 58.729C23.3386 58.9425 23.6116 59.0494 23.8845 59.0494C24.1575 59.0494 24.4306 58.9425 24.6388 58.729C24.7728 58.5916 24.9048 58.4524 25.0352 58.3118C26.6534 59.6833 28.3643 61.2845 30.0414 63.004C31.4835 64.4827 32.8394 65.9868 34.0421 67.4341C33.8494 67.5439 33.6569 67.6554 33.4643 67.7694C32.9541 68.0715 32.7793 68.7404 33.0739 69.2634C33.2715 69.6143 33.63 69.8105 33.9988 69.8105C34.1797 69.8105 34.3632 69.7632 34.5311 69.6638C34.8272 69.4883 35.1235 69.32 35.4198 69.1556C35.8833 69.7591 36.3134 70.3459 36.7018 70.9081C38.2908 73.2075 38.7189 74.3816 38.8316 74.8902C38.3354 74.7744 37.1902 74.3354 34.9477 72.7063Z" fill="#6A7889"/>
<path d="M19.7643 68.8843C19.5224 68.3334 18.891 68.0877 18.3537 68.3357C17.8331 68.5758 17.592 69.1912 17.7975 69.7303C17.959 70.1637 18.3628 70.4336 18.7938 70.4336C18.9108 70.4336 19.0296 70.4137 19.1463 70.3719C19.7023 70.1724 19.9954 69.5484 19.8007 68.9782C19.7906 68.9486 19.7768 68.9129 19.7643 68.8843Z" fill="#6A7889"/>
<path d="M40.3042 54.2452C40.5126 54.4587 40.7856 54.5656 41.0585 54.5656C41.3316 54.5656 41.6045 54.4587 41.8128 54.2452C44.1963 51.8015 48.0578 50.6815 50.8771 50.4482C51.4643 50.3996 51.9019 49.872 51.8545 49.27C51.8071 48.6679 51.2936 48.221 50.7054 48.2678C47.5081 48.5323 43.0968 49.8352 40.3042 52.6984C39.8877 53.1256 39.8877 53.8181 40.3042 54.2452Z" fill="#6A7889"/>
<path d="M54.2958 48.4782C54.2656 48.4699 54.2349 48.4617 54.2038 48.4537C53.6322 48.3076 53.0533 48.6647 52.9109 49.2509C52.7686 49.837 53.1167 50.4306 53.6884 50.5765L53.7429 50.5909C53.8355 50.6164 53.9285 50.6287 54.02 50.6287C54.4909 50.6287 54.9219 50.3066 55.0497 49.8181C55.2023 49.2347 54.8649 48.6349 54.2958 48.4782Z" fill="#6A7889"/>
<path d="M48.7391 56.3157C46.9745 56.3157 45.5389 57.7876 45.5389 59.5969C45.5389 61.4062 46.9745 62.8782 48.7391 62.8782C50.5037 62.8782 51.9393 61.4062 51.9393 59.5969C51.9393 57.7876 50.5036 56.3157 48.7391 56.3157ZM48.7391 60.6907C48.1509 60.6907 47.6724 60.2 47.6724 59.5969C47.6724 58.9938 48.1509 58.5032 48.7391 58.5032C49.3273 58.5032 49.8059 58.9938 49.8059 59.5969C49.8059 60.2 49.3273 60.6907 48.7391 60.6907Z" fill="#6A7889"/>
<path d="M21.6446 47.7846C23.4092 47.7846 24.8448 46.3126 24.8448 44.5033C24.8448 42.694 23.4092 41.222 21.6446 41.222C19.88 41.222 18.4443 42.694 18.4443 44.5033C18.4443 46.3126 19.88 47.7846 21.6446 47.7846ZM21.6446 43.4095C22.2328 43.4095 22.7113 43.9002 22.7113 44.5033C22.7113 45.1064 22.2328 45.5971 21.6446 45.5971C21.0564 45.5971 20.5778 45.1064 20.5778 44.5033C20.5778 43.9003 21.0564 43.4095 21.6446 43.4095Z" fill="#6A7889"/>
<path d="M48.3863 69.4885C48.3863 68.8861 47.9071 68.3948 47.3196 68.3948C46.732 68.3948 46.2528 68.8861 46.2528 69.4885C46.2528 70.091 46.732 70.5823 47.3196 70.5823C47.9071 70.5823 48.3863 70.0909 48.3863 69.4885Z" fill="#6A7889"/>
<path d="M36.2249 47.7231C36.8124 47.7231 37.2916 47.2318 37.2916 46.6294C37.2916 46.027 36.8124 45.5356 36.2249 45.5356C35.6373 45.5356 35.1581 46.027 35.1581 46.6294C35.1582 47.2317 35.6374 47.7231 36.2249 47.7231Z" fill="#6A7889"/>
<path d="M50.5193 76.5979C49.9317 76.5979 49.4525 77.0893 49.4525 77.6918C49.4525 78.2942 49.9317 78.7855 50.5193 78.7855C51.1068 78.7855 51.5861 78.2942 51.5861 77.6918C51.5861 77.0893 51.1068 76.5979 50.5193 76.5979Z" fill="#6A7889"/>
<path d="M15.3175 40.6075C15.9051 40.6075 16.3843 40.1162 16.3843 39.5138C16.3843 38.9114 15.9051 38.42 15.3175 38.42C14.73 38.42 14.2508 38.9114 14.2508 39.5138C14.2508 40.1162 14.73 40.6075 15.3175 40.6075Z" fill="#6A7889"/>
<path d="M12.0111 47.3L10.5514 46.7943C10.4104 46.7454 10.2977 46.6299 10.25 46.4853L9.75686 44.9886C9.62629 44.5924 9.26445 44.326 8.85653 44.326C8.44861 44.326 8.08677 44.5923 7.9562 44.9885L7.46305 46.4851C7.41536 46.6298 7.30261 46.7453 7.16158 46.7942L5.70196 47.2998C5.31537 47.4337 5.05573 47.8047 5.05573 48.2231C5.05573 48.6413 5.31537 49.0123 5.70185 49.1462L7.16158 49.6518C7.30261 49.7007 7.41536 49.8163 7.46305 49.9609L7.9562 51.4575C8.08677 51.8538 8.44861 52.1201 8.85653 52.1201C9.26445 52.1201 9.62629 51.8539 9.75686 51.4576L10.25 49.9609C10.2977 49.8163 10.4104 49.7007 10.5514 49.652L12.0111 49.1463C12.3976 49.0124 12.6573 48.6414 12.6573 48.2232C12.6572 47.8047 12.3975 47.4337 12.0111 47.3ZM8.85643 49.227C8.65417 48.788 8.30545 48.4306 7.87726 48.2231C8.30545 48.0157 8.65406 47.6582 8.85643 47.2191C9.05879 47.6582 9.4074 48.0156 9.83559 48.2231C9.40751 48.4306 9.05879 48.788 8.85643 49.227Z" fill="#6A7889"/>
<path d="M38.573 55.0656L37.1133 54.5599C36.9723 54.511 36.8596 54.3956 36.812 54.251L36.3188 52.7543C36.1882 52.358 35.8264 52.0917 35.4185 52.0917C35.0106 52.0917 34.6487 52.3579 34.5181 52.7542L34.025 54.2507C33.9773 54.3954 33.8646 54.5109 33.7235 54.5598L32.2639 55.0655C31.8773 55.1993 31.6177 55.5703 31.6177 55.9887C31.6177 56.407 31.8773 56.778 32.2638 56.9118L33.7235 57.4175C33.8646 57.4664 33.9773 57.582 34.025 57.7266L34.5181 59.2231C34.6487 59.6194 35.0106 59.8857 35.4185 59.8857C35.8264 59.8857 36.1882 59.6195 36.3188 59.2233L36.812 57.7266C36.8596 57.582 36.9723 57.4664 37.1133 57.4176L38.573 56.9119C38.9595 56.7781 39.2193 56.4071 39.2193 55.9888C39.2192 55.5703 38.9594 55.1993 38.573 55.0656ZM35.4184 56.9927C35.2161 56.5536 34.8674 56.1962 34.4392 55.9887C34.8674 55.7813 35.216 55.4238 35.4184 54.9848C35.6207 55.4238 35.9693 55.7812 36.3975 55.9887C35.9694 56.1962 35.6207 56.5536 35.4184 56.9927Z" fill="#6A7889"/>
<path d="M48.4938 83.175L47.034 82.6693C46.893 82.6204 46.7804 82.5049 46.7327 82.3603L46.2395 80.8636C46.109 80.4674 45.7471 80.201 45.3392 80.201C44.9313 80.201 44.5694 80.4673 44.4389 80.8635L43.9457 82.3601C43.898 82.5048 43.7853 82.6203 43.6442 82.6692L42.1846 83.1748C41.798 83.3087 41.5384 83.6797 41.5384 84.0981C41.5384 84.5163 41.798 84.8873 42.1845 85.0212L43.6442 85.5268C43.7853 85.5757 43.898 85.6913 43.9457 85.8359L44.4389 87.3325C44.5694 87.7288 44.9313 87.9951 45.3392 87.9951C45.7471 87.9951 46.109 87.7289 46.2395 87.3326L46.7327 85.8359C46.7804 85.6913 46.893 85.5757 47.034 85.527L48.4938 85.0213C48.8802 84.8874 49.14 84.5164 49.14 84.0982C49.1399 83.6797 48.8801 83.3087 48.4938 83.175ZM45.3391 85.102C45.1368 84.663 44.7881 84.3056 44.3599 84.0981C44.7881 83.8907 45.1367 83.5332 45.3391 83.0941C45.5414 83.5332 45.8901 83.8906 46.3182 84.0981C45.8902 84.3056 45.5414 84.663 45.3391 85.102Z" fill="#6A7889"/>
</g>
<path d="M347.067 58.1262L319.299 64.471L320.656 60.0412C320.826 59.4855 320.525 58.8935 319.983 58.719L312.189 56.2091C311.929 56.1253 311.647 56.151 311.405 56.2803C311.163 56.4098 310.981 56.6323 310.899 56.8992L307.688 67.3821C307.312 67.0309 306.863 66.7646 306.363 66.6037C304.496 66.0025 302.5 67.0706 301.914 68.9848C301.619 69.9474 301.737 70.9433 302.163 71.7721C302.158 71.7748 302.153 71.7772 302.148 71.7799C301.307 72.2296 300.688 72.9879 300.404 73.9152C300.12 74.8424 300.205 75.8277 300.644 76.6892C301.082 77.5508 301.822 78.1857 302.726 78.477C303.226 78.638 303.743 78.6816 304.248 78.614L301.036 89.098C300.954 89.3649 300.979 89.6541 301.105 89.902C301.232 90.15 301.449 90.3364 301.709 90.4202L309.502 92.9301C309.681 92.9876 309.863 92.9926 310.034 92.9537C310.381 92.8744 310.678 92.6127 310.792 92.24L317.485 70.3924L321.58 89.2346C321.704 89.8031 322.253 90.1613 322.808 90.0346L352.527 83.2442C353.081 83.1175 353.43 82.5539 353.307 81.9854L348.295 58.9262C348.171 58.3576 347.622 57.9995 347.067 58.1262ZM312.554 58.5375L318.385 60.4153L314.809 72.0874L308.978 70.2096L312.554 58.5375ZM313.33 76.9172L307.499 75.0394L308.362 72.2219L314.193 74.0997L313.33 76.9172ZM303.877 69.6168C304.042 69.0769 304.474 68.6972 304.978 68.5822C305.225 68.5257 305.489 68.533 305.747 68.616C306.531 68.8687 306.969 69.7287 306.723 70.5332L306.276 71.9924L304.853 71.5341C304.068 71.2814 303.63 70.4213 303.877 69.6168ZM305.212 75.4638C304.966 76.2682 304.127 76.7173 303.342 76.4646C302.558 76.2119 302.12 75.3519 302.366 74.5473C302.486 74.1576 302.746 73.8389 303.099 73.6498C303.217 73.5868 303.341 73.5406 303.467 73.5117C303.719 73.4541 303.983 73.465 304.236 73.5465L305.659 74.0048L305.212 75.4638ZM309.138 90.6017L303.307 88.7239L306.882 77.0518L312.713 78.9296L309.138 90.6017ZM318.8 66.746L329.242 64.3602L333.806 85.3605L323.364 87.7463L318.8 66.746ZM351.075 81.4148L340.633 83.8006L339.42 78.2157C339.296 77.6472 338.746 77.289 338.192 77.4157C337.637 77.5424 337.288 78.106 337.411 78.6745L338.625 84.2594L335.814 84.9017L331.25 63.9014L334.061 63.259L335.398 69.4097C335.521 69.9782 336.071 70.3364 336.626 70.2097C337.18 70.083 337.529 69.5194 337.406 68.9509L336.069 62.8002L346.511 60.4144L351.075 81.4148Z" fill="#6A7889"/>
<path d="M331.491 58.2209C332.046 58.0942 332.395 57.5306 332.271 56.962L329.852 45.8322C329.729 45.2637 329.179 44.9055 328.625 45.0322C328.07 45.1589 327.721 45.7225 327.844 46.291L330.263 57.4209C330.387 57.9894 330.937 58.3476 331.491 58.2209Z" fill="#6A7889"/>
<path d="M337.585 56.8293C338.139 56.7026 338.489 56.139 338.365 55.5704C337.511 51.6411 338.2 47.606 340.306 44.2085C340.611 43.7169 340.469 43.065 339.99 42.7525C339.51 42.4401 338.875 42.5854 338.57 43.0769C336.169 46.9501 335.383 51.55 336.357 56.0292C336.48 56.5978 337.03 56.956 337.585 56.8293Z" fill="#6A7889"/>
<path d="M324.17 58.8134C324.293 59.382 324.843 59.7401 325.397 59.6134C325.952 59.4867 326.301 58.9231 326.178 58.3546C325.204 53.8753 322.588 50.0528 318.81 47.5914C318.331 47.279 317.695 47.4242 317.39 47.9159C317.085 48.4075 317.227 49.0593 317.707 49.3717C321.02 51.5309 323.315 54.8841 324.17 58.8134Z" fill="#6A7889"/>
<path d="M312.494 47.5534C314.266 47.1486 315.386 45.3415 314.991 43.5251C314.596 41.7086 312.834 40.5602 311.062 40.965C309.29 41.3698 308.17 43.1768 308.565 44.9933C308.96 46.8097 310.722 47.9582 312.494 47.5534ZM311.509 43.0239C312.174 42.8721 312.835 43.3027 312.983 43.9839C313.131 44.6651 312.711 45.3427 312.046 45.4945C311.382 45.6463 310.721 45.2156 310.573 44.5345C310.425 43.8533 310.845 43.1756 311.509 43.0239Z" fill="#6A7889"/>
<path d="M321.558 41.9475C321.822 41.8872 322.058 41.7189 322.203 41.4837C322.348 41.2495 322.398 40.9604 322.339 40.6887C322.28 40.4179 322.115 40.1769 321.886 40.0281C321.658 39.8793 321.375 39.8283 321.111 39.8886C320.847 39.949 320.612 40.1183 320.466 40.3527C320.32 40.5868 320.272 40.8767 320.331 41.1475C320.389 41.4182 320.554 41.6595 320.782 41.8083C321.011 41.9579 321.293 42.0081 321.558 41.9475Z" fill="#6A7889"/>
<path d="M342.383 51.8139C342.611 51.9627 342.894 52.0137 343.158 51.9534C343.423 51.893 343.658 51.7237 343.803 51.4895C343.949 51.2552 343.998 50.9653 343.939 50.6945C343.88 50.4238 343.716 50.1825 343.486 50.0339C343.258 49.8851 342.975 49.8342 342.711 49.8945C342.447 49.9548 342.212 50.1242 342.067 50.3583C341.922 50.5925 341.872 50.8826 341.931 51.1533C341.989 51.4241 342.155 51.6651 342.383 51.8139Z" fill="#6A7889"/>
<path d="M343.011 39.4592C343.275 39.3989 343.51 39.2296 343.655 38.9954C343.8 38.7613 343.85 38.4711 343.791 38.2004C343.732 37.9286 343.567 37.6886 343.338 37.5388C343.11 37.39 342.827 37.34 342.563 37.4004C342.299 37.4607 342.064 37.629 341.919 37.8631C341.774 38.0983 341.724 38.3874 341.783 38.6592C341.842 38.9299 342.007 39.171 342.235 39.3198C342.464 39.4686 342.746 39.5196 343.011 39.4592Z" fill="#6A7889"/>
<path d="M337.185 72.7832C336.921 72.8435 336.686 73.0118 336.541 73.247C336.396 73.4811 336.346 73.7702 336.405 74.042C336.464 74.3127 336.629 74.5538 336.857 74.7026C337.086 74.8514 337.369 74.9024 337.633 74.842C337.897 74.7817 338.132 74.6124 338.277 74.3782C338.422 74.1441 338.472 73.8539 338.413 73.5832C338.354 73.3114 338.189 73.0714 337.961 72.9226C337.732 72.7728 337.449 72.7228 337.185 72.7832Z" fill="#6A7889"/>
<path d="M333.21 27.2729L331.733 27.1109C331.59 27.0952 331.46 27.0107 331.386 26.8849L330.615 25.5822C330.412 25.2374 330.016 25.0645 329.633 25.1522C329.249 25.24 328.963 25.5683 328.921 25.9694L328.763 27.484C328.747 27.6305 328.665 27.7634 328.542 27.8398L327.272 28.6296C326.935 28.8387 326.767 29.2437 326.852 29.6375C326.938 30.0311 327.258 30.3245 327.649 30.3674L329.127 30.5294C329.269 30.545 329.399 30.6296 329.474 30.7554L330.244 32.058C330.448 32.4028 330.843 32.5757 331.227 32.488C331.611 32.4003 331.897 32.0719 331.939 31.6708L332.097 30.1561C332.112 30.0098 332.194 29.8767 332.317 29.8005L333.588 29.0106C333.924 28.8015 334.093 28.3965 334.007 28.0028C333.921 27.609 333.601 27.3157 333.21 27.2729ZM330.635 29.765C330.355 29.3953 329.954 29.1339 329.508 29.0307C329.869 28.7434 330.124 28.3319 330.224 27.8752C330.505 28.2449 330.906 28.5064 331.351 28.6096C330.991 28.8969 330.736 29.3083 330.635 29.765Z" fill="#6A7889"/>
<defs>
<clipPath id="clip0_19665_429">
<rect width="54.6173" height="56" fill="white" transform="translate(0.468872 37.326)"/>
</clipPath>
</defs>
</svg>
