<svg width="151" height="125" fill="none" xmlns="http://www.w3.org/2000/svg"><path d="M150.875 28.877c0-9.636-15.052-17.446-33.62-17.446H63.961c-18.568 0-33.62 7.81-33.62 17.445 0 6.87 7.65 12.81 18.769 15.655 2.843.728 5.243 2.607 6.733 5.136 4.86 8.25 17.073 14.101 31.372 14.101 13.307 0 24.807-5.068 30.256-12.42 2.268-3.06 5.594-5.166 9.358-5.745 13.903-2.139 24.046-8.818 24.046-16.727Z" fill="url(#a)"/><path d="M120.408 11.508a65.543 65.543 0 0 0-3.153-.077h-49.99c-4.131 4.51-6.578 10.111-6.578 16.179 0 1.68.84 3.17 2.328 4.472l31.204 31.205c10.256-1.425 18.786-5.914 23.251-11.938 2.268-3.06 5.594-5.166 9.358-5.745 8.361-1.287 15.357-4.216 19.61-8.066l-26.03-26.03Z" fill="url(#b)"/><path d="M126.882 27.61c0 14.93-66.196 14.93-66.196 0C60.686 12.679 75.505.574 93.784.574c18.28 0 33.098 12.105 33.098 27.036Z" fill="url(#c)"/><path d="M117.705 23.3a2.48 2.48 0 1 0 0-4.957 2.48 2.48 0 0 0 0 4.958Z" fill="url(#d)"/><path d="M113.101 29.19a1.958 1.958 0 1 0 0-3.915 1.958 1.958 0 0 0 0 3.915Z" fill="url(#e)"/><path d="M121.633 30.055a1.18 1.18 0 1 0 0-2.36 1.18 1.18 0 0 0 0 2.36Z" fill="url(#f)"/><path d="M99.395 7.012c2.958 5.643-2.071 14.11-11.233 18.912s-18.986 4.12-21.943-1.523C63.26 18.76 68.29 10.291 77.452 5.49 86.614.688 96.438 1.37 99.395 7.012Z" fill="url(#g)"/><path d="M150.875 71.98c0-13.804-21.979-27.313-49.091-27.313H36.688c-19.779 0-35.813 8.26-35.813 18.45 0 3.003 1.392 5.837 3.862 8.342 5.019 5.091 7.192 12.161 5.95 19.01a24.41 24.41 0 0 0-.39 4.359c0 16.23 16.034 29.387 35.812 29.387 6.897 0 13.338-1.6 18.803-4.372 5.587-2.835 12.053-3.633 18.279-2.469 2.948.551 6.017.842 9.17.842 18.016 0 33.325-9.501 38.884-22.725 1.081-2.572 3.07-4.702 5.641-6.04 8.654-4.506 13.989-10.67 13.989-17.47Z" fill="url(#h)"/><path d="m142.109 86.235-33.793-33.793c-2.919-3.06-6.475-5.694-10.502-7.775H53.93c-11.514 5.95-19.16 16.441-19.16 28.393 0 2.103 1.061 3.967 2.937 5.594l38.256 38.255a30.04 30.04 0 0 1 7.228.465c2.948.551 6.017.842 9.17.842 18.016 0 33.325-9.501 38.884-22.725 1.081-2.572 3.07-4.702 5.641-6.04a40.575 40.575 0 0 0 5.223-3.216Z" fill="url(#i)"/><path d="M116.979 73.06c0 18.543-82.209 18.543-82.209 0 0-18.544 18.403-33.576 41.105-33.576 22.7 0 41.104 15.033 41.104 33.576Z" fill="url(#j)"/><g opacity=".6"><g opacity=".6"><path opacity=".6" d="M68.938 75.808a2.48 2.48 0 1 0 0-4.959 2.48 2.48 0 0 0 0 4.959Z" fill="url(#k)"/><path opacity=".6" d="M64.334 81.697a1.957 1.957 0 1 0 0-3.915 1.957 1.957 0 0 0 0 3.915Z" fill="url(#l)"/><path opacity=".6" d="M72.865 82.562a1.18 1.18 0 1 0 0-2.36 1.18 1.18 0 0 0 0 2.36Z" fill="url(#m)"/></g><g opacity=".6"><path opacity=".6" d="M82.045 77.029a1.832 1.832 0 1 0 0-3.664 1.832 1.832 0 0 0 0 3.664Z" fill="url(#n)"/><path opacity=".6" d="M76.247 77.266a1.446 1.446 0 1 0 0-2.892 1.446 1.446 0 0 0 0 2.892Z" fill="url(#o)"/><path opacity=".6" d="M79.546 82.2a.872.872 0 1 0 0-1.744.872.872 0 0 0 0 1.744Z" fill="url(#p)"/></g></g><path d="M81.466 50.595c3.829 7.306-1.146 17.462-11.111 22.685-9.965 5.223-21.148 3.535-24.977-3.77-3.83-7.306 1.145-17.463 11.11-22.686 9.966-5.223 21.148-3.535 24.978 3.771Z" fill="url(#q)"/><defs><linearGradient id="b" x1="112.998" y1="54.98" x2="82.381" y2="-16.076" gradientUnits="userSpaceOnUse"><stop stop-color="#EFDCFB" stop-opacity="0"/><stop offset=".029" stop-color="#E9D6F7" stop-opacity=".029"/><stop offset=".22" stop-color="#C5B5DE" stop-opacity=".22"/><stop offset=".414" stop-color="#AA9BCB" stop-opacity=".414"/><stop offset=".608" stop-color="#9688BD" stop-opacity=".608"/><stop offset=".803" stop-color="#8A7DB5" stop-opacity=".803"/><stop offset="1" stop-color="#8679B2"/></linearGradient><linearGradient id="c" x1="89.401" y1="14.807" x2="103.519" y2="50.689" gradientUnits="userSpaceOnUse"><stop stop-color="#FFA936"/><stop offset=".411" stop-color="#FF8548"/><stop offset=".778" stop-color="#FF6C54"/><stop offset="1" stop-color="#FF6359"/></linearGradient><linearGradient id="d" x1="119.925" y1="24.005" x2="113.59" y2="14.12" gradientUnits="userSpaceOnUse"><stop stop-color="#F82814" stop-opacity="0"/><stop offset=".245" stop-color="#F12817" stop-opacity=".245"/><stop offset=".605" stop-color="#DD2820" stop-opacity=".605"/><stop offset="1" stop-color="#C0272D"/></linearGradient><linearGradient id="e" x1="114.891" y1="29.751" x2="109.89" y2="21.947" gradientUnits="userSpaceOnUse"><stop stop-color="#F82814" stop-opacity="0"/><stop offset=".245" stop-color="#F12817" stop-opacity=".245"/><stop offset=".605" stop-color="#DD2820" stop-opacity=".605"/><stop offset="1" stop-color="#C0272D"/></linearGradient><linearGradient id="f" x1="122.788" y1="30.396" x2="119.773" y2="25.692" gradientUnits="userSpaceOnUse"><stop stop-color="#F82814" stop-opacity="0"/><stop offset=".245" stop-color="#F12817" stop-opacity=".245"/><stop offset=".605" stop-color="#DD2820" stop-opacity=".605"/><stop offset="1" stop-color="#C0272D"/></linearGradient><linearGradient id="g" x1="84.089" y1="17.601" x2="68.414" y2="-12.283" gradientUnits="userSpaceOnUse"><stop stop-color="#fff" stop-opacity="0"/><stop offset="1" stop-color="#fff"/></linearGradient><linearGradient id="i" x1="94.86" y1="102.573" x2="70.663" y2="17.778" gradientUnits="userSpaceOnUse"><stop stop-color="#EFDCFB" stop-opacity="0"/><stop offset=".029" stop-color="#E9D6F7" stop-opacity=".029"/><stop offset=".22" stop-color="#C5B5DE" stop-opacity=".22"/><stop offset=".414" stop-color="#AA9BCB" stop-opacity=".414"/><stop offset=".608" stop-color="#9688BD" stop-opacity=".608"/><stop offset=".803" stop-color="#8A7DB5" stop-opacity=".803"/><stop offset="1" stop-color="#8679B2"/></linearGradient><linearGradient id="j" x1="69.422" y1="47.293" x2="80.335" y2="88.482" gradientUnits="userSpaceOnUse"><stop stop-color="#FFD945"/><stop offset=".304" stop-color="#FFCD3E"/><stop offset=".856" stop-color="#FFAD2B"/><stop offset="1" stop-color="#FFA325"/></linearGradient><linearGradient id="k" x1="71.138" y1="76.544" x2="64.803" y2="66.659" gradientUnits="userSpaceOnUse"><stop stop-color="#F82814" stop-opacity="0"/><stop offset=".245" stop-color="#F12817" stop-opacity=".245"/><stop offset=".605" stop-color="#DD2820" stop-opacity=".605"/><stop offset="1" stop-color="#C0272D"/></linearGradient><linearGradient id="l" x1="66.104" y1="82.29" x2="61.103" y2="74.486" gradientUnits="userSpaceOnUse"><stop stop-color="#F82814" stop-opacity="0"/><stop offset=".245" stop-color="#F12817" stop-opacity=".245"/><stop offset=".605" stop-color="#DD2820" stop-opacity=".605"/><stop offset="1" stop-color="#C0272D"/></linearGradient><linearGradient id="m" x1="74.001" y1="82.935" x2="70.986" y2="78.23" gradientUnits="userSpaceOnUse"><stop stop-color="#F82814" stop-opacity="0"/><stop offset=".245" stop-color="#F12817" stop-opacity=".245"/><stop offset=".605" stop-color="#DD2820" stop-opacity=".605"/><stop offset="1" stop-color="#C0272D"/></linearGradient><linearGradient id="n" x1="81.411" y1="77.901" x2="83.733" y2="69.544" gradientUnits="userSpaceOnUse"><stop stop-color="#F82814" stop-opacity="0"/><stop offset=".245" stop-color="#F12817" stop-opacity=".245"/><stop offset=".605" stop-color="#DD2820" stop-opacity=".605"/><stop offset="1" stop-color="#C0272D"/></linearGradient><linearGradient id="o" x1="75.768" y1="77.96" x2="77.601" y2="71.362" gradientUnits="userSpaceOnUse"><stop stop-color="#F82814" stop-opacity="0"/><stop offset=".245" stop-color="#F12817" stop-opacity=".245"/><stop offset=".605" stop-color="#DD2820" stop-opacity=".605"/><stop offset="1" stop-color="#C0272D"/></linearGradient><linearGradient id="p" x1="79.303" y1="82.626" x2="80.408" y2="78.648" gradientUnits="userSpaceOnUse"><stop stop-color="#F82814" stop-opacity="0"/><stop offset=".245" stop-color="#F12817" stop-opacity=".245"/><stop offset=".605" stop-color="#DD2820" stop-opacity=".605"/><stop offset="1" stop-color="#C0272D"/></linearGradient><linearGradient id="q" x1="65.263" y1="63.611" x2="44.961" y2="24.924" gradientUnits="userSpaceOnUse"><stop stop-color="#fff" stop-opacity="0"/><stop offset="1" stop-color="#fff"/></linearGradient><radialGradient id="a" cx="0" cy="0" r="1" gradientUnits="userSpaceOnUse" gradientTransform="matrix(69.211 0 0 46.8804 73.47 23.95)"><stop stop-color="#F8F6FB"/><stop offset=".505" stop-color="#F7F4FB"/><stop offset=".766" stop-color="#F5ECFB"/><stop offset=".971" stop-color="#F0DFFB"/><stop offset="1" stop-color="#EFDCFB"/></radialGradient><radialGradient id="h" cx="0" cy="0" r="1" gradientUnits="userSpaceOnUse" gradientTransform="translate(60.794 44.788) scale(81.4025)"><stop stop-color="#F8F6FB"/><stop offset=".505" stop-color="#F7F4FB"/><stop offset=".766" stop-color="#F5ECFB"/><stop offset=".971" stop-color="#F0DFFB"/><stop offset="1" stop-color="#EFDCFB"/></radialGradient></defs></svg>