<svg width="151" height="151" fill="none" xmlns="http://www.w3.org/2000/svg"><path d="M1.461 124.393c0 9.985 7.001 18.592 16.773 20.645 14.66 3.079 34.753 4.978 56.92 4.978s42.259-1.899 56.919-4.978c9.772-2.053 16.773-10.66 16.773-20.645 0-3.409-3.303-5.859-6.556-4.84-14.631 4.583-39.236 7.593-67.136 7.593s-52.505-3.01-67.137-7.593c-3.253-1.019-6.556 1.431-6.556 4.84Z" fill="url(#a)"/><path d="m59.762 126.834 23.103 23.103c19.096-.384 36.268-2.182 49.208-4.9a21.063 21.063 0 0 0 9.659-4.854l-16.701-16.702c-13.767 2.296-31.07 3.665-49.877 3.665-5.263 0-10.408-.107-15.392-.312Z" fill="url(#b)"/><path d="M142.291 119.553c-6 1.879-13.679 3.493-22.572 4.745l18.44 18.439c6.464-3.667 10.688-10.589 10.688-18.344 0-3.409-3.303-5.859-6.556-4.84Z" fill="url(#c)"/><g opacity=".6"><g opacity=".6"><path opacity=".6" d="M21.674 133.633a2.48 2.48 0 1 0 0-4.958 2.48 2.48 0 0 0 0 4.958Z" fill="url(#d)"/><path opacity=".6" d="M17.07 139.523a1.958 1.958 0 1 0 0-3.916 1.958 1.958 0 0 0 0 3.916Z" fill="url(#e)"/><path opacity=".6" d="M25.601 140.388a1.18 1.18 0 1 0 0-2.36 1.18 1.18 0 0 0 0 2.36Z" fill="url(#f)"/></g><g opacity=".6"><path opacity=".6" d="M34.783 134.855a1.833 1.833 0 1 0-.002-3.665 1.833 1.833 0 0 0 .002 3.665Z" fill="url(#g)"/><path opacity=".6" d="M28.984 135.092a1.446 1.446 0 1 0 0-2.893 1.446 1.446 0 0 0 0 2.893Z" fill="url(#h)"/><path opacity=".6" d="M32.283 140.025a.872.872 0 1 0 0-1.744.872.872 0 0 0 0 1.744Z" fill="url(#i)"/></g></g><path d="M3.146 132.647a21.107 21.107 0 0 0 15.088 12.391c14.66 3.079 34.752 4.978 56.92 4.978 22.166 0 42.258-1.899 56.919-4.978a21.108 21.108 0 0 0 15.088-12.391H3.146Z" fill="url(#j)"/><path d="M1.461 104.363v4.752c0 6.876 4.634 12.916 11.295 14.623 14.907 3.818 37.325 6.248 62.398 6.248 25.072 0 47.49-2.43 62.397-6.248 6.661-1.707 11.295-7.746 11.295-14.623v-4.752c0-3.409-3.303-5.86-6.556-4.84-14.631 4.584-39.236 7.593-67.136 7.593s-52.505-3.009-67.137-7.593c-3.253-1.02-6.556 1.431-6.556 4.84Z" fill="url(#k)"/><path d="M142.291 99.523c-14.631 4.583-39.236 7.593-67.136 7.593s-52.505-3.01-67.137-7.593c-1.797-.563-3.607-.064-4.87 1.068l26.4 26.398c13.003 1.891 28.7 2.997 45.606 2.997 25.073 0 47.491-2.43 62.398-6.248 6.661-1.707 11.295-7.747 11.295-14.623v-4.752c0-3.409-3.303-5.86-6.556-4.84Z" fill="url(#l)"/><path d="M148.847 109.115v-3.339l-6.313-6.313c-.081.021-.162.035-.243.06-7.815 2.448-18.478 4.447-30.967 5.778v8.17a5.94 5.94 0 0 0 2.13 4.561l8.744 8.744c5.707-.869 10.872-1.89 15.354-3.038 6.661-1.707 11.295-7.747 11.295-14.623Z" fill="url(#m)"/><path d="M107.254 105.705c-9.846.908-20.697 1.411-32.1 1.411-11.35 0-22.154-.498-31.964-1.398-.902 1.629-.76 3.785.732 5.276l18.787 18.788c4.058.133 8.212.204 12.445.204 19.923 0 38.165-1.535 52.299-4.082l-20.199-20.199Z" fill="url(#n)"/><path d="M104.544 103.644a101.361 101.361 0 0 0-58.78 0c-3.193.968-4.201 4.991-1.842 7.35l22.79 22.79c4.662 4.662 12.222 4.662 16.884 0l22.79-22.79c2.359-2.359 1.351-6.382-1.842-7.35Z" fill="url(#o)"/><path d="M148.846 96.55c0-20.846-147.385-20.846-147.385 0 0 3.594 4.384 6.568 11.637 8.923 2.635.855 5.065 2.243 7.096 4.126l.218.202a15.426 15.426 0 0 0 16.38 2.942l.004-.002a15.462 15.462 0 0 1 14.461 1.41l.408.271a15.255 15.255 0 0 0 15.777.669l.38-.209a15.255 15.255 0 0 1 14.668-.001l.383.21a15.259 15.259 0 0 0 15.777-.671l.495-.329a15.26 15.26 0 0 1 14.372-1.35 15.258 15.258 0 0 0 16.301-2.868l.296-.274c2.032-1.883 4.462-3.271 7.096-4.127 7.253-2.354 11.636-5.328 11.636-8.922Z" fill="url(#p)"/><path d="M148.846 96.55c0 3.594-4.385 6.564-11.637 8.919-2.634.858-5.065 2.246-7.095 4.129l-.297.274a15.241 15.241 0 0 1-10.371 4.067c-2 0-4.017-.391-5.927-1.2a15.272 15.272 0 0 0-14.374 1.352l-.494.328a15.261 15.261 0 0 1-15.777.67l-.382-.211a15.26 15.26 0 0 0-14.671.004l-.377.207a15.252 15.252 0 0 1-15.777-.67l-.409-.269a15.457 15.457 0 0 0-14.46-1.411h-.004a15.414 15.414 0 0 1-10.056.597L7.77 94.37a12.666 12.666 0 0 1-2.525-3.227c8.483-5.612 30.177-8.915 54.208-9.907a385.18 385.18 0 0 1 31.4 0c30.933 1.276 57.992 6.38 57.992 15.313Z" fill="url(#q)"/><path d="M52.048 81.62c-16.162 1.017-30.676 3.131-39.967 6.346a5.953 5.953 0 0 0 2.243 3.523l21.583 21.583c.297-.102.593-.208.885-.329l.004-.002a15.462 15.462 0 0 1 14.462 1.41l.407.271a15.255 15.255 0 0 0 15.777.669l.38-.209a15.258 15.258 0 0 1 14.669-.001l.383.21c1.332.73 2.745 1.24 4.188 1.544L52.048 81.621Z" fill="url(#r)"/><path d="M136.489 93.418h-25.165v18.596c.742.187 1.477.425 2.194.727a15.259 15.259 0 0 0 16.301-2.868l.296-.274c2.031-1.883 4.461-3.271 7.096-4.127 3.22-1.045 5.873-2.213 7.829-3.503l-8.551-8.551Z" fill="url(#s)"/><path d="M111.324 93.418v20.053a5.953 5.953 0 1 0 11.906 0v-4.063a2.062 2.062 0 1 1 4.125 0v.331a4.567 4.567 0 0 0 9.134 0V93.418h-25.165Z" fill="url(#t)"/><path d="M3.646 84.632v.33c0 5.749 3.829 10.808 9.375 12.324 14.433 3.946 36.897 6.483 62.133 6.483 25.236 0 47.7-2.537 62.134-6.483 5.545-1.516 9.375-6.575 9.375-12.324v-.33c0-6.03-5.669-10.448-11.519-8.98-14.46 3.625-35.966 5.924-59.99 5.924s-45.53-2.299-59.99-5.925c-5.85-1.467-11.518 2.95-11.518 8.98Z" fill="url(#u)"/><path d="M51.211 80.784c-14.176-.967-26.612-2.767-36.047-5.133a9.275 9.275 0 0 0-3.22-.234v11.318c0 1.945.937 3.667 2.38 4.753l7.916 7.916c13.77 2.669 31.966 4.31 51.954 4.361L51.21 80.784Z" fill="url(#v)"/><path d="M134.86 75.72c-14.457 3.586-35.837 5.856-59.705 5.856-1.03 0-2.054-.005-3.074-.014l21.73 21.731c17.501-.909 32.72-3.066 43.477-6.007 4.777-1.306 8.275-5.243 9.153-9.984L134.86 75.72Z" fill="url(#w)"/><path d="M1.461 67.078v4.752c0 6.876 4.634 12.916 11.295 14.623C27.663 90.27 50.081 92.7 75.154 92.7c25.072 0 47.49-2.43 62.397-6.248 6.661-1.707 11.295-7.746 11.295-14.623v-4.752c0-3.409-3.303-5.859-6.556-4.84-14.631 4.584-39.236 7.593-67.136 7.593s-52.505-3.01-67.137-7.593c-3.253-1.019-6.556 1.431-6.556 4.84Z" fill="url(#x)"/><path d="M142.291 62.238c-14.631 4.584-39.236 7.593-67.136 7.593s-52.505-3.01-67.137-7.593c-1.797-.563-3.607-.064-4.87 1.068l26.4 26.399c13.004 1.89 28.7 2.996 45.607 2.996 25.072 0 47.49-2.43 62.397-6.248 6.661-1.707 11.295-7.746 11.295-14.623v-4.752c0-3.409-3.303-5.859-6.556-4.84Z" fill="url(#y)"/><path d="m142.956 83.817-17.689-17.69c-13.804 2.32-31.199 3.704-50.113 3.704-4.117 0-8.16-.067-12.111-.193a4.365 4.365 0 0 0 1.185 4.072l18.787 18.787c.772.025 1.551.046 2.33.067 20.911-.56 39.352-2.818 52.206-6.111a14.905 14.905 0 0 0 5.405-2.636Z" fill="url(#z)"/><path d="M124.849 66.36a101.35 101.35 0 0 0-58.779 0c-3.193.967-4.201 4.99-1.842 7.35l22.79 22.79c4.662 4.662 12.222 4.662 16.884 0l22.79-22.79c2.359-2.36 1.35-6.383-1.843-7.35Z" fill="url(#A)"/><path d="M12.757 86.453c12.437 3.186 30.103 5.403 50.175 6.051L38.38 67.951a244.622 244.622 0 0 1-9.86-1.269H11.945v19.535c.268.085.537.166.812.236Z" fill="url(#B)"/><path d="M11.945 66.682v20.053a5.953 5.953 0 1 0 11.906 0v-4.062a2.062 2.062 0 1 1 4.125 0v.33a4.567 4.567 0 1 0 9.134 0v-16.32H11.945Z" fill="url(#C)"/><path d="M148.846 59.265c0-20.846-147.385-20.846-147.385 0 0 3.594 4.384 6.568 11.637 8.923 2.635.855 5.065 2.244 7.096 4.126l.218.202a15.427 15.427 0 0 0 16.38 2.942l.004-.002a15.462 15.462 0 0 1 14.461 1.41l.408.271a15.257 15.257 0 0 0 15.777.67l.38-.21a15.255 15.255 0 0 1 14.668 0l.383.21a15.258 15.258 0 0 0 15.777-.672l.495-.328a15.257 15.257 0 0 1 14.372-1.35 15.257 15.257 0 0 0 16.301-2.869l.296-.274c2.032-1.883 4.462-3.271 7.096-4.126 7.253-2.355 11.636-5.329 11.636-8.923Z" fill="url(#D)"/><path d="M148.846 59.266c0 3.595-4.385 6.565-11.637 8.92-2.634.858-5.065 2.246-7.095 4.129l-.297.274a15.242 15.242 0 0 1-10.371 4.067c-2 0-4.017-.391-5.927-1.2a15.269 15.269 0 0 0-14.374 1.352l-.494.328a15.261 15.261 0 0 1-15.777.67l-.382-.211a15.26 15.26 0 0 0-14.671.004l-.377.207a15.252 15.252 0 0 1-15.777-.67l-.409-.27a15.458 15.458 0 0 0-14.46-1.41h-.004a15.412 15.412 0 0 1-10.056.597L7.77 57.087a12.668 12.668 0 0 1-2.525-3.226c8.483-5.613 30.177-8.915 54.208-9.908a385.27 385.27 0 0 1 31.4 0c30.933 1.276 57.992 6.38 57.992 15.313Z" fill="url(#E)"/><path d="M3.646 47.347v.33c0 5.75 3.829 10.808 9.375 12.324 14.433 3.947 36.897 6.483 62.133 6.483 25.236 0 47.7-2.536 62.134-6.483 5.545-1.516 9.375-6.575 9.375-12.324v-.329c0-6.031-5.669-10.448-11.519-8.982-14.46 3.626-35.966 5.926-59.99 5.926s-45.53-2.3-59.99-5.925c-5.85-1.467-11.518 2.949-11.518 8.98Z" fill="url(#F)"/><path d="M146.663 47.35v.328c0 5.747-3.829 10.806-9.374 12.325-14.437 3.946-36.9 6.48-62.135 6.48-20.27 0-38.751-1.636-52.721-4.323L4.266 43.993c1.626-4.192 6.2-6.803 10.896-5.626 14.46 3.626 35.97 5.922 59.992 5.922s45.532-2.296 59.992-5.922c5.851-1.47 11.517 2.948 11.517 8.983Z" fill="url(#G)"/><path d="M150.154 39.227c0 20.846-150 20.846-150 0s33.579-37.745 75-37.745c41.422 0 75 16.9 75 37.745Z" fill="url(#H)"/><g opacity=".6"><g opacity=".6"><path opacity=".6" d="M125.895 34.845a2.48 2.48 0 1 0 0-4.958 2.48 2.48 0 0 0 0 4.958Z" fill="url(#I)"/><path opacity=".6" d="M121.292 40.734a1.957 1.957 0 1 0 0-3.914 1.957 1.957 0 0 0 0 3.914Z" fill="url(#J)"/><path opacity=".6" d="M129.823 41.6a1.18 1.18 0 1 0 0-2.361 1.18 1.18 0 0 0 0 2.36Z" fill="url(#K)"/></g><g opacity=".6"><path opacity=".6" d="M139.004 36.067a1.832 1.832 0 1 0 0-3.664 1.832 1.832 0 0 0 0 3.664Z" fill="url(#L)"/><path opacity=".6" d="M133.205 36.304a1.447 1.447 0 1 0 0-2.893 1.447 1.447 0 0 0 0 2.893Z" fill="url(#M)"/><path opacity=".6" d="M136.504 41.237a.872.872 0 1 0 0-1.743.872.872 0 0 0 0 1.743Z" fill="url(#N)"/></g></g><path d="M.154 39.227c0 20.846 150 20.846 150 0 0-3.846-1.146-7.558-3.272-11.055H3.426C1.301 31.67.154 35.38.154 39.227Z" fill="url(#O)"/><path d="M41.67 34.615c2.266 0 4.104-.804 4.104-1.797 0-.993-1.838-1.797-4.105-1.797-2.266 0-4.104.804-4.104 1.797 0 .993 1.838 1.797 4.104 1.797Z" fill="url(#P)"/><path d="M63.994 34.615c2.266 0 4.104-.804 4.104-1.797 0-.993-1.838-1.797-4.104-1.797-2.267 0-4.105.804-4.105 1.797 0 .993 1.838 1.797 4.105 1.797Z" fill="url(#Q)"/><path d="M86.316 34.615c2.267 0 4.105-.804 4.105-1.797 0-.993-1.838-1.797-4.105-1.797-2.267 0-4.104.804-4.104 1.797 0 .993 1.837 1.797 4.104 1.797Z" fill="url(#R)"/><path d="M108.641 34.615c2.266 0 4.104-.804 4.104-1.797 0-.993-1.838-1.797-4.104-1.797-2.267 0-4.105.804-4.105 1.797 0 .993 1.838 1.797 4.105 1.797Z" fill="url(#S)"/><path d="M30.507 24.28c2.267 0 4.105-.804 4.105-1.797 0-.993-1.838-1.797-4.105-1.797-2.267 0-4.104.804-4.104 1.797 0 .993 1.837 1.797 4.104 1.797Z" fill="url(#T)"/><path d="M52.831 24.28c2.267 0 4.105-.804 4.105-1.797 0-.993-1.838-1.797-4.105-1.797-2.266 0-4.104.804-4.104 1.797 0 .993 1.838 1.797 4.105 1.797Z" fill="url(#U)"/><path d="M75.155 24.28c2.266 0 4.104-.804 4.104-1.797 0-.993-1.838-1.797-4.104-1.797-2.267 0-4.105.804-4.105 1.797 0 .993 1.838 1.797 4.105 1.797Z" fill="url(#V)"/><path d="M97.478 24.28c2.267 0 4.105-.804 4.105-1.797 0-.993-1.838-1.797-4.105-1.797-2.266 0-4.104.804-4.104 1.797 0 .993 1.838 1.797 4.104 1.797Z" fill="url(#W)"/><path d="M119.802 24.28c2.266 0 4.104-.804 4.104-1.797 0-.993-1.838-1.797-4.104-1.797-2.267 0-4.105.804-4.105 1.797 0 .993 1.838 1.797 4.105 1.797Z" fill="url(#X)"/><path d="M41.67 13.945c2.266 0 4.104-.804 4.104-1.797 0-.992-1.838-1.797-4.105-1.797-2.266 0-4.104.804-4.104 1.797 0 .993 1.838 1.797 4.104 1.797Z" fill="url(#Y)"/><path d="M63.994 13.945c2.266 0 4.104-.804 4.104-1.797 0-.992-1.838-1.797-4.104-1.797-2.267 0-4.105.804-4.105 1.797 0 .993 1.838 1.797 4.105 1.797Z" fill="url(#Z)"/><path d="M86.316 13.945c2.267 0 4.105-.804 4.105-1.797 0-.992-1.838-1.797-4.105-1.797-2.267 0-4.104.804-4.104 1.797 0 .993 1.837 1.797 4.104 1.797Z" fill="url(#aa)"/><path d="M108.641 13.945c2.266 0 4.104-.804 4.104-1.797 0-.992-1.838-1.797-4.104-1.797-2.267 0-4.105.804-4.105 1.797 0 .993 1.838 1.797 4.105 1.797Z" fill="url(#ab)"/><path d="M75.155 3.61c2.266 0 4.104-.804 4.104-1.797 0-.992-1.838-1.797-4.104-1.797-2.267 0-4.105.805-4.105 1.797 0 .993 1.838 1.798 4.105 1.798Z" fill="url(#ac)"/><path d="M101.085 3.82c-.195.974-2.154 1.403-4.377.959-2.223-.445-3.867-1.594-3.673-2.567.195-.974 2.155-1.403 4.377-.959 2.223.444 3.868 1.594 3.673 2.567Z" fill="url(#ad)"/><path d="M49.224 3.82c.195.974 2.155 1.403 4.377.959 2.223-.445 3.868-1.594 3.673-2.567-.195-.974-2.155-1.403-4.377-.959-2.223.445-3.868 1.594-3.673 2.567Z" fill="url(#ae)"/><defs><linearGradient id="a" x1="74.518" y1="122.876" x2="84.404" y2="161.968" gradientUnits="userSpaceOnUse"><stop stop-color="#FAA68E"/><stop offset=".206" stop-color="#FBA682"/><stop offset=".581" stop-color="#FDA861"/><stop offset="1" stop-color="#FFA936"/></linearGradient><linearGradient id="b" x1="107.896" y1="152.286" x2="87.825" y2="99.564" gradientUnits="userSpaceOnUse"><stop stop-color="#F82814" stop-opacity="0"/><stop offset=".245" stop-color="#F12817" stop-opacity=".245"/><stop offset=".605" stop-color="#DD2820" stop-opacity=".605"/><stop offset="1" stop-color="#C0272D"/></linearGradient><linearGradient id="c" x1="137.622" y1="132.497" x2="130.32" y2="113.625" gradientUnits="userSpaceOnUse"><stop stop-color="#F82814" stop-opacity="0"/><stop offset=".245" stop-color="#F12817" stop-opacity=".245"/><stop offset=".605" stop-color="#DD2820" stop-opacity=".605"/><stop offset="1" stop-color="#C0272D"/></linearGradient><linearGradient id="d" x1="23.694" y1="134.429" x2="17.36" y2="124.543" gradientUnits="userSpaceOnUse"><stop stop-color="#F82814" stop-opacity="0"/><stop offset=".245" stop-color="#F12817" stop-opacity=".245"/><stop offset=".605" stop-color="#DD2820" stop-opacity=".605"/><stop offset="1" stop-color="#C0272D"/></linearGradient><linearGradient id="e" x1="18.66" y1="140.174" x2="13.659" y2="132.37" gradientUnits="userSpaceOnUse"><stop stop-color="#F82814" stop-opacity="0"/><stop offset=".245" stop-color="#F12817" stop-opacity=".245"/><stop offset=".605" stop-color="#DD2820" stop-opacity=".605"/><stop offset="1" stop-color="#C0272D"/></linearGradient><linearGradient id="f" x1="26.557" y1="140.82" x2="23.542" y2="136.115" gradientUnits="userSpaceOnUse"><stop stop-color="#F82814" stop-opacity="0"/><stop offset=".245" stop-color="#F12817" stop-opacity=".245"/><stop offset=".605" stop-color="#DD2820" stop-opacity=".605"/><stop offset="1" stop-color="#C0272D"/></linearGradient><linearGradient id="g" x1="34.045" y1="135.761" x2="36.367" y2="127.404" gradientUnits="userSpaceOnUse"><stop stop-color="#F82814" stop-opacity="0"/><stop offset=".245" stop-color="#F12817" stop-opacity=".245"/><stop offset=".605" stop-color="#DD2820" stop-opacity=".605"/><stop offset="1" stop-color="#C0272D"/></linearGradient><linearGradient id="h" x1="28.402" y1="135.82" x2="30.235" y2="129.222" gradientUnits="userSpaceOnUse"><stop stop-color="#F82814" stop-opacity="0"/><stop offset=".245" stop-color="#F12817" stop-opacity=".245"/><stop offset=".605" stop-color="#DD2820" stop-opacity=".605"/><stop offset="1" stop-color="#C0272D"/></linearGradient><linearGradient id="i" x1="31.937" y1="140.486" x2="33.042" y2="136.508" gradientUnits="userSpaceOnUse"><stop stop-color="#F82814" stop-opacity="0"/><stop offset=".245" stop-color="#F12817" stop-opacity=".245"/><stop offset=".605" stop-color="#DD2820" stop-opacity=".605"/><stop offset="1" stop-color="#C0272D"/></linearGradient><linearGradient id="j" x1="75.153" y1="138.039" x2="75.153" y2="156.401" gradientUnits="userSpaceOnUse"><stop stop-color="#F82814" stop-opacity="0"/><stop offset=".245" stop-color="#F12817" stop-opacity=".245"/><stop offset=".605" stop-color="#DD2820" stop-opacity=".605"/><stop offset="1" stop-color="#C0272D"/></linearGradient><linearGradient id="k" x1="75.154" y1="102.242" x2="75.154" y2="134.373" gradientUnits="userSpaceOnUse"><stop stop-color="#A57C52"/><stop offset=".134" stop-color="#A26C4A"/><stop offset=".515" stop-color="#994336"/><stop offset=".817" stop-color="#942A2A"/><stop offset="1" stop-color="#922125"/></linearGradient><linearGradient id="l" x1="76.742" y1="116.95" x2="75.394" y2="90.589" gradientUnits="userSpaceOnUse"><stop stop-color="#42210B" stop-opacity="0"/><stop offset="1" stop-color="#42210B"/></linearGradient><linearGradient id="m" x1="141.616" y1="125.063" x2="123.53" y2="102.483" gradientUnits="userSpaceOnUse"><stop stop-color="#42210B" stop-opacity="0"/><stop offset="1" stop-color="#42210B"/></linearGradient><linearGradient id="n" x1="88.923" y1="133.364" x2="84.429" y2="114.604" gradientUnits="userSpaceOnUse"><stop stop-color="#42210B" stop-opacity="0"/><stop offset="1" stop-color="#42210B"/></linearGradient><linearGradient id="o" x1="69.911" y1="102.624" x2="96.266" y2="128.979" gradientUnits="userSpaceOnUse"><stop stop-color="#FFD945"/><stop offset=".304" stop-color="#FFCD3E"/><stop offset=".856" stop-color="#FFAD2B"/><stop offset="1" stop-color="#FFA325"/></linearGradient><linearGradient id="p" x1="75.154" y1="93.704" x2="75.154" y2="120.991" gradientUnits="userSpaceOnUse"><stop stop-color="#BADA00"/><stop offset=".227" stop-color="#B0CE00"/><stop offset=".638" stop-color="#95AE00"/><stop offset="1" stop-color="#798C00"/></linearGradient><linearGradient id="q" x1="76.833" y1="111.954" x2="77.133" y2="86.492" gradientUnits="userSpaceOnUse"><stop stop-color="#798C00" stop-opacity="0"/><stop offset=".654" stop-color="#556100" stop-opacity=".654"/><stop offset="1" stop-color="#464F00"/></linearGradient><linearGradient id="r" x1="55.381" y1="113.067" x2="29.768" y2="66.785" gradientUnits="userSpaceOnUse"><stop stop-color="#798C00" stop-opacity="0"/><stop offset=".654" stop-color="#556100" stop-opacity=".654"/><stop offset="1" stop-color="#464F00"/></linearGradient><linearGradient id="s" x1="132.725" y1="115.138" x2="122.952" y2="97.614" gradientUnits="userSpaceOnUse"><stop stop-color="#798C00" stop-opacity="0"/><stop offset=".654" stop-color="#556100" stop-opacity=".654"/><stop offset="1" stop-color="#464F00"/></linearGradient><linearGradient id="t" x1="120.156" y1="99.637" x2="131.235" y2="113.9" gradientUnits="userSpaceOnUse"><stop stop-color="#FFDECF"/><stop offset=".379" stop-color="#FDC4B0"/><stop offset=".765" stop-color="#FBAE97"/><stop offset="1" stop-color="#FAA68E"/></linearGradient><linearGradient id="u" x1="75.154" y1="89.885" x2="75.154" y2="103.382" gradientUnits="userSpaceOnUse"><stop stop-color="#FF6359"/><stop offset=".224" stop-color="#FE5B50"/><stop offset=".595" stop-color="#FC4637"/><stop offset="1" stop-color="#F82814"/></linearGradient><linearGradient id="v" x1="47.017" y1="108.867" x2="37.73" y2="77.863" gradientUnits="userSpaceOnUse"><stop stop-color="#F82814" stop-opacity="0"/><stop offset="1" stop-color="#C0272D"/></linearGradient><linearGradient id="w" x1="117.223" y1="105.803" x2="111.531" y2="90.525" gradientUnits="userSpaceOnUse"><stop stop-color="#F82814" stop-opacity="0"/><stop offset="1" stop-color="#C0272D"/></linearGradient><linearGradient id="x" x1="75.154" y1="64.957" x2="75.154" y2="97.088" gradientUnits="userSpaceOnUse"><stop stop-color="#A57C52"/><stop offset=".134" stop-color="#A26C4A"/><stop offset=".515" stop-color="#994336"/><stop offset=".817" stop-color="#942A2A"/><stop offset="1" stop-color="#922125"/></linearGradient><linearGradient id="y" x1="76.742" y1="79.665" x2="75.394" y2="53.304" gradientUnits="userSpaceOnUse"><stop stop-color="#42210B" stop-opacity="0"/><stop offset="1" stop-color="#42210B"/></linearGradient><linearGradient id="z" x1="113.919" y1="97.943" x2="99.091" y2="70.683" gradientUnits="userSpaceOnUse"><stop stop-color="#42210B" stop-opacity="0"/><stop offset="1" stop-color="#42210B"/></linearGradient><linearGradient id="A" x1="90.216" y1="65.339" x2="116.571" y2="91.694" gradientUnits="userSpaceOnUse"><stop stop-color="#FFD945"/><stop offset=".304" stop-color="#FFCD3E"/><stop offset=".856" stop-color="#FFAD2B"/><stop offset="1" stop-color="#FFA325"/></linearGradient><linearGradient id="B" x1="38.874" y1="93.636" x2="32.284" y2="74.015" gradientUnits="userSpaceOnUse"><stop stop-color="#42210B" stop-opacity="0"/><stop offset="1" stop-color="#42210B"/></linearGradient><linearGradient id="C" x1="20.777" y1="72.901" x2="31.857" y2="87.164" gradientUnits="userSpaceOnUse"><stop stop-color="#FFDECF"/><stop offset=".379" stop-color="#FDC4B0"/><stop offset=".765" stop-color="#FBAE97"/><stop offset="1" stop-color="#FAA68E"/></linearGradient><linearGradient id="D" x1="75.154" y1="56.419" x2="75.154" y2="83.706" gradientUnits="userSpaceOnUse"><stop stop-color="#BADA00"/><stop offset=".227" stop-color="#B0CE00"/><stop offset=".638" stop-color="#95AE00"/><stop offset="1" stop-color="#798C00"/></linearGradient><linearGradient id="E" x1="76.833" y1="74.671" x2="77.133" y2="49.209" gradientUnits="userSpaceOnUse"><stop stop-color="#798C00" stop-opacity="0"/><stop offset=".654" stop-color="#556100" stop-opacity=".654"/><stop offset="1" stop-color="#464F00"/></linearGradient><linearGradient id="F" x1="75.154" y1="52.6" x2="75.154" y2="66.097" gradientUnits="userSpaceOnUse"><stop stop-color="#FF6359"/><stop offset=".224" stop-color="#FE5B50"/><stop offset=".595" stop-color="#FC4637"/><stop offset="1" stop-color="#F82814"/></linearGradient><linearGradient id="G" x1="75.255" y1="66.794" x2="75.48" y2="44.327" gradientUnits="userSpaceOnUse"><stop stop-color="#F82814" stop-opacity="0"/><stop offset="1" stop-color="#C0272D"/></linearGradient><linearGradient id="H" x1="67.326" y1="8.695" x2="81.345" y2="61.605" gradientUnits="userSpaceOnUse"><stop stop-color="#FAA68E"/><stop offset=".206" stop-color="#FBA682"/><stop offset=".581" stop-color="#FDA861"/><stop offset="1" stop-color="#FFA936"/></linearGradient><linearGradient id="I" x1="127.957" y1="35.578" x2="121.623" y2="25.693" gradientUnits="userSpaceOnUse"><stop stop-color="#F82814" stop-opacity="0"/><stop offset=".245" stop-color="#F12817" stop-opacity=".245"/><stop offset=".605" stop-color="#DD2820" stop-opacity=".605"/><stop offset="1" stop-color="#C0272D"/></linearGradient><linearGradient id="J" x1="122.924" y1="41.324" x2="117.923" y2="33.52" gradientUnits="userSpaceOnUse"><stop stop-color="#F82814" stop-opacity="0"/><stop offset=".245" stop-color="#F12817" stop-opacity=".245"/><stop offset=".605" stop-color="#DD2820" stop-opacity=".605"/><stop offset="1" stop-color="#C0272D"/></linearGradient><linearGradient id="K" x1="130.821" y1="41.969" x2="127.806" y2="37.264" gradientUnits="userSpaceOnUse"><stop stop-color="#F82814" stop-opacity="0"/><stop offset=".245" stop-color="#F12817" stop-opacity=".245"/><stop offset=".605" stop-color="#DD2820" stop-opacity=".605"/><stop offset="1" stop-color="#C0272D"/></linearGradient><linearGradient id="L" x1="138.278" y1="36.924" x2="140.6" y2="28.567" gradientUnits="userSpaceOnUse"><stop stop-color="#F82814" stop-opacity="0"/><stop offset=".245" stop-color="#F12817" stop-opacity=".245"/><stop offset=".605" stop-color="#DD2820" stop-opacity=".605"/><stop offset="1" stop-color="#C0272D"/></linearGradient><linearGradient id="M" x1="132.635" y1="36.983" x2="134.468" y2="30.386" gradientUnits="userSpaceOnUse"><stop stop-color="#F82814" stop-opacity="0"/><stop offset=".245" stop-color="#F12817" stop-opacity=".245"/><stop offset=".605" stop-color="#DD2820" stop-opacity=".605"/><stop offset="1" stop-color="#C0272D"/></linearGradient><linearGradient id="N" x1="136.17" y1="41.649" x2="137.275" y2="37.672" gradientUnits="userSpaceOnUse"><stop stop-color="#F82814" stop-opacity="0"/><stop offset=".245" stop-color="#F12817" stop-opacity=".245"/><stop offset=".605" stop-color="#DD2820" stop-opacity=".605"/><stop offset="1" stop-color="#C0272D"/></linearGradient><linearGradient id="O" x1="75.154" y1="35.072" x2="75.154" y2="61.761" gradientUnits="userSpaceOnUse"><stop stop-color="#F82814" stop-opacity="0"/><stop offset=".25" stop-color="#F32816" stop-opacity=".25"/><stop offset=".542" stop-color="#E5281D" stop-opacity=".542"/><stop offset=".855" stop-color="#CE2727" stop-opacity=".855"/><stop offset="1" stop-color="#C0272D"/></linearGradient><linearGradient id="P" x1="41.272" y1="31.666" x2="42.77" y2="36.01" gradientUnits="userSpaceOnUse"><stop stop-color="#FFDECF"/><stop offset=".379" stop-color="#FDC4B0"/><stop offset=".765" stop-color="#FBAE97"/><stop offset="1" stop-color="#FAA68E"/></linearGradient><linearGradient id="Q" x1="63.596" y1="31.666" x2="65.094" y2="36.01" gradientUnits="userSpaceOnUse"><stop stop-color="#FFDECF"/><stop offset=".379" stop-color="#FDC4B0"/><stop offset=".765" stop-color="#FBAE97"/><stop offset="1" stop-color="#FAA68E"/></linearGradient><linearGradient id="R" x1="85.919" y1="31.666" x2="87.417" y2="36.01" gradientUnits="userSpaceOnUse"><stop stop-color="#FFDECF"/><stop offset=".379" stop-color="#FDC4B0"/><stop offset=".765" stop-color="#FBAE97"/><stop offset="1" stop-color="#FAA68E"/></linearGradient><linearGradient id="S" x1="108.243" y1="31.666" x2="109.741" y2="36.01" gradientUnits="userSpaceOnUse"><stop stop-color="#FFDECF"/><stop offset=".379" stop-color="#FDC4B0"/><stop offset=".765" stop-color="#FBAE97"/><stop offset="1" stop-color="#FAA68E"/></linearGradient><linearGradient id="T" x1="30.11" y1="21.331" x2="31.608" y2="25.675" gradientUnits="userSpaceOnUse"><stop stop-color="#FFDECF"/><stop offset=".379" stop-color="#FDC4B0"/><stop offset=".765" stop-color="#FBAE97"/><stop offset="1" stop-color="#FAA68E"/></linearGradient><linearGradient id="U" x1="52.434" y1="21.331" x2="53.932" y2="25.675" gradientUnits="userSpaceOnUse"><stop stop-color="#FFDECF"/><stop offset=".379" stop-color="#FDC4B0"/><stop offset=".765" stop-color="#FBAE97"/><stop offset="1" stop-color="#FAA68E"/></linearGradient><linearGradient id="V" x1="74.758" y1="21.331" x2="76.256" y2="25.675" gradientUnits="userSpaceOnUse"><stop stop-color="#FFDECF"/><stop offset=".379" stop-color="#FDC4B0"/><stop offset=".765" stop-color="#FBAE97"/><stop offset="1" stop-color="#FAA68E"/></linearGradient><linearGradient id="W" x1="97.081" y1="21.331" x2="98.579" y2="25.675" gradientUnits="userSpaceOnUse"><stop stop-color="#FFDECF"/><stop offset=".379" stop-color="#FDC4B0"/><stop offset=".765" stop-color="#FBAE97"/><stop offset="1" stop-color="#FAA68E"/></linearGradient><linearGradient id="X" x1="119.405" y1="21.331" x2="120.902" y2="25.675" gradientUnits="userSpaceOnUse"><stop stop-color="#FFDECF"/><stop offset=".379" stop-color="#FDC4B0"/><stop offset=".765" stop-color="#FBAE97"/><stop offset="1" stop-color="#FAA68E"/></linearGradient><linearGradient id="Y" x1="41.272" y1="10.997" x2="42.77" y2="15.34" gradientUnits="userSpaceOnUse"><stop stop-color="#FFDECF"/><stop offset=".379" stop-color="#FDC4B0"/><stop offset=".765" stop-color="#FBAE97"/><stop offset="1" stop-color="#FAA68E"/></linearGradient><linearGradient id="Z" x1="63.596" y1="10.997" x2="65.094" y2="15.34" gradientUnits="userSpaceOnUse"><stop stop-color="#FFDECF"/><stop offset=".379" stop-color="#FDC4B0"/><stop offset=".765" stop-color="#FBAE97"/><stop offset="1" stop-color="#FAA68E"/></linearGradient><linearGradient id="aa" x1="85.919" y1="10.997" x2="87.417" y2="15.34" gradientUnits="userSpaceOnUse"><stop stop-color="#FFDECF"/><stop offset=".379" stop-color="#FDC4B0"/><stop offset=".765" stop-color="#FBAE97"/><stop offset="1" stop-color="#FAA68E"/></linearGradient><linearGradient id="ab" x1="108.243" y1="10.997" x2="109.741" y2="15.34" gradientUnits="userSpaceOnUse"><stop stop-color="#FFDECF"/><stop offset=".379" stop-color="#FDC4B0"/><stop offset=".765" stop-color="#FBAE97"/><stop offset="1" stop-color="#FAA68E"/></linearGradient><linearGradient id="ac" x1="74.758" y1=".662" x2="76.256" y2="5.005" gradientUnits="userSpaceOnUse"><stop stop-color="#FFDECF"/><stop offset=".379" stop-color="#FDC4B0"/><stop offset=".765" stop-color="#FBAE97"/><stop offset="1" stop-color="#FAA68E"/></linearGradient><linearGradient id="ad" x1="96.944" y1="1.786" x2="97.563" y2="6.341" gradientUnits="userSpaceOnUse"><stop stop-color="#FFDECF"/><stop offset=".379" stop-color="#FDC4B0"/><stop offset=".765" stop-color="#FBAE97"/><stop offset="1" stop-color="#FAA68E"/></linearGradient><linearGradient id="ae" x1="53.596" y1="1.821" x2="52.978" y2="6.376" gradientUnits="userSpaceOnUse"><stop stop-color="#FFDECF"/><stop offset=".379" stop-color="#FDC4B0"/><stop offset=".765" stop-color="#FBAE97"/><stop offset="1" stop-color="#FAA68E"/></linearGradient></defs></svg>