<svg width="18" height="16" viewBox="0 0 18 16" fill="none" xmlns="http://www.w3.org/2000/svg">
<g clip-path="url(#clip0_12597_19646)">
<path d="M16.0254 7.38668V8.00001C16.0245 9.43763 15.5295 10.8365 14.6143 11.9879C13.699 13.1393 12.4125 13.9817 10.9466 14.3893C9.48075 14.7969 7.91405 14.7479 6.48017 14.2497C5.0463 13.7515 3.82208 12.8307 2.99009 11.6247C2.15811 10.4187 1.76293 8.99205 1.86351 7.55755C1.96409 6.12305 2.55503 4.75756 3.54819 3.66473C4.54136 2.57189 5.88354 1.81027 7.37456 1.49344C8.86558 1.17662 10.4255 1.32157 11.8218 1.90668" stroke="#3E5067" stroke-width="2" stroke-linecap="round" stroke-linejoin="round"/>
<path d="M16.0252 2.66669L8.93664 9.34002L6.81006 7.34002" stroke="#3E5067" stroke-width="2" stroke-linecap="round" stroke-linejoin="round"/>
</g>
<defs>
<clipPath id="clip0_12597_19646">
<rect width="17.0127" height="16" fill="white" transform="translate(0.43042)"/>
</clipPath>
</defs>
</svg>
