<svg width="151" height="138" fill="none" xmlns="http://www.w3.org/2000/svg"><path d="M69.815 40.78a4.358 4.358 0 0 1 0-6.162l32.501-32.501a4.358 4.358 0 1 1 6.163 6.163l-32.5 32.5a4.358 4.358 0 0 1-6.164 0Z" fill="url(#a)"/><path d="M104.086 9.313a4.221 4.221 0 0 0-1.029-.679c-2.951-1.369-17.244-7.516-23.21-1.057-3.716 4.022 1.835 10.815 7.482 16.044 5.156 4.774 12.323 5.613 15.95 1.878 4.109-4.23 7.367-10.343.807-16.186Z" fill="url(#b)"/><path d="M104.086 9.313a4.221 4.221 0 0 0-1.029-.679c-2.951-1.369-17.244-7.516-23.21-1.057-3.716 4.022 1.835 10.815 7.482 16.044 5.156 4.775 23.317-8.465 16.757-14.308Z" fill="url(#c)"/><path d="m91.178 16.7-5.42 5.42a66.948 66.948 0 0 0 1.571 1.5c4.364 4.042 10.167 5.263 14.047 3.278L91.178 16.7Z" fill="url(#d)"/><path d="M59.785 15.724c6.461 2.918 13.67 7.982 20.388 14.699C86.89 37.14 91.953 44.35 94.872 50.81c1.568 3.47 6.863 3.063 10.741-.815 2.589-2.59 3.768-6.007 2.9-8.445-2.561-7.197-8.141-15.685-15.961-23.506-7.82-7.82-16.31-13.4-23.506-15.961-2.439-.869-5.856.31-8.446 2.9-3.877 3.877-4.285 9.173-.815 10.74Z" fill="url(#e)"/><path d="M90.995 28.37c-.2-.217-.412-.43-.636-.636-4.547-4.956-16.02-7.219-21.4-6.733 3.75 2.599 7.555 5.762 11.214 9.421C86.89 37.14 91.953 44.35 94.872 50.81c1.568 3.47 6.864 3.062 10.741-.816 1.29-1.29 2.23-2.786 2.741-4.265L90.994 28.37Z" fill="url(#f)"/><path d="M66.481 21.682s-15.33 10.52-20.2 21.98c-4.87 11.459 23.808 21.04 30.151 18.034 6.343-3.007 15.841-20.101 15.841-29.494s-22.527-12.961-25.792-10.52Z" fill="url(#g)"/><path d="M66.481 21.682S52.41 31.34 46.947 42.228c7.576 3.854 17.149 5.776 20.497 4.189 5.122-2.428 12.3-14.04 14.874-23.367-6.48-2.239-14.048-2.705-15.837-1.368Z" fill="url(#h)"/><g opacity=".5"><g opacity=".5"><path opacity=".5" d="M67.07 27.292a1.623 1.623 0 1 0 0-3.245 1.623 1.623 0 0 0 0 3.245Z" fill="url(#i)"/><path opacity=".5" d="M64.923 31.65a1.281 1.281 0 1 0 0-2.562 1.281 1.281 0 0 0 0 2.563Z" fill="url(#j)"/><path opacity=".5" d="M70.61 31.119a.772.772 0 1 0 0-1.545.772.772 0 0 0 0 1.545Z" fill="url(#k)"/></g><g opacity=".5"><path opacity=".5" d="M75.726 26.412a1.2 1.2 0 1 0 0-2.398 1.2 1.2 0 0 0 0 2.398Z" fill="url(#l)"/><path opacity=".5" d="M72.08 27.293a.947.947 0 1 0 0-1.893.947.947 0 0 0 0 1.893Z" fill="url(#m)"/><path opacity=".5" d="M74.895 30.038a.57.57 0 1 0 0-1.142.57.57 0 0 0 0 1.142Z" fill="url(#n)"/></g></g><path d="M64.632 31.424c-4.143 0-8.066.766-11.57 2.132-2.754 3.087-5.27 6.55-6.781 10.105-4.87 11.46 23.808 21.041 30.151 18.035 4.05-1.92 9.385-9.582 12.714-17.316-4.192-7.635-13.587-12.956-24.514-12.956Z" fill="url(#o)"/><path d="M86.62 49.546C80.873 41.671 70.337 36.39 58.28 36.39c-2.839 0-5.592.294-8.22.844-1.523 2.062-2.843 4.227-3.778 6.427-4.87 11.46 23.808 21.041 30.151 18.035 3.135-1.486 7.038-6.413 10.187-12.15Z" fill="url(#p)"/><path d="m66.414 48.69-9.364 9.364c7.375 3.485 16.197 5.152 19.383 3.641.583-.276 1.192-.671 1.818-1.168L66.414 48.69Z" fill="url(#q)"/><path d="M31.433 44.076c6.46 2.919 13.67 7.983 20.387 14.7 6.717 6.717 11.781 13.927 14.7 20.387 1.567 3.47 6.863 3.062 10.74-.815 2.59-2.59 3.769-6.007 2.9-8.446C77.6 62.706 72.02 54.217 64.2 46.397c-7.82-7.82-16.31-13.4-23.505-15.962-2.44-.868-5.857.311-8.446 2.9-3.877 3.878-4.285 9.174-.815 10.741Z" fill="url(#r)"/><path d="M77.26 78.348c2.59-2.59 3.77-6.007 2.9-8.446l-.062-.172L65.049 54.68c-.42-.432-.871-.865-1.355-1.296a6.988 6.988 0 0 0-1.706-1.124c-3.47-1.61-16.416-7.21-27.17-6.491 5.536 3.015 11.438 7.44 17.003 13.006 6.717 6.717 11.78 13.927 14.699 20.387 1.567 3.47 6.863 3.062 10.74-.815Z" fill="url(#s)"/><path d="M63.694 53.385a6.988 6.988 0 0 0-1.706-1.124C57.1 49.992 33.423 39.81 23.54 50.509c-6.156 6.663 3.04 17.916 12.394 26.577 8.542 7.91 20.413 9.3 26.422 3.112 6.807-7.01 12.204-17.134 1.338-26.813Z" fill="url(#t)"/><path d="M63.694 53.385a6.988 6.988 0 0 0-1.706-1.124C57.1 49.992 33.423 39.81 23.54 50.509c-6.156 6.663 3.04 17.916 12.394 26.577 8.542 7.91 38.626-14.022 27.76-23.701Z" fill="url(#u)"/><g opacity=".5"><path opacity=".5" d="M53.422 70.893a.772.772 0 1 0 0-1.545.772.772 0 0 0 0 1.545Z" fill="url(#v)"/><g opacity=".5"><path opacity=".5" d="M58.538 66.186a1.2 1.2 0 1 0 0-2.398 1.2 1.2 0 0 0 0 2.398Z" fill="url(#w)"/><path opacity=".5" d="M54.892 67.067a.947.947 0 1 0 0-1.893.947.947 0 0 0 0 1.893Z" fill="url(#x)"/><path opacity=".5" d="M57.706 69.812a.57.57 0 1 0 0-1.141.57.57 0 0 0 0 1.141Z" fill="url(#y)"/></g></g><path d="M35.935 77.087c5.66 5.24 12.78 7.615 18.69 6.823l-13.97-13.97-5.97 5.972c.415.396.832.788 1.25 1.175Z" fill="url(#z)"/><path d="M5.422 65.154c7.12 3.578 15.192 9.504 22.854 17.166 7.66 7.661 13.588 15.734 17.165 22.854 1.922 3.824 7.561 3.76 11.439-.118 2.59-2.589 3.611-6.164 2.51-8.835-3.247-7.883-9.815-17.36-18.735-26.28-8.92-8.92-18.398-15.489-26.28-18.736-2.672-1.1-6.246-.08-8.836 2.51-3.877 3.878-3.942 9.517-.117 11.44Z" fill="url(#A)"/><path d="M28.276 82.32c7.662 7.661 13.588 15.734 17.166 22.854 1.921 3.824 7.56 3.76 11.438-.118 1.576-1.575 2.566-3.514 2.856-5.394L35.335 75.261a4.358 4.358 0 0 0-6.163 0l-4.038 4.037c1.053.975 2.101 1.98 3.142 3.022Z" fill="url(#B)"/><path d="M1.912 108.684a4.359 4.359 0 0 1 0-6.164l27.26-27.26a4.358 4.358 0 1 1 6.163 6.164l-27.26 27.26a4.358 4.358 0 0 1-6.163 0Z" fill="url(#C)"/><path d="M108.491 68.013a4.358 4.358 0 0 1 0-6.164l32.502-32.5a4.357 4.357 0 1 1 6.163 6.162l-32.501 32.502a4.36 4.36 0 0 1-6.164 0Z" fill="url(#D)"/><path d="M107.368 37.31c5.662 2.845 12.082 7.558 18.174 13.65 6.093 6.094 10.806 12.514 13.652 18.176 1.528 3.041 6.013 2.99 9.096-.094 2.059-2.06 2.872-4.902 1.997-7.026-2.583-6.269-7.806-13.806-14.9-20.9-7.094-7.093-14.631-12.317-20.899-14.9-2.125-.875-4.968-.062-7.027 1.997-3.083 3.084-3.135 7.569-.093 9.097Z" fill="url(#E)"/><path d="M109.809 38.629c5.028 2.888 10.501 7.099 15.734 12.332 6.093 6.093 10.806 12.513 13.651 18.175 1.528 3.041 6.013 2.99 9.097-.094 2.059-2.059 2.872-4.902 1.996-7.026a42.85 42.85 0 0 0-2.008-4.164l-10.111-10.11a25.715 25.715 0 0 0-1.489-1.435 6.977 6.977 0 0 0-1.705-1.123c-3.258-1.512-14.862-6.538-25.165-6.555Z" fill="url(#F)"/><path d="M136.678 46.307a6.973 6.973 0 0 0-1.705-1.123c-4.888-2.27-28.565-12.451-38.448-1.753-6.156 6.664 3.04 17.917 12.394 26.578 8.541 7.91 20.413 9.299 26.422 3.111 6.807-7.009 12.204-17.133 1.337-26.813Z" fill="url(#G)"/><path d="M136.678 46.307a6.973 6.973 0 0 0-1.705-1.123c-4.888-2.27-28.565-12.451-38.448-1.753-6.156 6.664 3.04 17.917 12.394 26.578 8.542 7.91 38.626-14.022 27.759-23.702Z" fill="url(#H)"/><g opacity=".5"><path opacity=".5" d="M126.407 63.815a.772.772 0 1 0 0-1.543.772.772 0 0 0 0 1.543Z" fill="url(#I)"/><g opacity=".5"><path opacity=".5" d="M131.523 59.109a1.2 1.2 0 1 0 0-2.399 1.2 1.2 0 0 0 0 2.399Z" fill="url(#J)"/><path opacity=".5" d="M127.876 59.99a.947.947 0 1 0 0-1.894.947.947 0 0 0 0 1.894Z" fill="url(#K)"/><path opacity=".5" d="M130.691 62.734a.571.571 0 1 0 0-1.142.571.571 0 0 0 0 1.142Z" fill="url(#L)"/></g></g><path d="m129.13 76.555-12.358-12.358-6.764 6.764c5.975 4.998 13.306 6.975 19.122 5.594Z" fill="url(#M)"/><path d="M81.813 59.604c6.46 2.918 13.67 7.982 20.388 14.699 6.717 6.717 11.781 13.927 14.699 20.387 1.567 3.47 6.863 3.063 10.741-.815 2.589-2.59 3.768-6.007 2.9-8.445-2.562-7.197-8.141-15.686-15.962-23.506-7.82-7.82-16.309-13.4-23.505-15.961-2.439-.869-5.856.31-8.445 2.9-3.878 3.877-4.286 9.173-.816 10.74Z" fill="url(#N)"/><path d="M114.117 72.008a6.56 6.56 0 0 0-.925-.852c-8.7-6.574-24.273-7.967-24.273-7.967a1.834 1.834 0 0 0-.48.011c4.56 2.866 9.27 6.612 13.761 11.103 6.717 6.717 11.781 13.927 14.699 20.387 1.568 3.47 6.864 3.063 10.741-.815 1.598-1.598 2.656-3.51 3.03-5.314l-16.553-16.553Z" fill="url(#O)"/><path d="M88.92 63.19s15.572 1.392 24.272 7.966c8.7 6.575-6.904 26.074-12.725 26.515-5.82.44-20.359-8.413-24.701-15.508-4.343-7.096 9.744-19.422 13.153-18.974Z" fill="url(#P)"/><path d="M88.919 63.19s14.296 1.279 23.145 7.169c-3.511 6.15-9.309 11.694-12.382 11.927-4.7.355-15.083-5.348-21.194-11.293 3.492-4.461 8.563-8.05 10.43-7.804Z" fill="url(#Q)"/><g opacity=".5"><g opacity=".5"><path opacity=".5" d="M86.161 68.623a1.623 1.623 0 1 0 0-3.246 1.623 1.623 0 0 0 0 3.246Z" fill="url(#R)"/><path opacity=".5" d="M84.015 72.982a1.281 1.281 0 1 0 0-2.563 1.281 1.281 0 0 0 0 2.563Z" fill="url(#S)"/><path opacity=".5" d="M89.702 72.45a.772.772 0 1 0 0-1.545.772.772 0 0 0 0 1.544Z" fill="url(#T)"/></g><g opacity=".5"><path opacity=".5" d="M94.818 67.743a1.2 1.2 0 1 0 0-2.399 1.2 1.2 0 0 0 0 2.4Z" fill="url(#U)"/><path opacity=".5" d="M91.171 68.624a.947.947 0 1 0 0-1.894.947.947 0 0 0 0 1.894Z" fill="url(#V)"/><path opacity=".5" d="M93.986 71.369a.57.57 0 1 0 0-1.142.57.57 0 0 0 0 1.142Z" fill="url(#W)"/></g></g><path d="M94.714 69.758c2.895-1.772 5.989-2.87 9.068-3.337 3.352 1.156 6.711 2.696 9.41 4.735 8.699 6.575-6.905 26.074-12.725 26.514-3.717.281-10.987-3.225-16.888-7.645-.6-7.56 3.503-15.596 11.135-20.267Z" fill="url(#X)"/><path d="M87.734 92.848c.374-8.405 5.292-16.9 13.716-22.054a30.446 30.446 0 0 1 6.131-2.877c2.018.907 3.941 1.977 5.611 3.24 8.7 6.574-6.904 26.073-12.725 26.514-2.876.217-7.881-1.835-12.733-4.823Z" fill="url(#Y)"/><path d="M95.474 87.109c-.314-.323-.65-.645-1.011-.967a5.183 5.183 0 0 0-1.268-.835c-2.36-1.096-10.61-4.67-18.117-4.865.13.599.353 1.176.687 1.721 4.343 7.096 18.88 15.948 24.702 15.508 1.016-.077 2.331-.737 3.763-1.805l-8.756-8.757Z" fill="url(#Z)"/><path d="M94.463 86.142a5.192 5.192 0 0 0-1.268-.836c-3.634-1.686-21.236-9.256-28.583-1.302-4.576 4.954 2.26 13.32 9.214 19.758 6.35 5.88 15.175 6.913 19.643 2.313 5.06-5.21 9.072-12.737.994-19.933Z" fill="url(#aa)"/><path d="M94.463 86.142a5.192 5.192 0 0 0-1.268-.836c-3.634-1.686-21.236-9.256-28.583-1.302-4.576 4.954 2.26 13.32 9.214 19.758 6.35 5.88 28.715-10.424 20.637-17.62Z" fill="url(#ab)"/><path d="M73.826 103.762c5.89 5.453 13.905 6.734 18.601 3.222L80.973 95.531l-7.707 7.707c.187.176.373.351.56.524Z" fill="url(#ac)"/><path d="M50.218 95.221c5.922 2.381 12.429 6.741 18.376 12.688 5.947 5.948 10.307 12.454 12.688 18.377 1.279 3.182 6.295 2.493 10.172-1.384 2.59-2.59 3.897-5.879 3.219-8.128-2.003-6.637-6.776-14.32-13.7-21.244-6.924-6.924-14.607-11.697-21.244-13.7-2.25-.678-5.538.63-8.128 3.219-3.877 3.877-4.565 8.893-1.383 10.172Z" fill="url(#ad)"/><path d="M74.011 102.492a4.358 4.358 0 0 0-6.163 0l-2.434 2.435a69.258 69.258 0 0 1 3.18 2.982c5.948 5.947 10.308 12.454 12.689 18.377 1.278 3.182 6.294 2.493 10.172-1.384a13.476 13.476 0 0 0 2.16-2.807l-19.603-19.603Z" fill="url(#ae)"/><path d="M40.589 135.915a4.357 4.357 0 0 1 0-6.163l27.259-27.26a4.358 4.358 0 1 1 6.163 6.163l-27.26 27.26a4.358 4.358 0 0 1-6.162 0Z" fill="url(#af)"/><defs><linearGradient id="a" x1="87.284" y1="19.648" x2="99.136" y2="31.5" gradientUnits="userSpaceOnUse"><stop stop-color="#A57C52"/><stop offset=".134" stop-color="#A26C4A"/><stop offset=".515" stop-color="#994336"/><stop offset=".817" stop-color="#942A2A"/><stop offset="1" stop-color="#922125"/></linearGradient><linearGradient id="b" x1="94.348" y1="11.257" x2="89.18" y2="24.231" gradientUnits="userSpaceOnUse"><stop stop-color="#FFDECF"/><stop offset=".379" stop-color="#FDC4B0"/><stop offset=".765" stop-color="#FBAE97"/><stop offset="1" stop-color="#FAA68E"/></linearGradient><linearGradient id="c" x1="92.036" y1="13.101" x2="91.026" y2="39.226" gradientUnits="userSpaceOnUse"><stop stop-color="#FFDECF"/><stop offset=".379" stop-color="#FDC4B0"/><stop offset=".765" stop-color="#FBAE97"/><stop offset="1" stop-color="#FAA68E"/></linearGradient><linearGradient id="d" x1="103.02" y1="33.962" x2="88.499" y2="19.441" gradientUnits="userSpaceOnUse"><stop stop-color="#F82814" stop-opacity="0"/><stop offset=".245" stop-color="#F12817" stop-opacity=".245"/><stop offset=".605" stop-color="#DD2820" stop-opacity=".605"/><stop offset="1" stop-color="#C0272D"/></linearGradient><linearGradient id="e" x1="91.723" y1="18.873" x2="78.456" y2="32.14" gradientUnits="userSpaceOnUse"><stop stop-color="#BADA00"/><stop offset=".227" stop-color="#B0CE00"/><stop offset=".638" stop-color="#95AE00"/><stop offset="1" stop-color="#798C00"/></linearGradient><linearGradient id="f" x1="104.232" y1="51.066" x2="75.314" y2="22.149" gradientUnits="userSpaceOnUse"><stop stop-color="#798C00" stop-opacity="0"/><stop offset=".654" stop-color="#556100" stop-opacity=".654"/><stop offset="1" stop-color="#464F00"/></linearGradient><linearGradient id="g" x1="65.537" y1="29.156" x2="76.588" y2="61.561" gradientUnits="userSpaceOnUse"><stop stop-color="#A57C52"/><stop offset=".134" stop-color="#A26C4A"/><stop offset=".515" stop-color="#994336"/><stop offset=".817" stop-color="#942A2A"/><stop offset="1" stop-color="#922125"/></linearGradient><linearGradient id="h" x1="64.061" y1="25.277" x2="66.389" y2="55.233" gradientUnits="userSpaceOnUse"><stop stop-color="#A57C52"/><stop offset=".134" stop-color="#A26C4A"/><stop offset=".515" stop-color="#994336"/><stop offset=".817" stop-color="#942A2A"/><stop offset="1" stop-color="#922125"/></linearGradient><linearGradient id="i" x1="68.982" y1="26.979" x2="63.667" y2="21.435" gradientUnits="userSpaceOnUse"><stop stop-color="#42210B" stop-opacity="0"/><stop offset="1" stop-color="#42210B"/></linearGradient><linearGradient id="j" x1="66.478" y1="31.303" x2="62.282" y2="26.926" gradientUnits="userSpaceOnUse"><stop stop-color="#42210B" stop-opacity="0"/><stop offset="1" stop-color="#42210B"/></linearGradient><linearGradient id="k" x1="71.628" y1="30.719" x2="69.098" y2="28.08" gradientUnits="userSpaceOnUse"><stop stop-color="#42210B" stop-opacity="0"/><stop offset="1" stop-color="#42210B"/></linearGradient><linearGradient id="l" x1="75.555" y1="27.562" x2="75.992" y2="21.9" gradientUnits="userSpaceOnUse"><stop stop-color="#42210B" stop-opacity="0"/><stop offset="1" stop-color="#42210B"/></linearGradient><linearGradient id="m" x1="71.936" y1="28.313" x2="72.281" y2="23.842" gradientUnits="userSpaceOnUse"><stop stop-color="#42210B" stop-opacity="0"/><stop offset="1" stop-color="#42210B"/></linearGradient><linearGradient id="n" x1="74.796" y1="30.864" x2="75.004" y2="28.169" gradientUnits="userSpaceOnUse"><stop stop-color="#42210B" stop-opacity="0"/><stop offset="1" stop-color="#42210B"/></linearGradient><linearGradient id="o" x1="78.418" y1="38.739" x2="103.769" y2="22.183" gradientUnits="userSpaceOnUse"><stop stop-color="#42210B" stop-opacity="0"/><stop offset="1" stop-color="#42210B"/></linearGradient><linearGradient id="p" x1="75.271" y1="41.653" x2="97.338" y2="27.242" gradientUnits="userSpaceOnUse"><stop stop-color="#42210B" stop-opacity="0"/><stop offset="1" stop-color="#42210B"/></linearGradient><linearGradient id="q" x1="79.863" y1="71.503" x2="63.346" y2="54.986" gradientUnits="userSpaceOnUse"><stop stop-color="#42210B" stop-opacity="0"/><stop offset="1" stop-color="#42210B"/></linearGradient><linearGradient id="r" x1="63.37" y1="47.226" x2="50.103" y2="60.492" gradientUnits="userSpaceOnUse"><stop stop-color="#FFD945"/><stop offset=".304" stop-color="#FFCD3E"/><stop offset=".856" stop-color="#FFAD2B"/><stop offset="1" stop-color="#FFA325"/></linearGradient><linearGradient id="s" x1="83.197" y1="84.518" x2="29.688" y2="31.008" gradientUnits="userSpaceOnUse"><stop stop-color="#F82814" stop-opacity="0"/><stop offset="1" stop-color="#C0272D"/></linearGradient><linearGradient id="t" x1="52.799" y1="48.585" x2="38.519" y2="74.454" gradientUnits="userSpaceOnUse"><stop stop-color="#A57C52"/><stop offset=".134" stop-color="#A26C4A"/><stop offset=".515" stop-color="#994336"/><stop offset=".817" stop-color="#942A2A"/><stop offset="1" stop-color="#922125"/></linearGradient><linearGradient id="u" x1="44.528" y1="50.984" x2="39.354" y2="92.996" gradientUnits="userSpaceOnUse"><stop stop-color="#A57C52"/><stop offset=".134" stop-color="#A26C4A"/><stop offset=".515" stop-color="#994336"/><stop offset=".817" stop-color="#942A2A"/><stop offset="1" stop-color="#922125"/></linearGradient><linearGradient id="v" x1="54.458" y1="70.487" x2="51.928" y2="67.849" gradientUnits="userSpaceOnUse"><stop stop-color="#42210B" stop-opacity="0"/><stop offset="1" stop-color="#42210B"/></linearGradient><linearGradient id="w" x1="58.354" y1="67.355" x2="58.791" y2="61.693" gradientUnits="userSpaceOnUse"><stop stop-color="#42210B" stop-opacity="0"/><stop offset="1" stop-color="#42210B"/></linearGradient><linearGradient id="x" x1="54.736" y1="68.105" x2="55.081" y2="63.635" gradientUnits="userSpaceOnUse"><stop stop-color="#42210B" stop-opacity="0"/><stop offset="1" stop-color="#42210B"/></linearGradient><linearGradient id="y" x1="57.596" y1="70.657" x2="57.804" y2="67.962" gradientUnits="userSpaceOnUse"><stop stop-color="#42210B" stop-opacity="0"/><stop offset="1" stop-color="#42210B"/></linearGradient><linearGradient id="z" x1="61.107" y1="96.364" x2="39.186" y2="74.443" gradientUnits="userSpaceOnUse"><stop stop-color="#42210B" stop-opacity="0"/><stop offset="1" stop-color="#42210B"/></linearGradient><linearGradient id="B" x1="52.797" y1="102.811" x2="27.806" y2="77.819" gradientUnits="userSpaceOnUse"><stop stop-color="#F82814" stop-opacity="0"/><stop offset="1" stop-color="#C0272D"/></linearGradient><linearGradient id="C" x1="16.771" y1="90.16" x2="28.623" y2="102.013" gradientUnits="userSpaceOnUse"><stop stop-color="#A57C52"/><stop offset=".134" stop-color="#A26C4A"/><stop offset=".515" stop-color="#994336"/><stop offset=".817" stop-color="#942A2A"/><stop offset="1" stop-color="#922125"/></linearGradient><linearGradient id="D" x1="125.954" y1="46.875" x2="137.807" y2="58.728" gradientUnits="userSpaceOnUse"><stop stop-color="#A57C52"/><stop offset=".134" stop-color="#A26C4A"/><stop offset=".515" stop-color="#994336"/><stop offset=".817" stop-color="#942A2A"/><stop offset="1" stop-color="#922125"/></linearGradient><linearGradient id="F" x1="150.674" y1="61.285" x2="141.051" y2="58.492" gradientUnits="userSpaceOnUse"><stop stop-color="#F82814" stop-opacity="0"/><stop offset="1" stop-color="#C0272D"/></linearGradient><linearGradient id="G" x1="125.783" y1="41.507" x2="111.504" y2="67.376" gradientUnits="userSpaceOnUse"><stop stop-color="#A57C52"/><stop offset=".134" stop-color="#A26C4A"/><stop offset=".515" stop-color="#994336"/><stop offset=".817" stop-color="#942A2A"/><stop offset="1" stop-color="#922125"/></linearGradient><linearGradient id="H" x1="117.513" y1="43.907" x2="112.339" y2="85.918" gradientUnits="userSpaceOnUse"><stop stop-color="#A57C52"/><stop offset=".134" stop-color="#A26C4A"/><stop offset=".515" stop-color="#994336"/><stop offset=".817" stop-color="#942A2A"/><stop offset="1" stop-color="#922125"/></linearGradient><linearGradient id="I" x1="127.419" y1="63.387" x2="124.89" y2="60.749" gradientUnits="userSpaceOnUse"><stop stop-color="#42210B" stop-opacity="0"/><stop offset="1" stop-color="#42210B"/></linearGradient><linearGradient id="J" x1="131.377" y1="60.28" x2="131.814" y2="54.617" gradientUnits="userSpaceOnUse"><stop stop-color="#42210B" stop-opacity="0"/><stop offset="1" stop-color="#42210B"/></linearGradient><linearGradient id="K" x1="127.758" y1="61.03" x2="128.103" y2="56.56" gradientUnits="userSpaceOnUse"><stop stop-color="#42210B" stop-opacity="0"/><stop offset="1" stop-color="#42210B"/></linearGradient><linearGradient id="L" x1="130.618" y1="63.582" x2="130.826" y2="60.887" gradientUnits="userSpaceOnUse"><stop stop-color="#42210B" stop-opacity="0"/><stop offset="1" stop-color="#42210B"/></linearGradient><linearGradient id="M" x1="132.907" y1="87.096" x2="113.771" y2="67.961" gradientUnits="userSpaceOnUse"><stop stop-color="#42210B" stop-opacity="0"/><stop offset="1" stop-color="#42210B"/></linearGradient><linearGradient id="N" x1="113.751" y1="62.753" x2="100.484" y2="76.02" gradientUnits="userSpaceOnUse"><stop stop-color="#BADA00"/><stop offset=".227" stop-color="#B0CE00"/><stop offset=".638" stop-color="#95AE00"/><stop offset="1" stop-color="#798C00"/></linearGradient><linearGradient id="O" x1="126.406" y1="94.424" x2="93.597" y2="61.615" gradientUnits="userSpaceOnUse"><stop stop-color="#798C00" stop-opacity="0"/><stop offset=".654" stop-color="#556100" stop-opacity=".654"/><stop offset="1" stop-color="#464F00"/></linearGradient><linearGradient id="P" x1="93.261" y1="68.335" x2="99.86" y2="97.774" gradientUnits="userSpaceOnUse"><stop stop-color="#A57C52"/><stop offset=".134" stop-color="#A26C4A"/><stop offset=".515" stop-color="#994336"/><stop offset=".817" stop-color="#942A2A"/><stop offset="1" stop-color="#922125"/></linearGradient><linearGradient id="Q" x1="92.322" y1="64.85" x2="104.424" y2="88.579" gradientUnits="userSpaceOnUse"><stop stop-color="#A57C52"/><stop offset=".134" stop-color="#A26C4A"/><stop offset=".515" stop-color="#994336"/><stop offset=".817" stop-color="#942A2A"/><stop offset="1" stop-color="#922125"/></linearGradient><linearGradient id="R" x1="88.082" y1="68.291" x2="82.767" y2="62.748" gradientUnits="userSpaceOnUse"><stop stop-color="#42210B" stop-opacity="0"/><stop offset="1" stop-color="#42210B"/></linearGradient><linearGradient id="S" x1="85.578" y1="72.615" x2="81.382" y2="68.239" gradientUnits="userSpaceOnUse"><stop stop-color="#42210B" stop-opacity="0"/><stop offset="1" stop-color="#42210B"/></linearGradient><linearGradient id="T" x1="90.728" y1="72.031" x2="88.198" y2="69.393" gradientUnits="userSpaceOnUse"><stop stop-color="#42210B" stop-opacity="0"/><stop offset="1" stop-color="#42210B"/></linearGradient><linearGradient id="U" x1="94.653" y1="68.916" x2="95.09" y2="63.253" gradientUnits="userSpaceOnUse"><stop stop-color="#42210B" stop-opacity="0"/><stop offset="1" stop-color="#42210B"/></linearGradient><linearGradient id="V" x1="91.034" y1="69.666" x2="91.379" y2="65.195" gradientUnits="userSpaceOnUse"><stop stop-color="#42210B" stop-opacity="0"/><stop offset="1" stop-color="#42210B"/></linearGradient><linearGradient id="W" x1="93.894" y1="72.217" x2="94.102" y2="69.522" gradientUnits="userSpaceOnUse"><stop stop-color="#42210B" stop-opacity="0"/><stop offset="1" stop-color="#42210B"/></linearGradient><linearGradient id="X" x1="88.668" y1="81.685" x2="63.652" y2="80.951" gradientUnits="userSpaceOnUse"><stop stop-color="#42210B" stop-opacity="0"/><stop offset="1" stop-color="#42210B"/></linearGradient><linearGradient id="Y" x1="92.32" y1="82.484" x2="70.711" y2="81.85" gradientUnits="userSpaceOnUse"><stop stop-color="#42210B" stop-opacity="0"/><stop offset="1" stop-color="#42210B"/></linearGradient><linearGradient id="Z" x1="105.789" y1="105.16" x2="88.948" y2="88.319" gradientUnits="userSpaceOnUse"><stop stop-color="#42210B" stop-opacity="0"/><stop offset="1" stop-color="#42210B"/></linearGradient><linearGradient id="aa" x1="82.448" y1="88.525" x2="76.084" y2="104.503" gradientUnits="userSpaceOnUse"><stop stop-color="#FFDECF"/><stop offset=".379" stop-color="#FDC4B0"/><stop offset=".765" stop-color="#FBAE97"/><stop offset="1" stop-color="#FAA68E"/></linearGradient><linearGradient id="ab" x1="79.6" y1="90.797" x2="78.358" y2="122.969" gradientUnits="userSpaceOnUse"><stop stop-color="#FFDECF"/><stop offset=".379" stop-color="#FDC4B0"/><stop offset=".765" stop-color="#FBAE97"/><stop offset="1" stop-color="#FAA68E"/></linearGradient><linearGradient id="ac" x1="88.573" y1="110.838" x2="77.12" y2="99.384" gradientUnits="userSpaceOnUse"><stop stop-color="#F82814" stop-opacity="0"/><stop offset=".245" stop-color="#F12817" stop-opacity=".245"/><stop offset=".605" stop-color="#DD2820" stop-opacity=".605"/><stop offset="1" stop-color="#C0272D"/></linearGradient><linearGradient id="ad" x1="80.213" y1="96.428" x2="66.946" y2="109.695" gradientUnits="userSpaceOnUse"><stop stop-color="#FFD945"/><stop offset=".304" stop-color="#FFCD3E"/><stop offset=".856" stop-color="#FFAD2B"/><stop offset="1" stop-color="#FFA325"/></linearGradient><linearGradient id="ae" x1="86.623" y1="123.549" x2="55.349" y2="92.275" gradientUnits="userSpaceOnUse"><stop stop-color="#F82814" stop-opacity="0"/><stop offset="1" stop-color="#C0272D"/></linearGradient><linearGradient id="af" x1="55.441" y1="117.387" x2="67.294" y2="129.24" gradientUnits="userSpaceOnUse"><stop stop-color="#A57C52"/><stop offset=".134" stop-color="#A26C4A"/><stop offset=".515" stop-color="#994336"/><stop offset=".817" stop-color="#942A2A"/><stop offset="1" stop-color="#922125"/></linearGradient><radialGradient id="A" cx="0" cy="0" r="1" gradientUnits="userSpaceOnUse" gradientTransform="matrix(-30.80398 -30.80398 14.63951 -14.63951 23.838 87.71)"><stop stop-color="#FF6359"/><stop offset=".484" stop-color="#FF6157"/><stop offset=".659" stop-color="#FE5C50"/><stop offset=".783" stop-color="#FD5145"/><stop offset=".884" stop-color="#FB4334"/><stop offset=".969" stop-color="#F9311E"/><stop offset="1" stop-color="#F82814"/></radialGradient><radialGradient id="E" cx="0" cy="0" r="1" gradientUnits="userSpaceOnUse" gradientTransform="rotate(-135 72.43 2.371) scale(34.6442 16.4646)"><stop stop-color="#FF6359"/><stop offset=".484" stop-color="#FF6157"/><stop offset=".659" stop-color="#FE5C50"/><stop offset=".783" stop-color="#FD5145"/><stop offset=".884" stop-color="#FB4334"/><stop offset=".969" stop-color="#F9311E"/><stop offset="1" stop-color="#F82814"/></radialGradient></defs></svg>