<svg width="25" height="21" viewBox="0 0 25 21" fill="none" xmlns="http://www.w3.org/2000/svg">
<path d="M21.396 2.93556C20.8581 2.42456 20.2194 2.0192 19.5165 1.74264C18.8135 1.46608 18.0601 1.32373 17.2992 1.32373C16.5383 1.32373 15.7849 1.46608 15.0819 1.74264C14.379 2.0192 13.7403 2.42456 13.2024 2.93556L12.086 3.99556L10.9697 2.93556C9.88313 1.90386 8.40947 1.32427 6.87287 1.32427C5.33626 1.32427 3.8626 1.90386 2.77606 2.93556C1.68951 3.96725 1.0791 5.36652 1.0791 6.82556C1.0791 8.28459 1.68951 9.68386 2.77606 10.7156L3.89241 11.7756L12.086 19.5556L20.2797 11.7756L21.396 10.7156C21.9342 10.2048 22.3611 9.59837 22.6523 8.93091C22.9436 8.26345 23.0935 7.54804 23.0935 6.82556C23.0935 6.10307 22.9436 5.38766 22.6523 4.7202C22.3611 4.05274 21.9342 3.44631 21.396 2.93556V2.93556Z" stroke="#3E5067" stroke-width="2" stroke-linecap="round" stroke-linejoin="round"/>
</svg>
