<svg width="239" height="101" fill="none" xmlns="http://www.w3.org/2000/svg"><path d="M50.125.1h1.013a49.492 49.492 0 0 1 49.493 49.492v1.013a49.493 49.493 0 0 1-49.493 49.492H.633V49.592A49.492 49.492 0 0 1 50.125.099Z" fill="#fff"/><path d="M67.15 32.596a6.975 6.975 0 0 0-7.613-1.543c-.855.356-1.63.88-2.276 1.543a6.993 6.993 0 1 0 9.888 0Zm-1.74 8.15a4.554 4.554 0 1 1 0-6.41 4.542 4.542 0 0 1 0 6.41Zm1.74-8.15a6.975 6.975 0 0 0-7.613-1.543c-.855.356-1.63.88-2.276 1.543a6.993 6.993 0 1 0 9.888 0Zm-1.74 8.15a4.554 4.554 0 1 1 0-6.41 4.542 4.542 0 0 1 0 6.41Zm1.74-8.15a6.975 6.975 0 0 0-7.613-1.543c-.855.356-1.63.88-2.276 1.543a6.993 6.993 0 1 0 9.888 0Zm-1.74 8.15a4.554 4.554 0 1 1 0-6.41 4.542 4.542 0 0 1 0 6.41Zm1.74-8.15a6.975 6.975 0 0 0-7.613-1.543c-.855.356-1.63.88-2.276 1.543a6.993 6.993 0 1 0 9.888 0Zm-1.74 8.15a4.554 4.554 0 1 1 0-6.41 4.542 4.542 0 0 1 0 6.41Zm1.74-8.15a6.975 6.975 0 0 0-7.613-1.543c-.855.356-1.63.88-2.276 1.543a6.993 6.993 0 1 0 9.888 0Zm-1.74 8.15a4.554 4.554 0 1 1 0-6.41 4.542 4.542 0 0 1 0 6.41Zm1.74-8.15a6.975 6.975 0 0 0-7.613-1.543c-.855.356-1.63.88-2.276 1.543a6.993 6.993 0 1 0 9.888 0Zm-1.74 8.15a4.554 4.554 0 1 1 0-6.41 4.542 4.542 0 0 1 0 6.41Zm1.74-8.15a6.975 6.975 0 0 0-7.613-1.543c-.855.356-1.63.88-2.276 1.543a6.993 6.993 0 1 0 9.888 0Zm-1.74 8.15a4.554 4.554 0 1 1 0-6.41 4.542 4.542 0 0 1 0 6.41Zm1.74-8.15a6.975 6.975 0 0 0-7.613-1.543c-.855.356-1.63.88-2.276 1.543a6.993 6.993 0 1 0 9.888 0Zm-1.74 8.15a4.554 4.554 0 1 1 0-6.41 4.542 4.542 0 0 1 0 6.41Zm1.74-8.15a6.975 6.975 0 0 0-7.613-1.543c-.855.356-1.63.88-2.276 1.543a6.993 6.993 0 1 0 9.888 0Zm-1.74 8.15a4.554 4.554 0 1 1 0-6.41 4.542 4.542 0 0 1 0 6.41Zm1.74-8.15a6.975 6.975 0 0 0-7.613-1.543c-.855.356-1.63.88-2.276 1.543a6.993 6.993 0 1 0 9.888 0Zm-1.74 8.15a4.554 4.554 0 1 1 0-6.41 4.542 4.542 0 0 1 0 6.41Zm1.74-8.15a6.975 6.975 0 0 0-7.613-1.543c-.855.356-1.63.88-2.276 1.543a6.993 6.993 0 1 0 9.888 0Zm-1.74 8.15a4.554 4.554 0 1 1 0-6.41 4.542 4.542 0 0 1 0 6.41Zm1.74-8.15a6.975 6.975 0 0 0-7.613-1.543c-.855.356-1.63.88-2.276 1.543a6.993 6.993 0 1 0 9.888 0Zm-1.74 8.15a4.554 4.554 0 1 1 0-6.41 4.542 4.542 0 0 1 0 6.41Zm1.74-8.15a6.975 6.975 0 0 0-7.613-1.543c-.855.356-1.63.88-2.276 1.543a6.993 6.993 0 1 0 9.888 0Zm-1.74 8.15a4.554 4.554 0 1 1 0-6.41 4.542 4.542 0 0 1 0 6.41Zm1.74-8.15a6.975 6.975 0 0 0-7.613-1.543c-.855.356-1.63.88-2.276 1.543a6.993 6.993 0 1 0 9.888 0Zm-1.74 8.15a4.554 4.554 0 1 1 0-6.41 4.542 4.542 0 0 1 0 6.41Zm1.74-8.15a6.975 6.975 0 0 0-7.613-1.543c-.855.356-1.63.88-2.276 1.543a6.993 6.993 0 1 0 9.888 0Zm-1.74 8.15a4.554 4.554 0 1 1 0-6.41 4.542 4.542 0 0 1 0 6.41Z" fill="#231F20"/><path d="M79.114 20.914a2.648 2.648 0 0 0-2.267-.753l-3.066.551a63.71 63.71 0 0 0-42.16 29.01c-.042.067-.08.136-.113.207-.069.12-.127.247-.173.378-.198.596-.165 1.373.089 2.289.462 1.718 1.669 3.909 3.446 6.189a9.303 9.303 0 0 1-1.11-2.394 2.482 2.482 0 0 1-.054-1.41c.028-.082.063-.16.104-.236a.147.147 0 0 1 .034-.042.727.727 0 0 1 .117-.145c.385-.382 1.052-.429 1.894-.189 1.584.445 3.79 1.891 5.873 3.978 2.082 2.087 3.518 4.27 3.966 5.855.25.851.203 1.525-.175 1.91l-.029.024a.96.96 0 0 1-.116.093 1.23 1.23 0 0 1-.488.189 2.89 2.89 0 0 1-1.276-.122 9.732 9.732 0 0 1-2.338-1.112c2.24 1.75 4.39 2.95 6.1 3.434.665.217 1.37.285 2.065.198.28-.071.546-.187.788-.343l.19-.113A62.453 62.453 0 0 0 79.168 26.9l.683-3.668v-.046a2.666 2.666 0 0 0-.738-2.272Zm-2.351 5.527c-3.056 15.895-13.48 30.606-27.015 39.483-.73-2.562-3.38-6.4-6.738-9.757-3.357-3.358-6.222-5.111-8.79-5.831 9.052-13.622 23.925-24.135 40.032-27.202l2.957-.54a.222.222 0 0 1 .165.065.221.221 0 0 1 .058.16l-.67 3.622ZM68.974 57.911a1.727 1.727 0 0 0-1.32-1.457 1.706 1.706 0 0 0-1.76.68 63.414 63.414 0 0 1-9.029 8.753l-.029.026a1.543 1.543 0 0 0-.846 1.938l3.197 7.962a2.308 2.308 0 0 0 1.858 1.6 2.372 2.372 0 0 0 2.355-1.035l1.836-2.654a22.275 22.275 0 0 0 3.738-15.813Zm-5.765 14.413-1.75 2.534-2.89-7.185a66.628 66.628 0 0 0 8.134-7.713 19.86 19.86 0 0 1-3.494 12.364ZM43.579 32.583a1.725 1.725 0 0 0-1.462-1.313 22.289 22.289 0 0 0-15.815 3.737l-2.567 1.778a2.223 2.223 0 0 0-1.26 2.127 2.263 2.263 0 0 0 1.604 2l7.896 3.17.069.025c.15.049.308.074.466.074a2.247 2.247 0 0 0 1.218-.423l.1-.066.222-.223.11-.122c2.373-3.11 5.228-6.066 8.732-9.006a1.72 1.72 0 0 0 .687-1.758Zm-11.182 9.022-7.149-2.873 2.445-1.698a19.845 19.845 0 0 1 12.357-3.498 56.83 56.83 0 0 0-7.653 8.07Z" fill="#231F20"/><path fill-rule="evenodd" clip-rule="evenodd" d="M16.648 89.07a6.601 6.601 0 0 0-.256 1.698 14.413 14.413 0 0 0 .334 3.132c.07.36.273.804.275 1.17 0 0-.049-4.38 7.373-7.53 11.851-5.036 15.789-12.889 14.687-18.602-.43.91-1.205 1.67-1.911 2.617a12.299 12.299 0 0 1-2.383 2.423 12.147 12.147 0 0 1-2.509 1.484c-.733.325-1.497.573-2.282.74-.75.158-1.602.322-2.355.098a.163.163 0 0 1-.113-.076.156.156 0 0 1 0-.095 2.885 2.885 0 0 1 .638-1.34c.108-.125.246-.222.353-.347-.091.025-.187.018-.278.036a9.743 9.743 0 0 0-1.562.464 9.282 9.282 0 0 0-2.651 1.556 32.649 32.649 0 0 0-3.598 3.595s1.918-10.482 6.758-14.962a18 18 0 0 1 4.804-3.297c-8.12-1.28-16.889 11.544-20.542 21.41C6.69 96.05.635 100.1.635 100.1c1.295-.609 2.466-1.537 3.602-2.397a117.38 117.38 0 0 0 4.63-3.722 193.44 193.44 0 0 0 3.919-3.385c.386-.344.773-.691 1.149-1.046a5.998 5.998 0 0 1 2.326-1.43c.276-.089.559-.159.845-.208-.083.015-.245.542-.278.626a5.05 5.05 0 0 0-.18.534Z" fill="#231F20"/><path d="M140.478 19.201v4.222h-7.366v22.444h-5.334V23.423h-7.333v-4.222h20.033ZM162.918 36.427h-15.333c.076 1.864.579 3.237 1.511 4.118a4.86 4.86 0 0 0 3.476 1.322c1.232 0 2.258-.302 3.077-.906a4.016 4.016 0 0 0 1.569-2.456h5.629a9.01 9.01 0 0 1-1.778 3.929 9.258 9.258 0 0 1-3.495 2.72 11.972 11.972 0 0 1-10.18-.32 9.148 9.148 0 0 1-3.702-3.722c-.889-1.61-1.334-3.512-1.334-5.705 0-2.192.445-4.1 1.334-5.722a9.01 9.01 0 0 1 3.7-3.717 11.277 11.277 0 0 1 5.44-1.285c2.063 0 3.87.428 5.419 1.285a9.053 9.053 0 0 1 3.589 3.533 10.329 10.329 0 0 1 1.078 6.93v-.004ZM156.4 30.19a5.11 5.11 0 0 0-3.568-1.322 5.238 5.238 0 0 0-3.627 1.322c-.982.889-1.524 2.186-1.624 3.89h10.162c.075-1.704-.372-3.001-1.343-3.89ZM179.613 25.925a6.794 6.794 0 0 1 2.682 3.363v-4.345h5.289v20.929h-5.289v-4.383a6.892 6.892 0 0 1-2.682 3.383c-1.258.841-2.769 1.263-4.533 1.264a8.977 8.977 0 0 1-4.76-1.284 8.663 8.663 0 0 1-3.305-3.72c-.794-1.63-1.191-3.538-1.191-5.725 0-2.186.397-4.093 1.191-5.722a8.696 8.696 0 0 1 3.305-3.717 8.998 8.998 0 0 1 4.76-1.285c1.764-.003 3.275.411 4.533 1.242Zm-6.876 5.025c-1.007 1.084-1.511 2.57-1.511 4.457 0 1.888.504 3.37 1.511 4.445 1.009 1.068 2.343 1.603 4 1.604a5.271 5.271 0 0 0 3.987-1.642c1.037-1.095 1.559-2.562 1.567-4.402 0-1.862-.523-3.344-1.567-4.444a5.274 5.274 0 0 0-3.987-1.645c-1.659.002-2.992.544-4 1.627ZM225.079 27.003c1.472 1.573 2.208 3.808 2.208 6.705v12.164h-5.288V34.316c0-1.61-.409-2.85-1.227-3.72-.818-.87-1.945-1.304-3.382-1.304-1.482 0-2.667.466-3.556 1.398-.889.932-1.329 2.291-1.322 4.08v11.11h-5.289V34.325c0-1.61-.409-2.85-1.226-3.72-.818-.87-1.945-1.304-3.382-1.304-1.482 0-2.667.466-3.556 1.398-.889.931-1.333 2.291-1.333 4.08v11.11h-5.333V24.943h5.333v3.967a6.471 6.471 0 0 1 2.626-3.154 7.75 7.75 0 0 1 4.174-1.11 7.945 7.945 0 0 1 4.402 1.208 7.39 7.39 0 0 1 2.831 3.471 7.914 7.914 0 0 1 7.293-4.69c2.545 0 4.554.789 6.027 2.368ZM139.647 80.118a7.35 7.35 0 0 1-3.022 2.757c-1.333.694-2.958 1.04-4.873 1.038a12.636 12.636 0 0 1-5.062-.962 8.552 8.552 0 0 1-3.571-2.778 8.002 8.002 0 0 1-1.529-4.222h5.666a4.324 4.324 0 0 0 1.303 2.702c.74.719 1.729 1.077 2.966 1.076 1.107 0 1.957-.297 2.549-.89a3.1 3.1 0 0 0 .889-2.287 2.995 2.995 0 0 0-.718-2.057 5.278 5.278 0 0 0-1.813-1.304c-.73-.326-1.738-.704-3.022-1.133a29.96 29.96 0 0 1-4.08-1.643 7.534 7.534 0 0 1-2.702-2.362c-.741-1.037-1.111-2.384-1.111-4.042 0-2.292.824-4.098 2.473-5.42 1.649-1.321 3.834-1.983 6.555-1.984 2.815 0 5.062.68 6.742 2.04 1.68 1.36 2.631 3.173 2.854 5.44h-5.742a4.004 4.004 0 0 0-1.209-2.36c-.657-.618-1.551-.927-2.682-.927-.983 0-1.776.259-2.38.776-.605.517-.907 1.266-.907 2.246-.025.715.225 1.411.698 1.947.499.54 1.104.97 1.777 1.264.956.419 1.934.785 2.929 1.096a39.011 39.011 0 0 1 4.173 1.7 7.35 7.35 0 0 1 2.74 2.38c.756 1.058 1.134 2.443 1.134 4.155a7.24 7.24 0 0 1-1.025 3.754ZM161.858 63.745a8.681 8.681 0 0 1 3.306 3.722c.795 1.63 1.191 3.537 1.189 5.722-.001 2.185-.397 4.093-1.189 5.724a8.661 8.661 0 0 1-3.306 3.72 8.97 8.97 0 0 1-4.76 1.285c-1.761 0-3.266-.422-4.513-1.265a6.927 6.927 0 0 1-2.667-3.382v14.355h-5.333V62.72h5.333v4.345a6.834 6.834 0 0 1 2.667-3.363c1.246-.83 2.75-1.246 4.513-1.246a8.99 8.99 0 0 1 4.76 1.289Zm-10.407 5.006c-1.037 1.096-1.559 2.578-1.568 4.444 0 1.84.523 3.308 1.568 4.403a5.267 5.267 0 0 0 3.985 1.642c1.662 0 2.995-.535 4-1.605 1.004-1.07 1.508-2.55 1.511-4.444 0-1.889-.504-3.375-1.511-4.458-1.008-1.083-2.341-1.624-4-1.624a5.265 5.265 0 0 0-3.985 1.638v.004ZM182.871 63.702a6.793 6.793 0 0 1 2.682 3.362V62.72h5.288V83.65h-5.304v-4.383a6.886 6.886 0 0 1-2.682 3.383c-1.258.841-2.769 1.263-4.533 1.264a8.98 8.98 0 0 1-4.76-1.284 8.669 8.669 0 0 1-3.305-3.72c-.794-1.63-1.191-3.538-1.191-5.725 0-2.186.397-4.094 1.191-5.722a8.7 8.7 0 0 1 3.305-3.722 9 9 0 0 1 4.76-1.284c1.767 0 3.283.415 4.549 1.246Zm-6.889 5.025c-1.008 1.084-1.511 2.57-1.511 4.457 0 1.888.503 3.37 1.511 4.445 1.007 1.068 2.34 1.603 4 1.604a5.274 5.274 0 0 0 3.986-1.642c1.045-1.095 1.563-2.562 1.556-4.402 0-1.862-.519-3.344-1.556-4.444a5.27 5.27 0 0 0-3.986-1.645c-1.657.002-2.99.544-4 1.627ZM211.819 64.647c1.8 1.462 2.927 3.452 3.38 5.969h-5.629a4.341 4.341 0 0 0-1.555-2.625c-.808-.641-1.828-.963-3.06-.964a4.556 4.556 0 0 0-3.531 1.569c-.944 1.044-1.416 2.574-1.418 4.588-.001 2.015.471 3.546 1.418 4.591a4.562 4.562 0 0 0 3.531 1.556c1.234 0 2.254-.32 3.06-.962a4.34 4.34 0 0 0 1.555-2.627h5.629c-.453 2.519-1.58 4.508-3.38 5.969-1.8 1.46-4.048 2.191-6.744 2.191a11.14 11.14 0 0 1-5.44-1.302 9.155 9.155 0 0 1-3.702-3.722c-.889-1.61-1.333-3.512-1.333-5.705 0-2.192.444-4.1 1.333-5.722a9.023 9.023 0 0 1 3.702-3.722 11.282 11.282 0 0 1 5.44-1.284c2.695.007 4.943.741 6.744 2.202ZM238.47 74.204h-15.333c.076 1.866.579 3.238 1.511 4.118a4.86 4.86 0 0 0 3.476 1.333c1.234 0 2.26-.302 3.08-.906a4.017 4.017 0 0 0 1.555-2.445h5.629a9.01 9.01 0 0 1-1.778 3.93 9.252 9.252 0 0 1-3.493 2.72 11.983 11.983 0 0 1-10.182-.32 9.155 9.155 0 0 1-3.702-3.723c-.889-1.61-1.334-3.512-1.334-5.704 0-2.193.445-4.1 1.334-5.722a9.023 9.023 0 0 1 3.702-3.723 11.28 11.28 0 0 1 5.44-1.284c2.063 0 3.871.428 5.422 1.284a9.066 9.066 0 0 1 3.589 3.534 10.272 10.272 0 0 1 1.264 5.11 10.045 10.045 0 0 1-.18 1.798Zm-6.515-6.222a5.126 5.126 0 0 0-3.571-1.333 5.24 5.24 0 0 0-3.627 1.333c-.982.89-1.524 2.186-1.624 3.891h10.162c.075-1.715-.371-3.017-1.34-3.906v.015Z" fill="#fff"/></svg>