<svg width="239" height="101" viewBox="0 0 239 101" fill="none" xmlns="http://www.w3.org/2000/svg">
<path d="M50.125 0.0993652H51.1384C57.6378 0.0993652 64.0735 1.37952 70.0782 3.86674C76.0829 6.35395 81.5389 9.99952 86.1346 14.5953C90.7304 19.1911 94.376 24.6471 96.8632 30.6517C99.3504 36.6564 100.631 43.0922 100.631 49.5916V50.6049C100.631 63.7311 95.4162 76.3196 86.1346 85.6012C76.8531 94.8828 64.2645 100.097 51.1384 100.097H0.632812V49.5916C0.632813 36.4655 5.84716 23.8769 15.1288 14.5953C24.4103 5.31371 36.9989 0.0993652 50.125 0.0993652Z" fill="white"/>
<path d="M67.1494 32.5965C65.8502 31.2836 64.0833 30.5395 62.2362 30.5276C61.3102 30.519 60.3921 30.6979 59.537 31.0534C58.6819 31.409 57.9077 31.9339 57.2608 32.5965C56.2826 33.5744 55.6164 34.8205 55.3464 36.1771C55.0764 37.5337 55.2148 38.9399 55.7441 40.2178C56.2733 41.4957 57.1697 42.588 58.3197 43.3565C59.4698 44.125 60.8219 44.5352 62.2051 44.5352C63.5883 44.5352 64.9404 44.125 66.0905 43.3565C67.2405 42.588 68.1369 41.4957 68.6661 40.2178C69.1954 38.9399 69.3338 37.5337 69.0638 36.1771C68.7938 34.8205 68.1276 33.5744 67.1494 32.5965ZM65.4095 40.7452C64.7744 41.3863 63.9632 41.8242 63.0788 42.0034C62.1944 42.1826 61.2767 42.0949 60.4422 41.7516C59.6077 41.4082 58.894 40.8246 58.3918 40.0749C57.8896 39.3252 57.6214 38.4432 57.6214 37.5408C57.6214 36.6384 57.8896 35.7564 58.3918 35.0067C58.894 34.257 59.6077 33.6734 60.4422 33.3301C61.2767 32.9867 62.1944 32.8991 63.0788 33.0783C63.9632 33.2574 64.7744 33.6954 65.4095 34.3364C66.2568 35.1877 66.7325 36.3398 66.7325 37.5408C66.7325 38.7418 66.2568 39.894 65.4095 40.7452ZM67.1494 32.5965C65.8502 31.2836 64.0833 30.5395 62.2362 30.5276C61.3102 30.519 60.3921 30.6979 59.537 31.0534C58.6819 31.409 57.9077 31.9339 57.2608 32.5965C56.2826 33.5744 55.6164 34.8205 55.3464 36.1771C55.0764 37.5337 55.2148 38.9399 55.7441 40.2178C56.2733 41.4957 57.1697 42.588 58.3197 43.3565C59.4698 44.125 60.8219 44.5352 62.2051 44.5352C63.5883 44.5352 64.9404 44.125 66.0905 43.3565C67.2405 42.588 68.1369 41.4957 68.6661 40.2178C69.1954 38.9399 69.3338 37.5337 69.0638 36.1771C68.7938 34.8205 68.1276 33.5744 67.1494 32.5965ZM65.4095 40.7452C64.7744 41.3863 63.9632 41.8242 63.0788 42.0034C62.1944 42.1826 61.2767 42.0949 60.4422 41.7516C59.6077 41.4082 58.894 40.8246 58.3918 40.0749C57.8896 39.3252 57.6214 38.4432 57.6214 37.5408C57.6214 36.6384 57.8896 35.7564 58.3918 35.0067C58.894 34.257 59.6077 33.6734 60.4422 33.3301C61.2767 32.9867 62.1944 32.8991 63.0788 33.0783C63.9632 33.2574 64.7744 33.6954 65.4095 34.3364C66.2568 35.1877 66.7325 36.3398 66.7325 37.5408C66.7325 38.7418 66.2568 39.894 65.4095 40.7452ZM67.1494 32.5965C65.8502 31.2836 64.0833 30.5395 62.2362 30.5276C61.3102 30.519 60.3921 30.6979 59.537 31.0534C58.6819 31.409 57.9077 31.9339 57.2608 32.5965C56.2826 33.5744 55.6164 34.8205 55.3464 36.1771C55.0764 37.5337 55.2148 38.9399 55.7441 40.2178C56.2733 41.4957 57.1697 42.588 58.3197 43.3565C59.4698 44.125 60.8219 44.5352 62.2051 44.5352C63.5883 44.5352 64.9404 44.125 66.0905 43.3565C67.2405 42.588 68.1369 41.4957 68.6661 40.2178C69.1954 38.9399 69.3338 37.5337 69.0638 36.1771C68.7938 34.8205 68.1276 33.5744 67.1494 32.5965ZM65.4095 40.7452C64.7744 41.3863 63.9632 41.8242 63.0788 42.0034C62.1944 42.1826 61.2767 42.0949 60.4422 41.7516C59.6077 41.4082 58.894 40.8246 58.3918 40.0749C57.8896 39.3252 57.6214 38.4432 57.6214 37.5408C57.6214 36.6384 57.8896 35.7564 58.3918 35.0067C58.894 34.257 59.6077 33.6734 60.4422 33.3301C61.2767 32.9867 62.1944 32.8991 63.0788 33.0783C63.9632 33.2574 64.7744 33.6954 65.4095 34.3364C66.2568 35.1877 66.7325 36.3398 66.7325 37.5408C66.7325 38.7418 66.2568 39.894 65.4095 40.7452ZM67.1494 32.5965C65.8502 31.2836 64.0833 30.5395 62.2362 30.5276C61.3102 30.519 60.3921 30.6979 59.537 31.0534C58.6819 31.409 57.9077 31.9339 57.2608 32.5965C56.2826 33.5744 55.6164 34.8205 55.3464 36.1771C55.0764 37.5337 55.2148 38.9399 55.7441 40.2178C56.2733 41.4957 57.1697 42.588 58.3197 43.3565C59.4698 44.125 60.8219 44.5352 62.2051 44.5352C63.5883 44.5352 64.9404 44.125 66.0905 43.3565C67.2405 42.588 68.1369 41.4957 68.6661 40.2178C69.1954 38.9399 69.3338 37.5337 69.0638 36.1771C68.7938 34.8205 68.1276 33.5744 67.1494 32.5965ZM65.4095 40.7452C64.7744 41.3863 63.9632 41.8242 63.0788 42.0034C62.1944 42.1826 61.2767 42.0949 60.4422 41.7516C59.6077 41.4082 58.894 40.8246 58.3918 40.0749C57.8896 39.3252 57.6214 38.4432 57.6214 37.5408C57.6214 36.6384 57.8896 35.7564 58.3918 35.0067C58.894 34.257 59.6077 33.6734 60.4422 33.3301C61.2767 32.9867 62.1944 32.8991 63.0788 33.0783C63.9632 33.2574 64.7744 33.6954 65.4095 34.3364C66.2568 35.1877 66.7325 36.3398 66.7325 37.5408C66.7325 38.7418 66.2568 39.894 65.4095 40.7452ZM67.1494 32.5965C65.8502 31.2836 64.0833 30.5395 62.2362 30.5276C61.3102 30.519 60.3921 30.6979 59.537 31.0534C58.6819 31.409 57.9077 31.9339 57.2608 32.5965C56.2826 33.5744 55.6164 34.8205 55.3464 36.1771C55.0764 37.5337 55.2148 38.9399 55.7441 40.2178C56.2733 41.4957 57.1697 42.588 58.3197 43.3565C59.4698 44.125 60.8219 44.5352 62.2051 44.5352C63.5883 44.5352 64.9404 44.125 66.0905 43.3565C67.2405 42.588 68.1369 41.4957 68.6661 40.2178C69.1954 38.9399 69.3338 37.5337 69.0638 36.1771C68.7938 34.8205 68.1276 33.5744 67.1494 32.5965ZM65.4095 40.7452C64.7744 41.3863 63.9632 41.8242 63.0788 42.0034C62.1944 42.1826 61.2767 42.0949 60.4422 41.7516C59.6077 41.4082 58.894 40.8246 58.3918 40.0749C57.8896 39.3252 57.6214 38.4432 57.6214 37.5408C57.6214 36.6384 57.8896 35.7564 58.3918 35.0067C58.894 34.257 59.6077 33.6734 60.4422 33.3301C61.2767 32.9867 62.1944 32.8991 63.0788 33.0783C63.9632 33.2574 64.7744 33.6954 65.4095 34.3364C66.2568 35.1877 66.7325 36.3398 66.7325 37.5408C66.7325 38.7418 66.2568 39.894 65.4095 40.7452ZM67.1494 32.5965C65.8502 31.2836 64.0833 30.5395 62.2362 30.5276C61.3102 30.519 60.3921 30.6979 59.537 31.0534C58.6819 31.409 57.9077 31.9339 57.2608 32.5965C56.2826 33.5744 55.6164 34.8205 55.3464 36.1771C55.0764 37.5337 55.2148 38.9399 55.7441 40.2178C56.2733 41.4957 57.1697 42.588 58.3197 43.3565C59.4698 44.125 60.8219 44.5352 62.2051 44.5352C63.5883 44.5352 64.9404 44.125 66.0905 43.3565C67.2405 42.588 68.1369 41.4957 68.6661 40.2178C69.1954 38.9399 69.3338 37.5337 69.0638 36.1771C68.7938 34.8205 68.1276 33.5744 67.1494 32.5965ZM65.4095 40.7452C64.7744 41.3863 63.9632 41.8242 63.0788 42.0034C62.1944 42.1826 61.2767 42.0949 60.4422 41.7516C59.6077 41.4082 58.894 40.8246 58.3918 40.0749C57.8896 39.3252 57.6214 38.4432 57.6214 37.5408C57.6214 36.6384 57.8896 35.7564 58.3918 35.0067C58.894 34.257 59.6077 33.6734 60.4422 33.3301C61.2767 32.9867 62.1944 32.8991 63.0788 33.0783C63.9632 33.2574 64.7744 33.6954 65.4095 34.3364C66.2568 35.1877 66.7325 36.3398 66.7325 37.5408C66.7325 38.7418 66.2568 39.894 65.4095 40.7452ZM67.1494 32.5965C65.8502 31.2836 64.0833 30.5395 62.2362 30.5276C61.3102 30.519 60.3921 30.6979 59.537 31.0534C58.6819 31.409 57.9077 31.9339 57.2608 32.5965C56.2826 33.5744 55.6164 34.8205 55.3464 36.1771C55.0764 37.5337 55.2148 38.9399 55.7441 40.2178C56.2733 41.4957 57.1697 42.588 58.3197 43.3565C59.4698 44.125 60.8219 44.5352 62.2051 44.5352C63.5883 44.5352 64.9404 44.125 66.0905 43.3565C67.2405 42.588 68.1369 41.4957 68.6661 40.2178C69.1954 38.9399 69.3338 37.5337 69.0638 36.1771C68.7938 34.8205 68.1276 33.5744 67.1494 32.5965ZM65.4095 40.7452C64.7744 41.3863 63.9632 41.8242 63.0788 42.0034C62.1944 42.1826 61.2767 42.0949 60.4422 41.7516C59.6077 41.4082 58.894 40.8246 58.3918 40.0749C57.8896 39.3252 57.6214 38.4432 57.6214 37.5408C57.6214 36.6384 57.8896 35.7564 58.3918 35.0067C58.894 34.257 59.6077 33.6734 60.4422 33.3301C61.2767 32.9867 62.1944 32.8991 63.0788 33.0783C63.9632 33.2574 64.7744 33.6954 65.4095 34.3364C66.2568 35.1877 66.7325 36.3398 66.7325 37.5408C66.7325 38.7418 66.2568 39.894 65.4095 40.7452ZM67.1494 32.5965C65.8502 31.2836 64.0833 30.5395 62.2362 30.5276C61.3102 30.519 60.3921 30.6979 59.537 31.0534C58.6819 31.409 57.9077 31.9339 57.2608 32.5965C56.2826 33.5744 55.6164 34.8205 55.3464 36.1771C55.0764 37.5337 55.2148 38.9399 55.7441 40.2178C56.2733 41.4957 57.1697 42.588 58.3197 43.3565C59.4698 44.125 60.8219 44.5352 62.2051 44.5352C63.5883 44.5352 64.9404 44.125 66.0905 43.3565C67.2405 42.588 68.1369 41.4957 68.6661 40.2178C69.1954 38.9399 69.3338 37.5337 69.0638 36.1771C68.7938 34.8205 68.1276 33.5744 67.1494 32.5965ZM65.4095 40.7452C64.7744 41.3863 63.9632 41.8242 63.0788 42.0034C62.1944 42.1826 61.2767 42.0949 60.4422 41.7516C59.6077 41.4082 58.894 40.8246 58.3918 40.0749C57.8896 39.3252 57.6214 38.4432 57.6214 37.5408C57.6214 36.6384 57.8896 35.7564 58.3918 35.0067C58.894 34.257 59.6077 33.6734 60.4422 33.3301C61.2767 32.9867 62.1944 32.8991 63.0788 33.0783C63.9632 33.2574 64.7744 33.6954 65.4095 34.3364C66.2568 35.1877 66.7325 36.3398 66.7325 37.5408C66.7325 38.7418 66.2568 39.894 65.4095 40.7452ZM67.1494 32.5965C65.8502 31.2836 64.0833 30.5395 62.2362 30.5276C61.3102 30.519 60.3921 30.6979 59.537 31.0534C58.6819 31.409 57.9077 31.9339 57.2608 32.5965C56.2826 33.5744 55.6164 34.8205 55.3464 36.1771C55.0764 37.5337 55.2148 38.9399 55.7441 40.2178C56.2733 41.4957 57.1697 42.588 58.3197 43.3565C59.4698 44.125 60.8219 44.5352 62.2051 44.5352C63.5883 44.5352 64.9404 44.125 66.0905 43.3565C67.2405 42.588 68.1369 41.4957 68.6661 40.2178C69.1954 38.9399 69.3338 37.5337 69.0638 36.1771C68.7938 34.8205 68.1276 33.5744 67.1494 32.5965ZM65.4095 40.7452C64.7744 41.3863 63.9632 41.8242 63.0788 42.0034C62.1944 42.1826 61.2767 42.0949 60.4422 41.7516C59.6077 41.4082 58.894 40.8246 58.3918 40.0749C57.8896 39.3252 57.6214 38.4432 57.6214 37.5408C57.6214 36.6384 57.8896 35.7564 58.3918 35.0067C58.894 34.257 59.6077 33.6734 60.4422 33.3301C61.2767 32.9867 62.1944 32.8991 63.0788 33.0783C63.9632 33.2574 64.7744 33.6954 65.4095 34.3364C66.2568 35.1877 66.7325 36.3398 66.7325 37.5408C66.7325 38.7418 66.2568 39.894 65.4095 40.7452ZM67.1494 32.5965C65.8502 31.2836 64.0833 30.5395 62.2362 30.5276C61.3102 30.519 60.3921 30.6979 59.537 31.0534C58.6819 31.409 57.9077 31.9339 57.2608 32.5965C56.2826 33.5744 55.6164 34.8205 55.3464 36.1771C55.0764 37.5337 55.2148 38.9399 55.7441 40.2178C56.2733 41.4957 57.1697 42.588 58.3197 43.3565C59.4698 44.125 60.8219 44.5352 62.2051 44.5352C63.5883 44.5352 64.9404 44.125 66.0905 43.3565C67.2405 42.588 68.1369 41.4957 68.6661 40.2178C69.1954 38.9399 69.3338 37.5337 69.0638 36.1771C68.7938 34.8205 68.1276 33.5744 67.1494 32.5965ZM65.4095 40.7452C64.7744 41.3863 63.9632 41.8242 63.0788 42.0034C62.1944 42.1826 61.2767 42.0949 60.4422 41.7516C59.6077 41.4082 58.894 40.8246 58.3918 40.0749C57.8896 39.3252 57.6214 38.4432 57.6214 37.5408C57.6214 36.6384 57.8896 35.7564 58.3918 35.0067C58.894 34.257 59.6077 33.6734 60.4422 33.3301C61.2767 32.9867 62.1944 32.8991 63.0788 33.0783C63.9632 33.2574 64.7744 33.6954 65.4095 34.3364C66.2568 35.1877 66.7325 36.3398 66.7325 37.5408C66.7325 38.7418 66.2568 39.894 65.4095 40.7452ZM67.1494 32.5965C65.8502 31.2836 64.0833 30.5395 62.2362 30.5276C61.3102 30.519 60.3921 30.6979 59.537 31.0534C58.6819 31.409 57.9077 31.9339 57.2608 32.5965C56.2826 33.5744 55.6164 34.8205 55.3464 36.1771C55.0764 37.5337 55.2148 38.9399 55.7441 40.2178C56.2733 41.4957 57.1697 42.588 58.3197 43.3565C59.4698 44.125 60.8219 44.5352 62.2051 44.5352C63.5883 44.5352 64.9404 44.125 66.0905 43.3565C67.2405 42.588 68.1369 41.4957 68.6661 40.2178C69.1954 38.9399 69.3338 37.5337 69.0638 36.1771C68.7938 34.8205 68.1276 33.5744 67.1494 32.5965ZM65.4095 40.7452C64.7744 41.3863 63.9632 41.8242 63.0788 42.0034C62.1944 42.1826 61.2767 42.0949 60.4422 41.7516C59.6077 41.4082 58.894 40.8246 58.3918 40.0749C57.8896 39.3252 57.6214 38.4432 57.6214 37.5408C57.6214 36.6384 57.8896 35.7564 58.3918 35.0067C58.894 34.257 59.6077 33.6734 60.4422 33.3301C61.2767 32.9867 62.1944 32.8991 63.0788 33.0783C63.9632 33.2574 64.7744 33.6954 65.4095 34.3364C66.2568 35.1877 66.7325 36.3398 66.7325 37.5408C66.7325 38.7418 66.2568 39.894 65.4095 40.7452ZM67.1494 32.5965C65.8502 31.2836 64.0833 30.5395 62.2362 30.5276C61.3102 30.519 60.3921 30.6979 59.537 31.0534C58.6819 31.409 57.9077 31.9339 57.2608 32.5965C56.2826 33.5744 55.6164 34.8205 55.3464 36.1771C55.0764 37.5337 55.2148 38.9399 55.7441 40.2178C56.2733 41.4957 57.1697 42.588 58.3197 43.3565C59.4698 44.125 60.8219 44.5352 62.2051 44.5352C63.5883 44.5352 64.9404 44.125 66.0905 43.3565C67.2405 42.588 68.1369 41.4957 68.6661 40.2178C69.1954 38.9399 69.3338 37.5337 69.0638 36.1771C68.7938 34.8205 68.1276 33.5744 67.1494 32.5965ZM65.4095 40.7452C64.7744 41.3863 63.9632 41.8242 63.0788 42.0034C62.1944 42.1826 61.2767 42.0949 60.4422 41.7516C59.6077 41.4082 58.894 40.8246 58.3918 40.0749C57.8896 39.3252 57.6214 38.4432 57.6214 37.5408C57.6214 36.6384 57.8896 35.7564 58.3918 35.0067C58.894 34.257 59.6077 33.6734 60.4422 33.3301C61.2767 32.9867 62.1944 32.8991 63.0788 33.0783C63.9632 33.2574 64.7744 33.6954 65.4095 34.3364C66.2568 35.1877 66.7325 36.3398 66.7325 37.5408C66.7325 38.7418 66.2568 39.894 65.4095 40.7452ZM67.1494 32.5965C65.8502 31.2836 64.0833 30.5395 62.2362 30.5276C61.3102 30.519 60.3921 30.6979 59.537 31.0534C58.6819 31.409 57.9077 31.9339 57.2608 32.5965C56.2826 33.5744 55.6164 34.8205 55.3464 36.1771C55.0764 37.5337 55.2148 38.9399 55.7441 40.2178C56.2733 41.4957 57.1697 42.588 58.3197 43.3565C59.4698 44.125 60.8219 44.5352 62.2051 44.5352C63.5883 44.5352 64.9404 44.125 66.0905 43.3565C67.2405 42.588 68.1369 41.4957 68.6661 40.2178C69.1954 38.9399 69.3338 37.5337 69.0638 36.1771C68.7938 34.8205 68.1276 33.5744 67.1494 32.5965ZM65.4095 40.7452C64.7744 41.3863 63.9632 41.8242 63.0788 42.0034C62.1944 42.1826 61.2767 42.0949 60.4422 41.7516C59.6077 41.4082 58.894 40.8246 58.3918 40.0749C57.8896 39.3252 57.6214 38.4432 57.6214 37.5408C57.6214 36.6384 57.8896 35.7564 58.3918 35.0067C58.894 34.257 59.6077 33.6734 60.4422 33.3301C61.2767 32.9867 62.1944 32.8991 63.0788 33.0783C63.9632 33.2574 64.7744 33.6954 65.4095 34.3364C66.2568 35.1877 66.7325 36.3398 66.7325 37.5408C66.7325 38.7418 66.2568 39.894 65.4095 40.7452ZM67.1494 32.5965C65.8502 31.2836 64.0833 30.5395 62.2362 30.5276C61.3102 30.519 60.3921 30.6979 59.537 31.0534C58.6819 31.409 57.9077 31.9339 57.2608 32.5965C56.2826 33.5744 55.6164 34.8205 55.3464 36.1771C55.0764 37.5337 55.2148 38.9399 55.7441 40.2178C56.2733 41.4957 57.1697 42.588 58.3197 43.3565C59.4698 44.125 60.8219 44.5352 62.2051 44.5352C63.5883 44.5352 64.9404 44.125 66.0905 43.3565C67.2405 42.588 68.1369 41.4957 68.6661 40.2178C69.1954 38.9399 69.3338 37.5337 69.0638 36.1771C68.7938 34.8205 68.1276 33.5744 67.1494 32.5965ZM65.4095 40.7452C64.7744 41.3863 63.9632 41.8242 63.0788 42.0034C62.1944 42.1826 61.2767 42.0949 60.4422 41.7516C59.6077 41.4082 58.894 40.8246 58.3918 40.0749C57.8896 39.3252 57.6214 38.4432 57.6214 37.5408C57.6214 36.6384 57.8896 35.7564 58.3918 35.0067C58.894 34.257 59.6077 33.6734 60.4422 33.3301C61.2767 32.9867 62.1944 32.8991 63.0788 33.0783C63.9632 33.2574 64.7744 33.6954 65.4095 34.3364C66.2568 35.1877 66.7325 36.3398 66.7325 37.5408C66.7325 38.7418 66.2568 39.894 65.4095 40.7452ZM67.1494 32.5965C65.8502 31.2836 64.0833 30.5395 62.2362 30.5276C61.3102 30.519 60.3921 30.6979 59.537 31.0534C58.6819 31.409 57.9077 31.9339 57.2608 32.5965C56.2826 33.5744 55.6164 34.8205 55.3464 36.1771C55.0764 37.5337 55.2148 38.9399 55.7441 40.2178C56.2733 41.4957 57.1697 42.588 58.3197 43.3565C59.4698 44.125 60.8219 44.5352 62.2051 44.5352C63.5883 44.5352 64.9404 44.125 66.0905 43.3565C67.2405 42.588 68.1369 41.4957 68.6661 40.2178C69.1954 38.9399 69.3338 37.5337 69.0638 36.1771C68.7938 34.8205 68.1276 33.5744 67.1494 32.5965ZM65.4095 40.7452C64.7744 41.3863 63.9632 41.8242 63.0788 42.0034C62.1944 42.1826 61.2767 42.0949 60.4422 41.7516C59.6077 41.4082 58.894 40.8246 58.3918 40.0749C57.8896 39.3252 57.6214 38.4432 57.6214 37.5408C57.6214 36.6384 57.8896 35.7564 58.3918 35.0067C58.894 34.257 59.6077 33.6734 60.4422 33.3301C61.2767 32.9867 62.1944 32.8991 63.0788 33.0783C63.9632 33.2574 64.7744 33.6954 65.4095 34.3364C66.2568 35.1877 66.7325 36.3398 66.7325 37.5408C66.7325 38.7418 66.2568 39.894 65.4095 40.7452Z" fill="#231F20"/>
<path d="M79.1138 20.9144C78.8215 20.62 78.464 20.3984 78.0703 20.2675C77.6766 20.1367 77.2576 20.1002 76.8472 20.1611L73.7806 20.7122C65.1296 22.3706 56.9166 25.8049 49.6601 30.7982C42.4037 35.7915 36.2615 42.2353 31.6215 49.7227C31.5794 49.7891 31.5416 49.8581 31.5082 49.9293C31.4393 50.0499 31.3813 50.1763 31.3348 50.3071C31.1371 50.9026 31.1704 51.6804 31.4237 52.5959C31.886 54.3137 33.0926 56.5047 34.8703 58.7847C34.3881 58.0438 34.014 57.2379 33.7592 56.3914C33.6052 55.9361 33.5867 55.4459 33.7059 54.9803C33.7345 54.8992 33.7694 54.8204 33.8104 54.7448C33.8188 54.7288 33.8301 54.7145 33.8437 54.7026C33.8766 54.6496 33.9162 54.601 33.9615 54.5581C34.3459 54.1759 35.0126 54.1292 35.8548 54.3692C37.4392 54.8137 39.6458 56.2603 41.728 58.3469C43.8101 60.4335 45.2457 62.6179 45.6945 64.2023C45.9434 65.0534 45.8968 65.7268 45.519 66.1112L45.4901 66.1356C45.454 66.1697 45.4154 66.2009 45.3745 66.229C45.2271 66.3263 45.0603 66.3908 44.8857 66.4179C44.4567 66.4731 44.0208 66.4313 43.6101 66.2956C42.7849 66.031 41.9987 65.6573 41.2724 65.1845C43.5124 66.9334 45.6612 68.1334 47.3723 68.6178C48.0374 68.8353 48.7424 68.9028 49.4367 68.8156C49.7164 68.7449 49.9828 68.6294 50.2255 68.4734L50.4144 68.36C57.8274 63.8296 64.2136 57.8023 69.1649 50.6635C74.1162 43.5247 77.5236 35.4314 79.1693 26.9009L79.8516 23.2321V23.1855C79.9136 22.7756 79.8792 22.357 79.7511 21.9628C79.623 21.5685 79.4048 21.2096 79.1138 20.9144ZM76.7627 26.441C73.7072 42.3362 63.283 57.0469 49.7478 65.9245C49.0189 63.3624 46.3679 59.5247 43.0102 56.167C39.6525 52.8093 36.7881 51.056 34.2192 50.336C43.2724 36.7141 58.1454 26.201 74.2517 23.1344L77.2094 22.5944C77.2397 22.5933 77.27 22.5985 77.2983 22.6096C77.3266 22.6206 77.3523 22.6374 77.3738 22.6588C77.3935 22.6804 77.4087 22.7056 77.4186 22.7331C77.4286 22.7605 77.433 22.7897 77.4316 22.8188L76.7627 26.441Z" fill="#231F20"/>
<path d="M68.9737 57.9114C68.9281 57.5629 68.7773 57.2367 68.5415 56.9762C68.3056 56.7157 67.9959 56.5334 67.6537 56.4536C67.326 56.3813 66.9842 56.4073 66.6712 56.5283C66.3582 56.6492 66.0877 56.8598 65.8937 57.1336C63.1816 60.3432 60.1572 63.2753 56.865 65.8867L56.8361 65.9134C56.4747 66.0677 56.1858 66.3542 56.0284 66.7143C55.8711 67.0744 55.8571 67.4811 55.9895 67.8511L59.1872 75.8132C59.3154 76.2274 59.5576 76.5972 59.8862 76.8801C60.2147 77.1631 60.6163 77.3478 61.0449 77.4131C61.169 77.4345 61.2946 77.4449 61.4205 77.4443C61.813 77.4442 62.1994 77.3468 62.545 77.1606C62.8906 76.9744 63.1845 76.7054 63.4004 76.3776L65.236 73.7243C68.4285 69.112 69.7633 63.4649 68.9737 57.9114ZM63.2093 72.3244L61.4583 74.8576L58.5694 67.6733C61.4923 65.3353 64.213 62.7551 66.7026 59.9602C66.9403 64.3548 65.7116 68.7039 63.2093 72.3244Z" fill="#231F20"/>
<path d="M43.579 32.583C43.498 32.2413 43.3146 31.9324 43.0533 31.6977C42.792 31.463 42.4653 31.3137 42.1168 31.2697C36.5626 30.4809 30.9151 31.8156 26.3016 35.0074L23.735 36.7852C23.338 36.9751 23.0064 37.2785 22.782 37.6571C22.5577 38.0357 22.4509 38.4724 22.475 38.9118C22.5087 39.3683 22.6801 39.8039 22.9665 40.161C23.253 40.5181 23.6411 40.7799 24.0794 40.9117L31.9748 44.0828L32.0437 44.1072C32.1945 44.1558 32.3519 44.1805 32.5104 44.1806C32.9488 44.1618 33.3721 44.015 33.7281 43.7583L33.8281 43.6917L34.0503 43.4695L34.1592 43.3472C36.5325 40.2362 39.388 37.2807 42.8924 34.3408C43.1657 34.1466 43.3763 33.8768 43.4983 33.5645C43.6203 33.2522 43.6483 32.9111 43.579 32.583ZM32.397 41.6051L25.2483 38.7318L27.6927 37.0341C31.3103 34.5307 35.6572 33.3004 40.0502 33.5364C37.2415 35.9692 34.6782 38.6718 32.397 41.6051Z" fill="#231F20"/>
<path fill-rule="evenodd" clip-rule="evenodd" d="M16.6477 89.0707C16.6277 89.1396 16.61 89.2085 16.5922 89.2796C16.4691 89.7666 16.402 90.2662 16.3922 90.7684C16.3886 91.8212 16.5004 92.8711 16.7255 93.8995C16.7966 94.2595 16.9988 94.7039 17.0011 95.0706C17.0011 95.0706 16.9522 90.6907 24.3742 87.5396C36.2251 82.5042 40.1628 74.651 39.0606 68.9378C38.6317 69.8489 37.8562 70.6089 37.1495 71.5555C36.4713 72.4692 35.6696 73.2844 34.7673 73.9777C33.9937 74.5714 33.1513 75.0698 32.2585 75.4621C31.5254 75.787 30.7606 76.035 29.9763 76.2021C29.2252 76.3599 28.3742 76.5243 27.6208 76.2999C27.5976 76.2962 27.5754 76.2876 27.5559 76.2746C27.5363 76.2615 27.5198 76.2444 27.5075 76.2243C27.4975 76.1932 27.4975 76.1598 27.5075 76.1288C27.5663 75.8036 27.6822 75.4914 27.8497 75.2066C27.9357 75.0588 28.0346 74.919 28.1453 74.7888C28.2542 74.6643 28.3919 74.5666 28.4986 74.4421C28.4075 74.4666 28.3119 74.4599 28.2208 74.4777C28.0875 74.5043 27.9542 74.5355 27.823 74.5688C27.4275 74.6687 27.0386 74.7934 26.6586 74.9421C25.6947 75.3097 24.7987 75.8354 24.0076 76.4977C22.7167 77.6008 21.5138 78.8029 20.4099 80.0931C20.4099 80.0931 22.3276 69.6111 27.1675 65.1312C28.5792 63.7783 30.2019 62.6645 31.9718 61.8335C23.852 60.5536 15.0833 73.3777 11.4301 83.2442C6.69019 96.0505 0.634766 100.099 0.634766 100.099C1.93029 99.4905 3.10138 98.5616 4.23691 97.7016C5.81465 96.5061 7.34795 95.2572 8.86792 93.9795C10.1894 92.8684 11.4953 91.7403 12.7856 90.5951C13.1723 90.2507 13.5589 89.904 13.9345 89.5485C14.5899 88.8997 15.386 88.4107 16.2611 88.1196C16.5373 88.0302 16.8195 87.9604 17.1055 87.9107C17.0233 87.9263 16.8611 88.4529 16.8277 88.5374C16.7589 88.7085 16.6989 88.8863 16.6477 89.0707Z" fill="#231F20"/>
<path d="M140.478 19.2012V23.4233H133.112V45.8672H127.778V23.4233H120.445V19.2012H140.478Z" fill="white"/>
<path d="M162.918 36.4274H147.585C147.661 38.2911 148.164 39.6636 149.096 40.5451C149.56 40.983 150.106 41.3252 150.702 41.5521C151.299 41.7789 151.934 41.886 152.572 41.8673C153.804 41.8673 154.83 41.5651 155.649 40.9606C156.461 40.3673 157.021 39.4911 157.218 38.5051H162.847C162.581 39.9394 161.971 41.2877 161.069 42.4339C160.141 43.61 158.942 44.5434 157.574 45.1539C155.958 45.8522 154.208 46.1856 152.448 46.1302C150.688 46.0749 148.963 45.6323 147.394 44.8339C145.823 43.9816 144.536 42.6876 143.692 41.1117C142.803 39.5014 142.358 37.6 142.358 35.4074C142.358 33.2149 142.803 31.3075 143.692 29.6853C144.529 28.1068 145.817 26.8128 147.392 25.9676C149.068 25.0899 150.939 24.6482 152.832 24.6832C154.895 24.6832 156.702 25.1114 158.251 25.9676C159.758 26.7825 161.002 28.0076 161.84 29.5009C162.997 31.6148 163.378 34.0665 162.918 36.4318V36.4274ZM156.4 30.1898C155.425 29.306 154.147 28.8324 152.832 28.8676C151.498 28.8307 150.201 29.3036 149.205 30.1898C148.223 31.0786 147.681 32.3756 147.581 34.0808H157.743C157.818 32.3756 157.371 31.0786 156.4 30.1898Z" fill="white"/>
<path d="M179.613 25.9254C180.847 26.726 181.789 27.9059 182.295 29.2876V24.9432H187.584V45.8717H182.295V41.4895C181.786 42.8752 180.846 44.0608 179.613 44.8717C178.355 45.7132 176.844 46.1346 175.08 46.1361C173.404 46.1604 171.755 45.7155 170.32 44.8517C168.878 43.9613 167.729 42.6681 167.015 41.1318C166.221 39.5022 165.824 37.5941 165.824 35.4074C165.824 33.2208 166.221 31.3135 167.015 29.6854C167.731 28.1508 168.88 26.8587 170.32 25.9677C171.756 25.1048 173.404 24.66 175.08 24.6832C176.844 24.6803 178.355 25.0943 179.613 25.9254ZM172.737 30.9498C171.73 32.0342 171.226 33.5201 171.226 35.4074C171.226 37.2948 171.73 38.7763 172.737 39.8518C173.746 40.9199 175.08 41.4547 176.737 41.4562C177.48 41.4789 178.219 41.3444 178.906 41.0614C179.593 40.7784 180.213 40.3533 180.724 39.814C181.761 38.7192 182.283 37.2519 182.291 35.4119C182.291 33.5497 181.768 32.0683 180.724 30.9676C180.213 30.428 179.593 30.0026 178.906 29.7192C178.219 29.4358 177.48 29.3008 176.737 29.3231C175.078 29.3246 173.745 29.8668 172.737 30.9498Z" fill="white"/>
<path d="M225.079 27.0031C226.551 28.5764 227.287 30.8112 227.287 33.7075V45.8716H221.999V34.3163C221.999 32.706 221.59 31.466 220.772 30.5964C219.954 29.7268 218.827 29.292 217.39 29.292C215.908 29.292 214.723 29.7579 213.834 30.6897C212.945 31.6216 212.505 32.9815 212.512 34.7696V45.8805H207.223V34.3252C207.223 32.7149 206.814 31.4749 205.997 30.6053C205.179 29.7357 204.052 29.3009 202.615 29.3009C201.133 29.3009 199.948 29.7668 199.059 30.6986C198.17 31.6305 197.726 32.9904 197.726 34.7785V45.8894H192.393V24.9432H197.726V28.9098C198.236 27.6015 199.158 26.4948 200.352 25.7565C201.61 24.9982 203.057 24.6128 204.526 24.6454C206.08 24.609 207.61 25.0293 208.928 25.8543C210.208 26.6904 211.197 27.9032 211.759 29.3253C212.386 27.9183 213.41 26.7248 214.705 25.8915C216.001 25.0582 217.512 24.6213 219.052 24.6343C221.597 24.6343 223.606 25.4239 225.079 27.0031Z" fill="white"/>
<path d="M139.647 80.1175C138.921 81.3042 137.873 82.2605 136.625 82.8752C135.292 83.5685 133.667 83.9145 131.752 83.913C130.016 83.9433 128.293 83.6157 126.69 82.9508C125.272 82.3621 124.038 81.4027 123.119 80.1731C122.217 78.9405 121.686 77.4754 121.59 75.951H127.256C127.354 76.9782 127.816 77.9366 128.559 78.6531C129.299 79.3716 130.288 79.7301 131.525 79.7287C132.632 79.7287 133.482 79.4324 134.074 78.8398C134.37 78.5388 134.601 78.1809 134.753 77.7878C134.906 77.3947 134.978 76.9746 134.963 76.5532C134.991 75.8015 134.734 75.0669 134.245 74.4954C133.741 73.9362 133.122 73.4915 132.432 73.191C131.702 72.8651 130.694 72.4873 129.41 72.0577C128.011 71.6109 126.648 71.062 125.33 70.4155C124.252 69.857 123.325 69.0467 122.628 68.0533C121.887 67.0163 121.517 65.6689 121.517 64.0112C121.517 61.7194 122.341 59.9128 123.99 58.5913C125.639 57.2699 127.824 56.6084 130.545 56.6069C133.36 56.6069 135.607 57.2869 137.287 58.6469C138.967 60.0069 139.918 61.8202 140.141 64.0868H134.399C134.276 63.1856 133.849 62.3532 133.19 61.7268C132.533 61.1091 131.639 60.8002 130.508 60.8002C129.525 60.8002 128.732 61.0587 128.128 61.5757C127.523 62.0927 127.221 62.8416 127.221 63.8223C127.196 64.5366 127.446 65.2332 127.919 65.7689C128.418 66.3084 129.023 66.7389 129.696 67.0334C130.652 67.4519 131.63 67.8176 132.625 68.1289C134.048 68.6148 135.441 69.1824 136.798 69.8289C137.896 70.3808 138.838 71.199 139.538 72.2088C140.294 73.2666 140.672 74.6517 140.672 76.3643C140.679 77.6854 140.325 78.9834 139.647 80.1175Z" fill="white"/>
<path d="M161.858 63.7446C163.3 64.6361 164.449 65.93 165.164 67.4668C165.959 69.0964 166.355 71.0037 166.353 73.1889C166.352 75.374 165.956 77.2821 165.164 78.9132C164.45 80.4498 163.3 81.7431 161.858 82.6331C160.422 83.4975 158.773 83.9425 157.098 83.9175C155.337 83.9175 153.832 83.496 152.585 82.6531C151.359 81.8376 150.425 80.653 149.918 79.271V93.6262H144.585V62.7202H149.918V67.0646C150.423 65.6865 151.358 64.5076 152.585 63.7024C153.831 62.8713 155.335 62.4558 157.098 62.4558C158.774 62.4333 160.422 62.8797 161.858 63.7446ZM151.451 68.7512C150.414 69.8475 149.892 71.3289 149.883 73.1955C149.883 75.0355 150.406 76.5029 151.451 77.5977C151.962 78.1369 152.581 78.5619 153.268 78.8449C153.955 79.128 154.693 79.2625 155.436 79.2398C157.098 79.2398 158.431 78.705 159.436 77.6354C160.44 76.5658 160.944 75.0844 160.947 73.1911C160.947 71.3022 160.443 69.8163 159.436 68.7334C158.428 67.6505 157.095 67.109 155.436 67.109C154.694 67.0859 153.955 67.2198 153.269 67.5021C152.582 67.7843 151.963 68.2085 151.451 68.7468V68.7512Z" fill="white"/>
<path d="M182.871 63.7024C184.105 64.5029 185.047 65.6828 185.553 67.0645V62.7202H190.841V83.6486H185.537V79.2664C185.029 80.6521 184.088 81.8377 182.855 82.6486C181.597 83.49 180.086 83.9115 178.322 83.913C176.646 83.9373 174.998 83.4924 173.562 82.6286C172.12 81.7383 170.972 80.445 170.257 78.9087C169.463 77.2791 169.066 75.371 169.066 73.1844C169.066 70.9977 169.463 69.0904 170.257 67.4623C170.973 65.9261 172.121 64.6324 173.562 63.7401C174.998 62.8773 176.647 62.4324 178.322 62.4557C180.089 62.4557 181.605 62.8713 182.871 63.7024ZM175.982 68.7267C174.974 69.8111 174.471 71.297 174.471 73.1844C174.471 75.0717 174.974 76.5532 175.982 77.6287C176.989 78.6968 178.322 79.2316 179.982 79.2331C180.724 79.2558 181.464 79.1213 182.151 78.8383C182.838 78.5553 183.457 78.1302 183.968 77.5909C185.013 76.4962 185.531 75.0288 185.524 73.1888C185.524 71.3266 185.005 69.8452 183.968 68.7445C183.457 68.2049 182.838 67.7795 182.151 67.4961C181.464 67.2127 180.725 67.0777 179.982 67.1C178.325 67.1015 176.992 67.6438 175.982 68.7267Z" fill="white"/>
<path d="M211.819 64.6469C213.619 66.1091 214.746 68.0986 215.199 70.6156H209.57C209.386 69.5815 208.834 68.6492 208.015 67.9912C207.207 67.3497 206.187 67.0283 204.955 67.0268C204.287 67.0137 203.625 67.1474 203.015 67.4185C202.405 67.6896 201.862 68.0915 201.424 68.5956C200.48 69.6401 200.008 71.1697 200.006 73.1844C200.005 75.1992 200.477 76.7295 201.424 77.7755C201.863 78.277 202.407 78.6761 203.017 78.9449C203.627 79.2136 204.288 79.3454 204.955 79.331C206.189 79.331 207.209 79.0102 208.015 78.3688C208.834 77.7104 209.387 76.7771 209.57 75.7422H215.199C214.746 78.2606 213.619 80.2502 211.819 81.7109C210.019 83.1716 207.771 83.902 205.075 83.902C203.18 83.9376 201.308 83.4894 199.635 82.5998C198.064 81.7469 196.777 80.453 195.933 78.8776C195.044 77.2673 194.6 75.3659 194.6 73.1733C194.6 70.9808 195.044 69.0734 195.933 67.4512C196.771 65.8711 198.059 64.5756 199.635 63.7291C201.312 62.8514 203.183 62.4097 205.075 62.4447C207.77 62.4521 210.018 63.1862 211.819 64.6469Z" fill="white"/>
<path d="M238.47 74.2044H223.137C223.213 76.0695 223.716 77.4421 224.648 78.3221C225.111 78.7619 225.657 79.1061 226.253 79.3349C226.849 79.5637 227.485 79.6726 228.124 79.6554C229.358 79.6554 230.384 79.3532 231.204 78.7488C232.008 78.1559 232.563 77.2843 232.759 76.3044H238.388C238.122 77.7386 237.512 79.0869 236.61 80.2331C235.683 81.4092 234.484 82.3425 233.117 82.9531C231.5 83.6513 229.75 83.9846 227.99 83.9293C226.23 83.874 224.504 83.4314 222.935 82.6331C221.364 81.7802 220.077 80.4863 219.233 78.911C218.344 77.3006 217.899 75.3992 217.899 73.2066C217.899 71.0141 218.344 69.1067 219.233 67.4845C220.071 65.9044 221.359 64.6089 222.935 63.7624C224.612 62.8847 226.482 62.443 228.375 62.478C230.438 62.478 232.246 62.9061 233.797 63.7624C235.303 64.5773 236.547 65.8024 237.386 67.2957C238.244 68.8604 238.68 70.622 238.65 72.4067C238.644 73.0101 238.584 73.6118 238.47 74.2044ZM231.955 67.9823C230.98 67.0952 229.701 66.6177 228.384 66.649C227.049 66.6152 225.752 67.0921 224.757 67.9823C223.775 68.8712 223.233 70.1682 223.133 71.8733H233.295C233.37 70.1578 232.924 68.8556 231.955 67.9668V67.9823Z" fill="white"/>
</svg>
