<svg width="21" height="20" viewBox="0 0 21 20" fill="none" xmlns="http://www.w3.org/2000/svg">
<path d="M19.5908 9.5C19.5943 10.8199 19.2859 12.1219 18.6908 13.3C17.9853 14.7117 16.9006 15.8992 15.5583 16.7293C14.216 17.5594 12.6691 17.9994 11.0908 18C9.77095 18.0034 8.46894 17.6951 7.29082 17.1L1.59082 19L3.49082 13.3C2.89575 12.1219 2.58738 10.8199 2.59082 9.5C2.59143 7.92176 3.03143 6.37485 3.86154 5.03255C4.69165 3.69025 5.87907 2.60557 7.29082 1.9C8.46894 1.30493 9.77095 0.996557 11.0908 0.999998H11.5908C13.6752 1.11499 15.6439 1.99476 17.12 3.47086C18.5961 4.94695 19.4758 6.91565 19.5908 9V9.5Z" stroke="#25282B" stroke-width="2" stroke-linecap="round" stroke-linejoin="round"/>
</svg>
