<svg width="150" height="132" fill="none" xmlns="http://www.w3.org/2000/svg"><path d="M75 121.483c-18.596 0-35.663-1.834-49.03-4.89 1.922 5.065 5.536 8.895 9.991 10.121 10.055 2.767 23.836 4.474 39.04 4.474 15.203 0 28.983-1.707 39.038-4.474 4.456-1.226 8.069-5.056 9.992-10.121-13.368 3.056-30.434 4.89-49.03 4.89Z" fill="url(#a)"/><path d="M150 107.119c0 25.712-150 25.712-150 0 0-25.713 150-25.713 150 0Z" fill="url(#b)"/><path d="M139.706 105.233c0 18.332-129.412 18.332-129.412 0s129.412-18.332 129.412 0Z" fill="url(#c)"/><path d="M150 107.119c0-20.31-93.577-24.577-132.909-12.804.1.117.202.234.31.348-2.06 1.627-3.206 3.45-3.206 5.468 0 1.887 1.002 3.602 2.814 5.148l18.52 18.519c44.356 6.46 114.471.901 114.471-16.679Z" fill="url(#d)"/><path d="M135.806 100.131c0 20.846-121.61 20.846-121.61 0s121.61-20.846 121.61 0Z" fill="url(#e)"/><g opacity=".6"><g opacity=".6"><path opacity=".6" d="M116.137 95.75c1.111 0 2.01-1.11 2.01-2.48 0-1.369-.899-2.479-2.01-2.479-1.11 0-2.01 1.11-2.01 2.48 0 1.368.9 2.478 2.01 2.478Z" fill="url(#f)"/><path opacity=".6" d="M112.406 101.639c.876 0 1.586-.877 1.586-1.958 0-1.08-.71-1.957-1.586-1.957-.877 0-1.587.876-1.587 1.957s.71 1.958 1.587 1.958Z" fill="url(#g)"/><path opacity=".6" d="M119.322 102.504c.528 0 .957-.529.957-1.18 0-.652-.429-1.18-.957-1.18s-.957.528-.957 1.18c0 .651.429 1.18.957 1.18Z" fill="url(#h)"/></g><g opacity=".6"><path opacity=".6" d="M126.766 96.97c.82 0 1.485-.82 1.485-1.831 0-1.012-.665-1.832-1.485-1.832-.821 0-1.486.82-1.486 1.832 0 1.011.665 1.832 1.486 1.832Z" fill="url(#i)"/><path opacity=".6" d="M122.064 97.208c.648 0 1.173-.647 1.173-1.446 0-.799-.525-1.446-1.173-1.446-.647 0-1.172.647-1.172 1.446 0 .799.525 1.446 1.172 1.446Z" fill="url(#j)"/><path opacity=".6" d="M124.739 102.142c.39 0 .707-.391.707-.872 0-.482-.317-.873-.707-.873-.39 0-.707.391-.707.873 0 .481.317.872.707.872Z" fill="url(#k)"/></g></g><path d="M135.805 100.131c0-4.782-6.404-8.467-16.269-11.055H30.464c-9.865 2.588-16.269 6.273-16.269 11.055 0 20.846 121.61 20.846 121.61 0Z" fill="url(#l)"/><path d="M135.806 89.076c0 20.846-121.61 20.846-121.61 0s121.61-20.846 121.61 0Z" fill="url(#m)"/><path d="M135.805 89.076c0-4.783-6.404-8.467-16.269-11.055H30.464c-9.865 2.588-16.269 6.272-16.269 11.055 0 20.846 121.61 20.846 121.61 0Z" fill="url(#n)"/><g opacity=".6"><g opacity=".6"><path opacity=".6" d="M35.427 92.958c1.11 0 2.01-.862 2.01-1.926 0-1.063-.9-1.925-2.01-1.925-1.11 0-2.01.862-2.01 1.925 0 1.064.9 1.926 2.01 1.926Z" fill="url(#o)"/><path opacity=".6" d="M31.695 97.532c.876 0 1.586-.68 1.586-1.52s-.71-1.52-1.586-1.52c-.877 0-1.587.68-1.587 1.52s.71 1.52 1.587 1.52Z" fill="url(#p)"/><path opacity=".6" d="M38.612 98.204c.528 0 .956-.41.956-.917 0-.506-.428-.916-.956-.916-.529 0-.957.41-.957.916s.428.917.957.917Z" fill="url(#q)"/></g><g opacity=".6"><path opacity=".6" d="M46.055 93.906c.82 0 1.485-.637 1.485-1.422 0-.786-.665-1.423-1.485-1.423-.82 0-1.486.637-1.486 1.422 0 .786.665 1.423 1.486 1.423Z" fill="url(#r)"/><path opacity=".6" d="M41.353 94.09c.648 0 1.173-.502 1.173-1.123 0-.62-.525-1.123-1.173-1.123-.647 0-1.172.503-1.172 1.124 0 .62.525 1.123 1.172 1.123Z" fill="url(#s)"/><path opacity=".6" d="M44.028 97.922c.39 0 .706-.303.706-.677 0-.374-.316-.677-.706-.677-.39 0-.707.303-.707.677 0 .374.316.677.707.677Z" fill="url(#t)"/></g></g><path d="M135.806 78.02c0 20.847-121.61 20.847-121.61 0 0-20.845 121.61-20.845 121.61 0Z" fill="url(#u)"/><path d="M135.805 78.02c0-4.782-6.404-8.466-16.269-11.054H30.464C20.6 69.554 14.195 73.238 14.195 78.02c0 20.846 121.61 20.846 121.61 0Z" fill="url(#v)"/><g opacity=".6"><path opacity=".6" d="M78.444 85.251c1.11 0 2.01-.862 2.01-1.925 0-1.064-.9-1.926-2.01-1.926-1.11 0-2.01.862-2.01 1.926 0 1.063.9 1.925 2.01 1.925Z" fill="url(#w)"/><path opacity=".6" d="M74.712 89.825c.876 0 1.587-.68 1.587-1.52s-.71-1.52-1.587-1.52-1.587.68-1.587 1.52.71 1.52 1.587 1.52Z" fill="url(#x)"/><path opacity=".6" d="M81.629 90.497c.528 0 .956-.41.956-.916 0-.507-.428-.917-.956-.917-.529 0-.957.41-.957.916 0 .507.428.917.957.917Z" fill="url(#y)"/></g><path d="M135.806 66.966c0 20.846-121.61 20.846-121.61 0s121.61-20.846 121.61 0Z" fill="url(#z)"/><path d="M135.805 66.966c0-4.783-6.404-8.467-16.269-11.056H30.464c-9.865 2.588-16.269 6.273-16.269 11.055 0 20.847 121.61 20.847 121.61 0Z" fill="url(#A)"/><g opacity=".6"><path opacity=".6" d="M126.765 64.676c.82 0 1.485-.691 1.485-1.544 0-.853-.665-1.544-1.485-1.544-.82 0-1.485.691-1.485 1.544 0 .853.665 1.544 1.485 1.544Z" fill="url(#B)"/><path opacity=".6" d="M122.064 64.876c.647 0 1.172-.546 1.172-1.219s-.525-1.218-1.172-1.218c-.648 0-1.173.545-1.173 1.218 0 .673.525 1.219 1.173 1.219Z" fill="url(#C)"/><path opacity=".6" d="M124.739 69.033c.39 0 .706-.33.706-.735 0-.406-.316-.734-.706-.734a.72.72 0 0 0-.707.734.72.72 0 0 0 .707.735Z" fill="url(#D)"/></g><path d="M135.806 55.91c0 20.846-121.61 20.846-121.61 0 0-20.845 121.61-20.845 121.61 0Z" fill="url(#E)"/><path d="M135.805 55.91c0-4.782-6.404-8.466-16.269-11.055H30.464C20.6 47.443 14.195 51.128 14.195 55.91c0 20.846 121.61 20.846 121.61 0Z" fill="url(#F)"/><path d="M135.806 44.855c0 20.846-121.61 20.846-121.61 0 0-20.845 121.61-20.846 121.61 0Z" fill="url(#G)"/><g opacity=".6"><g opacity=".6"><path opacity=".6" d="M116.137 40.473c1.111 0 2.01-1.11 2.01-2.479 0-1.37-.899-2.48-2.01-2.48-1.11 0-2.01 1.11-2.01 2.48 0 1.37.9 2.48 2.01 2.48Z" fill="url(#H)"/><path opacity=".6" d="M112.406 46.362c.876 0 1.586-.876 1.586-1.957 0-1.08-.71-1.957-1.586-1.957-.877 0-1.587.876-1.587 1.957s.71 1.957 1.587 1.957Z" fill="url(#I)"/><path opacity=".6" d="M119.322 47.228c.528 0 .957-.529.957-1.18 0-.652-.429-1.18-.957-1.18s-.957.528-.957 1.18c0 .651.429 1.18.957 1.18Z" fill="url(#J)"/></g><g opacity=".6"><path opacity=".6" d="M126.766 41.695c.82 0 1.485-.82 1.485-1.832s-.665-1.832-1.485-1.832c-.821 0-1.486.82-1.486 1.832 0 1.011.665 1.832 1.486 1.832Z" fill="url(#K)"/><path opacity=".6" d="M122.064 41.932c.648 0 1.173-.647 1.173-1.446 0-.799-.525-1.446-1.173-1.446-.647 0-1.172.647-1.172 1.446 0 .799.525 1.446 1.172 1.446Z" fill="url(#L)"/><path opacity=".6" d="M124.739 46.865c.39 0 .707-.39.707-.872 0-.481-.317-.872-.707-.872-.39 0-.707.39-.707.872s.317.872.707.872Z" fill="url(#M)"/></g></g><path d="M135.805 44.856c0-4.783-6.404-8.468-16.269-11.056H30.464c-9.865 2.588-16.269 6.273-16.269 11.055 0 20.846 121.61 20.846 121.61 0Z" fill="url(#N)"/><path d="M135.805 100.131c0-2.043-1.172-3.885-3.28-5.528 2.107-1.642 3.28-3.484 3.28-5.527s-1.172-3.885-3.28-5.528c2.107-1.642 3.28-3.484 3.28-5.527s-1.172-3.885-3.28-5.528c2.107-1.642 3.28-3.484 3.28-5.527s-1.172-3.885-3.28-5.528c2.107-1.642 3.28-3.484 3.28-5.527 0-2.044-1.172-3.885-3.28-5.528 2.107-1.642 3.28-3.484 3.28-5.527 0-17.188-82.673-20.204-111.687-9.047v31.103c0 1.784.886 3.36 2.24 4.319l44.502 44.502c31.718.495 64.945-4.705 64.945-15.602Z" fill="url(#O)"/><path d="M135.805 44.856c0-11.64-37.908-16.779-71.393-15.42v64.876c0 1.764.865 3.32 2.19 4.283l17.029 17.029c27.269-.895 52.174-6.059 52.174-15.493 0-2.043-1.172-3.885-3.28-5.527 2.107-1.642 3.28-3.484 3.28-5.528 0-2.043-1.172-3.884-3.28-5.527 2.107-1.643 3.28-3.484 3.28-5.528 0-2.043-1.172-3.885-3.28-5.527 2.107-1.643 3.28-3.484 3.28-5.528 0-2.042-1.172-3.885-3.28-5.527 2.107-1.643 3.28-3.484 3.28-5.528 0-2.043-1.172-3.885-3.28-5.527 2.107-1.643 3.28-3.486 3.28-5.528Z" fill="url(#P)"/><path d="M135.805 100.131c0-2.043-1.172-3.885-3.28-5.528 2.107-1.642 3.28-3.484 3.28-5.527s-1.172-3.885-3.28-5.527c2.107-1.643 3.28-3.485 3.28-5.528 0-2.043-1.172-3.885-3.28-5.528 2.107-1.642 3.28-3.484 3.28-5.527s-1.172-3.885-3.28-5.528c2.107-1.642 3.28-3.484 3.28-5.527s-1.172-3.885-3.28-5.528c2.107-1.642 3.28-3.484 3.28-5.527 0-9.64-26.005-14.821-53.964-15.545v33.695a5.28 5.28 0 0 0 2.047 4.174l41.997 41.998c6.174-2.374 9.92-5.389 9.92-9.047Z" fill="url(#Q)"/><path d="M135.805 66.966c0-2.043-1.172-3.885-3.28-5.528 2.107-1.642 3.28-3.484 3.28-5.527 0-2.044-1.172-3.885-3.28-5.528 2.107-1.642 3.28-3.484 3.28-5.527 0-5.217-7.617-9.127-19.035-11.733v16.644c0 1.6.712 3.03 1.834 4l16.258 16.259c.615-.965.943-1.984.943-3.06Z" fill="url(#R)"/><path d="M135.805 33.8c0-20.846-121.61-20.846-121.61 0 0 3.02 2.556 5.603 6.924 7.748 1.825.897 2.999 2.736 2.999 4.77v20.593a5.294 5.294 0 0 0 10.588 0v-8.139c0-6.6 5.774-11.705 12.328-10.912 2.371.286 4.815.534 7.312.742 5.692.476 10.066 5.244 10.066 10.955v34.756a5.294 5.294 0 0 0 10.588 0V61.335a3.42 3.42 0 0 1 6.84 0v1.669a5.294 5.294 0 0 0 10.589 0v-2.295c0-6.599 4.925-12.137 11.472-12.964a147.98 147.98 0 0 0 8.778-1.363 3.446 3.446 0 0 1 4.09 3.384 5.295 5.295 0 0 0 10.589 0v-.03c0-4.095 1.959-7.9 5.185-10.42 2.098-1.64 3.262-3.478 3.262-5.516Z" fill="url(#S)"/><path d="M135.806 33.8c0 2.038-1.165 3.876-3.262 5.517-3.227 2.518-5.185 6.324-5.185 10.418v.032a5.287 5.287 0 0 1-5.295 5.294 5.267 5.267 0 0 1-3.744-1.55 5.28 5.28 0 0 1-1.55-3.744 3.447 3.447 0 0 0-4.091-3.385c-2.77.52-5.709.976-8.779 1.362a13.115 13.115 0 0 0-9.503 6.076L63.056 22.48c-1.112-.897-1.744-2.02-1.665-3.432.009-.177.026-.353.053-.527 11.462-.606 23.6-.432 34.67.518 21.939 1.876 39.692 6.797 39.692 14.762Z" fill="url(#T)"/><path d="M68.154 11.996a5.547 5.547 0 1 1-7.845 7.845c-2.166-2.167-5.356-8.87-3.19-11.036 2.166-2.166 8.87 1.025 11.035 3.19Z" fill="url(#U)"/><path d="M72.083 11.983c.097 3.434-1.486 6.265-3.537 6.323-2.05.059-3.793-2.678-3.89-6.113C64.559 8.76 65.999.872 68.049.813c2.051-.058 3.937 7.735 4.034 11.17Z" fill="url(#V)"/><path d="M79.606 6.65c-.38-.013-.76.026-1.13.118-2.897.727-16.647 4.574-17.084 12.28-.273 4.799 7.656 6.283 14.733 6.656 6.463.34 12.039-3.105 12.418-7.66.428-5.16-.851-11.117-8.937-11.394Z" fill="url(#W)"/><path d="M79.606 6.65c-.38-.013-.76.026-1.13.118-2.897.727-16.647 4.574-17.084 12.28-.273 4.799 7.656 6.283 14.733 6.656 6.462.34 11.567-18.777 3.48-19.054Z" fill="url(#X)"/><path d="M15.88 29.754c-1.095 1.248-1.685 2.597-1.685 4.046 0 3.02 2.556 5.603 6.924 7.748 1.825.896 2.999 2.736 2.999 4.77v20.593a5.294 5.294 0 0 0 10.588 0v-8.139c0-6.601 5.774-11.705 12.328-10.913 2.371.287 4.815.535 7.312.743 5.692.476 10.066 5.243 10.066 10.955v34.755a5.294 5.294 0 1 0 10.588 0V61.335a3.42 3.42 0 0 1 6.84 0v1.669a5.294 5.294 0 0 0 10.589 0v-2.295c0-6.599 4.925-12.137 11.472-12.964 3.068-.388 6.009-.842 8.778-1.363a3.446 3.446 0 0 1 4.09 3.384 5.295 5.295 0 0 0 10.589 0v-.03c0-4.095 1.959-7.9 5.185-10.42 2.098-1.64 3.262-3.478 3.262-5.516 0-1.45-.59-2.798-1.684-4.046-13.548 15.451-104.694 15.451-118.242 0Z" fill="url(#Y)"/><defs><linearGradient id="a" x1="75.279" y1="121.202" x2="75.868" y2="130.908" gradientUnits="userSpaceOnUse"><stop stop-color="#F8F6FB"/><stop offset="1" stop-color="#EFDCFB"/></linearGradient><linearGradient id="b" x1="70.073" y1="88.522" x2="81.628" y2="132.132" gradientUnits="userSpaceOnUse"><stop stop-color="#F8F6FB"/><stop offset="1" stop-color="#EFDCFB"/></linearGradient><linearGradient id="c" x1="78.226" y1="131.042" x2="72.638" y2="86.336" gradientUnits="userSpaceOnUse"><stop stop-color="#F8F6FB"/><stop offset="1" stop-color="#EFDCFB"/></linearGradient><linearGradient id="d" x1="84.457" y1="121.358" x2="75.634" y2="54.887" gradientUnits="userSpaceOnUse"><stop stop-color="#EFDCFB" stop-opacity="0"/><stop offset=".029" stop-color="#E9D6F7" stop-opacity=".029"/><stop offset=".22" stop-color="#C5B5DE" stop-opacity=".22"/><stop offset=".414" stop-color="#AA9BCB" stop-opacity=".414"/><stop offset=".608" stop-color="#9688BD" stop-opacity=".608"/><stop offset=".803" stop-color="#8A7DB5" stop-opacity=".803"/><stop offset="1" stop-color="#8679B2"/></linearGradient><linearGradient id="e" x1="71.006" y1="85.054" x2="80.374" y2="120.411" gradientUnits="userSpaceOnUse"><stop stop-color="#FFDECF"/><stop offset=".379" stop-color="#FDC4B0"/><stop offset=".765" stop-color="#FBAE97"/><stop offset="1" stop-color="#FAA68E"/></linearGradient><linearGradient id="f" x1="118.422" y1="96.296" x2="112.411" y2="86.916" gradientUnits="userSpaceOnUse"><stop stop-color="#F82814" stop-opacity="0"/><stop offset=".245" stop-color="#F12817" stop-opacity=".245"/><stop offset=".605" stop-color="#DD2820" stop-opacity=".605"/><stop offset="1" stop-color="#C0272D"/></linearGradient><linearGradient id="g" x1="114.281" y1="102.076" x2="109.536" y2="94.671" gradientUnits="userSpaceOnUse"><stop stop-color="#F82814" stop-opacity="0"/><stop offset=".245" stop-color="#F12817" stop-opacity=".245"/><stop offset=".605" stop-color="#DD2820" stop-opacity=".605"/><stop offset="1" stop-color="#C0272D"/></linearGradient><linearGradient id="h" x1="120.596" y1="102.773" x2="117.735" y2="98.308" gradientUnits="userSpaceOnUse"><stop stop-color="#F82814" stop-opacity="0"/><stop offset=".245" stop-color="#F12817" stop-opacity=".245"/><stop offset=".605" stop-color="#DD2820" stop-opacity=".605"/><stop offset="1" stop-color="#C0272D"/></linearGradient><linearGradient id="i" x1="126.254" y1="97.793" x2="128.547" y2="89.539" gradientUnits="userSpaceOnUse"><stop stop-color="#F82814" stop-opacity="0"/><stop offset=".245" stop-color="#F12817" stop-opacity=".245"/><stop offset=".605" stop-color="#DD2820" stop-opacity=".605"/><stop offset="1" stop-color="#C0272D"/></linearGradient><linearGradient id="j" x1="121.706" y1="97.858" x2="123.517" y2="91.343" gradientUnits="userSpaceOnUse"><stop stop-color="#F82814" stop-opacity="0"/><stop offset=".245" stop-color="#F12817" stop-opacity=".245"/><stop offset=".605" stop-color="#DD2820" stop-opacity=".605"/><stop offset="1" stop-color="#C0272D"/></linearGradient><linearGradient id="k" x1="124.614" y1="102.535" x2="125.706" y2="98.607" gradientUnits="userSpaceOnUse"><stop stop-color="#F82814" stop-opacity="0"/><stop offset=".245" stop-color="#F12817" stop-opacity=".245"/><stop offset=".605" stop-color="#DD2820" stop-opacity=".605"/><stop offset="1" stop-color="#C0272D"/></linearGradient><linearGradient id="l" x1="75" y1="109.824" x2="75" y2="122.572" gradientUnits="userSpaceOnUse"><stop stop-color="#F82814" stop-opacity="0"/><stop offset=".246" stop-color="#F32816" stop-opacity=".246"/><stop offset=".551" stop-color="#E3281D" stop-opacity=".551"/><stop offset=".885" stop-color="#CA2728" stop-opacity=".885"/><stop offset="1" stop-color="#C0272D"/></linearGradient><linearGradient id="m" x1="71.006" y1="73.999" x2="80.374" y2="109.355" gradientUnits="userSpaceOnUse"><stop stop-color="#FFDECF"/><stop offset=".379" stop-color="#FDC4B0"/><stop offset=".765" stop-color="#FBAE97"/><stop offset="1" stop-color="#FAA68E"/></linearGradient><linearGradient id="n" x1="75" y1="99.431" x2="75" y2="110.412" gradientUnits="userSpaceOnUse"><stop stop-color="#F82814" stop-opacity="0"/><stop offset=".246" stop-color="#F32816" stop-opacity=".246"/><stop offset=".551" stop-color="#E3281D" stop-opacity=".551"/><stop offset=".885" stop-color="#CA2728" stop-opacity=".885"/><stop offset="1" stop-color="#C0272D"/></linearGradient><linearGradient id="o" x1="37.339" y1="93.551" x2="32.355" y2="85.774" gradientUnits="userSpaceOnUse"><stop stop-color="#F82814" stop-opacity="0"/><stop offset=".245" stop-color="#F12817" stop-opacity=".245"/><stop offset=".605" stop-color="#DD2820" stop-opacity=".605"/><stop offset="1" stop-color="#C0272D"/></linearGradient><linearGradient id="p" x1="33.268" y1="98.006" x2="29.334" y2="91.867" gradientUnits="userSpaceOnUse"><stop stop-color="#F82814" stop-opacity="0"/><stop offset=".245" stop-color="#F12817" stop-opacity=".245"/><stop offset=".605" stop-color="#DD2820" stop-opacity=".605"/><stop offset="1" stop-color="#C0272D"/></linearGradient><linearGradient id="q" x1="39.686" y1="98.498" x2="37.314" y2="94.796" gradientUnits="userSpaceOnUse"><stop stop-color="#F82814" stop-opacity="0"/><stop offset=".245" stop-color="#F12817" stop-opacity=".245"/><stop offset=".605" stop-color="#DD2820" stop-opacity=".605"/><stop offset="1" stop-color="#C0272D"/></linearGradient><linearGradient id="r" x1="45.675" y1="94.592" x2="47.484" y2="88.081" gradientUnits="userSpaceOnUse"><stop stop-color="#F82814" stop-opacity="0"/><stop offset=".245" stop-color="#F12817" stop-opacity=".245"/><stop offset=".605" stop-color="#DD2820" stop-opacity=".605"/><stop offset="1" stop-color="#C0272D"/></linearGradient><linearGradient id="s" x1="41.094" y1="94.636" x2="42.523" y2="89.496" gradientUnits="userSpaceOnUse"><stop stop-color="#F82814" stop-opacity="0"/><stop offset=".245" stop-color="#F12817" stop-opacity=".245"/><stop offset=".605" stop-color="#DD2820" stop-opacity=".605"/><stop offset="1" stop-color="#C0272D"/></linearGradient><linearGradient id="t" x1="43.953" y1="98.258" x2="44.814" y2="95.159" gradientUnits="userSpaceOnUse"><stop stop-color="#F82814" stop-opacity="0"/><stop offset=".245" stop-color="#F12817" stop-opacity=".245"/><stop offset=".605" stop-color="#DD2820" stop-opacity=".605"/><stop offset="1" stop-color="#C0272D"/></linearGradient><linearGradient id="u" x1="71.006" y1="62.944" x2="80.374" y2="98.3" gradientUnits="userSpaceOnUse"><stop stop-color="#FFDECF"/><stop offset=".379" stop-color="#FDC4B0"/><stop offset=".765" stop-color="#FBAE97"/><stop offset="1" stop-color="#FAA68E"/></linearGradient><linearGradient id="v" x1="75" y1="87.863" x2="75" y2="101.59" gradientUnits="userSpaceOnUse"><stop stop-color="#F82814" stop-opacity="0"/><stop offset=".246" stop-color="#F32816" stop-opacity=".246"/><stop offset=".551" stop-color="#E3281D" stop-opacity=".551"/><stop offset=".885" stop-color="#CA2728" stop-opacity=".885"/><stop offset="1" stop-color="#C0272D"/></linearGradient><linearGradient id="w" x1="80.377" y1="85.835" x2="75.394" y2="78.058" gradientUnits="userSpaceOnUse"><stop stop-color="#F82814" stop-opacity="0"/><stop offset=".245" stop-color="#F12817" stop-opacity=".245"/><stop offset=".605" stop-color="#DD2820" stop-opacity=".605"/><stop offset="1" stop-color="#C0272D"/></linearGradient><linearGradient id="x" x1="76.306" y1="90.291" x2="72.372" y2="84.151" gradientUnits="userSpaceOnUse"><stop stop-color="#F82814" stop-opacity="0"/><stop offset=".245" stop-color="#F12817" stop-opacity=".245"/><stop offset=".605" stop-color="#DD2820" stop-opacity=".605"/><stop offset="1" stop-color="#C0272D"/></linearGradient><linearGradient id="y" x1="82.724" y1="90.782" x2="80.353" y2="87.081" gradientUnits="userSpaceOnUse"><stop stop-color="#F82814" stop-opacity="0"/><stop offset=".245" stop-color="#F12817" stop-opacity=".245"/><stop offset=".605" stop-color="#DD2820" stop-opacity=".605"/><stop offset="1" stop-color="#C0272D"/></linearGradient><linearGradient id="z" x1="71.006" y1="51.889" x2="80.374" y2="87.245" gradientUnits="userSpaceOnUse"><stop stop-color="#FFDECF"/><stop offset=".379" stop-color="#FDC4B0"/><stop offset=".765" stop-color="#FBAE97"/><stop offset="1" stop-color="#FAA68E"/></linearGradient><linearGradient id="A" x1="75" y1="75.706" x2="75" y2="89.829" gradientUnits="userSpaceOnUse"><stop stop-color="#F82814" stop-opacity="0"/><stop offset=".246" stop-color="#F32816" stop-opacity=".246"/><stop offset=".551" stop-color="#E3281D" stop-opacity=".551"/><stop offset=".885" stop-color="#CA2728" stop-opacity=".885"/><stop offset="1" stop-color="#C0272D"/></linearGradient><linearGradient id="B" x1="126.357" y1="65.381" x2="128.309" y2="58.358" gradientUnits="userSpaceOnUse"><stop stop-color="#F82814" stop-opacity="0"/><stop offset=".245" stop-color="#F12817" stop-opacity=".245"/><stop offset=".605" stop-color="#DD2820" stop-opacity=".605"/><stop offset="1" stop-color="#C0272D"/></linearGradient><linearGradient id="C" x1="121.787" y1="65.432" x2="123.327" y2="59.888" gradientUnits="userSpaceOnUse"><stop stop-color="#F82814" stop-opacity="0"/><stop offset=".245" stop-color="#F12817" stop-opacity=".245"/><stop offset=".605" stop-color="#DD2820" stop-opacity=".605"/><stop offset="1" stop-color="#C0272D"/></linearGradient><linearGradient id="D" x1="124.66" y1="69.365" x2="125.589" y2="66.023" gradientUnits="userSpaceOnUse"><stop stop-color="#F82814" stop-opacity="0"/><stop offset=".245" stop-color="#F12817" stop-opacity=".245"/><stop offset=".605" stop-color="#DD2820" stop-opacity=".605"/><stop offset="1" stop-color="#C0272D"/></linearGradient><linearGradient id="E" x1="71.006" y1="40.834" x2="80.374" y2="76.19" gradientUnits="userSpaceOnUse"><stop stop-color="#FFDECF"/><stop offset=".379" stop-color="#FDC4B0"/><stop offset=".765" stop-color="#FBAE97"/><stop offset="1" stop-color="#FAA68E"/></linearGradient><linearGradient id="F" x1="75" y1="66.098" x2="75" y2="77.863" gradientUnits="userSpaceOnUse"><stop stop-color="#F82814" stop-opacity="0"/><stop offset=".246" stop-color="#F32816" stop-opacity=".246"/><stop offset=".551" stop-color="#E3281D" stop-opacity=".551"/><stop offset=".885" stop-color="#CA2728" stop-opacity=".885"/><stop offset="1" stop-color="#C0272D"/></linearGradient><linearGradient id="G" x1="71.006" y1="29.778" x2="80.374" y2="65.135" gradientUnits="userSpaceOnUse"><stop stop-color="#FFDECF"/><stop offset=".379" stop-color="#FDC4B0"/><stop offset=".765" stop-color="#FBAE97"/><stop offset="1" stop-color="#FAA68E"/></linearGradient><linearGradient id="H" x1="118.416" y1="40.992" x2="112.405" y2="31.612" gradientUnits="userSpaceOnUse"><stop stop-color="#F82814" stop-opacity="0"/><stop offset=".245" stop-color="#F12817" stop-opacity=".245"/><stop offset=".605" stop-color="#DD2820" stop-opacity=".605"/><stop offset="1" stop-color="#C0272D"/></linearGradient><linearGradient id="I" x1="114.275" y1="46.772" x2="109.53" y2="39.366" gradientUnits="userSpaceOnUse"><stop stop-color="#F82814" stop-opacity="0"/><stop offset=".245" stop-color="#F12817" stop-opacity=".245"/><stop offset=".605" stop-color="#DD2820" stop-opacity=".605"/><stop offset="1" stop-color="#C0272D"/></linearGradient><linearGradient id="J" x1="120.589" y1="47.468" x2="117.729" y2="43.004" gradientUnits="userSpaceOnUse"><stop stop-color="#F82814" stop-opacity="0"/><stop offset=".245" stop-color="#F12817" stop-opacity=".245"/><stop offset=".605" stop-color="#DD2820" stop-opacity=".605"/><stop offset="1" stop-color="#C0272D"/></linearGradient><linearGradient id="K" x1="126.244" y1="42.501" x2="128.537" y2="34.247" gradientUnits="userSpaceOnUse"><stop stop-color="#F82814" stop-opacity="0"/><stop offset=".245" stop-color="#F12817" stop-opacity=".245"/><stop offset=".605" stop-color="#DD2820" stop-opacity=".605"/><stop offset="1" stop-color="#C0272D"/></linearGradient><linearGradient id="L" x1="121.696" y1="42.566" x2="123.506" y2="36.05" gradientUnits="userSpaceOnUse"><stop stop-color="#F82814" stop-opacity="0"/><stop offset=".245" stop-color="#F12817" stop-opacity=".245"/><stop offset=".605" stop-color="#DD2820" stop-opacity=".605"/><stop offset="1" stop-color="#C0272D"/></linearGradient><linearGradient id="M" x1="124.604" y1="47.243" x2="125.695" y2="43.314" gradientUnits="userSpaceOnUse"><stop stop-color="#F82814" stop-opacity="0"/><stop offset=".245" stop-color="#F12817" stop-opacity=".245"/><stop offset=".605" stop-color="#DD2820" stop-opacity=".605"/><stop offset="1" stop-color="#C0272D"/></linearGradient><linearGradient id="N" x1="75" y1="52.961" x2="75" y2="68.451" gradientUnits="userSpaceOnUse"><stop stop-color="#F82814" stop-opacity="0"/><stop offset=".246" stop-color="#F32816" stop-opacity=".246"/><stop offset=".551" stop-color="#E3281D" stop-opacity=".551"/><stop offset=".885" stop-color="#CA2728" stop-opacity=".885"/><stop offset="1" stop-color="#C0272D"/></linearGradient><linearGradient id="O" x1="90.697" y1="69.073" x2="11.001" y2="7.785" gradientUnits="userSpaceOnUse"><stop stop-color="#F82814" stop-opacity="0"/><stop offset=".246" stop-color="#F12817" stop-opacity=".246"/><stop offset=".611" stop-color="#DD2820" stop-opacity=".611"/><stop offset="1" stop-color="#C0272D"/></linearGradient><linearGradient id="P" x1="111.268" y1="78.886" x2="51.66" y2="48.886" gradientUnits="userSpaceOnUse"><stop stop-color="#F82814" stop-opacity="0"/><stop offset=".246" stop-color="#F12817" stop-opacity=".246"/><stop offset=".611" stop-color="#DD2820" stop-opacity=".611"/><stop offset="1" stop-color="#C0272D"/></linearGradient><linearGradient id="Q" x1="115.317" y1="65.3" x2="68.258" y2="35.103" gradientUnits="userSpaceOnUse"><stop stop-color="#F82814" stop-opacity="0"/><stop offset=".246" stop-color="#F12817" stop-opacity=".246"/><stop offset=".611" stop-color="#DD2820" stop-opacity=".611"/><stop offset="1" stop-color="#C0272D"/></linearGradient><linearGradient id="R" x1="136.022" y1="56.803" x2="118.179" y2="40.234" gradientUnits="userSpaceOnUse"><stop stop-color="#F82814" stop-opacity="0"/><stop offset=".246" stop-color="#F12817" stop-opacity=".246"/><stop offset=".611" stop-color="#DD2820" stop-opacity=".611"/><stop offset="1" stop-color="#C0272D"/></linearGradient><linearGradient id="T" x1="103.693" y1="37.437" x2="65.85" y2="-44.719" gradientUnits="userSpaceOnUse"><stop stop-color="#F82814" stop-opacity="0"/><stop offset="1" stop-color="#C0272D"/></linearGradient><linearGradient id="U" x1="58.064" y1="15.742" x2="68.165" y2="13.084" gradientUnits="userSpaceOnUse"><stop stop-color="#BADA00"/><stop offset=".227" stop-color="#B0CE00"/><stop offset=".638" stop-color="#95AE00"/><stop offset="1" stop-color="#798C00"/></linearGradient><linearGradient id="V" x1="65.34" y1="7.157" x2="72.628" y2="9.464" gradientUnits="userSpaceOnUse"><stop stop-color="#BADA00"/><stop offset=".227" stop-color="#B0CE00"/><stop offset=".638" stop-color="#95AE00"/><stop offset="1" stop-color="#798C00"/></linearGradient><linearGradient id="W" x1="73.863" y1="13.45" x2="77.654" y2="25.168" gradientUnits="userSpaceOnUse"><stop stop-color="#FFA936"/><stop offset=".411" stop-color="#FF8548"/><stop offset=".778" stop-color="#FF6C54"/><stop offset="1" stop-color="#FF6359"/></linearGradient><linearGradient id="X" x1="73.186" y1="15.928" x2="87.432" y2="34.539" gradientUnits="userSpaceOnUse"><stop stop-color="#F82814" stop-opacity="0"/><stop offset="1" stop-color="#C0272D"/></linearGradient><linearGradient id="Y" x1="67.277" y1="48.52" x2="167.277" y2="-142.068" gradientUnits="userSpaceOnUse"><stop stop-color="#F82814" stop-opacity="0"/><stop offset="1" stop-color="#C0272D"/></linearGradient><radialGradient id="S" cx="0" cy="0" r="1" gradientUnits="userSpaceOnUse" gradientTransform="matrix(77.6521 0 0 54.7447 59.412 18.092)"><stop stop-color="#FFD945"/><stop offset=".313" stop-color="#FFD643"/><stop offset=".559" stop-color="#FFCC3D"/><stop offset=".783" stop-color="#FB3"/><stop offset=".992" stop-color="#FFA426"/><stop offset="1" stop-color="#FFA325"/></radialGradient></defs></svg>