<svg width="151" height="132" fill="none" xmlns="http://www.w3.org/2000/svg"><path d="M65.933 19.795S20.363 47.673 3.515 123.438c-1.254 5.638 5.192 9.802 9.807 6.33 20.2-15.193 63.143-42.327 122.562-52.08 6.772-1.112 10.191-8.754 6.507-14.545-8.975-14.108-29.991-35.825-76.458-43.348Z" fill="url(#a)"/><path d="M142.281 62.97C76.993 70.907 29.857 100.523 8.395 116.665c-1.13.85-2.369 1.241-3.578 1.267-.45 1.813-.888 3.646-1.304 5.516-1.253 5.635 5.197 9.791 9.81 6.321 20.203-15.196 63.157-42.337 122.592-52.086 6.733-1.104 10.166-8.725 6.509-14.486l-.143-.225Z" fill="url(#b)"/><path d="M144.787 68.588S132.919 25.984 61.9 16.138c0 0-45.36 27.491-61.702 100.432-1.216 5.43 5.252 9.307 9.845 5.899 1.753-1.3 3.679-2.691 5.773-4.153 2.622-1.831 6.222.048 6.222 3.245v.228a6.121 6.121 0 0 0 12.241 0v-6.412a15.208 15.208 0 0 1 7.928-13.356 297.326 297.326 0 0 1 42.295-18.936c2.576-.919 5.288.994 5.288 3.73a6.12 6.12 0 1 0 12.241 0v-7.88c0-.885.59-1.663 1.443-1.903l.04-.011a1.989 1.989 0 0 1 2.527 1.914v19.946a6.12 6.12 0 0 0 12.242 0V81.859c0-5.048 3.565-9.41 8.521-10.372a286.198 286.198 0 0 1 17.983-2.9Z" fill="url(#c)"/><path d="M61.9 16.138s-8.661 5.25-19.777 17.246l57.929 57.929a6.1 6.1 0 0 0 1.98-4.499v-7.878c0-.886.589-1.664 1.442-1.904l.04-.011a1.99 1.99 0 0 1 2.528 1.915v18.367l7.529 7.529a6.118 6.118 0 0 0 4.712-5.951V81.859c0-5.048 3.565-9.41 8.521-10.372a285.715 285.715 0 0 1 17.983-2.9S132.919 25.985 61.9 16.139Z" fill="url(#d)"/><path d="M76.703 30.44c-.6-.68-1.298-1.327-2.094-1.927-6.49-4.894-17.012-4.894-23.502 0-6.153 4.64-6.469 12.01-.957 16.934L97.44 92.735a6.118 6.118 0 0 0 4.592-5.921v-7.878c0-.886.59-1.664 1.443-1.904l.04-.011a1.988 1.988 0 0 1 2.527 1.914V98.88c0 1.465.516 2.808 1.373 3.861.417.432.878.848 1.377 1.247a6.121 6.121 0 0 0 9.492-5.107V81.859c0-2.704 1.023-5.21 2.735-7.103L76.703 30.44Z" fill="url(#e)"/><path d="M53.803 50.11c-2.251-2.602-6.316-4.34-10.957-4.34-7.082 0-12.823 4.045-12.823 9.035 0 2.13 1.049 4.086 2.799 5.63l30.88 30.976a296.589 296.589 0 0 1 20.8-8.326 3.915 3.915 0 0 1 2.002-.17L53.803 50.11Z" fill="url(#f)"/><path d="M106.379 57.447c-2.279-2.506-6.263-4.168-10.8-4.168-7.082 0-12.823 4.044-12.823 9.034 0 .204.013.405.032.606-5.534-2.927-13.217-2.529-18.161 1.2-5.205 3.924-5.519 10.14-.943 14.342l9.092 9.092a295.945 295.945 0 0 1 11.726-4.467c2.576-.92 5.287.993 5.287 3.729a6.12 6.12 0 1 0 12.242 0v-7.879c0-.886.589-1.664 1.442-1.904l.04-.01a1.99 1.99 0 0 1 2.528 1.914V98.88a6.121 6.121 0 0 0 12.242 0V81.86c0-3.371 1.591-6.434 4.123-8.385l-16.027-16.027Z" fill="url(#g)"/><path d="m62.806 91.812-10.52-10.52c-2.279-2.506-6.263-4.169-10.801-4.169-5.555 0-10.284 2.49-12.065 5.971-5.19-1.704-11.454-.959-15.698 2.242-5.205 3.925-5.519 10.14-.943 14.343l21.5 21.5v-5.802a15.205 15.205 0 0 1 7.928-13.355 296.793 296.793 0 0 1 20.599-10.21Z" fill="url(#h)"/><path d="M28.806 66.255a1.09 1.09 0 1 0-1.925-1.021 1.09 1.09 0 0 0 1.925 1.021ZM25.229 66.695a.86.86 0 1 0-.807 1.52.86.86 0 0 0 .807-1.52ZM26.174 71.18a.519.519 0 1 0-.486.917.519.519 0 0 0 .486-.917ZM33.612 72.612a1.09 1.09 0 1 0-.062 2.178 1.09 1.09 0 0 0 .062-2.178ZM39.282 64.903a.86.86 0 1 0-.049 1.72.86.86 0 0 0 .049-1.72ZM31.29 65.23a.519.519 0 1 0-.03 1.038.519.519 0 0 0 .03-1.038ZM29.578 69.699a.806.806 0 1 0 .358 1.57.806.806 0 0 0-.358-1.57ZM30.48 67.45a.636.636 0 1 0 .282 1.24.636.636 0 0 0-.283-1.24ZM27.895 68.694a.383.383 0 1 0-.17-.747.383.383 0 0 0 .17.747ZM49.01 63.036a1.09 1.09 0 1 0-1.925-1.022 1.09 1.09 0 0 0 1.926 1.022ZM43.734 72.408a.86.86 0 1 0-.806 1.52.86.86 0 0 0 .806-1.52ZM42.374 67.675a.518.518 0 1 0-.486.916.518.518 0 0 0 .486-.916ZM54.946 64.506a1.09 1.09 0 1 0-.062 2.178 1.09 1.09 0 0 0 .062-2.178ZM54.826 63.051a.86.86 0 1 0-1.72-.048.86.86 0 0 0 1.72.048ZM51.493 62.01a.519.519 0 1 0-.029 1.038.519.519 0 0 0 .03-1.037ZM46.794 69.54a.806.806 0 1 0 .358 1.57.806.806 0 0 0-.358-1.57ZM50.683 64.23a.636.636 0 1 0 .283 1.24.636.636 0 0 0-.283-1.24ZM48.098 65.475a.383.383 0 1 0-.17-.747.383.383 0 0 0 .17.747ZM60.31 80.52a1.09 1.09 0 1 0-1.925-1.02 1.09 1.09 0 0 0 1.925 1.02ZM56.733 80.96a.86.86 0 1 0-.807 1.52.86.86 0 0 0 .806-1.52ZM57.678 85.445a.519.519 0 1 0-.486.917.519.519 0 0 0 .486-.916ZM65.117 86.878a1.09 1.09 0 1 0-.062 2.178 1.09 1.09 0 0 0 .061-2.178ZM113.847 62.313a.86.86 0 1 0-1.555.737.86.86 0 0 0 1.555-.737ZM62.793 79.496a.519.519 0 1 0-.029 1.037.519.519 0 0 0 .03-1.037ZM61.082 83.964a.806.806 0 1 0 .358 1.571.806.806 0 0 0-.358-1.57ZM61.983 81.716a.636.636 0 1 0 .283 1.24.636.636 0 0 0-.283-1.24ZM59.4 82.96a.383.383 0 1 0-.171-.747.383.383 0 0 0 .17.747ZM60.387 32.978a1.09 1.09 0 1 0-1.926-1.022 1.09 1.09 0 0 0 1.926 1.022ZM109.176 69.684a.86.86 0 1 0-1.719-.03.86.86 0 0 0 1.719.03ZM112.779 66.325a.52.52 0 1 0-1.038-.016.52.52 0 0 0 1.038.016ZM66.323 34.448a1.09 1.09 0 1 0-.062 2.179 1.09 1.09 0 0 0 .062-2.179ZM66.202 32.994a.86.86 0 1 0-1.72-.05.86.86 0 0 0 1.72.05ZM62.87 31.953a.519.519 0 1 0-.03 1.038.519.519 0 0 0 .03-1.038ZM113.12 71.11a.805.805 0 1 0-1.238 1.031.805.805 0 0 0 1.238-1.03ZM62.06 34.173a.636.636 0 1 0 .282 1.24.636.636 0 0 0-.283-1.24ZM59.474 35.417a.383.383 0 1 0-.17-.747.383.383 0 0 0 .17.747ZM90.12 55.561a1.09 1.09 0 1 0 1.848 1.158 1.09 1.09 0 0 0-1.847-1.158ZM93.72 55.38a.86.86 0 1 0 .915-1.457.86.86 0 0 0-.914 1.458ZM93.1 50.839a.519.519 0 1 0 .552-.88.519.519 0 0 0-.551.88ZM85.786 48.874a1.09 1.09 0 1 0 .219-2.169 1.09 1.09 0 0 0-.219 2.169ZM79.575 56.154a.86.86 0 1 0 .172-1.713.86.86 0 0 0-.172 1.713ZM87.571 56.404a.518.518 0 1 0 .104-1.031.518.518 0 0 0-.104 1.031ZM89.6 52.07a.805.805 0 1 0-.244-1.592.805.805 0 0 0 .244 1.593ZM88.538 54.248a.636.636 0 1 0-.192-1.257.636.636 0 0 0 .192 1.257ZM91.206 53.194a.383.383 0 1 0 .116.758.383.383 0 0 0-.116-.758ZM69.737 57.315a1.09 1.09 0 1 0 1.847 1.158 1.09 1.09 0 0 0-1.847-1.158ZM75.675 48.348a.86.86 0 1 0 .914-1.458.86.86 0 0 0-.914 1.458ZM76.69 53.167a.519.519 0 1 0 .551-.879.519.519 0 0 0-.55.879ZM63.923 55.42a1.09 1.09 0 1 0 .218-2.168 1.09 1.09 0 0 0-.218 2.169ZM63.938 56.88a.86.86 0 1 0 1.711.173.86.86 0 0 0-1.711-.173ZM67.188 58.158a.518.518 0 1 0 .104-1.031.518.518 0 0 0-.105 1.031ZM72.416 50.989a.806.806 0 1 0-.244-1.593.806.806 0 0 0 .244 1.593ZM68.155 56.003a.636.636 0 1 0-.193-1.258.636.636 0 0 0 .193 1.258ZM70.822 54.948a.383.383 0 1 0 .117.758.383.383 0 0 0-.117-.758ZM28.301 107.234a1.09 1.09 0 1 0 2.157.31 1.09 1.09 0 0 0-2.157-.31ZM31.519 105.609a.86.86 0 1 0 .244-1.703.86.86 0 0 0-.244 1.703ZM29.11 101.709a.52.52 0 1 0 .146-1.03.52.52 0 0 0-.146 1.03ZM21.627 102.88a1.09 1.09 0 1 0-.68-2.07 1.09 1.09 0 0 0 .68 2.07ZM18.904 112.055a.86.86 0 1 0-.539-1.635.86.86 0 0 0 .539 1.635ZM26.313 109.039a.518.518 0 1 0-.323-.985.518.518 0 0 0 .323.985ZM26.409 104.255a.805.805 0 1 0-.868-1.356.805.805 0 0 0 .868 1.356ZM26.322 106.676a.635.635 0 1 0-.684-1.07.635.635 0 0 0 .684 1.07ZM28.333 104.63a.383.383 0 1 0 .412.645.383.383 0 0 0-.412-.645ZM10.382 117.107a1.09 1.09 0 1 0 2.157.31 1.09 1.09 0 0 0-2.157-.31ZM12.171 106.502a.861.861 0 1 0 .243-1.705.861.861 0 0 0-.243 1.705ZM15.055 110.494a.518.518 0 1 0 .148-1.026.518.518 0 0 0-.148 1.026ZM4.3 117.735a1.09 1.09 0 1 0-.682-2.072 1.09 1.09 0 0 0 .681 2.072ZM4.905 119.062a.86.86 0 1 0 1.635-.536.86.86 0 0 0-1.635.536ZM8.394 118.913a.52.52 0 1 0-.326-.987.52.52 0 0 0 .326.987ZM10.265 110.237a.805.805 0 1 0-.867-1.356.805.805 0 0 0 .867 1.356ZM8.403 116.549a.635.635 0 1 0-.684-1.07.635.635 0 0 0 .684 1.07ZM10.414 114.503a.384.384 0 1 0 .415.646.384.384 0 0 0-.415-.646Z" fill="#FFEAA2"/><path d="M64.032 56.153c3.73 0 6.753-2.13 6.753-4.759 0-2.628-3.024-4.758-6.753-4.758-3.73 0-6.754 2.13-6.754 4.758s3.024 4.759 6.754 4.759Z" fill="url(#i)"/><path d="M63.315 49.598a1.08 1.08 0 1 0 0-2.159 1.08 1.08 0 0 0 0 2.159Z" fill="url(#j)"/><path d="M61.312 52.16a.852.852 0 1 0 0-1.703.852.852 0 0 0 0 1.704Z" fill="url(#k)"/><path d="M65.024 52.537a.514.514 0 1 0 0-1.027.514.514 0 0 0 0 1.027Z" fill="url(#l)"/><path d="M36.064 80.378c3.73 0 6.753-2.13 6.753-4.758s-3.023-4.758-6.753-4.758-6.753 2.13-6.753 4.758 3.023 4.758 6.753 4.758Z" fill="url(#m)"/><path d="M35.348 73.823a1.08 1.08 0 1 0 0-2.158 1.08 1.08 0 0 0 0 2.158Z" fill="url(#n)"/><path d="M33.344 76.386a.852.852 0 1 0 0-1.703.852.852 0 0 0 0 1.703Z" fill="url(#o)"/><path d="M37.057 76.763a.513.513 0 1 0 0-1.027.513.513 0 0 0 0 1.027Z" fill="url(#p)"/><path d="M70.88 87.344c3.73 0 6.753-2.13 6.753-4.758s-3.023-4.758-6.753-4.758-6.753 2.13-6.753 4.758 3.023 4.758 6.753 4.758Z" fill="url(#q)"/><path d="M70.164 80.79a1.08 1.08 0 1 0 0-2.159 1.08 1.08 0 0 0 0 2.159Z" fill="url(#r)"/><path d="M68.16 83.352a.852.852 0 1 0 0-1.703.852.852 0 0 0 0 1.703Z" fill="url(#s)"/><path d="M71.873 83.729a.514.514 0 1 0 0-1.027.514.514 0 0 0 0 1.027Z" fill="url(#t)"/><path d="M120.684 71.593c3.73 0 6.753-2.13 6.753-4.758s-3.023-4.758-6.753-4.758-6.753 2.13-6.753 4.758 3.023 4.758 6.753 4.758Z" fill="url(#u)"/><path d="M119.968 65.039a1.079 1.079 0 1 0 0-2.158 1.079 1.079 0 0 0 0 2.158Z" fill="url(#v)"/><path d="M117.964 67.602a.852.852 0 1 0 0-1.705.852.852 0 0 0 0 1.705Z" fill="url(#w)"/><path d="M121.677 67.978a.513.513 0 1 0 0-1.027.513.513 0 0 0 0 1.027Z" fill="url(#x)"/><path d="M64.394 27.856c3.73 0 6.753-2.13 6.753-4.759 0-2.628-3.023-4.758-6.753-4.758s-6.753 2.13-6.753 4.758 3.023 4.759 6.753 4.759Z" fill="url(#y)"/><path d="M63.678 21.3a1.08 1.08 0 1 0 0-2.157 1.08 1.08 0 0 0 0 2.158Z" fill="url(#z)"/><path d="M61.674 23.864a.852.852 0 1 0 0-1.704.852.852 0 0 0 0 1.704Z" fill="url(#A)"/><path d="M65.387 24.24a.513.513 0 1 0 0-1.027.513.513 0 0 0 0 1.027Z" fill="url(#B)"/><path d="M74.61 28.513c-6.49-4.894-17.013-4.894-23.503 0-6.49 4.894-6.49 12.83 0 17.723 6.49 4.895 17.012 4.895 23.502 0 6.49-4.894 6.49-12.829 0-17.723ZM55.395 40.561c-4.121-2.714-4.121-7.116 0-9.83 4.12-2.715 10.802-2.714 14.923 0 4.12 2.715 4.122 7.116.002 9.83-4.122 2.715-10.805 2.715-14.925 0Z" fill="url(#C)"/><path d="M53.082 43.471c5.398 3.924 14.153 3.924 19.55 0 5.4-3.925 5.398-10.287 0-14.21-5.4-3.926-14.15-3.926-19.55 0-5.398 3.923-5.4 10.285 0 14.21Zm17.238-12.74c4.12 2.714 4.12 7.116 0 9.83-4.121 2.714-10.803 2.713-14.924-.001-4.12-2.715-4.122-7.116-.001-9.83 4.12-2.714 10.804-2.714 14.925 0Z" fill="url(#D)"/><path d="M9.443 104.155c2.431.938 5.532.243 6.925-1.554.274-.353.153-.769-.229-1.194-.422-.471-.27-1.092.309-1.47l.098-.064c.748-.49.577-1.354-.334-1.68l-3.625-1.3c-.91-.326-2.006.084-2.129.798-.095.55-.735.975-1.521 1.008-.63.025-1.122.18-1.373.503-1.393 1.797-.552 4.014 1.88 4.953Z" fill="url(#E)"/><path d="M33.783 85.336c-5.54-4.177-14.521-4.177-20.06 0-5.54 4.177-5.54 10.95 0 15.128 5.539 4.177 14.52 4.177 20.06 0 5.54-4.178 5.54-10.95 0-15.128Zm-16.4 10.283c-3.518-2.316-3.518-6.074 0-8.39 3.517-2.317 9.22-2.316 12.737 0 3.518 2.317 3.52 6.074.002 8.39-3.517 2.317-9.222 2.317-12.74 0Z" fill="url(#F)"/><path d="M15.41 98.103c4.607 3.349 12.079 3.349 16.686 0 4.61-3.35 4.608-8.78 0-12.13-4.609-3.35-12.078-3.35-16.687 0-4.607 3.35-4.609 8.78 0 12.13Zm14.712-10.875c3.518 2.317 3.518 6.074 0 8.391-3.517 2.317-9.22 2.316-12.737 0-3.518-2.318-3.519-6.074-.002-8.39 3.517-2.318 9.222-2.318 12.74 0Z" fill="url(#G)"/><path d="M99.974 70.345c-2.431-.938-5.532-.243-6.925 1.554-.274.353-.153.769.229 1.194.422.47.27 1.091-.309 1.47l-.098.064c-.748.49-.577 1.354.334 1.68l3.625 1.3c.91.326 2.006-.084 2.129-.798.095-.55.735-.976 1.521-1.008.63-.025 1.122-.18 1.373-.503 1.393-1.797.552-4.014-1.88-4.953Z" fill="url(#H)"/><path d="M95.578 71.347c7.082 0 12.823-4.044 12.823-9.034 0-4.99-5.741-9.034-12.823-9.034-7.081 0-12.822 4.044-12.822 9.034 0 4.99 5.74 9.034 12.822 9.034Z" fill="url(#I)"/><path d="M94.218 58.902a2.049 2.049 0 1 0 0-4.097 2.049 2.049 0 0 0 0 4.097Z" fill="url(#J)"/><path d="M90.413 63.768a1.617 1.617 0 1 0 0-3.234 1.617 1.617 0 0 0 0 3.234Z" fill="url(#K)"/><path d="M97.462 64.483a.975.975 0 1 0 0-1.95.975.975 0 0 0 0 1.95Z" fill="url(#L)"/><path d="M41.484 95.192c7.082 0 12.823-4.045 12.823-9.034 0-4.99-5.741-9.035-12.823-9.035-7.081 0-12.822 4.045-12.822 9.035s5.74 9.034 12.822 9.034Z" fill="url(#M)"/><path d="M40.124 82.747a2.049 2.049 0 1 0 0-4.097 2.049 2.049 0 0 0 0 4.097Z" fill="url(#N)"/><path d="M36.32 87.613a1.617 1.617 0 1 0 0-3.235 1.617 1.617 0 0 0 0 3.235Z" fill="url(#O)"/><path d="M43.37 88.328a.975.975 0 1 0 0-1.95.975.975 0 0 0 0 1.95Z" fill="url(#P)"/><path d="M68.802 58.834c-2.431-.938-5.532-.243-6.925 1.554-.274.353-.153.769.229 1.194.422.47.27 1.092-.309 1.47l-.098.064c-.748.49-.577 1.354.334 1.68l3.625 1.3c.91.326 2.006-.084 2.13-.797.094-.55.734-.976 1.52-1.008.63-.026 1.122-.18 1.373-.504 1.393-1.796.552-4.014-1.88-4.953Z" fill="url(#Q)"/><path d="M72.436 87.212c2.978-.496 5.197-2.376 5.197-4.626 0-2.628-3.023-4.758-6.753-4.758-2.373 0-4.456.864-5.66 2.168l7.216 7.216Z" fill="url(#R)"/><path d="M84.688 64.118c-5.54-4.177-14.52-4.177-20.06 0-5.54 4.178-5.54 10.95 0 15.128 5.54 4.177 14.52 4.177 20.06 0 5.54-4.178 5.54-10.95 0-15.128Zm-16.4 10.284c-3.517-2.317-3.517-6.075 0-8.391 3.518-2.317 9.22-2.316 12.738 0 3.517 2.317 3.519 6.074.001 8.39-3.517 2.317-9.221 2.317-12.739 0Z" fill="url(#S)"/><path d="M66.314 76.885c4.608 3.35 12.08 3.35 16.688 0 4.608-3.35 4.607-8.78 0-12.13-4.61-3.35-12.079-3.35-16.688 0-4.607 3.35-4.608 8.78 0 12.13Zm14.713-10.874c3.518 2.317 3.518 6.074 0 8.39-3.517 2.317-9.22 2.317-12.737 0-3.518-2.317-3.52-6.073-.002-8.39 3.518-2.317 9.222-2.317 12.74 0Z" fill="url(#T)"/><path d="M22.429 72.955c-3.232 0-5.853 1.866-5.853 4.168 0 2.303 2.62 4.169 5.853 4.169 3.232 0 5.853-1.866 5.853-4.169 0-2.302-2.62-4.168-5.853-4.168Zm0 5.938c-1.372 0-2.484-.792-2.484-1.77 0-.977 1.112-1.769 2.484-1.769 1.372 0 2.484.792 2.484 1.77 0 .977-1.112 1.769-2.484 1.769Z" fill="url(#U)"/><path d="M52.092 64.83c-3.232 0-5.853 1.867-5.853 4.169 0 2.302 2.62 4.168 5.853 4.168 3.232 0 5.853-1.866 5.853-4.168s-2.621-4.169-5.853-4.169Zm0 5.938c-1.372 0-2.484-.792-2.484-1.77 0-.977 1.112-1.769 2.484-1.769 1.372 0 2.484.792 2.484 1.77 0 .977-1.112 1.769-2.484 1.769Z" fill="url(#V)"/><path d="M89.867 43.855c-3.232 0-5.852 1.866-5.852 4.168 0 2.303 2.62 4.169 5.852 4.169 3.233 0 5.853-1.866 5.853-4.169 0-2.302-2.62-4.168-5.853-4.168Zm0 5.938c-1.372 0-2.484-.792-2.484-1.77 0-.977 1.112-1.77 2.484-1.77 1.372 0 2.484.793 2.484 1.77 0 .978-1.112 1.77-2.484 1.77Z" fill="url(#W)"/><path d="M10.85 105.34c-3.232 0-5.852 1.867-5.852 4.169 0 2.302 2.62 4.168 5.853 4.168 3.232 0 5.852-1.866 5.852-4.168s-2.62-4.169-5.852-4.169Zm0 5.938c-1.371 0-2.483-.792-2.483-1.769 0-.977 1.112-1.77 2.484-1.77 1.372 0 2.484.792 2.484 1.77 0 .977-1.112 1.769-2.484 1.769Z" fill="url(#X)"/><path d="M42.846 63.84c7.081 0 12.822-4.046 12.822-9.035 0-4.99-5.74-9.035-12.822-9.035-7.082 0-12.823 4.045-12.823 9.035s5.741 9.034 12.823 9.034Z" fill="url(#Y)"/><path d="M41.485 51.394a2.049 2.049 0 1 0 0-4.097 2.049 2.049 0 0 0 0 4.097Z" fill="url(#Z)"/><path d="M37.68 56.26a1.617 1.617 0 1 0 0-3.235 1.617 1.617 0 0 0 0 3.235Z" fill="url(#aa)"/><path d="M44.73 56.975a.975.975 0 1 0 0-1.95.975.975 0 0 0 0 1.95Z" fill="url(#ab)"/><path d="M88.405 31.565c-2.43-.939-5.531-.243-6.925 1.553-.274.354-.152.77.23 1.195.422.47.27 1.091-.31 1.47l-.097.064c-.749.49-.577 1.353.334 1.68l3.624 1.299c.911.327 2.006-.084 2.13-.797.095-.55.735-.976 1.521-1.008.63-.026 1.121-.18 1.372-.503 1.394-1.797.552-4.015-1.879-4.953Z" fill="url(#ac)"/><path d="M63.223 21.683c11 4.183 21.403 10.39 34.73 20.18 13.326 9.788 23.579 24.443 31.186 33.928 4.086 5.096 15.336 4.17 19.051-1.636 2.481-3.877 2.489-11.709-.039-15.294-7.46-10.58-20.021-23.008-35.537-34.405C97.098 13.06 81.749 4.987 69.849 1.346 65.816.114 61.394 1.924 58.913 5.8c-3.715 5.806-1.6 13.637 4.31 15.883Z" fill="url(#ad)"/><defs><linearGradient id="a" x1="65.741" y1="78.905" x2="73.656" y2="96.257" gradientUnits="userSpaceOnUse"><stop stop-color="#FAA68E"/><stop offset=".206" stop-color="#FBA682"/><stop offset=".581" stop-color="#FDA861"/><stop offset="1" stop-color="#FFA936"/></linearGradient><linearGradient id="b" x1="74.02" y1="97.407" x2="67.34" y2="78.084" gradientUnits="userSpaceOnUse"><stop stop-color="#F82814" stop-opacity="0"/><stop offset=".245" stop-color="#F12817" stop-opacity=".245"/><stop offset=".605" stop-color="#DD2820" stop-opacity=".605"/><stop offset="1" stop-color="#C0272D"/></linearGradient><linearGradient id="c" x1="42.715" y1="56.051" x2="77.963" y2="98.265" gradientUnits="userSpaceOnUse"><stop stop-color="#FFD945"/><stop offset=".304" stop-color="#FFCD3E"/><stop offset=".856" stop-color="#FFAD2B"/><stop offset="1" stop-color="#FFA325"/></linearGradient><linearGradient id="d" x1="91.514" y1="53.739" x2="104.02" y2="36.009" gradientUnits="userSpaceOnUse"><stop stop-color="#F82814" stop-opacity="0"/><stop offset="1" stop-color="#C0272D"/></linearGradient><linearGradient id="e" x1="85.71" y1="60.731" x2="29.356" y2="-26.439" gradientUnits="userSpaceOnUse"><stop stop-color="#F82814" stop-opacity="0"/><stop offset="1" stop-color="#C0272D"/></linearGradient><linearGradient id="f" x1="56.869" y1="67.071" x2="33.125" y2="22.588" gradientUnits="userSpaceOnUse"><stop stop-color="#F82814" stop-opacity="0"/><stop offset="1" stop-color="#C0272D"/></linearGradient><linearGradient id="g" x1="94.599" y1="79.564" x2="70.959" y2="35.029" gradientUnits="userSpaceOnUse"><stop stop-color="#F82814" stop-opacity="0"/><stop offset="1" stop-color="#C0272D"/></linearGradient><linearGradient id="h" x1="42.316" y1="103.912" x2="23.32" y2="71.619" gradientUnits="userSpaceOnUse"><stop stop-color="#F82814" stop-opacity="0"/><stop offset="1" stop-color="#C0272D"/></linearGradient><linearGradient id="i" x1="62.59" y1="47.901" x2="65.48" y2="54.905" gradientUnits="userSpaceOnUse"><stop stop-color="#BADA00"/><stop offset=".227" stop-color="#B0CE00"/><stop offset=".638" stop-color="#95AE00"/><stop offset="1" stop-color="#798C00"/></linearGradient><linearGradient id="j" x1="63.947" y1="50.358" x2="61.19" y2="46.055" gradientUnits="userSpaceOnUse"><stop stop-color="#798C00" stop-opacity="0"/><stop offset=".654" stop-color="#556100" stop-opacity=".654"/><stop offset="1" stop-color="#464F00"/></linearGradient><linearGradient id="k" x1="61.755" y1="52.858" x2="59.579" y2="49.462" gradientUnits="userSpaceOnUse"><stop stop-color="#798C00" stop-opacity="0"/><stop offset=".654" stop-color="#556100" stop-opacity=".654"/><stop offset="1" stop-color="#464F00"/></linearGradient><linearGradient id="l" x1="65.192" y1="53.139" x2="63.88" y2="51.091" gradientUnits="userSpaceOnUse"><stop stop-color="#798C00" stop-opacity="0"/><stop offset=".654" stop-color="#556100" stop-opacity=".654"/><stop offset="1" stop-color="#464F00"/></linearGradient><linearGradient id="m" x1="34.622" y1="72.127" x2="37.513" y2="79.131" gradientUnits="userSpaceOnUse"><stop stop-color="#BADA00"/><stop offset=".227" stop-color="#B0CE00"/><stop offset=".638" stop-color="#95AE00"/><stop offset="1" stop-color="#798C00"/></linearGradient><linearGradient id="n" x1="35.967" y1="74.599" x2="33.21" y2="70.297" gradientUnits="userSpaceOnUse"><stop stop-color="#798C00" stop-opacity="0"/><stop offset=".654" stop-color="#556100" stop-opacity=".654"/><stop offset="1" stop-color="#464F00"/></linearGradient><linearGradient id="o" x1="33.776" y1="77.1" x2="31.6" y2="73.703" gradientUnits="userSpaceOnUse"><stop stop-color="#798C00" stop-opacity="0"/><stop offset=".654" stop-color="#556100" stop-opacity=".654"/><stop offset="1" stop-color="#464F00"/></linearGradient><linearGradient id="p" x1="37.213" y1="77.38" x2="35.901" y2="75.333" gradientUnits="userSpaceOnUse"><stop stop-color="#798C00" stop-opacity="0"/><stop offset=".654" stop-color="#556100" stop-opacity=".654"/><stop offset="1" stop-color="#464F00"/></linearGradient><linearGradient id="q" x1="69.439" y1="79.093" x2="72.329" y2="86.097" gradientUnits="userSpaceOnUse"><stop stop-color="#BADA00"/><stop offset=".227" stop-color="#B0CE00"/><stop offset=".638" stop-color="#95AE00"/><stop offset="1" stop-color="#798C00"/></linearGradient><linearGradient id="r" x1="70.802" y1="81.565" x2="68.045" y2="77.263" gradientUnits="userSpaceOnUse"><stop stop-color="#798C00" stop-opacity="0"/><stop offset=".654" stop-color="#556100" stop-opacity=".654"/><stop offset="1" stop-color="#464F00"/></linearGradient><linearGradient id="s" x1="68.611" y1="84.065" x2="66.435" y2="80.669" gradientUnits="userSpaceOnUse"><stop stop-color="#798C00" stop-opacity="0"/><stop offset=".654" stop-color="#556100" stop-opacity=".654"/><stop offset="1" stop-color="#464F00"/></linearGradient><linearGradient id="t" x1="72.048" y1="84.346" x2="70.736" y2="82.299" gradientUnits="userSpaceOnUse"><stop stop-color="#798C00" stop-opacity="0"/><stop offset=".654" stop-color="#556100" stop-opacity=".654"/><stop offset="1" stop-color="#464F00"/></linearGradient><linearGradient id="u" x1="119.242" y1="63.342" x2="122.133" y2="70.346" gradientUnits="userSpaceOnUse"><stop stop-color="#BADA00"/><stop offset=".227" stop-color="#B0CE00"/><stop offset=".638" stop-color="#95AE00"/><stop offset="1" stop-color="#798C00"/></linearGradient><linearGradient id="v" x1="120.63" y1="65.8" x2="117.873" y2="61.498" gradientUnits="userSpaceOnUse"><stop stop-color="#798C00" stop-opacity="0"/><stop offset=".654" stop-color="#556100" stop-opacity=".654"/><stop offset="1" stop-color="#464F00"/></linearGradient><linearGradient id="w" x1="118.438" y1="68.301" x2="116.262" y2="64.904" gradientUnits="userSpaceOnUse"><stop stop-color="#798C00" stop-opacity="0"/><stop offset=".654" stop-color="#556100" stop-opacity=".654"/><stop offset="1" stop-color="#464F00"/></linearGradient><linearGradient id="x" x1="121.875" y1="68.582" x2="120.563" y2="66.534" gradientUnits="userSpaceOnUse"><stop stop-color="#798C00" stop-opacity="0"/><stop offset=".654" stop-color="#556100" stop-opacity=".654"/><stop offset="1" stop-color="#464F00"/></linearGradient><linearGradient id="y" x1="62.952" y1="19.604" x2="65.843" y2="26.608" gradientUnits="userSpaceOnUse"><stop stop-color="#BADA00"/><stop offset=".227" stop-color="#B0CE00"/><stop offset=".638" stop-color="#95AE00"/><stop offset="1" stop-color="#798C00"/></linearGradient><linearGradient id="z" x1="64.306" y1="22.046" x2="61.549" y2="17.744" gradientUnits="userSpaceOnUse"><stop stop-color="#798C00" stop-opacity="0"/><stop offset=".654" stop-color="#556100" stop-opacity=".654"/><stop offset="1" stop-color="#464F00"/></linearGradient><linearGradient id="A" x1="62.115" y1="24.547" x2="59.938" y2="21.15" gradientUnits="userSpaceOnUse"><stop stop-color="#798C00" stop-opacity="0"/><stop offset=".654" stop-color="#556100" stop-opacity=".654"/><stop offset="1" stop-color="#464F00"/></linearGradient><linearGradient id="B" x1="65.552" y1="24.828" x2="64.239" y2="22.78" gradientUnits="userSpaceOnUse"><stop stop-color="#798C00" stop-opacity="0"/><stop offset=".654" stop-color="#556100" stop-opacity=".654"/><stop offset="1" stop-color="#464F00"/></linearGradient><linearGradient id="C" x1="66.678" y1="26.115" x2="61.492" y2="41.251" gradientUnits="userSpaceOnUse"><stop stop-color="#FFDECF"/><stop offset=".379" stop-color="#FDC4B0"/><stop offset=".765" stop-color="#FBAE97"/><stop offset="1" stop-color="#FAA68E"/></linearGradient><linearGradient id="D" x1="59.843" y1="45.364" x2="64.028" y2="33.149" gradientUnits="userSpaceOnUse"><stop stop-color="#FFDECF"/><stop offset=".379" stop-color="#FDC4B0"/><stop offset=".765" stop-color="#FBAE97"/><stop offset="1" stop-color="#FAA68E"/></linearGradient><linearGradient id="E" x1="11.094" y1="98.95" x2="15.843" y2="106.707" gradientUnits="userSpaceOnUse"><stop stop-color="#A57C52"/><stop offset=".134" stop-color="#A26C4A"/><stop offset=".515" stop-color="#994336"/><stop offset=".817" stop-color="#942A2A"/><stop offset="1" stop-color="#922125"/></linearGradient><linearGradient id="F" x1="27.016" y1="83.274" x2="22.589" y2="96.193" gradientUnits="userSpaceOnUse"><stop stop-color="#FFDECF"/><stop offset=".379" stop-color="#FDC4B0"/><stop offset=".765" stop-color="#FBAE97"/><stop offset="1" stop-color="#FAA68E"/></linearGradient><linearGradient id="G" x1="21.198" y1="99.702" x2="24.771" y2="89.276" gradientUnits="userSpaceOnUse"><stop stop-color="#FFDECF"/><stop offset=".379" stop-color="#FDC4B0"/><stop offset=".765" stop-color="#FBAE97"/><stop offset="1" stop-color="#FAA68E"/></linearGradient><linearGradient id="H" x1="95.878" y1="71.517" x2="102.169" y2="81.965" gradientUnits="userSpaceOnUse"><stop stop-color="#A57C52"/><stop offset=".134" stop-color="#A26C4A"/><stop offset=".515" stop-color="#994336"/><stop offset=".817" stop-color="#942A2A"/><stop offset="1" stop-color="#922125"/></linearGradient><linearGradient id="I" x1="92.841" y1="55.681" x2="98.329" y2="68.979" gradientUnits="userSpaceOnUse"><stop stop-color="#FF6359"/><stop offset=".224" stop-color="#FE5B50"/><stop offset=".595" stop-color="#FC4637"/><stop offset="1" stop-color="#F82814"/></linearGradient><linearGradient id="J" x1="95.662" y1="59.937" x2="90.428" y2="51.768" gradientUnits="userSpaceOnUse"><stop stop-color="#F82814" stop-opacity="0"/><stop offset=".245" stop-color="#F12817" stop-opacity=".245"/><stop offset=".605" stop-color="#DD2820" stop-opacity=".605"/><stop offset="1" stop-color="#C0272D"/></linearGradient><linearGradient id="K" x1="91.502" y1="64.684" x2="87.37" y2="58.236" gradientUnits="userSpaceOnUse"><stop stop-color="#F82814" stop-opacity="0"/><stop offset=".245" stop-color="#F12817" stop-opacity=".245"/><stop offset=".605" stop-color="#DD2820" stop-opacity=".605"/><stop offset="1" stop-color="#C0272D"/></linearGradient><linearGradient id="L" x1="98.027" y1="65.218" x2="95.536" y2="61.33" gradientUnits="userSpaceOnUse"><stop stop-color="#F82814" stop-opacity="0"/><stop offset=".245" stop-color="#F12817" stop-opacity=".245"/><stop offset=".605" stop-color="#DD2820" stop-opacity=".605"/><stop offset="1" stop-color="#C0272D"/></linearGradient><linearGradient id="M" x1="38.748" y1="79.526" x2="44.235" y2="92.823" gradientUnits="userSpaceOnUse"><stop stop-color="#FF6359"/><stop offset=".224" stop-color="#FE5B50"/><stop offset=".595" stop-color="#FC4637"/><stop offset="1" stop-color="#F82814"/></linearGradient><linearGradient id="N" x1="41.544" y1="83.8" x2="36.309" y2="75.631" gradientUnits="userSpaceOnUse"><stop stop-color="#F82814" stop-opacity="0"/><stop offset=".245" stop-color="#F12817" stop-opacity=".245"/><stop offset=".605" stop-color="#DD2820" stop-opacity=".605"/><stop offset="1" stop-color="#C0272D"/></linearGradient><linearGradient id="O" x1="37.384" y1="88.547" x2="33.252" y2="82.099" gradientUnits="userSpaceOnUse"><stop stop-color="#F82814" stop-opacity="0"/><stop offset=".245" stop-color="#F12817" stop-opacity=".245"/><stop offset=".605" stop-color="#DD2820" stop-opacity=".605"/><stop offset="1" stop-color="#C0272D"/></linearGradient><linearGradient id="P" x1="43.909" y1="89.081" x2="41.418" y2="85.193" gradientUnits="userSpaceOnUse"><stop stop-color="#F82814" stop-opacity="0"/><stop offset=".245" stop-color="#F12817" stop-opacity=".245"/><stop offset=".605" stop-color="#DD2820" stop-opacity=".605"/><stop offset="1" stop-color="#C0272D"/></linearGradient><linearGradient id="Q" x1="64.706" y1="60.006" x2="70.997" y2="70.454" gradientUnits="userSpaceOnUse"><stop stop-color="#A57C52"/><stop offset=".134" stop-color="#A26C4A"/><stop offset=".515" stop-color="#994336"/><stop offset=".817" stop-color="#942A2A"/><stop offset="1" stop-color="#922125"/></linearGradient><linearGradient id="R" x1="76.007" y1="89.521" x2="63.448" y2="65.776" gradientUnits="userSpaceOnUse"><stop stop-color="#798C00" stop-opacity="0"/><stop offset=".654" stop-color="#556100" stop-opacity=".654"/><stop offset="1" stop-color="#464F00"/></linearGradient><linearGradient id="S" x1="77.913" y1="62.06" x2="73.486" y2="74.979" gradientUnits="userSpaceOnUse"><stop stop-color="#FFDECF"/><stop offset=".379" stop-color="#FDC4B0"/><stop offset=".765" stop-color="#FBAE97"/><stop offset="1" stop-color="#FAA68E"/></linearGradient><linearGradient id="T" x1="72.096" y1="78.487" x2="75.668" y2="68.062" gradientUnits="userSpaceOnUse"><stop stop-color="#FFDECF"/><stop offset=".379" stop-color="#FDC4B0"/><stop offset=".765" stop-color="#FBAE97"/><stop offset="1" stop-color="#FAA68E"/></linearGradient><linearGradient id="U" x1="20.053" y1="72.372" x2="22.764" y2="77.793" gradientUnits="userSpaceOnUse"><stop stop-color="#8A7889"/><stop offset=".334" stop-color="#867385"/><stop offset=".704" stop-color="#7B667B"/><stop offset="1" stop-color="#6E566E"/></linearGradient><linearGradient id="V" x1="49.716" y1="64.248" x2="52.427" y2="69.668" gradientUnits="userSpaceOnUse"><stop stop-color="#8A7889"/><stop offset=".334" stop-color="#867385"/><stop offset=".704" stop-color="#7B667B"/><stop offset="1" stop-color="#6E566E"/></linearGradient><linearGradient id="W" x1="87.492" y1="43.272" x2="90.202" y2="48.693" gradientUnits="userSpaceOnUse"><stop stop-color="#8A7889"/><stop offset=".334" stop-color="#867385"/><stop offset=".704" stop-color="#7B667B"/><stop offset="1" stop-color="#6E566E"/></linearGradient><linearGradient id="X" x1="8.475" y1="104.758" x2="11.185" y2="110.178" gradientUnits="userSpaceOnUse"><stop stop-color="#8A7889"/><stop offset=".334" stop-color="#867385"/><stop offset=".704" stop-color="#7B667B"/><stop offset="1" stop-color="#6E566E"/></linearGradient><linearGradient id="Y" x1="40.109" y1="48.173" x2="45.597" y2="61.47" gradientUnits="userSpaceOnUse"><stop stop-color="#FF6359"/><stop offset=".224" stop-color="#FE5B50"/><stop offset=".595" stop-color="#FC4637"/><stop offset="1" stop-color="#F82814"/></linearGradient><linearGradient id="Z" x1="42.902" y1="52.431" x2="37.668" y2="44.262" gradientUnits="userSpaceOnUse"><stop stop-color="#F82814" stop-opacity="0"/><stop offset=".245" stop-color="#F12817" stop-opacity=".245"/><stop offset=".605" stop-color="#DD2820" stop-opacity=".605"/><stop offset="1" stop-color="#C0272D"/></linearGradient><linearGradient id="aa" x1="38.742" y1="57.178" x2="34.609" y2="50.73" gradientUnits="userSpaceOnUse"><stop stop-color="#F82814" stop-opacity="0"/><stop offset=".245" stop-color="#F12817" stop-opacity=".245"/><stop offset=".605" stop-color="#DD2820" stop-opacity=".605"/><stop offset="1" stop-color="#C0272D"/></linearGradient><linearGradient id="ab" x1="45.267" y1="57.712" x2="42.776" y2="53.824" gradientUnits="userSpaceOnUse"><stop stop-color="#F82814" stop-opacity="0"/><stop offset=".245" stop-color="#F12817" stop-opacity=".245"/><stop offset=".605" stop-color="#DD2820" stop-opacity=".605"/><stop offset="1" stop-color="#C0272D"/></linearGradient><linearGradient id="ac" x1="84.309" y1="32.737" x2="90.601" y2="43.185" gradientUnits="userSpaceOnUse"><stop stop-color="#A57C52"/><stop offset=".134" stop-color="#A26C4A"/><stop offset=".515" stop-color="#994336"/><stop offset=".817" stop-color="#942A2A"/><stop offset="1" stop-color="#922125"/></linearGradient><linearGradient id="ad" x1="109.696" y1="29.933" x2="98.721" y2="47.873" gradientUnits="userSpaceOnUse"><stop stop-color="#FAA68E"/><stop offset=".206" stop-color="#FBA682"/><stop offset=".581" stop-color="#FDA861"/><stop offset="1" stop-color="#FFA936"/></linearGradient></defs></svg>