<svg width="151" height="137" fill="none" xmlns="http://www.w3.org/2000/svg"><path d="M75.77 126.89c-12.382 0-23.746-1.834-32.647-4.89 1.28 5.065 3.687 8.895 6.653 10.121 6.695 2.767 15.87 4.474 25.994 4.474 10.123 0 19.299-1.707 25.994-4.474 2.967-1.226 5.373-5.056 6.653-10.121-8.9 3.056-20.264 4.89-32.647 4.89Z" fill="url(#a)"/><path d="M150.77 64.456c0-20.846-150-20.846-150 0 0 20.845 17.625 66.008 75 66.008 57.374 0 75-45.163 75-66.008Z" fill="url(#b)"/><path d="M150.77 64.456c0 20.845-150 20.845-150 0 0-20.846 150-20.846 150 0Z" fill="url(#c)"/><path d="M144.576 64.456c0 15.362-137.613 15.362-137.613 0 0-15.363 137.613-15.363 137.613 0Z" fill="url(#d)"/><path d="M9.722 68.004c7.193 4.337 27.57 6.905 50.374 7.703 2.291.08 4.606-1.917 6.935-1.872 2.077.04 4.166 2.124 6.257 2.135 29.426.159 59.458-2.497 68.529-7.966-17.631-10.63-114.464-10.63-132.095 0Z" fill="url(#e)"/><path d="M2.084 75.462a68.509 68.509 0 0 0 2.536 8.646c20.97 13.64 121.328 13.64 142.299 0a68.728 68.728 0 0 0 2.536-8.646c-.087-.103-.172-.205-.266-.306-14.971 16.113-131.868 16.113-146.839 0-.094.1-.18.203-.266.306Z" fill="url(#f)"/><path d="M6.963 89.768a72.309 72.309 0 0 0 3.054 5.863c26.85 10.15 104.655 10.15 131.504 0a72.28 72.28 0 0 0 3.055-5.863c-24.332 11.891-113.281 11.891-137.613 0Z" fill="url(#g)"/><path d="M123.914 72.97c-13.588 2.097-32.201 3.097-50.581 3-1.9-.01-3.799-2.09-5.688-2.123-2.53-.045-5.044 1.948-7.529 1.861-12.03-.42-23.388-1.333-32.49-2.737 3.73-7.636 9.894-14.192 17.665-18.968 8.57-5.27 19.1-8.376 30.48-8.376 11.379 0 21.908 3.105 30.479 8.376 7.77 4.776 13.935 11.332 17.664 18.967Z" fill="url(#h)"/><path d="M116.339 73.971c-4.28-7.288-10.584-13.565-18.282-18.297-4.915-3.023-10.4-5.415-16.292-7.04-10.51-2.897-21.751-2.024-31.578 2.698a54.042 54.042 0 0 0-4.896 2.67C37.52 58.78 31.355 65.335 27.626 72.97c23.596 3.642 62.34 3.975 88.713 1.001Z" fill="url(#i)"/><path d="M106.345 74.9c-4.27-7.023-10.425-13.08-17.903-17.677-4.877-3-10.315-5.378-16.155-7.001-9.077-2.523-18.832-1.209-26.87 3.704a19.06 19.06 0 0 0-.126.077c-7.77 4.776-13.936 11.332-17.665 18.967 20.761 3.204 53.249 3.847 78.719 1.93Z" fill="url(#j)"/><path d="M96.048 75.52c-4.257-6.832-10.308-12.73-17.626-17.227-4.531-2.787-9.548-5.038-14.92-6.645-6.095-1.823-12.703-1.019-18.128 2.303a6.443 6.443 0 0 0-.083.052c-7.77 4.776-13.936 11.332-17.665 18.968 9.103 1.404 20.46 2.317 32.492 2.737 2.28.08 4.585-1.33 6.903-1.285 2.114.04 4.238 1.537 6.366 1.548 7.64.039 15.32-.112 22.661-.451Z" fill="url(#k)"/><path d="M85.151 75.88c-4.112-5.769-9.547-10.778-15.953-14.716-4.915-3.022-10.4-5.415-16.292-7.039a6.886 6.886 0 0 0-1.135-.183c-4.076-.381-8.117.912-11.337 3.44-5.492 4.314-9.894 9.622-12.808 15.588 9.098 1.404 20.45 2.317 32.474 2.737 2.207.077 4.437-1.627 6.68-1.583 2.19.043 4.391 1.835 6.596 1.846 3.932.02 7.874-.01 11.775-.09Z" fill="url(#l)"/><path d="M75.155 75.976c-3.732-4.438-8.289-8.338-13.485-11.532-4.916-3.023-10.4-5.415-16.292-7.04a1.332 1.332 0 0 0-.038-.01c-2.409-.661-4.983-.023-6.866 1.619-4.583 3.994-8.29 8.72-10.848 13.957 12.837 1.981 30.157 2.983 47.53 3.006Z" fill="url(#m)"/><path d="M38.908 54.553c-7.988 2.626-14.558 8.382-18.1 16.059-.155.338-.308.679-.456 1.02 2.025.445 4.241.856 6.615 1.234.681-2.162 1.5-4.28 2.455-6.352a31.605 31.605 0 0 1 9.703-12.027c-.072.022-.145.042-.217.066Z" fill="url(#n)"/><path d="M53.308 47.182c-6.209.959-11.864 3.624-16.403 7.574a31.605 31.605 0 0 0-7.973 10.626 53.683 53.683 0 0 0-2.762 7.356 164.793 164.793 0 0 0 7.37 1.041c.16-.497.329-.991.505-1.483a53.262 53.262 0 0 1 3.428-9.228 31.933 31.933 0 0 1 5.194-7.688c3.26-3.579 7.317-6.433 11.886-8.364-.414.048-.83.102-1.245.166Z" fill="url(#o)"/><path d="M62.017 43.94c-7.982 1.237-15.097 5.038-20.232 10.605a31.51 31.51 0 0 0-5.194 7.59 52.013 52.013 0 0 0-4.032 11.534c.323.04.653.078.982.119 2.05.244 4.18.468 6.38.668a45.107 45.107 0 0 1 3.3-9.176c.818-1.68 5.684-9.023 6.608-10.165 4.638-5.748 11.016-9.8 18.18-11.609a37.124 37.124 0 0 0-5.992.434Z" fill="url(#p)"/><path d="M72.314 42.053c-9.23.309-17.7 4.609-23.347 11.697a31.123 31.123 0 0 0-2.335 3.356c-3.22 5.335-5.468 11.156-6.71 17.35 2.436.23 4.957.43 7.54.606a47.223 47.223 0 0 1 2.151-7.1c.554-1.6 1.177-3.179 1.877-4.73a32.304 32.304 0 0 1 7.003-9.944c4.721-4.55 10.797-7.609 17.518-8.638 3.362-.517 6.724-.5 9.982.008a31.504 31.504 0 0 0-13.679-2.605Z" fill="url(#q)"/><path d="M75.423 43.896a31.927 31.927 0 0 0-17.517 8.85 33.107 33.107 0 0 0-7.003 10.187 57.707 57.707 0 0 0-3.812 12.092c.123.01.247.018.37.027 2.163.153 4.373.284 6.616.399a53.29 53.29 0 0 1 3.029-8.25c.16-.39.326-.778.497-1.164 1.8-4.083 4.565-7.523 7.974-10.074a33.756 33.756 0 0 1 3.346-2.523c4.138-2.725 8.93-4.587 14.085-5.375a36.328 36.328 0 0 1 15.193.889c-6.638-4.466-14.706-6.33-22.778-5.058Z" fill="url(#r)"/><path d="M114.114 58.114a33.89 33.89 0 0 0-4.185-3.811c-7.515-5.794-17.22-8.306-26.92-6.797-5.156.803-9.948 2.703-14.086 5.482-4.93 3.318-8.93 7.885-11.497 13.335a55.074 55.074 0 0 0-3.353 9.127 381.821 381.821 0 0 0 5.378.23c5.307-13.815 18.04-23.548 32.906-23.548 8.643 0 16.565 3.29 22.726 8.76a3.653 3.653 0 0 0-.969-2.778Z" fill="url(#s)"/><path d="M55.633 49.696a2.16 2.16 0 1 0-4.058-1.484 2.16 2.16 0 0 0 4.058 1.484Z" fill="url(#t)"/><path d="M48.726 51.527a1.705 1.705 0 1 0-1.173 3.203 1.705 1.705 0 0 0 1.173-3.203Z" fill="url(#u)"/><path d="M55.187 55.698a1.028 1.028 0 1 0-.707 1.932 1.028 1.028 0 0 0 .707-1.932Z" fill="url(#v)"/><path d="M64.629 52.251a2.16 2.16 0 1 0 .47 4.295 2.16 2.16 0 0 0-.47-4.295Z" fill="url(#w)"/><path d="M67.725 46.538a1.706 1.706 0 1 0 .37 3.391 1.706 1.706 0 0 0-.37-3.391Z" fill="url(#x)"/><path d="M60.23 47.012a1.028 1.028 0 1 0 .224 2.045 1.028 1.028 0 0 0-.224-2.045Z" fill="url(#y)"/><path d="M58.079 56.25a1.596 1.596 0 1 0 1.127 2.986 1.596 1.596 0 0 0-1.127-2.986Z" fill="url(#z)"/><path d="M59.241 51.59a1.26 1.26 0 1 0 .89 2.359 1.26 1.26 0 0 0-.89-2.359Z" fill="url(#A)"/><path d="M54.502 54.733a.76.76 0 1 0-.537-1.422.76.76 0 0 0 .537 1.422Z" fill="url(#B)"/><path d="M79.358 49.001a2.16 2.16 0 1 0-4.057-1.485 2.16 2.16 0 0 0 4.057 1.485Z" fill="url(#C)"/><path d="M72.451 50.832a1.706 1.706 0 1 0-1.172 3.203 1.706 1.706 0 0 0 1.172-3.203Z" fill="url(#D)"/><path d="M78.912 55.003a1.028 1.028 0 1 0-.707 1.93 1.028 1.028 0 0 0 .707-1.93Z" fill="url(#E)"/><path d="M91.411 50.282a2.16 2.16 0 1 0 .47 4.295 2.16 2.16 0 0 0-.47-4.295Z" fill="url(#F)"/><path d="M90.781 47.458a1.705 1.705 0 1 0-3.39.37 1.705 1.705 0 0 0 3.39-.37Z" fill="url(#G)"/><path d="M83.956 46.317a1.028 1.028 0 1 0 .223 2.044 1.028 1.028 0 0 0-.223-2.044Z" fill="url(#H)"/><path d="M81.805 55.554a1.596 1.596 0 1 0 1.127 2.987 1.596 1.596 0 0 0-1.127-2.987Z" fill="url(#I)"/><path d="M82.967 50.895a1.26 1.26 0 1 0 .89 2.358 1.26 1.26 0 0 0-.89-2.358Z" fill="url(#J)"/><path d="M78.227 54.038a.76.76 0 1 0-.537-1.422.76.76 0 0 0 .537 1.422Z" fill="url(#K)"/><path d="M72.668 45.328a1.408 1.408 0 1 0 .967-2.645 1.408 1.408 0 0 0-.967 2.645Z" fill="url(#L)"/><path d="M65.619 45.331a.67.67 0 1 0-1.26-.46.67.67 0 0 0 1.26.46Z" fill="url(#M)"/><path d="M73.79 48.24a.67.67 0 1 0-1.332.146.67.67 0 0 0 1.332-.146Z" fill="url(#N)"/><path d="M82.109 44.883a.67.67 0 1 0-1.333.146.67.67 0 0 0 1.333-.146Z" fill="url(#O)"/><path d="M65.26 47.216a1.04 1.04 0 1 0-1.948.735 1.04 1.04 0 0 0 1.947-.735Z" fill="url(#P)"/><path d="M70.106 44.303a.822.822 0 1 0-1.538.58.822.822 0 0 0 1.538-.58Z" fill="url(#Q)"/><path d="M77.969 44.303a.822.822 0 1 0-1.538.58.822.822 0 0 0 1.538-.58Z" fill="url(#R)"/><path d="M70.376 46.702a.495.495 0 1 0 .927-.35.495.495 0 0 0-.927.35Z" fill="url(#S)"/><path d="M72.904 65.703a2.291 2.291 0 0 0-2.137-.85h-.003a2.3 2.3 0 0 1-1.602-.359 11.246 11.246 0 0 0-.626-.601 2.287 2.287 0 0 0-1.796-.87c-.694 0-1.388.309-1.847.926a2.3 2.3 0 0 1-2.18.904h-.002a2.303 2.303 0 0 0-2.612 2.611v.003a2.303 2.303 0 0 1-.903 2.18 2.29 2.29 0 0 0-.926 1.844c0 .67.29 1.34.867 1.798.053.067.342.081.464.206.128.131.088.372.128.41a2.29 2.29 0 0 1 .37 1.612v.003a2.067 2.067 0 0 0-.017.186c2.157.076 4.337-1.335 6.53-1.291 2.238.044 4.49 1.543 6.745 1.555 3.256.017 6.52 0 9.762-.052L72.904 65.703Z" fill="url(#T)"/><path d="M75.208 71.491c0 .694-.31 1.388-.927 1.847a2.3 2.3 0 0 0-.903 2.18v.002c.024.154.03.303.02.45a436.376 436.376 0 0 1-13.317-.261c.003-.062.01-.124.018-.189v-.002a2.3 2.3 0 0 0-.903-2.18 2.287 2.287 0 0 1-.926-1.847c0-.691.308-1.382.926-1.844a2.303 2.303 0 0 0 .903-2.18v-.002a2.303 2.303 0 0 1 2.612-2.612h.003a2.3 2.3 0 0 0 2.18-.903 2.287 2.287 0 0 1 1.846-.927 2.29 2.29 0 0 1 1.844.927 2.303 2.303 0 0 0 2.18.903h.003a2.305 2.305 0 0 1 2.611 2.612v.003a2.3 2.3 0 0 0 .903 2.179 2.29 2.29 0 0 1 .927 1.844Z" fill="url(#U)"/><path d="M71.726 70.83a4.003 4.003 0 0 1-1.527 2.673 4 4 0 0 1-2.967.809 3.387 3.387 0 0 1-2.274-1.3 3.395 3.395 0 0 1-.69-2.527 1.031 1.031 0 0 1 2.044.259c-.048.362.05.718.273 1.006.223.288.544.473.906.518a1.939 1.939 0 0 0 1.447-.395c.414-.32.68-.782.744-1.303a2.71 2.71 0 0 0-2.344-3.026 3.617 3.617 0 0 0-2.689.732 3.624 3.624 0 0 0-1.385 2.421 4.822 4.822 0 0 0 3.318 5.191c-1.25-.026-2.494-.056-3.733-.091a6.836 6.836 0 0 1-1.626-5.359 5.707 5.707 0 0 1 6.374-4.938 4.775 4.775 0 0 1 4.129 5.33Z" fill="url(#V)"/><path d="M110.054 74.597 87.729 52.273c-.42-.661-1.361-1.096-2.403-.978h-.002c-.837.094-1.674-.173-2.18-.696-.92-.952-2.772-.952-3.692 0-.505.523-1.343.79-2.18.696h-.002c-1.524-.172-2.834.837-2.61 2.012v.001c.122.645-.225 1.29-.903 1.68-1.186.68-1.231 2.02-.142 2.754l.705.733c.264.274.41.656.34 1.03v.01c-.12.63.204 1.21.763 1.589L90.07 75.752c6.967-.221 13.728-.606 19.983-1.154Z" fill="url(#W)"/><path d="M88.84 57.833c-.68.39-1.026 1.035-.904 1.68v.001c.224 1.175-1.085 2.184-2.61 2.012h-.002c-.837-.094-1.674.173-2.18.696-.92.953-2.772.953-3.693 0-.505-.523-1.342-.79-2.18-.696h-.001c-1.525.172-2.834-.837-2.611-2.012v-.001c.122-.645-.224-1.29-.903-1.68-1.236-.709-1.236-2.136 0-2.845.679-.39 1.025-1.035.903-1.68v-.001c-.223-1.175 1.086-2.184 2.611-2.012h.002c.837.094 1.674-.173 2.18-.696.92-.952 2.772-.952 3.692 0 .506.523 1.343.79 2.18.696h.002c1.525-.172 2.834.837 2.61 2.012v.001c-.122.645.225 1.29.903 1.68 1.237.71 1.237 2.136 0 2.845Z" fill="url(#X)"/><path d="M76.05 57.867a4.121 4.121 0 0 1-.268-2.27c.396-2.403 3.256-4.11 6.374-3.804 2.608.256 4.46 2.098 4.128 4.107-.135.82-.677 1.552-1.526 2.058-.849.507-1.903.728-2.968.624-.907-.089-1.714-.444-2.274-1.001-.56-.557-.804-1.248-.689-1.947.072-.435.588-.742 1.151-.687.565.055.963.453.892.887-.046.278.051.553.274.776.223.221.544.363.906.398.519.051 1.033-.057 1.447-.304.414-.247.678-.604.745-1.004.188-1.141-.864-2.188-2.345-2.333-.965-.095-1.92.106-2.69.565-.769.46-1.26 1.122-1.382 1.865-.335 2.028 1.534 3.887 4.165 4.145.564.055.963.452.891.887-.071.435-.587.742-1.15.687-2.735-.268-4.893-1.747-5.681-3.648Z" fill="url(#Y)"/><path d="M70.878 75.032c-3.628-.038-7.237.799-10.787.674a381.813 381.813 0 0 1-11.142-.547l-8.541-8.541c-.56-.377-.883-.96-.762-1.589v-.008c.07-.374-.077-.756-.341-1.033l-.706-.732c-.52-.353-.783-.844-.783-1.333 0-.532.31-1.067.927-1.42.676-.391 1.023-1.035.903-1.68v-.002a1.375 1.375 0 0 1 .147-.927c.226-.43.668-.773 1.218-.956.376-.13.8-.18 1.244-.13h.003c.838.095 1.673-.17 2.179-.693.462-.477 1.153-.715 1.847-.715s1.385.238 1.847.715c.435.453 1.124.711 1.844.711.112 0 .224-.005.335-.017 1.045-.118 1.983.317 2.404.98l18.164 17.243Z" fill="url(#Z)"/><path d="M53.826 63.348c-.679.39-1.026 1.034-.903 1.68.223 1.176-1.086 2.185-2.611 2.013h-.002c-.837-.095-1.674.173-2.18.696-.92.952-2.772.952-3.692 0-.506-.523-1.343-.79-2.18-.696h-.002c-1.525.172-2.834-.837-2.61-2.012v-.002c.122-.645-.225-1.29-.903-1.679-1.237-.71-1.237-2.136 0-2.846.678-.389 1.025-1.034.902-1.679v-.002c-.223-1.174 1.086-2.183 2.611-2.011h.002c.837.094 1.675-.173 2.18-.696.92-.953 2.772-.953 3.693 0 .505.523 1.342.79 2.18.696h.001c1.525-.172 2.834.837 2.611 2.011v.002c-.123.645.224 1.29.903 1.68 1.236.709 1.236 2.136 0 2.845Z" fill="url(#aa)"/><path d="M41.036 63.382a4.121 4.121 0 0 1-.268-2.27c.397-2.403 3.256-4.11 6.375-3.804 2.607.255 4.459 2.098 4.127 4.107-.135.82-.677 1.551-1.526 2.058-.849.506-1.902.728-2.968.624-.906-.09-1.714-.445-2.273-1.002-.56-.556-.805-1.248-.69-1.946.073-.435.588-.742 1.152-.687.564.055.963.452.89.887-.045.278.052.553.275.775.223.222.545.363.906.399.52.05 1.033-.057 1.447-.304.414-.247.679-.604.745-1.004.188-1.142-.864-2.189-2.345-2.333-.965-.095-1.92.106-2.69.565-.768.459-1.26 1.121-1.382 1.865-.335 2.028 1.534 3.887 4.165 4.145.564.055.963.451.892.887-.072.434-.587.742-1.151.686-2.735-.267-4.893-1.746-5.68-3.648Z" fill="url(#ab)"/><path d="M103.705 25.038c-.353-.894.618-1.73 1.454-1.255 2.952 1.679 7.285 5.133 7.285 10.946 0 8.815-10.618 9.646-10.618 16.175 0 3.351.444 5.665.876 7.124.25.844-.614 1.587-1.409 1.211-2.646-1.251-6.715-4.305-6.715-11.25 0-10.291 10.53-10.139 10.53-15.765 0-2.939-.717-5.454-1.403-7.186Z" fill="url(#ac)"/><path d="M77.457 1.1c-.23-.393.387-.752.8-.466 2.805 1.94 7.548 6.04 7.548 11.587 0 7.876-8.977 10.106-10.173 16.248-.967 4.968 1.25 9.804 2.267 11.682.177.326-.23.657-.65.53-3.093-.926-11.415-4.358-10.172-14.248 1.204-9.581 10.209-9.143 11.806-15.342 1.149-4.45-.266-8.012-1.425-9.99Z" fill="url(#ad)"/><path d="M53.961 27.132c-.315-.738.346-1.428.989-1.035 2.27 1.385 5.667 4.235 6.03 9.031.55 7.274-7.19 7.96-6.782 13.348.21 2.765.68 4.674 1.088 5.879.236.696-.35 1.31-.958.999-2.02-1.033-5.197-3.553-5.63-9.284-.644-8.492 7.093-8.365 6.742-13.008-.184-2.425-.867-4.5-1.479-5.93Z" fill="url(#ae)"/><path d="M150.77 64.457c0 8.7-26.141 13.77-56.597 15.206l8.894-4.533c23.232-1.517 41.509-5.076 41.509-10.673 0-2.365-3.262-4.368-8.783-6.003l4.7-2.397c6.439 2.267 10.277 5.067 10.277 8.4Z" fill="url(#af)"/><path d="M141.635 49.144 79.529 83.471c-.761.526-.106 1.784 1.185 2.275.594.226 1.18.222 1.541-.011l63.495-33.172c1.464-.94-.302-3.398-2.649-3.688-.59-.072-1.11.023-1.466.27Z" fill="url(#ag)"/><path d="M146.12 50.389 82.806 84.715c-.762.527-.107 1.785 1.184 2.276.594.225 1.18.221 1.542-.011l64.704-33.173c1.463-.94-.303-3.398-2.649-3.687-.591-.072-1.11.023-1.467.269Z" fill="url(#ah)"/><defs><linearGradient id="a" x1="76.079" y1="127.094" x2="76.628" y2="136.154" gradientUnits="userSpaceOnUse"><stop stop-color="#F8F6FB"/><stop offset="1" stop-color="#EFDCFB"/></linearGradient><linearGradient id="b" x1="64.389" y1="55.651" x2="107.624" y2="120.062" gradientUnits="userSpaceOnUse"><stop stop-color="#F8F6FB"/><stop offset="1" stop-color="#EFDCFB"/></linearGradient><linearGradient id="c" x1="66.658" y1="27.673" x2="77.247" y2="70.418" gradientUnits="userSpaceOnUse"><stop stop-color="#F8F6FB"/><stop offset="1" stop-color="#EFDCFB"/></linearGradient><linearGradient id="d" x1="75.769" y1="93.897" x2="75.769" y2="-12.46" gradientUnits="userSpaceOnUse"><stop stop-color="#EFDCFB" stop-opacity="0"/><stop offset=".029" stop-color="#E9D6F7" stop-opacity=".029"/><stop offset=".22" stop-color="#C5B5DE" stop-opacity=".22"/><stop offset=".414" stop-color="#AA9BCB" stop-opacity=".414"/><stop offset=".608" stop-color="#9688BD" stop-opacity=".608"/><stop offset=".803" stop-color="#8A7DB5" stop-opacity=".803"/><stop offset="1" stop-color="#8679B2"/></linearGradient><linearGradient id="e" x1="75.769" y1="60.662" x2="75.769" y2="71.119" gradientUnits="userSpaceOnUse"><stop stop-color="#FFDECF"/><stop offset=".379" stop-color="#FDC4B0"/><stop offset=".765" stop-color="#FBAE97"/><stop offset="1" stop-color="#FAA68E"/></linearGradient><linearGradient id="f" x1="101.414" y1="95.972" x2="113.767" y2="104.207" gradientUnits="userSpaceOnUse"><stop stop-color="#FF6359"/><stop offset=".224" stop-color="#FE5B50"/><stop offset=".595" stop-color="#FC4637"/><stop offset="1" stop-color="#F82814"/></linearGradient><linearGradient id="g" x1="99.182" y1="107.29" x2="110.54" y2="114.862" gradientUnits="userSpaceOnUse"><stop stop-color="#FF6359"/><stop offset=".224" stop-color="#FE5B50"/><stop offset=".595" stop-color="#FC4637"/><stop offset="1" stop-color="#F82814"/></linearGradient><linearGradient id="h" x1="66.343" y1="50.01" x2="78.499" y2="79.618" gradientUnits="userSpaceOnUse"><stop stop-color="#FFD945"/><stop offset=".304" stop-color="#FFCD3E"/><stop offset=".856" stop-color="#FFAD2B"/><stop offset="1" stop-color="#FFA325"/></linearGradient><linearGradient id="i" x1="73.037" y1="67.068" x2="85.979" y2="-11.461" gradientUnits="userSpaceOnUse"><stop stop-color="#F82814" stop-opacity="0"/><stop offset="1" stop-color="#C0272D"/></linearGradient><linearGradient id="j" x1="67.447" y1="77.955" x2="59.532" y2="8.983" gradientUnits="userSpaceOnUse"><stop stop-color="#F82814" stop-opacity="0"/><stop offset="1" stop-color="#C0272D"/></linearGradient><linearGradient id="k" x1="62.28" y1="71.743" x2="73.457" y2="8.655" gradientUnits="userSpaceOnUse"><stop stop-color="#F82814" stop-opacity="0"/><stop offset="1" stop-color="#C0272D"/></linearGradient><linearGradient id="l" x1="58.558" y1="68.075" x2="68.705" y2="38.37" gradientUnits="userSpaceOnUse"><stop stop-color="#F82814" stop-opacity="0"/><stop offset="1" stop-color="#C0272D"/></linearGradient><linearGradient id="m" x1="51.495" y1="76.2" x2="49.927" y2="50.318" gradientUnits="userSpaceOnUse"><stop stop-color="#F82814" stop-opacity="0"/><stop offset="1" stop-color="#C0272D"/></linearGradient><linearGradient id="n" x1="27.944" y1="60.744" x2="30.983" y2="64.665" gradientUnits="userSpaceOnUse"><stop stop-color="#FFD945"/><stop offset=".304" stop-color="#FFCD3E"/><stop offset=".856" stop-color="#FFAD2B"/><stop offset="1" stop-color="#FFA325"/></linearGradient><linearGradient id="o" x1="34.261" y1="54.269" x2="40.34" y2="59.857" gradientUnits="userSpaceOnUse"><stop stop-color="#FFD945"/><stop offset=".304" stop-color="#FFCD3E"/><stop offset=".856" stop-color="#FFAD2B"/><stop offset="1" stop-color="#FFA325"/></linearGradient><linearGradient id="p" x1="43.132" y1="50.932" x2="50.093" y2="58.383" gradientUnits="userSpaceOnUse"><stop stop-color="#FFD945"/><stop offset=".304" stop-color="#FFCD3E"/><stop offset=".856" stop-color="#FFAD2B"/><stop offset="1" stop-color="#FFA325"/></linearGradient><linearGradient id="q" x1="51.907" y1="45.476" x2="61.025" y2="57.094" gradientUnits="userSpaceOnUse"><stop stop-color="#FFD945"/><stop offset=".304" stop-color="#FFCD3E"/><stop offset=".856" stop-color="#FFAD2B"/><stop offset="1" stop-color="#FFA325"/></linearGradient><linearGradient id="r" x1="56.868" y1="40.474" x2="69.809" y2="58.121" gradientUnits="userSpaceOnUse"><stop stop-color="#FFD945"/><stop offset=".304" stop-color="#FFCD3E"/><stop offset=".856" stop-color="#FFAD2B"/><stop offset="1" stop-color="#FFA325"/></linearGradient><linearGradient id="s" x1="71.543" y1="45.786" x2="79.19" y2="58.531" gradientUnits="userSpaceOnUse"><stop stop-color="#FFD945"/><stop offset=".304" stop-color="#FFCD3E"/><stop offset=".856" stop-color="#FFAD2B"/><stop offset="1" stop-color="#FFA325"/></linearGradient><linearGradient id="t" x1="51.68" y1="46.287" x2="57.662" y2="54.58" gradientUnits="userSpaceOnUse"><stop stop-color="#BADA00"/><stop offset=".227" stop-color="#B0CE00"/><stop offset=".638" stop-color="#95AE00"/><stop offset="1" stop-color="#798C00"/></linearGradient><linearGradient id="u" x1="46.621" y1="51.023" x2="51.343" y2="57.57" gradientUnits="userSpaceOnUse"><stop stop-color="#BADA00"/><stop offset=".227" stop-color="#B0CE00"/><stop offset=".638" stop-color="#95AE00"/><stop offset="1" stop-color="#798C00"/></linearGradient><linearGradient id="v" x1="53.917" y1="55.395" x2="56.764" y2="59.342" gradientUnits="userSpaceOnUse"><stop stop-color="#BADA00"/><stop offset=".227" stop-color="#B0CE00"/><stop offset=".638" stop-color="#95AE00"/><stop offset="1" stop-color="#798C00"/></linearGradient><linearGradient id="w" x1="62.94" y1="51.731" x2="68.922" y2="60.025" gradientUnits="userSpaceOnUse"><stop stop-color="#BADA00"/><stop offset=".227" stop-color="#B0CE00"/><stop offset=".638" stop-color="#95AE00"/><stop offset="1" stop-color="#798C00"/></linearGradient><linearGradient id="x" x1="66.391" y1="46.127" x2="71.113" y2="52.675" gradientUnits="userSpaceOnUse"><stop stop-color="#BADA00"/><stop offset=".227" stop-color="#B0CE00"/><stop offset=".638" stop-color="#95AE00"/><stop offset="1" stop-color="#798C00"/></linearGradient><linearGradient id="y" x1="59.426" y1="46.765" x2="62.273" y2="50.712" gradientUnits="userSpaceOnUse"><stop stop-color="#BADA00"/><stop offset=".227" stop-color="#B0CE00"/><stop offset=".638" stop-color="#95AE00"/><stop offset="1" stop-color="#798C00"/></linearGradient><linearGradient id="z" x1="57.221" y1="55.772" x2="61.642" y2="61.901" gradientUnits="userSpaceOnUse"><stop stop-color="#BADA00"/><stop offset=".227" stop-color="#B0CE00"/><stop offset=".638" stop-color="#95AE00"/><stop offset="1" stop-color="#798C00"/></linearGradient><linearGradient id="A" x1="58.564" y1="51.213" x2="62.054" y2="56.051" gradientUnits="userSpaceOnUse"><stop stop-color="#BADA00"/><stop offset=".227" stop-color="#B0CE00"/><stop offset=".638" stop-color="#95AE00"/><stop offset="1" stop-color="#798C00"/></linearGradient><linearGradient id="B" x1="53.557" y1="53.084" x2="55.661" y2="56.001" gradientUnits="userSpaceOnUse"><stop stop-color="#BADA00"/><stop offset=".227" stop-color="#B0CE00"/><stop offset=".638" stop-color="#95AE00"/><stop offset="1" stop-color="#798C00"/></linearGradient><linearGradient id="C" x1="75.406" y1="45.591" x2="81.388" y2="53.884" gradientUnits="userSpaceOnUse"><stop stop-color="#BADA00"/><stop offset=".227" stop-color="#B0CE00"/><stop offset=".638" stop-color="#95AE00"/><stop offset="1" stop-color="#798C00"/></linearGradient><linearGradient id="D" x1="70.346" y1="50.328" x2="75.069" y2="56.874" gradientUnits="userSpaceOnUse"><stop stop-color="#BADA00"/><stop offset=".227" stop-color="#B0CE00"/><stop offset=".638" stop-color="#95AE00"/><stop offset="1" stop-color="#798C00"/></linearGradient><linearGradient id="E" x1="77.643" y1="54.699" x2="80.49" y2="58.646" gradientUnits="userSpaceOnUse"><stop stop-color="#BADA00"/><stop offset=".227" stop-color="#B0CE00"/><stop offset=".638" stop-color="#95AE00"/><stop offset="1" stop-color="#798C00"/></linearGradient><linearGradient id="F" x1="89.722" y1="49.762" x2="95.704" y2="58.055" gradientUnits="userSpaceOnUse"><stop stop-color="#BADA00"/><stop offset=".227" stop-color="#B0CE00"/><stop offset=".638" stop-color="#95AE00"/><stop offset="1" stop-color="#798C00"/></linearGradient><linearGradient id="G" x1="87.567" y1="45.537" x2="92.29" y2="52.084" gradientUnits="userSpaceOnUse"><stop stop-color="#BADA00"/><stop offset=".227" stop-color="#B0CE00"/><stop offset=".638" stop-color="#95AE00"/><stop offset="1" stop-color="#798C00"/></linearGradient><linearGradient id="H" x1="83.152" y1="46.069" x2="85.999" y2="50.017" gradientUnits="userSpaceOnUse"><stop stop-color="#BADA00"/><stop offset=".227" stop-color="#B0CE00"/><stop offset=".638" stop-color="#95AE00"/><stop offset="1" stop-color="#798C00"/></linearGradient><linearGradient id="I" x1="80.947" y1="55.076" x2="85.368" y2="61.205" gradientUnits="userSpaceOnUse"><stop stop-color="#BADA00"/><stop offset=".227" stop-color="#B0CE00"/><stop offset=".638" stop-color="#95AE00"/><stop offset="1" stop-color="#798C00"/></linearGradient><linearGradient id="J" x1="82.29" y1="50.518" x2="85.779" y2="55.356" gradientUnits="userSpaceOnUse"><stop stop-color="#BADA00"/><stop offset=".227" stop-color="#B0CE00"/><stop offset=".638" stop-color="#95AE00"/><stop offset="1" stop-color="#798C00"/></linearGradient><linearGradient id="K" x1="77.282" y1="52.389" x2="79.386" y2="55.305" gradientUnits="userSpaceOnUse"><stop stop-color="#BADA00"/><stop offset=".227" stop-color="#B0CE00"/><stop offset=".638" stop-color="#95AE00"/><stop offset="1" stop-color="#798C00"/></linearGradient><linearGradient id="L" x1="74.89" y1="42.752" x2="69.485" y2="46.65" gradientUnits="userSpaceOnUse"><stop stop-color="#FF6359"/><stop offset=".224" stop-color="#FE5B50"/><stop offset=".595" stop-color="#FC4637"/><stop offset="1" stop-color="#F82814"/></linearGradient><linearGradient id="M" x1="65.817" y1="44.504" x2="63.245" y2="46.36" gradientUnits="userSpaceOnUse"><stop stop-color="#FF6359"/><stop offset=".224" stop-color="#FE5B50"/><stop offset=".595" stop-color="#FC4637"/><stop offset="1" stop-color="#F82814"/></linearGradient><linearGradient id="N" x1="73.952" y1="47.716" x2="71.379" y2="49.572" gradientUnits="userSpaceOnUse"><stop stop-color="#FF6359"/><stop offset=".224" stop-color="#FE5B50"/><stop offset=".595" stop-color="#FC4637"/><stop offset="1" stop-color="#F82814"/></linearGradient><linearGradient id="O" x1="82.27" y1="44.359" x2="79.697" y2="46.215" gradientUnits="userSpaceOnUse"><stop stop-color="#FF6359"/><stop offset=".224" stop-color="#FE5B50"/><stop offset=".595" stop-color="#FC4637"/><stop offset="1" stop-color="#F82814"/></linearGradient><linearGradient id="P" x1="65.571" y1="46.657" x2="61.576" y2="49.538" gradientUnits="userSpaceOnUse"><stop stop-color="#FF6359"/><stop offset=".224" stop-color="#FE5B50"/><stop offset=".595" stop-color="#FC4637"/><stop offset="1" stop-color="#F82814"/></linearGradient><linearGradient id="Q" x1="70.352" y1="43.861" x2="67.198" y2="46.136" gradientUnits="userSpaceOnUse"><stop stop-color="#FF6359"/><stop offset=".224" stop-color="#FE5B50"/><stop offset=".595" stop-color="#FC4637"/><stop offset="1" stop-color="#F82814"/></linearGradient><linearGradient id="R" x1="78.215" y1="43.861" x2="75.061" y2="46.136" gradientUnits="userSpaceOnUse"><stop stop-color="#FF6359"/><stop offset=".224" stop-color="#FE5B50"/><stop offset=".595" stop-color="#FC4637"/><stop offset="1" stop-color="#F82814"/></linearGradient><linearGradient id="S" x1="71.451" y1="46.087" x2="69.549" y2="47.458" gradientUnits="userSpaceOnUse"><stop stop-color="#FF6359"/><stop offset=".224" stop-color="#FE5B50"/><stop offset=".595" stop-color="#FC4637"/><stop offset="1" stop-color="#F82814"/></linearGradient><linearGradient id="T" x1="83.034" y1="80.561" x2="56.123" y2="64.385" gradientUnits="userSpaceOnUse"><stop stop-color="#F82814" stop-opacity="0"/><stop offset="1" stop-color="#C0272D"/></linearGradient><linearGradient id="U" x1="61.98" y1="65.856" x2="70.298" y2="74.785" gradientUnits="userSpaceOnUse"><stop stop-color="#F8F6FB"/><stop offset="1" stop-color="#EFDCFB"/></linearGradient><linearGradient id="V" x1="61.168" y1="70.671" x2="71.764" y2="70.671" gradientUnits="userSpaceOnUse"><stop stop-color="#FAA68E"/><stop offset=".357" stop-color="#FB9D92"/><stop offset=".945" stop-color="#FF849B"/><stop offset="1" stop-color="#FF819C"/></linearGradient><linearGradient id="W" x1="93.836" y1="69.401" x2="70.453" y2="38.372" gradientUnits="userSpaceOnUse"><stop stop-color="#F82814" stop-opacity="0"/><stop offset="1" stop-color="#C0272D"/></linearGradient><linearGradient id="X" x1="76.894" y1="51.683" x2="84.525" y2="59.874" gradientUnits="userSpaceOnUse"><stop stop-color="#F8F6FB"/><stop offset="1" stop-color="#EFDCFB"/></linearGradient><linearGradient id="Y" x1="78.431" y1="52.427" x2="84.361" y2="60.091" gradientUnits="userSpaceOnUse"><stop stop-color="#FAA68E"/><stop offset=".357" stop-color="#FB9D92"/><stop offset=".945" stop-color="#FF849B"/><stop offset="1" stop-color="#FF819C"/></linearGradient><linearGradient id="Z" x1="56.171" y1="71.619" x2="36.711" y2="45.795" gradientUnits="userSpaceOnUse"><stop stop-color="#F82814" stop-opacity="0"/><stop offset="1" stop-color="#C0272D"/></linearGradient><linearGradient id="aa" x1="41.881" y1="57.198" x2="49.511" y2="65.389" gradientUnits="userSpaceOnUse"><stop stop-color="#F8F6FB"/><stop offset="1" stop-color="#EFDCFB"/></linearGradient><linearGradient id="ab" x1="43.411" y1="57.926" x2="49.341" y2="65.591" gradientUnits="userSpaceOnUse"><stop stop-color="#FAA68E"/><stop offset=".357" stop-color="#FB9D92"/><stop offset=".945" stop-color="#FF849B"/><stop offset="1" stop-color="#FF819C"/></linearGradient><linearGradient id="ac" x1="98.107" y1="39.073" x2="122.518" y2="50.691" gradientUnits="userSpaceOnUse"><stop stop-color="#E87264" stop-opacity="0"/><stop offset="1" stop-color="#F8DFBE"/></linearGradient><linearGradient id="ad" x1="69.27" y1="18.642" x2="87.62" y2="22.96" gradientUnits="userSpaceOnUse"><stop stop-color="#E87264" stop-opacity="0"/><stop offset=".158" stop-color="#E97869" stop-opacity=".158"/><stop offset=".378" stop-color="#EC8B78" stop-opacity=".378"/><stop offset=".635" stop-color="#F0A991" stop-opacity=".635"/><stop offset=".919" stop-color="#F6D2B3" stop-opacity=".919"/><stop offset="1" stop-color="#F8DFBE"/></linearGradient><linearGradient id="ae" x1="49.149" y1="38.581" x2="62.483" y2="43.777" gradientUnits="userSpaceOnUse"><stop stop-color="#E87264" stop-opacity="0"/><stop offset="1" stop-color="#F8DFBE"/></linearGradient><linearGradient id="af" x1="124.69" y1="76.044" x2="119.102" y2="64.72" gradientUnits="userSpaceOnUse"><stop stop-color="#EFDCFB" stop-opacity="0"/><stop offset=".029" stop-color="#E9D6F7" stop-opacity=".029"/><stop offset=".22" stop-color="#C5B5DE" stop-opacity=".22"/><stop offset=".414" stop-color="#AA9BCB" stop-opacity=".414"/><stop offset=".608" stop-color="#9688BD" stop-opacity=".608"/><stop offset=".803" stop-color="#8A7DB5" stop-opacity=".803"/><stop offset="1" stop-color="#8679B2"/></linearGradient><linearGradient id="ag" x1="111.736" y1="66.15" x2="113.501" y2="68.993" gradientUnits="userSpaceOnUse"><stop stop-color="#FF6359"/><stop offset=".224" stop-color="#FE5B50"/><stop offset=".595" stop-color="#FC4637"/><stop offset="1" stop-color="#F82814"/></linearGradient><linearGradient id="ah" x1="115.156" y1="66.667" x2="118.097" y2="71.373" gradientUnits="userSpaceOnUse"><stop stop-color="#FF6359"/><stop offset=".224" stop-color="#FE5B50"/><stop offset=".595" stop-color="#FC4637"/><stop offset="1" stop-color="#F82814"/></linearGradient></defs></svg>