<svg width="151" height="144" fill="none" xmlns="http://www.w3.org/2000/svg"><path d="M145.475 14.73H60.36v32.623c0 19.2 85.116 19.2 85.116 0V14.73h-.001Z" fill="url(#a)"/><path d="M145.475 14.73c0 19.2-85.116 19.2-85.116 0 0-19.199 85.116-19.199 85.116 0Z" fill="url(#b)"/><path d="M127.674 13.182c0-3.12-5.816-5.17-13.461-6.152-14.662-1.882-31.512.168-31.512 6.152 0 3.356 2.183 5.474 10.675 6.357 14.553 1.512 34.298-.607 34.298-6.357Z" fill="url(#c)"/><path d="M116.466 19.005c-5.966-1.426-10.3-5.728-10.3-10.815 0-.605.062-1.198.18-1.777 11.136.382 21.328 2.639 21.328 6.77 0 2.805-4.703 4.746-11.208 5.822Z" fill="url(#d)"/><path d="M114.348 7.048c-1.063 3.851-6.904 6.797-13.952 6.797-6.541 0-12.042-2.538-13.65-5.982 7.607-1.688 18.831-1.96 27.602-.815Z" fill="url(#e)"/><path d="M78.16 13.182c0-3.262 6.36-5.356 14.52-6.28 3.614-.409 6.965 2.237 7.18 5.869a6.534 6.534 0 0 1-.274 2.305c-.888 2.928-3.837 4.733-6.877 4.39-8.174-.923-14.548-3.017-14.548-6.284Z" fill="url(#f)"/><path d="M110.239 16.456a5.877 5.877 0 0 1 7.874-2.66l6.17 3.054c-2.787 1.298-7.053 2.197-11.888 2.695-1.686.174-2.908-1.57-2.156-3.09Z" fill="url(#g)"/><g opacity=".6"><g opacity=".6"><path opacity=".6" d="M69 13.665a1.545 1.545 0 1 0 0-3.09 1.545 1.545 0 0 0 0 3.09Z" fill="url(#h)"/><path opacity=".6" d="M70.179 18.114a1.22 1.22 0 1 0 0-2.44 1.22 1.22 0 0 0 0 2.44Z" fill="url(#i)"/><path opacity=".6" d="M74.407 14.248a.735.735 0 1 0 0-1.47.735.735 0 0 0 0 1.47Z" fill="url(#j)"/></g><g opacity=".6"><path opacity=".6" d="M132.607 18.765a1.545 1.545 0 1 0 0-3.09 1.545 1.545 0 0 0 0 3.09Z" fill="url(#k)"/><path opacity=".6" d="M129.739 22.434a1.22 1.22 0 1 0-.001-2.439 1.22 1.22 0 0 0 .001 2.44Z" fill="url(#l)"/><path opacity=".6" d="M135.055 22.973a.735.735 0 1 0 0-1.47.735.735 0 0 0 0 1.47Z" fill="url(#m)"/></g><g opacity=".6"><path opacity=".6" d="M75.186 7.8a1.142 1.142 0 1 0 0-2.283 1.142 1.142 0 0 0 0 2.283Z" fill="url(#n)"/><path opacity=".6" d="M73.137 10.562a.901.901 0 1 0 0-1.803.901.901 0 0 0 0 1.803Z" fill="url(#o)"/><path opacity=".6" d="M77.082 10.866a.543.543 0 1 0 0-1.086.543.543 0 0 0 0 1.086Z" fill="url(#p)"/></g></g><path d="m111.77 61.471-27.65-27.65c-3.75-4.38-12.87-7.292-23.761-8.738v22.27c0 10.94 27.634 15.646 51.411 14.118Z" fill="url(#q)"/><path d="M85.957 38.412H.841v32.623c0 19.199 85.116 19.199 85.116 0V38.412Z" fill="url(#r)"/><path d="M85.957 38.412c0 19.2-85.116 19.2-85.116 0 0-19.199 85.116-19.199 85.116 0Z" fill="url(#s)"/><path d="M18.643 36.865c0-3.115 5.794-5.164 13.418-6.147 14.663-1.892 31.671.157 31.671 6.147 0 3.298-2.075 5.402-10.364 6.31-14.59 1.6-34.725-.504-34.725-6.31Z" fill="url(#t)"/><path d="M29.851 42.687c5.966-1.426 10.3-5.728 10.3-10.815 0-.605-.062-1.198-.18-1.777-11.136.382-21.328 2.639-21.328 6.77 0 2.805 4.702 4.746 11.208 5.822Z" fill="url(#u)"/><path d="M31.968 30.73c1.063 3.852 6.904 6.798 13.952 6.798 6.542 0 12.042-2.538 13.65-5.983-7.606-1.688-18.83-1.96-27.602-.815Z" fill="url(#v)"/><path d="M68.156 36.864c0-3.262-6.359-5.355-14.519-6.28-3.615-.409-6.965 2.237-7.181 5.869a6.584 6.584 0 0 0 .274 2.306c.888 2.927 3.838 4.732 6.877 4.388 8.175-.922 14.549-3.016 14.549-6.282Z" fill="url(#w)"/><path d="M36.077 40.137a5.877 5.877 0 0 0-7.873-2.66l-6.17 3.055c2.786 1.298 7.052 2.197 11.887 2.695 1.686.174 2.909-1.57 2.156-3.09Z" fill="url(#x)"/><g opacity=".6"><g opacity=".6"><path opacity=".6" d="M9.482 37.346a1.545 1.545 0 1 0 0-3.09 1.545 1.545 0 0 0 0 3.09Z" fill="url(#y)"/><path opacity=".6" d="M10.661 41.796a1.22 1.22 0 1 0 0-2.44 1.22 1.22 0 0 0 0 2.44Z" fill="url(#z)"/><path opacity=".6" d="M14.89 37.93a.735.735 0 1 0 0-1.47.735.735 0 0 0 0 1.47Z" fill="url(#A)"/></g><g opacity=".6"><path opacity=".6" d="M73.09 42.447a1.545 1.545 0 1 0 0-3.09 1.545 1.545 0 0 0 0 3.09Z" fill="url(#B)"/><path opacity=".6" d="M70.222 46.116a1.22 1.22 0 1 0 0-2.44 1.22 1.22 0 0 0 0 2.44Z" fill="url(#C)"/><path opacity=".6" d="M75.538 46.655a.735.735 0 1 0 0-1.47.735.735 0 0 0 0 1.47Z" fill="url(#D)"/></g><g opacity=".6"><path opacity=".6" d="M15.668 31.482a1.141 1.141 0 1 0 0-2.283 1.141 1.141 0 0 0 0 2.283Z" fill="url(#E)"/><path opacity=".6" d="M13.619 34.244a.901.901 0 1 0 0-1.803.901.901 0 0 0 0 1.803Z" fill="url(#F)"/><path opacity=".6" d="M17.564 34.548a.543.543 0 1 0 0-1.086.543.543 0 0 0 0 1.086Z" fill="url(#G)"/></g></g><path d="M150.841 62.094H65.726v32.623c0 19.199 85.115 19.199 85.115 0V62.094Z" fill="url(#H)"/><path d="M150.841 62.094c0 19.2-85.115 19.2-85.115 0 0-19.199 85.115-19.199 85.115 0Z" fill="url(#I)"/><path d="M83.527 60.546c0 3.118 5.806 5.168 13.442 6.15 14.663 1.887 33.099-.163 33.099-6.15 0-3.392-3.9-5.52-12.524-6.385-14.524-1.456-34.017.672-34.017 6.385Z" fill="url(#J)"/><path d="M94.736 54.724c5.965 1.426 10.3 5.728 10.3 10.815 0 .605-.063 1.198-.181 1.777-11.136-.383-21.328-2.64-21.328-6.77 0-2.805 4.703-4.746 11.209-5.822Z" fill="url(#K)"/><path d="M96.852 66.681c1.063-3.852 6.904-6.798 13.952-6.798 6.542 0 12.043 2.538 13.65 5.983-7.606 1.687-18.83 1.96-27.602.815Z" fill="url(#L)"/><path d="M133.04 60.546c0 3.263-6.359 5.356-14.519 6.28-3.615.41-6.965-2.236-7.181-5.868a6.583 6.583 0 0 1 .274-2.306c.889-2.928 3.838-4.732 6.878-4.389 8.174.922 14.548 3.017 14.548 6.283Z" fill="url(#M)"/><path d="M115.605 57.273a5.877 5.877 0 0 0 7.874 2.66l6.17-3.054c-2.786-1.298-7.052-2.197-11.887-2.695-1.687-.174-2.909 1.57-2.157 3.09Z" fill="url(#N)"/><g opacity=".6"><g opacity=".6"><path opacity=".6" d="M74.366 61.028a1.545 1.545 0 1 0 0-3.09 1.545 1.545 0 0 0 0 3.09Z" fill="url(#O)"/><path opacity=".6" d="M75.545 65.478a1.22 1.22 0 1 0 0-2.44 1.22 1.22 0 0 0 0 2.44Z" fill="url(#P)"/><path opacity=".6" d="M79.773 61.612a.735.735 0 1 0 0-1.47.735.735 0 0 0 0 1.47Z" fill="url(#Q)"/></g><g opacity=".6"><path opacity=".6" d="M137.975 66.128a1.545 1.545 0 1 0 0-3.09 1.545 1.545 0 0 0 0 3.09Z" fill="url(#R)"/><path opacity=".6" d="M135.106 69.798a1.22 1.22 0 1 0 0-2.44 1.22 1.22 0 0 0 0 2.44Z" fill="url(#S)"/><path opacity=".6" d="M140.422 70.337a.735.735 0 1 0 0-1.47.735.735 0 0 0 0 1.47Z" fill="url(#T)"/></g><g opacity=".6"><path opacity=".6" d="M80.552 55.164a1.141 1.141 0 1 0 0-2.283 1.141 1.141 0 0 0 0 2.283Z" fill="url(#U)"/><path opacity=".6" d="M78.503 57.925a.901.901 0 1 0 0-1.802.901.901 0 0 0 0 1.802Z" fill="url(#V)"/><path opacity=".6" d="M82.448 58.23a.543.543 0 1 0 0-1.087.543.543 0 0 0 0 1.087Z" fill="url(#W)"/></g></g><path d="M65.726 82.913v11.804c0 9.861 22.456 14.657 44.3 14.388L92.68 91.759c-4.32-4.665-14.82-7.613-26.954-8.846Z" fill="url(#X)"/><path d="M94.78 96.647H9.663v32.623c0 19.199 85.115 19.199 85.115 0V96.647Z" fill="url(#Y)"/><path d="M94.78 96.647c0 19.199-85.116 19.199-85.116 0s85.115-19.199 85.115 0Z" fill="url(#Z)"/><path d="M76.978 95.1c0 3.115-5.8 5.165-13.43 6.148-14.693.922-33.142-.16-33.142-6.149 0-3.344 3.74-5.46 12.195-6.347 6.002-.63 12.898-.641 18.93-.032 2.082.21 3.764.964 5.568 1.322 2.453.486 4.88.638 6.504 1.397 2.117.989 3.375 2.209 3.375 3.66Z" fill="url(#aa)"/><path d="M65.77 89.277c-5.966 1.425-10.3 5.728-10.3 10.815 0 .605.062 1.198.18 1.777 11.136-.383 21.328-2.64 21.328-6.77 0-2.805-4.702-4.746-11.208-5.822Z" fill="url(#ab)"/><path d="M63.653 101.234c-1.063-3.852-6.904-6.798-13.952-6.798-6.542 0-12.043 2.538-13.65 5.983 7.606 1.687 18.83 1.959 27.602.815Z" fill="url(#ac)"/><path d="M27.465 95.1c0 3.262 6.36 5.355 14.52 6.279 3.614.41 6.964-2.237 7.18-5.868a6.54 6.54 0 0 0-.274-2.306c-.888-2.927-3.837-4.732-6.877-4.389-8.175.922-14.549 3.017-14.549 6.283Z" fill="url(#ad)"/><path d="M59.544 91.827a5.877 5.877 0 0 0 7.874 2.66l6.17-3.054c-2.787-1.3-7.053-2.198-11.888-2.696-1.686-.174-2.909 1.57-2.156 3.09Z" fill="url(#ae)"/><g opacity=".6"><g opacity=".6"><path opacity=".6" d="M18.304 95.581a1.545 1.545 0 1 0 0-3.09 1.545 1.545 0 0 0 0 3.09Z" fill="url(#af)"/><path opacity=".6" d="M19.483 100.031a1.22 1.22 0 1 0 0-2.44 1.22 1.22 0 0 0 0 2.44Z" fill="url(#ag)"/><path opacity=".6" d="M23.711 96.165a.735.735 0 1 0 0-1.47.735.735 0 0 0 0 1.47Z" fill="url(#ah)"/></g><g opacity=".6"><path opacity=".6" d="M81.912 100.681a1.545 1.545 0 1 0 0-3.09 1.545 1.545 0 0 0 0 3.09Z" fill="url(#ai)"/><path opacity=".6" d="M79.044 104.351a1.22 1.22 0 1 0 0-2.44 1.22 1.22 0 0 0 0 2.44Z" fill="url(#aj)"/><path opacity=".6" d="M84.36 104.89a.735.735 0 1 0 0-1.47.735.735 0 0 0 0 1.47Z" fill="url(#ak)"/></g><g opacity=".6"><path opacity=".6" d="M24.49 89.717a1.142 1.142 0 1 0 0-2.283 1.142 1.142 0 0 0 0 2.283Z" fill="url(#al)"/><path opacity=".6" d="M22.441 92.478a.901.901 0 1 0 0-1.802.901.901 0 0 0 0 1.802Z" fill="url(#am)"/><path opacity=".6" d="M26.387 92.783a.543.543 0 1 0 0-1.086.543.543 0 0 0 0 1.086Z" fill="url(#an)"/></g></g><defs><linearGradient id="a" x1="95.738" y1="24.758" x2="115.338" y2="45.546" gradientUnits="userSpaceOnUse"><stop stop-color="#464F00"/><stop offset=".288" stop-color="#454518"/><stop offset=".747" stop-color="#443738"/><stop offset="1" stop-color="#433244"/></linearGradient><linearGradient id="b" x1="99.494" y1="1.946" x2="109.848" y2="40.62" gradientUnits="userSpaceOnUse"><stop stop-color="#F8F6FB"/><stop offset="1" stop-color="#EFDCFB"/></linearGradient><linearGradient id="c" x1="105.298" y1="13.78" x2="107.798" y2="19.368" gradientUnits="userSpaceOnUse"><stop stop-color="#FF6359"/><stop offset=".224" stop-color="#FE5B50"/><stop offset=".595" stop-color="#FC4637"/><stop offset="1" stop-color="#F82814"/></linearGradient><linearGradient id="d" x1="114.544" y1="9.075" x2="120.867" y2="16.575" gradientUnits="userSpaceOnUse"><stop stop-color="#FFA936"/><stop offset=".411" stop-color="#FF8548"/><stop offset=".778" stop-color="#FF6C54"/><stop offset="1" stop-color="#FF6359"/></linearGradient><linearGradient id="e" x1="99.153" y1="5.16" x2="104.006" y2="13.248" gradientUnits="userSpaceOnUse"><stop stop-color="#BADA00"/><stop offset=".227" stop-color="#B0CE00"/><stop offset=".638" stop-color="#95AE00"/><stop offset="1" stop-color="#798C00"/></linearGradient><linearGradient id="f" x1="87.195" y1="10.212" x2="93.371" y2="18.154" gradientUnits="userSpaceOnUse"><stop stop-color="#FFD945"/><stop offset=".304" stop-color="#FFCD3E"/><stop offset=".856" stop-color="#FFAD2B"/><stop offset="1" stop-color="#FFA325"/></linearGradient><linearGradient id="g" x1="112.776" y1="17.35" x2="120.462" y2="14.7" gradientUnits="userSpaceOnUse"><stop stop-color="#FFDECF"/><stop offset=".379" stop-color="#FDC4B0"/><stop offset=".765" stop-color="#FBAE97"/><stop offset="1" stop-color="#FAA68E"/></linearGradient><linearGradient id="h" x1="71.182" y1="12.457" x2="63.937" y2="11.462" gradientUnits="userSpaceOnUse"><stop stop-color="#EFDCFB" stop-opacity="0"/><stop offset=".029" stop-color="#E9D6F7" stop-opacity=".029"/><stop offset=".22" stop-color="#C5B5DE" stop-opacity=".22"/><stop offset=".414" stop-color="#AA9BCB" stop-opacity=".414"/><stop offset=".608" stop-color="#9688BD" stop-opacity=".608"/><stop offset=".803" stop-color="#8A7DB5" stop-opacity=".803"/><stop offset="1" stop-color="#8679B2"/></linearGradient><linearGradient id="i" x1="71.869" y1="17.166" x2="66.149" y2="16.38" gradientUnits="userSpaceOnUse"><stop stop-color="#EFDCFB" stop-opacity="0"/><stop offset=".029" stop-color="#E9D6F7" stop-opacity=".029"/><stop offset=".22" stop-color="#C5B5DE" stop-opacity=".22"/><stop offset=".414" stop-color="#AA9BCB" stop-opacity=".414"/><stop offset=".608" stop-color="#9688BD" stop-opacity=".608"/><stop offset=".803" stop-color="#8A7DB5" stop-opacity=".803"/><stop offset="1" stop-color="#8679B2"/></linearGradient><linearGradient id="j" x1="75.368" y1="13.684" x2="71.92" y2="13.21" gradientUnits="userSpaceOnUse"><stop stop-color="#EFDCFB" stop-opacity="0"/><stop offset=".029" stop-color="#E9D6F7" stop-opacity=".029"/><stop offset=".22" stop-color="#C5B5DE" stop-opacity=".22"/><stop offset=".414" stop-color="#AA9BCB" stop-opacity=".414"/><stop offset=".608" stop-color="#9688BD" stop-opacity=".608"/><stop offset=".803" stop-color="#8A7DB5" stop-opacity=".803"/><stop offset="1" stop-color="#8679B2"/></linearGradient><linearGradient id="k" x1="133.622" y1="19.468" x2="129.675" y2="13.308" gradientUnits="userSpaceOnUse"><stop stop-color="#EFDCFB" stop-opacity="0"/><stop offset=".029" stop-color="#E9D6F7" stop-opacity=".029"/><stop offset=".22" stop-color="#C5B5DE" stop-opacity=".22"/><stop offset=".414" stop-color="#AA9BCB" stop-opacity=".414"/><stop offset=".608" stop-color="#9688BD" stop-opacity=".608"/><stop offset=".803" stop-color="#8A7DB5" stop-opacity=".803"/><stop offset="1" stop-color="#8679B2"/></linearGradient><linearGradient id="l" x1="130.485" y1="23.048" x2="127.369" y2="18.186" gradientUnits="userSpaceOnUse"><stop stop-color="#EFDCFB" stop-opacity="0"/><stop offset=".029" stop-color="#E9D6F7" stop-opacity=".029"/><stop offset=".22" stop-color="#C5B5DE" stop-opacity=".22"/><stop offset=".414" stop-color="#AA9BCB" stop-opacity=".414"/><stop offset=".608" stop-color="#9688BD" stop-opacity=".608"/><stop offset=".803" stop-color="#8A7DB5" stop-opacity=".803"/><stop offset="1" stop-color="#8679B2"/></linearGradient><linearGradient id="m" x1="135.406" y1="23.451" x2="133.528" y2="20.519" gradientUnits="userSpaceOnUse"><stop stop-color="#EFDCFB" stop-opacity="0"/><stop offset=".029" stop-color="#E9D6F7" stop-opacity=".029"/><stop offset=".22" stop-color="#C5B5DE" stop-opacity=".22"/><stop offset=".414" stop-color="#AA9BCB" stop-opacity=".414"/><stop offset=".608" stop-color="#9688BD" stop-opacity=".608"/><stop offset=".803" stop-color="#8A7DB5" stop-opacity=".803"/><stop offset="1" stop-color="#8679B2"/></linearGradient><linearGradient id="n" x1="76.031" y1="8.367" x2="73.005" y2="3.887" gradientUnits="userSpaceOnUse"><stop stop-color="#EFDCFB" stop-opacity="0"/><stop offset=".029" stop-color="#E9D6F7" stop-opacity=".029"/><stop offset=".22" stop-color="#C5B5DE" stop-opacity=".22"/><stop offset=".414" stop-color="#AA9BCB" stop-opacity=".414"/><stop offset=".608" stop-color="#9688BD" stop-opacity=".608"/><stop offset=".803" stop-color="#8A7DB5" stop-opacity=".803"/><stop offset="1" stop-color="#8679B2"/></linearGradient><linearGradient id="o" x1="73.777" y1="11.067" x2="71.388" y2="7.531" gradientUnits="userSpaceOnUse"><stop stop-color="#EFDCFB" stop-opacity="0"/><stop offset=".029" stop-color="#E9D6F7" stop-opacity=".029"/><stop offset=".22" stop-color="#C5B5DE" stop-opacity=".22"/><stop offset=".414" stop-color="#AA9BCB" stop-opacity=".414"/><stop offset=".608" stop-color="#9688BD" stop-opacity=".608"/><stop offset=".803" stop-color="#8A7DB5" stop-opacity=".803"/><stop offset="1" stop-color="#8679B2"/></linearGradient><linearGradient id="p" x1="77.419" y1="11.277" x2="75.979" y2="9.145" gradientUnits="userSpaceOnUse"><stop stop-color="#EFDCFB" stop-opacity="0"/><stop offset=".029" stop-color="#E9D6F7" stop-opacity=".029"/><stop offset=".22" stop-color="#C5B5DE" stop-opacity=".22"/><stop offset=".414" stop-color="#AA9BCB" stop-opacity=".414"/><stop offset=".608" stop-color="#9688BD" stop-opacity=".608"/><stop offset=".803" stop-color="#8A7DB5" stop-opacity=".803"/><stop offset="1" stop-color="#8679B2"/></linearGradient><linearGradient id="q" x1="100.97" y1="70.697" x2="66.4" y2="36.126" gradientUnits="userSpaceOnUse"><stop offset=".001" stop-color="#433244" stop-opacity="0"/><stop offset=".484" stop-color="#362637" stop-opacity=".484"/><stop offset="1" stop-color="#2D1E2E"/></linearGradient><linearGradient id="r" x1="36.219" y1="48.44" x2="55.82" y2="69.228" gradientUnits="userSpaceOnUse"><stop stop-color="#464F00"/><stop offset=".288" stop-color="#454518"/><stop offset=".747" stop-color="#443738"/><stop offset="1" stop-color="#433244"/></linearGradient><linearGradient id="s" x1="39.977" y1="25.628" x2="50.33" y2="64.302" gradientUnits="userSpaceOnUse"><stop stop-color="#F8F6FB"/><stop offset="1" stop-color="#EFDCFB"/></linearGradient><linearGradient id="t" x1="42.177" y1="40.148" x2="43.794" y2="45.59" gradientUnits="userSpaceOnUse"><stop stop-color="#FF6359"/><stop offset=".224" stop-color="#FE5B50"/><stop offset=".595" stop-color="#FC4637"/><stop offset="1" stop-color="#F82814"/></linearGradient><linearGradient id="u" x1="29.637" y1="34.411" x2="34.196" y2="42.941" gradientUnits="userSpaceOnUse"><stop stop-color="#FFA936"/><stop offset=".411" stop-color="#FF8548"/><stop offset=".778" stop-color="#FF6C54"/><stop offset="1" stop-color="#FF6359"/></linearGradient><linearGradient id="v" x1="46.091" y1="31.911" x2="48.297" y2="36.617" gradientUnits="userSpaceOnUse"><stop stop-color="#BADA00"/><stop offset=".227" stop-color="#B0CE00"/><stop offset=".638" stop-color="#95AE00"/><stop offset="1" stop-color="#798C00"/></linearGradient><linearGradient id="w" x1="55.567" y1="33.804" x2="60.567" y2="43.951" gradientUnits="userSpaceOnUse"><stop stop-color="#FFD945"/><stop offset=".304" stop-color="#FFCD3E"/><stop offset=".856" stop-color="#FFAD2B"/><stop offset="1" stop-color="#FFA325"/></linearGradient><linearGradient id="x" x1="27.976" y1="38.35" x2="30.623" y2="43.203" gradientUnits="userSpaceOnUse"><stop stop-color="#FFDECF"/><stop offset=".379" stop-color="#FDC4B0"/><stop offset=".765" stop-color="#FBAE97"/><stop offset="1" stop-color="#FAA68E"/></linearGradient><linearGradient id="y" x1="11.65" y1="36.128" x2="4.405" y2="35.133" gradientUnits="userSpaceOnUse"><stop stop-color="#EFDCFB" stop-opacity="0"/><stop offset=".029" stop-color="#E9D6F7" stop-opacity=".029"/><stop offset=".22" stop-color="#C5B5DE" stop-opacity=".22"/><stop offset=".414" stop-color="#AA9BCB" stop-opacity=".414"/><stop offset=".608" stop-color="#9688BD" stop-opacity=".608"/><stop offset=".803" stop-color="#8A7DB5" stop-opacity=".803"/><stop offset="1" stop-color="#8679B2"/></linearGradient><linearGradient id="z" x1="12.338" y1="40.837" x2="6.618" y2="40.051" gradientUnits="userSpaceOnUse"><stop stop-color="#EFDCFB" stop-opacity="0"/><stop offset=".029" stop-color="#E9D6F7" stop-opacity=".029"/><stop offset=".22" stop-color="#C5B5DE" stop-opacity=".22"/><stop offset=".414" stop-color="#AA9BCB" stop-opacity=".414"/><stop offset=".608" stop-color="#9688BD" stop-opacity=".608"/><stop offset=".803" stop-color="#8A7DB5" stop-opacity=".803"/><stop offset="1" stop-color="#8679B2"/></linearGradient><linearGradient id="A" x1="15.836" y1="37.355" x2="12.388" y2="36.881" gradientUnits="userSpaceOnUse"><stop stop-color="#EFDCFB" stop-opacity="0"/><stop offset=".029" stop-color="#E9D6F7" stop-opacity=".029"/><stop offset=".22" stop-color="#C5B5DE" stop-opacity=".22"/><stop offset=".414" stop-color="#AA9BCB" stop-opacity=".414"/><stop offset=".608" stop-color="#9688BD" stop-opacity=".608"/><stop offset=".803" stop-color="#8A7DB5" stop-opacity=".803"/><stop offset="1" stop-color="#8679B2"/></linearGradient><linearGradient id="B" x1="74.077" y1="43.169" x2="70.129" y2="37.009" gradientUnits="userSpaceOnUse"><stop stop-color="#EFDCFB" stop-opacity="0"/><stop offset=".029" stop-color="#E9D6F7" stop-opacity=".029"/><stop offset=".22" stop-color="#C5B5DE" stop-opacity=".22"/><stop offset=".414" stop-color="#AA9BCB" stop-opacity=".414"/><stop offset=".608" stop-color="#9688BD" stop-opacity=".608"/><stop offset=".803" stop-color="#8A7DB5" stop-opacity=".803"/><stop offset="1" stop-color="#8679B2"/></linearGradient><linearGradient id="C" x1="70.94" y1="46.749" x2="67.824" y2="41.886" gradientUnits="userSpaceOnUse"><stop stop-color="#EFDCFB" stop-opacity="0"/><stop offset=".029" stop-color="#E9D6F7" stop-opacity=".029"/><stop offset=".22" stop-color="#C5B5DE" stop-opacity=".22"/><stop offset=".414" stop-color="#AA9BCB" stop-opacity=".414"/><stop offset=".608" stop-color="#9688BD" stop-opacity=".608"/><stop offset=".803" stop-color="#8A7DB5" stop-opacity=".803"/><stop offset="1" stop-color="#8679B2"/></linearGradient><linearGradient id="D" x1="75.861" y1="47.151" x2="73.982" y2="44.22" gradientUnits="userSpaceOnUse"><stop stop-color="#EFDCFB" stop-opacity="0"/><stop offset=".029" stop-color="#E9D6F7" stop-opacity=".029"/><stop offset=".22" stop-color="#C5B5DE" stop-opacity=".22"/><stop offset=".414" stop-color="#AA9BCB" stop-opacity=".414"/><stop offset=".608" stop-color="#9688BD" stop-opacity=".608"/><stop offset=".803" stop-color="#8A7DB5" stop-opacity=".803"/><stop offset="1" stop-color="#8679B2"/></linearGradient><linearGradient id="E" x1="16.491" y1="32.079" x2="13.466" y2="27.598" gradientUnits="userSpaceOnUse"><stop stop-color="#EFDCFB" stop-opacity="0"/><stop offset=".029" stop-color="#E9D6F7" stop-opacity=".029"/><stop offset=".22" stop-color="#C5B5DE" stop-opacity=".22"/><stop offset=".414" stop-color="#AA9BCB" stop-opacity=".414"/><stop offset=".608" stop-color="#9688BD" stop-opacity=".608"/><stop offset=".803" stop-color="#8A7DB5" stop-opacity=".803"/><stop offset="1" stop-color="#8679B2"/></linearGradient><linearGradient id="F" x1="14.238" y1="34.779" x2="11.849" y2="31.242" gradientUnits="userSpaceOnUse"><stop stop-color="#EFDCFB" stop-opacity="0"/><stop offset=".029" stop-color="#E9D6F7" stop-opacity=".029"/><stop offset=".22" stop-color="#C5B5DE" stop-opacity=".22"/><stop offset=".414" stop-color="#AA9BCB" stop-opacity=".414"/><stop offset=".608" stop-color="#9688BD" stop-opacity=".608"/><stop offset=".803" stop-color="#8A7DB5" stop-opacity=".803"/><stop offset="1" stop-color="#8679B2"/></linearGradient><linearGradient id="G" x1="17.88" y1="34.989" x2="16.44" y2="32.856" gradientUnits="userSpaceOnUse"><stop stop-color="#EFDCFB" stop-opacity="0"/><stop offset=".029" stop-color="#E9D6F7" stop-opacity=".029"/><stop offset=".22" stop-color="#C5B5DE" stop-opacity=".22"/><stop offset=".414" stop-color="#AA9BCB" stop-opacity=".414"/><stop offset=".608" stop-color="#9688BD" stop-opacity=".608"/><stop offset=".803" stop-color="#8A7DB5" stop-opacity=".803"/><stop offset="1" stop-color="#8679B2"/></linearGradient><linearGradient id="H" x1="101.104" y1="72.122" x2="120.704" y2="92.91" gradientUnits="userSpaceOnUse"><stop stop-color="#464F00"/><stop offset=".288" stop-color="#454518"/><stop offset=".747" stop-color="#443738"/><stop offset="1" stop-color="#433244"/></linearGradient><linearGradient id="I" x1="104.861" y1="49.309" x2="115.214" y2="87.983" gradientUnits="userSpaceOnUse"><stop stop-color="#F8F6FB"/><stop offset="1" stop-color="#EFDCFB"/></linearGradient><linearGradient id="J" x1="107.335" y1="54.462" x2="106.879" y2="59.64" gradientUnits="userSpaceOnUse"><stop stop-color="#FF6359"/><stop offset=".224" stop-color="#FE5B50"/><stop offset=".595" stop-color="#FC4637"/><stop offset="1" stop-color="#F82814"/></linearGradient><linearGradient id="K" x1="92.508" y1="58.295" x2="96.478" y2="67.413" gradientUnits="userSpaceOnUse"><stop stop-color="#FFA936"/><stop offset=".411" stop-color="#FF8548"/><stop offset=".778" stop-color="#FF6C54"/><stop offset="1" stop-color="#FF6359"/></linearGradient><linearGradient id="L" x1="108.949" y1="61.081" x2="112.038" y2="70.493" gradientUnits="userSpaceOnUse"><stop stop-color="#BADA00"/><stop offset=".227" stop-color="#B0CE00"/><stop offset=".638" stop-color="#95AE00"/><stop offset="1" stop-color="#798C00"/></linearGradient><linearGradient id="M" x1="121.198" y1="59.704" x2="127.522" y2="68.821" gradientUnits="userSpaceOnUse"><stop stop-color="#FFD945"/><stop offset=".304" stop-color="#FFCD3E"/><stop offset=".856" stop-color="#FFAD2B"/><stop offset="1" stop-color="#FFA325"/></linearGradient><linearGradient id="N" x1="118.142" y1="56.379" x2="125.828" y2="59.029" gradientUnits="userSpaceOnUse"><stop stop-color="#FFDECF"/><stop offset=".379" stop-color="#FDC4B0"/><stop offset=".765" stop-color="#FBAE97"/><stop offset="1" stop-color="#FAA68E"/></linearGradient><linearGradient id="O" x1="76.538" y1="59.829" x2="69.292" y2="58.834" gradientUnits="userSpaceOnUse"><stop stop-color="#EFDCFB" stop-opacity="0"/><stop offset=".029" stop-color="#E9D6F7" stop-opacity=".029"/><stop offset=".22" stop-color="#C5B5DE" stop-opacity=".22"/><stop offset=".414" stop-color="#AA9BCB" stop-opacity=".414"/><stop offset=".608" stop-color="#9688BD" stop-opacity=".608"/><stop offset=".803" stop-color="#8A7DB5" stop-opacity=".803"/><stop offset="1" stop-color="#8679B2"/></linearGradient><linearGradient id="P" x1="77.225" y1="64.537" x2="71.505" y2="63.752" gradientUnits="userSpaceOnUse"><stop stop-color="#EFDCFB" stop-opacity="0"/><stop offset=".029" stop-color="#E9D6F7" stop-opacity=".029"/><stop offset=".22" stop-color="#C5B5DE" stop-opacity=".22"/><stop offset=".414" stop-color="#AA9BCB" stop-opacity=".414"/><stop offset=".608" stop-color="#9688BD" stop-opacity=".608"/><stop offset=".803" stop-color="#8A7DB5" stop-opacity=".803"/><stop offset="1" stop-color="#8679B2"/></linearGradient><linearGradient id="Q" x1="80.724" y1="61.056" x2="77.276" y2="60.582" gradientUnits="userSpaceOnUse"><stop stop-color="#EFDCFB" stop-opacity="0"/><stop offset=".029" stop-color="#E9D6F7" stop-opacity=".029"/><stop offset=".22" stop-color="#C5B5DE" stop-opacity=".22"/><stop offset=".414" stop-color="#AA9BCB" stop-opacity=".414"/><stop offset=".608" stop-color="#9688BD" stop-opacity=".608"/><stop offset=".803" stop-color="#8A7DB5" stop-opacity=".803"/><stop offset="1" stop-color="#8679B2"/></linearGradient><linearGradient id="R" x1="138.997" y1="66.856" x2="135.05" y2="60.696" gradientUnits="userSpaceOnUse"><stop stop-color="#EFDCFB" stop-opacity="0"/><stop offset=".029" stop-color="#E9D6F7" stop-opacity=".029"/><stop offset=".22" stop-color="#C5B5DE" stop-opacity=".22"/><stop offset=".414" stop-color="#AA9BCB" stop-opacity=".414"/><stop offset=".608" stop-color="#9688BD" stop-opacity=".608"/><stop offset=".803" stop-color="#8A7DB5" stop-opacity=".803"/><stop offset="1" stop-color="#8679B2"/></linearGradient><linearGradient id="S" x1="135.86" y1="70.436" x2="132.744" y2="65.573" gradientUnits="userSpaceOnUse"><stop stop-color="#EFDCFB" stop-opacity="0"/><stop offset=".029" stop-color="#E9D6F7" stop-opacity=".029"/><stop offset=".22" stop-color="#C5B5DE" stop-opacity=".22"/><stop offset=".414" stop-color="#AA9BCB" stop-opacity=".414"/><stop offset=".608" stop-color="#9688BD" stop-opacity=".608"/><stop offset=".803" stop-color="#8A7DB5" stop-opacity=".803"/><stop offset="1" stop-color="#8679B2"/></linearGradient><linearGradient id="T" x1="140.781" y1="70.838" x2="138.902" y2="67.906" gradientUnits="userSpaceOnUse"><stop stop-color="#EFDCFB" stop-opacity="0"/><stop offset=".029" stop-color="#E9D6F7" stop-opacity=".029"/><stop offset=".22" stop-color="#C5B5DE" stop-opacity=".22"/><stop offset=".414" stop-color="#AA9BCB" stop-opacity=".414"/><stop offset=".608" stop-color="#9688BD" stop-opacity=".608"/><stop offset=".803" stop-color="#8A7DB5" stop-opacity=".803"/><stop offset="1" stop-color="#8679B2"/></linearGradient><linearGradient id="U" x1="81.414" y1="55.752" x2="78.389" y2="51.272" gradientUnits="userSpaceOnUse"><stop stop-color="#EFDCFB" stop-opacity="0"/><stop offset=".029" stop-color="#E9D6F7" stop-opacity=".029"/><stop offset=".22" stop-color="#C5B5DE" stop-opacity=".22"/><stop offset=".414" stop-color="#AA9BCB" stop-opacity=".414"/><stop offset=".608" stop-color="#9688BD" stop-opacity=".608"/><stop offset=".803" stop-color="#8A7DB5" stop-opacity=".803"/><stop offset="1" stop-color="#8679B2"/></linearGradient><linearGradient id="V" x1="79.16" y1="58.453" x2="76.772" y2="54.916" gradientUnits="userSpaceOnUse"><stop stop-color="#EFDCFB" stop-opacity="0"/><stop offset=".029" stop-color="#E9D6F7" stop-opacity=".029"/><stop offset=".22" stop-color="#C5B5DE" stop-opacity=".22"/><stop offset=".414" stop-color="#AA9BCB" stop-opacity=".414"/><stop offset=".608" stop-color="#9688BD" stop-opacity=".608"/><stop offset=".803" stop-color="#8A7DB5" stop-opacity=".803"/><stop offset="1" stop-color="#8679B2"/></linearGradient><linearGradient id="W" x1="82.803" y1="58.662" x2="81.363" y2="56.53" gradientUnits="userSpaceOnUse"><stop stop-color="#EFDCFB" stop-opacity="0"/><stop offset=".029" stop-color="#E9D6F7" stop-opacity=".029"/><stop offset=".22" stop-color="#C5B5DE" stop-opacity=".22"/><stop offset=".414" stop-color="#AA9BCB" stop-opacity=".414"/><stop offset=".608" stop-color="#9688BD" stop-opacity=".608"/><stop offset=".803" stop-color="#8A7DB5" stop-opacity=".803"/><stop offset="1" stop-color="#8679B2"/></linearGradient><linearGradient id="X" x1="114.173" y1="129.602" x2="83.626" y2="99.055" gradientUnits="userSpaceOnUse"><stop offset=".001" stop-color="#433244" stop-opacity="0"/><stop offset=".484" stop-color="#362637" stop-opacity=".484"/><stop offset="1" stop-color="#2D1E2E"/></linearGradient><linearGradient id="Y" x1="45.042" y1="106.675" x2="64.642" y2="127.463" gradientUnits="userSpaceOnUse"><stop stop-color="#464F00"/><stop offset=".288" stop-color="#454518"/><stop offset=".747" stop-color="#443738"/><stop offset="1" stop-color="#433244"/></linearGradient><linearGradient id="Z" x1="48.799" y1="83.862" x2="59.152" y2="122.536" gradientUnits="userSpaceOnUse"><stop stop-color="#F8F6FB"/><stop offset="1" stop-color="#EFDCFB"/></linearGradient><linearGradient id="aa" x1="53.154" y1="89.011" x2="53.609" y2="94.167" gradientUnits="userSpaceOnUse"><stop stop-color="#FF6359"/><stop offset=".224" stop-color="#FE5B50"/><stop offset=".595" stop-color="#FC4637"/><stop offset="1" stop-color="#F82814"/></linearGradient><linearGradient id="ab" x1="65.284" y1="93.76" x2="66.959" y2="101.22" gradientUnits="userSpaceOnUse"><stop stop-color="#FFA936"/><stop offset=".411" stop-color="#FF8548"/><stop offset=".778" stop-color="#FF6C54"/><stop offset="1" stop-color="#FF6359"/></linearGradient><linearGradient id="ac" x1="47.809" y1="96.794" x2="52.985" y2="106.691" gradientUnits="userSpaceOnUse"><stop stop-color="#BADA00"/><stop offset=".227" stop-color="#B0CE00"/><stop offset=".638" stop-color="#95AE00"/><stop offset="1" stop-color="#798C00"/></linearGradient><linearGradient id="ad" x1="38.491" y1="94.814" x2="43.549" y2="102.857" gradientUnits="userSpaceOnUse"><stop stop-color="#FFD945"/><stop offset=".304" stop-color="#FFCD3E"/><stop offset=".856" stop-color="#FFAD2B"/><stop offset="1" stop-color="#FFA325"/></linearGradient><linearGradient id="ae" x1="62.081" y1="90.932" x2="69.766" y2="93.582" gradientUnits="userSpaceOnUse"><stop stop-color="#FFDECF"/><stop offset=".379" stop-color="#FDC4B0"/><stop offset=".765" stop-color="#FBAE97"/><stop offset="1" stop-color="#FAA68E"/></linearGradient><linearGradient id="af" x1="20.46" y1="94.373" x2="13.214" y2="93.378" gradientUnits="userSpaceOnUse"><stop stop-color="#EFDCFB" stop-opacity="0"/><stop offset=".029" stop-color="#E9D6F7" stop-opacity=".029"/><stop offset=".22" stop-color="#C5B5DE" stop-opacity=".22"/><stop offset=".414" stop-color="#AA9BCB" stop-opacity=".414"/><stop offset=".608" stop-color="#9688BD" stop-opacity=".608"/><stop offset=".803" stop-color="#8A7DB5" stop-opacity=".803"/><stop offset="1" stop-color="#8679B2"/></linearGradient><linearGradient id="ag" x1="21.147" y1="99.081" x2="15.427" y2="98.296" gradientUnits="userSpaceOnUse"><stop stop-color="#EFDCFB" stop-opacity="0"/><stop offset=".029" stop-color="#E9D6F7" stop-opacity=".029"/><stop offset=".22" stop-color="#C5B5DE" stop-opacity=".22"/><stop offset=".414" stop-color="#AA9BCB" stop-opacity=".414"/><stop offset=".608" stop-color="#9688BD" stop-opacity=".608"/><stop offset=".803" stop-color="#8A7DB5" stop-opacity=".803"/><stop offset="1" stop-color="#8679B2"/></linearGradient><linearGradient id="ah" x1="24.646" y1="95.6" x2="21.197" y2="95.126" gradientUnits="userSpaceOnUse"><stop stop-color="#EFDCFB" stop-opacity="0"/><stop offset=".029" stop-color="#E9D6F7" stop-opacity=".029"/><stop offset=".22" stop-color="#C5B5DE" stop-opacity=".22"/><stop offset=".414" stop-color="#AA9BCB" stop-opacity=".414"/><stop offset=".608" stop-color="#9688BD" stop-opacity=".608"/><stop offset=".803" stop-color="#8A7DB5" stop-opacity=".803"/><stop offset="1" stop-color="#8679B2"/></linearGradient><linearGradient id="ai" x1="82.91" y1="101.433" x2="78.963" y2="95.273" gradientUnits="userSpaceOnUse"><stop stop-color="#EFDCFB" stop-opacity="0"/><stop offset=".029" stop-color="#E9D6F7" stop-opacity=".029"/><stop offset=".22" stop-color="#C5B5DE" stop-opacity=".22"/><stop offset=".414" stop-color="#AA9BCB" stop-opacity=".414"/><stop offset=".608" stop-color="#9688BD" stop-opacity=".608"/><stop offset=".803" stop-color="#8A7DB5" stop-opacity=".803"/><stop offset="1" stop-color="#8679B2"/></linearGradient><linearGradient id="aj" x1="79.773" y1="105.013" x2="76.657" y2="100.15" gradientUnits="userSpaceOnUse"><stop stop-color="#EFDCFB" stop-opacity="0"/><stop offset=".029" stop-color="#E9D6F7" stop-opacity=".029"/><stop offset=".22" stop-color="#C5B5DE" stop-opacity=".22"/><stop offset=".414" stop-color="#AA9BCB" stop-opacity=".414"/><stop offset=".608" stop-color="#9688BD" stop-opacity=".608"/><stop offset=".803" stop-color="#8A7DB5" stop-opacity=".803"/><stop offset="1" stop-color="#8679B2"/></linearGradient><linearGradient id="ak" x1="84.695" y1="105.415" x2="82.816" y2="102.483" gradientUnits="userSpaceOnUse"><stop stop-color="#EFDCFB" stop-opacity="0"/><stop offset=".029" stop-color="#E9D6F7" stop-opacity=".029"/><stop offset=".22" stop-color="#C5B5DE" stop-opacity=".22"/><stop offset=".414" stop-color="#AA9BCB" stop-opacity=".414"/><stop offset=".608" stop-color="#9688BD" stop-opacity=".608"/><stop offset=".803" stop-color="#8A7DB5" stop-opacity=".803"/><stop offset="1" stop-color="#8679B2"/></linearGradient><linearGradient id="al" x1="25.336" y1="90.339" x2="22.311" y2="85.858" gradientUnits="userSpaceOnUse"><stop stop-color="#EFDCFB" stop-opacity="0"/><stop offset=".029" stop-color="#E9D6F7" stop-opacity=".029"/><stop offset=".22" stop-color="#C5B5DE" stop-opacity=".22"/><stop offset=".414" stop-color="#AA9BCB" stop-opacity=".414"/><stop offset=".608" stop-color="#9688BD" stop-opacity=".608"/><stop offset=".803" stop-color="#8A7DB5" stop-opacity=".803"/><stop offset="1" stop-color="#8679B2"/></linearGradient><linearGradient id="am" x1="23.082" y1="93.039" x2="20.694" y2="89.502" gradientUnits="userSpaceOnUse"><stop stop-color="#EFDCFB" stop-opacity="0"/><stop offset=".029" stop-color="#E9D6F7" stop-opacity=".029"/><stop offset=".22" stop-color="#C5B5DE" stop-opacity=".22"/><stop offset=".414" stop-color="#AA9BCB" stop-opacity=".414"/><stop offset=".608" stop-color="#9688BD" stop-opacity=".608"/><stop offset=".803" stop-color="#8A7DB5" stop-opacity=".803"/><stop offset="1" stop-color="#8679B2"/></linearGradient><linearGradient id="an" x1="26.724" y1="93.249" x2="25.285" y2="91.117" gradientUnits="userSpaceOnUse"><stop stop-color="#EFDCFB" stop-opacity="0"/><stop offset=".029" stop-color="#E9D6F7" stop-opacity=".029"/><stop offset=".22" stop-color="#C5B5DE" stop-opacity=".22"/><stop offset=".414" stop-color="#AA9BCB" stop-opacity=".414"/><stop offset=".608" stop-color="#9688BD" stop-opacity=".608"/><stop offset=".803" stop-color="#8A7DB5" stop-opacity=".803"/><stop offset="1" stop-color="#8679B2"/></linearGradient></defs></svg>