<svg width="151" height="128" fill="none" xmlns="http://www.w3.org/2000/svg"><path d="M75.17 1.52c-41.42 0-75 28.175-75 62.934s33.58 62.933 75 62.933c41.419 0 74.999-28.174 74.999-62.933 0-34.758-33.58-62.933-75-62.933Zm.22 27.093c-.087 0-.173-.003-.26-.003h.04c.073 0 .146.003.22.003ZM75.17 60.3c-10.083 0-18.733-3.978-22.443-9.65 3.698-5.668 12.308-9.668 22.364-9.718 10.13-.05 18.833 3.923 22.542 9.62C93.94 56.248 85.279 60.3 75.169 60.3Z" fill="url(#a)"/><path d="M75.17 1.52c-41.42 0-75 28.175-75 62.934s33.58 62.933 75 62.933c41.419 0 74.999-28.174 74.999-62.933 0-34.758-33.58-62.933-75-62.933Zm.22 27.093c-.087 0-.173-.003-.26-.003h.04c.073 0 .146.003.22.003ZM75.17 60.3c-10.083 0-18.733-3.978-22.443-9.65 3.698-5.668 12.308-9.668 22.364-9.718 10.13-.05 18.833 3.923 22.542 9.62C93.94 56.248 85.279 60.3 75.169 60.3Z" fill="url(#b)"/><path d="M150.169 64.454h-40.866c-27.075 0-49.023 21.949-49.023 49.023 0 2.103.937 3.984 2.41 5.261l8.565 8.564c1.296.056 2.602.085 3.914.085 41.42 0 75-28.174 75-62.933Z" fill="url(#c)"/><path d="M150.169 64.454h-23.232c-24.16 0-43.746 19.586-43.746 43.746 0 2.152.955 4.12 2.47 5.442l11.094 11.095c30.898-7.78 53.414-31.822 53.414-60.283Z" fill="url(#d)"/><path d="M150.169 64.454c0-16.978-8.014-32.382-21.038-43.702v64.637a6.942 6.942 0 0 0 2.258 4.756l7.505 7.504c7.144-9.637 11.275-21.01 11.275-33.195Z" fill="url(#e)"/><path d="M150.169 49.369c0-27.16-33.58-49.176-75-49.176S.17 22.208.17 49.37c0 5.304 1.283 10.41 3.654 15.197 2.35 4.742 3.484 9.994 3.484 15.287v10.286c0 3.842 3.034 7.096 6.876 7.142a6.935 6.935 0 0 0 5.005-2.039 6.943 6.943 0 0 0 2.04-4.922c0-2.9 3.108-4.732 5.646-3.33 7.307 4.037 15.805 7.175 25.1 9.156 4.83 1.029 8.306 5.258 8.306 10.196v7.136a6.96 6.96 0 1 0 13.92 0v-7.293a4.497 4.497 0 0 1 7.675-3.18 4.488 4.488 0 0 1 1.317 3.18v2.014c0 3.841 3.034 7.095 6.875 7.142a6.94 6.94 0 0 0 5.006-2.039 6.937 6.937 0 0 0 2.039-4.923v-3.46c0-4.825 3.187-9.086 7.828-10.404 8.606-2.443 16.375-5.912 22.949-10.173a.793.793 0 0 1 1.223.667 6.96 6.96 0 0 0 13.92 0v-6.881c0-4.436 1.012-8.83 3.074-12.759 2.632-5.016 4.063-10.398 4.063-16Zm-75.078-20.76c13.464-.066 24.411 6.974 24.455 15.725.043 8.75-10.834 15.898-24.298 15.965-13.464.067-24.412-6.973-24.455-15.724-.043-8.751 10.834-15.899 24.298-15.965Z" fill="url(#f)"/><g opacity=".6"><g opacity=".6"><path opacity=".6" d="M32.558 100.13a2.846 2.846 0 1 0 0-5.691 2.846 2.846 0 0 0 0 5.691Z" fill="url(#g)"/><path opacity=".6" d="M24.762 104.148a2.247 2.247 0 1 0 0-4.494 2.247 2.247 0 0 0 0 4.494Z" fill="url(#h)"/><path opacity=".6" d="M32.974 108.916a1.354 1.354 0 1 0 0-2.708 1.354 1.354 0 0 0 0 2.708Z" fill="url(#i)"/></g><g opacity=".6"><path opacity=".6" d="M45.476 107.397a2.103 2.103 0 1 0 0-4.205 2.103 2.103 0 0 0 0 4.205Z" fill="url(#j)"/><path opacity=".6" d="M39.093 104.936a1.66 1.66 0 1 0 0-3.322 1.66 1.66 0 0 0 0 3.322Z" fill="url(#k)"/><path opacity=".6" d="M40.02 111.587a1 1 0 1 0 .001-2.002 1 1 0 0 0 0 2.002Z" fill="url(#l)"/></g><g opacity=".6"><path opacity=".6" d="M132.059 98.08a2.103 2.103 0 1 0 0-4.206 2.103 2.103 0 0 0 0 4.207Z" fill="url(#m)"/><path opacity=".6" d="M125.676 95.619a1.66 1.66 0 1 0 0-3.32 1.66 1.66 0 0 0 0 3.32Z" fill="url(#n)"/><path opacity=".6" d="M126.603 102.27a1 1 0 1 0 0-2.001 1 1 0 0 0 0 2.001Z" fill="url(#o)"/></g></g><path d="M80.799 7.508c-1.412-2.768-5.646-2.994-7.114-3.072-3.427-.182-8.169.237-14.096 1.242-25.153 4.265-45.18 25.199-46.02 26.088a2.532 2.532 0 0 0 .101 3.58l8.248 7.946c-3.533 3.846-6.892 8.494-7.771 12.943-.806 4.077.755 6.6 2.208 7.997l30.749 30.75c1.597.422 3.22.812 4.87 1.164 4.83 1.029 8.307 5.258 8.307 10.196v1.816l10.988 10.989c.317-.226.618-.472.893-.747a6.941 6.941 0 0 0 2.039-4.922v-7.293a4.497 4.497 0 0 1 7.674-3.18 4.488 4.488 0 0 1 1.317 3.18v2.014c0 3.842 3.034 7.095 6.876 7.142a6.94 6.94 0 0 0 5.005-2.039 6.937 6.937 0 0 0 2.039-4.923v-3.46c0-4.825 3.187-9.086 7.828-10.404 8.606-2.443 16.375-5.912 22.949-10.173a.793.793 0 0 1 1.223.667 6.96 6.96 0 0 0 13.921 0v-6.881c0-2.508.324-5.003.977-7.408L80.799 7.508Zm-5.55 52.79c-13.465.067-24.412-6.972-24.456-15.723-.043-8.751 10.834-15.899 24.298-15.965 13.465-.067 24.412 6.972 24.455 15.724.043 8.75-10.834 15.898-24.298 15.965Z" fill="url(#p)"/><path d="M22.432 66.46c-2.498 0-4.539-.746-6.077-2.228-1.452-1.398-3.014-3.92-2.208-7.997 1.429-7.23 9.408-14.99 14.037-18.972 7.702-6.626 17.19-12.429 26.034-15.921 14.584-5.76 20.073-9.801 21.554-11.529-1.43-.372-5.405-.826-15.336.858-23.5 3.985-42.991 24.368-43.185 24.574a2.532 2.532 0 1 1-3.681-3.479c.84-.889 20.866-21.823 46.02-26.088 5.927-1.005 10.669-1.424 14.095-1.242 1.593.084 6.438.34 7.41 3.825.997 3.575-3.178 6.748-6.405 8.825C70.435 19.823 64 22.924 56.08 26.051c-8.339 3.293-17.302 8.779-24.592 15.05-6.93 5.962-11.555 11.987-12.371 16.115-.394 1.99.24 2.875.752 3.367 1.483 1.427 5.011.981 10.204-1.289 6.264-2.738 14.205-7.857 20.424-12.01a2.532 2.532 0 1 1 2.813 4.211c-6.393 4.27-14.58 9.542-21.209 12.44-3.359 1.468-6.154 2.278-8.545 2.477a13.52 13.52 0 0 1-1.123.047Z" fill="url(#q)"/><path d="M150.17 49.369c0 5.601-1.432 10.983-4.065 16-2.06 3.926-3.073 8.322-3.073 12.759v6.88c0 .713-.108 1.405-.31 2.053l-43.19-43.189c-.36-7.407-8.538-13.495-19.332-14.936.02-.83.442-1.637 1.202-2.104 9.413-5.807 18.333-10.73 24.37-12.56 7.877-2.39 13.883-1.688 17.85 2.094l25.741 25.784c.53 2.357.807 4.764.807 7.219Z" fill="url(#r)"/><path d="M100.676 44.146a2.532 2.532 0 0 1-1.16-4.785c5.804-2.985 21.222-10.913 22.005-16.338.09-.627.044-1.62-1.394-2.99-4.903-4.674-17.859-.12-36.067 11.109a2.532 2.532 0 0 1-2.658-4.311c9.412-5.805 18.331-10.728 24.368-12.56 7.88-2.39 13.885-1.685 17.851 2.096 2.889 2.755 3.179 5.534 2.912 7.38-.959 6.648-10.568 12.85-24.701 20.118-.37.19-.766.28-1.156.28Z" fill="url(#s)"/><path d="m149.928 53.314-9.197-9.198a9.558 9.558 0 0 0-1.593-1.461c-9.47-7.02-28.212 5.622-48.053 19.006-4.852 3.273-9.538 6.434-13.935 9.194-.022-.014-.044-.028-.067-.04-.02-.036-11.132-11.165-11.154-11.199a2.521 2.521 0 0 0-.587-.633 31.33 31.33 0 0 1-1.67-.521c-.428.021-.857.15-1.243.399-7.083 4.57-16.203 11.596-13.65 19.813.638 2.05 1.657 3.411 2.736 4.318l22.712 22.712a4.498 4.498 0 0 1 4.47-4.017 4.48 4.48 0 0 1 3.178 1.317 4.489 4.489 0 0 1 1.316 3.181v2.014c0 3.841 3.035 7.095 6.876 7.141a6.934 6.934 0 0 0 5.006-2.038 6.94 6.94 0 0 0 2.039-4.923v-3.46c0-4.825 3.187-9.087 7.828-10.404 8.605-2.443 16.375-5.913 22.949-10.174a.793.793 0 0 1 1.223.667 6.96 6.96 0 0 0 13.92 0v-6.88c0-4.437 1.012-8.831 3.074-12.76 2.008-3.826 3.314-7.866 3.822-12.054Z" fill="url(#t)"/><path d="M57.154 84.875c-1.164 0-2.24-.163-3.227-.51-1.73-.608-4.027-2.089-5.147-5.691-2.555-8.218 6.566-15.243 13.649-19.813a2.532 2.532 0 1 1 2.745 4.256c-8.803 5.68-12.691 10.408-11.558 14.053.531 1.71 1.343 2.19 1.99 2.417 1.669.586 5.385.357 13.616-4.067 6.487-3.486 13.956-8.525 21.864-13.859 19.84-13.384 38.582-26.026 48.052-19.006 2.048 1.517 3.048 3.242 2.972 5.127-.152 3.798-4.315 6.395-11.21 10.696-7.774 4.85-18.42 11.49-27.027 22.41a2.531 2.531 0 1 1-3.977-3.134c9.154-11.614 20.233-18.526 28.323-23.572 3.566-2.225 8.43-5.26 8.818-6.567-.059-.108-.268-.412-.915-.891-6.593-4.887-26.338 8.433-42.204 19.136-14.995 10.115-28.19 19.014-36.765 19.015Z" fill="url(#u)"/><defs><linearGradient id="a" x1="44.198" y1="53.178" x2="113.749" y2="78.5" gradientUnits="userSpaceOnUse"><stop stop-color="#FAA68E"/><stop offset=".206" stop-color="#FBA682"/><stop offset=".581" stop-color="#FDA861"/><stop offset="1" stop-color="#FFA936"/></linearGradient><linearGradient id="b" x1="44.198" y1="53.178" x2="113.749" y2="78.5" gradientUnits="userSpaceOnUse"><stop stop-color="#FAA68E"/><stop offset=".206" stop-color="#FBA682"/><stop offset=".581" stop-color="#FDA861"/><stop offset="1" stop-color="#FFA936"/></linearGradient><linearGradient id="c" x1="114.8" y1="94.445" x2="-15.298" y2="103.223" gradientUnits="userSpaceOnUse"><stop stop-color="#F82814" stop-opacity="0"/><stop offset=".245" stop-color="#F12817" stop-opacity=".245"/><stop offset=".605" stop-color="#DD2820" stop-opacity=".605"/><stop offset="1" stop-color="#C0272D"/></linearGradient><linearGradient id="d" x1="118.812" y1="94.055" x2="41.383" y2="99.457" gradientUnits="userSpaceOnUse"><stop stop-color="#F82814" stop-opacity="0"/><stop offset=".245" stop-color="#F12817" stop-opacity=".245"/><stop offset=".605" stop-color="#DD2820" stop-opacity=".605"/><stop offset="1" stop-color="#C0272D"/></linearGradient><linearGradient id="e" x1="163.834" y1="78.77" x2="136.824" y2="61.045" gradientUnits="userSpaceOnUse"><stop stop-color="#F82814" stop-opacity="0"/><stop offset=".245" stop-color="#F12817" stop-opacity=".245"/><stop offset=".605" stop-color="#DD2820" stop-opacity=".605"/><stop offset="1" stop-color="#C0272D"/></linearGradient><linearGradient id="g" x1="32.658" y1="101.306" x2="30.567" y2="87.999" gradientUnits="userSpaceOnUse"><stop stop-color="#F82814" stop-opacity="0"/><stop offset=".245" stop-color="#F12817" stop-opacity=".245"/><stop offset=".605" stop-color="#DD2820" stop-opacity=".605"/><stop offset="1" stop-color="#C0272D"/></linearGradient><linearGradient id="h" x1="24.719" y1="105.017" x2="23.068" y2="94.512" gradientUnits="userSpaceOnUse"><stop stop-color="#F82814" stop-opacity="0"/><stop offset=".245" stop-color="#F12817" stop-opacity=".245"/><stop offset=".605" stop-color="#DD2820" stop-opacity=".605"/><stop offset="1" stop-color="#C0272D"/></linearGradient><linearGradient id="i" x1="32.716" y1="109.34" x2="31.721" y2="103.007" gradientUnits="userSpaceOnUse"><stop stop-color="#F82814" stop-opacity="0"/><stop offset=".245" stop-color="#F12817" stop-opacity=".245"/><stop offset=".605" stop-color="#DD2820" stop-opacity=".605"/><stop offset="1" stop-color="#C0272D"/></linearGradient><linearGradient id="j" x1="43.335" y1="107.433" x2="49.632" y2="99.725" gradientUnits="userSpaceOnUse"><stop stop-color="#F82814" stop-opacity="0"/><stop offset=".245" stop-color="#F12817" stop-opacity=".245"/><stop offset=".605" stop-color="#DD2820" stop-opacity=".605"/><stop offset="1" stop-color="#C0272D"/></linearGradient><linearGradient id="k" x1="37.38" y1="104.891" x2="42.351" y2="98.806" gradientUnits="userSpaceOnUse"><stop stop-color="#F82814" stop-opacity="0"/><stop offset=".245" stop-color="#F12817" stop-opacity=".245"/><stop offset=".605" stop-color="#DD2820" stop-opacity=".605"/><stop offset="1" stop-color="#C0272D"/></linearGradient><linearGradient id="l" x1="38.941" y1="111.424" x2="41.937" y2="107.755" gradientUnits="userSpaceOnUse"><stop stop-color="#F82814" stop-opacity="0"/><stop offset=".245" stop-color="#F12817" stop-opacity=".245"/><stop offset=".605" stop-color="#DD2820" stop-opacity=".605"/><stop offset="1" stop-color="#C0272D"/></linearGradient><linearGradient id="m" x1="129.909" y1="98.141" x2="136.205" y2="90.433" gradientUnits="userSpaceOnUse"><stop stop-color="#F82814" stop-opacity="0"/><stop offset=".245" stop-color="#F12817" stop-opacity=".245"/><stop offset=".605" stop-color="#DD2820" stop-opacity=".605"/><stop offset="1" stop-color="#C0272D"/></linearGradient><linearGradient id="n" x1="123.953" y1="95.599" x2="128.924" y2="89.514" gradientUnits="userSpaceOnUse"><stop stop-color="#F82814" stop-opacity="0"/><stop offset=".245" stop-color="#F12817" stop-opacity=".245"/><stop offset=".605" stop-color="#DD2820" stop-opacity=".605"/><stop offset="1" stop-color="#C0272D"/></linearGradient><linearGradient id="o" x1="125.514" y1="102.132" x2="128.51" y2="98.463" gradientUnits="userSpaceOnUse"><stop stop-color="#F82814" stop-opacity="0"/><stop offset=".245" stop-color="#F12817" stop-opacity=".245"/><stop offset=".605" stop-color="#DD2820" stop-opacity=".605"/><stop offset="1" stop-color="#C0272D"/></linearGradient><linearGradient id="p" x1="73.335" y1="58.936" x2="-10.565" y2="-46.403" gradientUnits="userSpaceOnUse"><stop stop-color="#42210B" stop-opacity="0"/><stop offset="1" stop-color="#42210B"/></linearGradient><linearGradient id="q" x1="37.281" y1="17.471" x2="65.641" y2="64.288" gradientUnits="userSpaceOnUse"><stop stop-color="#FFDECF"/><stop offset=".379" stop-color="#FDC4B0"/><stop offset=".765" stop-color="#FBAE97"/><stop offset="1" stop-color="#FAA68E"/></linearGradient><linearGradient id="r" x1="133.659" y1="54.398" x2="44.715" y2="-34.545" gradientUnits="userSpaceOnUse"><stop stop-color="#42210B" stop-opacity="0"/><stop offset="1" stop-color="#42210B"/></linearGradient><linearGradient id="s" x1="102.334" y1="23.576" x2="123.069" y2="48.818" gradientUnits="userSpaceOnUse"><stop stop-color="#FFDECF"/><stop offset=".379" stop-color="#FDC4B0"/><stop offset=".765" stop-color="#FBAE97"/><stop offset="1" stop-color="#FAA68E"/></linearGradient><linearGradient id="t" x1="113.43" y1="95.434" x2="63.799" y2="-7.88" gradientUnits="userSpaceOnUse"><stop stop-color="#42210B" stop-opacity="0"/><stop offset="1" stop-color="#42210B"/></linearGradient><linearGradient id="u" x1="89.729" y1="52.535" x2="110.661" y2="89.899" gradientUnits="userSpaceOnUse"><stop stop-color="#FFDECF"/><stop offset=".379" stop-color="#FDC4B0"/><stop offset=".765" stop-color="#FBAE97"/><stop offset="1" stop-color="#FAA68E"/></linearGradient><radialGradient id="f" cx="0" cy="0" r="1" gradientUnits="userSpaceOnUse" gradientTransform="matrix(100.275 0 0 69.19 62.677 30.711)"><stop stop-color="#A57C52"/><stop offset=".26" stop-color="#A47950"/><stop offset=".458" stop-color="#A26F4C"/><stop offset=".636" stop-color="#9F5F44"/><stop offset=".801" stop-color="#9A4838"/><stop offset=".957" stop-color="#942B2A"/><stop offset="1" stop-color="#922125"/></radialGradient></defs></svg>